<?xml version="1.0" encoding="iso-8859-1"?>
<!-- Generator: Adobe Illustrator 19.0.0, SVG Export Plug-In . SVG Version: 6.00 Build 0)  -->
<svg version="1.1" id="Capa_1" xmlns="http://www.w3.org/2000/svg" xmlns:xlink="http://www.w3.org/1999/xlink" x="0px" y="0px"
	 viewBox="0 0 409.6 409.6" style="enable-background:new 0 0 409.6 409.6;" xml:space="preserve">
<rect x="181.033" y="60.5" transform="matrix(-0.2553 0.9669 -0.9669 -0.2553 439.2863 -139.7803)" style="fill:#FCD462;" width="184.883" height="77.568"/>
<rect x="256.041" y="80.33" transform="matrix(-0.2553 0.9669 -0.9669 -0.2553 552.6163 -187.4101)" style="fill:#F6C358;" width="184.883" height="77.568"/>
<g>
	<polygon style="fill:#DC8744;" points="362.404,218.366 212.377,178.751 296.536,163.923 	"/>
	<ellipse style="fill:#DC8744;" cx="295.987" cy="26.011" rx="5.171" ry="5.171"/>
	<ellipse style="fill:#DC8744;" cx="365.1" cy="44.269" rx="5.171" ry="5.171"/>
	<path style="fill:#DC8744;" d="M314.242,96.863c-20.848-5.505-33.091-27.846-27.294-49.801l6.15-23.291l6.5,1.716l-6.15,23.291
		c-4.851,18.372,5.246,37.027,22.51,41.586c17.265,4.559,35.255-6.679,40.106-25.052l6.15-23.291l6.5,1.716l-6.15,23.291
		C356.766,88.983,335.09,102.368,314.242,96.863z"/>
</g>
<path style="fill:#FFFFFF;" d="M315.111,93.572c-20.848-5.505-33.329-26.943-27.824-47.791l5.812-22.011l6.5,1.716l-5.812,22.011
	c-4.558,17.263,5.776,35.016,23.041,39.575c17.265,4.559,35.017-5.778,39.575-23.041l5.812-22.011l6.5,1.716l-5.812,22.011
	C357.397,86.595,335.959,99.077,315.111,93.572z"/>
<path style="fill:#FCD462;" d="M180.141,32.714c-3.316-6.704-17.247-14.91-24.653-10.428
	c-19.355,11.713-18.962,38.711-18.962,38.711s14.835-9.989,25.616-20.663C162.141,40.334,174.835,27.036,180.141,32.714z"/>
<path style="fill:#44C4A1;" d="M173.263,29.613c-5.657,1.935-11.477,7.854-12.599,9.032c-7.212,7.098-17.094,15.226-22.313,19.071
	c0.701-5.555,4.126-24.812,18.558-33.518c0.143-0.086,0.313-0.159,0.495-0.236c0.199-0.085,0.405-0.172,0.612-0.292
	c1.592-0.919,6.797-1.307,9.653-1.105c-1.223-0.494-2.461-0.888-3.684-1.156c-2.573,0.139-5.309,0.537-6.552,1.254
	c-0.156,0.09-0.322,0.159-0.486,0.229c-0.21,0.09-0.428,0.182-0.641,0.311c-16.493,9.95-19.028,33.101-19.263,35.708l-0.113,1.257
	l1.034-0.733c4.862-3.448,15.741-12.303,23.558-20c1.078-1.131,6.753-6.861,12.119-8.72c1.693-0.581,3.459-0.703,4.611-0.764
	c-0.316-0.369-0.652-0.736-1.013-1.1C176.101,28.941,174.674,29.129,173.263,29.613z"/>
<path style="fill:#F6C358;" d="M162.141,40.334c-10.781,10.673-25.616,20.663-25.616,20.663l34.091-14.468
	c0,0,11.196-5.937,10.182-11.897c-0.105-0.616-0.332-1.26-0.658-1.918C174.835,27.036,162.141,40.334,162.141,40.334z"/>
<path style="fill:#FCD462;" d="M86.938,67.075c-1.829-7.252,3.441-22.537,11.985-23.935c22.326-3.653,39.552,17.138,39.552,17.138
	s-17.769,2.031-32.898,0.91C105.576,61.188,87.288,59.311,86.938,67.075z"/>
<path style="fill:#44C4A1;" d="M90.157,60.252c5.56-2.2,13.829-1.475,15.446-1.308c10.094,0.718,22.886,0.487,29.353,0.023
	c-4.139-3.771-19.244-16.196-35.875-13.451c-0.164,0.027-0.341,0.083-0.529,0.142c-0.206,0.064-0.42,0.131-0.655,0.175
	c-1.807,0.334-6.018,3.418-8.06,5.425c0.609-1.17,1.296-2.273,2.052-3.271c2.047-1.565,4.387-3.038,5.798-3.299
	c0.177-0.033,0.349-0.088,0.519-0.141c0.218-0.068,0.444-0.139,0.689-0.18c19.004-3.137,35.961,12.828,37.832,14.659l0.902,0.883
	l-1.263,0.113c-5.936,0.533-19.961,0.859-30.903,0.079c-1.555-0.161-9.591-0.836-14.879,1.233c-1.665,0.657-3.088,1.711-4.004,2.412
	c0.001-0.486,0.018-0.983,0.056-1.495C87.562,61.583,88.769,60.8,90.157,60.252z"/>
<path style="fill:#F6C358;" d="M105.576,61.188c15.129,1.121,32.898-0.91,32.898-0.91L103.15,71.401c0,0-12.37,2.751-15.468-2.44
	c-0.32-0.536-0.565-1.174-0.744-1.886C87.288,59.311,105.576,61.188,105.576,61.188z"/>
<rect x="68.053" y="59.009" transform="matrix(-0.9383 0.3459 -0.3459 -0.9383 299.6369 90.7937)" style="fill:#E56353;" width="147.328" height="26.25"/>
<rect x="91.645" y="81.612" transform="matrix(-0.9383 0.3459 -0.3459 -0.9383 358.5331 191.2773)" style="fill:#D15241;" width="141.107" height="92.037"/>
<polygon style="fill:#CE412D;" points="214.705,66.083 82.324,114.943 80.08,108.858 212.479,60.046 "/>
<rect x="144.994" y="56.177" transform="matrix(-0.9383 0.3459 -0.3459 -0.9383 345.467 168.9729)" style="fill:#FCD462;" width="25.324" height="118.272"/>
<g>
	
		<rect x="148.601" y="59.093" transform="matrix(-0.9383 0.3459 -0.3459 -0.9383 331.1479 177.3601)" style="fill:#44C4A1;" width="2.294" height="118.272"/>
	
		<rect x="164.449" y="53.242" transform="matrix(-0.9383 0.3459 -0.3459 -0.9383 359.8412 160.5375)" style="fill:#44C4A1;" width="2.294" height="118.272"/>
</g>
<path style="fill:#F6C358;" d="M133.317,102.129c0.04-6.923-2.444-11.42-6.831-20.206c-8.681,4.721-13.319,7.003-17.291,12.702
	c4.57-16.615,10.145-24.995,20.553-38.808c3.666,1.141,5.499,1.711,9.166,2.851C139.457,75.888,139.182,85.916,133.317,102.129z"/>
<g>
	<path style="fill:#44C4A1;" d="M131.394,56.328c-0.119-0.037-0.228-0.071-0.35-0.109c-0.06-0.019-0.129-0.04-0.19-0.059
		c-7.069,10.035-14.593,22.077-17.774,34.069c1.005-0.894,2.092-1.715,3.286-2.516c4.124-12.944,8.745-19.642,15.319-31.295
		C131.569,56.383,131.484,56.356,131.394,56.328z"/>
	<path style="fill:#44C4A1;" d="M137.808,58.323c-0.061-0.019-0.13-0.04-0.19-0.059c-0.122-0.038-0.231-0.072-0.35-0.109
		c-0.09-0.028-0.174-0.054-0.291-0.09c-1.353,13.278-1.435,21.387-5.542,34.337c0.516,1.333,0.932,2.621,1.239,3.924
		C137.003,84.69,137.799,70.555,137.808,58.323z"/>
</g>
<path style="fill:#F6C358;" d="M166.837,89.771c-4.524-5.24-5.554-10.273-7.92-19.805c9.668-2.044,14.677-3.319,21.398-1.562
	c-14.261-9.673-23.942-12.428-40.825-16.18c-2.049,3.247-3.073,4.871-5.122,8.119C145.133,73.795,151.852,81.245,166.837,89.771z"/>
<g>
	<path style="fill:#44C4A1;" d="M138.57,53.683c0.066-0.105,0.127-0.202,0.196-0.31c0.033-0.053,0.072-0.114,0.106-0.168
		c11.891,3.045,25.431,7.321,35.635,14.379c-1.345-0.028-2.705,0.053-4.133,0.219c-11.54-7.169-19.402-9.265-31.967-13.862
		C138.473,53.838,138.52,53.763,138.57,53.683z"/>
	<path style="fill:#44C4A1;" d="M134.986,59.363c0.034-0.054,0.073-0.115,0.106-0.168c0.068-0.108,0.129-0.205,0.196-0.31
		c0.05-0.08,0.098-0.154,0.163-0.258c9.648,9.222,14.975,15.337,26.504,22.523c0.473,1.349,0.992,2.599,1.604,3.789
		C152.714,78.898,142.933,68.663,134.986,59.363z"/>
</g>
<path style="fill:#DC8744;" d="M133.68,50.277c-5.253,1.937-7.951,7.738-6.027,12.958l19.023-7.013
	C144.752,51.002,138.933,48.34,133.68,50.277z"/>
<circle style="fill:#64798A;" cx="153.805" cy="379.915" r="29.681"/>
<circle style="fill:#EBF0F3;" cx="153.805" cy="379.915" r="16.65"/>
<circle style="fill:#64798A;" cx="341.914" cy="379.915" r="29.681"/>
<g>
	<circle style="fill:#EBF0F3;" cx="341.914" cy="379.915" r="16.65"/>
	<path style="fill:#EBF0F3;" d="M70.789,97.206v13.029h49.795v21.039H77.546v13.029h43.038v22.636h-33.47v13.029h33.47v22.636
		H94.436v13.029h26.148v22.636h-17.139v13.029h17.139v33.843l-7.628,0.744l1.26,12.966l252.963-24.665L409.6,97.206H70.789z
		 M388.04,131.275h-49.452v-21.039h54.496L388.04,131.275z M236.104,202.605v-22.636h38.216v22.636H236.104z M274.32,215.634v22.636
		h-38.216v-22.636H274.32z M236.104,166.94v-22.636h38.216v22.636H236.104z M287.349,144.304h38.21v22.636h-38.21V144.304z
		 M287.349,131.275v-21.039h38.21v21.039H287.349z M274.32,131.275h-38.216v-21.039h38.216V131.275z M223.075,131.275h-38.216
		v-21.039h38.216V131.275z M223.075,144.304v22.636h-38.216v-22.636H223.075z M223.075,179.969v22.636h-38.216v-22.636H223.075z
		 M223.075,215.634v22.636h-38.216v-22.636H223.075z M223.075,251.299v23.847l-38.216,3.727v-27.574H223.075z M236.104,251.299
		h38.216v18.85l-38.216,3.727V251.299z M287.349,251.299h38.21v13.852l-38.21,3.727V251.299z M287.349,238.269v-22.636h38.21v22.636
		H287.349z M287.349,202.605v-22.636h38.21v22.636H287.349z M338.588,179.969h37.777l-5.427,22.636h-32.35V179.969z M338.588,166.94
		v-22.636h46.328l-5.427,22.636H338.588z M133.613,110.236h38.216v21.039h-38.216V110.236z M133.613,144.304h38.216v22.636h-38.216
		V144.304z M133.613,179.969h38.216v22.636h-38.216V179.969z M133.613,215.634h38.216v22.636h-38.216V215.634z M133.613,251.299
		h38.216v28.845l-38.216,3.727V251.299z M338.588,263.881v-12.582h20.675l-2.594,10.818L338.588,263.881z M362.387,238.269h-23.798
		v-22.636h29.225L362.387,238.269z"/>
</g>
<path style="fill:#1C75A1;" d="M387.809,327.963H113.28c-7.526,0-13.627-6.101-13.627-13.627v-0.808
	c0-7.022,5.318-12.975,12.315-13.568c2.377-0.202,4.546-1.421,5.931-3.336c1.355-1.874,1.839-4.243,1.317-6.511L62.862,46.747
	H32.707v13.029h19.798l52.855,228.279c-10.987,3.365-18.736,13.503-18.736,25.473v0.808c0,14.722,11.935,26.656,26.656,26.656
	h274.529c3.598,0,6.515-2.917,6.515-6.515C394.324,330.88,391.407,327.963,387.809,327.963z"/>
<path style="fill:#E56353;" d="M9.382,43.895C4.2,43.895,0,48.095,0,53.277c0,5.181,4.2,9.382,9.382,9.382h35.006V43.895H9.382z"/>
<g>
</g>
<g>
</g>
<g>
</g>
<g>
</g>
<g>
</g>
<g>
</g>
<g>
</g>
<g>
</g>
<g>
</g>
<g>
</g>
<g>
</g>
<g>
</g>
<g>
</g>
<g>
</g>
<g>
</g>
</svg>
