<?xml version="1.0" encoding="iso-8859-1"?>
<!-- Generator: Adobe Illustrator 19.0.0, SVG Export Plug-In . SVG Version: 6.00 Build 0)  -->
<svg version="1.1" id="Capa_1" xmlns="http://www.w3.org/2000/svg" xmlns:xlink="http://www.w3.org/1999/xlink" x="0px" y="0px"
	 viewBox="0 0 512 512" style="enable-background:new 0 0 512 512;" xml:space="preserve">
<circle style="fill:#71E3EF;" cx="256" cy="256" r="256"/>
<path style="fill:#83D4D2;" d="M248.252,149.633L248.252,149.633c0-16.735,13.567-30.302,30.302-30.302h18.808
	c16.735,0,30.302-13.567,30.302-30.302l0,0c0-16.735-13.567-30.302-30.302-30.302H161.526c-16.735,0-30.302,13.567-30.302,30.302
	l0,0c0,16.735-13.567,30.302-30.302,30.302H82.113c-16.735,0-30.302,13.567-30.302,30.302l0,0c0,16.735,13.567,30.302,30.302,30.302
	h18.808c16.735,0,30.302,13.567,30.302,30.302l0,0c0,16.735,13.567,30.302,30.302,30.302h177.061
	c16.735,0,30.302-13.567,30.302-30.302l0,0c0-16.735-13.567-30.302-30.302-30.302h-60.033
	C261.819,179.935,248.252,166.368,248.252,149.633z"/>
<path style="fill:#8CF5F9;" d="M262.881,338.759L262.881,338.759c0-16.735,13.567-30.302,30.302-30.302h18.808
	c16.735,0,30.302-13.567,30.302-30.302l0,0c0-16.735-13.567-30.302-30.302-30.302H176.154c-16.735,0-30.302,13.567-30.302,30.302
	l0,0c0,16.735-13.567,30.302-30.302,30.302H96.742c-16.735,0-30.302,13.567-30.302,30.302l0,0c0,16.735,13.567,30.302,30.302,30.302
	h18.808c16.735,0,30.302,13.567,30.302,30.302l0,0c0,16.735,13.567,30.302,30.302,30.302h177.061
	c16.735,0,30.302-13.567,30.302-30.302l0,0c0-16.735-13.567-30.302-30.302-30.302h-60.033
	C276.448,369.061,262.881,355.494,262.881,338.759z"/>
<path style="fill:#83D4D2;" d="M57.511,227.025c0,16.739-13.573,30.302-30.302,30.302H0.01C0,256.888,0,256.439,0,256
	c0-20.407,2.382-40.249,6.907-59.277h20.302c8.359,0,15.945,3.385,21.42,8.871C54.115,211.08,57.511,218.655,57.511,227.025z"/>
<path style="fill:#8CF5F9;" d="M512,256c0,3.918-0.094,7.826-0.261,11.703H343.343c-8.37,0-15.945-3.396-21.431-8.871
	c-4.786-4.796-7.983-11.18-8.714-18.296c-0.104-1.034-0.157-2.079-0.157-3.135c0-16.729-13.573-30.302-30.302-30.302h-18.808
	c-8.37,0-15.945-3.396-21.431-8.871c-5.475-5.486-8.871-13.061-8.871-21.431c0-11.013,5.872-20.647,14.66-25.955
	c4.566-2.759,9.916-4.347,15.642-4.347h18.808c8.37,0,15.935-3.396,21.42-8.871c5.486-5.486,8.882-13.061,8.882-21.431
	c0-0.418,0.01-0.836,0.031-1.254c0.418-10.459,6.154-19.55,14.566-24.66c4.577-2.79,9.958-4.389,15.705-4.389H447.3
	c0.355,0.387,0.7,0.773,1.045,1.17c15.402,17.512,28.442,37.157,38.63,58.42c-2.487,0.658-5.099,1.014-7.795,1.014h-18.808
	c-16.739,0-30.302,13.573-30.302,30.302c0,16.739,13.563,30.302,30.302,30.302h46.958C510.391,222.929,512,239.282,512,256z"/>
<g>
	<polygon style="fill:#F4BF23;" points="428.849,326.703 339.194,400.823 374.122,421.816 270.643,494.589 435.764,424.731 
		404.415,405.888 474.343,356.485 	"/>
	<polygon style="fill:#F4BF23;" points="83.13,326.703 172.785,400.823 137.858,421.816 241.336,494.589 76.215,424.731 
		107.564,405.888 37.636,356.485 	"/>
</g>
<path style="fill:#F9CCB2;" d="M424.532,448.7c-32.883,28.787-73.216,49.298-117.718,58.253C290.388,510.265,273.398,512,256,512
	c-0.763,0-1.526,0-2.288-0.021h-0.01c-63.645-0.554-121.741-24.336-166.233-63.279c12.288-33.876,38.975-60.834,72.662-73.498
	c7.617-2.863,15.59-4.995,23.834-6.311h0.01c6.374-1.014,12.925-1.546,19.592-1.546h104.866c6.113,0,12.11,0.449,17.983,1.306
	c0.543,0.073,1.087,0.157,1.62,0.24C372.757,376.017,409.475,407.165,424.532,448.7z"/>
<path style="fill:#E5B59C;" d="M114.668,448.702c15.067-41.535,51.785-72.673,96.507-79.809c6.374-1.014,12.925-1.546,19.592-1.546
	h-27.209c-6.666,0-13.218,0.533-19.592,1.546c-44.722,7.137-81.439,38.275-96.507,79.809c6.864,6.008,14.055,11.651,21.536,16.908
	C111.077,459.783,113.018,454.109,114.668,448.702z"/>
<path style="fill:#757A89;" d="M135.373,234.75L135.373,234.75c-2.847,0-5.156-2.308-5.156-5.156v-3.608
	c0-2.847,2.308-5.156,5.156-5.156l0,0c2.847,0,5.156,2.308,5.156,5.156v3.608C140.527,232.442,138.22,234.75,135.373,234.75z"/>
<path style="fill:#F9CCB2;" d="M308.406,320.453v51.829c0,28.955-23.462,52.418-52.407,52.418c-8.967,0-17.404-2.251-24.778-6.22
	c-4.547-2.423-8.679-5.516-12.291-9.128c-8.414-8.414-13.976-19.665-15.13-32.199c-0.139-1.604-0.219-3.232-0.219-4.87v-51.829
	h104.825V320.453z"/>
<g>
	<path style="fill:#E5B59C;" d="M308.406,335.457v26.763c-16.18,8.483-34.599,13.295-54.137,13.295
		c-1.858,0-3.716-0.046-5.563-0.139c-0.265-0.012-0.519-0.023-0.773-0.023c-9.187,0-16.711,7.524-16.711,16.803v26.324
		c-4.547-2.423-8.679-5.516-12.291-9.128c-8.414-8.414-13.976-19.665-15.13-32.199c-0.139-1.604-0.219-3.232-0.219-4.87v-36.826
		H308.406z"/>
	<circle style="fill:#E5B59C;" cx="154.373" cy="221.968" r="32.392"/>
	<circle style="fill:#E5B59C;" cx="357.616" cy="221.968" r="32.392"/>
</g>
<path style="fill:#F9CCB2;" d="M372.705,174.184v73.08c0,32.235-13.061,61.409-34.189,82.526c-1.839,1.839-3.741,3.615-5.695,5.319
	c-1.034,0.899-2.079,1.787-3.145,2.644c-20.083,16.394-45.735,26.216-73.686,26.216c-39.163,0-73.832-19.299-94.992-48.901
	c-13.678-19.111-21.713-42.517-21.713-67.803v-73.08c0-64.46,52.255-116.705,116.705-116.705
	C320.449,57.48,372.705,109.725,372.705,174.184z"/>
<g>
	<path style="fill:#E5B59C;" d="M284.99,222.562c0,0-2.398,11.746,19.065,20.075c0.963,0.374,2.06,0.155,2.79-0.576l0,0
		c1.138-1.138,0.984-3.038-0.343-3.948c-2.915-1.998-6.932-5.945-5.537-11.975"/>
	<path style="fill:#E5B59C;" d="M226.922,222.562c0,0,2.398,11.746-19.065,20.075c-0.963,0.374-2.059,0.155-2.79-0.576l0,0
		c-1.138-1.138-0.984-3.038,0.343-3.948c2.915-1.998,6.932-5.945,5.537-11.975"/>
	<path style="fill:#E5B59C;" d="M226.922,216.418c-0.65,5.379-5.398,9.328-10.816,9.328h-28.157c-2.94,0-5.604-1.189-7.533-3.118
		c-2.208-2.214-3.457-5.396-3.039-8.856c0.65-5.379,5.397-9.328,10.816-9.328h28.157c2.94,0,5.604,1.189,7.533,3.118
		C226.092,209.777,227.341,212.959,226.922,216.418z"/>
</g>
<path style="fill:#FFFFFF;" d="M226.922,223.886c-0.65,5.379-5.398,9.328-10.816,9.328h-28.157c-2.94,0-5.604-1.189-7.533-3.118
	c-2.208-2.214-3.457-5.396-3.039-8.856c0.65-5.379,5.397-9.328,10.816-9.328h28.157c2.94,0,5.604,1.189,7.533,3.118
	C226.092,217.245,227.341,220.426,226.922,223.886z"/>
<path style="fill:#E5B59C;" d="M324.041,204.444h-28.4c-5.882,0-10.65,4.768-10.65,10.65l0,0c0,5.882,4.768,10.65,10.65,10.65h28.4
	c5.882,0,10.65-4.768,10.65-10.65l0,0C334.69,209.213,329.922,204.444,324.041,204.444z"/>
<path style="fill:#FFFFFF;" d="M324.041,211.913h-28.4c-5.882,0-10.65,4.768-10.65,10.65l0,0c0,5.882,4.768,10.65,10.65,10.65h28.4
	c5.882,0,10.65-4.768,10.65-10.65l0,0C334.69,216.68,329.922,211.913,324.041,211.913z"/>
<g>
	<path style="fill:#50BC65;" d="M216.316,219.048c0,7.822-6.343,14.166-14.166,14.166c-7.822,0-14.166-6.343-14.166-14.166
		c0-2.604,0.704-5.042,1.935-7.136h24.461C215.612,214.007,216.316,216.444,216.316,219.048z"/>
	<path style="fill:#50BC65;" d="M324.005,219.048c0,7.822-6.343,14.166-14.166,14.166s-14.166-6.343-14.166-14.166
		c0-2.604,0.704-5.042,1.935-7.136h24.461C323.302,214.007,324.005,216.444,324.005,219.048z"/>
</g>
<g>
	<path style="fill:#E5B59C;" d="M182.678,183.167c-3.305,0-6.141,2.586-6.2,5.89c-0.062,3.367,2.649,6.115,6.002,6.115h32.897
		c13.062,0,23.65,10.589,23.65,23.65v58.596h5.96c7.656,0,13.863-6.207,13.863-13.863v-62.329c0-9.975-8.086-18.061-18.061-18.061
		h-58.11V183.167z"/>
	<path style="fill:#E5B59C;" d="M166.439,247.268v-73.084c0-60.758,41.206-110.663,100.519-116.191
		c-3.61-0.336-7.265-0.516-10.964-0.516l0,0c-64.456,0-116.707,52.251-116.707,116.707v73.084
		c0,64.456,52.251,116.707,116.707,116.707l0,0c3.698,0,7.354-0.18,10.964-0.516C207.644,357.931,166.439,308.025,166.439,247.268z"
		/>
	<path style="fill:#E5B59C;" d="M327.043,388.577c0,98.158-83.592,113.257-83.592,113.257s-83.592-15.099-83.592-113.257
		c0-4.65,0.094-9.112,0.272-13.375c7.617-2.863,15.59-4.995,23.834-6.311h0.01c6.374-1.014,12.925-1.546,19.592-1.546h104.866
		c6.113,0,12.11,0.449,17.983,1.306C326.823,374.847,327.043,381.471,327.043,388.577z"/>
</g>
<path style="fill:#434D70;" d="M386.473,161.344c2.915,3.48,4.66,7.952,4.66,12.842c0,11.065-8.965,20.031-20.031,20.031
	c-11.065,0-20.031-8.965-20.031-20.031c0-3.051,0.7-5.935,1.923-8.526c-9.592-4.932-16.154-14.932-16.154-26.467
	c0-1.432,0.104-2.832,0.303-4.211c-15.83-2.487-28.223-15.318-30.062-31.357c-3.26,0.972-6.708,1.505-10.282,1.505
	c-10.439,0-19.843-4.462-26.405-11.577c-4.441,1.839-9.3,2.863-14.399,2.863c-5.099,0-9.968-1.024-14.399-2.863
	c-6.572,7.116-15.966,11.577-26.415,11.577c-3.574,0-7.022-0.533-10.282-1.505c-1.839,16.039-14.221,28.871-30.051,31.357
	c0.199,1.379,0.303,2.779,0.303,4.211c0,11.536-6.562,21.535-16.154,26.467c1.212,2.591,1.912,5.475,1.912,8.526
	c0,11.065-8.965,20.031-20.031,20.031s-20.031-8.965-20.031-20.031c0-4.89,1.755-9.362,4.66-12.842
	c-6.071-5.444-9.885-13.354-9.885-22.152c0-12.873,8.171-23.834,19.613-27.982c-1.275-3.678-1.975-7.617-1.975-11.724
	c0-19.853,16.091-35.944,35.944-35.944c3.574,0,7.022,0.533,10.282,1.505c2.048-17.899,17.251-31.807,35.694-31.807
	c4.044,0,7.931,0.679,11.557,1.912c6.896-8.516,17.439-13.97,29.257-13.97c11.818,0,22.35,5.454,29.247,13.97
	c3.626-1.233,7.513-1.912,11.557-1.912c18.453,0,33.646,13.908,35.704,31.807c3.25-0.972,6.698-1.505,10.271-1.505
	c19.853,0,35.944,16.091,35.944,35.944c0,4.106-0.7,8.046-1.964,11.724c11.431,4.148,19.613,15.109,19.613,27.982
	C396.368,147.99,392.544,155.9,386.473,161.344z"/>
<path style="fill:#E5B59C;" d="M334.294,327.492c0,2.696-0.522,5.266-1.473,7.617c-20.522,17.972-47.397,28.86-76.831,28.86
	c-39.163,0-73.832-19.299-94.992-48.901c2.654-3.479,6.416-6.081,10.752-7.304c-0.564-1.755-0.878-3.626-0.878-5.569
	c0-8.213,5.423-15.161,12.894-17.46c-0.272-1.024-0.428-2.09-0.428-3.197c0-7.043,5.716-12.758,12.758-12.758
	c2.581,0,4.995,0.784,7.001,2.1c2.215-3.751,6.301,4.17,10.971,4.17c3.396,0,6.468-9.113,8.746-6.96
	c1.902-0.272,3.824-0.502,5.768-0.679c5.559-0.522,11.243-0.679,16.959-0.679c0.825,0,1.661,0,2.487,0.01
	c6.875,0.063,8.453,10.847,15.015,11.798c2.278-2.163,5.35-3.49,8.746-3.49c4.671,0,8.746,2.529,10.971,6.28
	c2.006-1.317,4.409-2.1,7.001-2.1c7.043,0,12.758,5.716,12.758,12.758c0,1.108-0.157,2.173-0.428,3.197
	c7.471,2.299,12.894,9.247,12.894,17.46c0,1.943-0.313,3.814-0.878,5.569C322.738,320.638,334.294,318.098,334.294,327.492z"/>
<path style="fill:#3C435B;" d="M139.285,247.265c0,32.235,13.061,61.409,34.189,82.526c1.839,1.839,3.741,3.615,5.695,5.319
	c1.034,0.899,2.079,1.787,3.145,2.644l10.982,3.511l1.39-47.365c0,0-37.125-8.683-37.125-50.322L139.285,247.265z"/>
<path style="fill:#434D70;" d="M344.739,327.496c0-9.4-6.331-17.305-14.956-19.73c0.563-1.759,0.874-3.629,0.874-5.575
	c0-8.215-5.426-15.161-12.889-17.455c0.265-1.025,0.421-2.094,0.421-3.202c0-7.044-5.71-12.754-12.754-12.754
	c-2.588,0-4.993,0.776-7.003,2.1c-2.219-3.755-6.298-6.281-10.975-6.281c-3.388,0-6.458,1.33-8.742,3.485
	c-6.566-0.943-13.365-1.283-20.24-1.345c-0.825-0.01-1.661-0.01-2.487-0.01c-5.716,0-11.4,0.157-16.959,0.679
	c-1.939,0.18-3.862,0.404-5.766,0.678c-2.284-2.156-5.355-3.487-8.745-3.487c-4.678,0-8.755,2.526-10.975,6.281
	c-2.01-1.325-4.416-2.1-7.003-2.1c-7.044,0-12.754,5.71-12.754,12.754c0,1.108,0.156,2.177,0.421,3.202
	c-7.463,2.295-12.889,9.24-12.889,17.455c0,1.946,0.31,3.816,0.874,5.575c-8.625,2.425-14.956,10.33-14.956,19.73
	c0,6.053,2.638,11.477,6.809,15.231c-1.076,9.25-1.651,19.608-1.651,31.219c0,98.158,83.592,113.257,83.592,113.257
	s83.592-15.099,83.592-113.257c0-11.613-0.576-21.967-1.652-31.218C342.101,338.975,344.739,333.55,344.739,327.496z"/>
<path style="fill:#3C435B;" d="M255.879,487.184c-3.218-0.616-83.487-17.053-83.487-113.236c0-11.609,0.575-21.974,1.651-31.222
	c-4.169-3.751-6.802-9.174-6.802-15.235c0-9.394,6.332-17.303,14.952-19.728c-0.564-1.755-0.878-3.626-0.878-5.569
	c0-8.213,5.433-15.161,12.894-17.46c-0.272-1.024-0.418-2.09-0.418-3.197c0-7.043,5.705-12.758,12.748-12.758
	c2.57,0,4.953,0.773,6.949,2.069c-2.623,2.278-4.357,6.217-4.357,10.689c0,1.108,0.115,2.173,0.313,3.197
	c-5.622,2.299-9.707,9.247-9.707,17.46c0,1.944,0.23,3.814,0.658,5.569c-6.499,2.424-11.274,10.334-11.274,19.728
	c0,6.06,1.996,11.483,5.13,15.235c-0.805,9.247-1.243,19.613-1.243,31.222C193.007,469.807,253.068,486.452,255.879,487.184z"/>
<path style="fill:#E6DFE1;" d="M213.487,270.848c0.052-0.042,0.094-0.084,0.146-0.125c-0.031,0.052-0.063,0.104-0.094,0.157
	C213.519,270.869,213.508,270.858,213.487,270.848z"/>
<path style="fill:#3C435B;" d="M174.85,134.981c0.199,1.379,0.303,2.779,0.303,4.211c0,11.536-6.562,21.535-16.154,26.467
	c1.212,2.591,1.912,5.475,1.912,8.526c0,11.065-8.965,20.031-20.031,20.031s-20.031-8.965-20.031-20.031
	c0-4.89,1.755-9.362,4.66-12.842c-6.071-5.444-9.885-13.354-9.885-22.152c0-12.873,8.171-23.834,19.613-27.982
	c-1.275-3.678-1.975-7.617-1.975-11.724c0-19.853,16.091-35.944,35.944-35.944c3.574,0,7.022,0.533,10.282,1.505
	c-10.282-1.505-30.595,17.262-20.146,36.592c10.449,19.331,39.926,21.734,45.558,1.985
	C203.062,119.663,190.68,132.494,174.85,134.981z"/>
<polygon style="fill:#434D70;" points="354.429,261.855 372.705,251.406 372.705,181.049 354.429,181.049 "/>
<path style="fill:#3C435B;" d="M235.973,314.355c13.001-4.283,27.042-4.283,40.043,0c3.474,1.133,7.443-0.224,8.988-3.476l0,0
	c1.544-3.239-0.588-7.466-4.915-8.888c-15.645-5.156-32.543-5.156-48.189,0c-4.326,1.422-6.459,5.649-4.915,8.888l0,0
	C228.53,314.132,232.499,315.488,235.973,314.355z"/>
<path style="fill:#434D70;" d="M372.705,247.265c0,32.235-13.061,61.409-34.189,82.526c-1.839,1.839-3.741,3.615-5.695,5.319
	c-1.034,0.899-2.079,1.787-3.145,2.644l-10.982,3.511l-1.39-47.365c0,0,37.125-8.683,37.125-50.322L372.705,247.265z"/>
<polygon style="fill:#3C435B;" points="157.56,261.855 139.285,251.406 139.285,181.049 157.56,181.049 "/>
<g>
	<path style="fill:#434D70;" d="M329.674,172.506l-45.531,10.929c-3.224,0.774-4.308,7.77-2.423,15.625l0,0
		c1.886,7.856,6.028,13.597,9.252,12.824l45.531-10.929c3.224-0.774,4.308-7.77,2.423-15.625l0,0
		C337.039,177.474,332.897,171.732,329.674,172.506z"/>
	<path style="fill:#434D70;" d="M182.316,172.506l45.531,10.929c3.224,0.774,4.308,7.77,2.423,15.625l0,0
		c-1.886,7.856-6.028,13.597-9.252,12.824l-45.531-10.929c-3.224-0.774-4.308-7.77-2.423-15.625l0,0
		C174.95,177.474,179.092,171.732,182.316,172.506z"/>
</g>
<g>
	<path style="fill:#F4BF23;" d="M328.233,50.085c-47.518-11.087-96.954-11.087-144.472,0c-6.395,1.492-10.265,8.01-8.533,14.343
		c0.021,0.075,0.041,0.15,0.062,0.226c1.638,5.988,7.711,9.638,13.757,8.226c44.039-10.282,89.86-10.282,133.899,0
		c6.046,1.412,12.119-2.238,13.757-8.226c0.021-0.075,0.041-0.15,0.062-0.226C338.498,58.094,334.626,51.576,328.233,50.085z"/>
	<polygon style="fill:#F4BF23;" points="440.809,13.866 402.148,123.58 442.899,123.58 391.696,239.26 497.235,94.323 
		460.659,94.323 495.144,15.956 	"/>
	<path style="fill:#F4BF23;" d="M511.927,261.538c-0.104,4.995-0.355,9.958-0.742,14.879l-150.152,63.53l103.476-72.777
		l-34.921-20.992l72.725-60.123c2.779,9.78,4.984,19.811,6.583,30.041c1.202,7.68,2.069,15.485,2.56,23.385l-16.656,11.766
		L511.927,261.538z"/>
	<polygon style="fill:#F4BF23;" points="71.181,13.866 109.842,123.58 69.091,123.58 120.294,239.26 14.755,94.323 51.331,94.323 
		16.846,15.956 	"/>
	<path style="fill:#F4BF23;" d="M150.956,339.947L0.794,276.417c-0.104-1.369-0.209-2.748-0.293-4.117
		c-0.23-3.563-0.376-7.158-0.449-10.762l17.136-10.292L0.522,239.47c0.261-4.075,0.616-8.129,1.066-12.152
		c1.567-14.137,4.295-27.93,8.077-41.263l72.735,60.123L47.48,267.17L150.956,339.947z"/>
</g>
<g>
</g>
<g>
</g>
<g>
</g>
<g>
</g>
<g>
</g>
<g>
</g>
<g>
</g>
<g>
</g>
<g>
</g>
<g>
</g>
<g>
</g>
<g>
</g>
<g>
</g>
<g>
</g>
<g>
</g>
</svg>
