<svg height="479pt" viewBox="-15 0 479 479.672" width="479pt" xmlns="http://www.w3.org/2000/svg"><path d="m56.335938 439.671875c16.960937 0 30.878906 13.28125 31.921874 30-9.042968 6.3125-20 10-31.921874 10-11.921876 0-22.878907-3.6875-31.921876-10 .960938-16.710937 14.882813-30 31.921876-30zm0 0" fill="#a0d468"/><path d="m40.335938 423.671875c0 8.800781 7.199218 16 16 16-17.039063 0-30.960938 13.28125-31.921876 30-14.558593-10.085937-24.078124-26.886719-24.078124-46 0-30.96875 25.039062-56 56-56 30.960937 0 56 25.03125 56 56 0 19.113281-9.519532 35.902344-24.078126 46-1.042968-16.71875-14.960937-30-31.921874-30 8.800781 0 16-7.199219 16-16 0-8.816406-7.199219-16-16-16-8.800782 0-16 7.191406-16 16zm0 0" fill="#656d78"/><path d="m376.335938 423.671875c0 8.800781 7.199218 16 16 16-17.039063 0-30.960938 13.28125-31.921876 30-14.558593-10.085937-24.078124-26.886719-24.078124-46 0-30.96875 25.039062-56 56-56 30.960937 0 56 25.03125 56 56 0 19.113281-9.519532 35.902344-24.078126 46-1.042968-16.71875-14.960937-30-31.921874-30 8.800781 0 16-7.199219 16-16 0-8.816406-7.199219-16-16-16-8.800782 0-16 7.191406-16 16zm0 0" fill="#656d78"/><path d="m392.335938 439.671875c16.960937 0 30.878906 13.28125 31.921874 30-9.042968 6.3125-20 10-31.921874 10-11.921876 0-22.878907-3.6875-31.921876-10 .960938-16.710937 14.882813-30 31.921876-30zm0 0" fill="#ac92ec"/><path d="m224.335938 439.671875c16.960937 0 30.878906 13.28125 31.921874 30-9.042968 6.3125-20 10-31.921874 10-11.921876 0-22.878907-3.6875-31.921876-10 .960938-16.710937 14.882813-30 31.921876-30zm0 0" fill="#5d9cec"/><path d="m224.335938 439.671875c-17.039063 0-30.960938 13.28125-31.921876 30-14.558593-10.085937-24.078124-26.886719-24.078124-46 0-30.96875 25.039062-56 56-56 30.960937 0 56 25.03125 56 56 0 19.113281-9.519532 35.902344-24.078126 46-1.042968-16.710937-14.960937-30-31.921874-30 8.800781 0 16-7.199219 16-16 0-8.816406-7.199219-16-16-16-8.800782 0-16 7.183594-16 16 0 8.800781 7.199218 16 16 16zm0 0" fill="#656d78"/><path d="m280.414062 191.992188c22.171876 0 40 17.917968 40 40v32c0 4.40625-3.511718 8-8 8h-64l32-56h-24v-24zm0 0" fill="#656d78"/><path d="m280.414062 215.992188-32 56h-24l32-56zm0 0" fill="#aab2bd"/><path d="m192.414062 191.992188v24h-24l32 56h-64c-4.398437 0-8-3.59375-8-8v-32c0-22.082032 17.921876-40 40-40zm0 0" fill="#656d78"/><path d="m192.414062 215.992188 32 56h-24l-32-56zm0 0" fill="#aab2bd"/><path d="m224.414062 199.992188-32 16v-32zm0 0" fill="#ed5565"/><path d="m256.414062 191.992188v24l-32-16 32-16zm0 0" fill="#ed5565"/><path d="m256.414062 215.992188-32 56-32-56 32-16zm0 0" fill="#e6e9ed"/><path d="m192.414062 176.488281c9.601563 4.800781 20.488282 7.511719 32 7.511719 11.523438 0 22.402344-2.71875 32-7.511719v7.503907l-32 16-32-16zm0 0" fill="#f5f7fa"/><path d="m272.414062 64.007812 24 16.230469v31.769531c0 28.230469-16.316406 52.71875-40 64.488282-9.597656 4.800781-20.476562 7.511718-32 7.511718-11.511718 0-22.398437-2.71875-32-7.511718-23.597656-11.6875-39.828124-36-40-64.082032v-32.175781l24-16.230469s24.082032 8 52 8c28 0 44-8 44-8zm0 0" fill="#eac6bb"/><path d="m224.414062.0078125c8.402344 0 16.488282 1.4414065 24 4.1601565 28 9.839843 48 36.488281 48 67.839843v8.230469l-24-16.230469s-16 8-44 8c-27.917968 0-52-8-52-8l-24 16.230469v-8.230469c0-31.359374 20-58 48-67.839843 7.441407-2.726563 15.523438-4.1601565 24-4.1601565zm0 0" fill="#e6e9ed"/><path d="m392.335938 311.671875h-160.007813v-16c0-4.425781-3.574219-8-8-8s-8 3.574219-8 8v16h-160c-4.425781 0-8 3.574219-8 8 0 .015625.007813.023437.007813.039063v23.960937c0 4.425781 3.574218 8 8 8 4.425781 0 8-3.574219 8-8v-16h151.992187v16c0 4.425781 3.574219 8 8 8s8-3.574219 8-8v-16h152.007813v16c0 4.425781 3.574218 8 8 8 4.425781 0 8-3.574219 8-8v-24c0-4.414063-3.574219-8-8-8zm0 0" fill="#aab2bd"/><path d="m238.785156 1.511719 10.246094 25.472656c1.257812 3.128906 4.257812 5.015625 7.425781 5.015625 1 0 2.007813-.183594 2.984375-.574219 4.101563-1.648437 6.085938-6.3125 4.4375-10.410156l-4.871094-12.113281c-3.382812-1.855469-6.910156-3.445313-10.59375-4.742188-3.109374-1.128906-6.34375-1.976562-9.628906-2.648437zm0 0" fill="#ccd1d9"/><path d="m189.472656 31.414062c.976563.394532 1.984375.578126 2.984375.578126 3.167969 0 6.167969-1.886719 7.421875-5.015626l10.265625-25.503906c-3.335937.6875-6.609375 1.542969-9.730469 2.6875-3.636718 1.28125-7.140624 2.855469-10.484374 4.679688l-4.898438 12.167968c-1.648438 4.097657.335938 8.761719 4.441406 10.40625zm0 0" fill="#ccd1d9"/><path d="m232.464844 32v-31.496094c-2.648438-.296875-5.320313-.503906-8.050782-.503906-2.703124 0-5.34375.191406-7.949218.488281v31.511719c0 4.425781 3.574218 8 8 8 4.421875 0 8-3.585938 8-8zm0 0" fill="#ccd1d9"/><path d="m246.113281 146.34375-7.992187-7.992188c-.738282-.742187-1.625-1.328124-2.609375-1.734374-.976563-.410157-2.015625-.617188-3.054688-.617188h-15.992187c-1.039063 0-2.082032.207031-3.058594.617188-.980469.40625-1.871094.992187-2.605469 1.734374l-7.992187 7.992188c-3.128906 3.128906-3.128906 8.183594 0 11.3125 1.558594 1.558594 3.605468 2.34375 5.65625 2.34375 2.046875 0 4.09375-.785156 5.65625-2.34375l5.65625-5.65625h9.367187l5.65625 5.65625c1.558594 1.558594 3.605469 2.34375 5.65625 2.34375 2.046875 0 4.09375-.785156 5.65625-2.34375 3.117188-3.121094 3.117188-8.183594 0-11.3125zm0 0" fill="#e6e9ed"/><g fill="#eac6bb"><path d="m80.335938 423.671875c0 13.199219-10.800782 24-24 24-13.199219 0-24-10.800781-24-24 0-13.214844 10.800781-24 24-24 13.199218 0 24 10.785156 24 24zm0 0"/><path d="m248.335938 423.671875c0 13.199219-10.800782 24-24 24-13.199219 0-24-10.800781-24-24 0-13.214844 10.800781-24 24-24 13.199218 0 24 10.785156 24 24zm0 0"/><path d="m416.335938 423.671875c0 13.199219-10.800782 24-24 24-13.199219 0-24-10.800781-24-24 0-13.214844 10.800781-24 24-24 13.199218 0 24 10.785156 24 24zm0 0"/></g></svg>