<svg enable-background="new 0 0 100 100" height="512" viewBox="0 0 100 100" width="512" xmlns="http://www.w3.org/2000/svg"><path d="m50.7947006 16.6412849c-1.7434387 0-3.1567688 1.413372-3.1567688 3.1567707v57.7871933h6.3135414v-57.7871933c0-1.7433986-1.4133339-3.1567707-3.1567726-3.1567707z" fill="#feda6f"/><path d="m94.2174301 29.7528858-9.0678635-8.6400623c-.4235458-.4036655-.9844818-.6070557-1.5640564-.569582l-39.6861687 4.327095c-.7594757.0491047-1.3688469.9204769-1.3688469 1.9468079v9.5353107c0 1.026329.6093712 1.8977814 1.3688469 1.946888l39.6861687 4.327095c.5795746.0374718 1.1405106-.1660233 1.5640564-.5695839l9.0678635-8.6401711c1.0434265-.9942283 1.0434265-2.6695689 0-3.6637973z" fill="#4da0dc"/><path d="m5.7825718 52.3878517 9.0678654 8.6400642c.4235392.4036636.9844809.6070557 1.5640545.5695801l39.6861649-4.3270912c.7594757-.0491066 1.3688469-.9204788 1.3688469-1.9468117v-9.5353088c0-1.026329-.6093712-1.8977814-1.3688469-1.946888l-39.6861649-4.327095c-.5795736-.0374718-1.1405153.1660194-1.5640545.5695839l-9.0678654 8.6401711c-1.0434289.9942283-1.0434289 2.6695671 0 3.6637954z" fill="#de594e"/><path d="m59.6513939 76.1616135h-17.2518845c-1.1982498 0-2.1696434.9714737-2.1696434 2.1697311v5.0273666h21.5911751v-5.0273666c0-1.1982574-.9713974-2.1697311-2.1696472-2.1697311z" fill="#fed35b"/></svg>