<svg height="512" viewBox="0 0 58 58" width="512" xmlns="http://www.w3.org/2000/svg"><g id="035---Translation-App" fill="none"><rect id="Rectangle-path" fill="#67b9cc" height="58" rx="4" width="38" x="10"/><path id="Shape" d="m48 14.08v39.92c0 2.209139-1.790861 4-4 4h-30c-2.209139 0-4-1.790861-4-4v-18.24c9.9619655-11.179153 23.307174-18.7929456 38-21.68z" fill="#2fa8cc"/><path id="Shape" d="m48 46v8c0 2.209139-1.790861 4-4 4h-30c-2.209139 0-4-1.790861-4-4v-8z" fill="#35495e"/><path id="Shape" d="m32 46c0 .5522847-.4477153 1-1 1h-21v-2h21c.5522847 0 1 .4477153 1 1z" fill="#9fc9d3"/><path id="Shape" d="m48 45v2h-13c-.5522847 0-1-.4477153-1-1s.4477153-1 1-1z" fill="#9fc9d3"/><circle id="Oval" cx="29" cy="52" fill="#2c3e50" r="2"/><path id="Shape" d="m27 14-5 4v3c0 1.1045695-.8954305 2-2 2h-18c-1.1045695 0-2-.8954305-2-2v-14c0-1.1045695.8954305-2 2-2h18c1.1045695 0 2 .8954305 2 2v3z" fill="#955ba5"/><path id="Shape" d="m31 31 5 4v3c0 1.1045695.8954305 2 2 2h18c1.1045695 0 2-.8954305 2-2v-14c0-1.1045695-.8954305-2-2-2h-18c-1.1045695 0-2 .8954305-2 2v3z" fill="#955ba5"/><g fill="#fff"><path id="Shape" d="m15 20c-.5522847 0-1-.4477153-1-1v-6c0-1.6568542-1.3431458-3-3-3-1.65685425 0-3 1.3431458-3 3v6c0 .5522847-.44771525 1-1 1s-1-.4477153-1-1v-6c0-2.7614237 2.23857625-5 5-5 2.7614237 0 5 2.2385763 5 5v6c0 .5522847-.4477153 1-1 1z"/><path id="Shape" d="m15 15h-8c-.55228475 0-1-.4477153-1-1s.44771525-1 1-1h8c.5522847 0 1 .4477153 1 1s-.4477153 1-1 1z"/><path id="Shape" d="m51 30h-8c-.5522847 0-1-.4477153-1-1s.4477153-1 1-1h8c.5522847 0 1 .4477153 1 1s-.4477153 1-1 1z"/><path id="Shape" d="m47 30c-.5522847 0-1-.4477153-1-1v-3c0-.5522847.4477153-1 1-1s1 .4477153 1 1v3c0 .5522847-.4477153 1-1 1z"/><path id="Shape" d="m44 37c-.5522847 0-1-.4477153-1-1s.4477153-1 1-1c2.209139 0 4-1.790861 4-4v-2c0-.5522847.4477153-1 1-1s1 .4477153 1 1v2c0 3.3137085-2.6862915 6-6 6z"/><path id="Shape" d="m50 37c-2.4113169.0020536-4.589587-1.4396224-5.53-3.66-.1903581-.5023593.0502133-1.065361.5448231-1.2750326.4946099-.2096715 1.0665065.0089144 1.2951769.4950326.6274135 1.4813695 2.081244 2.44271 3.69 2.44.5522847 0 1 .4477153 1 1s-.4477153 1-1 1z"/></g><path id="Shape" d="m44 5h-1c-.5522847 0-1-.44771525-1-1s.4477153-1 1-1h1c.5522847 0 1 .44771525 1 1s-.4477153 1-1 1z" fill="#9fc9d3"/><path id="Shape" d="m39 5h-13c-.5522847 0-1-.44771525-1-1s.4477153-1 1-1h13c.5522847 0 1 .44771525 1 1s-.4477153 1-1 1z" fill="#9fc9d3"/></g></svg>