<?xml version="1.0" encoding="iso-8859-1"?>
<!-- Generator: Adobe Illustrator 19.0.0, SVG Export Plug-In . SVG Version: 6.00 Build 0)  -->
<svg version="1.1" id="Capa_1" xmlns="http://www.w3.org/2000/svg" xmlns:xlink="http://www.w3.org/1999/xlink" x="0px" y="0px"
	 viewBox="0 0 512 512" style="enable-background:new 0 0 512 512;" xml:space="preserve">
<path style="fill:#959CB3;" d="M511.125,285.824c-50.633,73.694-146.963,105.727-233.881,71.872
	C175.829,318.195,125.638,203.959,165.14,102.544C182.988,56.721,216.096,21.359,256.384,0
	C154.163,0.224,57.738,62.1,18.396,163.107c-51.302,131.71,13.882,280.071,145.592,331.372
	c131.71,51.302,280.071-13.883,331.372-145.593C503.445,328.131,508.631,306.962,511.125,285.824z"/>
<g>
	<path style="fill:#7C8293;" d="M125.371,62.776c-32.884,84.425-3.602,177.726,65.637,229.409
		c-39.362-52.677-51.493-123.853-25.868-189.641C182.988,56.721,216.097,21.359,256.384,0c-39.227,0.086-77.596,9.26-112.217,26.232
		C136.788,37.51,130.458,49.716,125.371,62.776z"/>
	<path style="fill:#7C8293;" d="M434.368,351.564C370.6,454.189,240.884,500.152,124.22,454.711
		c-24.825-9.669-47.283-22.79-67.047-38.594c27.175,33.958,63.373,61.442,106.815,78.362
		c131.71,51.302,280.07-13.882,331.372-145.592c8.084-20.756,13.27-41.925,15.765-63.063
		C491.393,314.543,464.719,336.933,434.368,351.564z"/>
</g>
<g>
	<circle style="fill:#AEB7CE;" cx="108.46" cy="210.77" r="29.396"/>
	<circle style="fill:#AEB7CE;" cx="315.04" cy="414.49" r="20.607"/>
	<circle style="fill:#AEB7CE;" cx="302.67" cy="467.72" r="14.571"/>
	<circle style="fill:#AEB7CE;" cx="226.6" cy="444.69" r="43.631"/>
	<circle style="fill:#AEB7CE;" cx="99.49" cy="341.96" r="20.422"/>
	<circle style="fill:#AEB7CE;" cx="45.646" cy="201.79" r="12.143"/>
</g>
<g>
</g>
<g>
</g>
<g>
</g>
<g>
</g>
<g>
</g>
<g>
</g>
<g>
</g>
<g>
</g>
<g>
</g>
<g>
</g>
<g>
</g>
<g>
</g>
<g>
</g>
<g>
</g>
<g>
</g>
</svg>
