<svg height="448pt" viewBox="-48 0 448 448" width="448pt" xmlns="http://www.w3.org/2000/svg"><path d="m216 6.878906c46.640625 16.410156 80 60.890625 80 113.121094v8l-32-32s-40 24-88 24-88-24-88-24l-32 32v-8c0-52.230469 33.449219-96.71875 80-113.128906 12.558594-4.472656 26-6.871094 40-6.871094s27.519531 2.398438 40 6.878906zm0 0" fill="#e6e9ed"/><g fill="#ccd1d9"><path d="m184 64v-63.65625c-2.65625-.167969-5.304688-.34375-8-.34375s-5.351562.167969-8 .34375v63.65625c0 4.425781 3.574219 8 8 8s8-3.574219 8-8zm0 0"/><path d="m224.398438 58.488281c1.105468 3.375 4.234374 5.527344 7.609374 5.527344.824219 0 1.65625-.136719 2.480469-.40625 4.199219-1.363281 6.503907-5.875 5.136719-10.082031l-13.898438-42.703125c-3.191406-1.433594-6.414062-2.777344-9.726562-3.945313-3.054688-1.09375-6.167969-2.054687-9.34375-2.894531zm0 0"/><path d="m136 6.878906c-3.3125 1.167969-6.542969 2.511719-9.71875 3.96875l-13.898438 42.6875c-1.367187 4.199219.929688 8.722656 5.136719 10.082032.824219.269531 1.65625.40625 2.480469.40625 3.375 0 6.503906-2.160157 7.609375-5.527344l17.742187-54.503906c-3.175781.839843-6.289062 1.800781-9.351562 2.886718zm0 0"/></g><path d="m88 359.921875 48 88.078125h-128c-4.398438 0-8-3.527344-8-8v-55.921875c0-35.4375 28.640625-64.078125 64-64.078125h56v32zm0 0" fill="#656d78"/><path d="m264 359.921875-32-7.921875v-31.921875l56-.078125c35.367188 0 64 28.640625 64 64v56c0 4.472656-3.59375 8-8 8h-128zm28 48.078125c6.640625 0 12-5.359375 12-12v-20h-24v20c0 6.640625 5.367188 12 12 12zm0 0" fill="#656d78"/><path d="m288 320-23.375.03125c35.0625.34375 63.351562 28.832031 63.351562 63.96875v56c0 4.472656-3.59375 8-8 8h24.023438c4.40625 0 8-3.527344 8-8v-56c0-35.359375-28.632812-64-64-64zm0 0" fill="#434a54"/><path d="m232 296.078125-40 23.921875v.078125h-32v-.078125l-40-23.921875v-16.078125l2.40625-4.640625c16.152344 8.082031 34.320312 12.640625 53.59375 12.640625 19.28125 0 37.449219-4.558594 53.601562-12.640625l2.398438 4.640625zm0 0" fill="#f5f7fa"/><path d="m192 336.078125 40 16-40 95.921875h-32l-40-95.921875 40-16zm0 0" fill="#f5f7fa"/><path d="m216 448h-24l40-95.921875v-.078125l32 7.921875zm0 0" fill="#aab2bd"/><path d="m120 352.078125 40 95.921875h-24l-48-88.078125 32-7.921875zm0 0" fill="#aab2bd"/><path d="m176.238281 384c-4.421875 0-8.039062-3.574219-8.039062-8s3.535156-8 7.953125-8h.085937c4.417969 0 8 3.574219 8 8s-3.582031 8-8 8zm0 0" fill="#e6e9ed"/><path d="m176.238281 424.0625c-4.421875 0-8.039062-3.574219-8.039062-8 0-4.421875 3.535156-8 7.953125-8h.085937c4.417969 0 8 3.578125 8 8 0 4.425781-3.582031 8-8 8zm0 0" fill="#e6e9ed"/><path d="m216 6.878906c-12.480469-4.480468-26-6.878906-40-6.878906-4.054688 0-8.046875.257812-12 .65625 9.710938.96875 19.121094 3.039062 27.976562 6.214844 41.382813 14.5625 72.246094 51.234375 78.695313 95.800781l25.328125 25.328125v-8c0-52.230469-33.359375-96.710938-80-113.121094zm0 0" fill="#ccd1d9"/><path d="m296 128v48c0 47.039062-27.039062 87.761719-66.398438 107.351562-16.152343 8.089844-34.320312 12.648438-53.601562 12.648438-19.273438 0-37.441406-4.558594-53.59375-12.640625-39.359375-19.671875-66.40625-60.3125-66.40625-107.359375v-48l32-32s40 24 88 24 88-24 88-24zm0 0" fill="#eac6bb"/><path d="m271.976562 103.984375v72.015625c0 47.039062-27.039062 87.761719-66.402343 107.351562-12.75 6.375-26.78125 10.457032-41.582031 11.9375 3.953124.398438 7.945312.710938 12.007812.710938 19.28125 0 37.449219-4.558594 53.601562-12.640625 39.359376-19.589844 66.398438-60.3125 66.398438-107.359375v-48zm0 0" fill="#d3b1a9"/><path d="m168 1.296875c5.472656.726563 10.800781 1.847656 16 3.289063v-4.242188c-2.65625-.167969-5.304688-.34375-8-.34375-2.703125 0-5.34375.238281-8 .441406zm0 0" fill="#aab2bd"/><path d="m210.3125 15.222656c7.894531 4.394532 15.253906 9.640625 21.925781 15.640625l-6.519531-20.03125s0 0-.007812 0c-3.175782-1.441406-6.398438-2.785156-9.710938-3.953125-3.054688-1.09375-6.167969-2.054687-9.34375-2.894531zm0 0" fill="#aab2bd"/><path d="m213.65625 250.425781-15.992188-15.984375c-.734374-.753906-1.625-1.328125-2.609374-1.738281-.976563-.40625-2.015626-.625-3.054688-.625h-32.007812c-1.039063 0-2.082032.21875-3.054688.625-.984375.410156-1.875.984375-2.609375 1.738281l-15.992187 15.984375c-3.128907 3.125-3.128907 8.183594 0 11.308594 1.558593 1.5625 3.609374 2.34375 5.65625 2.34375 2.046874 0 4.097656-.78125 5.65625-2.34375l13.65625-13.65625h25.382812l13.65625 13.65625c1.558594 1.5625 3.609375 2.34375 5.65625 2.34375s4.097656-.78125 5.65625-2.34375c3.128906-3.125 3.128906-8.191406 0-11.308594zm0 0" fill="#e6e9ed"/><path d="m292 430.144531c-4.425781 0-8-3.578125-8-8v-16.167969c0-4.425781 3.574219-8 8-8s8 3.574219 8 8v16.167969c0 4.414063-3.574219 8-8 8zm0 0" fill="#a0d468"/><path d="m308 373.816406v23.96875c0 8.871094-7.136719 16-16 16s-16-7.128906-16-16v-23.96875zm0 0" fill="#ed5565"/><path d="m232 320.078125v32l-48.007812-12v-24.078125l48.007812-19.921875zm0 0" fill="#da4453"/><path d="m120 320.078125v32l48.007812-12v-24.078125l-48.007812-19.921875zm0 0" fill="#da4453"/><path d="m196.007812 340.078125c0 4.410156-3.601562 8-8 8h-24.007812c-4.398438 0-8-3.589844-8-8v-24.015625c0-4.390625 3.601562-8 8-8h24.007812c4.398438 0 8 3.609375 8 8zm0 0" fill="#ed5565"/></svg>