<?xml version="1.0"?>
<svg xmlns="http://www.w3.org/2000/svg" xmlns:xlink="http://www.w3.org/1999/xlink" version="1.1" id="Capa_1" x="0px" y="0px" viewBox="0 0 433.429 433.429" style="enable-background:new 0 0 433.429 433.429;" xml:space="preserve" width="512px" height="512px" class=""><g><path id="XMLID_359_" d="M140.64,175.767c-2.53,11.075-2.602,22.381-0.214,33.607c0.052,0.244,0.094,0.49,0.125,0.738  c0.752,5.918,5.83,10.382,11.812,10.382c6.252,0,11.394-4.839,11.876-10.967c-0.033-0.31-0.05-0.625-0.05-0.944  c0-0.911-0.109-1.833-0.324-2.738c-2.264-9.482-1.915-19.423,1.013-28.738c1.491-4.742,6.542-7.379,11.284-5.888  c4.742,1.49,7.378,6.542,5.888,11.284c-1.952,6.212-2.186,12.842-0.674,19.171c0.425,1.79,0.685,3.606,0.776,5.424  c0.082,0.483,0.125,0.979,0.125,1.484c0,16.494-13.419,29.911-29.913,29.911c-14.889,0-27.55-11.028-29.615-25.718  c-2.862-13.689-2.746-27.488,0.345-41.018c1.107-4.845,5.934-7.876,10.778-6.77C138.716,166.096,141.747,170.922,140.64,175.767z   M273.506,365.338c-4.899-0.826-9.545,2.472-10.375,7.374c-0.829,4.901,2.472,9.546,7.374,10.375  c27.79,4.7,38.333,11.082,40.743,13.773c-1.615,1.742-8.041,6.945-29.924,11.756c-19.985,4.394-45.893,6.813-72.951,6.813  c-30.992,0-60.543-3.208-81.077-8.802c-15.458-4.211-20.416-8.269-21.802-9.767c2.408-2.691,12.949-9.074,40.745-13.774  c4.901-0.829,8.202-5.474,7.374-10.375s-5.478-8.205-10.375-7.374c-37.234,6.296-56.113,16.913-56.113,31.556  c0,11.74,11.593,20.604,35.44,27.101c22.01,5.996,53.286,9.435,85.808,9.435c30.683,0,59.632-2.956,81.513-8.324  c26.735-6.559,39.731-15.787,39.731-28.211C329.619,382.252,310.74,371.635,273.506,365.338z M238.282,369.806v1.489  c0,16.493-13.417,29.91-29.91,29.91c-16.492,0-29.91-13.417-29.91-29.91v-1.489c0-16.492,13.417-29.91,29.91-29.91  C224.864,339.896,238.282,353.314,238.282,369.806z M220.282,369.806c0-6.567-5.343-11.91-11.91-11.91  c-6.567,0-11.91,5.343-11.91,11.91v1.489c0,6.567,5.343,11.91,11.91,11.91c6.567,0,11.91-5.343,11.91-11.91V369.806z   M247.217,212.903c-5.072,7.9-12.844,13.438-21.968,15.636c-0.025,0.006-0.05,0.012-0.075,0.018  c-16.154,3.864-29.796,13.717-38.411,27.742c-8.66,14.094-11.317,30.705-7.486,46.761c3.256,13.733,15.557,23.007,29.096,23.007  c2.275,0,4.586-0.262,6.894-0.809c7.771-1.841,14.36-6.599,18.553-13.397c4.192-6.797,5.487-14.82,3.643-22.604  c-0.176-0.739,0.038-1.303,0.248-1.646c0.196-0.319,0.624-0.877,1.286-1.036c0.047-0.011,0.105-0.026,0.164-0.042  c24.575-5.913,45.44-20.899,58.86-42.25c0.192-0.249,0.371-0.509,0.537-0.779c13.229-21.533,17.387-47.012,11.706-71.742  c-1.113-4.844-5.937-7.867-10.787-6.756c-4.844,1.113-7.869,5.942-6.756,10.787c4.554,19.824,1.336,40.231-9.059,57.563  c-0.169,0.224-0.327,0.456-0.476,0.697c-10.902,17.72-28.064,30.15-48.325,35.001c-0.049,0.012-0.11,0.027-0.172,0.043  c-5.113,1.256-9.482,4.48-12.315,9.089c-2.814,4.579-3.673,9.993-2.424,15.232c0.733,3.093,0.218,6.287-1.451,8.993  c-1.668,2.706-4.29,4.599-7.381,5.331c-6.385,1.513-12.813-2.451-14.329-8.848c-2.719-11.394-0.833-23.174,5.312-33.174  c6.087-9.91,15.739-16.883,27.187-19.641c0.025-0.006,0.051-0.012,0.076-0.018c14.069-3.361,25.996-12.014,33.584-24.364  c0.005-0.009,0.047-0.077,0.052-0.086c0.164-0.27,0.313-0.544,0.445-0.823c7.167-12.128,9.365-26.267,6.165-40.003l-0.109-0.449  c-0.252-1.042-0.547-2.113-0.875-3.182c-1.461-4.751-6.494-7.419-11.248-5.958c-4.751,1.46-7.418,6.496-5.958,11.247  c0.222,0.723,0.419,1.44,0.589,2.14l0.091,0.371c2.17,9.318,0.576,18.991-4.49,27.237  C247.467,212.425,247.337,212.662,247.217,212.903z M365.777,111.273c0,14.865-16.049,26.688-47.702,35.139  c-27.19,7.26-63.187,11.258-101.361,11.258c-38.173,0-74.17-3.999-101.36-11.258c-31.653-8.452-47.702-20.274-47.702-35.139  c0-13.53,13.328-24.553,39.633-32.802l10.019-58.316c1.508-8.772,8.459-19.302,33.011-19.659  c13.676-0.199,29.738,2.458,43.914,4.802c9.165,1.515,17.822,2.946,22.485,2.946c5.637,0,15.032-1.636,24.979-3.368  c24.051-4.188,51.311-8.936,65.479,1.056c4.845,3.416,7.941,8.334,8.953,14.223l10.019,58.317  C352.449,86.721,365.777,97.744,365.777,111.273z M347.777,111.273c0-1.542-4.384-8.101-24.545-14.826  c-27.387,8.091-65.972,12.71-106.518,12.71c-25.325,0-50.242-1.802-72.056-5.212c-4.911-0.768-8.27-5.371-7.502-10.282  c0.768-4.912,5.37-8.275,10.282-7.502c20.91,3.269,44.865,4.997,69.275,4.997c34.264,0,66.85-3.374,91.734-9.383l-10.063-58.572  c-0.206-1.196-0.635-1.89-1.585-2.56c-8.066-5.688-34.517-1.082-52.02,1.967c-11.201,1.95-20.874,3.635-28.066,3.635  c-6.141,0-15.075-1.477-25.421-3.188c-12.987-2.147-27.649-4.571-39.508-4.571c-0.407,0-0.809,0.003-1.208,0.009  c-3.462,0.05-14.815,0.539-15.533,4.709l-10.966,63.828c-0.588,3.423-3.093,6.202-6.438,7.141  c-26.56,7.456-31.988,15.386-31.988,17.101c0,1.812,5.829,10.134,34.345,17.749c25.719,6.867,60.067,10.649,96.717,10.649  c36.65,0,70.999-3.782,96.717-10.649C341.948,121.407,347.777,113.085,347.777,111.273z" data-original="#000000" class="active-path" data-old_color="#000000" fill="#FFFFFF"/></g> </svg>
