<?xml version="1.0"?>
<svg xmlns="http://www.w3.org/2000/svg" xmlns:xlink="http://www.w3.org/1999/xlink" version="1.1" id="Layer_1" x="0px" y="0px" viewBox="0 0 512.002 512.002" style="enable-background:new 0 0 512.002 512.002;" xml:space="preserve" width="512px" height="512px" class=""><g><g>
	<g>
		<g>
			<path d="M481.519,123.22h-0.009l-20.71-2.227v-14.327H0v51.2h443.733v17.067H0v179.2c0,15.428,10.351,28.348,24.422,32.563     c-0.009,7.774,2.449,15.292,7.398,21.436c5.717,7.1,13.867,11.537,22.886,12.51l394.061,44.228     c1.229,0.137,2.449,0.196,3.661,0.196c17.203,0,32.043-13.013,33.937-30.601l25.438-273.656     C513.818,142.104,500.233,125.234,481.519,123.22z M264.533,252.031c0-4.719,3.823-8.533,8.533-8.533H409.6     c4.71,0,8.533,3.814,8.533,8.533v76.501c0,4.719-3.823,8.533-8.533,8.533H273.067c-4.71,0-8.533-3.814-8.533-8.533V252.031z      M145.067,209.065h68.267c4.71,0,8.533,3.823,8.533,8.533c0,4.719-3.823,8.533-8.533,8.533h-68.267     c-4.71,0-8.533-3.814-8.533-8.533C136.533,212.888,140.356,209.065,145.067,209.065z M221.867,251.732     c0,4.719-3.823,8.533-8.533,8.533h-25.6c-4.71,0-8.533-3.814-8.533-8.533c0-4.71,3.823-8.533,8.533-8.533h25.6     C218.044,243.199,221.867,247.022,221.867,251.732z M42.667,209.065h68.267c4.71,0,8.533,3.823,8.533,8.533     c0,4.719-3.823,8.533-8.533,8.533H42.667c-4.71,0-8.533-3.814-8.533-8.533C34.133,212.888,37.956,209.065,42.667,209.065z      M34.133,251.732c0-4.71,3.823-8.533,8.533-8.533H153.6c4.71,0,8.533,3.823,8.533,8.533c0,4.719-3.823,8.533-8.533,8.533H42.667     C37.956,260.265,34.133,256.451,34.133,251.732z M494.822,159.103L469.385,432.75c-1.007,9.361-9.387,16.154-18.756,15.155     L56.567,403.677c-4.531-0.486-8.602-2.705-11.46-6.255c-2.142-2.662-3.413-5.828-3.712-9.156h385.271     c18.825,0,34.133-15.3,34.133-34.133v-179.2v-17.067v-19.703l18.893,2.022C489.045,141.2,495.838,149.631,494.822,159.103z" data-original="#000000" class="active-path" data-old_color="#000000" fill="#FFFFFF"/>
			<rect x="281.602" y="260.56" width="119.467" height="59.443" data-original="#000000" class="active-path" data-old_color="#000000" fill="#FFFFFF"/>
			<path d="M460.802,81.07c0-18.825-15.309-34.133-34.133-34.133H34.135c-18.825,0-34.133,15.309-34.133,34.133v8.533h460.8V81.07z" data-original="#000000" class="active-path" data-old_color="#000000" fill="#FFFFFF"/>
		</g>
	</g>
</g></g> </svg>
