<svg viewBox="0 0 512 512" xmlns="http://www.w3.org/2000/svg"><path d="m256 512c-140.609375 0-256-115.390625-256-256s115.390625-256 256-256 256 115.390625 256 256-115.390625 256-256 256zm0 0" fill="#deecf1"/><path d="m512 256c0-140.609375-115.390625-256-256-256v512c140.609375 0 256-115.390625 256-256zm0 0" fill="#c6e2e7"/><path d="m286 361h90v-210h-90v86.246094l-135-101.246094v240l135-101.246094zm0 0" fill="#384949"/><path d="m286 237.246094-30-22.5v82.507812l30-22.5v86.246094h90v-210h-90zm0 0" fill="#293939"/></svg>