<svg viewBox="0 0 512 512" xmlns="http://www.w3.org/2000/svg"><path d="m256 512c-140.609375 0-256-115.390625-256-256s115.390625-256 256-256 256 115.390625 256 256-115.390625 256-256 256zm0 0" fill="#deecf1"/><path d="m512 256c0-140.609375-115.390625-256-256-256v512c140.609375 0 256-115.390625 256-256zm0 0" fill="#c6e2e7"/><path d="m226 274.753906 135 101.246094v-240l-135 101.246094v-86.246094h-90v210h90zm0 0" fill="#384949"/><path d="m256 297.253906 105 78.746094v-240l-105 78.746094zm0 0" fill="#293939"/></svg>