<?xml version="1.0" encoding="iso-8859-1"?>
<!-- Generator: Adobe Illustrator 19.0.0, SVG Export Plug-In . SVG Version: 6.00 Build 0)  -->
<svg version="1.1" id="Layer_1" xmlns="http://www.w3.org/2000/svg" xmlns:xlink="http://www.w3.org/1999/xlink" x="0px" y="0px"
	 viewBox="0 0 512 512" style="enable-background:new 0 0 512 512;" xml:space="preserve">
<path style="fill:#5B5D6E;" d="M462.452,308.033c0-9.634,49.548-11.011,49.548,41.29c0,40.602-61.178,105.017-189.935,57.806
	C291.096,395.775,256,372.991,256,341.064c0-29.935,14.968-49.548,49.548-49.548c32.051,0,65.319,37.309,99.096,57.806
	c40.258,24.43,66.323,17.548,74.323,0C492.968,318.613,462.452,308.033,462.452,308.033z"/>
<path style="fill:#515262;" d="M457.545,414.531c-31.256,12.378-76.183,14.339-135.48-7.402
	C291.097,395.773,256,372.989,256,341.064c0-4.995,0.583-9.58,1.438-13.956c7.39-31.24,38.385-25.599,69.183,12.898
	C361.931,384.144,398.905,431.623,457.545,414.531z"/>
<g>
	<path style="fill:#707487;" d="M292.223,292.741c4.095-0.748,8.47-1.226,13.326-1.226c32.051,0,65.319,37.311,99.096,57.807
		c20.238,12.281,36.882,16.639,49.454,15.717c66.729,1.449,40.246-69.171,8.352-57.007c0-9.634,49.548-11.011,49.548,41.29
		c0,5.301-1.069,11.01-3.169,16.82c-23.217,41.318-77.909,29.057-102.762,9.174C361.931,340.006,320.008,289.699,292.223,292.741z"
		/>
	<path style="fill:#707487;" d="M329.103,329.799c18.026,22.532,30.345,45.517,64,64c-13.857-2.767-44.414-0.276-73.931-47.724
		c-12.47-20.045-26.343-37.25-43.799-38.844C288.552,300.282,310.272,306.259,329.103,329.799z"/>
</g>
<g>
	<path style="fill:#5B5D6E;" d="M320.367,384.144c12.159,20.192,34.006,30.855,49.909,36.239
		c-14.872-2.638-30.912-6.912-48.213-13.255c-6.83-2.505-13.849-5.597-20.661-9.19c-11.992-39.758-24.437-32.002-24.437-32.002
		S296.092,343.829,320.367,384.144z"/>
	<path style="fill:#5B5D6E;" d="M495.484,104.494h-10.308c-2.943-5.452-8.799-9.831-15.73-10.772
		c-56.794-7.261-114.313-7.262-171.107,0c-3.96,0.537-7.57,2.198-10.484,4.538c-5.506,4.423-12.672,6.233-19.734,6.233h-24.217
		c-7.062,0-14.229-1.81-19.735-6.232c-2.915-2.342-6.525-4.002-10.485-4.54c-56.794-7.261-114.313-7.262-171.107,0
		c-6.932,0.94-12.787,5.321-15.73,10.772h-10.33C7.394,104.494,0,111.888,0,121.009l0,0c0,9.121,7.394,16.516,16.516,16.516h3.011
		c4.882,0,9.007,3.594,9.645,8.434c2.421,18.35,4.843,36.924,7.267,55.872c2.079,16.089,17.076,30.478,34.969,32.105
		c37.743,3.183,75.694,3.183,113.438,0c17.895-1.634,32.893-16.018,34.969-32.105c1.895-14.815,3.789-29.458,5.683-43.928
		c4.968-11.959,16.743-20.377,30.499-20.377c13.801,0,25.596,8.476,30.536,20.494c1.889,14.433,3.778,29.036,5.668,43.811
		c2.079,16.089,17.075,30.478,34.969,32.105c37.743,3.183,75.694,3.183,113.438,0c17.895-1.634,32.893-16.018,34.969-32.105
		c2.424-18.948,4.846-37.522,7.268-55.872c0.639-4.84,4.764-8.434,9.645-8.434h2.989c9.121,0,16.516-7.394,16.516-16.516l0,0
		C512,111.888,504.606,104.494,495.484,104.494z"/>
</g>
<path style="fill:#707487;" d="M80.586,206.15c-2.259,0-4.518-0.862-6.241-2.586c-3.448-3.448-3.448-9.035,0-12.483l78.311-78.311
	c3.448-3.448,9.035-3.448,12.483,0c3.448,3.448,3.448,9.034,0,12.482l-78.311,78.311C85.103,205.288,82.845,206.15,80.586,206.15z"
	/>
<path style="fill:#959CB3;" d="M141.241,194.53c-2.259,0-4.518-0.862-6.241-2.586c-3.448-3.448-3.448-9.035,0-12.483l41.293-41.293
	c3.448-3.448,9.035-3.448,12.483,0c3.448,3.448,3.448,9.034,0,12.482l-41.293,41.293C145.759,193.668,143.5,194.53,141.241,194.53z"
	/>
<path style="fill:#5B5D6E;" d="M49.548,308.033c0-9.634-49.548-11.011-49.548,41.29c0,40.602,61.178,105.017,189.935,57.806
	C220.904,395.775,256,372.991,256,341.064c0-29.935-14.968-49.548-49.548-49.548c-32.051,0-65.319,37.309-99.096,57.806
	c-40.258,24.43-66.323,17.548-74.323,0C19.032,318.613,49.548,308.033,49.548,308.033z"/>
<path style="fill:#515262;" d="M54.455,414.531c31.256,12.378,76.183,14.339,135.48-7.402C220.903,395.773,256,372.989,256,341.064
	c0-4.995-0.583-9.58-1.438-13.956c-7.39-31.24-38.385-25.599-69.183,12.898C150.069,384.144,113.095,431.623,54.455,414.531z"/>
<g>
	<path style="fill:#707487;" d="M219.777,292.741c-4.095-0.748-8.47-1.226-13.326-1.226c-32.051,0-65.319,37.311-99.096,57.807
		C87.116,361.604,70.473,365.962,57.9,365.04c-66.728,1.449-40.245-69.172-8.352-57.007c0-9.634-49.548-11.011-49.548,41.29
		c0,5.301,1.069,11.01,3.169,16.82c23.217,41.318,77.909,29.057,102.762,9.174C150.069,340.006,191.992,289.699,219.777,292.741z"/>
	<path style="fill:#707487;" d="M182.897,329.799c-18.026,22.532-30.345,45.517-64,64c13.857-2.767,44.414-0.276,73.931-47.724
		c12.47-20.045,26.343-37.25,43.799-38.844C223.448,300.282,201.728,306.259,182.897,329.799z"/>
</g>
<path style="fill:#5B5D6E;" d="M191.631,384.144c-12.159,20.192-34.006,30.855-49.909,36.239
	c14.872-2.638,30.912-6.912,48.213-13.255c6.83-2.505,13.849-5.597,20.661-9.19c11.993-39.758,24.438-32.002,24.438-32.002
	S215.908,343.829,191.631,384.144z"/>
<path style="fill:#707487;" d="M335.448,206.15c-2.259,0-4.518-0.862-6.241-2.586c-3.448-3.448-3.448-9.035,0-12.483l78.311-78.311
	c3.448-3.448,9.034-3.448,12.483,0c3.448,3.448,3.448,9.034,0,12.482l-78.311,78.311C339.966,205.288,337.707,206.15,335.448,206.15
	z"/>
<path style="fill:#959CB3;" d="M396.104,194.53c-2.259,0-4.518-0.862-6.241-2.586c-3.448-3.448-3.448-9.035,0-12.483l41.293-41.293
	c3.448-3.448,9.035-3.448,12.483,0c3.448,3.448,3.448,9.034,0,12.482l-41.293,41.293C400.62,193.668,398.362,194.53,396.104,194.53z
	"/>
<g>
</g>
<g>
</g>
<g>
</g>
<g>
</g>
<g>
</g>
<g>
</g>
<g>
</g>
<g>
</g>
<g>
</g>
<g>
</g>
<g>
</g>
<g>
</g>
<g>
</g>
<g>
</g>
<g>
</g>
</svg>
