<svg height="512pt" viewBox="-72 0 512 512.00007" width="512pt" xmlns="http://www.w3.org/2000/svg"><path d="m355.496094 189.386719v154.175781c0 46.507812-32.320313 88.617188-69.957032 119.097656-30.125 24.398438-63.632812 41.335938-86.738281 47.136719-5.765625 1.449219-10.898437 2.203125-15.148437 2.203125-42.570313 0-171.84375-75.421875-171.84375-168.4375v-154.164062c0-94.910157 76.933594-171.84375 171.84375-171.84375 5.109375 0 10.15625.21875 15.148437.65625 87.816407 7.671874 156.695313 81.390624 156.695313 171.175781zm0 0" fill="#4b5055"/><path d="m355.496094 189.386719v154.175781c0 46.507812-32.320313 88.617188-69.957032 119.097656-30.125 24.398438-63.632812 41.335938-86.738281 47.136719-51.972656-13.050781-156.691406-82.515625-156.691406-166.234375v-154.164062c0-89.796876 68.878906-163.515626 156.691406-171.1875 87.816407 7.671874 156.695313 81.390624 156.695313 171.175781zm0 0" fill="#5a5f64"/><path d="m161.488281 252.867188-55.746093 29.789062c-3.101563 1.648438-6.800782 1.753906-9.988282.261719l-43.539062-20.324219c-5.257813-2.445312-8.609375-7.710938-8.609375-13.511719v-46.976562c0-6.5625 6.632812-11.035157 12.714843-8.578125l4 1.617187 100.6875 40.792969c2.695313 1.097656 4.460938 3.175781 5.265626 5.539062 1.421874 4.148438-.144532 9.195313-4.785157 11.390626zm0 0" fill="#f44545"/><path d="m323.699219 202.105469v46.976562c0 5.800781-3.355469 11.066407-8.609375 13.511719l-43.542969 20.324219c-3.1875 1.492187-6.882813 1.386719-9.988281-.261719l-55.746094-29.789062c-7.28125-3.441407-6.980469-13.898438.480469-16.929688l11.996093-4.859375 92.695313-37.550781c6.078125-2.457032 12.714844 2.015625 12.714844 8.578125zm0 0" fill="#f44545"/><path d="m166.273438 241.476562-43.8125 23.414063c-3.101563 1.652344-6.800782 1.757813-9.988282.261719l-43.539062-20.320313c-5.257813-2.445312-8.613282-7.714843-8.613282-13.511719v-36.175781l100.6875 40.792969c2.695313 1.097656 4.460938 3.175781 5.265626 5.539062zm0 0" fill="#fb5858"/><path d="m323.699219 202.105469v46.507812l-35.433594 16.539063c-3.1875 1.496094-6.886719 1.390625-9.988281-.261719l-55.746094-29.789063c-1.953125-.917968-3.363281-2.359374-4.242188-4.023437l92.695313-37.550781c6.078125-2.457032 12.714844 2.015625 12.714844 8.578125zm0 0" fill="#fb5858"/><path d="m313.34375 356.195312c-4.972656 23.9375-23.511719 50.25-52.539062 73.988282-20.8125 17.03125-41.3125 28.246094-56.234376 34.566406-4.847656 2.058594-9.101562 3.605469-12.589843 4.660156-5.457031 1.652344-11.253907 1.660156-16.710938 0-14.1875-4.324218-41.210937-16.675781-68.773437-39.226562-30.230469-24.722656-49.078125-52.234375-53.089844-76.933594-.335938-2.050781.710938-4.078125 2.546875-5.015625l122.527344-63.03125c3.21875-1.660156 7.042969-1.617187 10.226562.097656l6.007813 3.226563 116.195312 62.507812c1.859375.992188 2.863282 3.089844 2.433594 5.160156zm0 0" fill="#f2bb88"/><path d="m313.34375 356.195312c-4.972656 23.9375-23.511719 50.25-52.539062 73.988282-20.8125 17.03125-41.3125 28.246094-56.234376 34.566406-14.535156-4.710938-40.636718-16.980469-67.25-38.746094-30.230468-24.722656-49.078124-52.234375-53.089843-76.933594-.335938-2.050781.710937-4.078124 2.546875-5.015624l107.9375-55.527344 116.195312 62.507812c1.859375.992188 2.863282 3.089844 2.433594 5.160156zm0 0" fill="#f2d1a5"/><path d="m211.855469 320.796875c-4.328125 0-7.839844 3.507813-7.839844 7.835937 0 11.230469-9.136719 20.367188-20.363281 20.367188-11.230469 0-20.367188-9.136719-20.367188-20.367188 0-4.328124-3.507812-7.835937-7.835937-7.835937s-7.835938 3.507813-7.835938 7.835937c0 19.871094 16.167969 36.039063 36.039063 36.039063s36.039062-16.167969 36.039062-36.039063c0-4.328124-3.507812-7.835937-7.835937-7.835937zm0 0" fill="#ff7c48"/><path d="m367.300781 96.308594v30.3125c0 5.988281-3.792969 11.316406-9.445312 13.269531l-171.332031 59.308594c-1.859376.648437-3.886719.648437-5.746094 0l-171.332032-59.308594c-5.652343-1.953125-9.445312-7.28125-9.445312-13.269531v-30.3125c0-11.429688 12.914062-18.066406 22.203125-11.429688l157.121094 88.980469c2.6875 1.527344 5.96875 1.527344 8.652343 0l157.121094-88.980469c9.289063-6.636718 22.203125 0 22.203125 11.429688zm0 0" fill="#d2d2d7"/><path d="m367.300781 96.308594v17.082031c0 5.980469-3.792969 11.308594-9.445312 13.273437l-171.332031 59.296876c-1.859376.648437-3.886719.648437-5.746094 0l-171.332032-59.296876c-5.652343-1.964843-9.445312-7.292968-9.445312-13.273437v-17.082031c0-11.429688 12.914062-18.066406 22.203125-11.429688l157.121094 88.980469c2.6875 1.527344 5.96875 1.527344 8.652343 0l157.121094-88.980469c9.289063-6.636718 22.203125 0 22.203125 11.429688zm0 0" fill="#ebebf0"/><path d="m228.007812 14.273438v75.253906c0 5.128906-2.332031 9.988281-6.34375 13.195312l-27.460937 21.976563c-6.164063 4.929687-14.941406 4.929687-21.105469 0l-27.460937-21.976563c-4.011719-3.207031-6.339844-8.066406-6.339844-13.195312v-75.210938c0-5.277344 3.71875-9.824218 8.902344-10.847656 3.949219-.785156 7.949219-1.429688 11.992187-1.953125 7.640625-.992187 15.433594-1.5039062 23.34375-1.515625 12.164063-.0117188 24.054688 1.171875 35.546875 3.425781 5.183594 1.015625 8.925781 5.570313 8.925781 10.847657zm0 0" fill="#f44545"/><path d="m228.007812 14.273438v73.980468l-12.90625 10.320313c-6.164062 4.933593-14.941406 4.933593-21.105468 0l-27.460938-21.972657c-4.011718-3.207031-6.34375-8.066406-6.34375-13.195312v-61.890625c7.640625-.992187 15.433594-1.5039062 23.34375-1.515625 12.164063-.0117188 24.054688 1.171875 35.546875 3.425781 5.183594 1.015625 8.925781 5.570313 8.925781 10.847657zm0 0" fill="#fb5858"/></svg>