<?xml version="1.0" encoding="iso-8859-1"?>
<!-- Generator: Adobe Illustrator 19.0.0, SVG Export Plug-In . SVG Version: 6.00 Build 0)  -->
<svg version="1.1" id="Capa_1" xmlns="http://www.w3.org/2000/svg" xmlns:xlink="http://www.w3.org/1999/xlink" x="0px" y="0px"
	 viewBox="0 0 468.293 468.293" style="enable-background:new 0 0 468.293 468.293;" xml:space="preserve">
<path style="fill:#2F4859;" d="M216.123,206.808c0,0-2.04,11.857-8.161,13.614c0,0,9.692,24.345,30.195,28.26
	c0,0-16.73,10.824-39.58-23.429c0,0-8.569,3.074-14.281-1.757c0,0-15.831,6.552-10.201,25.186
	c2.738,9.064,8.569,26.678,26.931,26.634c51.487,0,67.869-37.434,72.497-52.505c-5.727-1.837-9.93-7.484-9.93-14.245v-1.757h81.88
	v1.757c0,8.246-6.211,14.931-13.873,14.931h-51.456c-4.42,15.106-22.371,60.602-79.525,60.602c0,0-28.286-13.891-44.477-2.21
	l-0.131-75.08H216.123z"/>
<g>
	<path style="fill:#3A556A;" d="M439.486,83.171h7.968c3.772,0,6.829,3.058,6.829,6.829v10.717h-21.626V90
		C432.657,86.229,435.715,83.171,439.486,83.171z"/>
	<polygon style="fill:#3A556A;" points="72.696,95.412 59.639,79.499 59.639,100.717 72.696,100.717 	"/>
</g>
<polygon style="fill:#64798A;" points="31.28,152.13 456.459,152.13 456.459,99.085 282.818,99.085 282.818,112.142 
	195.997,112.142 195.997,99.085 59.432,99.085 58.619,104.389 32.912,93.78 28.016,116.222 37.401,122.955 "/>
<g>
	<rect x="456.461" y="106.04" style="fill:#3A556A;" width="11.832" height="31.825"/>
	<path style="fill:#3A556A;" d="M456.459,152.13v44.068h-26.931v13.057h-84.057H156.141v72.631c0,0-31.011,37.54-22.034,106.907
		H28.016c0,0-12.027-13.218,0-57.126c2.858-10.435,9.019-31.75,14.223-49.634c6.535-22.455-0.479-46.793-18.299-61.938
		c-3.5-2.974-7.315-5.828-11.43-8.391c-8.141-5.071-30.195-21.218,15.506-35.092l3.264-24.482H456.459z"/>
	<path style="fill:#3A556A;" d="M77.752,146.669l0.45-0.152c2.722-0.922,4.181-3.875,3.26-6.597l-9.399-27.761
		c-0.922-2.722-3.875-4.181-6.597-3.26l-0.45,0.152c-2.722,0.922-4.181,3.875-3.26,6.597l9.399,27.761
		C72.076,146.131,75.03,147.59,77.752,146.669z"/>
	<path style="fill:#3A556A;" d="M95.162,146.669l0.45-0.152c2.722-0.922,4.181-3.875,3.26-6.597l-9.399-27.761
		c-0.922-2.722-3.875-4.181-6.597-3.26l-0.45,0.152c-2.722,0.922-4.181,3.875-3.26,6.597l9.399,27.761
		C89.486,146.131,92.44,147.59,95.162,146.669z"/>
	<path style="fill:#3A556A;" d="M112.572,146.669l0.45-0.152c2.722-0.922,4.181-3.875,3.26-6.597l-9.399-27.761
		c-0.922-2.722-3.875-4.181-6.597-3.26l-0.45,0.152c-2.722,0.922-4.181,3.875-3.26,6.597l9.399,27.761
		C106.896,146.131,109.85,147.59,112.572,146.669z"/>
	<path style="fill:#3A556A;" d="M129.981,146.669l0.45-0.152c2.722-0.922,4.181-3.875,3.26-6.597l-9.399-27.761
		c-0.922-2.722-3.875-4.181-6.597-3.26l-0.45,0.152c-2.722,0.922-4.181,3.875-3.26,6.597l9.399,27.761
		C124.306,146.131,127.259,147.59,129.981,146.669z"/>
	<path style="fill:#3A556A;" d="M147.391,146.669l0.45-0.152c2.722-0.922,4.181-3.875,3.26-6.597l-9.399-27.761
		c-0.922-2.722-3.875-4.181-6.597-3.26l-0.45,0.152c-2.722,0.922-4.181,3.875-3.26,6.597l9.399,27.761
		C141.716,146.131,144.669,147.59,147.391,146.669z"/>
	<path style="fill:#3A556A;" d="M164.801,146.669l0.45-0.152c2.722-0.922,4.181-3.875,3.26-6.597l-9.399-27.761
		c-0.922-2.722-3.875-4.181-6.597-3.26l-0.45,0.152c-2.722,0.922-4.181,3.875-3.26,6.597l9.399,27.761
		C159.125,146.131,162.079,147.59,164.801,146.669z"/>
	<path style="fill:#3A556A;" d="M182.211,146.669l0.45-0.152c2.722-0.922,4.181-3.875,3.26-6.597l-9.399-27.761
		c-0.922-2.722-3.875-4.181-6.597-3.26l-0.45,0.152c-2.722,0.922-4.181,3.875-3.26,6.597l9.399,27.761
		C176.535,146.131,179.489,147.59,182.211,146.669z"/>
</g>
<g>
	<path style="fill:#2F4859;" d="M23.292,375.329h109.531l2.1,13.465H30.11h-2.094C28.016,388.794,23.899,383.22,23.292,375.329z"/>
	<rect x="156.023" y="196.202" style="fill:#2F4859;" width="273.52" height="13.056"/>
	<path style="fill:#2F4859;" d="M233.173,157.843h223.287v-10.337H233.173c-2.73,0-4.943,2.213-4.943,4.943v0.451
		C228.23,155.63,230.443,157.843,233.173,157.843z"/>
</g>
<g>
</g>
<g>
</g>
<g>
</g>
<g>
</g>
<g>
</g>
<g>
</g>
<g>
</g>
<g>
</g>
<g>
</g>
<g>
</g>
<g>
</g>
<g>
</g>
<g>
</g>
<g>
</g>
<g>
</g>
</svg>
