<?xml version="1.0" encoding="UTF-8"?>
<!DOCTYPE svg PUBLIC "-//W3C//DTD SVG 1.1//EN" "http://www.w3.org/Graphics/SVG/1.1/DTD/svg11.dtd">
<svg xmlns="http://www.w3.org/2000/svg" version="1.1" width="512px" height="512px" style="shape-rendering:geometricPrecision; text-rendering:geometricPrecision; image-rendering:optimizeQuality; fill-rule:evenodd; clip-rule:evenodd" xmlns:xlink="http://www.w3.org/1999/xlink">
<g><path style="opacity:0.996" fill="#111111" d="M 245.5,7.5 C 263.721,6.87013 281.388,9.70347 298.5,16C 335.976,31.8951 369.643,53.5618 399.5,81C 433.035,111.507 460.868,146.34 483,185.5C 503.06,221.309 508.727,259.309 500,299.5C 484.446,383.176 438.613,443.676 362.5,481C 290.352,511.284 218.352,510.95 146.5,480C 61.3936,436.806 15.227,367.306 8,271.5C 5.98494,245.575 10.6516,220.908 22,197.5C 59.4711,125.028 113.638,68.5282 184.5,28C 203.781,17.6289 224.114,10.7955 245.5,7.5 Z"/></g>
<g><path style="opacity:1" fill="#6ce7e9" d="M 430.5,223.5 C 427.155,242.717 420.821,260.884 411.5,278C 425.171,306.128 420.171,330.461 396.5,351C 390.242,355.795 383.242,358.962 375.5,360.5C 368.939,361.78 362.272,362.613 355.5,363C 348,365.167 343.167,370 341,377.5C 340.667,387.5 340.333,397.5 340,407.5C 338.5,411.667 335.667,414.5 331.5,416C 323.692,418.8 315.692,420.633 307.5,421.5C 307.825,413.981 307.492,406.648 306.5,399.5C 304.74,393.45 300.74,391.283 294.5,393C 293.069,393.465 291.903,394.299 291,395.5C 289.552,405.061 289.052,414.727 289.5,424.5C 281.362,425.767 273.029,426.434 264.5,426.5C 264.827,416.985 264.494,407.652 263.5,398.5C 261.412,392.873 257.412,391.039 251.5,393C 249.536,394.451 248.203,396.284 247.5,398.5C 246.506,407.652 246.173,416.985 246.5,426.5C 237.963,426.536 229.63,425.869 221.5,424.5C 221.666,415.494 221.5,406.494 221,397.5C 218.103,392.845 213.937,391.345 208.5,393C 206.266,394.638 204.933,396.805 204.5,399.5C 203.508,406.648 203.175,413.981 203.5,421.5C 194.225,420.618 185.225,418.452 176.5,415C 173.894,413.062 172.061,410.562 171,407.5C 170.667,397.5 170.333,387.5 170,377.5C 167.706,369.537 162.539,364.704 154.5,363C 148.011,362.921 141.677,362.087 135.5,360.5C 108.092,352.244 93.4251,333.744 91.5,305C 92.002,295.319 94.6687,286.319 99.5,278C 90.1785,260.884 83.8452,242.717 80.5,223.5C 89.0493,217.39 98.3826,212.557 108.5,209C 136.711,199.091 165.711,192.758 195.5,190C 259.286,183.673 322.286,188.006 384.5,203C 398.311,207.159 411.645,212.492 424.5,219C 426.747,220.277 428.747,221.777 430.5,223.5 Z"/></g>
<g><path style="opacity:1" fill="#4e4e4e" d="M 80.5,223.5 C 83.8452,242.717 90.1785,260.884 99.5,278C 94.6687,286.319 92.002,295.319 91.5,305C 93.4251,333.744 108.092,352.244 135.5,360.5C 135.5,384.167 135.5,407.833 135.5,431.5C 86.9758,397.493 59.1424,350.826 52,291.5C 44.3166,261.241 53.8166,238.574 80.5,223.5 Z"/></g>
<g><path style="opacity:1" fill="#4e4e4e" d="M 430.5,223.5 C 453.503,235.502 463.336,254.502 460,280.5C 455.636,344.598 427.469,394.931 375.5,431.5C 375.5,407.833 375.5,384.167 375.5,360.5C 383.242,358.962 390.242,355.795 396.5,351C 420.171,330.461 425.171,306.128 411.5,278C 420.821,260.884 427.155,242.717 430.5,223.5 Z"/></g>
<g><path style="opacity:1" fill="#388189" d="M 133.5,238.5 C 136.607,238.351 139.607,238.851 142.5,240C 170.951,252.392 199.285,265.059 227.5,278C 229.393,280.917 229.893,284.084 229,287.5C 210.919,312.983 187.086,320.483 157.5,310C 132.108,294.166 122.942,271.666 130,242.5C 131.376,241.295 132.542,239.962 133.5,238.5 Z"/></g>
<g><path style="opacity:1" fill="#388189" d="M 370.5,238.5 C 376.308,237.652 380.142,239.985 382,245.5C 387.843,273.966 378.343,295.466 353.5,310C 323.649,321.382 299.816,313.882 282,287.5C 280.902,283.495 281.735,279.995 284.5,277C 313.394,264.435 342.06,251.601 370.5,238.5 Z"/></g>
<g><path style="opacity:1" fill="#388189" d="M 252.5,306.5 C 257.503,306.085 261.67,307.752 265,311.5C 270.255,321.01 275.255,330.676 280,340.5C 281.933,348.128 279.433,353.628 272.5,357C 260.833,357.667 249.167,357.667 237.5,357C 231.333,353.155 229.166,347.655 231,340.5C 235.745,330.676 240.745,321.01 246,311.5C 247.965,309.45 250.132,307.783 252.5,306.5 Z"/></g>
<g><path style="opacity:1" fill="#58cfcf" d="M 135.5,360.5 C 141.677,362.087 148.011,362.921 154.5,363C 162.539,364.704 167.706,369.537 170,377.5C 170.333,387.5 170.667,397.5 171,407.5C 172.061,410.562 173.894,413.062 176.5,415C 185.225,418.452 194.225,420.618 203.5,421.5C 203.175,413.981 203.508,406.648 204.5,399.5C 204.5,407.167 204.5,414.833 204.5,422.5C 210.153,423.275 215.82,423.942 221.5,424.5C 229.63,425.869 237.963,426.536 246.5,426.5C 246.173,416.985 246.506,407.652 247.5,398.5C 247.5,407.833 247.5,417.167 247.5,426.5C 252.833,426.5 258.167,426.5 263.5,426.5C 263.5,417.167 263.5,407.833 263.5,398.5C 264.494,407.652 264.827,416.985 264.5,426.5C 273.029,426.434 281.362,425.767 289.5,424.5C 295.116,423.543 300.783,422.876 306.5,422.5C 306.5,414.833 306.5,407.167 306.5,399.5C 307.492,406.648 307.825,413.981 307.5,421.5C 315.692,420.633 323.692,418.8 331.5,416C 335.667,414.5 338.5,411.667 340,407.5C 340.333,397.5 340.667,387.5 341,377.5C 343.167,370 348,365.167 355.5,363C 362.272,362.613 368.939,361.78 375.5,360.5C 375.5,384.167 375.5,407.833 375.5,431.5C 317.218,469.883 254.552,478.716 187.5,458C 168.825,451.497 151.492,442.664 135.5,431.5C 135.5,407.833 135.5,384.167 135.5,360.5 Z"/></g>
<g><path style="opacity:1" fill="#38828a" d="M 221.5,424.5 C 215.82,423.942 210.153,423.275 204.5,422.5C 204.5,414.833 204.5,407.167 204.5,399.5C 204.933,396.805 206.266,394.638 208.5,393C 213.937,391.345 218.103,392.845 221,397.5C 221.5,406.494 221.666,415.494 221.5,424.5 Z"/></g>
<g><path style="opacity:1" fill="#38828a" d="M 263.5,398.5 C 263.5,407.833 263.5,417.167 263.5,426.5C 258.167,426.5 252.833,426.5 247.5,426.5C 247.5,417.167 247.5,407.833 247.5,398.5C 248.203,396.284 249.536,394.451 251.5,393C 257.412,391.039 261.412,392.873 263.5,398.5 Z"/></g>
<g><path style="opacity:1" fill="#38828a" d="M 306.5,399.5 C 306.5,407.167 306.5,414.833 306.5,422.5C 300.783,422.876 295.116,423.543 289.5,424.5C 289.052,414.727 289.552,405.061 291,395.5C 291.903,394.299 293.069,393.465 294.5,393C 300.74,391.283 304.74,393.45 306.5,399.5 Z"/></g>
</svg>
