<?xml version="1.0" ?><!-- Uploaded to: SVG Repo, www.svgrepo.com, Generator: SVG Repo Mixer Tools -->
<svg width="800px" height="800px" viewBox="0 0 24 24" data-name="Layer 1" id="Layer_1" xmlns="http://www.w3.org/2000/svg"><title/><polygon points="12.673 8.69 20.266 17.441 22.156 15.55 14.042 7.458 12.673 8.69" style="fill:#4b5661"/><path d="M13.3508,20.0553a1.64245,1.64245,0,0,1-3.2849,0c0-.9071.8212-1.6424,1.6424-2.4636C12.5295,18.4129,13.3508,19.1482,13.3508,20.0553Z" style="fill:#fa6d62"/><path d="M11.6464,17.7706,1.5,7.6437,5.92475,3.219A2.74516,2.74516,0,0,1,9.805,3.2171l8.20536,8.1895Z" style="fill:#c8d1d4"/><path d="M3.64123,5.5025,1.5,7.6438,11.6464,17.7705l2.1454-2.1454s-1.9597-.1078-2.5105-.6876c-.5938-.625.0729-1.8542-.5631-2.4682-.6572-.6345-2.4057-.386-2.99945-1.0005-.5169-.5351-.148-2.0812-.8443-2.7495C6.125,8,4.61813,8.4646,4.03125,7.8125A3.34831,3.34831,0,0,1,3.64123,5.5025Z" style="fill:#fa6d62"/></svg>