<?xml version="1.0"?>
<svg xmlns="http://www.w3.org/2000/svg" xmlns:xlink="http://www.w3.org/1999/xlink" version="1.1" id="Capa_1" x="0px" y="0px" viewBox="0 0 511.999 511.999" style="enable-background:new 0 0 511.999 511.999;" xml:space="preserve" width="512px" height="512px" class=""><g><path style="fill:#373737" d="M510.19,213.51L476.891,443.6c-1.8,4.801-3.6,9.302-5.101,13.5  c-13.2,33.3-45.998,54.899-81.697,54.899c-11.398,0-22.499-2.1-32.998-6.599l-101.096-41.999L27.009,368.904  c-16.5-7.5-27-23.698-27-41.098v-71.996c0-107.096,81.997-218.593,181.894-246.191c24.597-6.601,49.497-9.901,74.096-9.6  c50.998,0.601,101.796,15.9,144.694,44.698C459.192,84.015,498.79,146.313,510.19,213.51z" data-original="#FE8821" class="" data-old_color="#FE8821"/><path style="fill:#2D2D2C" d="M510.19,213.51L476.891,443.6c-1.8,4.801-3.6,9.302-5.101,13.5  c-13.2,33.3-45.998,54.899-81.697,54.899c-11.398,0-22.499-2.1-32.998-6.599l-101.096-41.999V0.019  c50.998,0.601,101.796,15.9,144.694,44.698C459.192,84.015,498.79,146.313,510.19,213.51z" data-original="#E5741A" class="active-path" data-old_color="#E5741A"/><path style="fill:#57555C" d="M121.004,332.007c-33.09,0-59.998-26.908-59.998-59.998s26.908-59.998,59.998-59.998  s59.998,26.908,59.998,59.998S154.094,332.007,121.004,332.007z" data-original="#57555C" class=""/><path style="fill:#3C3A41" d="M510.19,213.51l-179.193-22.365l-29.999,26.233v108.777l29.999,44.998l145.896,72.448l13.5,6.901  c2.098,0.899,4.199,1.5,6.599,1.5c2.701,0,5.4-0.601,7.8-2.1c4.499-2.999,7.2-7.8,7.2-12.9V225.211  C511.39,221.311,511.09,217.411,510.19,213.51z" data-original="#3C3A41" class=""/><path style="fill:#57555C" d="M330.997,191.011v179.993l-65.097-32.4c-3.6-1.8-6.901-3.898-9.901-6.599  C246.7,323.605,241,311.306,241,298.407v-67.497c0-12.9,5.7-24.9,14.999-33.299l0.3-0.3c9.6-8.701,22.499-12.599,35.399-11.1  L330.997,191.011z" data-original="#57555C" class=""/><path style="fill:#3C3A41" d="M330.997,191.011v179.993l-65.097-32.4c-3.6-1.8-6.901-3.898-9.901-6.599V197.612l0.3-0.3  c9.6-8.701,22.499-12.599,35.399-11.1L330.997,191.011z" data-original="#3C3A41" class=""/></g> </svg>
