<?xml version="1.0" encoding="iso-8859-1"?>
<!-- Generator: Adobe Illustrator 19.0.0, SVG Export Plug-In . SVG Version: 6.00 Build 0)  -->
<svg version="1.1" id="Layer_1" xmlns="http://www.w3.org/2000/svg" xmlns:xlink="http://www.w3.org/1999/xlink" x="0px" y="0px"
	 viewBox="0 0 512 512" style="enable-background:new 0 0 512 512;" xml:space="preserve">
<path style="fill:#808080;" d="M241.161,57.801h-17.687V28.794c0-6.124-4.983-11.107-11.107-11.107h-80.099
	c-6.13,0-11.119,4.983-11.119,11.107v29.006h-17.687V28.794C103.462,12.917,116.384,0,132.268,0h80.099
	c15.877,0,28.794,12.917,28.794,28.794v29.006H241.161z"/>
<g>
	<polygon style="fill:#F95428;" points="153.575,43.934 153.575,132.781 71.036,132.781 71.036,43.934 112.306,43.934 	"/>
	<rect x="311.065" y="254.337" style="fill:#F95428;" width="82.539" height="100.992"/>
	<path style="fill:#F95428;" d="M273.587,253.7v91.018h-82.539V164.028h28.9v66.552c0,12.766,9.61,23.119,21.46,23.119H273.587z"/>
	<rect x="71.031" y="158.133" style="fill:#F95428;" width="82.539" height="193.66"/>
</g>
<path style="fill:#808080;" d="M332.377,512h-80.109c-15.877,0-28.794-12.917-28.794-28.794v-29.007h17.687v29.007
	c0,6.124,4.983,11.107,11.107,11.107h80.109c6.124,0,11.109-4.983,11.109-11.107v-29.007h17.687v29.007
	C361.172,499.083,348.255,512,332.377,512z"/>
<g>
	<polygon style="fill:#F95428;" points="393.598,373.606 393.598,465.991 352.329,465.991 311.059,465.991 311.059,373.606 	"/>
	<polygon style="fill:#F95428;" points="273.587,375.964 273.587,465.991 232.317,465.991 191.048,465.991 191.048,375.964 	"/>
	<rect x="71.031" y="377.143" style="fill:#F95428;" width="82.539" height="88.847"/>
	<rect x="311.065" y="43.934" style="fill:#F95428;" width="82.539" height="63.366"/>
</g>
<g>
	<rect x="311.572" y="386.576" style="fill:#E54728;" width="26.724" height="79.414"/>
	<rect x="311.572" y="171.103" style="fill:#E54728;" width="26.724" height="167.719"/>
	<polygon style="fill:#E54728;" points="338.289,43.934 338.289,123.348 311.566,123.348 311.566,43.934 324.928,43.934 	"/>
</g>
<path style="fill:#666666;" d="M447.991,128.761v104.117c0,11.85-9.61,21.46-21.472,21.46h-32.921h-82.539h-37.473h-32.178
	c-11.85,0-21.46-9.61-21.46-21.46v-61.774v-42.342c0-1.863,0.236-3.679,0.684-5.412c2.405-9.233,10.789-16.048,20.776-16.048h32.178
	h37.473h82.539h32.921C438.381,107.3,447.991,116.91,447.991,128.761z"/>
<rect x="249.42" y="136.779" style="fill:#F2F2F2;" width="169.087" height="88.081"/>
<polygon style="fill:#808080;" points="409.469,338.822 409.469,386.576 393.598,386.576 311.059,386.576 273.587,386.576 
	191.048,386.576 153.575,386.576 71.036,386.576 55.177,386.576 55.177,338.822 71.036,338.822 153.575,338.822 191.048,338.822 
	273.587,338.822 311.059,338.822 393.598,338.822 "/>
<polygon style="fill:#666666;" points="87.293,338.822 87.293,386.576 85.855,386.576 78.372,386.576 74.975,386.576 
	67.493,386.576 64.096,386.576 56.615,386.576 55.177,386.576 55.177,338.822 56.615,338.822 64.096,338.822 67.493,338.822 
	74.975,338.822 78.372,338.822 85.855,338.822 "/>
<path style="fill:#F95428;" d="M273.587,43.934V107.3h-32.178c-9.987,0-18.371,6.815-20.776,16.048h-0.012h-29.572V43.934h41.269
	H273.587z"/>
<path style="fill:#E54728;" d="M311.059,259.632v29.478h82.539v-29.478H311.059z M249.426,254.337h-8.018
	c-11.85,0-21.46-9.61-21.46-21.46v34.772c0,11.85,9.61,21.46,21.46,21.46h32.178v-29.478h-24.16L249.426,254.337L249.426,254.337z"
	/>
<path style="fill:#808080;" d="M220.62,123.348h0.012c-0.448,1.733-0.684,3.549-0.684,5.412v42.342h-0.012h-28.889h-37.473H71.036
	H55.165v-47.755h15.871h82.539h37.473H220.62z"/>
<polygon style="fill:#666666;" points="87.293,123.348 87.293,171.103 85.855,171.103 78.372,171.103 74.975,171.103 
	67.493,171.103 64.096,171.103 56.615,171.103 55.177,171.103 55.177,123.348 56.615,123.348 64.096,123.348 67.493,123.348 
	74.975,123.348 78.372,123.348 85.855,123.348 "/>
<g>
	<rect x="71.031" y="386.576" style="fill:#E54728;" width="26.724" height="79.414"/>
	<rect x="71.031" y="171.103" style="fill:#E54728;" width="26.724" height="167.719"/>
	<rect x="71.031" y="171.103" style="fill:#E54728;" width="82.539" height="23.653"/>
	<rect x="71.031" y="386.576" style="fill:#E54728;" width="82.539" height="23.653"/>
	<rect x="191.054" y="386.576" style="fill:#E54728;" width="82.539" height="23.653"/>
	<rect x="311.065" y="386.576" style="fill:#E54728;" width="82.539" height="23.653"/>
	<polygon style="fill:#E54728;" points="97.76,43.934 97.76,123.348 71.036,123.348 71.036,43.934 84.398,43.934 	"/>
	<rect x="192.139" y="386.576" style="fill:#E54728;" width="26.724" height="79.414"/>
	<rect x="192.139" y="171.103" style="fill:#E54728;" width="26.724" height="167.719"/>
	<polygon style="fill:#E54728;" points="218.86,43.934 218.86,123.348 192.136,123.348 192.136,43.934 205.498,43.934 	"/>
</g>
<path style="fill:#4D4D4D;" d="M426.519,263.181H241.408c-16.709,0-30.304-13.594-30.304-30.304V128.761
	c0-2.581,0.324-5.146,0.965-7.625c3.481-13.359,15.544-22.678,29.339-22.678h185.111c16.716,0,30.315,13.594,30.315,30.304v104.117
	C456.835,249.587,443.236,263.181,426.519,263.181z M241.408,116.144c-5.747,0-10.771,3.879-12.218,9.434
	c-0.263,1.016-0.399,2.093-0.399,3.182v104.117c0,6.957,5.66,12.617,12.617,12.617h185.111c6.963,0,12.628-5.66,12.628-12.617
	V128.761c0-6.957-5.666-12.617-12.628-12.617H241.408z"/>
<rect x="351.662" y="192.681" style="fill:#999999;" width="46.41" height="17.687"/>
<g>
</g>
<g>
</g>
<g>
</g>
<g>
</g>
<g>
</g>
<g>
</g>
<g>
</g>
<g>
</g>
<g>
</g>
<g>
</g>
<g>
</g>
<g>
</g>
<g>
</g>
<g>
</g>
<g>
</g>
</svg>
