<svg id="Flat" height="512" viewBox="0 0 512 512" width="512" xmlns="http://www.w3.org/2000/svg"><rect fill="#464c4f" height="48" rx="16" width="464" x="24" y="184"/><rect fill="#4f5659" height="272" rx="16" width="48" x="88" y="72"/><rect fill="#4f5659" height="272" rx="16" width="48" x="376" y="72"/><path d="m72 288a16 16 0 0 1 -16-16v-128a16 16 0 0 1 16-16 16 16 0 0 1 16 16v128a16 16 0 0 1 -16 16z" fill="#596063"/><path d="m440 128a16 16 0 0 1 16 16v128a16 16 0 0 1 -16 16 16 16 0 0 1 -16-16v-128a16 16 0 0 1 16-16z" fill="#596063"/><path d="m224 232a16 16 0 0 1 -16-16v-64a16 16 0 0 1 16-16 16 16 0 0 1 16 16v64a16 16 0 0 1 -16 16z" fill="#e0b999"/><path d="m256 232a16 16 0 0 1 -16-16v-64a16 16 0 0 1 16-16 16 16 0 0 1 16 16v64a16 16 0 0 1 -16 16z" fill="#ebc2a0"/><path d="m288 232a16 16 0 0 1 -16-16v-48a16 16 0 0 1 16-16 16 16 0 0 1 16 16v48a16 16 0 0 1 -16 16z" fill="#e0b999"/><path d="m320 232a16 16 0 0 1 -16-16v-32a16 16 0 0 1 16-16 16 16 0 0 1 16 16v32a16 16 0 0 1 -16 16z" fill="#ebc2a0"/><path d="m336 232v32l-16 48v128h-112v-128l-32-48v-80a16 16 0 0 1 16-16h48v16a16 16 0 0 1 -16 16h-16v32z" fill="#f7cca9"/><g fill="#e0b999"><path d="m256 296a8 8 0 0 1 -8-8 40.045 40.045 0 0 0 -40-40 8 8 0 0 1 0-16 56.063 56.063 0 0 1 56 56 8 8 0 0 1 -8 8z"/><path d="m248 336a8 8 0 0 1 -8 8h-32v-16h32a8 8 0 0 1 8 8z"/></g></svg>