<?xml version="1.0" ?><svg width="64px" height="64px" viewBox="0 0 64 64" xmlns="http://www.w3.org/2000/svg"><defs><style>.cls-1{fill:#92d39d;}.cls-2{fill:#748a95;}.cls-3{fill:#f0f4f7;}.cls-4{fill:#dd5891;}.cls-5{fill:#efc89d;}.cls-6{fill:#aaddb4;}.cls-7{fill:#f6e782;}</style></defs><g id="Clown"><path class="cls-1" d="M24.18,8a3.1,3.1,0,0,0-3,2.52l-1,5.11,11.61,3.22,11.6-3.22-1-5.11a3.1,3.1,0,0,0-3-2.52Z" id="rect58096-19"/><path class="cls-2" d="M20.17,15.63l-.84,4.44h24.9l-.85-4.44Z" id="path58618-4"/><path class="cls-2" d="M17.24,24.56A5.06,5.06,0,0,0,16,27.88a5,5,0,0,0,.43,2A5,5,0,0,0,18.55,39a5,5,0,0,0,8.57,1.85h9.8A5,5,0,0,0,45.5,39a5,5,0,0,0,2.11-9.09,5.16,5.16,0,0,0,.44-2,5.07,5.07,0,0,0-1.25-3.32Z" id="path62769-7"/><path class="cls-3" d="M36.67,43.32H26.88a9,9,0,0,0-2.5,2.16l-2.17,3.79L20,47.39l-.49.21a9.13,9.13,0,0,0-5.28,6.58A1.53,1.53,0,0,0,15.77,56H20l2.17-2.84L24.38,56h4.53l2.87-3.1L34.64,56h4.53l2.17-2.84L43.52,56h4.26a1.53,1.53,0,0,0,1.5-1.82A9.13,9.13,0,0,0,44,47.6l-.48-.21-2.17,1.88-2.17-3.79A4.83,4.83,0,0,0,36.67,43.32Z" id="path125068"/><path class="cls-4" d="M34.64,56V45.93H28.91V56Z" id="path44101-7"/><path class="cls-4" d="M24.38,45.48,20,47.39V56h4.34Z" id="path122233"/><path class="cls-4" d="M39.17,45.48V56h4.35V47.39l-4.34-1.91Z" id="path43458-8"/><path class="cls-5" d="M36.67,39.43v3.89a4.9,4.9,0,1,1-9.79,0V39.43Z" id="rect27794-0-6-8"/><path class="cls-3" d="M44.27,24.57a26.78,26.78,0,0,1-.63,6.33c-1.71,5.75-6.38,11.31-11.86,11.31S21.62,36.65,19.91,30.9a26.78,26.78,0,0,1-.63-6.33l12.5-3.27Z" id="path50926-1"/><path class="cls-6" d="M17,20.08H46.54a2.25,2.25,0,0,1,0,4.49H17a2.25,2.25,0,1,1,0-4.49Z" id="rect51499-2"/><path class="cls-4" d="M34.41,32.51a21.71,21.71,0,0,0,3.44-.84.38.38,0,0,1,.54.38,6.61,6.61,0,0,1-13.22,0,.37.37,0,0,1,.53-.38,22,22,0,0,0,3.44.84Z" id="rect52479-3"/><path class="cls-7" d="M34.46,32a2.69,2.69,0,1,1-2.68-2.68A2.68,2.68,0,0,1,34.46,32Z" id="path52263-9"/></g></svg>