<?xml version="1.0" encoding="iso-8859-1"?>
<!-- Uploaded to: SVG Repo, www.svgrepo.com, Generator: SVG Repo Mixer Tools -->
<svg height="800px" width="800px" version="1.1" id="Layer_1" xmlns="http://www.w3.org/2000/svg" xmlns:xlink="http://www.w3.org/1999/xlink" 
	 viewBox="0 0 512 512" xml:space="preserve">
<circle style="fill:#898890;" cx="255.994" cy="21.536" r="21.536"/>
<path style="fill:#57565C;" d="M256,27.064c-32.145,0-58.296,26.152-58.296,58.297c0,32.144,26.152,58.296,58.296,58.296
	s58.297-26.152,58.297-58.296C314.296,53.215,288.145,27.064,256,27.064z"/>
<path style="fill:#48484D;" d="M256,27.064L256,27.064v116.593l0,0c32.145,0,58.297-26.152,58.297-58.296
	C314.296,53.215,288.145,27.064,256,27.064z"/>
<path style="fill:#898890;" d="M379.132,447.445l-79.184-269.024l47.993-68.31c3.585-5.102,4.03-11.775,1.155-17.31
	c-2.875-5.533-8.592-9.005-14.828-9.005H177.732c-6.295,0-12.055,3.538-14.902,9.151c-2.847,5.614-2.298,12.352,1.421,17.43
	l49.927,68.176l-81.274,268.772c-1.531,5.062-0.575,10.55,2.577,14.795c3.152,4.247,8.128,6.75,13.416,6.75h214.205
	c5.267,0,10.225-2.483,13.38-6.7C379.637,457.954,380.619,452.497,379.132,447.445z"/>
<path style="fill:#706F75;" d="M379.132,447.445l-79.184-269.024l47.993-68.31c3.585-5.102,4.03-11.775,1.155-17.31
	c-2.875-5.533-8.592-9.005-14.828-9.005H256v267.797v111.71v5.57h107.103c5.267,0,10.225-2.483,13.379-6.7
	C379.637,457.954,380.619,452.497,379.132,447.445z"/>
<path style="fill:#57565C;" d="M314.667,193.784H197.332c-9.228,0-16.709-7.481-16.709-16.709s7.481-16.709,16.709-16.709h117.335
	c9.228,0,16.709,7.481,16.709,16.709S323.896,193.784,314.667,193.784z"/>
<path style="fill:#706F75;" d="M375.933,390.581H136.065c-9.228,0-16.709,7.481-16.709,16.709v39.303
	c0,9.228,7.481,16.709,16.709,16.709h239.868c9.228,0,16.709-7.481,16.709-16.709V407.29
	C392.642,398.062,385.162,390.581,375.933,390.581z"/>
<path style="fill:#57565C;" d="M408.61,429.884H103.39c-9.228,0-16.709,7.481-16.709,16.709v48.698
	c0,9.228,7.481,16.709,16.709,16.709H408.61c9.228,0,16.709-7.481,16.709-16.709v-48.698
	C425.319,437.365,417.838,429.884,408.61,429.884z"/>
<path style="fill:#48484D;" d="M408.61,429.884H256V512h152.61c9.228,0,16.709-7.481,16.709-16.709v-48.698
	C425.319,437.365,417.838,429.884,408.61,429.884z"/>
</svg>