<?xml version="1.0" ?>
<!-- Uploaded to: SVG Repo, www.svgrepo.com, Generator: SVG Repo Mixer Tools -->
<svg width="800px" height="800px" viewBox="0 0 24 24" enable-background="new 0 0 24 24" id="Layer_1" version="1.1" xml:space="preserve" xmlns="http://www.w3.org/2000/svg" xmlns:xlink="http://www.w3.org/1999/xlink">
<g>
<path d="M24,10c0-1.2988281-1.0302734-2-2-2c-0.7636719,0-1.4140625,0.2850342-2.0060425,0.6656494   C19.9942627,8.6083984,20,8.5576172,20,8.5C20,8.2236328,19.7763672,8,19.5,8h-17C2.2236328,8,2,8.2236328,2,8.5   c0,4.9344482,1.1867676,8.4476318,3.5115967,10.5H0.5C0.2236328,19,0,19.2236328,0,19.5C0,20.878418,1.121582,22,2.5,22h17   c1.378418,0,2.5-1.121582,2.5-2.5c0-0.2763672-0.2236328-0.5-0.5-0.5h-5.0115967   c1.2545776-1.107605,2.1756592-2.6428223,2.757019-4.5985107C22.7366943,12.9025879,24,11.1044922,24,10z M19.947998,9.928772   C20.5952759,9.427063,21.2470093,9,22,9c0.371582,0,1,0.2104492,1,1c0,0.4495239-0.654541,1.8180542-3.4564819,3.1727905   C19.7520142,12.1812134,19.8883057,11.1013794,19.947998,9.928772z" fill="#303C42"/>
<path d="M19.5,21h-17c-0.6518555,0-1.2080078-0.4179688-1.4145508-1h19.8291016   C20.7080078,20.5820312,20.1518555,21,19.5,21z" fill="#A6714D"/>
<path d="M20.012146,20c-0.2745361,0.3007812-0.6593018,0.5-1.0975952,0.5h-17   c-0.2362061,0-0.4509888-0.0698853-0.6499634-0.1675415C1.5345459,20.7316895,1.9829712,21,2.5,21h17   c0.6518555,0,1.2080078-0.4179688,1.4145508-1H20.012146z" opacity="0.1"/>
<path d="M14.8078003,19H7.1921997C4.5018311,17.4061279,3.090271,14.0487671,3.0043945,9h15.9912109   C18.909729,14.0487671,17.4981689,17.4061279,14.8078003,19z" fill="#A6714D"/>
<path d="M17.9172974,9c-0.1782837,2.336792-0.6779785,4.2602539-1.5037231,5.7481079   C15.4634399,16.460144,13.6385498,17.5,11.680542,17.5H5.4393311c0.5068359,0.6055298,1.09021,1.1074219,1.7528687,1.5h7.6156006   c2.6903687-1.5938721,4.1019287-4.9512329,4.1878052-10H17.9172974z" opacity="0.1"/>
<path d="M10.5,6.5C10.5,6.7763672,10.7236328,7,11,7s0.5-0.2236328,0.5-0.5   c0-0.28125,0.1083984-0.4013672,0.3535156-0.6464844C12.1264648,5.5805664,12.5,5.2070312,12.5,4.5   s-0.3735352-1.0805664-0.6464844-1.3535156C11.6083984,2.9013672,11.5,2.78125,11.5,2.5C11.5,2.2236328,11.2763672,2,11,2   s-0.5,0.2236328-0.5,0.5c0,0.7070312,0.3735352,1.0805664,0.6464844,1.3535156C11.3916016,4.0986328,11.5,4.21875,11.5,4.5   s-0.1083984,0.4013672-0.3535156,0.6464844C10.8735352,5.4194336,10.5,5.7929688,10.5,6.5z" fill="#303C42"/>
<path d="M6,6.5C6,6.7763672,6.2236328,7,6.5,7S7,6.7763672,7,6.5   c0-0.28125,0.1083984-0.4013672,0.3535156-0.6464844C7.6264648,5.5805664,8,5.2070312,8,4.5   S7.6264648,3.4194336,7.3535156,3.1464844C7.1083984,2.9013672,7,2.78125,7,2.5C7,2.2236328,6.7763672,2,6.5,2S6,2.2236328,6,2.5   c0,0.7070312,0.3735352,1.0805664,0.6464844,1.3535156C6.8916016,4.0986328,7,4.21875,7,4.5   S6.8916016,4.9013672,6.6464844,5.1464844C6.3735352,5.4194336,6,5.7929688,6,6.5z" fill="#303C42"/>
<path d="M15,6.5C15,6.7763672,15.2236328,7,15.5,7S16,6.7763672,16,6.5   c0-0.28125,0.1083984-0.4013672,0.3535156-0.6464844C16.6264648,5.5805664,17,5.2070312,17,4.5   s-0.3735352-1.0805664-0.6464844-1.3535156C16.1083984,2.9013672,16,2.78125,16,2.5C16,2.2236328,15.7763672,2,15.5,2   S15,2.2236328,15,2.5c0,0.7070312,0.3735352,1.0805664,0.6464844,1.3535156C15.8916016,4.0986328,16,4.21875,16,4.5   s-0.1083984,0.4013672-0.3535156,0.6464844C15.3735352,5.4194336,15,5.7929688,15,6.5z" fill="#303C42"/>
<linearGradient gradientUnits="userSpaceOnUse" id="SVGID_1_" x1="1.827512" x2="22.7234039" y1="8.7585964" y2="18.5025101">
<stop offset="0" style="stop-color:#FFFFFF;stop-opacity:0.2"/>
<stop offset="1" style="stop-color:#FFFFFF;stop-opacity:0"/>
</linearGradient>
<path d="M24,10c0-1.2988281-1.0302734-2-2-2c-0.7636719,0-1.4140625,0.2850342-2.0060425,0.6656494   C19.9942627,8.6083984,20,8.5576172,20,8.5C20,8.2236328,19.7763672,8,19.5,8h-17C2.2236328,8,2,8.2236328,2,8.5   c0,4.9344482,1.1867676,8.4476318,3.5115967,10.5H0.5C0.2236328,19,0,19.2236328,0,19.5C0,20.878418,1.121582,22,2.5,22h17   c1.378418,0,2.5-1.121582,2.5-2.5c0-0.2763672-0.2236328-0.5-0.5-0.5h-5.0115967   c1.2545776-1.107605,2.1756592-2.6428223,2.757019-4.5985107C22.7366943,12.9025879,24,11.1044922,24,10z M19.947998,9.928772   C20.5952759,9.427063,21.2470093,9,22,9c0.371582,0,1,0.2104492,1,1c0,0.4495239-0.654541,1.8180542-3.4564819,3.1727905   C19.7520142,12.1812134,19.8883057,11.1013794,19.947998,9.928772z M10.5,6.5C10.5,6.7763672,10.7236328,7,11,7   s0.5-0.2236328,0.5-0.5c0-0.28125,0.1083984-0.4013672,0.3535156-0.6464844C12.1264648,5.5805664,12.5,5.2070312,12.5,4.5   s-0.3735352-1.0805664-0.6464844-1.3535156C11.6083984,2.9013672,11.5,2.78125,11.5,2.5C11.5,2.2236328,11.2763672,2,11,2   s-0.5,0.2236328-0.5,0.5c0,0.7070312,0.3735352,1.0805664,0.6464844,1.3535156C11.3916016,4.0986328,11.5,4.21875,11.5,4.5   s-0.1083984,0.4013672-0.3535156,0.6464844C10.8735352,5.4194336,10.5,5.7929688,10.5,6.5z M6,6.5C6,6.7763672,6.2236328,7,6.5,7   S7,6.7763672,7,6.5c0-0.28125,0.1083984-0.4013672,0.3535156-0.6464844C7.6264648,5.5805664,8,5.2070312,8,4.5   S7.6264648,3.4194336,7.3535156,3.1464844C7.1083984,2.9013672,7,2.78125,7,2.5C7,2.2236328,6.7763672,2,6.5,2S6,2.2236328,6,2.5   c0,0.7070312,0.3735352,1.0805664,0.6464844,1.3535156C6.8916016,4.0986328,7,4.21875,7,4.5   S6.8916016,4.9013672,6.6464844,5.1464844C6.3735352,5.4194336,6,5.7929688,6,6.5z M15,6.5C15,6.7763672,15.2236328,7,15.5,7   S16,6.7763672,16,6.5c0-0.28125,0.1083984-0.4013672,0.3535156-0.6464844C16.6264648,5.5805664,17,5.2070312,17,4.5   s-0.3735352-1.0805664-0.6464844-1.3535156C16.1083984,2.9013672,16,2.78125,16,2.5C16,2.2236328,15.7763672,2,15.5,2   S15,2.2236328,15,2.5c0,0.7070312,0.3735352,1.0805664,0.6464844,1.3535156C15.8916016,4.0986328,16,4.21875,16,4.5   s-0.1083984,0.4013672-0.3535156,0.6464844C15.3735352,5.4194336,15,5.7929688,15,6.5z" fill="url(#SVGID_1_)"/>
</g>
<g/>
<g/>
<g/>
<g/>
<g/>
<g/>
<g/>
<g/>
<g/>
<g/>
<g/>
<g/>
<g/>
<g/>
<g/>
</svg>