<?xml version="1.0" encoding="iso-8859-1"?>
<!-- Generator: Adobe Illustrator 19.0.0, SVG Export Plug-In . SVG Version: 6.00 Build 0)  -->
<svg version="1.1" id="Layer_1" xmlns="http://www.w3.org/2000/svg" xmlns:xlink="http://www.w3.org/1999/xlink" x="0px" y="0px"
	 viewBox="0 0 511.999 511.999" style="enable-background:new 0 0 511.999 511.999;" xml:space="preserve">
<path style="fill:#F7EFD0;" d="M137.442,430.792c-2.708,0-5.343-1.405-6.794-3.919l-96.39-166.955c-1.4-2.424-1.4-5.413,0-7.837
	l96.391-166.954c2.164-3.749,6.956-5.032,10.705-2.868c3.748,2.164,5.032,6.957,2.868,10.705L50.094,255.999l94.129,163.036
	c2.164,3.748,0.88,8.541-2.868,10.705C140.119,430.453,138.772,430.792,137.442,430.792z"/>
<path style="fill:#EDD7BE;" d="M5.491,292.897c-2.045,0.002-3.921-1.144-4.867-2.975c-0.948-1.832-0.806-4.041,0.362-5.733
	L20.75,255.55L1.007,227.363c-1.185-1.694-1.334-3.909-0.39-5.748c0.941-1.841,2.824-2.996,4.876-2.996h86.772
	c1.785,0,3.457,0.874,4.487,2.345l21.966,31.363c1.336,1.904,1.345,4.452,0.021,6.369L96.77,290.525
	c-1.026,1.486-2.708,2.374-4.505,2.374L5.491,292.897z"/>
<path style="fill:#603813;" d="M466.963,263.597H58.747c-4.328,0-7.837-3.508-7.837-7.837c0-4.329,3.509-7.837,7.837-7.837h408.216
	c4.328,0,7.837,3.508,7.837,7.837C474.8,260.089,471.291,263.597,466.963,263.597z"/>
<path style="fill:#FF8163;" d="M489.831,255.758c0,1.405-0.554,2.751-1.538,3.744l-36.217,36.522
	c-5.116,5.164-11.917,8.009-19.154,8.009c-7.232,0-14.035-2.845-19.15-8.009c-5.118-5.161-7.935-12.027-7.935-19.33
	s2.817-14.168,7.935-19.329l1.589-1.607l-1.589-1.605c-5.118-5.162-7.935-12.027-7.935-19.33c0-7.303,2.817-14.166,7.935-19.332
	c5.115-5.161,11.917-8.007,19.15-8.007c7.236,0,14.039,2.846,19.154,8.007l36.217,36.524
	C489.277,253.007,489.831,254.356,489.831,255.758z"/>
<path style="opacity:0.1;enable-background:new    ;" d="M436.409,296.024c-5.118-5.161-7.935-12.027-7.935-19.33
	s2.817-14.168,7.935-19.329l1.589-1.607l-1.589-1.605c-5.118-5.162-7.935-12.027-7.935-19.33c0-7.303,2.817-14.166,7.935-19.332
	c2.306-2.327,4.957-4.179,7.834-5.515c-3.505-1.629-7.346-2.492-11.32-2.492c-7.232,0-14.035,2.846-19.15,8.007
	c-5.118,5.166-7.935,12.029-7.935,19.332s2.817,14.168,7.935,19.33l1.589,1.605l-1.589,1.607
	c-5.118,5.161-7.935,12.026-7.935,19.329c0,7.303,2.817,14.169,7.935,19.33c5.115,5.164,11.917,8.009,19.15,8.009
	c3.974,0,7.815-0.863,11.32-2.493C441.366,300.204,438.715,298.354,436.409,296.024z"/>
<path style="fill:#EED063;" d="M196.764,66.288h-3.336c1.154-4.108,1.784-8.437,1.784-12.917c0-26.125-20.982-47.304-46.866-47.304
	S101.48,27.246,101.48,53.371c0,26.124,20.982,47.303,46.866,47.303c1.672,0,48.417-0.038,48.417-0.038
	c58.168,0,105.493,47.766,105.493,106.475v99.608c0,58.71-47.325,106.473-105.493,106.473c0,0-43.892-1.868-48.417-1.868
	c-25.884,0-46.866,21.178-46.866,47.304c0,26.124,20.982,47.305,46.866,47.305c25.883,0,46.866-21.181,46.866-47.305
	c0-3.82-0.461-7.529-1.307-11.085h2.86c76.932,0,139.522-63.176,139.522-140.824v-99.608
	C336.286,129.461,273.698,66.288,196.764,66.288z"/>
<path style="fill:#FFC529;" d="M344.796,317.02c0,9.485-7.616,17.174-17.017,17.174h-22.12c-9.398,0-17.014-7.69-17.014-17.174
	V196.805c0-9.483,7.616-17.173,17.014-17.173h22.12c9.4,0,17.017,7.69,17.017,17.173V317.02z"/>
<rect x="288.649" y="219.893" style="fill:#F9EEB7;" width="56.151" height="72.215"/>
<path style="opacity:0.1;enable-background:new    ;" d="M310.88,317.02V196.805c0-9.464,7.586-17.138,16.957-17.17
	c-0.02,0-0.039-0.003-0.059-0.003h-22.12c-9.398,0-17.014,7.69-17.014,17.173V317.02c0,9.485,7.616,17.174,17.014,17.174h22.12
	c0.02,0,0.039-0.003,0.059-0.003C318.466,334.16,310.88,326.485,310.88,317.02z"/>
<g>
	<path style="fill:#F9EEB7;" d="M148.347,68.196c-8.1,0-14.689-6.65-14.689-14.826s6.589-14.826,14.689-14.826
		c8.098,0,14.688,6.65,14.688,14.826S156.446,68.196,148.347,68.196z"/>
	<path style="fill:#F9EEB7;" d="M148.347,473.453c-8.1,0-14.689-6.651-14.689-14.826c0-8.174,6.589-14.825,14.689-14.825
		c8.098,0,14.688,6.65,14.688,14.825S156.446,473.453,148.347,473.453z"/>
</g>
<path style="fill:#FF8163;" d="M399.582,131.006c-1.005,0-1.971-0.404-2.679-1.12l-26.144-26.445
	c-5.5-5.557-7.22-14.08-4.337-21.348c2.928-7.38,10.222-12.413,18.173-12.416c5.229,0.002,10.142,2.059,13.84,5.795l1.147,1.16
	l1.15-1.16c3.694-3.737,8.611-5.793,13.838-5.795c7.951,0.003,15.246,5.035,18.173,12.416c2.882,7.266,1.162,15.79-4.335,21.348
	l-26.145,26.445C401.554,130.604,400.589,131.006,399.582,131.006z"/>
<g>
	<path style="fill:#FFAA99;" d="M480.073,180.296c-0.865-0.002-1.696-0.348-2.306-0.968l-22.5-22.755
		c-4.774-4.831-6.241-12.266-3.657-18.552c2.572-6.255,8.788-10.504,15.566-10.504c4.5,0,8.727,1.772,11.909,4.985l0.99,1.001
		l0.99-0.999c3.179-3.215,7.408-4.987,11.908-4.987c6.771,0.003,13.004,4.243,15.564,10.504c2.573,6.291,1.123,13.714-3.657,18.549
		l-22.498,22.756C481.766,179.948,480.937,180.294,480.073,180.296C479.207,180.294,480.937,180.294,480.073,180.296z"/>
	<path style="fill:#FFAA99;" d="M489.472,81.339c-0.656,0.001-1.286-0.266-1.75-0.734l-17.054-17.247
		c-3.621-3.661-4.728-9.298-2.774-14.063c1.946-4.745,6.669-7.959,11.803-7.962c3.407,0,6.613,1.341,9.024,3.779l0.751,0.759
		l0.749-0.755c2.41-2.442,5.615-3.783,9.026-3.783c5.135,0.003,9.856,3.217,11.799,7.962c1.952,4.764,0.847,10.402-2.773,14.063
		l-17.055,17.247C490.755,81.073,490.124,81.339,489.472,81.339C488.816,81.34,490.124,81.339,489.472,81.339z"/>
</g>
<path style="opacity:0.1;enable-background:new    ;" d="M27.728,292.897c-2.045,0.002-3.922-1.144-4.867-2.975
	c-0.949-1.832-0.807-4.041,0.362-5.733l19.765-28.638l-19.744-28.188c-1.185-1.694-1.334-3.909-0.391-5.748
	c0.941-1.841,2.825-2.996,4.877-2.996H5.491c-2.051,0-3.934,1.155-4.876,2.996c-0.944,1.839-0.794,4.054,0.39,5.748L20.75,255.55
	L0.987,284.189c-1.168,1.693-1.309,3.902-0.362,5.733c0.946,1.831,2.822,2.977,4.867,2.975L27.728,292.897L27.728,292.897z"/>
<g>
</g>
<g>
</g>
<g>
</g>
<g>
</g>
<g>
</g>
<g>
</g>
<g>
</g>
<g>
</g>
<g>
</g>
<g>
</g>
<g>
</g>
<g>
</g>
<g>
</g>
<g>
</g>
<g>
</g>
</svg>
