<?xml version="1.0" encoding="iso-8859-1"?>
<!-- Generator: Adobe Illustrator 19.0.0, SVG Export Plug-In . SVG Version: 6.00 Build 0)  -->
<svg version="1.1" id="Capa_1" xmlns="http://www.w3.org/2000/svg" xmlns:xlink="http://www.w3.org/1999/xlink" x="0px" y="0px"
	 viewBox="0 0 512 512" style="enable-background:new 0 0 512 512;" xml:space="preserve">
<path style="fill:#A4D9F5;" d="M512,65.596c0-12.621-3.665-25.169-10.862-36.076c-12.167-18.485-32.646-29.508-54.781-29.508
	c-36.193,0-63.727,27.504-63.727,63.697v34.303c0,8.297,6.714,15.011,15.011,15.011c8.297,0,15.011-6.714,15.011-15.011V63.708
	c0-19.628,14.076-33.675,33.705-33.675c12.182,0,23.015,5.834,29.728,16.008c6.685,10.158,7.77,22.399,2.99,33.613l-31.536,76.128
	c-3.313,7.505,0.234,16.433,7.887,19.702c7.622,3.269,16.448-0.264,19.702-7.887l31.536-76.114
	C510.241,83.157,512,74.362,512,65.596z"/>
<path style="fill:#B7E0F6;" d="M178.62,459.414c0-1.979-0.381-3.987-1.217-5.907c-3.269-7.623-12.094-11.155-19.702-7.887
	l-78.043,33.452c-11.199,4.793-23.469,3.694-33.642-3.005c-10.159-6.714-15.994-17.547-15.994-29.729
	c0-19.628,15.964-35.592,35.592-35.592h34.302c8.297,0,15.011-6.714,15.011-15.011c0-8.297-6.714-15.011-15.011-15.011H65.613
	C29.435,380.725,0,410.161,0,446.339c0,22.12,11.024,42.599,29.494,54.781s41.632,14.263,61.979,5.541l78.044-33.452
	C175.22,470.775,178.62,465.234,178.62,459.414z"/>
<path style="fill:#15B7BE;" d="M313.693,120.194c9.215-4.214-11.518-39.712-3.065-45.516c8.519-5.851,16.166-11.955,21.518-17.302
	c-3.003,3.003,9.428-9.428,12.431-12.431c5.863-5.863,15.363-5.863,21.226,0c-4.35-4.35,124.672,124.239,127.79,127.358
	c2.818,2.82,4.398,6.861,4.398,10.841c0-3.023,0,36.005,0,39.028c0,12.272-2.136,22.762-4.66,35.219
	c-2.249,11.093-35.223-7.834-39.26,3.194L313.693,120.194z"/>
<path style="fill:#1BD9DE;" d="M174.223,490.972c4.348,4.35-124.254-123.972-127.372-127.09c-5.863-5.863-5.863-15.363,0-21.226
	c-3.003,3.003,9.428-9.428,12.431-12.431c5.428-5.424,11.513-13.05,17.322-21.509c5.821-8.476,41.313,12.253,45.513,3.06
	l140.366,140.38c-11.027,4.037,7.9,37.011-3.194,39.258c-12.449,2.522-24.882,3.954-37.146,3.954c3.023,0-34.284,0-37.307,0
	C180.856,495.369,177.041,493.792,174.223,490.972z"/>
<path style="fill:#1DE8F1;" d="M259.417,491.267c55.84-11.108,108.378-44.732,148.607-84.962
	c39.928-39.93,73.852-92.167,85.261-148.909L310.754,74.565c-14.409,9.908-38.427,23.416-55.539,23.416
	c-30.921,0-61.243,12.61-83.161,34.526l-18.914,18.914l-18.912,18.914c-22.218,22.216-34.225,51.636-34.225,83.159
	c0,17.112-13.811,41.132-23.418,55.241L259.417,491.267z"/>
<g>
	<path style="fill:#1BD9DE;" d="M408.025,406.305c39.928-39.93,73.852-92.167,85.261-148.909L310.754,74.565
		c-14.409,9.908-38.427,23.416-55.539,23.416c-30.921,0-61.243,12.61-83.161,34.526l-18.914,18.914L408.025,406.305z"/>
	<path style="fill:#1BD9DE;" d="M189.166,242.687l27.621-27.619l27.92-27.619c3.001-3.003,4.202-6.906,4.202-10.809
		s-1.2-7.505-4.202-10.507c-6.004-6.004-15.311-6.004-21.316,0l-27.619,27.92l-27.621,27.321c-6.003,6.003-6.003,15.61,0,21.314
		C173.855,248.691,183.462,248.691,189.166,242.687z"/>
</g>
<path style="fill:#15B7BE;" d="M216.787,215.067l27.92-27.619c3.001-3.003,4.202-6.906,4.202-10.809s-1.2-7.505-4.202-10.507
	c-6.004-6.004-15.311-6.004-21.316,0l-27.619,27.92L216.787,215.067z"/>
<g>
</g>
<g>
</g>
<g>
</g>
<g>
</g>
<g>
</g>
<g>
</g>
<g>
</g>
<g>
</g>
<g>
</g>
<g>
</g>
<g>
</g>
<g>
</g>
<g>
</g>
<g>
</g>
<g>
</g>
</svg>
