<?xml version="1.0" encoding="iso-8859-1"?>
<!-- Uploaded to: SVG Repo, www.svgrepo.com, Generator: SVG Repo Mixer Tools -->
<svg version="1.1" id="Layer_1" xmlns="http://www.w3.org/2000/svg" xmlns:xlink="http://www.w3.org/1999/xlink" 
	 viewBox="0 0 512 512" xml:space="preserve">
<path style="fill:#B3B3B3;" d="M372.611,4.345v10.487h-11.502v11.78h11.502v66.852l-13.593,6.516
	c-2.044,0.98-3.344,3.045-3.344,5.312v66.978h11.78v-63.271l5.157-2.471v65.741h11.78v-69.207v-5.89V4.345H372.611z"/>
<g>
	<rect x="377.635" y="286.986" style="fill:#666666;" width="32.695" height="10.602"/>
	<rect x="406.378" y="252.4" style="fill:#666666;" width="10.602" height="78.633"/>
</g>
<path style="fill:#F9C573;" d="M165.982,4.178c-0.426,74.457-26.438,111.714-61.622,143.477l-21.369,22.931l-20.234-21.71
	l-1.136-1.22C26.438,115.892,0.426,78.635,0,4.178c10.293,13.418,26.495,22.079,44.697,22.079c14.795,0,28.256-5.707,38.294-15.05
	c5.808,5.409,12.765,9.598,20.461,12.154c5.609,1.874,11.6,2.897,17.834,2.897C139.487,26.257,155.688,17.595,165.982,4.178z"/>
<path style="fill:#F9D095;" d="M103.452,23.361L62.757,148.876l-1.136-1.22C26.438,115.892,0.426,78.635,0,4.178
	c10.293,13.418,26.495,22.079,44.697,22.079c14.795,0,28.256-5.707,38.294-15.05C88.798,16.616,95.756,20.804,103.452,23.361z"/>
<path style="fill:#666666;" d="M335.897,400.878v106.94H79.09v-106.94c0-40.229,32.619-72.848,72.86-72.848h111.098
	C303.276,328.029,335.897,360.649,335.897,400.878z"/>
<path style="fill:#5E86B7;" d="M260.788,307.45v62.028c0,28.707-23.275,51.982-51.982,51.982c-28.715,0-51.982-23.275-51.982-51.982
	v-53.782"/>
<path style="fill:#4D4D4D;" d="M196.835,328.026h-44.889c-40.236,0-72.855,32.618-72.855,72.855v106.941h44.889V400.881
	C123.981,360.644,156.599,328.026,196.835,328.026z"/>
<g>
	<path style="fill:#5E86B7;" d="M335.898,396.632v57.016c-24.939-8.14-42.938-31.582-42.938-59.219
		c0-18.436,8.01-35.01,20.757-46.414l0.2-0.224C327.405,359.749,335.898,377.195,335.898,396.632z"/>
	<path style="fill:#5E86B7;" d="M101.274,348.016c12.746,11.403,20.757,27.978,20.757,46.414c0,27.636-18,51.079-42.938,59.219
		v-57.016c0-19.437,8.493-36.883,21.982-48.84L101.274,348.016z"/>
</g>
<path style="fill:#666666;" d="M167.732,347.244l-48.356-35.133c-25.553-18.565-39.377-49.267-36.339-80.707l8.387-86.793
	c5.777-59.778,56.011-105.392,116.067-105.392l0,0c60.056,0,110.29,45.614,116.067,105.392l8.387,86.793
	c3.038,31.44-10.785,62.14-36.339,80.707l-48.356,35.133C223.542,364.469,191.44,364.469,167.732,347.244z"/>
<path style="fill:#4D4D4D;" d="M113.129,248.51c-0.813,13.747,3.664,27.271,12.522,37.814l50.54,62.105
	c2.639,3.145,5.631,5.784,8.87,7.893c-6.079-2.12-11.921-5.16-17.329-9.082l-48.357-35.128
	c-25.551-18.565-39.369-49.264-36.33-80.706l8.376-86.796c5.725-59.195,55.037-104.501,114.326-105.361
	c-36.518,0.884-77.87,35.305-80.026,71.965L113.129,248.51z"/>
<g>
	<path style="fill:#E0B394;" d="M175.464,191.33c-11.751-11.751-30.803-11.751-42.554,0c-11.751,11.751-15.916,34.968-4.165,46.719
		c11.751,11.751,34.968,7.586,46.719-4.165C187.214,222.132,187.214,203.08,175.464,191.33z"/>
	<circle style="fill:#E0B394;" cx="207.495" cy="295.551" r="34.795"/>
	<path style="fill:#E0B394;" d="M286.237,238.048c11.751-11.751,7.586-34.968-4.165-46.719c-11.751-11.751-30.803-11.751-42.554,0
		c-11.751,11.751-11.751,30.803,0,42.554C251.268,245.633,274.486,249.799,286.237,238.048z"/>
</g>
<g>
	<path style="fill:#4D4D4D;" d="M155.049,228.093c-4.88,0-8.835-3.956-8.835-8.835v-12.569c0-4.879,3.955-8.835,8.835-8.835
		s8.835,3.956,8.835,8.835v12.569C163.884,224.138,159.929,228.093,155.049,228.093z"/>
	<path style="fill:#4D4D4D;" d="M259.933,228.093c-4.88,0-8.835-3.956-8.835-8.835v-12.569c0-4.879,3.955-8.835,8.835-8.835
		c4.881,0,8.835,3.956,8.835,8.835v12.569C268.768,224.138,264.812,228.093,259.933,228.093z"/>
</g>
<path style="fill:#C49270;" d="M216.326,304.381h-17.67c-4.881,0-8.835-3.956-8.835-8.835c0-4.879,3.955-8.835,8.835-8.835h17.67
	c4.881,0,8.835,3.956,8.835,8.835C225.161,300.425,221.207,304.381,216.326,304.381z"/>
<g>
	<path style="fill:#4D4D4D;" d="M234.529,459.283v48.534h-17.67v-48.534c0-4.889,3.946-8.835,8.835-8.835
		C230.571,450.448,234.529,454.395,234.529,459.283z"/>
	<path style="fill:#4D4D4D;" d="M268.291,438.927v68.89h-17.67v-68.89c0-4.877,3.958-8.835,8.835-8.835
		C264.344,430.092,268.291,434.05,268.291,438.927z"/>
	<path style="fill:#4D4D4D;" d="M200.755,459.283v48.534h-17.67v-48.534c0-4.889,3.958-8.835,8.835-8.835
		S200.755,454.395,200.755,459.283z"/>
	<path style="fill:#4D4D4D;" d="M166.982,438.927v68.89h-17.67v-68.89c0-4.877,3.958-8.835,8.835-8.835
		C163.036,430.092,166.982,434.05,166.982,438.927z"/>
</g>
<g>
	<path style="fill:#666666;" d="M477.05,176.933l34.95,24.63c-24.386,40.734-68.967,68.064-119.799,68.064v-42.623
		C428.735,227.004,460.539,206.789,477.05,176.933z"/>
	<path style="fill:#666666;" d="M392.201,313.472v43.637l12.036-4.403c5.643-2.064,11.852-1.953,17.417,0.311l34.989,14.24
		l10.655-26.385l-49.726-27.401h-25.371"/>
</g>
<polygon style="fill:#F9C573;" points="363.717,352.986 377.997,398.343 369.596,415.142 379.256,489.478 438.053,475.619 
	391.015,352.986 "/>
<polygon style="fill:#EA8249;" points="386.351,169.235 386.351,215.24 395.146,228.771 395.146,358.876 363.717,358.876 
	352.523,347.682 352.523,169.235 "/>
<path style="fill:#F9C573;" d="M373.497,331.44c-3.578,0-6.479-2.9-6.479-6.479v-18.856c0-3.579,2.901-6.479,6.479-6.479
	s6.479,2.9,6.479,6.479v18.856C379.976,328.54,377.074,331.44,373.497,331.44z"/>
</svg>