<?xml version="1.0" encoding="iso-8859-1"?>
<!-- Generator: Adobe Illustrator 19.0.0, SVG Export Plug-In . SVG Version: 6.00 Build 0)  -->
<svg version="1.1" id="Layer_1" xmlns="http://www.w3.org/2000/svg" xmlns:xlink="http://www.w3.org/1999/xlink" x="0px" y="0px"
	 viewBox="0 0 392.598 392.598" style="enable-background:new 0 0 392.598 392.598;" xml:space="preserve">
<path style="fill:#56ACE0;" d="M274.586,215.328c6.465-6.465,11.313-13.899,14.481-21.915H101.85L80.129,215.07
	c-6.4,6.4-6.4,16.743,0,23.079l74.214,74.214c6.206,6.206,16.937,6.206,23.079,0"/>
<path style="fill:#FFC10D;" d="M318.158,276.29c0,14.545,11.83,26.376,26.376,26.376c14.545,0,26.376-11.83,26.376-26.376
	c0-9.503-13.446-34.004-26.376-54.044C331.539,242.286,318.158,266.787,318.158,276.29z"/>
<g>
	<path style="fill:#194F82;" d="M353.39,196.387c-2.004-2.909-5.43-4.655-8.986-4.655s-6.853,1.681-8.986,4.655
		c-6.594,9.374-39.176,57.018-39.176,79.903c0,26.505,21.527,48.162,48.162,48.162c26.634,0,48.162-21.527,48.162-48.162
		C392.566,253.405,359.855,205.761,353.39,196.387z M344.404,302.601c-14.545,0-26.376-11.83-26.376-26.376
		c0-9.503,13.446-34.004,26.376-54.044c12.929,20.105,26.376,44.541,26.376,54.044C370.78,290.836,358.949,302.601,344.404,302.601z
		"/>
	<path style="fill:#194F82;" d="M311.758,143.571l17.907-17.907c13.705-13.511,12.412-34.78,0.129-47.386l59.604-59.604
		c4.267-4.267,4.267-11.119,0-15.451c-4.267-4.267-11.119-4.267-15.451,0l-59.604,59.604c-13.123-12.994-34.392-12.929-47.451,0.129
		L249.05,80.799c-28.574-8.275-60.509-3.879-87.273,21.786l-96.97,97.164c-14.933,14.933-14.933,39.111,0,53.915l29.349,29.35
		l-39.564,39.564l-35.943-35.943c-4.267-4.267-11.119-4.267-15.451,0c-4.267,4.267-4.267,11.119,0,15.451l87.337,87.337
		c4.59,4.396,11.83,4.008,15.451,0c4.267-4.267,4.267-11.119,0-15.451l-35.943-35.943l39.564-39.564l29.349,29.349
		c13.834,13.705,38.271,15.774,53.915,0l97.164-97.099C313.568,207.248,320.808,173.373,311.758,143.571z M274.586,215.328
		l-33.616,33.616l-27.992-27.927c-4.267-4.267-11.119-4.267-15.451,0c-4.267,4.267-4.267,11.119,0,15.451l27.992,27.992
		l-15.451,15.451l-15.903-15.903c-4.267-4.267-11.119-4.267-15.451,0c-4.267,4.267-4.267,11.119,0,15.451l15.903,15.903
		l-17.261,17.261c-6.206,6.206-16.937,6.206-23.079,0l-74.214-74.214c-6.4-6.4-6.4-16.743,0-23.079l21.721-21.721h187.151
		C285.834,201.429,281.051,208.928,274.586,215.328z M123.766,171.627l53.527-53.527c28.251-26.182,66.133-25.471,92.638,0
		l4.719,4.719c13.446,13.446,19.717,31.289,19.006,48.937L123.766,171.627z M270.19,90.625l12.218-12.218
		c4.655-4.655,12.154-4.655,16.743,0l15.063,15.063c4.59,5.43,4.719,10.99,0,16.743l-12.218,12.218
		C298.311,113.252,270.19,90.625,270.19,90.625z"/>
</g>
<path style="fill:#FFC10D;" d="M270.19,90.625c0,0,28.121,22.691,31.806,31.806l12.218-12.218c4.719-5.818,4.59-11.378,0-16.743
	l-15.063-15.063c-4.655-4.655-12.154-4.655-16.743,0L270.19,90.625z"/>
<path style="fill:#FFFFFF;" d="M269.931,118.035c-26.505-25.471-64.388-26.182-92.638,0l-53.527,53.527h169.891
	c0.711-17.648-5.624-35.491-19.006-48.937L269.931,118.035z"/>
<g>
</g>
<g>
</g>
<g>
</g>
<g>
</g>
<g>
</g>
<g>
</g>
<g>
</g>
<g>
</g>
<g>
</g>
<g>
</g>
<g>
</g>
<g>
</g>
<g>
</g>
<g>
</g>
<g>
</g>
</svg>
