<svg height="512pt" viewBox="-5 0 511 512" width="512pt" xmlns="http://www.w3.org/2000/svg"><path d="m160.644531 387.925781v26.078125c0 54.035156 43.964844 97.996094 98 97.996094h82.542969c54.035156 0 97.996094-43.960938 97.996094-97.996094v-59.070312l-20.398438-.101563v59.171875c0 42.785156-34.808594 77.597656-77.597656 77.597656h-82.542969c-42.789062 0-77.601562-34.8125-77.601562-77.597656v-45.300781h-20.398438zm-131.757812-256.015625-.074219-22.15625v-38.503906c0-15.277344 12.429688-27.707031 27.707031-27.707031h32.03125v-20.398438h-32.03125c-26.523437 0-48.101562 21.578125-48.101562 48.105469v67.121094zm305.191406 6.460938v-67.121094c0-26.527344-21.578125-48.105469-48.105469-48.105469h-32.03125v20.398438h32.03125c15.277344 0 27.707032 12.429687 27.707032 27.707031v38.503906l-.074219 22.15625zm0 0" fill="#3c3d3d"/><path d="m105.226562 66.6875h-9.859374c-7.78125 0-14.089844-6.308594-14.089844-14.089844v-38.507812c0-7.78125 6.308594-14.089844 14.089844-14.089844h9.859374c18.417969 0 33.347657 14.929688 33.347657 33.34375 0 18.417969-14.929688 33.34375-33.347657 33.34375zm0 0" fill="#5b9ed6"/><path d="m105.246094 52.597656v-38.507812c0-5.824219 3.53125-10.820313 8.570312-12.96875-2.738281-.726563-5.617187-1.121094-8.589844-1.121094h-9.859374c-7.78125 0-14.089844 6.308594-14.089844 14.089844v38.507812c0 7.78125 6.308594 14.089844 14.089844 14.089844h9.859374c2.972657 0 5.851563-.394531 8.589844-1.121094-5.039062-2.148437-8.570312-7.144531-8.570312-12.96875zm0 0" fill="#487ca8"/><path d="m237.265625 66.6875h9.863281c7.78125 0 14.089844-6.308594 14.089844-14.089844v-38.507812c0-7.78125-6.308594-14.089844-14.089844-14.089844h-9.863281c-18.414063 0-33.34375 14.929688-33.34375 33.34375 0 18.417969 14.929687 33.34375 33.34375 33.34375zm0 0" fill="#5b9ed6"/><path d="m247.128906 0h-9.863281c-3.085937 0-6.074219.429688-8.910156 1.214844 4.9375 2.191406 8.382812 7.125 8.382812 12.875v38.507812c0 5.75-3.445312 10.6875-8.382812 12.878906 2.835937.785157 5.824219 1.210938 8.910156 1.210938h9.863281c7.78125 0 14.089844-6.308594 14.089844-14.089844v-38.507812c0-7.78125-6.308594-14.089844-14.089844-14.089844zm0 0" fill="#487ca8"/><path d="m414.757812 219.730469c-33.261718 6.796875-58.304687 36.1875-58.304687 71.457031 0 40.273438 32.648437 72.925781 72.921875 72.925781 40.277344 0 72.925781-32.652343 72.925781-72.925781 0-35.269531-25.035156-64.6875-58.304687-71.457031 0 0-14.789063-2.953125-29.238282 0zm0 0" fill="#bdbdbd"/><path d="m443.996094 219.730469c-8.894532-1.734375-18.640625-1.734375-29.238282 0-1.785156.363281-3.539062.804687-5.269531 1.292969 30.605469 8.660156 53.035157 36.785156 53.035157 70.164062 0 33.375-22.433594 61.496094-53.035157 70.15625 6.324219 1.789062 12.988281 2.769531 19.886719 2.769531 40.273438 0 72.925781-32.652343 72.925781-72.925781 0-35.269531-25.035156-64.6875-58.304687-71.457031zm0 0" fill="#949494"/><path d="m454.207031 291.1875c0 13.710938-11.117187 24.828125-24.832031 24.828125-13.710938 0-24.828125-11.117187-24.828125-24.828125 0-13.714844 11.117187-24.828125 24.828125-24.828125 13.714844 0 24.832031 11.113281 24.832031 24.828125zm0 0" fill="#636363"/><path d="m186.140625 278.195312h32.824219c36.199218 0 66.867187-27.089843 71.335937-63.011718l9.714844-78.074219c1.40625-11.324219 11.726563-19.359375 23.058594-17.953125 11.324219 1.410156 19.363281 11.730469 17.953125 23.058594l-9.714844 78.074218c-7.039062 56.574219-55.335938 99.234376-112.347656 99.234376h-27.457032v39.28125c0 11.410156-9.25 20.660156-20.664062 20.660156-11.410156 0-20.664062-9.25-20.664062-20.660156v-39.28125h-27.457032c-57.011718 0-105.308594-42.660157-112.347656-99.234376l-9.714844-78.074218c-1.410156-11.328125 6.628906-21.648438 17.957032-23.058594 11.324218-1.410156 21.644531 6.628906 23.054687 17.953125l9.714844 78.074219c4.46875 35.921875 35.136719 63.011718 71.335937 63.011718zm0 0" fill="#bdbdbd"/></svg>