<?xml version="1.0" ?>
<!-- Uploaded to: SVG Repo, www.svgrepo.com, Generator: SVG Repo Mixer Tools -->
<svg width="800px" height="800px" viewBox="0 0 24 24" enable-background="new 0 0 24 24" id="Layer_1" version="1.1" xml:space="preserve" xmlns="http://www.w3.org/2000/svg" xmlns:xlink="http://www.w3.org/1999/xlink">
<g>
<path d="M21.366333,2.6362305C19.6661377,0.9360352,17.4063721,0,15.0020752,0   s-4.6640625,0.9360352-6.3642578,2.6362305C7.5983887,3.6761475,6.8423462,4.9702759,6.4124756,6.383728   C2.7087402,7.4990845,0.0020752,10.9378662,0.0020752,15c0,4.9624023,4.0371094,9,9,9   c4.0626221,0,7.5012817-2.7071533,8.616394-6.4108887c1.413147-0.4286499,2.7076416-1.1851196,3.7478638-2.2253418   C24.8751221,11.8549805,24.8751221,6.1450195,21.366333,2.6362305z" fill="#303C42"/>
<circle cx="9.0020752" cy="15" fill="#DFE1DF" r="8"/>
<path d="M13.8505249,8.6515503c1.031311,1.3471069,1.6515503,3.0247803,1.6515503,4.8484497   c0,4.4111328-3.5888672,8-8,8c-1.8236694,0-3.5013428-0.6202393-4.8484497-1.6515503   C4.1168823,21.7597046,6.4146118,23,9.0020752,23c4.4111328,0,8-3.5888672,8-8   C17.0020752,12.4125366,15.7617798,10.1148071,13.8505249,8.6515503z" opacity="0.1"/>
<path d="M14.9926758,8.3023071l3.5445557-3.5449829c0.1943359-0.1948242,0.5117188-0.1953125,0.7080078-0.0004883   c0.1943264,0.1953125,0.1943264,0.5126953,0,0.7075195l-3.5454712,3.5450439   C15.4770508,8.7607422,15.241333,8.5250244,14.9926758,8.3023071z" fill="#D7D8D6"/>
<path d="M17.8743286,16.4492188C17.951416,15.9762573,18.0020752,15.4944458,18.0020752,15   c0-1.9406128-0.6236572-3.7349243-1.6723633-5.206543l3.6225586-3.6220703c0.5839844-0.5844727,0.5839844-1.5356445,0-2.1210938   c-0.5869141-0.5859375-1.5371094-0.5849609-2.1220703,0l-3.621582,3.6220093C12.7371216,6.6235962,10.9428101,6,9.0020752,6   c-0.4942017,0-0.975769,0.0505981-1.4485474,0.1276245c0.4000854-1.0424805,1.00354-1.9961548,1.7913208-2.7843628   C10.8555908,1.8320312,12.8653564,1,15.0020752,1s4.1464844,0.8320312,5.6572266,2.3432617   c3.1191406,3.1191406,3.1191406,8.1943359,0,11.3134766C19.8706665,15.4450073,18.9165649,16.0490723,17.8743286,16.4492188z" fill="#DFE1DF"/>
<path d="M22.3581543,5.868103c0.3416138,2.4074707-0.4024658,4.9407959-2.2503052,6.7886353   c-0.6242676,0.6239624-1.3548584,1.1273193-2.1481323,1.5106812C17.9852905,14.4418945,18.0020752,14.7188721,18.0020752,15   c0,0.4944458-0.0506592,0.9762573-0.1277466,1.4492188c1.0422363-0.4001465,1.9963379-1.0042114,2.7849731-1.7924805   C23.0316162,12.2844238,23.5944824,8.7822876,22.3581543,5.868103z" opacity="0.1"/>
<path d="M9.0020752,8c-0.8271484,0-1.5,0.6728516-1.5,1.5v11c0,0.8271484,0.6728516,1.5,1.5,1.5   s1.5-0.6728516,1.5-1.5v-11C10.5020752,8.6728516,9.8292236,8,9.0020752,8z" fill="#303C42"/>
<path d="M9.5020752,20.5c0,0.2758789-0.2246094,0.5-0.5,0.5s-0.5-0.2241211-0.5-0.5v-11   c0-0.2758789,0.2246094-0.5,0.5-0.5s0.5,0.2241211,0.5,0.5V20.5z" fill="#D7D8D6"/>
<path d="M14.9926758,8.3023071l3.5445557-3.5449829c0.1943359-0.1948242,0.5117188-0.1953125,0.7080078-0.0004883   c0.1943264,0.1953125,0.1943264,0.5126953,0,0.7075195l-3.5454712,3.5450439   C15.4770508,8.7607422,15.241333,8.5250244,14.9926758,8.3023071z" opacity="0.1"/>
<path d="M9.5020752,20.5c0,0.2758789-0.2246094,0.5-0.5,0.5s-0.5-0.2241211-0.5-0.5v-11   c0-0.2758789,0.2246094-0.5,0.5-0.5s0.5,0.2241211,0.5,0.5V20.5z" opacity="0.1"/>
<linearGradient gradientUnits="userSpaceOnUse" id="SVGID_1_" x1="2.5324223" x2="21.4756603" y1="7.5813003" y2="16.4146767">
<stop offset="0" style="stop-color:#FFFFFF;stop-opacity:0.2"/>
<stop offset="1" style="stop-color:#FFFFFF;stop-opacity:0"/>
</linearGradient>
<path d="M21.366333,2.6362305C19.6661377,0.9360352,17.4063721,0,15.0020752,0   s-4.6640625,0.9360352-6.3642578,2.6362305C7.5983887,3.6761475,6.8423462,4.9702759,6.4124756,6.383728   C2.7087402,7.4990845,0.0020752,10.9378662,0.0020752,15c0,4.9624023,4.0371094,9,9,9   c4.0626221,0,7.5012817-2.7071533,8.616394-6.4108887c1.413147-0.4286499,2.7076416-1.1851196,3.7478638-2.2253418   C24.8751221,11.8549805,24.8751221,6.1450195,21.366333,2.6362305z" fill="url(#SVGID_1_)"/>
</g>
<g/>
<g/>
<g/>
<g/>
<g/>
<g/>
<g/>
<g/>
<g/>
<g/>
<g/>
<g/>
<g/>
<g/>
<g/>
</svg>