<?xml version="1.0" encoding="iso-8859-1"?>
<!-- Generator: Adobe Illustrator 19.0.0, SVG Export Plug-In . SVG Version: 6.00 Build 0)  -->
<svg version="1.1" id="Layer_1" xmlns="http://www.w3.org/2000/svg" xmlns:xlink="http://www.w3.org/1999/xlink" x="0px" y="0px"
	 viewBox="0 0 512 512" style="enable-background:new 0 0 512 512;" xml:space="preserve">
<polygon style="fill:#58422C;" points="0,146.657 128.592,322.871 146.451,322.871 146.451,199.42 "/>
<polygon style="opacity:0.3;fill:#20272E;enable-background:new    ;" points="146.451,322.871 146.451,264.659 0,146.657 
	128.592,322.871 "/>
<polygon style="fill:#58422C;" points="512,146.657 383.408,322.871 365.549,322.871 365.549,199.42 "/>
<polygon style="opacity:0.3;fill:#20272E;enable-background:new    ;" points="365.549,322.871 365.549,264.659 512,146.657 
	383.408,322.871 "/>
<polygon style="fill:#664B33;" points="397.494,122.995 397.494,389.006 453.687,466.008 341.962,425.757 398.154,502.761 
	256,451.25 113.846,502.761 170.04,425.757 58.313,466.008 114.506,389.006 114.506,122.995 58.313,45.992 170.04,86.243 
	113.846,9.24 256,60.75 398.154,9.24 341.962,86.243 453.687,45.992 "/>
<g>
	<path style="fill:#20272E;" d="M204.974,208.853c-4.156-4.869-11.658-4.869-15.814,0c-11.969,14.023-31.369,46.251-12.232,46.251
		h40.276C236.343,255.105,216.943,222.877,204.974,208.853z"/>
	<path style="fill:#20272E;" d="M307.026,208.853c4.156-4.869,11.658-4.869,15.814,0c11.969,14.023,31.369,46.251,12.232,46.251
		h-40.276C275.658,255.105,295.057,222.877,307.026,208.853z"/>
	<path style="fill:#20272E;" d="M250.618,246.059c2.829-3.314,7.935-3.314,10.764,0c8.147,9.545,21.352,31.482,8.326,31.482h-27.415
		C229.267,277.541,242.471,255.605,250.618,246.059z"/>
	<path style="fill:#20272E;" d="M294.997,284.791h-16.371v7.252c0,3.671-2.976,6.647-6.647,6.647s-6.647-2.976-6.647-6.647v-7.252
		H246.67v7.252c0,3.671-2.976,6.647-6.647,6.647c-3.671,0-6.647-2.976-6.647-6.647v-7.252h-16.371c-3.671,0-6.647,2.976-6.647,6.647
		c0,25.168,20.476,45.644,45.644,45.644s45.644-20.476,45.644-45.644C301.644,287.767,298.668,284.791,294.997,284.791z"/>
	<polygon style="opacity:0.3;fill:#20272E;enable-background:new    ;" points="397.494,389.005 397.494,122.995 453.687,45.992 
		341.962,86.243 398.154,9.239 256,60.752 252.292,59.407 252.292,452.593 256,451.25 398.154,502.761 341.962,425.757 
		453.687,466.008 	"/>
</g>
<g>
</g>
<g>
</g>
<g>
</g>
<g>
</g>
<g>
</g>
<g>
</g>
<g>
</g>
<g>
</g>
<g>
</g>
<g>
</g>
<g>
</g>
<g>
</g>
<g>
</g>
<g>
</g>
<g>
</g>
</svg>
