<?xml version="1.0" encoding="iso-8859-1"?>
<!-- Generator: Adobe Illustrator 19.0.0, SVG Export Plug-In . SVG Version: 6.00 Build 0)  -->
<svg version="1.1" id="Layer_1" xmlns="http://www.w3.org/2000/svg" xmlns:xlink="http://www.w3.org/1999/xlink" x="0px" y="0px"
	 viewBox="0 0 496 496" style="enable-background:new 0 0 496 496;" xml:space="preserve">
<path style="fill:#F2E197;" d="M389.105,144L389.105,144v-1.6c-8-13.6-21.6-23.2-38.4-24l-44-26.4c-1.6-2.4-2.4-4-10.4-4.8V40h-96
	v47.2c-8,0-8.8,1.6-11.2,4.8l-43.2,26.4c-16,0.8-30.4,11.2-38.4,24.8l-0.8,0.8l0,0c-4,8-3.2,13.6-3.2,22.4v283.2
	c0,26.4,17.6,46.4,44,46.4h199.2c26.4,0,44-20,44-46.4V166.4C392.305,157.6,393.905,152,389.105,144z"/>
<path style="fill:#DBC772;" d="M348.305,496c26.4,0,44-20,44-46.4V166.4c0-8.8,1.6-15.2-3.2-23.2l0,0l0,0c-8-13.6-21.6-23.2-38.4-24
	l-44-26.4c-1.6-3.2-2.4-4.8-10.4-5.6V40h-96v47.2c-8,0-8.8,1.6-11.2,4.8l-44,26.4"/>
<path style="fill:#C1AD56;" d="M392.305,168c0-8.8,0.8-17.6-3.2-25.6l0,0l0,0c-8-13.6-21.6-23.2-38.4-24l-44-26.4
	c-1.6-2.4-2.4-4-10.4-4.8V40h-96v47.2c-8,0-8.8,1.6-11.2,4.8l-43.2,27.2"/>
<rect x="200.305" y="40" style="fill:#190D0D;" width="96" height="48"/>
<path style="fill:#C46A27;" d="M104.305,232v217.6c0,26.4,17.6,46.4,44,46.4h199.2c26.4,0,44-20,44-46.4V232H104.305z"/>
<path style="fill:#A54C11;" d="M348.305,496c26.4,0,44-20,44-46.4V232h-288"/>
<rect x="152.305" y="192" style="fill:#D63834;" width="192" height="216"/>
<path style="fill:#3D2525;" d="M304.305,38.4c0,5.6-4,9.6-14.4,9.6h-83.2c-10.4,0-14.4-4-14.4-9.6V9.6c0-6.4,4-9.6,14.4-9.6h84
	c9.6,0,13.6,3.2,13.6,9.6V38.4z"/>
<path style="fill:#EF922E;" d="M392.305,228c0,2.4-1.6,4-4,4h-280c-2.4,0-4-1.6-4-4l0,0c0-2.4,1.6-4,4-4h280
	C390.705,224,392.305,225.6,392.305,228L392.305,228z"/>
<rect x="152.305" y="192" style="fill:#3D2525;" width="192" height="216"/>
<polyline style="fill:#190D0D;" points="152.305,192 344.305,192 344.305,408 "/>
<rect x="152.305" y="424" style="fill:#3D2525;" width="192" height="24"/>
<polyline style="fill:#190D0D;" points="152.305,424 344.305,424 344.305,448 "/>
<path style="fill:#EF9C62;" d="M128.305,435.2c0,3.2-0.8,5.6-4,5.6l0,0c-3.2,0-4-2.4-4-5.6V256c0-3.2,0.8-5.6,4-5.6l0,0
	c3.2,0,4,2.4,4,5.6V435.2z"/>
<path style="fill:#FFFFFF;" d="M128.305,216.8c0,0.8-0.8,1.6-4,1.6l0,0c-3.2,0-4-0.8-4-1.6v-65.6c0-0.8,0.8-1.6,4-1.6l0,0
	c3.2,0,4,0.8,4,1.6V216.8z"/>
<circle style="fill:#190D0D;" cx="248.305" cy="202.4" r="44"/>
<rect x="192.305" y="32" style="fill:#A54C11;" width="112" height="8"/>
<polygon style="fill:#F2E197;" points="248.305,187.2 253.105,197.6 265.105,199.2 256.305,207.2 258.705,218.4 248.305,212.8 
	237.905,218.4 240.305,207.2 231.505,199.2 243.505,197.6 "/>
<polyline style="fill:#DBC772;" points="248.305,187.2 253.105,197.6 265.105,199.2 256.305,207.2 258.705,218.4 248.305,212.8 "/>
<g>
	<circle style="fill:#E8D480;" cx="181.905" cy="212.8" r="4"/>
	<circle style="fill:#E8D480;" cx="199.505" cy="212.8" r="4"/>
	<circle style="fill:#E8D480;" cx="297.105" cy="212.8" r="4"/>
	<circle style="fill:#E8D480;" cx="314.705" cy="212.8" r="4"/>
	<circle style="fill:#E8D480;" cx="181.905" cy="385.6" r="4"/>
	<circle style="fill:#E8D480;" cx="199.505" cy="385.6" r="4"/>
	<circle style="fill:#E8D480;" cx="297.105" cy="385.6" r="4"/>
	<circle style="fill:#E8D480;" cx="314.705" cy="385.6" r="4"/>
</g>
<path style="fill:#6D4747;" d="M296.305,12c0,1.6-1.6,4-4,4h-88c-2.4,0-4-2.4-4-4l0,0c0-1.6,1.6-4,4-4h88.8
	C294.705,8,296.305,10.4,296.305,12L296.305,12z"/>
<polygon style="fill:#DBC772;" points="192.305,269.6 248.305,238.4 304.305,269.6 304.305,331.2 248.305,362.4 192.305,331.2 "/>
<polyline style="fill:#C1AD56;" points="248.305,238.4 304.305,269.6 304.305,331.2 248.305,362.4 "/>
<polygon style="fill:#190D0D;" points="256.305,300 256.305,280 240.305,280 240.305,300 208.305,284 208.305,312 248.305,334.4 
	288.305,312 288.305,284 "/>
<g>
</g>
<g>
</g>
<g>
</g>
<g>
</g>
<g>
</g>
<g>
</g>
<g>
</g>
<g>
</g>
<g>
</g>
<g>
</g>
<g>
</g>
<g>
</g>
<g>
</g>
<g>
</g>
<g>
</g>
</svg>
