<?xml version="1.0" encoding="UTF-8"?>
<!DOCTYPE svg PUBLIC "-//W3C//DTD SVG 1.1//EN" "http://www.w3.org/Graphics/SVG/1.1/DTD/svg11.dtd">
<svg xmlns="http://www.w3.org/2000/svg" version="1.1" width="512px" height="512px" style="shape-rendering:geometricPrecision; text-rendering:geometricPrecision; image-rendering:optimizeQuality; fill-rule:evenodd; clip-rule:evenodd" xmlns:xlink="http://www.w3.org/1999/xlink">
<g><path style="opacity:0.995" fill="#3c4347" d="M 255.5,33.5 C 278.5,72.8333 301.5,112.167 324.5,151.5C 328.366,159.561 332.532,167.561 337,175.5C 338.391,178.336 340.224,180.669 342.5,182.5C 349.5,195.167 356.5,207.833 363.5,220.5C 368.092,230.031 373.426,239.031 379.5,247.5C 386.833,260.167 394.167,272.833 401.5,285.5C 406.746,296.333 412.746,306.666 419.5,316.5C 449.929,369.699 480.596,422.699 511.5,475.5C 511.5,476.167 511.5,476.833 511.5,477.5C 426.167,477.5 340.833,477.5 255.5,477.5C 255.5,449.167 255.5,420.833 255.5,392.5C 257.415,392.784 259.081,392.451 260.5,391.5C 293.991,389.251 322.657,376.418 346.5,353C 361.566,337.602 373.899,320.269 383.5,301C 366.179,263.679 338.846,236.346 301.5,219C 289.606,214.201 277.273,211.368 264.5,210.5C 261.713,209.523 258.713,209.19 255.5,209.5C 255.5,150.833 255.5,92.1667 255.5,33.5 Z"/></g>
<g><path style="opacity:0.996" fill="#50595e" d="M 255.5,33.5 C 255.5,92.1667 255.5,150.833 255.5,209.5C 258.713,209.19 261.713,209.523 264.5,210.5C 261.5,210.5 258.5,210.5 255.5,210.5C 228.485,210.228 204.151,218.061 182.5,234C 158.967,252.067 140.634,274.401 127.5,301C 143.566,333.73 167.233,359.397 198.5,378C 216.43,387.066 235.43,391.566 255.5,391.5C 257.167,391.5 258.833,391.5 260.5,391.5C 259.081,392.451 257.415,392.784 255.5,392.5C 255.5,420.833 255.5,449.167 255.5,477.5C 170.167,477.5 84.8333,477.5 -0.5,477.5C -0.5,476.833 -0.5,476.167 -0.5,475.5C 30.4042,422.699 61.0708,369.699 91.5,316.5C 98.2541,306.666 104.254,296.333 109.5,285.5C 116.833,272.833 124.167,260.167 131.5,247.5C 137.574,239.031 142.908,230.031 147.5,220.5C 154.5,207.833 161.5,195.167 168.5,182.5C 170.776,180.669 172.609,178.336 174,175.5C 178.468,167.561 182.634,159.561 186.5,151.5C 209.5,112.167 232.5,72.8333 255.5,33.5 Z"/></g>
<g><path style="opacity:0.965" fill="#fcca02" d="M 186.5,151.5 C 182.634,159.561 178.468,167.561 174,175.5C 172.609,178.336 170.776,180.669 168.5,182.5C 150.977,151.291 133.31,120.124 115.5,89C 123.216,83.6319 131.216,78.6319 139.5,74C 140.5,73.3333 141.5,73.3333 142.5,74C 157.823,99.4823 172.489,125.316 186.5,151.5 Z"/></g>
<g><path style="opacity:0.967" fill="#fcb802" d="M 342.5,182.5 C 340.224,180.669 338.391,178.336 337,175.5C 332.532,167.561 328.366,159.561 324.5,151.5C 338.511,125.316 353.177,99.4823 368.5,74C 369.5,73.3333 370.5,73.3333 371.5,74C 379.784,78.6319 387.784,83.6319 395.5,89C 377.69,120.124 360.023,151.291 342.5,182.5 Z"/></g>
<g><path style="opacity:0.967" fill="#fccb02" d="M 147.5,220.5 C 142.908,230.031 137.574,239.031 131.5,247.5C 96.697,227.597 62.0303,207.431 27.5,187C 32.7076,178.084 38.041,169.25 43.5,160.5C 78.1941,180.512 112.861,200.512 147.5,220.5 Z"/></g>
<g><path style="opacity:0.969" fill="#fcb802" d="M 379.5,247.5 C 373.426,239.031 368.092,230.031 363.5,220.5C 398.139,200.512 432.806,180.512 467.5,160.5C 472.959,169.25 478.292,178.084 483.5,187C 448.97,207.431 414.303,227.597 379.5,247.5 Z"/></g>
<g><path style="opacity:1" fill="#fef6fd" d="M 255.5,210.5 C 255.5,222.167 255.5,233.833 255.5,245.5C 227.095,247.398 208.929,262.065 201,289.5C 197.479,317.963 208.313,338.796 233.5,352C 240.54,354.896 247.873,356.396 255.5,356.5C 255.5,368.167 255.5,379.833 255.5,391.5C 235.43,391.566 216.43,387.066 198.5,378C 167.233,359.397 143.566,333.73 127.5,301C 140.634,274.401 158.967,252.067 182.5,234C 204.151,218.061 228.485,210.228 255.5,210.5 Z"/></g>
<g><path style="opacity:1" fill="#f9ede4" d="M 255.5,210.5 C 258.5,210.5 261.5,210.5 264.5,210.5C 277.273,211.368 289.606,214.201 301.5,219C 338.846,236.346 366.179,263.679 383.5,301C 373.899,320.269 361.566,337.602 346.5,353C 322.657,376.418 293.991,389.251 260.5,391.5C 258.833,391.5 257.167,391.5 255.5,391.5C 255.5,379.833 255.5,368.167 255.5,356.5C 257.735,356.795 259.735,356.461 261.5,355.5C 284.493,352.682 299.993,340.348 308,318.5C 315.226,290.838 307.059,269.005 283.5,253C 276.927,249.44 269.927,247.274 262.5,246.5C 260.393,245.532 258.059,245.198 255.5,245.5C 255.5,233.833 255.5,222.167 255.5,210.5 Z"/></g>
<g><path style="opacity:1" fill="#a079fe" d="M 255.5,245.5 C 258.059,245.198 260.393,245.532 262.5,246.5C 260.167,246.5 257.833,246.5 255.5,246.5C 255.5,282.833 255.5,319.167 255.5,355.5C 257.5,355.5 259.5,355.5 261.5,355.5C 259.735,356.461 257.735,356.795 255.5,356.5C 247.873,356.396 240.54,354.896 233.5,352C 208.313,338.796 197.479,317.963 201,289.5C 208.929,262.065 227.095,247.398 255.5,245.5 Z"/></g>
<g><path style="opacity:1" fill="#7f66fe" d="M 262.5,246.5 C 269.927,247.274 276.927,249.44 283.5,253C 307.059,269.005 315.226,290.838 308,318.5C 299.993,340.348 284.493,352.682 261.5,355.5C 259.5,355.5 257.5,355.5 255.5,355.5C 255.5,319.167 255.5,282.833 255.5,246.5C 257.833,246.5 260.167,246.5 262.5,246.5 Z"/></g>
<g><path style="opacity:0.966" fill="#fcca02" d="M 109.5,285.5 C 104.254,296.333 98.2541,306.666 91.5,316.5C 61.5,316.5 31.5,316.5 1.5,316.5C 1.5,306.167 1.5,295.833 1.5,285.5C 37.5,285.5 73.5,285.5 109.5,285.5 Z"/></g>
<g><path style="opacity:0.966" fill="#fcb802" d="M 401.5,285.5 C 437.5,285.5 473.5,285.5 509.5,285.5C 509.5,295.833 509.5,306.167 509.5,316.5C 479.5,316.5 449.5,316.5 419.5,316.5C 412.746,306.666 406.746,296.333 401.5,285.5 Z"/></g>
</svg>
