<?xml version="1.0" encoding="iso-8859-1"?>
<!-- Uploaded to: SVG Repo, www.svgrepo.com, Generator: SVG Repo Mixer Tools -->
<svg height="800px" width="800px" version="1.1" id="Layer_1" xmlns="http://www.w3.org/2000/svg" xmlns:xlink="http://www.w3.org/1999/xlink" 
	 viewBox="0 0 512 512" xml:space="preserve">
<path style="fill:#615349;" d="M439.652,267.13H339.478c-9.223,0-16.696-7.473-16.696-16.696s7.473-16.696,16.696-16.696h100.174
	c9.223,0,16.696,7.473,16.696,16.696S448.875,267.13,439.652,267.13z"/>
<g>
	<path style="fill:#6E6057;" d="M439.652,300.522c-9.223,0-16.696-7.473-16.696-16.696v-66.783c0-9.223,7.473-16.696,16.696-16.696
		s16.696,7.473,16.696,16.696v66.783C456.348,293.049,448.875,300.522,439.652,300.522z"/>
	<path style="fill:#6E6057;" d="M145.821,247.098c-6.12,0-12.016-3.386-14.946-9.234l-49.299-98.592
		c-7.82-15.636-7-33.859,2.19-48.733c9.196-14.875,25.125-23.756,42.608-23.756h12.755c9.223,0,16.696,7.473,16.696,16.696
		s-7.473,16.696-16.696,16.696h-12.755c-8.402,0-12.729,5.538-14.201,7.918c-1.473,2.38-4.489,8.728-0.728,16.245l49.299,98.592
		c4.119,8.25,0.777,18.277-7.467,22.402C150.881,246.527,148.332,247.098,145.821,247.098z"/>
</g>
<path style="fill:#615349;" d="M332.788,247.098c-2.511,0-5.06-0.571-7.456-1.766c-8.244-4.125-11.587-14.152-7.467-22.402
	l49.299-98.592c3.761-7.516,0.745-13.864-0.728-16.245c-1.473-2.381-5.799-7.918-14.201-7.918h-12.755
	c-9.223,0-16.696-7.473-16.696-16.696s7.473-16.696,16.696-16.696h12.755c17.484,0,33.414,8.881,42.608,23.756
	c9.19,14.875,10.011,33.097,2.19,48.733l-49.299,98.592C344.804,243.712,338.907,247.098,332.788,247.098z"/>
<path style="fill:#6E6057;" d="M306.087,233.739H172.522c-9.223,0-16.696-7.473-16.696-16.696v-66.783
	c0-9.223,7.473-16.696,16.696-16.696h133.565c9.223,0,16.696,7.473,16.696,16.696v66.783
	C322.783,226.266,315.31,233.739,306.087,233.739z"/>
<path style="fill:#615349;" d="M306.087,133.565h-66.783v100.174h66.783c9.223,0,16.696-7.473,16.696-16.696v-66.783
	C322.783,141.038,315.31,133.565,306.087,133.565z"/>
<path style="fill:#857469;" d="M306.087,200.348H172.522c-27.619,0-50.087,22.468-50.087,50.087v51.261
	c0,9.223,7.473,16.696,16.696,16.696h200.348c9.223,0,16.696-7.473,16.696-16.696v-51.261
	C356.174,222.816,333.706,200.348,306.087,200.348z"/>
<path style="fill:#79675A;" d="M306.087,200.348h-66.783v118.044h100.174c9.223,0,16.696-7.473,16.696-16.696v-51.261
	C356.174,222.816,333.706,200.348,306.087,200.348z"/>
<path style="fill:#FFA733;" d="M239.304,133.565c-27.619,0-50.087-22.468-50.087-50.087c0-8.576,2.212-17.054,6.397-24.51
	c0.032-0.06,0.07-0.119,0.104-0.174l29.136-50.446C227.838,3.179,233.348,0,239.31,0l0,0c5.967,0,11.479,3.184,14.456,8.348
	l29.131,50.451c4.283,7.62,6.495,16.098,6.495,24.68C289.391,111.097,266.923,133.565,239.304,133.565z"/>
<path style="fill:#EE8700;" d="M253.766,8.348C250.788,3.184,245.277,0,239.31,0l-0.006,0.001v133.564
	c27.619,0,50.087-22.468,50.087-50.087c0-8.582-2.212-17.06-6.495-24.68L253.766,8.348z"/>
<path style="fill:#57A4FF;" d="M372.87,512h-267.13c-27.619,0-50.087-22.468-50.087-50.087v-44.522
	c0-82.853,67.408-150.261,150.261-150.261h66.783c82.853,0,150.261,67.408,150.261,150.261v44.522
	C422.957,489.532,400.489,512,372.87,512z"/>
<path style="fill:#2488FF;" d="M272.696,267.13h-33.391V512H372.87c27.619,0,50.087-22.468,50.087-50.087v-44.522
	C422.957,334.539,355.548,267.13,272.696,267.13z"/>
</svg>