<?xml version="1.0" encoding="iso-8859-1"?>
<!-- Generator: Adobe Illustrator 19.0.0, SVG Export Plug-In . SVG Version: 6.00 Build 0)  -->
<svg version="1.1" id="Layer_1" xmlns="http://www.w3.org/2000/svg" xmlns:xlink="http://www.w3.org/1999/xlink" x="0px" y="0px"
	 viewBox="0 0 512 512" style="enable-background:new 0 0 512 512;" xml:space="preserve">
<polygon style="fill:#F95428;" points="428.336,492.015 388.752,486.279 476.297,398.734 482.033,438.317 "/>
<path style="fill:#B27214;" d="M321.648,201.445c69.747,69.747,124.256,140.701,154.648,197.289l-87.545,87.545
	c-56.588-30.393-127.543-84.902-197.289-154.648C60.156,200.322-17.147,64.735,18.804,28.785S190.342,70.137,321.648,201.445z"/>
<path style="fill:#995C0D;" d="M405.21,469.218c-56.588-30.393-127.543-84.902-197.289-154.65
	C88.226,194.875,13.425,71.637,28.357,23.544c-3.831,1.45-7.14,3.516-9.869,6.243c-35.95,35.95,41.352,171.538,172.66,302.844
	c69.746,69.747,140.701,124.256,197.289,154.65L405.21,469.218z"/>
<path style="fill:#FFFFFF;" d="M135.782,100.43c-1.751,0-3.522-0.475-5.117-1.471C74.199,63.692,48.941,61.905,44.451,61.905
	c-0.628,0-1.072,0.027-1.332,0.052c-5.335,0.488-10.025-3.454-10.501-8.777c-0.475-5.322,3.455-10.024,8.777-10.5
	c0.95-0.085,1.978-0.128,3.055-0.128c9.753,0,38.675,3.898,96.465,39.993c4.534,2.831,5.913,8.801,3.082,13.333
	C142.163,98.817,139.008,100.43,135.782,100.43z"/>
<path style="fill:#999999;" d="M502.323,323.457c-5.345,0-9.677-4.333-9.677-9.677c0-43.748-15.569-65.287-32.053-88.089
	c-17.561-24.295-35.721-49.417-35.721-99.428c0-5.344,4.331-9.677,9.677-9.677c5.345,0,9.677,4.333,9.677,9.677
	c0,43.748,15.569,65.287,32.053,88.089C493.84,238.648,512,263.77,512,313.78C512,319.124,507.669,323.457,502.323,323.457z"/>
<path style="fill:#333333;" d="M33.68,149.241c33.026,57.928,86.516,125.132,150.614,189.231
	c67.482,67.482,140.216,124.462,199.554,156.332c1.015,0.546,2.098,0.884,3.193,1.041l-0.001,0.01l39.584,5.736
	c0.462,0.067,0.928,0.101,1.387,0.101c2.548,0,5.015-1.006,6.843-2.835l53.697-53.698c2.159-2.159,3.171-5.21,2.734-8.23
	l-5.736-39.583l-0.015,0.003c-0.159-1.095-0.49-2.178-1.036-3.193c-31.871-59.34-88.852-132.075-156.331-199.554
	c-64.1-64.099-131.303-117.589-189.232-150.615C76.708,8.511,32.689,0.887,11.634,21.943C-9.42,42.997-1.797,87.017,33.68,149.241z
	 M424.599,481.743l-15.679-2.272l60.244-60.244l2.272,15.676L424.599,481.743z M218.124,344.459
	c14.945,1.267,29.566,1.822,43.67,1.822c74.676,0,135.123-15.367,154.841-21.022c18.786,25.092,34.845,49.353,47.362,71.761
	l-77.284,77.285C336.062,446.014,275.959,399.662,218.124,344.459z M62.407,159.509c16.967,3.213,34.897,4.498,52.694,4.498
	c58.174,0,114.936-13.66,132.02-18.15c22.45,19.206,45.081,40.153,67.357,62.429c32.986,32.986,63.368,67.182,89.399,100.34
	c-32.025,8.331-116.849,26.503-208.174,13.87C141.019,267.529,94.452,210.519,62.407,159.509z M25.32,35.627
	c7.87-7.87,23.459-6.536,35.152-4.033c18.489,3.958,42.307,14.058,68.876,29.206c30.972,17.658,64.736,41.398,99.291,69.607
	c-36.547,8.357-120.469,23.792-180.039,5.885C34.51,111.08,25.077,88.484,21.286,70.779C18.783,59.087,17.449,43.497,25.32,35.627z"
	/>
<circle style="fill:#999999;" cx="437.414" cy="97.477" r="9.677"/>
<circle style="fill:#FFFFFF;" cx="166.156" cy="110.957" r="9.677"/>
<g>
</g>
<g>
</g>
<g>
</g>
<g>
</g>
<g>
</g>
<g>
</g>
<g>
</g>
<g>
</g>
<g>
</g>
<g>
</g>
<g>
</g>
<g>
</g>
<g>
</g>
<g>
</g>
<g>
</g>
</svg>
