<?xml version="1.0" encoding="iso-8859-1"?>
<!-- Generator: Adobe Illustrator 19.0.0, SVG Export Plug-In . SVG Version: 6.00 Build 0)  -->
<svg xmlns="http://www.w3.org/2000/svg" xmlns:xlink="http://www.w3.org/1999/xlink" version="1.1" id="Layer_1" x="0px" y="0px" viewBox="0 0 497 497" style="enable-background:new 0 0 497 497;" xml:space="preserve" width="512" height="512">
<g>
	<path style="fill:#4B3F4E;" d="M354.992,469.659c-1.85-9.57-4.62-18.29-7.89-26.141c-8.83-21.22-21.38-36.151-30.071-44.741   c-5.89-5.82-10-8.73-10-8.73H189.969c0,0-4.11,2.91-10,8.73c-8.69,8.59-21.24,23.521-30.071,44.741   c-3.27,7.85-6.04,16.57-7.89,26.141c-1.66,8.44-2.62,17.56-2.62,27.341h218.225C357.612,487.22,356.652,478.1,354.992,469.659z"/>
	<path style="fill:#5D5360;" d="M307.801,8.659c-38.432-11.537-80.175-11.553-118.603,0   C106.187,33.579,45.805,109.481,45.805,199.243c0,110.042,90.752,199.255,202.695,199.255s202.695-89.212,202.695-199.255   C451.195,109.481,390.813,33.58,307.801,8.659z"/>
	<path style="fill:#ECEAEC;" d="M248.5,62.103c-28.865-0.052-55.937,8.104-79.092,22.225h0l-4.353,8.732l-8.136-0.258   c-37.82,28.441-62.438,73.872-62.438,124.355v18.205c0,52.112,42.245,92.519,94.357,92.519l0,19.201   c0,11.032,8.943,19.975,19.975,19.975h2.356l7.5-3.998l7.5,3.998H241l7.5-3.998l7.5,3.998h14.831l7.5-3.998l7.5,3.998h2.355   c11.032,0,19.975-8.943,19.975-19.975l0-19.201c52.112,0,94.357-40.406,94.357-92.519v-18.205   C402.519,132.445,333.212,61.952,248.5,62.103z"/>
	<g>
		<path style="fill:#4B3F4E;" d="M211.169,367.058v-27.39c0-4.142,3.358-7.5,7.5-7.5s7.5,3.358,7.5,7.5v27.39H211.169z"/>
	</g>
	<g>
		<path style="fill:#4B3F4E;" d="M241,367.058v-27.39c0-4.142,3.358-7.5,7.5-7.5s7.5,3.358,7.5,7.5v27.39H241z"/>
	</g>
	<g>
		<path style="fill:#4B3F4E;" d="M270.831,367.058v-27.39c0-4.142,3.358-7.5,7.5-7.5s7.5,3.358,7.5,7.5v27.39H270.831z"/>
	</g>
	<g>
		<g>
			<path style="fill:#4B3F4E;" d="M181.9,293.864c-4.142,0-7.5-3.358-7.5-7.5v-16.443c0-4.142,3.358-7.5,7.5-7.5s7.5,3.358,7.5,7.5     v16.443C189.4,290.506,186.042,293.864,181.9,293.864z"/>
		</g>
		<g>
			<path style="fill:#4B3F4E;" d="M314.537,293.864c-4.142,0-7.5-3.358-7.5-7.5v-16.443c0-4.142,3.358-7.5,7.5-7.5     s7.5,3.358,7.5,7.5v16.443C322.037,290.506,318.679,293.864,314.537,293.864z"/>
		</g>
	</g>
	<path style="fill:#4B3F4E;" d="M260.921,295.655l-6.822-13.173c-2.524-4.873-9.527-4.772-11.91,0.171l-6.351,13.173   c-2.131,4.421,1.09,9.55,5.998,9.55h13.173C260,305.376,263.216,300.087,260.921,295.655z"/>
	<path style="fill:#5D5360;" d="M169.849,119.067h-10.9c-2.556,0-4.936,1.301-6.314,3.453s-1.567,4.858-0.5,7.18l13.574,29.523   c1.264,2.749,3.98,4.369,6.819,4.369c1.048,0,2.113-0.221,3.128-0.688c3.763-1.73,5.411-6.184,3.681-9.947l-8.686-18.89H181.9   c2.591,0,4.999-1.337,6.368-3.538c1.369-2.2,1.505-4.95,0.361-7.275l-18.796-38.182c-0.128-0.26-0.272-0.506-0.425-0.744   c-4.303,2.624-8.471,5.452-12.489,8.474L169.849,119.067z"/>
	<path style="fill:#D2D2D2;" d="M248.5,62.103c-28.865-0.052-55.937,8.104-79.092,22.225h0c-4.303,2.624-8.471,5.452-12.489,8.474h0   c-37.82,28.441-62.438,73.872-62.438,124.355v18.205c0,1.786,0.054,3.557,0.152,5.314c2.006-47.875,26.092-90.656,62.286-117.875h0   c4.018-3.022,8.186-5.85,12.489-8.474h0c23.155-14.12,50.227-22.276,79.092-22.225c82.524-0.148,150.417,66.75,153.87,148.522   c0.096-1.74,0.149-3.494,0.149-5.263v-18.205C402.519,132.445,333.212,61.952,248.5,62.103z"/>
	<g>
		<path style="fill:#4B3F4E;" d="M156.919,92.802l11.043,22.432c0.483-0.302,0.96-0.61,1.446-0.906h0    c3.784-2.308,7.683-4.438,11.667-6.418l-11.243-22.838c-0.128-0.26-0.272-0.506-0.425-0.744    C165.106,86.952,160.938,89.78,156.919,92.802L156.919,92.802L156.919,92.802z"/>
		<path style="fill:#4B3F4E;" d="M158.948,119.067c-2.556,0-4.936,1.301-6.314,3.453c-0.886,1.383-1.274,2.995-1.159,4.586    c1.785-1.471,3.595-2.913,5.445-4.304h0c1.706-1.283,3.445-2.523,5.203-3.735H158.948z"/>
	</g>
</g>















</svg>
