<svg height="512pt" viewBox="0 -4 512.0001 512" width="512pt" xmlns="http://www.w3.org/2000/svg"><path d="m315.734375 68.265625h43.886719l7.3125 42.667969-43.886719-8.535156zm0 0" fill="#7f8c8d"/><path d="m358.398438 68.265625c80.121093 0 145.066406 64.949219 145.066406 145.066406v247.46875h-290.132813v-247.46875c0-80.117187 64.949219-145.066406 145.066407-145.066406zm0 0" fill="#7f8c8d"/><path d="m315.734375 68.265625c80.117187 0 145.066406 64.949219 145.066406 145.066406v247.46875h-290.132812v-247.46875c0-80.117187 64.949219-145.066406 145.066406-145.066406zm0 0" fill="#95a5a5"/><path d="m43.324219 196.695312c-9.757813-25.316406-14.054688-52.40625-12.605469-79.5 3.601562-63.136718 52.90625-117.195312 119.382812-117.195312 65.953126 0 119.550782 48.640625 119.550782 108.550781 0 31.011719-18.882813 57.679688-36.53125 87.28125l-17.066406 32.546875c-14.769532 33.773438-20.539063 73.429688 5.394531 127.144532-2.886719-1.167969-5.761719-2.328126-8.644531-3.558594-32.117188-13.035156-62.453126-30.082032-90.28125-50.738282-25.578126-19.355468-47.09375-43.558593-63.320313-71.226562zm0 0" fill="#bdc3c7" fill-rule="evenodd"/><path d="m191.351562 323.472656c-20.601562-10.050781-40.195312-22.054687-58.511718-35.839844-23.585938-17.867187-43.46875-40.152343-58.53125-65.621093l-15.265625-32.007813c-8.769531-22.878906-12.621094-47.351562-11.308594-71.816406 2.015625-55.472656 46.875-99.785156 102.367187-101.121094 56.492188 0 102.484376 41.046875 102.484376 91.484375 0 22.417969-12.746094 43.351563-27.511719 67.601563-2.199219 3.601562-6.824219 11.34375-6.824219 11.34375l-17.648438 33.515625-.246093.566406c-14.703125 31.898437-17.886719 67.910156-9.003907 101.894531zm0 0" fill="#d1d4d1" fill-rule="evenodd"/><path d="m73.300781 221.945312-37.257812 21.253907c-8.8125 5.039062-20.042969 1.984375-25.085938-6.824219-5.039062-8.816406-1.984375-20.046875 6.828125-25.089844l37.253906-21.332031" fill="#bdc3c7"/><path d="m113.664062 59.820312c.507813-.074218 1.023438-.101562 1.535157-.085937 11.78125 0 21.335937 9.550781 21.335937 21.332031s-9.554687 21.332032-21.335937 21.332032-21.332031-9.550782-21.332031-21.332032c-.023438-4.027344 1.132812-7.972656 3.328124-11.347656" fill="#2c3e50"/><path d="m218.539062 69.71875c2.183594 3.378906 3.339844 7.324219 3.328126 11.347656 0 8.628906-5.199219 16.40625-13.167969 19.710938-7.972657 3.300781-17.148438 1.476562-23.25-4.625-6.101563-6.101563-7.925781-15.277344-4.625-23.25s11.082031-13.167969 19.710937-13.167969c.511719-.015625 1.027344.011719 1.535156.085937" fill="#2c3e50"/><path d="m129.441406 179.046875h-1.425781c-7.382813-.414063-14.242187-3.949219-18.867187-9.71875l-21.945313-27.4375c-1.90625-2.378906-2.398437-5.597656-1.289063-8.4375 1.109376-2.839844 3.652344-4.871094 6.667969-5.332031 3.011719-.460938 6.042969.722656 7.949219 3.105468l21.949219 27.433594c1.574219 1.996094 3.9375 3.210938 6.476562 3.335938 2.535157.152344 5.015625-.78125 6.824219-2.558594l6.109375-6.109375c5.328125-5.328125 12.707031-8.082031 20.222656-7.546875s14.429688 4.304688 18.945313 10.335938c1.660156 2.210937 4.246094 3.527343 7.007812 3.566406 2.75 0 5.355469-1.230469 7.109375-3.351563l20.050781-25.070312c2.945313-3.683594 8.320313-4.277344 12-1.332031 3.679688 2.945312 4.277344 8.316406 1.332032 11.996093l-20.054688 25.070313c-4.9375 6.386718-12.636718 10.011718-20.703125 9.746094-8.042969-.097657-15.578125-3.9375-20.386719-10.386719-1.550781-2.070313-3.925781-3.363281-6.507812-3.546875-2.582031-.1875-5.117188.757812-6.949219 2.585937l-6.109375 6.109375c-4.894531 4.851563-11.511718 7.566406-18.40625 7.542969zm0 0" fill="#2c3e50"/><path d="m85.332031 85.332031c-3.832031.003907-7.199219-2.550781-8.226562-6.246093-1.027344-3.695313.539062-7.621094 3.824219-9.597657l42.667968-25.601562c4.03125-2.324219 9.179688-.992188 11.574219 2.996093 2.398437 3.988282 1.160156 9.164063-2.785156 11.628907l-42.667969 25.601562c-1.324219.796875-2.839844 1.21875-4.386719 1.21875zm0 0" fill="#7f8c8d"/><path d="m230.398438 85.332031c-1.542969 0-3.0625-.421875-4.382813-1.21875l-42.667969-25.601562c-2.671875-1.539063-4.304687-4.402344-4.269531-7.488281.035156-3.085938 1.734375-5.910157 4.441406-7.390626 2.707031-1.480468 6-1.382812 8.617188.253907l42.667969 25.601562c3.285156 1.976563 4.851562 5.902344 3.824218 9.597657-1.027344 3.695312-4.394531 6.25-8.230468 6.246093zm0 0" fill="#7f8c8d"/><path d="m268.542969 221.867188h13.058593c4.710938 0 8.53125-3.820313 8.53125-8.535157v-42.664062c0-4.714844 3.820313-8.535157 8.535157-8.535157h34.132812c4.710938 0 8.53125 3.820313 8.53125 8.535157v42.664062c0 4.714844 3.820313 8.535157 8.535157 8.535157h34.132812c4.710938 0 8.535156 3.820312 8.535156 8.53125v34.136718c0 4.710938-3.824218 8.53125-8.535156 8.53125h-34.132812c-4.714844 0-8.535157 3.820313-8.535157 8.535156v110.933594c0 4.710938-3.820312 8.53125-8.53125 8.53125h-34.132812c-4.714844 0-8.535157-3.820312-8.535157-8.53125v-110.933594c0-4.714843-3.820312-8.535156-8.53125-8.535156h-34.136718c-4.710938 0-8.53125-3.820312-8.53125-8.53125v-23.042968zm0 0" fill="#35495e"/><path d="m170.667969 469.332031c-2.265625 0-4.433594-.898437-6.035157-2.5l-42.664062-42.664062c-3.234375-3.351563-3.1875-8.671875.101562-11.964844 3.292969-3.289063 8.613282-3.335937 11.960938-.101563l35.925781 35.925782 28.160157-35.226563c2.945312-3.679687 8.320312-4.277343 12-1.332031 3.679687 2.945312 4.277343 8.316406 1.332031 11.996094l-34.136719 42.667968c-1.515625 1.894532-3.769531 3.050782-6.195312 3.183594zm0 0" fill="#71c285"/><path d="m460.800781 469.332031c-2.265625 0-4.433593-.898437-6.035156-2.5l-34.132813-34.132812c-3.234374-3.347657-3.1875-8.671875.105469-11.960938 3.289063-3.292969 8.613281-3.339843 11.960938-.105469l25.761719 25.761719 11.769531-23.542969c2.105469-4.21875 7.234375-5.929687 11.449219-3.820312 4.21875 2.105469 5.929687 7.230469 3.824218 11.449219l-17.066406 34.132812c-1.226562 2.457031-3.5625 4.171875-6.273438 4.609375-.449218.074219-.90625.113282-1.363281.109375zm0 0" fill="#71c285"/><path d="m0 456.984375h512v46.480469h-512zm0 0" fill="#71c285"/><g fill="#4c8056"><path d="m358.398438 469.332031h-196.265626c-4.710937 0-8.53125-3.820312-8.53125-8.53125 0-4.714843 3.820313-8.535156 8.53125-8.535156h196.265626c4.714843 0 8.535156 3.820313 8.535156 8.535156 0 4.710938-3.820313 8.53125-8.535156 8.53125zm0 0"/><path d="m76.800781 503.464844c-2.6875 0-5.214843-1.261719-6.828125-3.410156l-25.597656-34.132813c-1.832031-2.441406-2.21875-5.671875-1.023438-8.472656 1.199219-2.804688 3.800782-4.757813 6.828126-5.121094 3.027343-.363281 6.019531.914063 7.847656 3.351563l25.597656 34.132812c1.941406 2.585938 2.253906 6.046875.808594 8.9375-1.445313 2.890625-4.402344 4.714844-7.632813 4.714844zm0 0"/><path d="m119.464844 503.464844c-2.683594 0-5.214844-1.261719-6.824219-3.410156l-25.601563-34.132813c-2.828124-3.773437-2.0625-9.121094 1.707032-11.949219 3.769531-2.828125 9.121094-2.0625 11.949218 1.707032l25.597657 34.132812c1.941406 2.585938 2.25 6.046875.804687 8.9375-1.445312 2.890625-4.398437 4.714844-7.632812 4.714844zm0 0"/><path d="m162.132812 503.464844c-2.683593 0-5.214843-1.261719-6.824218-3.410156l-25.601563-34.132813c-1.828125-2.441406-2.21875-5.671875-1.019531-8.472656 1.195312-2.804688 3.796875-4.757813 6.824219-5.121094 3.027343-.363281 6.019531.914063 7.847656 3.351563l25.601563 34.132812c1.9375 2.585938 2.25 6.046875.804687 8.9375s-4.398437 4.714844-7.632813 4.714844zm0 0"/><path d="m204.800781 503.464844c-2.6875 0-5.214843-1.261719-6.828125-3.410156l-25.597656-34.132813c-2.828125-3.773437-2.066406-9.121094 1.703125-11.949219 3.773437-2.828125 9.121094-2.0625 11.949219 1.707032l25.597656 34.132812c1.941406 2.585938 2.253906 6.046875.808594 8.9375-1.445313 2.890625-4.402344 4.714844-7.632813 4.714844zm0 0"/><path d="m247.464844 503.464844c-2.683594 0-5.214844-1.261719-6.824219-3.410156l-25.601563-34.132813c-1.828124-2.441406-2.21875-5.671875-1.019531-8.472656 1.199219-2.804688 3.800781-4.757813 6.828125-5.121094 3.023438-.363281 6.015625.914063 7.847656 3.351563l25.597657 34.132812c1.941406 2.585938 2.25 6.046875.804687 8.9375-1.445312 2.890625-4.398437 4.714844-7.632812 4.714844zm0 0"/><path d="m290.132812 503.464844c-2.683593 0-5.214843-1.261719-6.824218-3.410156l-25.601563-34.132813c-2.828125-3.773437-2.0625-9.121094 1.707031-11.949219 3.769532-2.828125 9.117188-2.0625 11.945313 1.707032l25.601563 34.132812c1.9375 2.585938 2.25 6.046875.804687 8.9375s-4.398437 4.714844-7.632813 4.714844zm0 0"/><path d="m332.800781 503.464844c-2.6875 0-5.214843-1.261719-6.828125-3.410156l-25.597656-34.132813c-2.828125-3.773437-2.066406-9.121094 1.703125-11.949219 3.773437-2.828125 9.121094-2.0625 11.949219 1.707032l25.597656 34.132812c1.941406 2.585938 2.253906 6.046875.808594 8.9375-1.445313 2.890625-4.402344 4.714844-7.632813 4.714844zm0 0"/><path d="m375.464844 503.464844c-2.683594 0-5.214844-1.261719-6.824219-3.410156l-25.601563-34.132813c-1.828124-2.441406-2.21875-5.671875-1.019531-8.472656 1.199219-2.804688 3.800781-4.757813 6.828125-5.121094 3.023438-.363281 6.015625.914063 7.847656 3.351563l25.597657 34.132812c1.941406 2.585938 2.25 6.046875.804687 8.9375-1.445312 2.890625-4.398437 4.714844-7.632812 4.714844zm0 0"/><path d="m418.132812 503.464844c-2.683593 0-5.214843-1.261719-6.824218-3.410156l-25.601563-34.132813c-1.828125-2.441406-2.21875-5.671875-1.019531-8.472656 1.195312-2.804688 3.796875-4.757813 6.824219-5.121094 3.027343-.363281 6.019531.914063 7.847656 3.351563l25.601563 34.132812c1.9375 2.585938 2.25 6.046875.804687 8.9375s-4.398437 4.714844-7.632813 4.714844zm0 0"/><path d="m460.800781 503.464844c-2.6875 0-5.214843-1.261719-6.828125-3.410156l-25.597656-34.132813c-1.832031-2.441406-2.21875-5.671875-1.023438-8.472656 1.199219-2.804688 3.800782-4.757813 6.828126-5.121094 3.027343-.363281 6.019531.914063 7.847656 3.351563l25.597656 34.132812c1.941406 2.585938 2.253906 6.046875.808594 8.9375-1.445313 2.890625-4.402344 4.714844-7.632813 4.714844zm0 0"/><path d="m503.464844 503.464844c-2.683594 0-5.214844-1.261719-6.824219-3.410156l-25.601563-34.132813c-2.828124-3.773437-2.0625-9.121094 1.707032-11.949219 3.769531-2.828125 9.121094-2.0625 11.949218 1.707032l25.597657 34.132812c1.941406 2.585938 2.25 6.046875.804687 8.9375-1.445312 2.890625-4.398437 4.714844-7.632812 4.714844zm0 0"/><path d="m34.132812 503.464844c-2.683593 0-5.214843-1.261719-6.824218-3.410156l-25.601563-34.132813c-1.941406-2.585937-2.25-6.046875-.804687-8.9375 1.445312-2.890625 4.398437-4.71875 7.632812-4.71875h494.929688c4.714844 0 8.535156 3.820313 8.535156 8.535156 0 4.710938-3.820312 8.53125-8.535156 8.53125h-477.863282l15.359376 20.480469c1.9375 2.585938 2.25 6.046875.804687 8.9375s-4.398437 4.714844-7.632813 4.714844zm0 0"/></g><path d="m204.671875 221.945312 37.257813 21.253907c8.8125 5.039062 20.042968 1.984375 25.085937-6.824219 5.042969-8.816406 1.984375-20.046875-6.824219-25.089844l-37.257812-21.332031" fill="#bdc3c7"/></svg>