<?xml version="1.0" encoding="iso-8859-1"?>
<!-- Generator: Adobe Illustrator 19.0.0, SVG Export Plug-In . SVG Version: 6.00 Build 0)  -->
<svg version="1.1" id="Layer_1" xmlns="http://www.w3.org/2000/svg" xmlns:xlink="http://www.w3.org/1999/xlink" x="0px" y="0px"
	 viewBox="0 0 512 512" style="enable-background:new 0 0 512 512;" xml:space="preserve">
<path style="fill:#576D7E;" d="M256,0C158.952,0,80,74.472,80,166v266c0,8.832,7.168,16,16,16h320c8.832,0,16-7.168,16-16V166
	C432,74.472,353.048,0,256,0z"/>
<path style="fill:#516575;" d="M429.784,440c1.376-2.36,2.216-5.072,2.216-8V166C432,74.472,353.048,0,256,0v440H429.784z"/>
<path style="fill:#35495C;" d="M432,416H80c-26.472,0-48,21.528-48,48v32c0,8.832,7.168,16,16,16h416c8.832,0,16-7.168,16-16v-32
	C480,437.528,458.472,416,432,416z"/>
<g>
	<path style="fill:#123247;" d="M191.304,313.216c0,10.016-15.304,10.376-15.304,0.232v-65.392c0-4.032,3.112-7.024,6.904-7.024
		h30.624c29.24,0,35.2,39.152,10.832,48.92l15.296,18.672c5.984,8.856-5.984,17.376-12.872,8.624l-17.408-24.856h-18.072
		L191.304,313.216L191.304,313.216z M191.304,279.16h22.224c14.968,0,15.888-24.192,0-24.192h-22.224V279.16z"/>
	<path style="fill:#123247;" d="M255.504,247.952c0-9.44,15.2-9.784,15.2,0v65.72c0,9.56-15.2,9.792-15.2,0V247.952z"/>
	<path style="fill:#123247;" d="M289.16,247.952c0-3.816,2.968-7.952,7.832-7.952h26.592C338.552,240,352,250.024,352,269.232
		c0,18.192-13.448,28.328-28.424,28.328H304.36v15.2c0,5.064-3.24,7.928-7.376,7.928c-3.8,0-7.832-2.864-7.832-7.928v-64.808H289.16
		z M304.36,254.512v28.672h19.216c7.68,0,13.808-6.832,13.808-13.952c0-8.04-6.128-14.72-13.808-14.72H304.36z"/>
</g>
<circle style="fill:#35495C;" cx="256" cy="136" r="64"/>
<path style="fill:#123247;" d="M256,88c32.632,0,59.504,24.44,63.448,56c0.328-2.624,0.552-5.288,0.552-8c0-35.344-28.656-64-64-64
	s-64,28.656-64,64c0,2.712,0.224,5.376,0.552,8C196.496,112.44,223.368,88,256,88z"/>
<path style="fill:#748B9E;" d="M280,120h-16v-16c0-4.416-3.576-8-8-8c-4.424,0-8,3.584-8,8v16h-16c-4.424,0-8,3.584-8,8s3.576,8,8,8
	h16v32c0,4.416,3.576,8,8,8c4.424,0,8-3.584,8-8v-32h16c4.424,0,8-3.584,8-8S284.424,120,280,120z"/>
<g>
	<circle style="fill:#123247;" cx="344" cy="312" r="8"/>
	<path style="fill:#123247;" d="M48,512h416c8.832,0,16-7.168,16-16v-32c0-26.472-21.528-48-48-48H256v80H32
		C32,504.832,39.168,512,48,512z"/>
</g>
<rect x="80" y="400" style="fill:#516575;" width="176" height="16"/>
<g>
</g>
<g>
</g>
<g>
</g>
<g>
</g>
<g>
</g>
<g>
</g>
<g>
</g>
<g>
</g>
<g>
</g>
<g>
</g>
<g>
</g>
<g>
</g>
<g>
</g>
<g>
</g>
<g>
</g>
</svg>
