<?xml version="1.0" encoding="iso-8859-1"?>
<!-- Generator: Adobe Illustrator 19.0.0, SVG Export Plug-In . SVG Version: 6.00 Build 0)  -->
<svg version="1.1" id="Layer_1" xmlns="http://www.w3.org/2000/svg" xmlns:xlink="http://www.w3.org/1999/xlink" x="0px" y="0px"
	 viewBox="0 0 512 512" style="enable-background:new 0 0 512 512;" xml:space="preserve">
<g>
	<path style="fill:#E6E6E6;" d="M101.872,145.593c85.837-6.56,104.695,66.003,108.754,102.552L171.958,339.6l-26.824-26.839
		c-8.918-8.923-13.927-21.022-13.927-33.638l0.001-37.051l-5.765,28.823c-3.708,18.54-18.041,33.125-36.513,37.156l0,0l0,0
		c-16.709-13.735-25.436-34.922-23.245-56.439l2.425-23.826l-6.59,23.643c-6.374,22.872-24.783,40.403-47.939,45.653l-1.441,0.326
		C12.142,297.408,6.428,152.892,101.872,145.593z"/>
	<path style="fill:#E6E6E6;" d="M410.128,145.593c-85.837-6.56-104.695,66.003-108.754,102.552l38.668,91.456l26.824-26.839
		c8.918-8.923,13.928-21.022,13.927-33.638l-0.001-37.051l5.765,28.823c3.708,18.54,18.041,33.125,36.513,37.156l0,0l0,0
		c16.709-13.735,25.436-34.922,23.245-56.439l-2.425-23.826l6.59,23.643c6.374,22.872,24.783,40.403,47.939,45.653l1.441,0.326
		C499.858,297.408,505.572,152.892,410.128,145.593z"/>
</g>
<path style="fill:#FCC447;" d="M403.273,512H108.726l43.287-225.08c6.607-34.335,29.37-62.122,59.479-76.086
	c4.75-2.202,9.679-4.06,14.762-5.548h59.49c5.084,1.488,10.012,3.345,14.751,5.548c30.12,13.965,52.883,41.752,59.49,76.086
	L403.273,512z"/>
<path style="fill:#F2B844;" d="M211.492,210.833c-30.108,13.965-52.871,41.752-59.479,76.086L108.726,512h34.576l33.124-225.08
	c5.056-34.335,22.475-62.122,45.514-76.086c3.635-2.202,7.406-4.06,11.297-5.548h-6.984
	C221.171,206.774,216.242,208.63,211.492,210.833z"/>
<rect x="247.081" y="205.282" style="fill:#EAAE44;" width="17.858" height="306.715"/>
<path style="fill:#E6E6E6;" d="M300.495,210.833c-11.631,11.643-27.275,18.775-44.49,18.775c-17.227,0-32.882-7.143-44.514-18.775
	c4.75-2.202,9.679-4.06,14.762-5.548h59.49C290.828,206.774,295.757,208.63,300.495,210.833z"/>
<path style="fill:#FCC447;" d="M256.001,58.93c-14.933,0-29.106-2.36-39.909-6.644c-18.102-7.179-20.806-17.379-20.806-22.821
	s2.704-15.642,20.806-22.821C226.895,2.36,241.068,0,256.001,0s29.106,2.36,39.909,6.643c18.102,7.179,20.806,17.379,20.806,22.821
	s-2.704,15.642-20.806,22.821C285.108,56.57,270.933,58.93,256.001,58.93z M213.169,29.464c1.182,3.311,15.67,11.608,42.833,11.608
	s41.649-8.296,42.833-11.608c-1.183-3.311-15.671-11.606-42.834-11.606S214.351,26.153,213.169,29.464z M298.869,29.581h0.012
	H298.869z"/>
<g>
	<circle style="fill:#EAAE44;" cx="288.154" cy="452.47" r="8.929"/>
	<circle style="fill:#EAAE44;" cx="223.866" cy="452.47" r="8.929"/>
	<circle style="fill:#EAAE44;" cx="288.154" cy="389.694" r="8.929"/>
	<circle style="fill:#EAAE44;" cx="223.866" cy="389.694" r="8.929"/>
	<circle style="fill:#EAAE44;" cx="288.154" cy="327.87" r="8.929"/>
</g>
<ellipse style="fill:#F2F2F2;" cx="255.998" cy="143.541" rx="65.06" ry="69.396"/>
<path style="fill:#E6E6E6;" d="M207.608,143.544c0-35.314,24.733-64.447,56.726-68.813c-2.731-0.373-5.507-0.586-8.334-0.586
	c-35.931,0-65.06,31.071-65.06,69.399c0,38.329,29.129,69.399,65.06,69.399c2.826,0,5.603-0.213,8.334-0.586
	C232.342,207.989,207.608,178.857,207.608,143.544z"/>
<g>
	<circle style="fill:#EAAE44;" cx="223.866" cy="327.87" r="8.929"/>
	<circle style="fill:#EAAE44;" cx="288.154" cy="265.558" r="8.929"/>
	<circle style="fill:#EAAE44;" cx="223.866" cy="265.558" r="8.929"/>
</g>
<g>
	<circle style="fill:#666666;" cx="280.702" cy="135.517" r="8.929"/>
	<circle style="fill:#666666;" cx="231.295" cy="135.517" r="8.929"/>
</g>
<g>
</g>
<g>
</g>
<g>
</g>
<g>
</g>
<g>
</g>
<g>
</g>
<g>
</g>
<g>
</g>
<g>
</g>
<g>
</g>
<g>
</g>
<g>
</g>
<g>
</g>
<g>
</g>
<g>
</g>
</svg>
