<?xml version="1.0" encoding="UTF-8"?>
<!DOCTYPE svg PUBLIC "-//W3C//DTD SVG 1.1//EN" "http://www.w3.org/Graphics/SVG/1.1/DTD/svg11.dtd">
<svg xmlns="http://www.w3.org/2000/svg" version="1.1" width="512px" height="512px" style="shape-rendering:geometricPrecision; text-rendering:geometricPrecision; image-rendering:optimizeQuality; fill-rule:evenodd; clip-rule:evenodd" xmlns:xlink="http://www.w3.org/1999/xlink">
<g><path style="opacity:0.964" fill="#010101" d="M 233.5,-0.5 C 248.167,-0.5 262.833,-0.5 277.5,-0.5C 288.742,0.989599 300.075,2.82293 311.5,5C 321.856,5.76534 330.022,10.2653 336,18.5C 348.583,60.7112 376.417,77.0445 419.5,67.5C 424.92,67.605 429.92,69.105 434.5,72C 469.647,105.609 492.647,146.275 503.5,194C 503.193,198.727 502.027,203.227 500,207.5C 474.905,232.392 471.239,260.059 489,290.5C 495.689,296.182 500.355,303.182 503,311.5C 503.667,314.833 503.667,318.167 503,321.5C 490.843,368.017 467.343,407.517 432.5,440C 423.674,444.312 414.674,444.646 405.5,441C 369.204,438.741 346.371,455.241 337,490.5C 331.347,500.088 322.847,505.254 311.5,506C 300.075,508.177 288.742,510.01 277.5,511.5C 262.833,511.5 248.167,511.5 233.5,511.5C 216.568,509.84 199.901,506.34 183.5,501C 179.3,498.433 176.133,494.933 174,490.5C 161.372,449.095 133.872,433.428 91.5,443.5C 86.1748,443.114 81.1748,441.614 76.5,439C 41.8593,405.066 18.8593,364.4 7.5,317C 7.83505,311.493 9.33505,306.326 12,301.5C 36.347,277.086 39.6804,250.086 22,220.5C 17.6201,215.789 13.6201,210.789 10,205.5C 7.87104,200.338 7.20438,195.005 8,189.5C 20.1887,143.933 43.022,104.766 76.5,72C 81.0796,69.105 86.0796,67.605 91.5,67.5C 133.86,77.5773 161.36,61.9106 174,20.5C 176.133,16.0673 179.3,12.5673 183.5,10C 199.901,4.66036 216.568,1.16036 233.5,-0.5 Z"/></g>
<g><path style="opacity:1" fill="#9c9c9c" d="M 301.5,21.5 C 305.856,38.0502 314.189,52.2169 326.5,64C 335.554,71.5266 345.888,76.36 357.5,78.5C 373.812,87.2428 391.145,90.2428 409.5,87.5C 412.731,89.2199 415.564,91.5532 418,94.5C 442.753,123.338 459.587,156.338 468.5,193.5C 468.449,197.821 467.282,201.821 465,205.5C 444.405,226.122 438.405,250.455 447,278.5C 450.755,289.015 456.755,298.015 465,305.5C 468.225,310.399 469.225,315.732 468,321.5C 457.788,357.265 440.788,389.265 417,417.5C 414.894,420.118 412.394,422.118 409.5,423.5C 391.121,420.576 373.788,423.576 357.5,432.5C 334.534,437.24 318.034,450.24 308,471.5C 305.828,477.536 303.661,483.536 301.5,489.5C 266.025,496.8 230.692,495.967 195.5,487C 193.919,486.293 192.419,485.46 191,484.5C 179.643,444.967 153.476,424.3 112.5,422.5C 104.189,423.798 95.8555,424.631 87.5,425C 56.7934,394.914 36.1267,358.914 25.5,317C 25.5419,315.033 26.0419,313.199 27,311.5C 49.025,288.395 55.6916,261.395 47,230.5C 42.5887,218.669 35.922,208.336 27,199.5C 25.5167,196.298 25.1834,192.964 26,189.5C 37.4427,149.442 57.9427,114.942 87.5,86C 98.7126,87.9614 110.046,88.628 121.5,88C 151.823,83.993 173.323,68.1597 186,40.5C 187.363,35.7106 189.029,31.0439 191,26.5C 192.419,25.5399 193.919,24.7065 195.5,24C 230.686,15.0335 266.019,14.2002 301.5,21.5 Z"/></g>
<g><path style="opacity:1" fill="#6e6e6e" d="M 301.5,21.5 C 306.17,22.2208 310.837,23.0541 315.5,24C 317.305,24.972 318.972,26.1387 320.5,27.5C 326.287,49.467 338.62,66.467 357.5,78.5C 345.888,76.36 335.554,71.5266 326.5,64C 314.189,52.2169 305.856,38.0502 301.5,21.5 Z"/></g>
<g><path style="opacity:1" fill="#030302" d="M 245.5,33.5 C 286.07,32.0154 311.904,50.6821 323,89.5C 326.745,124.522 312.912,149.689 281.5,165C 245.458,176.875 216.958,167.042 196,135.5C 179.377,99.4973 186.544,69.3306 217.5,45C 226.351,39.6695 235.684,35.8362 245.5,33.5 Z"/></g>
<g><path style="opacity:1" fill="#f9d700" d="M 262.5,51.5 C 275.46,60.887 284.127,73.387 288.5,89C 288.43,89.7648 288.097,90.2648 287.5,90.5C 280.285,74.0507 267.618,66.5507 249.5,68C 227.783,74.7061 218.949,89.2061 223,111.5C 229.771,129.972 242.938,137.806 262.5,135C 274.688,132.312 283.021,125.146 287.5,113.5C 284.682,129.724 276.349,142.724 262.5,152.5C 234.346,154.529 215.513,142.195 206,115.5C 200.776,85.7774 211.942,64.9441 239.5,53C 247.096,50.5047 254.762,50.0047 262.5,51.5 Z"/></g>
<g><path style="opacity:1" fill="#f9be07" d="M 262.5,51.5 C 285.468,55.5757 299.968,68.909 306,91.5C 309.349,117.974 299.183,137.14 275.5,149C 271.284,150.684 266.951,151.851 262.5,152.5C 276.349,142.724 284.682,129.724 287.5,113.5C 290.161,105.809 290.161,98.1418 287.5,90.5C 288.097,90.2648 288.43,89.7648 288.5,89C 284.127,73.387 275.46,60.887 262.5,51.5 Z"/></g>
<g><path style="opacity:1" fill="#040300" d="M 287.5,90.5 C 290.161,98.1418 290.161,105.809 287.5,113.5C 283.021,125.146 274.688,132.312 262.5,135C 242.938,137.806 229.771,129.972 223,111.5C 218.949,89.2061 227.783,74.7061 249.5,68C 267.618,66.5507 280.285,74.0507 287.5,90.5 Z"/></g>
<g><path style="opacity:1" fill="#f9bd07" d="M 251.5,84.5 C 268.003,85.1592 274.503,93.4925 271,109.5C 264.418,118.777 255.918,120.944 245.5,116C 235.868,105.984 236.201,96.3171 246.5,87C 248.315,86.2432 249.981,85.4098 251.5,84.5 Z"/></g>
<g><path style="opacity:1" fill="#6f6f6f" d="M 409.5,423.5 C 412.394,422.118 414.894,420.118 417,417.5C 440.788,389.265 457.788,357.265 468,321.5C 469.225,315.732 468.225,310.399 465,305.5C 456.755,298.015 450.755,289.015 447,278.5C 438.405,250.455 444.405,226.122 465,205.5C 467.282,201.821 468.449,197.821 468.5,193.5C 459.587,156.338 442.753,123.338 418,94.5C 415.564,91.5532 412.731,89.2199 409.5,87.5C 414.35,85.2755 419.35,85.1088 424.5,87C 454.503,116.824 474.836,152.324 485.5,193.5C 485.485,195.634 484.985,197.634 484,199.5C 459.975,224.281 453.975,252.948 466,285.5C 470.611,295.727 476.945,304.727 485,312.5C 485.729,317.669 485.062,322.669 483,327.5C 471.254,364.514 451.754,396.68 424.5,424C 419.35,425.891 414.35,425.725 409.5,423.5 Z"/></g>
<g><path style="opacity:1" fill="#020202" d="M 111.5,110.5 C 150.648,108.305 176.482,125.638 189,162.5C 194.444,194.874 183.611,220.041 156.5,238C 121.483,254.617 91.6498,248.117 67,218.5C 54.8563,200.038 51.523,180.038 57,158.5C 66.401,132.406 84.5677,116.406 111.5,110.5 Z"/></g>
<g><path style="opacity:1" fill="#020202" d="M 381.5,110.5 C 420.838,110.018 445.671,128.685 456,166.5C 459.591,197.449 448.425,221.282 422.5,238C 389.174,254.182 360.007,248.682 335,221.5C 315.03,191.654 315.696,162.321 337,133.5C 349.242,120.63 364.075,112.964 381.5,110.5 Z"/></g>
<g><path style="opacity:1" fill="#36464e" d="M 113.5,127.5 C 144.719,125.671 164.552,139.671 173,169.5C 175.541,200.932 161.708,220.765 131.5,229C 100.112,231.597 80.2782,217.764 72,187.5C 69.7811,156.24 83.6144,136.24 113.5,127.5 Z"/></g>
<g><path style="opacity:1" fill="#36464e" d="M 381.5,127.5 C 411.856,126.375 431.023,140.375 439,169.5C 441.531,200.94 427.697,220.774 397.5,229C 366.125,231.615 346.292,217.782 338,187.5C 335.827,155.201 350.327,135.201 381.5,127.5 Z"/></g>
<g><path style="opacity:1" fill="#030303" d="M 249.5,212.5 C 281.182,213.016 297.349,229.016 298,260.5C 294.167,281.667 281.667,294.167 260.5,298C 228.877,297.377 213.044,281.21 213,249.5C 217.347,229.32 229.514,216.987 249.5,212.5 Z"/></g>
<g><path style="opacity:1" fill="#6e6e6e" d="M 251.5,229.5 C 268.93,229.368 278.93,237.868 281.5,255C 280,271.167 271.167,280 255,281.5C 239.384,279.55 230.884,270.716 229.5,255C 231.011,241.331 238.344,232.831 251.5,229.5 Z"/></g>
<g><path style="opacity:1" fill="#020202" d="M 113.5,263.5 C 148.248,262.11 172.748,277.11 187,308.5C 196.358,342.093 187.192,369.26 159.5,390C 124.551,408.333 94.0509,402.833 68,373.5C 53.5794,352.757 50.5794,330.424 59,306.5C 69.8401,282.687 88.0067,268.354 113.5,263.5 Z"/></g>
<g><path style="opacity:1" fill="#020202" d="M 375.5,264.5 C 417.915,261.119 444.749,279.786 456,320.5C 459.32,354.705 445.82,379.539 415.5,395C 379.964,407.265 351.464,398.098 330,367.5C 312.402,331.738 318.902,301.238 349.5,276C 357.649,270.754 366.315,266.921 375.5,264.5 Z"/></g>
<g><path style="opacity:1" fill="#36464e" d="M 113.5,281.5 C 144.851,279.37 164.684,293.37 173,323.5C 175.356,355.793 160.856,375.626 129.5,383C 103.999,385.005 85.8325,374.505 75,351.5C 65.7025,315.748 78.5359,292.415 113.5,281.5 Z"/></g>
<g><path style="opacity:1" fill="#36464e" d="M 378.5,281.5 C 409.864,278.915 430.03,292.582 439,322.5C 441.909,348.187 432.076,367.021 409.5,379C 384.62,388.367 363.787,382.867 347,362.5C 334.765,343.001 334.432,323.334 346,303.5C 354.292,292.281 365.126,284.947 378.5,281.5 Z"/></g>
<g><path style="opacity:1" fill="#020202" d="M 247.5,340.5 C 287.486,340.059 312.653,359.059 323,397.5C 326.357,434.747 310.857,460.247 276.5,474C 243.057,482.523 216.557,472.689 197,444.5C 179.919,410.434 185.419,380.6 213.5,355C 223.872,347.64 235.206,342.807 247.5,340.5 Z"/></g>
<g><path style="opacity:1" fill="#36464e" d="M 244.5,358.5 C 276.427,355.291 296.927,368.957 306,399.5C 308.34,432.325 293.507,452.492 261.5,460C 239.465,461.733 222.632,453.233 211,434.5C 198.364,407.213 203.864,384.38 227.5,366C 233.032,362.894 238.699,360.394 244.5,358.5 Z"/></g>
<g><path style="opacity:1" fill="#6f6f6f" d="M 357.5,432.5 C 338.603,444.585 326.27,461.585 320.5,483.5C 318.972,484.861 317.305,486.028 315.5,487C 310.837,487.946 306.17,488.779 301.5,489.5C 303.661,483.536 305.828,477.536 308,471.5C 318.034,450.24 334.534,437.24 357.5,432.5 Z"/></g>
</svg>
