<svg height="512pt" viewBox="0 0 512.00001 512" width="512pt" xmlns="http://www.w3.org/2000/svg"><path d="m256 512h240.285156c4.167969 0 8.164063-1.65625 11.113282-4.601562 2.945312-2.949219 4.601562-6.945313 4.601562-11.113282 0-6.480468-3.980469-12.292968-10.019531-14.644531l-100.253907-39.007813c-8.851562-3.453124-15.171874-11.382812-16.570312-20.78125-1.394531-9.398437 2.351562-18.820312 9.816406-24.699218 32.792969-25.597656 72.890625-69.710938 72.890625-132.324219 0-61.792969-52.964843-264.828125-211.863281-264.828125s-211.863281 203.035156-211.863281 264.828125c0 62.613281 40.097656 106.726563 72.890625 132.324219 7.464844 5.878906 11.210937 15.300781 9.816406 24.699218-1.398438 9.398438-7.71875 17.328126-16.570312 20.78125l-100.253907 38.992188c-6.039062 2.347656-10.019531 8.164062-10.019531 14.644531-.00390625 4.171875 1.648438 8.171875 4.597656 11.121094 2.945313 2.953125 6.945313 4.609375 11.117188 4.609375zm0 0" fill="#894b9d"/><path d="m185.378906 485.515625c-4.875 0-8.828125-3.949219-8.828125-8.824219 0-64.707031 27.878907-93.335937 29.070313-94.519531 3.453125-3.355469 8.960937-3.324219 12.375.070313 3.417968 3.398437 3.480468 8.90625.140625 12.378906-.546875.574218-23.929688 25.632812-23.929688 82.070312 0 4.875-3.953125 8.824219-8.828125 8.824219zm0 0" fill="#f3d55b"/><path d="m326.621094 485.515625c-4.875 0-8.828125-3.949219-8.828125-8.824219 0-56.808594-23.703125-81.832031-23.941407-82.097656-3.335937-3.476562-3.269531-8.984375.148438-12.378906 3.417969-3.390625 8.925781-3.417969 12.378906-.058594 1.191406 1.199219 29.070313 29.828125 29.070313 94.535156 0 4.875-3.953125 8.824219-8.828125 8.824219zm0 0" fill="#f3d55b"/><path d="m256 61.792969c70.621094 0 132.414062 52.964843 132.414062 158.898437 0 105.929688-74.867187 176.550782-132.414062 176.550782s-132.414062-70.621094-132.414062-176.550782c0-105.933594 61.792968-158.898437 132.414062-158.898437zm0 0" fill="#b49aca"/><g fill="#3d324c"><path d="m256 308.964844h-10.132812c-1.746094 0-3.382813.839844-4.398438 2.253906-1.019531 1.417969-1.292969 3.234375-.742188 4.886719l15.273438 45.824219 15.273438-45.824219c.550781-1.652344.277343-3.46875-.742188-4.886719-1.015625-1.414062-2.652344-2.253906-4.398438-2.253906zm0 0"/><path d="m279.375 250.589844c-4.101562-2.261719-8.714844-3.4375-13.398438-3.417969h-22.679687c-3.066406-.011719-6.082031.785156-8.738281 2.3125-14.894532 9.050781-31.78125 14.316406-49.179688 15.34375-8.8125.742187-17.671875.742187-26.480468 0 15.714843 10.597656 34.03125 16.703125 52.964843 17.65625 10.699219-.097656 21.210938-2.855469 30.578125-8.035156 8.453125-4.597657 18.664063-4.597657 27.117188 0 9.367187 5.179687 19.878906 7.9375 30.578125 8.035156 18.933593-.953125 37.25-7.058594 52.964843-17.65625-8.808593.742187-17.667968.742187-26.480468 0-16.65625-.917969-32.855469-5.800781-47.246094-14.238281zm0 0"/><path d="m273.65625 150.070312c-2.925781-.003906-5.660156-1.457031-7.300781-3.878906s-1.976563-5.5-.890625-8.214844c13.898437-30.898437 44.941406-50.472656 78.8125-49.699218 4.875 0 8.824218 3.949218 8.824218 8.824218 0 4.878907-3.949218 8.828126-8.824218 8.828126-26.65625-.730469-51.195313 14.445312-62.4375 38.621093-1.351563 3.335938-4.585938 5.519531-8.183594 5.519531zm0 0"/><path d="m238.34375 150.070312c-3.601562 0-6.84375-2.1875-8.191406-5.527343-11.242188-24.171875-35.777344-39.347657-62.429688-38.613281-4.875 0-8.824218-3.949219-8.824218-8.828126 0-4.875 3.949218-8.824218 8.824218-8.824218 33.871094-.78125 64.917969 18.789062 78.824219 49.679687 1.089844 2.722657.757813 5.804688-.886719 8.234375-1.640625 2.425782-4.382812 3.878906-7.316406 3.878906zm0 0"/><path d="m344.277344 185.378906c-1.367188 0-2.714844-.316406-3.9375-.925781l-21.574219-10.789063c-5.660156-2.820312-12.394531-2.398437-17.65625 1.105469l-13.691406 9.125c-4.058594 2.707031-9.539063 1.613281-12.246094-2.445312-2.703125-4.054688-1.609375-9.535157 2.445313-12.242188l13.691406-9.128906c10.546875-7.019531 24.046875-7.859375 35.382812-2.207031l21.558594 10.78125c3.671875 1.828125 5.597656 5.949218 4.648438 9.9375-.945313 3.992187-4.519532 6.804687-8.621094 6.789062zm0 0"/><path d="m167.722656 185.378906c-4.097656.007813-7.664062-2.808594-8.605468-6.796875-.945313-3.988281.984374-8.101562 4.652343-9.929687l21.609375-10.78125c11.335938-5.652344 24.835938-4.8125 35.382813 2.207031l13.699219 9.128906c4.054687 2.707031 5.152343 8.1875 2.445312 12.242188-2.707031 4.058593-8.1875 5.152343-12.246094 2.445312l-13.734375-9.109375c-5.261719-3.5-11.996093-3.921875-17.65625-1.101562l-21.597656 10.8125c-1.230469.597656-2.582031.898437-3.949219.882812zm0 0"/></g></svg>