<?xml version="1.0" encoding="iso-8859-1"?>
<!-- Generator: Adobe Illustrator 19.0.0, SVG Export Plug-In . SVG Version: 6.00 Build 0)  -->
<svg version="1.1" id="Capa_1" xmlns="http://www.w3.org/2000/svg" xmlns:xlink="http://www.w3.org/1999/xlink" x="0px" y="0px"
	 viewBox="0 0 512.002 512.002" style="enable-background:new 0 0 512.002 512.002;" xml:space="preserve">
<path style="fill:#484655;" d="M457.732,233.944l-27.921-87.283c-19.094-59.69-62.14-109.193-118.098-135.815
	c-7.351-3.497-13.3-5.83-18.191-7.132c-18.808-5.006-57.117-4.94-75.91,0.13c-4.885,1.318-10.826,3.672-18.165,7.194
	C143.58,37.851,100.705,87.502,81.815,147.258l-27.622,87.378c-8.667,27.417-0.334,57.422,21.228,76.444l73.701,65.02
	c-18.181,15.645-28.796,38.481-28.796,62.765v65.637c0,4.143,3.358,7.5,7.5,7.5h256.351c4.143,0,7.5-3.357,7.5-7.5v-65.637
	c0-24.282-10.614-47.12-28.798-62.766l73.891-65.641C458.265,291.363,466.493,261.329,457.732,233.944z"/>
<g>
	<path style="fill:#35343F;" d="M457.732,233.944l-27.921-87.283c-19.094-59.69-62.14-109.193-118.098-135.815
		c-7.351-3.497-13.3-5.83-18.191-7.132c-11.125-2.961-29.073-4.147-45.77-3.573c10.382,0.386,20.189,1.574,27.123,3.573
		c4.516,1.302,10.008,3.635,16.794,7.132c51.659,26.622,91.397,76.125,109.025,135.815l25.776,87.283
		c8.089,27.386,0.491,57.42-19.354,76.516L338.903,376.1c16.787,15.646,26.586,38.483,26.586,62.766v65.637
		c0,4.143-3.099,7.5-6.924,7.5h25.612c4.143,0,7.5-3.357,7.5-7.5v-65.637c0-24.282-10.614-47.12-28.798-62.766l73.891-65.641
		C458.265,291.363,466.493,261.329,457.732,233.944z"/>
	<path style="fill:#35343F;" d="M402.917,301.107L256,433.974L109.085,301.107c-3.652-3.303-4.759-8.584-2.731-13.07
		c0.022-0.048,0.043-0.096,0.065-0.144c4.76-10.529,13.999-30.238,24.669-48.887c4.11-7.2,8.44-14.249,12.809-20.549
		c7.21-10.409,14.509-18.779,21.109-22.439c39.778-22.089,142.213-22.089,181.99,0c6.6,3.66,13.899,12.029,21.109,22.439
		c4.37,6.3,8.7,13.349,12.809,20.549c10.669,18.649,19.909,38.358,24.669,48.887c0.022,0.048,0.043,0.096,0.065,0.144
		C407.675,292.523,406.568,297.804,402.917,301.107z"/>
</g>
<g>
	<path style="fill:#FA9E3E;" d="M298.098,363.879v-96.136h-84.196v96.28l-10.641,0.018c-7.36,0.013-14.463,1.099-21.184,3.078
		L256,433.973l74.228-67.13c-6.706-1.942-13.786-2.997-21.119-2.984L298.098,363.879z"/>
	<path style="fill:#FA9E3E;" d="M400.426,276.753c-5.047-10.658-11.911-24.464-19.512-37.748
		c-2.941-5.152-5.995-10.221-9.095-14.999h-35.033v56.607h49.367C391.363,280.612,396.237,279.203,400.426,276.753z"/>
	<path style="fill:#FA9E3E;" d="M131.087,239.004c-7.601,13.284-14.465,27.09-19.512,37.748c4.189,2.451,9.063,3.86,14.272,3.86
		h49.367v-56.607h-35.033C137.082,228.784,134.028,233.854,131.087,239.004z"/>
</g>
<path style="fill:#F0EEEE;" d="M346.995,196.017c-39.778-22.089-142.212-22.089-181.99,0c-6.6,3.66-13.899,12.029-21.109,22.439
	v12.239c0,17.939,4.21,34.888,11.699,49.917c18.359,36.858,56.427,62.187,100.405,62.187s82.046-25.329,100.405-62.187
	c7.49-15.029,11.699-31.978,11.699-49.917v-12.239C360.895,208.046,353.595,199.676,346.995,196.017z"/>
<g>
	<path style="fill:#D9D4D4;" d="M346.995,196.017c-39.778-22.089-142.212-22.089-181.99,0c-4.378,2.428-9.065,6.937-13.828,12.73
		c55.134-9.646,136.739-20.973,209.534,62.045c4.771-12.449,7.394-25.963,7.394-40.096v-12.239
		C360.895,208.046,353.595,199.676,346.995,196.017z"/>
	<path style="fill:#D9D4D4;" d="M346.995,196.017c-0.718-0.399-1.462-0.788-2.22-1.172v47.512c0,53.532-41.88,97.276-94.662,100.273
		c0.329,0.017,0.656,0.039,0.985,0.053c0.431,0.019,0.862,0.038,1.295,0.052c1.198,0.038,2.399,0.065,3.607,0.065l0,0
		c0.004,0,0.007,0,0.011,0c1.221,0,2.436-0.027,3.648-0.066c0.335-0.011,0.668-0.024,1.002-0.038
		c1.003-0.041,2.002-0.095,2.998-0.162c0.231-0.015,0.463-0.027,0.694-0.044c1.193-0.088,2.38-0.196,3.563-0.321
		c0.286-0.03,0.57-0.065,0.855-0.098c0.206-0.023,0.41-0.053,0.616-0.078c0.751-0.089,1.501-0.18,2.247-0.284
		c0.294-0.041,0.589-0.08,0.882-0.124c0.463-0.068,0.922-0.152,1.383-0.225c0.71-0.114,1.422-0.22,2.128-0.347
		c0.154-0.028,0.307-0.06,0.461-0.088c0.563-0.104,1.121-0.223,1.681-0.336c0.462-0.093,0.927-0.179,1.387-0.277
		c0.302-0.065,0.603-0.13,0.904-0.197c1.083-0.241,2.161-0.494,3.232-0.766c0.072-0.018,0.144-0.034,0.216-0.053
		c1.148-0.294,2.288-0.611,3.422-0.94c0.271-0.079,0.54-0.16,0.81-0.241c0.944-0.282,1.883-0.576,2.816-0.882
		c0.208-0.068,0.418-0.134,0.626-0.203c0.196-0.066,0.388-0.139,0.583-0.206c0.918-0.313,1.833-0.629,2.74-0.965
		c0.192-0.071,0.383-0.146,0.574-0.218c0.936-0.352,1.866-0.717,2.791-1.094c0.241-0.098,0.482-0.195,0.722-0.295
		c1.094-0.455,2.181-0.922,3.257-1.41c0.008-0.004,0.017-0.008,0.025-0.012c0.461-0.209,0.913-0.434,1.37-0.65
		c0.589-0.277,1.181-0.55,1.765-0.837c0.234-0.115,0.467-0.231,0.7-0.348c0.967-0.484,1.928-0.979,2.879-1.491
		c0.079-0.042,0.159-0.083,0.238-0.126c1.04-0.562,2.069-1.143,3.089-1.736c0.191-0.111,0.381-0.225,0.571-0.338
		c0.868-0.512,1.729-1.036,2.583-1.571c0.17-0.106,0.341-0.211,0.51-0.319c0.999-0.634,1.987-1.281,2.964-1.945
		c0.097-0.066,0.192-0.134,0.289-0.2c0.101-0.069,0.199-0.142,0.299-0.211c0.772-0.532,1.539-1.071,2.297-1.622
		c0.191-0.139,0.383-0.278,0.573-0.418c0.002-0.001,0.004-0.003,0.006-0.005c1.887-1.389,3.728-2.836,5.522-4.338
		c0.177-0.148,0.352-0.297,0.527-0.446c0.805-0.683,1.602-1.375,2.387-2.08c0.091-0.082,0.184-0.161,0.274-0.243
		c0.203-0.183,0.398-0.375,0.6-0.56c0.671-0.615,1.341-1.231,1.997-1.862c0.127-0.123,0.253-0.247,0.38-0.371
		c0.488-0.474,0.965-0.96,1.445-1.443c0.243-0.245,0.492-0.484,0.733-0.732c0.144-0.147,0.289-0.294,0.432-0.443
		c0.552-0.572,1.09-1.157,1.63-1.741c0.268-0.288,0.543-0.57,0.807-0.862c0.025-0.028,0.049-0.056,0.074-0.083
		c0.67-0.742,1.325-1.498,1.975-2.258c0.083-0.097,0.17-0.191,0.253-0.289c0.148-0.174,0.296-0.349,0.443-0.524
		c0.004-0.004,0.007-0.009,0.011-0.013c1.506-1.793,2.957-3.634,4.35-5.521c0.004-0.005,0.008-0.01,0.012-0.016
		c0.124-0.168,0.246-0.337,0.369-0.506c0.344-0.472,0.677-0.953,1.014-1.43c0.267-0.379,0.541-0.752,0.804-1.135
		c0.085-0.124,0.172-0.245,0.256-0.369c0.673-0.988,1.332-1.987,1.974-2.997c0.069-0.108,0.136-0.218,0.204-0.327
		c0.571-0.905,1.128-1.819,1.674-2.742c0.104-0.175,0.208-0.35,0.311-0.526c1.197-2.048,2.329-4.139,3.397-6.267
		c0.005-0.009,0.01-0.018,0.014-0.028c0.104-0.207,0.207-0.414,0.309-0.622c0.3-0.607,0.592-1.219,0.881-1.833
		c0.035-0.074,0.072-0.147,0.106-0.221c0.11-0.235,0.221-0.47,0.33-0.706c0.33-0.718,0.652-1.441,0.967-2.167
		c0.085-0.196,0.173-0.391,0.257-0.587c0.782-1.829,1.516-3.682,2.203-5.559c0.018-0.049,0.037-0.096,0.055-0.145
		c0.027-0.075,0.053-0.151,0.08-0.226c0.313-0.867,0.616-1.738,0.908-2.614c0.079-0.236,0.153-0.474,0.23-0.71
		c0.236-0.723,0.466-1.449,0.688-2.178c0.085-0.28,0.168-0.562,0.251-0.843c0.165-0.559,0.322-1.121,0.479-1.684
		c0.041-0.148,0.086-0.295,0.126-0.444c0.076-0.279,0.152-0.558,0.227-0.837c0.199-0.751,0.389-1.505,0.573-2.262
		c0.056-0.231,0.115-0.462,0.169-0.694c0.22-0.933,0.429-1.87,0.626-2.812c0.011-0.053,0.023-0.105,0.034-0.158
		c0.029-0.138,0.052-0.278,0.08-0.416c0.388-1.908,0.73-3.833,1.02-5.776c0.004-0.026,0.009-0.053,0.013-0.079
		c0.02-0.137,0.038-0.274,0.058-0.411c0.057-0.393,0.104-0.789,0.157-1.183c0.067-0.502,0.139-1.003,0.199-1.507
		c0.026-0.214,0.049-0.43,0.074-0.645c0.096-0.84,0.183-1.683,0.26-2.529c0.02-0.222,0.04-0.445,0.059-0.668
		c0.025-0.297,0.043-0.596,0.066-0.893c0.045-0.58,0.092-1.16,0.128-1.743c0.011-0.176,0.023-0.351,0.033-0.527
		c0.043-0.756,0.072-1.515,0.1-2.274c0.01-0.279,0.029-0.556,0.037-0.836c0-0.015,0.001-0.03,0.002-0.045
		c0.032-1.11,0.049-2.225,0.049-3.343V218.45C360.895,208.046,353.595,199.676,346.995,196.017z"/>
</g>
<g>
	<path style="fill:#19303F;" d="M256,325.51c-4.142,0-7.5-3.357-7.5-7.5v-9.999c0-4.143,3.358-7.5,7.5-7.5
		c4.143,0,7.5,3.357,7.5,7.5v9.999C263.5,322.153,260.143,325.51,256,325.51z"/>
	<path style="fill:#19303F;" d="M280.943,297.337c-1.419,0-2.827-0.402-4.052-1.188L256,282.736l-20.89,13.412
		c-1.98,1.273-4.443,1.54-6.651,0.725l-26.556-9.808c-3.885-1.435-5.872-5.748-4.437-9.634c1.436-3.886,5.748-5.871,9.633-4.437
		l23.05,8.514l21.797-13.995c2.47-1.586,5.636-1.584,8.104-0.001l21.798,13.996l23.05-8.514c3.887-1.435,8.199,0.552,9.633,4.437
		c1.436,3.886-0.551,8.199-4.437,9.634l-26.556,9.808C282.698,297.183,281.819,297.337,280.943,297.337z"/>
	<path style="fill:#19303F;" d="M337.496,221.848c-1.919,0-3.839-0.732-5.304-2.196c-10.858-10.86-28.531-10.86-39.391,0
		c-2.93,2.928-7.678,2.928-10.606,0c-2.929-2.93-2.929-7.678,0-10.606c16.71-16.708,43.895-16.708,60.604,0
		c2.929,2.93,2.929,7.678,0,10.606C341.335,221.116,339.415,221.848,337.496,221.848z"/>
	<path style="fill:#19303F;" d="M224.502,221.848c-1.919,0-3.839-0.732-5.303-2.196c-10.859-10.86-28.531-10.86-39.392,0
		c-2.929,2.928-7.678,2.929-10.605-0.001c-2.929-2.929-2.929-7.678,0-10.605c16.708-16.708,43.895-16.708,60.603,0
		c2.929,2.929,2.929,7.678,0,10.605C228.341,221.116,226.422,221.848,224.502,221.848z"/>
</g>
<path style="fill:#F0EEEE;" d="M422.216,405.954c-0.024-13.637-11.124-24.715-24.757-24.715c-0.014,0-0.029,0-0.043,0l-138.81,0.238
	c-6.613,0.012-12.825,2.598-17.493,7.282c-4.668,4.684-7.233,10.905-7.222,17.518l0.169,98.236c0.003,1.989,0.797,3.896,2.206,5.3
	c1.406,1.401,3.31,2.188,5.294,2.188c0.004,0,0.009,0,0.013,0l173.325-0.298c1.989-0.004,3.896-0.797,5.3-2.206
	c1.404-1.409,2.191-3.317,2.188-5.307L422.216,405.954z"/>
<path style="fill:#D9D4D4;" d="M422.216,405.954c-0.024-13.637-11.124-24.715-24.757-24.715c-0.014,0-0.029,0-0.043,0l-23.058,0.04
	c12.998,0.712,23.366,11.497,23.389,24.675l0.169,98.236c0.003,1.989-0.784,3.897-2.188,5.307c-1.404,1.409-3.311,2.202-5.3,2.206
	l-149.636,0.257c0.254,0.026,0.51,0.041,0.768,0.041c0.004,0,0.009,0,0.013,0l173.325-0.298c1.989-0.004,3.896-0.797,5.3-2.206
	c1.404-1.409,2.191-3.317,2.188-5.307L422.216,405.954z"/>
<path style="fill:#484655;" d="M322.187,474.022c-1.92,0-3.839-0.732-5.304-2.197c-2.929-2.929-2.929-7.678,0.001-10.605l7.1-7.1
	h-9.796c-3.033,0-5.769-1.827-6.929-4.63c-1.161-2.803-0.52-6.028,1.625-8.174l19.903-19.903c2.93-2.928,7.678-2.928,10.607,0
	c2.929,2.93,2.929,7.678,0,10.606l-7.102,7.101h9.797c3.033,0,5.769,1.827,6.929,4.63c1.161,2.803,0.52,6.028-1.626,8.174
	l-19.903,19.902C326.026,473.29,324.106,474.022,322.187,474.022z"/>
<g>
</g>
<g>
</g>
<g>
</g>
<g>
</g>
<g>
</g>
<g>
</g>
<g>
</g>
<g>
</g>
<g>
</g>
<g>
</g>
<g>
</g>
<g>
</g>
<g>
</g>
<g>
</g>
<g>
</g>
</svg>
