<?xml version="1.0" encoding="iso-8859-1"?>
<!-- Generator: Adobe Illustrator 19.0.0, SVG Export Plug-In . SVG Version: 6.00 Build 0)  -->
<svg version="1.1" id="Layer_1" xmlns="http://www.w3.org/2000/svg" xmlns:xlink="http://www.w3.org/1999/xlink" x="0px" y="0px"
	 viewBox="0 0 512 512" style="enable-background:new 0 0 512 512;" xml:space="preserve">
<path style="fill:#424242;" d="M50.011,210.112c-23.463-46.065-14.649-101.591,21.93-138.171
	c36.579-36.578,92.106-45.392,138.17-21.931l-14.228,27.936c-33.927-17.279-74.826-10.785-101.774,16.162
	c-26.947,26.948-33.442,67.847-16.162,101.775L50.011,210.112z"/>
<path style="fill:#EAEAEA;" d="M281.254,37.872L212.818,9.525l-42.06,101.542l68.437,28.347
	c1.178,52.393,32.66,101.673,84.187,123.016c69.592,28.826,149.375-4.222,178.201-73.813S497.36,39.242,427.769,10.416
	C376.243-10.927,319.135,1.657,281.254,37.872z M453.502,168.702c-17.799,42.969-67.236,63.448-110.205,45.649
	s-63.448-67.237-45.649-110.206s67.236-63.447,110.206-45.649C450.823,76.294,471.301,125.732,453.502,168.702z"/>
<path style="fill:#C2C2C2;" d="M427.77,10.416c-51.527-21.344-108.634-8.759-146.515,27.456L212.818,9.525l-42.06,101.542
	l68.437,28.347c0.015,0.643,0.054,1.283,0.078,1.926c1.507,13.459,13.166,23.676,26.918,23.157
	c13.732-0.518,24.599-11.553,25.119-25.06c-0.438-11.739,1.557-23.747,6.339-35.291c17.799-42.969,67.236-63.447,110.205-45.649
	s63.447,67.236,45.648,110.205c-0.187,0.452-0.398,0.887-0.593,1.334c-4.53,12.972,1.806,27.378,14.66,32.702
	c12.579,5.21,26.893-0.145,33.093-11.975c0.309-0.714,0.622-1.424,0.921-2.146C530.409,119.025,497.361,39.242,427.77,10.416z"/>
<circle style="fill:#424242;" cx="243.021" cy="81.512" r="15.248"/>
<path style="fill:#C2C2C2;" d="M10.416,427.769c28.826,69.592,108.609,102.639,178.201,73.813s102.639-108.609,73.813-178.201
	c-21.344-51.527-70.623-83.009-123.016-84.187l-28.347-68.438L9.525,212.817l28.347,68.436
	C1.657,319.135-10.927,376.242,10.416,427.769z M58.497,407.854c-17.799-42.969,2.679-92.407,45.649-110.206
	c42.969-17.799,92.407,2.679,110.206,45.649c17.798,42.968-2.679,92.406-45.649,110.205S76.295,450.823,58.497,407.854z"/>
<path style="fill:#EAEAEA;" d="M202.716,467.577c-5.447-13.15-20.42-19.458-33.608-14.256c-0.137,0.057-0.269,0.123-0.407,0.181
	c-42.969,17.799-92.406-2.679-110.205-45.648c-17.799-42.969,2.679-92.407,45.649-110.206c11.157-4.621,22.748-6.641,34.111-6.378
	c14.029,0.1,25.693-10.962,26.226-25.08c0.525-13.902-9.936-25.669-23.622-26.939c-0.482-0.016-0.962-0.048-1.445-0.059
	l-28.348-68.437L9.525,212.817l28.347,68.436c-36.215,37.881-48.798,94.989-27.456,146.515
	c28.826,69.592,108.609,102.639,178.201,73.813c0.44-0.182,0.872-0.375,1.309-0.562
	C202.317,495.085,208.038,480.423,202.716,467.577z"/>
<circle style="fill:#424242;" cx="81.512" cy="243.021" r="15.248"/>
<g>
</g>
<g>
</g>
<g>
</g>
<g>
</g>
<g>
</g>
<g>
</g>
<g>
</g>
<g>
</g>
<g>
</g>
<g>
</g>
<g>
</g>
<g>
</g>
<g>
</g>
<g>
</g>
<g>
</g>
</svg>
