<?xml version="1.0" encoding="iso-8859-1"?>
<!-- Generator: Adobe Illustrator 19.0.0, SVG Export Plug-In . SVG Version: 6.00 Build 0)  -->
<svg version="1.1" id="Capa_1" xmlns="http://www.w3.org/2000/svg" xmlns:xlink="http://www.w3.org/1999/xlink" x="0px" y="0px"
	 viewBox="0 0 512 512" style="enable-background:new 0 0 512 512;" xml:space="preserve">
<path style="fill:#FF4F19;" d="M256,260.382v-115.3c0-55.6-50.3-98.1-105-88.1c-38.7,7-67.5,28.3-91.1,64.9
	c-9.1,14.1-16.8,28.9-24.2,43.9c-1.3,2.6,1.1,5.5,3.8,4.8l34.5-8.7c22.8-5.8,45,11.5,45,35v167.4h137V260.382z"/>
<path style="fill:#3777D3;" d="M256,145.082v219.1h-68.8v-187.1c0-47.5-42.9-83.8-89.7-75.3c-11.3,2-21.5,5.5-31,10.4
	c22.3-30.7,49.4-48.9,84.5-55.2C205.7,46.982,256,89.482,256,145.082z"/>
<path style="fill:#E23D17;" d="M95.7,162.882c13.5,5,23.6,18.1,23.6,33.9v167.4h26v-167.4c0-23.6-22.2-40.8-45-35.1L95.7,162.882z"
	/>
<path style="fill:#2468BA;" d="M127.9,101.782c-0.7,0.1-1.3,0.2-2,0.4c34,7.2,60.6,37.6,60.6,74.9v187.2h31.1v-187.2
	C217.6,129.582,174.6,93.282,127.9,101.782z"/>
<path style="fill:#FF4F19;" d="M387.8,456.482H124.2c-2.8,0-5.1-2.3-5.1-5.1v-46.6h273.8v46.6
	C392.9,454.182,390.6,456.482,387.8,456.482z"/>
<path style="fill:#E23D17;" d="M392.9,404.782v46.6c0,2.8-2.3,5.1-5.1,5.1h-26.5c2.8,0,5.1-2.3,5.1-5.1v-46.6H392.9z"/>
<path style="fill:#3777D3;" d="M256,260.382v-115.3c0-55.6,50.3-98.1,105-88.1c38.7,7,67.5,28.3,91.1,64.9
	c9.1,14.1,16.8,28.9,24.2,43.9c1.3,2.6-1.1,5.5-3.8,4.8l-34.5-8.7c-22.8-5.8-45,11.5-45,35v167.4H256V260.382z"/>
<path style="fill:#2468BA;" d="M416.5,162.882c-13.5,5-23.6,18.1-23.6,33.9v167.4h-26v-167.4c0-23.6,22.2-40.8,45-35.1
	L416.5,162.882z"/>
<path style="fill:#FF4F19;" d="M256,145.082v219.1h68.8v-187.1c0-47.5,42.9-83.8,89.7-75.3c11.3,2,21.5,5.5,31,10.4
	c-22.3-30.7-49.4-48.9-84.5-55.2C306.3,46.982,256,89.482,256,145.082z"/>
<path style="fill:#E23D17;" d="M383.3,101.782c0.7,0.1,1.3,0.2,2,0.4c-34,7.2-60.6,37.6-60.6,74.9v187.2h-31.1v-187.2
	C293.7,129.582,336.6,93.282,383.3,101.782z"/>
<circle style="fill:#FFDBA9;" cx="485.7" cy="175.582" r="26.3"/>
<path style="fill:#FFC473;" d="M512,175.582c0,14.5-11.7,26.3-26.3,26.3c-11,0-20.5-6.8-24.3-16.4c3,1.2,6.4,1.9,9.8,1.9
	c14.5,0,26.3-11.8,26.3-26.3c0-3.5-0.7-6.8-1.9-9.8C505.2,155.182,512,164.582,512,175.582z"/>
<path style="fill:#FFDBA9;" d="M320.1,329.582l-60.3-65.2c-2-2.2-5.5-2.2-7.5,0l-60.3,65.2c-2,2.2-5.5,2.2-7.5,0l-65.3-69.3v144.7
	H393v-144.6l-65.3,69.3C325.5,331.782,322.1,331.782,320.1,329.582z"/>
<polygon style="fill:#FFC473;" points="392.9,260.382 392.9,405.082 366.3,405.082 366.3,288.582 "/>
<circle style="fill:#FFDBA9;" cx="26.3" cy="175.582" r="26.3"/>
<path style="fill:#FFC473;" d="M52.5,175.582c0,14.5-11.7,26.3-26.3,26.3c-11,0-20.5-6.8-24.3-16.4c3,1.2,6.4,1.9,9.8,1.9
	c14.5,0,26.3-11.8,26.3-26.3c0-3.5-0.7-6.8-1.9-9.8C45.7,155.182,52.5,164.582,52.5,175.582z"/>
<g>
</g>
<g>
</g>
<g>
</g>
<g>
</g>
<g>
</g>
<g>
</g>
<g>
</g>
<g>
</g>
<g>
</g>
<g>
</g>
<g>
</g>
<g>
</g>
<g>
</g>
<g>
</g>
<g>
</g>
</svg>
