<?xml version="1.0" encoding="iso-8859-1"?>
<!-- Generator: Adobe Illustrator 19.0.0, SVG Export Plug-In . SVG Version: 6.00 Build 0)  -->
<svg version="1.1" id="Layer_1" xmlns="http://www.w3.org/2000/svg" xmlns:xlink="http://www.w3.org/1999/xlink" x="0px" y="0px"
	 viewBox="0 0 511.978 511.978" style="enable-background:new 0 0 511.978 511.978;" xml:space="preserve">
<path style="fill:#434A54;" d="M460.278,386.295l-1.812-0.531c-26.484-7.109-35.437-13.937-47.233-18.421
	c-41.811-15.938-52.685-27.405-55.466-32.827c-0.109-0.203-0.188-0.406-0.266-0.609H156.477c-0.078,0.203-0.156,0.406-0.266,0.609
	c-2.781,5.422-13.655,16.89-55.467,32.827c-11.796,4.484-20.749,11.312-47.232,18.421l-1.812,0.531
	c-24.093,7.967-40.311,30.326-40.311,55.545v70.138h244.6h244.6V441.84C500.589,416.621,484.385,394.262,460.278,386.295z"/>
<polygon style="fill:#CCD1D9;" points="284.879,332.234 188.179,368.389 168.18,390.919 256.192,503.915 338.064,372.998 "/>
<polygon style="fill:#DA4453;" points="278.941,405.277 234.646,405.277 222.615,471.603 253.755,506.509 289.769,468.056 "/>
<path style="fill:#E6E9ED;" d="M320.002,399.137l40.53-58.653c-2.562-2.438-3.984-4.453-4.766-5.969
	c-0.109-0.203-0.188-0.406-0.266-0.609l-0.343-48.561l-99.168-1.125l-99.168,1.125l-0.344,48.561
	c-0.078,0.203-0.156,0.406-0.266,0.609c-1.688,3.297-6.391,8.844-19.249,16.28l26.765,43.232l28.374,5.109l64.7-46.764
	L320.002,399.137z"/>
<path style="fill:#ED5564;" d="M284.801,359.952c-2.047-2.016-4.812-3.109-7.672-3.047l-42.686,0.812
	c-5.812,0.109-10.469,4.859-10.469,10.672v36.888c0,5.891,4.781,10.672,10.672,10.672h42.686c5.891,0,10.672-4.781,10.672-10.672
	v-37.716C288.004,364.702,286.847,361.952,284.801,359.952z"/>
<path style="fill:#656D78;" d="M360.532,340.484l-103.73,150.15L150.946,340.953c-5.046,4.641-14.155,10.812-30.577,18.265
	l108.027,152.76h27.593h27.968l105.854-153.589C373.984,351.061,365.297,345.015,360.532,340.484z"/>
<path style="fill:#EAC6BB;" d="M393.593,191.365c0,89.402-85.23,171.681-137.604,171.681s-137.604-82.278-137.604-171.681
	S179.991,42.98,255.989,42.98S393.593,101.962,393.593,191.365z"/>
<path style="fill:#CCD1D9;" d="M170.524,272.095c-5.344,10.344-9.047,20.718-9.047,29.562c0,31.483,75.122,82.372,94.512,82.685
	c19.39-0.312,94.513-51.201,94.513-82.685c0-9.03-3.875-19.671-9.406-30.232C327.299,245.019,184.242,245.464,170.524,272.095z"/>
<g>
	<path style="fill:#E6E9ED;" d="M334.002,229.582c15.016-4.609,28.421,6.172,11.141,15.483
		c-34.843,18.812-61.076-51.904-90.591-14.952s17.515,74.184,59.622,70.309c114.558-10.53,66.091-89.199,44.39-88.535
		C341.97,212.387,334.002,229.582,334.002,229.582z"/>
	<path style="fill:#E6E9ED;" d="M177.976,229.582c-15.015-4.609-28.421,6.172-11.14,15.483
		c34.842,18.812,61.075-51.904,90.59-14.952s-17.515,74.184-59.623,70.309c-114.558-10.53-66.091-89.199-44.389-88.535
		C170.009,212.387,177.976,229.582,177.976,229.582z"/>
	<path style="fill:#E6E9ED;" d="M341.111,28.418c-23.406-21.194-104.684-51.639-180.087,0
		c-59.451,40.726-53.451,143.424-53.451,143.424s78.028,19.71,167.384-31.343c57.764-33.007,77.904,0.555,88.247,29.788
		c10.077,28.452,30.389,21.265,30.389,21.265S415.982,96.205,341.111,28.418z"/>
</g>
<path style="fill:#CCD1D9;" d="M315.283,126.875c8.172-0.25,15.016,1.547,20.812,4.75c11.094-40.264,32.951-51.092,42.497-53.951
	c-3.125-6.257-6.733-12.522-10.905-18.726C352.08,65.089,327.424,81.783,315.283,126.875z"/>
<g>
</g>
<g>
</g>
<g>
</g>
<g>
</g>
<g>
</g>
<g>
</g>
<g>
</g>
<g>
</g>
<g>
</g>
<g>
</g>
<g>
</g>
<g>
</g>
<g>
</g>
<g>
</g>
<g>
</g>
</svg>
