<?xml version="1.0" encoding="iso-8859-1"?>
<!-- Uploaded to: SVG Repo, www.svgrepo.com, Generator: SVG Repo Mixer Tools -->
<svg height="800px" width="800px" version="1.1" id="Layer_1" xmlns="http://www.w3.org/2000/svg" xmlns:xlink="http://www.w3.org/1999/xlink" 
	 viewBox="0 0 512 512" xml:space="preserve">
<path id="SVGCleanerId_0" style="fill:#7B7B53;" d="M256.811,232.981c0,64.543-55.736,116.865-124.491,116.865
	S7.829,297.524,7.829,232.981c0,25.426,21.957,46.039,49.042,46.039s49.042-20.612,49.042-46.039
	c0-39.118,33.779-70.828,75.449-70.828S256.811,193.864,256.811,232.981z"/>
<g>
	<path id="SVGCleanerId_0_1_" style="fill:#7B7B53;" d="M256.811,232.981c0,64.543-55.736,116.865-124.491,116.865
		S7.829,297.524,7.829,232.981c0,25.426,21.957,46.039,49.042,46.039s49.042-20.612,49.042-46.039
		c0-39.118,33.779-70.828,75.449-70.828S256.811,193.864,256.811,232.981z"/>
</g>
<path style="fill:#5A5A28;" d="M195.958,162.153c-33.16,0-60.041,28.673-60.041,64.044s-33.795,64.044-70.384,64.044
	c-20.006,0-37.899-8.61-50.047-22.164c17.6,45.637,62.955,78.202,116.296,78.202c68.604,0,124.217-53.763,124.217-120.082
	C255.999,190.827,229.118,162.153,195.958,162.153z"/>
<path style="fill:#FFFFFF;" d="M223.802,226.198h-15.658c0-13.34-10.852-24.193-24.193-24.193v-15.658
	C205.924,186.346,223.802,204.224,223.802,226.198z"/>
<path id="SVGCleanerId_1" style="fill:#7B7B53;" d="M255.189,232.981c0,64.543,55.736,116.865,124.491,116.865
	s124.491-52.323,124.491-116.865c0,25.426-21.957,46.039-49.042,46.039c-27.085,0-49.042-20.612-49.042-46.039
	c0-39.118-33.779-70.828-75.449-70.828S255.189,193.864,255.189,232.981z"/>
<g>
	<path id="SVGCleanerId_1_1_" style="fill:#7B7B53;" d="M255.189,232.981c0,64.543,55.736,116.865,124.491,116.865
		s124.491-52.323,124.491-116.865c0,25.426-21.957,46.039-49.042,46.039c-27.085,0-49.042-20.612-49.042-46.039
		c0-39.118-33.779-70.828-75.449-70.828S255.189,193.864,255.189,232.981z"/>
</g>
<path style="fill:#5A5A28;" d="M316.041,162.153c33.16,0,60.041,28.673,60.041,64.044s33.795,64.044,70.384,64.044
	c20.006,0,37.899-8.61,50.047-22.164c-17.6,45.637-62.955,78.202-116.296,78.202c-68.604,0-124.217-53.763-124.217-120.082
	C255.999,190.827,282.881,162.153,316.041,162.153z"/>
<path style="fill:#1D1D1B;" d="M496.342,232.981c0,21.069-18.487,38.209-41.213,38.209c-22.725,0-41.213-17.141-41.213-38.209
	c0-43.371-37.358-78.657-83.277-78.657c-32.682,0-61.012,17.881-74.639,43.821c-13.627-25.941-41.957-43.821-74.639-43.821
	c-45.92,0-83.277,35.285-83.277,78.657c0,21.069-18.488,38.209-41.213,38.209s-41.214-17.142-41.214-38.209H0
	c0,68.757,59.358,124.695,132.32,124.695c56.408,0,104.679-33.441,123.681-80.388c19.002,46.947,67.271,80.388,123.68,80.388
	c72.96,0,132.32-55.939,132.32-124.695H496.342z M132.32,342.018c-47.017,0-87.625-26.127-106.077-63.666
	c8.846,5.375,19.36,8.496,30.628,8.496c31.359,0,56.871-24.164,56.871-53.868c0-34.737,30.334-62.999,67.619-62.999
	c33.561,0,61.476,22.899,66.722,52.804c-0.46,3.34-0.722,6.737-0.722,10.194c0,4.49,0.259,8.923,0.753,13.292
	C241.075,300.149,191.834,342.018,132.32,342.018z M379.68,342.018c-59.514,0-108.756-41.869-115.793-95.746
	c0.494-4.369,0.753-8.802,0.753-13.292c0-3.456-0.263-6.854-0.722-10.194c5.247-29.905,33.161-52.804,66.722-52.804
	c37.286,0,67.619,28.26,67.619,62.999c0,29.703,25.513,53.868,56.871,53.868c11.268,0,21.782-3.12,30.628-8.496
	C467.305,315.889,426.697,342.018,379.68,342.018z"/>
<path style="fill:#FFFFFF;" d="M303.856,226.198h-15.658c0-21.974,17.878-39.851,39.851-39.851v15.658
	C314.709,202.004,303.856,212.857,303.856,226.198z"/>
</svg>