<svg height="464pt" viewBox="0 -104 464 464" width="464pt" xmlns="http://www.w3.org/2000/svg"><path d="m464 208c0-26.507812-103.871094-48-232-48s-232 21.492188-232 48 103.871094 48 232 48 232-21.492188 232-48zm0 0" fill="#5a6470"/><path d="m355.128906 20.351562c-1.800781-11.707031-11.875-20.351562-23.722656-20.351562h-1.007812c-1.578126-.00390625-3.152344.152344-4.703126.464844l-63.710937 12.734375c-9.296875 1.863281-18.757813 2.800781-28.242187 2.800781h-3.484376c-9.484374 0-18.945312-.9375-28.242187-2.800781l-63.617187-12.710938c-1.605469-.324219-3.238282-.488281-4.878907-.488281h-.039062c-12.359375 0-22.867188 9.015625-24.746094 21.230469l-21.351563 138.769531h289.234376zm0 0" fill="#5a6470"/><g fill="#143441"><path d="m87.382812 160-7.382812 48h304l-7.382812-48zm0 0"/><path d="m128 96c-4.417969 0-8-3.582031-8-8s3.582031-8 8-8c48.664062 0 55.832031-39.632812 56.113281-41.320312.820313-4.265626 4.890625-7.097657 9.175781-6.378907 4.285157.714844 7.210938 4.71875 6.597657 9.019531-7.195313 33.460938-37.71875 56.675782-71.886719 54.679688zm0 0"/><path d="m336 96c-34.167969 1.996094-64.691406-21.21875-71.886719-54.679688-.738281-4.355468 2.195313-8.488281 6.550781-9.222656 4.355469-.738281 8.484376 2.195313 9.222657 6.550782.296875 1.6875 7.839843 41.351562 56.113281 41.351562 4.417969 0 8 3.582031 8 8s-3.582031 8-8 8zm0 0"/></g></svg>