<svg height="496pt" viewBox="0 -83 496 495" width="496pt" xmlns="http://www.w3.org/2000/svg"><path d="m216 248.5625v24h-24l32 56h-64c-4.398438 0-8-3.589844-8-8v-32c0-22.078125 17.839844-40 40-40zm0 0" fill="#656d78"/><path d="m216 272.5625 32 56h-24l-32-56zm0 0" fill="#aab2bd"/><path d="m280 272.5625h24l-32 56h-24zm0 0" fill="#aab2bd"/><path d="m304 248.5625c22.078125 0 40 17.921875 40 40v32c0 4.410156-3.601562 8-8 8h-64l32-56h-24v-24zm0 0" fill="#656d78"/><path d="m248 240.578125c11.519531 0 22.398438-2.71875 32-7.511719v7.503906l-32 16-32-16v-7.503906c9.601562 4.792969 20.480469 7.511719 32 7.511719zm0 0" fill="#f5f7fa"/><path d="m248 256.5625-32 16v-32zm0 0" fill="#ed5565"/><path d="m280 248.5625v24l-32-16 32-16zm0 0" fill="#ed5565"/><path d="m280 272.5625-32 56-32-56 32-16zm0 0" fill="#e6e9ed"/><path d="m128 176.5625h-24l-8 16-16-7.917969-16 7.917969-8-16h-24c-13.28125 0-24 10.722656-24 24v32h144v-32c0-13.277344-10.71875-24-24-24zm0 0" fill="#da4453"/><path d="m104 163.140625v13.421875l-8 16-16-7.917969-16 7.917969-8-16v-13.519531c7.28125 3.527343 15.441406 5.457031 24 5.457031s16.640625-1.921875 23.921875-5.457031zm0 0" fill="#ed5565"/><path d="m24 72.578125h112l-.800781-3.605469c15.191406 2.886719 24.800781 7.046875 24.800781 11.605469 0 4.472656-9.199219 8.472656-24 11.363281-14.398438 2.871094-34.160156 4.636719-56 4.636719s-41.601562-1.765625-56-4.636719c-14.800781-2.890625-24-6.890625-24-11.363281 0-4.558594 9.519531-8.71875 24.800781-11.605469zm0 0" fill="#656d78"/><path d="m136 72.578125h-112l.800781-3.605469 15.199219-68.472656c16 0 24 16.078125 40 16.078125s24-16.078125 40-16.078125l15.199219 68.472656zm0 0" fill="#656d78"/><path d="m272 60.730469c28 9.839843 48 36.488281 48 67.839843v8.25l-24-16.25s-16.078125 8-44 8-52-8-52-8l-24 16.25v-8.25c0-31.359374 20-58 48-67.839843 7.519531-2.71875 15.601562-4.160157 24-4.160157s16.480469 1.449219 24 4.160157zm0 0" fill="#e6e9ed"/><g fill="#656d78"><path d="m496 80.578125c0 4.472656-9.199219 8.472656-24 11.363281-14.398438 2.871094-34.160156 4.636719-56 4.636719s-41.601562-1.765625-56-4.636719c-14.800781-2.890625-24-6.890625-24-11.363281 0-4.558594 9.519531-8.71875 24.800781-11.605469l-.800781 3.605469h112l-.800781-3.605469c15.199219 2.886719 24.800781 7.046875 24.800781 11.605469zm0 0"/><path d="m471.199219 68.972656.800781 3.605469h-112l.800781-3.605469 15.199219-68.472656c16 0 24 16.078125 40 16.078125s24-16.078125 40-16.078125zm0 0"/><path d="m464 176.5625h-24l-16.015625 56h64.015625v-32c0-13.277344-10.71875-24-24-24zm0 0"/></g><path d="m455.992188 176.5625-14.855469 24.015625h8.007812l-25.160156 31.984375h-7.984375l17.121094-40 6.878906-16zm0 0" fill="#aab2bd"/><path d="m368 176.5625h24l16.015625 56h-64.015625v-32c0-13.277344 10.71875-24 24-24zm0 0" fill="#656d78"/><path d="m376.007812 176.5625 14.855469 24.015625h-8.007812l25.160156 31.984375h7.984375l-17.121094-40-6.878906-16zm0 0" fill="#aab2bd"/><path d="m433.121094 192.5625-17.121094 40-17.121094-40 17.121094-7.917969zm0 0" fill="#e6e9ed"/><path d="m440 163.140625v13.421875l-6.878906 16-17.121094-7.917969-17.121094 7.917969h-.078125l-6.800781-16v-13.519531c7.28125 3.527343 15.441406 5.457031 24 5.457031s16.640625-1.921875 23.921875-5.457031zm0 0" fill="#f5f7fa"/><path d="m416 96.578125c21.839844 0 41.601562-1.765625 56-4.636719v20.636719c0 22.3125-13.121094 41.59375-32.078125 50.472656-7.28125 3.527344-15.363281 5.457031-23.921875 5.457031s-16.71875-1.917968-24-5.457031c-18.960938-8.871093-32-28.160156-32-50.472656v-20.636719c14.398438 2.871094 34.160156 4.636719 56 4.636719zm0 0" fill="#eac6bb"/><path d="m296 120.578125 24 16.25v31.75c0 28.25-16.320312 52.722656-40 64.488281-9.601562 4.800782-20.480469 7.511719-32 7.511719s-22.398438-2.71875-32-7.511719c-23.601562-11.6875-39.839844-36-40-64.078125v-32.160156l24-16.25s24.078125 8 52 8 44-8 44-8zm0 0" fill="#eac6bb"/><path d="m136 112.578125c0 22.3125-13.121094 41.59375-32.078125 50.472656-7.28125 3.527344-15.363281 5.457031-23.921875 5.457031s-16.71875-1.917968-24-5.457031c-18.960938-8.871093-32-28.160156-32-50.472656v-20.636719c14.398438 2.871094 34.160156 4.636719 56 4.636719s41.601562-1.765625 56-4.636719zm0 0" fill="#eac6bb"/><path d="m213.015625 87.972656c.976563.390625 1.984375.574219 2.984375.574219 3.167969 0 6.167969-1.886719 7.425781-5.015625l10.238281-25.457031c-3.296874.691406-6.535156 1.53125-9.664062 2.65625-3.664062 1.296875-7.183594 2.890625-10.550781 4.722656l-4.863281 12.109375c-1.65625 4.097656.324218 8.753906 4.429687 10.410156zm0 0" fill="#ccd1d9"/><path d="m262.335938 58.074219 10.238281 25.457031c1.257812 3.128906 4.257812 5.015625 7.425781 5.015625 1 0 2.007812-.183594 2.984375-.574219 4.105469-1.65625 6.085937-6.3125 4.441406-10.410156l-4.875-12.109375c-3.359375-1.832031-6.878906-3.425781-10.542969-4.722656-3.136718-1.117188-6.375-1.984375-9.671874-2.65625zm0 0" fill="#ccd1d9"/><path d="m256.007812 88.546875v-31.472656c-2.632812-.292969-5.296874-.503907-8.007812-.503907-2.703125 0-5.359375.203126-7.992188.503907v31.472656c0 4.425781 3.578126 8 8 8 4.425782 0 8-3.574219 8-8zm0 0" fill="#ccd1d9"/><path d="m269.65625 202.90625-7.992188-8c-.734374-.734375-1.625-1.328125-2.609374-1.734375-.976563-.40625-2.015626-.609375-3.054688-.609375h-15.992188c-1.039062 0-2.078124.203125-3.054687.609375-.984375.40625-1.875 1-2.609375 1.734375l-7.992188 8c-3.128906 3.128906-3.128906 8.1875 0 11.3125 1.558594 1.5625 3.609376 2.34375 5.65625 2.34375 2.046876 0 4.097657-.78125 5.65625-2.34375l5.65625-5.65625h9.367188l5.65625 5.65625c1.558594 1.5625 3.609375 2.34375 5.65625 2.34375s4.097656-.78125 5.65625-2.34375c3.128906-3.125 3.128906-8.183594 0-11.3125zm0 0" fill="#e6e9ed"/><path d="m360.800781 68.972656-.792969 3.558594h111.984376l-.792969-3.558594-2.757813-12.441406h-104.882812zm0 0" fill="#ed5565"/><path d="m24.800781 68.972656-.792969 3.558594h111.984376l-.792969-3.558594-2.757813-12.441406h-104.882812zm0 0" fill="#ed5565"/><path d="m32 176.5625h16v56h-16zm0 0" fill="#656d78"/><path d="m112 176.5625h16v56h-16zm0 0" fill="#656d78"/></svg>