<svg height="512pt" viewBox="0 0 512 512" width="512pt" xmlns="http://www.w3.org/2000/svg"><path d="m512 436.566406c0 41.398438-114.582031 75.03125-256 75.03125s-256-33.632812-256-75.03125c.046875-4.714844 1.457031-9.3125 4.0625-13.242187 21.359375 35.132812 125.96875 61.792969 251.9375 61.792969s230.578125-26.660157 251.9375-61.792969c2.566406 3.945312 3.972656 8.535156 4.0625 13.242187zm0 0" fill="#3d324c"/><path d="m507.9375 423.324219c-21.359375 35.132812-125.96875 61.792969-251.9375 61.792969s-230.578125-26.660157-251.9375-61.792969c11.914062-19.597657 49.785156-36.636719 102.929688-47.757813 1.234374-.265625 2.46875-.53125 3.792968-.792968l-1.148437 5.382812c11.125 14.476562 46.699219 26.394531 93.398437 31.515625 17.589844 1.921875 35.269532 2.863281 52.964844 2.824219 17.695312.039062 35.375-.902344 52.964844-2.824219 44.933594-4.945313 79.625-16.15625 92.074218-29.925781l-2.472656-7.503906c2.207032.441406 4.324219.882812 6.441406 1.324218 53.144532 11.210938 91.101563 28.160156 102.929688 47.757813zm0 0" fill="#7d6599"/><path d="m435.816406 185.773438-77.59375-19.332032c-6.277344-1.582031-12.914062.410156-17.285156 5.183594-4.371094 4.777344-5.765625 11.566406-3.636719 17.679688l49.613281 149.625c-24.644531 11.03125-51.023437 17.691406-77.949218 19.6875-17.582032 1.996093-35.269532 2.96875-52.964844 2.914062-17.695312.042969-35.375-.902344-52.964844-2.824219-37.078125-4.152343-67.089844-12.449219-83.507812-22.953125l33.808594-152.363281c3.679687-16.476563 9.808593-32.304687 18.183593-46.964844l73.269531-128c2.765626-4.492187 7.386719-7.519531 12.613282-8.253906 5.222656-.734375 10.503906.902344 14.398437 4.460937l172.316407 166.222657c2.886718 2.777343 3.542968 7.152343 1.597656 10.65625-1.949219 3.5-6.011719 5.25-9.898438 4.261719zm0 0" fill="#3d324c"/><path d="m435.816406 185.773438-77.59375-19.332032c-6.277344-1.582031-12.914062.410156-17.285156 5.183594-4.371094 4.777344-5.765625 11.566406-3.636719 17.679688l49.613281 149.625c-24.644531 11.03125-51.023437 17.691406-77.949218 19.6875-6.355469.707031-12.886719 1.324218-19.597656 1.765624-2.734376.265626-5.472657.351563-8.296876.53125l-55.085937-97.898437c-8.566406-15.25-7.320313-34.121094 3.179687-48.113281l25.6875-34.335938c6.421876-8.53125 9.53125-19.101562 8.738282-29.75l-11.210938-149.097656c.097656-.09375.222656-.15625.355469-.175781 6.402344-2.871094 13.898437-1.65625 19.066406 3.089843l172.316407 166.222657c2.886718 2.777343 3.542968 7.152343 1.597656 10.65625-1.949219 3.5-6.011719 5.25-9.898438 4.261719zm0 0" fill="#7d6599"/><path d="m435.816406 185.773438-77.59375-19.332032c-6.277344-1.582031-12.914062.410156-17.285156 5.183594-4.371094 4.777344-5.765625 11.566406-3.636719 17.679688l51.113281 154.570312-17.65625 8.828125-68.402343-188.117187c-2.34375-6.085938-3.25-12.632813-2.648438-19.128907 1.261719-11.378906 8.15625-24.476562 35.742188-13.445312 32.484375 12.976562 84.039062 30.722656 109.019531 39.195312 2.667969 2.867188 3.128906 7.152344 1.128906 10.523438-2.003906 3.367187-5.984375 5.015625-9.78125 4.042969zm0 0" fill="#3d324c"/><path d="m406.070312 396.839844c0 18.890625-40.34375 35.046875-97.105468 41.3125v-79.535156c26.925781-1.996094 53.304687-8.65625 77.949218-19.6875l11.652344 35.3125zm0 0" fill="#2c3e50"/><path d="m203.035156 358.707031v79.445313c-56.761718-6.265625-97.105468-22.421875-97.105468-41.3125l4.855468-22.066406h.089844l8.652344-39.019532c16.417968 10.503906 46.429687 18.800782 83.507812 22.953125zm0 0" fill="#2c3e50"/><path d="m308.964844 358.617188v79.535156c-17.589844 1.921875-35.269532 2.867187-52.964844 2.828125v-79.449219c17.695312.054688 35.382812-.917969 52.964844-2.914062zm0 0" fill="#f9eab0"/><path d="m256 361.53125v79.449219c-17.695312.039062-35.375-.90625-52.964844-2.828125v-79.445313c17.589844 1.921875 35.269532 2.867188 52.964844 2.824219zm0 0" fill="#f3d55b"/><path d="m273.65625 414.496094h-35.3125c-4.875 0-8.828125-3.953125-8.828125-8.828125s3.953125-8.828125 8.828125-8.828125h35.3125c4.875 0 8.828125 3.953125 8.828125 8.828125s-3.953125 8.828125-8.828125 8.828125zm0 0" fill="#f29c1f"/></svg>