<svg height="511pt" viewBox="0 0 511 511.65368" width="511pt" xmlns="http://www.w3.org/2000/svg"><path d="m511.367188 126.511719-66.648438 356.28125c-1.679688 9.214843-6.964844 17.378906-14.6875 22.683593-7.722656 5.300782-17.242188 7.304688-26.449219 5.5625l-187.671875-35.042968c-8.394531-1.523438-15.914062-6.117188-21.097656-12.890625l119.613281-21.097657c19.171875-3.40625 31.96875-21.691406 28.601563-40.871093l-61.882813-350.632813c4.722657-1.105468 9.628907-1.195312 14.390625-.261718l187.585938 35.042968c9.214844 1.714844 17.371094 7.023438 22.671875 14.757813 5.296875 7.730469 7.304687 17.253906 5.574219 26.46875zm0 0" fill="#f9eab0"/><path d="m314.425781 442.007812-54.46875 9.625c.089844-.179687.089844-.441406.179688-.707031.433593-2.296875-.066407-4.671875-1.390625-6.597656-1.328125-1.921875-3.371094-3.234375-5.671875-3.644531l-15.980469-3c-.886719-.222656-1.746094-.546875-2.558594-.972656-2.757812-1.757813-6.257812-1.847657-9.101562-.234376-2.84375 1.613282-4.5625 4.664063-4.46875 7.933594.09375 3.269532 1.988281 6.214844 4.917968 7.660156 2.480469 1.382813 5.160157 2.367188 7.945313 2.914063l3.355469.617187-42.371094 7.503907c-2.726562-3.378907-4.792969-7.242188-6.09375-11.386719l78.035156-394.152344c4.183594-3.4375 9.113282-5.855468 14.390625-7.0625l5.207031 29.398438c-5.84375 3.667968-9.878906 9.628906-11.121093 16.417968l-3 16.066407c-.847657 4.789062 2.289062 9.378906 7.058593 10.328125.558594.074218 1.117188.101562 1.679688.089844 4.222656-.007813 7.847656-3.007813 8.652344-7.152344l1.585937-8.296875 15.800781 89.597656c-5.019531 1.753906-9.867187 3.972656-14.476562 6.621094l.355469 1.945312c4.878906-.171875 9.761719.183594 14.5625 1.058594l1.324219.265625 22.160156 125.792969c-4.5 2.9375-9.328125 5.339843-14.390625 7.148437l5.472656 31.160156h.089844c5.203125.746094 10.460937 1.015626 15.710937.796876l5.210938 29.394531c3.367187 19.179687-9.429688 37.464843-28.601563 40.871093zm0 0" fill="#fac176"/><path d="m259.957031 451.632812c-1.03125 3.835938-4.5 6.507813-8.472656 6.53125-.535156-.015624-1.066406-.074218-1.589844-.175781l-12.621093-2.386719zm0 0" fill="#7f5b53"/><path d="m399.132812 485.511719c-1.566406-.003907-3.132812-.152344-4.675781-.441407l-16.066406-3c-4.765625-.921874-7.894531-5.519531-7.003906-10.289062.890625-4.773438 5.464843-7.929688 10.242187-7.066406l16.074219 3c4.078125.753906 7.996094-1.929688 8.765625-6.003906l3.011719-16.066407c.921875-4.765625 5.515625-7.894531 10.285156-7.003906 4.773437.890625 7.929687 5.46875 7.070313 10.246094l-3.011719 16.066406c-2.222657 11.902344-12.605469 20.539063-24.714844 20.558594zm0 0" fill="#7f5b53"/><path d="m473.726562 158.871094c-.546874 0-1.09375-.050782-1.632812-.148438-2.300781-.429687-4.339844-1.753906-5.664062-3.6875-1.324219-1.933594-1.828126-4.3125-1.398438-6.613281l3.003906-16.066406c.761719-4.082031-1.925781-8.007813-6.003906-8.773438l-16.066406-3.003906c-4.765625-.917969-7.894532-5.515625-7.003906-10.285156.890624-4.773438 5.464843-7.929688 10.242187-7.070313l16.066406 3.003906c13.664063 2.5625 22.667969 15.707032 20.128907 29.375l-3.003907 16.066407c-.78125 4.175781-4.421875 7.199219-8.667969 7.203125zm0 0" fill="#7f5b53"/><path d="m327.753906 89.523438c-.925781 4.785156-5.53125 7.933593-10.328125 7.0625l-16.066406-3.003907c-1.957031-.378906-3.984375.042969-5.628906 1.171875-1.640625 1.128906-2.761719 2.871094-3.109375 4.832032l-1.414063 7.59375-4.855469-27.277344c5.378907-3.566406 11.933594-4.894532 18.273438-3.707032l16.066406 3c2.308594.429688 4.351563 1.757813 5.675782 3.695313 1.328124 1.941406 1.824218 4.324219 1.386718 6.632813zm0 0" fill="#7f5b53"/><path d="m421.0625 298.207031c-7.28125 40.882813-41.777344 71.355469-83.246094 73.535157l-6.882812-39.105469c15.929687-10.414063 26.875-26.917969 30.277344-45.640625 7.269531-36.539063-16.042969-72.175782-52.4375-80.152344l-1.765626-9.890625c14.171876-4.929687 29.386719-6.085937 44.140626-3.351563 48.183593 9.589844 79.480468 56.414063 69.914062 104.605469zm0 0" fill="#464f5d"/><path d="m417.53125 148.359375c-.546875-.003906-1.089844-.054687-1.625-.148437-2.300781-.429688-4.339844-1.757813-5.664062-3.6875-1.324219-1.933594-1.828126-4.3125-1.398438-6.617188l1.5-8.03125c.921875-4.765625 5.515625-7.894531 10.289062-7.003906 4.769532.890625 7.929688 5.464844 7.066407 10.242187l-1.5 8.035157c-.777344 4.175781-4.417969 7.207031-8.667969 7.210937zm0 0" fill="#f0c419"/><path d="m398.429688 161.414062c-.550782.003907-1.097657-.046874-1.632813-.148437l-8.027344-1.5c-3.117187-.5625-5.691406-2.75-6.753906-5.734375-1.058594-2.984375-.4375-6.308594 1.628906-8.710938 2.0625-2.398437 5.257813-3.511718 8.367188-2.910156l8.023437 1.5c4.480469.835938 7.585938 4.945313 7.167969 9.484375-.414063 4.539063-4.21875 8.011719-8.773437 8.019531zm0 0" fill="#f0c419"/><path d="m409.984375 188.570312c-.550781-.003906-1.097656-.054687-1.632813-.160156-2.304687-.429687-4.34375-1.753906-5.667968-3.6875-1.324219-1.933594-1.828125-4.3125-1.394532-6.613281l1.507813-8.027344c.582031-3.097656 2.769531-5.652343 5.746094-6.699219 2.976562-1.050781 6.28125-.429687 8.675781 1.621094 2.398438 2.054688 3.515625 5.226563 2.933594 8.328125l-1.507813 8.035157c-.78125 4.167968-4.417969 7.195312-8.660156 7.203124zm0 0" fill="#f0c419"/><path d="m438.59375 168.925781c-.546875 0-1.09375-.050781-1.632812-.148437l-8.035157-1.5c-4.765625-.921875-7.894531-5.515625-7.003906-10.289063.890625-4.769531 5.46875-7.925781 10.246094-7.066406l8.042969 1.5c4.480468.835937 7.585937 4.949219 7.167968 9.488281-.417968 4.539063-4.226562 8.015625-8.785156 8.015625zm0 0" fill="#f0c419"/><path d="m367.9375 413.453125c-.542969 0-1.089844-.050781-1.625-.152344-2.300781-.429687-4.339844-1.753906-5.664062-3.6875-1.324219-1.929687-1.828126-4.3125-1.398438-6.613281l1.5-8.035156c.921875-4.765625 5.519531-7.894532 10.289062-7.003906 4.773438.890624 7.929688 5.46875 7.066407 10.246093l-1.5 8.042969c-.78125 4.171875-4.421875 7.199219-8.667969 7.203125zm0 0" fill="#f0c419"/><path d="m348.859375 426.507812c-.542969 0-1.085937-.046874-1.621094-.148437l-8.035156-1.503906c-4.652344-1.023438-7.65625-5.554688-6.78125-10.242188.875-4.683593 5.3125-7.828125 10.023437-7.101562l8.03125 1.5c4.460938.855469 7.542969 4.957031 7.125 9.480469-.417968 4.523437-4.199218 7.988281-8.742187 8.015624zm0 0" fill="#f0c419"/><path d="m360.425781 453.617188c-.546875-.003907-1.09375-.050782-1.632812-.148438-2.304688-.429688-4.34375-1.757812-5.667969-3.6875-1.324219-1.933594-1.824219-4.3125-1.394531-6.617188l1.507812-8.03125c.5-3.175781 2.6875-5.828124 5.710938-6.925781 3.019531-1.097656 6.398437-.464843 8.820312 1.652344s3.5 5.378906 2.816407 8.519531l-1.5 8.035156c-.78125 4.167969-4.417969 7.195313-8.660157 7.203126zm0 0" fill="#f0c419"/><path d="m389.035156 434.019531c-.546875.003907-1.09375-.046875-1.632812-.148437l-8.03125-1.503906c-4.769532-.917969-7.894532-5.515626-7.003906-10.285157.890624-4.773437 5.464843-7.929687 10.242187-7.066406l8.03125 1.5c4.480469.835937 7.589844 4.945313 7.171875 9.484375s-4.21875 8.011719-8.777344 8.019531zm0 0" fill="#f0c419"/><path d="m29.511719 34.308594 191.320312-33.761719c19.207031-3.386719 37.519531 9.433594 40.910157 28.636719l63.972656 362.511718c3.386718 19.203126-9.433594 37.519532-28.636719 40.90625l-191.320313 33.765626c-19.207031 3.386718-37.523437-9.433594-40.910156-28.636719l-63.972656-362.511719c-3.390625-19.203125 9.429688-37.519531 28.636719-40.910156zm0 0" fill="#f5efca"/><path d="m337.816406 371.742188c-5.25.21875-10.507812-.050782-15.710937-.796876h-.089844l-5.472656-31.160156c5.0625-1.808594 9.890625-4.210937 14.390625-7.148437zm0 0" fill="#2c2f38"/><path d="m308.773438 206.84375-1.324219-.265625c-4.800781-.875-9.683594-1.230469-14.5625-1.058594l-.355469-1.945312c4.609375-2.648438 9.457031-4.867188 14.476562-6.621094zm0 0" fill="#2c2f38"/><path d="m291.207031 107.179688v.175781l-1.585937 8.296875c-.804688 4.144531-4.429688 7.144531-8.652344 7.152344-.5625.011718-1.121094-.015626-1.679688-.089844-4.769531-.949219-7.90625-5.539063-7.058593-10.328125l3-16.066407c1.242187-6.789062 5.277343-12.75 11.121093-16.417968zm0 0" fill="#59474e"/><path d="m260.136719 450.925781c-.089844.265625-.089844.527344-.179688.707031l-22.683593 3.96875h-.089844l-3.355469-.617187c-2.785156-.546875-5.464844-1.53125-7.945313-2.914063-2.929687-1.445312-4.824218-4.390624-4.917968-7.660156-.09375-3.269531 1.625-6.320312 4.46875-7.933594 2.84375-1.613281 6.34375-1.523437 9.101562.234376.8125.425781 1.671875.75 2.558594.972656l15.980469 3c2.300781.410156 4.34375 1.722656 5.671875 3.644531 1.324218 1.925781 1.824218 4.300781 1.390625 6.597656zm0 0" fill="#59474e"/><path d="m111.257812 440.347656c-12.308593-.023437-22.832031-8.855468-24.992187-20.972656l-2.867187-16.296875c-.625-3.136719.496093-6.367187 2.929687-8.445313 2.4375-2.074218 5.804687-2.671874 8.804687-1.554687 3 1.113281 5.160157 3.765625 5.648438 6.929687l2.875 16.304688c.746094 4.203125 4.757812 7.007812 8.960938 6.265625l16.296874-2.875c3.105469-.550781 6.269532.601563 8.296876 3.015625 2.027343 2.417969 2.613281 5.730469 1.535156 8.695312-1.078125 2.964844-3.65625 5.128907-6.761719 5.679688l-16.304687 2.875c-1.460938.253906-2.941407.378906-4.421876.378906zm0 0" fill="#7f5b53"/><path d="m260.875 414.191406c-4.558594-.023437-8.351562-3.515625-8.746094-8.058594-.398437-4.542968 2.734375-8.640624 7.21875-9.453124l16.304688-2.886719c2.019531-.355469 3.8125-1.5 4.988281-3.179688 1.171875-1.675781 1.632813-3.753906 1.273437-5.773437l-2.871093-16.292969c-.546875-3.109375.601562-6.269531 3.019531-8.300781 2.414062-2.027344 5.730469-2.613282 8.695312-1.535156 2.964844 1.078124 5.128907 3.65625 5.675782 6.761718l2.871094 16.304688c1.171874 6.628906-.339844 13.453125-4.199219 18.96875-3.863281 5.515625-9.757813 9.269531-16.386719 10.4375l-16.296875 2.878906c-.511719.089844-1.027344.132812-1.546875.128906zm0 0" fill="#7f5b53"/><path d="m234.492188 74.207031c-4.277344-.007812-7.933594-3.078125-8.679688-7.292969l-2.875-16.304687c-.355469-2.015625-1.5-3.8125-3.179688-4.984375-1.675781-1.1875-3.753906-1.648438-5.773437-1.28125l-16.261719 2.878906c-3.105468.546875-6.269531-.601562-8.296875-3.019531-2.027343-2.414063-2.613281-5.730469-1.535156-8.695313 1.078125-2.964843 3.65625-5.128906 6.761719-5.675781l16.304687-2.871093c13.800781-2.410157 26.953125 6.792968 29.414063 20.585937l2.867187 16.296875c.40625 2.3125-.125 4.691406-1.476562 6.613281-1.351563 1.917969-3.410157 3.222657-5.726563 3.617188-.507812.089843-1.027344.132812-1.542968.132812zm0 0" fill="#7f5b53"/><path d="m38.828125 108.742188c-4.28125-.003907-7.941406-3.078126-8.6875-7.292969l-2.867187-16.304688c-2.421876-13.808593 6.796874-26.96875 20.601562-29.414062l16.296875-2.878907c4.8125-.847656 9.398437 2.367188 10.25 7.179688.847656 4.8125-2.367187 9.398438-7.179687 10.246094l-16.304688 2.878906c-2.015625.355469-3.8125 1.5-4.988281 3.175781-1.175781 1.679688-1.632813 3.757813-1.277344 5.777344l2.878906 16.304687c.40625 2.304688-.117187 4.679688-1.460937 6.597657s-3.394532 3.226562-5.699219 3.632812c-.519531.074219-1.039063.109375-1.5625.097657zm0 0" fill="#7f5b53"/><g fill="#f29c1f"><path d="m162.457031 287.898438c-31.421875-.078126-57.214843-24.875-58.519531-56.269532-1.308594-31.394531 22.332031-58.253906 53.640625-60.941406 31.304687-2.6875 59.175781 19.75 63.238281 50.90625 4.0625 31.160156-17.125 59.992188-48.074218 65.421875-3.394532.59375-6.835938.890625-10.285157.882813zm0 0"/><path d="m154.097656 189.335938c-1.863281 0-3.679687-.566407-5.207031-1.632813-5.5-3.847656-13.320313-15.378906-7.726563-34.207031 3.25-10.910156-1.039062-14.785156-1.226562-14.945313-1.898438-1.332031-3.179688-3.371093-3.5625-5.660156-.378906-2.289063.175781-4.636719 1.542969-6.511719 2.898437-3.960937 8.4375-4.871094 12.453125-2.046875 5.5 3.847657 13.3125 15.375 7.71875 34.207031-3.25 10.898438 1.046875 14.777344 1.234375 14.933594 1.898437 1.335938 3.179687 3.375 3.558593 5.664063.378907 2.289062-.179687 4.636719-1.546874 6.511719-1.667969 2.332031-4.367188 3.707031-7.238282 3.6875zm0 0"/><path d="m130.632812 200.167969c-.261718.011719-.523437.011719-.785156 0-6.679687-.582031-19.214844-6.664063-23.78125-25.757813-2.648437-11.078125-8.296875-12.289062-8.535156-12.359375-2.3125-.207031-4.441406-1.332031-5.914062-3.125-1.472657-1.792969-2.164063-4.101562-1.917969-6.410156.523437-4.882813 4.863281-8.449219 9.757812-8.003906 6.679688.582031 19.214844 6.664062 23.78125 25.765625 2.648438 11.070312 8.296875 12.28125 8.542969 12.359375 2.3125.207031 4.441406 1.332031 5.914062 3.125 1.472657 1.792969 2.164063 4.101562 1.917969 6.410156-.507812 4.570313-4.382812 8.019531-8.980469 7.996094zm0 0"/><path d="m110.957031 222.113281c-9.601562-.402343-18.597656-4.808593-24.804687-12.144531-7.820313-8.253906-13.328125-6.488281-13.550782-6.410156-2.105468.976562-4.515624 1.070312-6.6875.25-2.175781-.816406-3.925781-2.472656-4.867187-4.59375-1.996094-4.480469-.03125-9.738282 4.414063-11.8125 6.089843-2.832032 19.984374-3.820313 33.472656 10.425781 7.839844 8.261719 13.332031 6.472656 13.570312 6.402344 2.105469-.976563 4.511719-1.0625 6.683594-.246094s3.921875 2.472656 4.863281 4.597656c2 4.476563.035157 9.734375-4.414062 11.800781-2.734375 1.195313-5.695313 1.785157-8.679688 1.730469zm0 0"/><path d="m64.738281 255.660156c-3.347656.003906-6.414062-1.871094-7.9375-4.851562-1.519531-2.984375-1.242187-6.566406.722657-9.273438 3.851562-5.5 15.378906-13.320312 34.207031-7.707031 10.921875 3.238281 14.785156-1.050781 14.9375-1.234375 1.335937-1.902344 3.378906-3.183594 5.671875-3.558594 2.289062-.378906 4.636718.183594 6.507812 1.554688 3.972656 2.890625 4.882813 8.433594 2.050782 12.445312-3.851563 5.5-15.394532 13.304688-34.207032 7.714844-10.910156-3.238281-14.777344 1.050781-14.945312 1.226562-1.589844 2.308594-4.210938 3.683594-7.007813 3.683594zm0 0"/><path d="m86.496094 302.269531c-.273438 0-.539063 0-.820313 0-4.902343-.519531-8.476562-4.890625-8.007812-9.800781.59375-6.683594 6.675781-19.207031 25.769531-23.773438 11.070312-2.648437 12.277344-8.296874 12.359375-8.542968.472656-4.792969 4.738281-8.296875 9.53125-7.832032 4.890625.519532 8.453125 4.867188 8.007813 9.765626-.582032 6.679687-6.664063 19.214843-25.757813 23.78125-11.078125 2.648437-12.289063 8.296874-12.359375 8.535156-.398438 4.503906-4.203125 7.933594-8.722656 7.867187zm0 0"/><path d="m128.867188 331.707031c-3.515626-.015625-6.710938-2.058593-8.207032-5.242187-2.835937-6.082032-3.839844-19.976563 10.425782-33.472656 8.261718-7.832032 6.488281-13.332032 6.398437-13.5625-.972656-2.105469-1.0625-4.511719-.246094-6.683594.816407-2.171875 2.46875-3.925782 4.589844-4.871094 4.480469-1.988281 9.734375-.027344 11.8125 4.414062 2.839844 6.082032 3.839844 19.976563-10.417969 33.484376-8.273437 7.820312-6.488281 13.320312-6.410156 13.550781.984375 2.117187 1.070312 4.542969.238281 6.726562-.832031 2.179688-2.507812 3.933594-4.652343 4.863281-1.105469.511719-2.308594.785157-3.53125.792969zm0 0"/><path d="m180 336.070312c-1.867188.003907-3.6875-.566406-5.21875-1.632812-5.5-3.851562-13.3125-15.378906-7.714844-34.207031 3.238282-10.914063-1.050781-14.777344-1.226562-14.9375-1.898438-1.335938-3.179688-3.375-3.558594-5.664063-.382812-2.289062.171875-4.632812 1.535156-6.507812 2.898438-3.964844 8.4375-4.878906 12.457032-2.058594 5.5 3.847656 13.3125 15.386719 7.714843 34.207031-3.25 10.910157 1.042969 14.777344 1.226563 14.9375 1.898437 1.335938 3.179687 3.378907 3.558594 5.667969.378906 2.289062-.179688 4.636719-1.546876 6.511719-1.660156 2.335937-4.363281 3.710937-7.226562 3.683593zm0 0"/><path d="m226.457031 314.300781c-.261719.011719-.523437.011719-.785156 0-6.683594-.582031-19.21875-6.664062-23.78125-25.769531-2.648437-11.070312-8.296875-12.277344-8.546875-12.359375-2.308594-.207031-4.4375-1.335937-5.910156-3.125-1.46875-1.792969-2.160156-4.101563-1.917969-6.40625.507813-4.894531 4.863281-8.46875 9.761719-8.007813 6.683594.582032 19.21875 6.664063 23.78125 25.757813 2.648437 11.082031 8.300781 12.28125 8.539062 12.359375 2.308594.207031 4.441406 1.335938 5.910156 3.125 1.472657 1.792969 2.164063 4.101562 1.917969 6.410156-.496093 4.574219-4.367187 8.03125-8.96875 8.015625zm0 0"/><path d="m250.980469 273.074219c-9.597657-.390625-18.589844-4.785157-24.796875-12.121094-7.820313-8.25-13.328125-6.476563-13.558594-6.398437-2.105469.976562-4.515625 1.0625-6.691406.246093-2.171875-.820312-3.921875-2.476562-4.863282-4.597656-1.992187-4.480469-.027343-9.726563 4.414063-11.800781 6.089844-2.835938 19.984375-3.832032 33.480469 10.414062 7.824218 8.261719 13.339844 6.496094 13.550781 6.410156 2.105469-.980468 4.515625-1.074218 6.691406-.257812 2.171875.820312 3.925781 2.476562 4.863281 4.601562 1.996094 4.480469.035157 9.734376-4.410156 11.808594-2.742187 1.175782-5.699218 1.753906-8.679687 1.695313zm0 0"/><path d="m211.476562 229.785156c-3.351562.011719-6.425781-1.859375-7.949218-4.84375-1.527344-2.984375-1.246094-6.570312.730468-9.28125 3.847657-5.5 15.386719-13.3125 34.207032-7.714844 10.902344 3.238282 14.777344-1.050781 14.945312-1.226562 1.332032-1.898438 3.371094-3.183594 5.660156-3.5625 2.289063-.382812 4.636719.175781 6.511719 1.539062 3.96875 2.898438 4.882813 8.441407 2.046875 12.457032-3.839844 5.5-15.339844 13.3125-34.207031 7.714844-10.902344-3.238282-14.769531 1.042968-14.933594 1.226562-1.585937 2.316406-4.207031 3.695312-7.011719 3.691406zm0 0"/><path d="m200.644531 206.480469c-.273437 0-.546875 0-.8125 0-4.886719-.519531-8.453125-4.867188-8.003906-9.765625.582031-6.679688 6.664063-19.214844 25.757813-23.78125 11.078124-2.648438 12.289062-8.296875 12.359374-8.535156.214844-2.304688 1.34375-4.429688 3.136719-5.902344 1.789063-1.46875 4.09375-2.164063 6.398438-1.925782 4.882812.519532 8.445312 4.859376 8.003906 9.753907-.582031 6.679687-6.664063 19.214843-25.765625 23.78125-11.070312 2.648437-12.28125 8.296875-12.359375 8.542969-.414063 4.484374-4.210937 7.898437-8.714844 7.832031zm0 0"/><path d="m179.769531 191.683594c-3.519531-.019532-6.710937-2.058594-8.210937-5.242188-2.832032-6.082031-3.839844-19.976562 10.417968-33.484375 8.269532-7.828125 6.488282-13.328125 6.40625-13.550781-.976562-2.105469-1.066406-4.515625-.25-6.6875.816407-2.171875 2.472657-3.925781 4.59375-4.867188 4.484376-1.988281 9.734376-.027343 11.8125 4.414063 2.832032 6.082031 3.832032 19.976563-10.425781 33.476563-8.261719 7.828124-6.480469 13.328124-6.398437 13.558593.972656 2.105469 1.0625 4.515625.246094 6.6875-.816407 2.171875-2.46875 3.925781-4.589844 4.867188-1.125.535156-2.355469.816406-3.601563.828125zm0 0"/></g><path d="m104.0625 97.230469c-4.28125-.003907-7.945312-3.082031-8.683594-7.300781l-1.433594-8.148438c-.707031-4.734375 2.484376-9.171875 7.199219-10.003906 4.714844-.828125 9.234375 2.25 10.183594 6.941406l1.4375 8.148438c.410156 2.304687-.117187 4.679687-1.460937 6.601562-1.34375 1.917969-3.398438 3.222656-5.707032 3.628906-.503906.085938-1.019531.132813-1.535156.132813zm0 0" fill="#f0c419"/><path d="m82.488281 117.851562c-4.578125 0-8.398437-3.5-8.796875-8.0625-.398437-4.5625 2.757813-8.671874 7.269532-9.460937l8.15625-1.4375c3.109374-.546875 6.269531.605469 8.292968 3.023437 2.027344 2.417969 2.609375 5.730469 1.527344 8.695313-1.078125 2.964844-3.660156 5.125-6.765625 5.671875l-8.148437 1.4375c-.507813.085938-1.019532.132812-1.535157.132812zm0 0" fill="#f0c419"/><path d="m111.257812 137.988281c-4.28125-.003906-7.941406-3.078125-8.6875-7.292969l-1.4375-8.148437c-.550781-3.105469.601563-6.269531 3.015626-8.296875 2.417968-2.03125 5.730468-2.613281 8.695312-1.535156s5.128906 3.652344 5.679688 6.761718l1.4375 8.15625c.84375 4.796876-2.359376 9.375-7.160157 10.222657-.507812.089843-1.023437.136719-1.542969.132812zm0 0" fill="#f0c419"/><path d="m123.246094 110.65625c-4.578125-.003906-8.394532-3.503906-8.789063-8.066406-.394531-4.558594 2.761719-8.667969 7.269531-9.457032l8.148438-1.4375c4.800781-.847656 9.382812 2.359376 10.226562 7.164063.847657 4.800781-2.359374 9.378906-7.164062 10.226563l-8.15625 1.4375c-.507812.089843-1.019531.132812-1.535156.132812zm0 0" fill="#f0c419"/><path d="m224.902344 353.300781c-4.277344-.007812-7.933594-3.085937-8.675782-7.300781l-1.4375-8.148438c-.628906-3.136718.492188-6.367187 2.929688-8.445312 2.433594-2.074219 5.804688-2.671875 8.800781-1.554688 3 1.113282 5.164063 3.765626 5.648438 6.929688l1.441406 8.15625c.84375 4.796875-2.363281 9.375-7.160156 10.222656-.507813.09375-1.027344.140625-1.546875.140625zm0 0" fill="#f0c419"/><path d="m203.328125 373.949219c-4.558594-.023438-8.351563-3.519531-8.746094-8.0625-.398437-4.542969 2.730469-8.640625 7.21875-9.453125l8.160157-1.4375c4.730468-.710938 9.167968 2.484375 10 7.195312.832031 4.714844-2.246094 9.234375-6.9375 10.183594l-8.148438 1.441406c-.511719.089844-1.027344.136719-1.546875.132813zm0 0" fill="#f0c419"/><path d="m232.097656 394.058594c-4.277344-.007813-7.933594-3.082032-8.675781-7.292969l-1.449219-8.15625c-.84375-4.800781 2.363282-9.382813 7.164063-10.226563 4.800781-.847656 9.382812 2.359376 10.226562 7.164063l1.4375 8.148437c.410157 2.304688-.117187 4.679688-1.457031 6.597657-1.34375 1.917969-3.394531 3.226562-5.699219 3.632812-.511719.085938-1.027343.132813-1.546875.132813zm0 0" fill="#f0c419"/><path d="m244.085938 366.726562c-4.578126.003907-8.398438-3.5-8.796876-8.0625-.398437-4.558593 2.757813-8.667968 7.269532-9.460937l8.15625-1.4375c3.191406-.761719 6.542968.304687 8.703125 2.777344 2.15625 2.46875 2.769531 5.929687 1.585937 8.992187-1.183594 3.058594-3.964844 5.210938-7.226562 5.585938l-8.144532 1.4375c-.511718.105468-1.027343.160156-1.546874.167968zm0 0" fill="#f0c419"/></svg>