<?xml version="1.0" encoding="iso-8859-1"?>
<!-- Generator: Adobe Illustrator 19.0.0, SVG Export Plug-In . SVG Version: 6.00 Build 0)  -->
<svg version="1.1" id="Layer_1" xmlns="http://www.w3.org/2000/svg" xmlns:xlink="http://www.w3.org/1999/xlink" x="0px" y="0px"
	 viewBox="0 0 512.001 512.001" style="enable-background:new 0 0 512.001 512.001;" xml:space="preserve">
<path style="fill:#707487;" d="M291.565,195.604l-17.782-80.02h-35.564l-17.782,80.02l-8.643,267.924
	c-0.159,4.912,1.724,9.671,5.199,13.148l32.721,32.721c3.472,3.472,9.102,3.472,12.574,0l32.721-32.721
	c3.475-3.475,5.358-8.234,5.199-13.148L291.565,195.604z"/>
<polygon style="fill:#959CB5;" points="215.569,346.47 299.127,430.026 297.34,374.615 217.253,294.289 "/>
<path style="fill:#5B5D6E;" d="M273.783,124.475h-35.564c-4.91,0-8.891-3.981-8.891-8.891V80.02h53.347v35.564
	C282.674,120.494,278.693,124.475,273.783,124.475z"/>
<g>
	<path style="fill:#E4EAF8;" d="M167.09,0l88.911,80.02l-45.917,38.264c-3.999,3.332-9.991,2.532-12.975-1.732l-52.996-75.709
		c-2.204-3.149-2.135-7.358,0.171-10.434L167.09,0z"/>
	<path style="fill:#E4EAF8;" d="M344.911,0l-88.911,80.02l45.917,38.264c3.999,3.332,9.991,2.532,12.975-1.732l52.996-75.709
		c2.204-3.149,2.135-7.358-0.171-10.434L344.911,0z"/>
</g>
<polygon style="fill:#D5DCED;" points="344.911,0 167.09,0 256.001,80.02 "/>
<polygon style="fill:#5B5D6E;" points="214.879,367.868 299.864,452.85 298.391,407.2 216.267,324.83 "/>
<polygon style="fill:#959CB5;" points="294.386,283.027 292.597,227.602 227.774,162.584 220.436,195.604 220.015,208.658 "/>
<polygon style="fill:#5B5D6E;" points="295.121,305.863 293.64,259.912 222.053,188.328 220.436,195.604 219.325,230.057 "/>
<g>
</g>
<g>
</g>
<g>
</g>
<g>
</g>
<g>
</g>
<g>
</g>
<g>
</g>
<g>
</g>
<g>
</g>
<g>
</g>
<g>
</g>
<g>
</g>
<g>
</g>
<g>
</g>
<g>
</g>
</svg>
