<?xml version="1.0" encoding="iso-8859-1"?>
<!-- Generator: Adobe Illustrator 19.0.0, SVG Export Plug-In . SVG Version: 6.00 Build 0)  -->
<svg version="1.1" id="Capa_1" xmlns="http://www.w3.org/2000/svg" xmlns:xlink="http://www.w3.org/1999/xlink" x="0px" y="0px"
	 viewBox="0 0 512 512" style="enable-background:new 0 0 512 512;" xml:space="preserve">
<path style="fill:#C06376;" d="M51.872,501.321l90.943-90.943L95.567,363.13L4.624,454.073c-6.165,6.165-6.165,16.161,0,22.326
	l24.922,24.922C35.711,507.486,45.707,507.486,51.872,501.321z"/>
<path style="fill:#E1EAEA;" d="M170.478,382.715L336.77,216.423c27.29-27.29,51.797-57.228,73.158-89.372l0,0
	c22.558-33.946,30.384-75.589,21.686-115.408l0,0c-1.3-5.954-9.005-7.609-12.636-2.714l0,0
	C360.111,88.294,295.48,163.217,225.609,233.088L123.231,335.467L170.478,382.715z"/>
<path style="fill:#C06376;" d="M198.652,430.455l-8.097,8.097c-5.403,5.403-14.164,5.403-19.567,0L67.393,334.957
	c-5.403-5.403-5.403-14.164,0-19.567l8.097-8.097c5.403-5.403,14.164-5.403,19.567,0l103.595,103.595
	C204.055,416.291,204.055,425.052,198.652,430.455z"/>
<path style="opacity:0.1;enable-background:new    ;" d="M181.411,335.141l-10.607-10.606l117.473-117.472
	c46.248-46.248,80.819-88.476,102.754-125.511c2.111-3.563,6.712-4.742,10.275-2.631s4.741,6.711,2.631,10.275
	c-22.573,38.115-57.919,81.339-105.053,128.474L181.411,335.141z"/>
<rect x="140.795" y="311.059" transform="matrix(-0.7071 0.7071 -0.7071 -0.7071 519.2398 473.8606)" style="fill:#F3CE72;" width="41.37" height="66.818"/>
<rect x="103.099" y="360.011" transform="matrix(0.7071 -0.7071 0.7071 0.7071 -245.2325 194.7977)" style="opacity:0.15;enable-background:new    ;" width="18.853" height="66.818"/>
<rect x="144.626" y="320.297" transform="matrix(0.7071 -0.7071 0.7071 0.7071 -205.5182 211.2466)" style="opacity:0.1;enable-background:new    ;" width="15.225" height="66.818"/>
<g>
	<path style="fill:#F3CE72;" d="M101.14,423.85c-1.92,0-3.839-0.732-5.304-2.197l-11.544-11.544
		c-2.929-2.929-2.929-7.678,0.001-10.606c2.929-2.93,7.678-2.929,10.606,0l11.544,11.544c2.929,2.929,2.929,7.678-0.001,10.606
		C104.979,423.117,103.059,423.85,101.14,423.85z"/>
	<path style="fill:#F3CE72;" d="M74.784,450.206c-1.919,0-3.839-0.733-5.304-2.197l-11.545-11.545
		c-2.929-2.929-2.929-7.678,0-10.607c2.93-2.929,7.678-2.929,10.607,0l11.545,11.545c2.929,2.929,2.929,7.678,0,10.607
		C78.623,449.474,76.703,450.206,74.784,450.206z"/>
	<path style="fill:#F3CE72;" d="M48.428,476.562c-1.919,0-3.839-0.732-5.304-2.197L31.579,462.82c-2.929-2.929-2.929-7.678,0-10.606
		c2.93-2.929,7.678-2.929,10.607,0l11.545,11.545c2.929,2.929,2.929,7.678,0,10.606C52.267,475.83,50.347,476.562,48.428,476.562z"
		/>
</g>
<g>
	<path style="fill:#E978A0;" d="M509.02,393.354L489,413.375c-5.203,5.203-13.05,6.714-19.814,3.816l0,0
		c-54.576-23.39-104.187-56.978-146.173-98.964l-3.453-3.453l39.251-39.251l5.454,5.454c40.664,40.664,88.714,73.195,141.572,95.849
		l0,0C512.447,379.657,514.105,388.27,509.02,393.354z"/>
	<path style="fill:#E978A0;" d="M442.661,459.199l-25.786,11.693c-6.702,3.039-14.578,1.691-19.889-3.403l0,0
		c-42.85-41.103-77.464-90.005-101.985-144.082l-2.017-4.448l50.555-22.924l3.185,7.025c23.749,52.375,57.273,99.737,98.774,139.546
		l0,0C450.689,447.585,449.21,456.23,442.661,459.199z"/>
</g>
<path style="opacity:0.1;enable-background:new    ;" d="M442.661,459.199l-25.786,11.693c-6.702,3.039-14.578,1.691-19.889-3.403
	l0,0c-42.85-41.103-77.464-90.005-101.985-144.082l-2.017-4.448l50.555-22.924l3.185,7.025
	c23.749,52.375,57.273,99.737,98.774,139.546l0,0C450.689,447.585,449.21,456.23,442.661,459.199z"/>
<path style="fill:#485358;" d="M457.691,291.834c0-91.64-93.463-165.928-208.755-165.928S40.181,200.195,40.181,291.834
	s64.991,165.928,208.755,165.928S457.691,383.474,457.691,291.834z"/>
<path style="fill:#F3CE72;" d="M353.438,306.149H144.434c-19.621,0-35.527-15.906-35.527-35.527l0,0
	c0-19.621,15.906-35.527,35.527-35.527h209.004c19.621,0,35.527,15.906,35.527,35.527l0,0
	C388.965,290.243,373.059,306.149,353.438,306.149z"/>
<g>
	<path style="fill:#485358;" d="M146.959,286.585c-4.143,0-7.5-3.358-7.5-7.5v-16.928c0-4.142,3.357-7.5,7.5-7.5s7.5,3.358,7.5,7.5
		v16.928C154.459,283.227,151.102,286.585,146.959,286.585z"/>
	<path style="fill:#485358;" d="M350.913,286.585c-4.143,0-7.5-3.358-7.5-7.5v-16.928c0-4.142,3.357-7.5,7.5-7.5s7.5,3.358,7.5,7.5
		v16.928C358.413,283.227,355.056,286.585,350.913,286.585z"/>
</g>
<path style="opacity:0.2;enable-background:new    ;" d="M248.937,354.584c-12.472,0-24.332-5.402-32.54-14.821
	c-2.722-3.123-2.396-7.86,0.727-10.581c3.121-2.721,7.859-2.397,10.582,0.727c5.358,6.149,13.098,9.676,21.231,9.676
	c8.134,0,15.872-3.527,21.232-9.676c2.722-3.123,7.46-3.449,10.582-0.726c3.123,2.722,3.447,7.459,0.727,10.582
	C273.267,349.182,261.407,354.584,248.937,354.584z"/>
<path style="opacity:0.1;enable-background:new    ;" d="M95.368,281.419c0-10.002,1.117-19.796,3.251-29.309
	c0.845-3.767,4.167-6.46,8.028-6.46h342.84c-7.127-19.588-18.671-37.684-33.723-53.564h-287.58
	c23.728-29.459,58.844-52.566,100.415-65.394C122.852,134.82,40.182,205.65,40.182,291.835c0,91.64,64.991,165.928,208.755,165.928
	c34.37,0,64.226-4.255,89.78-11.969c-10.984,1.017-22.503,1.554-34.593,1.554C160.358,447.348,95.368,373.059,95.368,281.419z"/>
<path style="fill:#E978A0;" d="M404.972,178.333H92.9c-6.39,0-12.537,2.566-16.953,7.184
	c-12.051,12.601-21.806,26.346-29.093,40.905c-1.994,3.983,0.95,8.672,5.404,8.672h393.358c4.454,0,7.398-4.688,5.404-8.672
	c-7.287-14.56-17.042-28.305-29.093-40.905C417.509,180.899,411.362,178.333,404.972,178.333z"/>
<path style="opacity:0.1;enable-background:new    ;" d="M128.082,185.517c4.416-4.618,10.564-7.184,16.954-7.184H92.9
	c-6.39,0-12.537,2.566-16.954,7.184c-12.051,12.601-21.806,26.345-29.093,40.905c-1.994,3.983,0.949,8.672,5.404,8.672h52.135
	c-4.454,0-7.398-4.688-5.404-8.672C106.276,211.863,116.031,198.118,128.082,185.517z"/>
<g style="opacity:0.1;">
	<path d="M161.481,208.88h-52.573c-4.143,0-7.5-3.358-7.5-7.5s3.357-7.5,7.5-7.5h52.573c4.143,0,7.5,3.358,7.5,7.5
		S165.623,208.88,161.481,208.88z"/>
	<path d="M404.502,221.537h-84.941c-4.142,0-7.5-3.358-7.5-7.5s3.358-7.5,7.5-7.5h84.941c4.143,0,7.5,3.358,7.5,7.5
		S408.645,221.537,404.502,221.537z"/>
</g>
<g>
</g>
<g>
</g>
<g>
</g>
<g>
</g>
<g>
</g>
<g>
</g>
<g>
</g>
<g>
</g>
<g>
</g>
<g>
</g>
<g>
</g>
<g>
</g>
<g>
</g>
<g>
</g>
<g>
</g>
</svg>
