<?xml version="1.0" encoding="iso-8859-1"?>
<!-- Uploaded to: SVG Repo, www.svgrepo.com, Generator: SVG Repo Mixer Tools -->
<svg height="800px" width="800px" version="1.1" id="Layer_1" xmlns="http://www.w3.org/2000/svg" xmlns:xlink="http://www.w3.org/1999/xlink" 
	 viewBox="0 0 512.001 512.001" xml:space="preserve">
<path style="fill:#3E3D41;" d="M508.486,70.72c-4.054-5.275-10.816-7.695-17.296-6.192c-4.817,1.118-9.826,1.685-14.886,1.685
	c-27.657,0-55.562-16.475-82.548-32.407c-22.074-13.031-42.925-25.341-63.932-28.885c-5.885-0.992-11.665-1.496-17.175-1.496
	c-29.557,0-47.019,13.89-56.463,25.543c-0.063,0.078-0.122,0.162-0.186,0.24c-0.063-0.078-0.122-0.162-0.186-0.24
	c-9.445-11.653-26.906-25.543-56.463-25.543c-5.512,0-11.29,0.504-17.176,1.496c-21.005,3.544-41.856,15.853-63.929,28.886
	C91.263,49.739,63.362,66.213,35.707,66.213c-0.001,0-0.005,0-0.007,0c-5.063,0-10.071-0.567-14.887-1.685
	C14.328,63.025,7.57,65.445,3.517,70.72s-4.652,12.433-1.529,18.308C16.127,115.63,41.408,135,77.13,146.602
	c30.445,9.889,61.988,11.964,83.088,11.963c9.363,0,18.774-0.431,26.497-1.214c29.618-3.005,54.025-14.881,69.288-32.104
	c15.263,17.222,39.67,29.099,69.288,32.104c5.466,0.553,14.5,1.214,26.497,1.214c21.1,0,52.644-2.075,83.088-11.963
	c35.72-11.602,61.002-30.972,75.141-57.575C513.137,83.153,512.54,75.995,508.486,70.72z"/>
<path style="fill:#2E2D30;" d="M506.36,68.439c-14.648,23.374-38.653,40.607-71.487,51.271
	c-30.444,9.888-61.987,11.963-83.088,11.963c-11.998,0-21.031-0.661-26.497-1.214c-29.618-3.005-54.025-14.881-69.288-32.104
	c-15.263,17.222-39.67,29.099-69.288,32.104c-7.725,0.783-17.135,1.214-26.497,1.214c-21.1,0.001-52.643-2.074-83.088-11.963
	C44.294,109.046,20.288,91.813,5.641,68.439c-0.766,0.688-1.483,1.444-2.126,2.28c-4.054,5.275-4.652,12.433-1.529,18.308
	c14.139,26.603,39.42,45.973,75.141,57.575c30.445,9.889,61.988,11.964,83.088,11.963c9.363,0,18.774-0.431,26.497-1.214
	c29.618-3.005,54.025-14.881,69.288-32.104c15.263,17.222,39.67,29.099,69.288,32.104c5.466,0.553,14.5,1.214,26.497,1.214
	c21.1,0,52.644-2.075,83.088-11.963c35.72-11.602,61.002-30.972,75.141-57.575c3.123-5.874,2.524-13.033-1.529-18.308
	C507.843,69.884,507.127,69.128,506.36,68.439z"/>
<path style="fill:#A66300;" d="M438.17,508.575c-9.373,0-16.972-7.599-16.972-16.972V97.844c0-9.373,7.599-16.972,16.972-16.972
	c9.373,0,16.972,7.599,16.972,16.972v393.759C455.143,500.976,447.544,508.575,438.17,508.575z"/>
<path style="fill:#7E4F1F;" d="M455.143,172.173V97.844c0-9.373-7.599-16.972-16.972-16.972c-9.373,0-16.972,7.599-16.972,16.972
	v88.885L455.143,172.173z"/>
<path style="fill:#2E2D30;" d="M508.486,70.72c-4.054-5.275-10.816-7.695-17.296-6.192c-4.817,1.118-9.826,1.685-14.886,1.685
	c-27.657,0-55.562-16.475-82.548-32.407c-22.074-13.031-42.925-25.341-63.932-28.885c-5.885-0.992-11.665-1.496-17.175-1.496
	c-29.557,0-47.019,13.89-56.463,25.543c-0.063,0.078-0.122,0.162-0.186,0.24c-0.063-0.078-0.122-0.162-0.186-0.24
	c-0.032-0.038-0.066-0.078-0.097-0.118v96.696c0.092-0.102,0.192-0.199,0.283-0.302c15.263,17.222,39.67,29.099,69.288,32.104
	c5.466,0.553,14.5,1.214,26.497,1.214c21.1,0,52.644-2.075,83.088-11.963c35.72-11.602,61.002-30.972,75.141-57.575
	C513.137,83.153,512.54,75.995,508.486,70.72z"/>
</svg>