<?xml version="1.0" encoding="iso-8859-1"?>
<!-- Uploaded to: SVG Repo, www.svgrepo.com, Generator: SVG Repo Mixer Tools -->
<svg height="800px" width="800px" version="1.1" id="Layer_1" xmlns="http://www.w3.org/2000/svg" xmlns:xlink="http://www.w3.org/1999/xlink" 
	 viewBox="0 0 512 512" xml:space="preserve">
<path style="fill:#F4BA48;" d="M317.793,379.586c0,15.007-11.476,26.483-26.483,26.483H172.138c-12.359,0-23.834-8.828-25.6-21.186
	l-14.124-111.228c0-5.297,3.531-8.828,8.828-8.828h167.724c5.297,0,8.828,3.531,8.828,8.828V379.586z M494.345,44.138H79.448
	c-9.71,0-17.655,7.945-17.655,17.655v123.586c0,11.476,0.883,23.835,2.648,35.31L94.455,444.91
	c1.766,13.241,13.241,22.952,26.483,22.952h232.166c15.007,0,26.483-11.476,26.483-26.483V203.034h114.759
	c9.71,0,17.655-7.945,17.655-17.655V61.793C512,52.083,504.055,44.138,494.345,44.138L494.345,44.138z"/>
<g>
	<path style="fill:#565656;" d="M61.793,158.897H17.655C7.945,158.897,0,150.952,0,141.241v-35.31
		c0-9.71,7.945-17.655,17.655-17.655h44.138V158.897z"/>
	<path style="fill:#565656;" d="M476.69,97.103h-88.276c-5.297,0-8.828-3.531-8.828-8.828c0-5.297,3.531-8.828,8.828-8.828h88.276
		c5.297,0,8.828,3.531,8.828,8.828C485.517,93.572,481.986,97.103,476.69,97.103"/>
	<path style="fill:#565656;" d="M476.69,132.414h-70.621c-5.297,0-8.828-3.531-8.828-8.828c0-5.297,3.531-8.828,8.828-8.828h70.621
		c5.297,0,8.828,3.531,8.828,8.828C485.517,128.883,481.986,132.414,476.69,132.414"/>
	<path style="fill:#565656;" d="M476.69,167.724h-52.966c-5.297,0-8.828-3.531-8.828-8.828s3.531-8.828,8.828-8.828h52.966
		c5.297,0,8.828,3.531,8.828,8.828S481.986,167.724,476.69,167.724"/>
	<path style="fill:#565656;" d="M414.897,203.034c0,0-5.297,238.345,97.103,238.345c-45.021-39.724-43.255-146.538-17.655-238.345
		H414.897z"/>
	<path style="fill:#565656;" d="M317.793,335.448H291.31l-26.483-70.621h52.966V335.448z"/>
	<path style="fill:#565656;" d="M282.483,150.069H158.897c-14.124,0-26.483-12.359-26.483-26.483s12.359-26.483,26.483-26.483
		h123.586c15.007,0,26.483,11.476,26.483,26.483S297.49,150.069,282.483,150.069"/>
</g>
</svg>