<svg height="512pt" viewBox="-31 0 512 512.00003" width="512pt" xmlns="http://www.w3.org/2000/svg"><path d="m225.003906 0c-3.921875-.00390625-7.863281.0898438-11.824218.304688-50.367188 2.699218-98.570313 23.644531-135.726563 58.976562-36.847656 35.03125-60.304687 81.695312-66.042969 131.390625l12.652344 100.761719c14.101562 36.898437 37.972656 69.007812 69.273438 93.289062v112.269532c0 8.285156 6.714843 15 15 15h233.335937c8.285156 0 15-6.714844 15-15v-112.269532c31.320313-24.292968 55.195313-56.40625 69.292969-93.3125l12.679687-100.625c-12.21875-108.984375-104.902343-190.722656-213.640625-190.785156zm0 0" fill="#e8e8e8"/><path d="m225.003906 0v511.992188h116.667969c8.285156 0 15-6.714844 15-15v-112.269532c31.320313-24.292968 55.195313-56.40625 69.292969-93.3125l12.679687-100.625c-12.21875-108.984375-104.902343-190.722656-213.640625-190.785156zm0 0" fill="#d9d9d9"/><path d="m267.3125 381.527344h-84.617188c-4.613281 0-8.863281-2.503906-11.101562-6.539063-2.238281-4.03125-2.105469-8.964843.339844-12.878906l42.308594-67.691406c2.316406-3.710938 6.386718-5.964844 10.761718-5.964844s8.445313 2.253906 10.761719 5.964844l42.308594 67.691406c2.445312 3.914063 2.578125 8.84375.339843 12.878906-2.238281 4.039063-6.488281 6.539063-11.101562 6.539063zm0 0" fill="#4d4d4d"/><path d="m300.003906 171.988281h-150c-8.285156 0-15.003906-6.714843-15.003906-15 0-8.285156 6.71875-15 15.003906-15h150c8.285156 0 15 6.714844 15 15 0 8.285157-6.714844 15-15 15zm0 0" fill="#3a3a3a"/><path d="m185.003906 421.992188c-8.285156 0-15 6.714843-15 15v75.007812h30v-75.007812c0-8.285157-6.714844-15-15-15zm0 0" fill="#4d4d4d"/><path d="m256.074219 231.988281h-62.140625c-8.28125 0-15-6.714843-15-15 0-8.285156 6.71875-15 15-15h62.140625c8.28125 0 15 6.714844 15 15 0 8.285157-6.71875 15-15 15zm0 0" fill="#3a3a3a"/><path d="m68.914062 318.964844c-3.835937 0-7.675781-1.464844-10.605468-4.394532-5.855469-5.855468-5.855469-15.355468 0-21.214843l60.003906-60c5.855469-5.855469 15.351562-5.855469 21.210938 0 5.859374 5.859375 5.859374 15.355469 0 21.214843l-60 60c-2.929688 2.929688-6.769532 4.394532-10.609376 4.394532zm0 0" fill="#5edddd"/><path d="m24.449219 283.429688c-3.839844 0-7.679688-1.464844-10.605469-4.394532-5.859375-5.855468-5.859375-15.355468 0-21.214844l111.441406-111.4375c5.855469-5.859374 15.355469-5.859374 21.210938 0 5.859375 5.855469 5.859375 15.355469 0 21.210938l-111.441406 111.441406c-2.925782 2.929688-6.765626 4.394532-10.605469 4.394532zm0 0" fill="#5edddd"/><path d="m90 306.988281c-41.355469 0-75-33.644531-75-75s33.644531-75 75-75h60.003906c24.8125 0 45 20.1875 45 45 0 57.898438-47.105468 105-105.003906 105zm0 0" fill="#717171"/><path d="m360.003906 306.988281c-57.898437 0-105-47.101562-105-105 0-24.8125 20.1875-45 45-45h60c41.355469 0 75.003906 33.644531 75.003906 75s-33.648437 75-75.003906 75zm0 0" fill="#4d4d4d"/><path d="m139.523438 233.355469c-5.859376-5.855469-15.355469-5.855469-21.214844 0l-60 60 21.214844 21.214843 60-60c5.859374-5.859374 5.859374-15.355468 0-21.214843zm0 0" fill="#818181"/><path d="m13.839844 257.820312 111.441406-111.4375 21.214844 21.210938-111.441406 111.441406zm0 0" fill="#818181"/><path d="m265.003906 421.992188c-8.285156 0-15 6.714843-15 15v75.007812h30v-75.007812c0-8.285157-6.714844-15-15-15zm0 0" fill="#3a3a3a"/><path d="m267.3125 381.527344c4.613281 0 8.863281-2.503906 11.101562-6.539063 2.234376-4.035156 2.105469-8.964843-.339843-12.878906l-42.308594-67.691406c-2.320313-3.714844-6.386719-5.96875-10.761719-5.96875v93.078125zm0 0" fill="#3a3a3a"/><path d="m300.003906 141.988281h-75v30h75c8.285156 0 15-6.714843 15-15 0-8.285156-6.714844-15-15-15zm0 0" fill="#282828"/><path d="m256.074219 231.988281c8.28125 0 15-6.714843 15-15 0-8.285156-6.71875-15-15-15h-31.070313v30zm0 0" fill="#282828"/><path d="m305.152344 286.625 106.722656-106.722656 21.214844 21.214844-106.726563 106.722656zm0 0" fill="#717171"/><path d="m363.972656 147.808594-60 60c-5.859375 5.855468-5.859375 15.355468 0 21.214844 2.925782 2.929687 6.765625 4.394531 10.605469 4.394531 3.835937 0 7.675781-1.464844 10.605469-4.394531l60-60.003907zm0 0" fill="#717171"/><path d="m150.003906 171.988281c16.539063 0 30 13.457031 30 30 0 49.628907-40.375 90-90.003906 90-33.082031 0-60-26.914062-60-60 0-33.082031 26.917969-60 60-60zm0-30h-60.003906c-49.625 0-90 40.375-90 90 0 49.628907 40.375 90.003907 90 90.003907 66.171875 0 120.003906-53.835938 120.003906-120.003907 0-33.082031-26.917968-60-60-60zm0 0" fill="#4d4d4d"/><path d="m360.003906 171.988281c33.085938 0 60 26.917969 60 60 0 33.085938-26.914062 60-60 60-49.625 0-90-40.371093-90-90 0-16.542969 13.457032-30 30-30zm0-30h-60c-33.085937 0-60 26.917969-60 60 0 66.167969 53.832032 120.003907 120 120.003907 49.628906 0 90.003906-40.375 90.003906-90.003907 0-49.625-40.375-90-90.003906-90zm0 0" fill="#3a3a3a"/></svg>