<svg height="464pt" viewBox="0 0 464 464" width="464pt" xmlns="http://www.w3.org/2000/svg"><path d="m408 352h-352v-48c0-26.507812 21.492188-48 48-48h256c26.507812 0 48 21.492188 48 48zm0 0" fill="#2a3845"/><path d="m408 352h-352v-48c0-26.507812 21.492188-48 48-48h40l88 96 88-96h40c26.507812 0 48 21.492188 48 48zm0 0" fill="#3d4d63"/><path d="m56 352h352c30.929688 0 56 25.070312 56 56s-25.070312 56-56 56h-352c-30.929688 0-56-25.070312-56-56s25.070312-56 56-56zm0 0" fill="#e94f4f"/><path d="m408 352h-56.472656l-191.054688 112h247.527344c30.929688 0 56-25.070312 56-56s-25.070312-56-56-56zm0 0" fill="#e04646"/><g fill="#3d4d63"><path d="m251.558594 385.34375-11.558594 7.710938v-17.054688h-16v17.054688l-11.558594-7.710938-8.882812 13.3125 14.015625 9.34375-14.015625 9.34375 8.882812 13.3125 11.558594-7.710938v17.054688h16v-17.054688l11.558594 7.710938 8.882812-13.3125-14.015625-9.34375 14.015625-9.34375zm0 0"/><path d="m331.558594 385.34375-11.558594 7.710938v-17.054688h-16v17.054688l-11.558594-7.710938-8.882812 13.3125 14.015625 9.34375-14.015625 9.34375 8.882812 13.3125 11.558594-7.710938v17.054688h16v-17.054688l11.558594 7.710938 8.882812-13.3125-14.015625-9.34375 14.015625-9.34375zm0 0"/><path d="m420.441406 398.65625-8.882812-13.3125-11.558594 7.710938v-17.054688h-16v17.054688l-11.558594-7.710938-8.882812 13.3125 14.015625 9.34375-14.015625 9.34375 8.882812 13.3125 11.558594-7.710938v17.054688h16v-17.054688l11.558594 7.710938 8.882812-13.3125-14.015625-9.34375zm0 0"/><path d="m175.128906 385.34375-11.570312 7.710938v-17.054688h-16v17.054688l-11.558594-7.710938-8.871094 13.3125 14.015625 9.34375-14.015625 9.34375 8.871094 13.3125 11.558594-7.710938v17.054688h16v-17.054688l11.570312 7.710938 8.871094-13.3125-14.015625-9.34375 14.015625-9.34375zm0 0"/><path d="m91.558594 385.34375-11.558594 7.710938v-17.054688h-16v17.054688l-11.558594-7.710938-8.882812 13.3125 14.015625 9.34375-14.015625 9.34375 8.882812 13.3125 11.558594-7.710938v17.054688h16v-17.054688l11.558594 7.710938 8.882812-13.3125-14.015625-9.34375 14.015625-9.34375zm0 0"/><path d="m328 96h-192l16.902344-67.617188c4.171875-16.683593 19.164062-28.38671825 36.363281-28.382812 11.792969 0 22.898437 5.554688 29.972656 14.992188 3.015625 4.015624 7.742188 6.378906 12.761719 6.378906s9.746094-2.363282 12.761719-6.378906c7.074219-9.4375 18.179687-14.992188 29.972656-14.992188 17.199219-.00390625 32.191406 11.699219 36.363281 28.382812zm0 0"/></g><path d="m104 96h256c0 17.671875-14.328125 32-32 32h-192c-17.671875 0-32-14.328125-32-32zm0 0" fill="#4c5d72"/><path d="m144 128h176v128h-176zm0 0" fill="#3d4d63"/><path d="m152 144 64 25.785156-.097656.136719c-9.101563 11.671875-24.320313 16.742187-38.605469 12.863281-14.390625-3.164062-24.804687-15.679687-25.296875-30.402344zm0 0" fill="#e94f4f"/><path d="m312 144-64 25.785156.097656.136719c9.101563 11.671875 24.320313 16.742187 38.605469 12.863281 14.390625-3.164062 24.804687-15.679687 25.296875-30.402344zm0 0" fill="#e94f4f"/><path d="m144 200h-72l32 56h40zm0 0" fill="#2e3e51"/><path d="m320 200h72l-32 56h-40zm0 0" fill="#2e3e51"/><path d="m232 256h-88l42.089844 45.910156zm0 0" fill="#4c5d72"/><path d="m277.910156 301.910156 42.089844-45.910156h-88zm0 0" fill="#4c5d72"/><path d="m216 334.542969 16 17.457031 16-17.457031v-62.542969l-16-16-16 16zm0 0" fill="#2e3e51"/><path d="m232 227.105469c-15.546875-.003907-30.796875-4.234375-44.121094-12.25l8.242188-13.710938c22.074218 13.28125 49.683594 13.28125 71.757812 0l8.242188 13.710938c-13.324219 8.015625-28.574219 12.246093-44.121094 12.25zm0 0" fill="#2e3e51"/><path d="m144 136v64c-17.671875 0-32-14.328125-32-32s14.328125-32 32-32zm0 0" fill="#2e3e51"/><path d="m320 200v-64c17.671875 0 32 14.328125 32 32s-14.328125 32-32 32zm0 0" fill="#2e3e51"/><path d="m272 352h48v-32h-21.265625c-11.007813 0-20.605469 7.496094-23.277344 18.175781zm0 0" fill="#feb784"/><path d="m416 392c-8.835938 0-16-7.164062-16-16 0 8.835938-7.164062 16-16 16s-16-7.164062-16-16c0 8.835938-7.164062 16-16 16s-16-7.164062-16-16c0 8.835938-7.164062 16-16 16s-16-7.164062-16-16v-32c0-17.671875 14.328125-32 32-32h64c17.671875 0 32 14.328125 32 32v32c0 8.835938-7.164062 16-16 16zm0 0" fill="#fec9a3"/><path d="m368 392c-4.417969 0-8-3.582031-8-8v-32c0-4.417969 3.582031-8 8-8s8 3.582031 8 8v32c0 4.417969-3.582031 8-8 8zm0 0" fill="#feb784"/><path d="m336 392c-4.417969 0-8-3.582031-8-8v-32c0-4.417969 3.582031-8 8-8s8 3.582031 8 8v32c0 4.417969-3.582031 8-8 8zm0 0" fill="#feb784"/><path d="m400 392c-4.417969 0-8-3.582031-8-8v-32c0-4.417969 3.582031-8 8-8s8 3.582031 8 8v32c0 4.417969-3.582031 8-8 8zm0 0" fill="#feb784"/><path d="m144 128h176v16h-176zm0 0" fill="#2e3e51"/></svg>