<?xml version="1.0" encoding="UTF-8"?>
<!DOCTYPE svg PUBLIC "-//W3C//DTD SVG 1.1//EN" "http://www.w3.org/Graphics/SVG/1.1/DTD/svg11.dtd">
<svg xmlns="http://www.w3.org/2000/svg" version="1.1" width="512px" height="512px" style="shape-rendering:geometricPrecision; text-rendering:geometricPrecision; image-rendering:optimizeQuality; fill-rule:evenodd; clip-rule:evenodd" xmlns:xlink="http://www.w3.org/1999/xlink">
<g><path style="opacity:0.994" fill="#fff0cf" d="M 148.5,-0.5 C 154.5,-0.5 160.5,-0.5 166.5,-0.5C 186.149,5.15696 197.815,18.157 201.5,38.5C 193.575,41.5882 185.909,45.2548 178.5,49.5C 138.862,71.0944 112.195,103.428 98.5,146.5C 86.8914,144.981 76.2247,147.481 66.5,154C 61.953,157.721 57.6197,161.554 53.5,165.5C 40.4717,155.436 34.4717,142.102 35.5,125.5C 16.6803,121.346 4.68026,110.013 -0.5,91.5C -0.5,85.1667 -0.5,78.8333 -0.5,72.5C 8.5067,47.0799 26.34,36.4132 53,40.5C 63.8268,12.6701 83.6602,2.83675 112.5,11C 115.912,12.4545 119.079,14.2879 122,16.5C 129.058,7.89772 137.892,2.23106 148.5,-0.5 Z"/></g>
<g><path style="opacity:0.993" fill="#fff7e6" d="M 344.5,-0.5 C 350.5,-0.5 356.5,-0.5 362.5,-0.5C 373.108,2.23106 381.942,7.89772 389,16.5C 406.378,4.74407 423.878,4.57741 441.5,16C 449.625,22.4218 455.125,30.5884 458,40.5C 484.66,36.4132 502.493,47.0799 511.5,72.5C 511.5,78.8333 511.5,85.1667 511.5,91.5C 506.32,110.013 494.32,121.346 475.5,125.5C 476.528,142.102 470.528,155.436 457.5,165.5C 451.704,158.912 444.704,153.745 436.5,150C 428.801,146.918 420.801,145.752 412.5,146.5C 395.27,94.2681 360.936,58.2681 309.5,38.5C 313.164,18.0872 324.83,5.08721 344.5,-0.5 Z"/></g>
<g><path style="opacity:0.999" fill="#fedcce" d="M 309.5,38.5 C 360.936,58.2681 395.27,94.2681 412.5,146.5C 415.644,159.652 417.644,172.985 418.5,186.5C 415.881,186.232 413.381,186.565 411,187.5C 409.193,208.932 401.527,227.932 388,244.5C 370.044,266.058 347.877,281.558 321.5,291C 309.915,292.38 298.582,291.38 287.5,288C 280.621,284.394 273.621,281.061 266.5,278C 256.956,275.634 247.622,276.301 238.5,280C 214.781,294.734 190.781,295.234 166.5,281.5C 162.5,278.5 158.5,275.5 154.5,272.5C 123.437,203.359 126.937,136.026 165,70.5C 169.521,63.4434 174.021,56.4434 178.5,49.5C 185.909,45.2548 193.575,41.5882 201.5,38.5C 237.5,26.5 273.5,26.5 309.5,38.5 Z"/></g>
<g><path style="opacity:1" fill="#ffcbbe" d="M 178.5,49.5 C 174.021,56.4434 169.521,63.4434 165,70.5C 126.937,136.026 123.437,203.359 154.5,272.5C 133.497,258.662 117.664,240.328 107,217.5C 103.521,207.771 101.187,197.771 100,187.5C 97.8063,185.163 95.3063,184.83 92.5,186.5C 93.4754,173.005 95.4754,159.672 98.5,146.5C 112.195,103.428 138.862,71.0944 178.5,49.5 Z"/></g>
<g><path style="opacity:0.992" fill="#ffddcf" d="M 98.5,146.5 C 95.4754,159.672 93.4754,173.005 92.5,186.5C 82.9877,195.673 78.321,207.006 78.5,220.5C 78.7967,226.174 79.13,231.841 79.5,237.5C 55.3963,229.194 44.2296,212.194 46,186.5C 47.0261,178.918 49.5261,171.918 53.5,165.5C 57.6197,161.554 61.953,157.721 66.5,154C 76.2247,147.481 86.8914,144.981 98.5,146.5 Z"/></g>
<g><path style="opacity:1" fill="#464646" d="M 199.5,172.5 C 192.82,175.374 188.82,173.374 187.5,166.5C 187.09,160.379 187.59,154.379 189,148.5C 193.877,145.479 198.21,146.146 202,150.5C 202.667,156.5 202.667,162.5 202,168.5C 201.338,169.984 200.504,171.317 199.5,172.5 Z"/></g>
<g><path style="opacity:1" fill="#4b4949" d="M 331.5,166.5 C 330.011,172.886 326.011,175.219 319.5,173.5C 316.05,169.744 314.717,165.244 315.5,160C 313.669,150.56 317.336,146.226 326.5,147C 327.931,147.465 329.097,148.299 330,149.5C 331.404,155.044 331.904,160.71 331.5,166.5 Z"/></g>
<g><path style="opacity:0.987" fill="#ffcbbe" d="M 412.5,146.5 C 420.801,145.752 428.801,146.918 436.5,150C 444.704,153.745 451.704,158.912 457.5,165.5C 470.575,189.547 467.242,211.047 447.5,230C 442.798,233.851 437.465,236.351 431.5,237.5C 436.062,218.077 431.728,201.077 418.5,186.5C 417.644,172.985 415.644,159.652 412.5,146.5 Z"/></g>
<g><path style="opacity:1" fill="#fea1ac" d="M 187.5,166.5 C 188.82,173.374 192.82,175.374 199.5,172.5C 210.959,185.409 209.959,197.242 196.5,208C 178.976,217.387 163.476,214.887 150,200.5C 143.891,184.214 149.058,173.047 165.5,167C 172.794,165.17 180.127,165.003 187.5,166.5 Z"/></g>
<g><path style="opacity:1" fill="#fea1ac" d="M 319.5,173.5 C 326.011,175.219 330.011,172.886 331.5,166.5C 344.571,163.642 356.071,166.642 366,175.5C 375.329,193.037 370.496,205.204 351.5,212C 335.3,216.588 322.466,212.088 313,198.5C 308.582,188.279 310.749,179.946 319.5,173.5 Z"/></g>
<g><path style="opacity:1" fill="#fef0cf" d="M 154.5,272.5 C 158.5,275.5 162.5,278.5 166.5,281.5C 173.496,343.361 195.996,398.694 234,447.5C 244.74,460.075 256.573,471.409 269.5,481.5C 253.089,484.829 237.089,482.996 221.5,476C 194.342,462.426 172.008,443.259 154.5,418.5C 146.074,406.749 138.074,394.749 130.5,382.5C 104.964,337.229 87.9642,288.896 79.5,237.5C 79.13,231.841 78.7967,226.174 78.5,220.5C 78.321,207.006 82.9877,195.673 92.5,186.5C 95.3063,184.83 97.8063,185.163 100,187.5C 101.187,197.771 103.521,207.771 107,217.5C 117.664,240.328 133.497,258.662 154.5,272.5 Z"/></g>
<g><path style="opacity:0.999" fill="#fef7e5" d="M 418.5,186.5 C 431.728,201.077 436.062,218.077 431.5,237.5C 423.036,288.895 406.036,337.228 380.5,382.5C 366.307,406.67 349.307,428.836 329.5,449C 317.011,461.084 302.677,470.417 286.5,477C 280.894,478.815 275.227,480.315 269.5,481.5C 256.573,471.409 244.74,460.075 234,447.5C 195.996,398.694 173.496,343.361 166.5,281.5C 190.781,295.234 214.781,294.734 238.5,280C 247.622,276.301 256.956,275.634 266.5,278C 273.621,281.061 280.621,284.394 287.5,288C 298.582,291.38 309.915,292.38 321.5,291C 347.877,281.558 370.044,266.058 388,244.5C 401.527,227.932 409.193,208.932 411,187.5C 413.381,186.565 415.881,186.232 418.5,186.5 Z"/></g>
<g><path style="opacity:1" fill="#fff7e5" d="M 250.5,200.5 C 266.912,198.92 281.578,203.086 294.5,213C 302.629,224.12 313.296,231.786 326.5,236C 329.087,237.525 329.92,239.692 329,242.5C 325.238,246.13 320.738,248.297 315.5,249C 304.544,250.517 293.544,250.85 282.5,250C 273.972,248.243 265.472,246.409 257,244.5C 247.937,246.706 238.77,248.539 229.5,250C 220.167,250.667 210.833,250.667 201.5,250C 196.864,249.121 192.531,247.455 188.5,245C 184.5,242 184.5,239 188.5,236C 195.446,233.194 202.112,229.861 208.5,226C 213.728,219.86 219.395,214.194 225.5,209C 233.129,203.849 241.462,201.016 250.5,200.5 Z"/></g>
<g><path style="opacity:0.997" fill="#db9e82" d="M 380.5,382.5 C 402.275,403.363 417.441,428.363 426,457.5C 427.974,485.255 415.807,503.255 389.5,511.5C 325.833,511.5 262.167,511.5 198.5,511.5C 174.485,485.128 159.818,454.128 154.5,418.5C 172.008,443.259 194.342,462.426 221.5,476C 237.089,482.996 253.089,484.829 269.5,481.5C 275.227,480.315 280.894,478.815 286.5,477C 302.677,470.417 317.011,461.084 329.5,449C 349.307,428.836 366.307,406.67 380.5,382.5 Z"/></g>
<g><path style="opacity:1" fill="#c8866a" d="M 130.5,382.5 C 138.074,394.749 146.074,406.749 154.5,418.5C 159.818,454.128 174.485,485.128 198.5,511.5C 173.167,511.5 147.833,511.5 122.5,511.5C 95.883,502.97 83.7164,484.637 86,456.5C 94.9772,428.195 109.811,403.529 130.5,382.5 Z"/></g>
</svg>
