<svg height="512pt" viewBox="0 0 512.00056 512" width="512pt" xmlns="http://www.w3.org/2000/svg"><path d="m241.789062 366.171875-64.761718-31.203125-31.203125-64.761719-86.3125-9.964843 3.425781.914062c.625.167969 1.199219.496094 1.660156.953125l82.933594 102.355469 102.355469 82.933594c.457031.460937.785156 1.035156.953125 1.660156l.914062 3.421875zm0 0" fill="#5d5360"/><path d="m306.988281 300.96875-65.394531 65.394531c-.898438.898438-2.191406 1.300781-3.4375 1.039063-23.289062-4.839844-43.988281-15.292969-60.371094-31.675782-17.238281-17.238281-27.910156-39.238281-32.394531-63.996093-.105469-.578125.085937-1.171875.5-1.585938l65.136719-65.136719zm0 0" fill="#4b3f4e"/><path d="m432.523438 256.414062c-78.824219 78.824219-182.332032 103.117188-231.191407 54.261719-48.867187-48.867187-24.574219-152.375 54.253907-231.203125 37.519531-37.523437 80.628906-62.679687 120.777343-73.472656 44.203125-11.90625 84.8125-6.390625 110.421875 19.21875 25.609375 25.613281 31.125 66.222656 19.203125 110.421875-10.785156 40.15625-35.949219 83.257813-73.464843 120.773437zm0 0" fill="#5d5360"/><path d="m486.785156 25.21875c-8.109375-8.109375-17.722656-14.195312-28.476562-18.359375 18.117187 25.539063 21.0625 61.511719 10.617187 100.246094-10.785156 40.15625-35.953125 83.257812-73.464843 120.769531-65.75 65.75-148.660157 93.546875-202.714844 72.613281 2.558594 3.609375 5.414062 7.015625 8.585937 10.183594 48.859375 48.859375 152.363281 24.566406 231.191407-54.261719 37.515624-37.511718 62.679687-80.613281 73.464843-120.769531 11.921875-44.199219 6.40625-84.8125-19.203125-110.421875zm0 0" fill="#4b3f4e"/><path d="m186.945312 509.769531-184.71875-184.71875c-2.96875-2.964843-2.96875-7.777343 0-10.746093l52.199219-52.199219c2.96875-2.96875 7.777344-2.96875 10.746094 0l184.71875 184.71875c2.96875 2.96875 2.96875 7.777343 0 10.746093l-52.199219 52.199219c-2.96875 2.96875-7.78125 2.96875-10.746094 0zm0 0" fill="#ff8b5a"/><path d="m186.945312 509.769531-184.71875-184.71875c-2.96875-2.964843-2.96875-7.777343 0-10.746093l52.199219-52.199219c2.96875-2.96875 7.777344-2.96875 10.746094 0l184.71875 184.71875c2.96875 2.96875 2.96875 7.777343 0 10.746093l-52.199219 52.199219c-2.96875 2.96875-7.78125 2.96875-10.746094 0zm0 0" fill="#ff8b5a"/><path d="m249.890625 446.824219-26.058594-26.058594c2.96875 2.964844 2.964844 7.777344 0 10.746094l-52.199219 52.199219c-2.96875 2.96875-7.78125 2.96875-10.75 0l-158.65625-158.660157 184.71875 184.71875c2.964844 2.96875 7.777344 2.96875 10.746094 0l52.199219-52.199219c2.96875-2.96875 2.96875-7.777343 0-10.746093zm0 0" fill="#ff7350"/><path d="m332.777344 323.019531c-52.125 20.007813-101.824219 17.273438-131.445313-12.347656-29.628906-29.628906-32.363281-79.34375-12.347656-131.460937 12.25 31.09375 31.375 60.792968 57.195313 86.613281 25.8125 25.8125 55.511718 44.9375 86.597656 57.195312zm0 0" fill="#857e87"/><path d="m332.773438 323.019531c-16.273438-6.417969-32.160157-14.734375-47.3125-24.890625-34.160157 11.222656-66.765626 12.410156-92.714844 2.359375 2.558594 3.609375 5.414062 7.015625 8.585937 10.183594 29.617188 29.621094 79.324219 32.347656 131.441407 12.347656zm0 0" fill="#6f6571"/><path d="m505.992188 135.640625c-27.457032-12.265625-53.582032-29.96875-76.621094-53.007813-23.046875-23.046874-40.75-49.171874-53.007813-76.632812 44.203125-11.90625 84.8125-6.390625 110.421875 19.21875s31.125 66.222656 19.207032 110.421875zm0 0" fill="#857e87"/><path d="m466.988281 113.824219c12.550781 8.550781 25.617188 15.835937 39.003907 21.816406 11.917968-44.203125 6.402343-84.8125-19.207032-110.421875-8.109375-8.109375-17.722656-14.195312-28.476562-18.359375 18.117187 25.539063 21.0625 61.511719 10.617187 100.246094-.601562 2.230469-1.25 4.46875-1.9375 6.71875zm0 0" fill="#6f6571"/><path d="m377.613281 208.777344c-20.542969 20.546875-53.851562 20.546875-74.394531 0-12.542969-12.539063-17.429688-29.835938-14.660156-46.078125 1.769531-10.371094 6.65625-20.3125 14.660156-28.316407 20.542969-20.542968 53.851562-20.542968 74.394531 0 20.542969 20.542969 20.542969 53.851563 0 74.394532zm0 0" fill="#ffe07e"/><path d="m358.226562 171.582031c0 9.835938-7.976562 17.808594-17.8125 17.808594-9.835937 0-17.808593-7.972656-17.808593-17.808594 0-9.835937 7.972656-17.8125 17.808593-17.8125 9.835938 0 17.8125 7.976563 17.8125 17.8125zm0 0" fill="#fff"/></svg>