<svg height="512pt" viewBox="0 0 512 512" width="512pt" xmlns="http://www.w3.org/2000/svg"><path d="m512 331.035156v172.136719c0 4.875-3.953125 8.828125-8.828125 8.828125h-123.585937v-185.378906h17.65625v4.414062l4.058593-4.414062h106.636719zm0 0" fill="#4482c3"/><path d="m185.378906 180.964844c-4.875 0-8.828125-3.953125-8.828125-8.828125v-52.964844c0-4.875 3.953125-8.828125 8.828125-8.828125s8.828125 3.953125 8.828125 8.828125v52.964844c0 4.875-3.953125 8.828125-8.828125 8.828125zm0 0" fill="#2c3e50"/><path d="m229.949219 216.277344h-89.15625c1.097656-24.082032 20.496093-43.285156 44.585937-44.140625 24.082032.863281 43.472656 20.066406 44.570313 44.140625zm0 0" fill="#3d324c"/><path d="m44.136719 229.515625h44.140625c4.875 0 8.824218 3.953125 8.824218 8.828125v44.140625h-61.792968v-44.140625c0-4.875 3.953125-8.828125 8.828125-8.828125zm0 0" fill="#285680"/><path d="m308.964844 52.964844h52.964844c4.875 0 8.828124 3.953125 8.828124 8.828125v79.449219c0 4.875-3.953124 8.828124-8.828124 8.828124h-52.964844c-4.875 0-8.828125-3.953124-8.828125-8.828124v-79.449219c0-4.875 3.953125-8.828125 8.828125-8.828125zm0 0" fill="#af8066"/><path d="m300.136719 141.242188h70.621093c4.875 0 8.828126 3.953124 8.828126 8.828124v123.585938c0 4.875-3.953126 8.828125-8.828126 8.828125h-70.621093c-4.875 0-8.828125-3.953125-8.828125-8.828125v-123.585938c0-4.875 3.953125-8.828124 8.828125-8.828124zm0 0" fill="#cbb292"/><path d="m8.828125 264.828125h158.894531v247.171875h-158.894531c-4.875 0-8.828125-3.953125-8.828125-8.828125v-229.515625c0-4.875 3.953125-8.828125 8.828125-8.828125zm0 0" fill="#4482c3"/><path d="m230.195312 512c4.683594-.195312 8.328126-4.144531 8.148438-8.828125v-282.480469c0-4.878906-3.949219-8.828125-8.828125-8.828125h-88.273437c-4.875 0-8.828126 3.949219-8.828126 8.828125v291.308594" fill="#556080"/><path d="m397.242188 273.65625v238.34375h-114.757813c-4.878906 0-8.828125-3.953125-8.828125-8.828125v-229.515625c0-4.875 3.949219-8.828125 8.828125-8.828125h105.929687c4.875 0 8.828126 3.953125 8.828126 8.828125zm0 0" fill="#7f6e5d"/><path d="m330 16.859375-32.40625 37.640625c-1.121094 1.308594-1.382812 3.148438-.664062 4.714844.714843 1.566406 2.28125 2.574218 4.003906 2.578125h69.429687c1.699219.003906 3.25-.972657 3.988281-2.507813.734376-1.53125.519532-3.355468-.546874-4.675781l-30.234376-37.527344c-1.644531-2.042969-4.113281-3.25-6.734374-3.289062-2.621094-.042969-5.125 1.082031-6.835938 3.066406zm0 0" fill="#7f6e5d"/><path d="m167.722656 75.035156c0 17.0625-13.832031 30.894532-30.894531 30.894532h-101.519531c-19.5 0-35.308594-15.808594-35.308594-35.308594s15.808594-35.3125 35.308594-35.3125c3.042968.011718 6.074218.425781 9.007812 1.238281 1.96875-21.023437 20.039063-36.835937 41.140625-35.988281 21.097657.84375 37.847657 18.050781 38.128907 39.164062.003906 2.640625-.261719 5.273438-.792969 7.859375 4.328125-2.273437 9.144531-3.457031 14.035156-3.445312 17.0625 0 30.894531 13.835937 30.894531 30.898437zm0 0" fill="#a5a5a4"/><path d="m512 39.722656c0 21.941406-17.785156 39.726563-39.722656 39.726563-21.941406 0-39.726563-17.785157-39.726563-39.726563 0-21.9375 17.785157-39.722656 39.726563-39.722656 21.9375 0 39.722656 17.785156 39.722656 39.722656zm0 0" fill="#f0c419"/><path d="m167.722656 273.65625c-4.875 0-8.824218-3.953125-8.824218-8.828125v-17.65625c0-4.875 3.949218-8.828125 8.824218-8.828125s8.828125 3.953125 8.828125 8.828125v17.65625c0 4.875-3.953125 8.828125-8.828125 8.828125zm0 0" fill="#2c3e50"/><path d="m203.035156 273.65625c-4.875 0-8.828125-3.953125-8.828125-8.828125v-17.65625c0-4.875 3.953125-8.828125 8.828125-8.828125s8.828125 3.953125 8.828125 8.828125v17.65625c0 4.875-3.953125 8.828125-8.828125 8.828125zm0 0" fill="#2c3e50"/><path d="m167.722656 326.621094c-4.875 0-8.824218-3.953125-8.824218-8.828125v-17.65625c0-4.875 3.949218-8.828125 8.824218-8.828125s8.828125 3.953125 8.828125 8.828125v17.65625c0 4.875-3.953125 8.828125-8.828125 8.828125zm0 0" fill="#2c3e50"/><path d="m203.035156 326.621094c-4.875 0-8.828125-3.953125-8.828125-8.828125v-17.65625c0-4.875 3.953125-8.828125 8.828125-8.828125s8.828125 3.953125 8.828125 8.828125v17.65625c0 4.875-3.953125 8.828125-8.828125 8.828125zm0 0" fill="#2c3e50"/><path d="m167.722656 379.585938c-4.875 0-8.824218-3.953126-8.824218-8.828126v-17.65625c0-4.875 3.949218-8.824218 8.824218-8.824218s8.828125 3.949218 8.828125 8.824218v17.65625c0 4.875-3.953125 8.828126-8.828125 8.828126zm0 0" fill="#2c3e50"/><path d="m203.035156 379.585938c-4.875 0-8.828125-3.953126-8.828125-8.828126v-17.65625c0-4.875 3.953125-8.824218 8.828125-8.824218s8.828125 3.949218 8.828125 8.824218v17.65625c0 4.875-3.953125 8.828126-8.828125 8.828126zm0 0" fill="#2c3e50"/><path d="m167.722656 432.550781c-4.875 0-8.824218-3.953125-8.824218-8.828125v-17.652344c0-4.875 3.949218-8.828124 8.824218-8.828124s8.828125 3.953124 8.828125 8.828124v17.652344c0 4.875-3.953125 8.828125-8.828125 8.828125zm0 0" fill="#2c3e50"/><path d="m203.035156 432.550781c-4.875 0-8.828125-3.953125-8.828125-8.828125v-17.652344c0-4.875 3.953125-8.828124 8.828125-8.828124s8.828125 3.953124 8.828125 8.828124v17.652344c0 4.875-3.953125 8.828125-8.828125 8.828125zm0 0" fill="#2c3e50"/><path d="m167.722656 485.515625c-4.875 0-8.824218-3.949219-8.824218-8.824219v-17.65625c0-4.875 3.949218-8.828125 8.824218-8.828125s8.828125 3.953125 8.828125 8.828125v17.65625c0 4.875-3.953125 8.824219-8.828125 8.824219zm0 0" fill="#2c3e50"/><path d="m203.035156 485.515625c-4.875 0-8.828125-3.949219-8.828125-8.824219v-17.65625c0-4.875 3.953125-8.828125 8.828125-8.828125s8.828125 3.953125 8.828125 8.828125v17.65625c0 4.875-3.953125 8.824219-8.828125 8.824219zm0 0" fill="#2c3e50"/><path d="m308.964844 326.621094c-4.875 0-8.828125-3.953125-8.828125-8.828125v-17.65625c0-4.875 3.953125-8.828125 8.828125-8.828125s8.828125 3.953125 8.828125 8.828125v17.65625c0 4.875-3.953125 8.828125-8.828125 8.828125zm0 0" fill="#2c3e50"/><path d="m335.449219 238.34375c-4.875 0-8.828125-3.949219-8.828125-8.828125v-17.652344c0-4.875 3.953125-8.828125 8.828125-8.828125s8.828125 3.953125 8.828125 8.828125v17.652344c0 4.878906-3.953125 8.828125-8.828125 8.828125zm0 0" fill="#2c3e50"/><path d="m335.449219 114.757812c-4.875 0-8.828125-3.953124-8.828125-8.828124v-17.652344c0-4.875 3.953125-8.828125 8.828125-8.828125s8.828125 3.953125 8.828125 8.828125v17.652344c0 4.875-3.953125 8.828124-8.828125 8.828124zm0 0" fill="#2c3e50"/><path d="m361.929688 326.621094c-4.875 0-8.828126-3.953125-8.828126-8.828125v-17.65625c0-4.875 3.953126-8.828125 8.828126-8.828125s8.828124 3.953125 8.828124 8.828125v17.65625c0 4.875-3.953124 8.828125-8.828124 8.828125zm0 0" fill="#2c3e50"/><path d="m308.964844 379.585938c-4.875 0-8.828125-3.953126-8.828125-8.828126v-17.65625c0-4.875 3.953125-8.824218 8.828125-8.824218s8.828125 3.949218 8.828125 8.824218v17.65625c0 4.875-3.953125 8.828126-8.828125 8.828126zm0 0" fill="#2c3e50"/><path d="m361.929688 379.585938c-4.875 0-8.828126-3.953126-8.828126-8.828126v-17.65625c0-4.875 3.953126-8.824218 8.828126-8.824218s8.828124 3.949218 8.828124 8.824218v17.65625c0 4.875-3.953124 8.828126-8.828124 8.828126zm0 0" fill="#2c3e50"/><path d="m308.964844 432.550781c-4.875 0-8.828125-3.953125-8.828125-8.828125v-17.652344c0-4.875 3.953125-8.828124 8.828125-8.828124s8.828125 3.953124 8.828125 8.828124v17.652344c0 4.875-3.953125 8.828125-8.828125 8.828125zm0 0" fill="#2c3e50"/><path d="m361.929688 432.550781c-4.875 0-8.828126-3.953125-8.828126-8.828125v-17.652344c0-4.875 3.953126-8.828124 8.828126-8.828124s8.828124 3.953124 8.828124 8.828124v17.652344c0 4.875-3.953124 8.828125-8.828124 8.828125zm0 0" fill="#2c3e50"/><path d="m326.621094 459.035156h17.65625c4.875 0 8.824218 3.953125 8.824218 8.828125v44.136719h-35.308593v-44.136719c0-4.875 3.953125-8.828125 8.828125-8.828125zm0 0" fill="#cbb292"/><g fill="#2c3e50"><path d="m441.378906 370.757812h-8.828125c-4.875 0-8.828125-3.953124-8.828125-8.828124s3.953125-8.828126 8.828125-8.828126h8.828125c4.875 0 8.828125 3.953126 8.828125 8.828126s-3.953125 8.828124-8.828125 8.828124zm0 0"/><path d="m441.378906 406.070312h-8.828125c-4.875 0-8.828125-3.953124-8.828125-8.828124s3.953125-8.828126 8.828125-8.828126h8.828125c4.875 0 8.828125 3.953126 8.828125 8.828126s-3.953125 8.828124-8.828125 8.828124zm0 0"/><path d="m441.378906 441.378906h-8.828125c-4.875 0-8.828125-3.953125-8.828125-8.828125s3.953125-8.828125 8.828125-8.828125h8.828125c4.875 0 8.828125 3.953125 8.828125 8.828125s-3.953125 8.828125-8.828125 8.828125zm0 0"/><path d="m441.378906 476.691406h-8.828125c-4.875 0-8.828125-3.953125-8.828125-8.828125s3.953125-8.828125 8.828125-8.828125h8.828125c4.875 0 8.828125 3.953125 8.828125 8.828125s-3.953125 8.828125-8.828125 8.828125zm0 0"/><path d="m61.792969 379.585938h-25.601563c-4.875 0-8.824218-3.953126-8.824218-8.828126s3.949218-8.828124 8.824218-8.828124h25.601563c4.875 0 8.828125 3.953124 8.828125 8.828124s-3.953125 8.828126-8.828125 8.828126zm0 0"/><path d="m61.792969 344.277344h-25.601563c-4.875 0-8.824218-3.953125-8.824218-8.828125s3.949218-8.828125 8.824218-8.828125h25.601563c4.875 0 8.828125 3.953125 8.828125 8.828125s-3.953125 8.828125-8.828125 8.828125zm0 0"/><path d="m61.792969 308.964844h-25.601563c-4.875 0-8.824218-3.953125-8.824218-8.828125s3.949218-8.828125 8.824218-8.828125h25.601563c4.875 0 8.828125 3.953125 8.828125 8.828125s-3.953125 8.828125-8.828125 8.828125zm0 0"/><path d="m61.792969 414.898438h-25.601563c-4.875 0-8.824218-3.953126-8.824218-8.828126s3.949218-8.828124 8.824218-8.828124h25.601563c4.875 0 8.828125 3.953124 8.828125 8.828124s-3.953125 8.828126-8.828125 8.828126zm0 0"/><path d="m61.792969 450.207031h-25.601563c-4.875 0-8.824218-3.953125-8.824218-8.828125s3.949218-8.828125 8.824218-8.828125h25.601563c4.875 0 8.828125 3.953125 8.828125 8.828125s-3.953125 8.828125-8.828125 8.828125zm0 0"/><path d="m61.792969 485.515625h-25.601563c-4.875 0-8.824218-3.949219-8.824218-8.824219 0-4.878906 3.949218-8.828125 8.824218-8.828125h25.601563c4.875 0 8.828125 3.949219 8.828125 8.828125 0 4.875-3.953125 8.824219-8.828125 8.824219zm0 0"/><path d="m476.691406 370.757812c-1.15625-.011718-2.296875-.253906-3.355468-.707031-1.082032-.425781-2.070313-1.054687-2.914063-1.851562-1.613281-1.691407-2.527344-3.929688-2.558594-6.269531.011719-1.152344.253907-2.292969.703125-3.351563.40625-1.09375 1.039063-2.085937 1.855469-2.914063 3.539063-3.265624 8.996094-3.265624 12.535156 0 .816407.828126 1.449219 1.820313 1.855469 2.914063.941406 2.136719.941406 4.570313 0 6.707031-.449219 1.070313-1.078125 2.054688-1.855469 2.914063-1.691406 1.609375-3.929687 2.523437-6.265625 2.558593zm0 0"/><path d="m476.691406 406.070312c-2.339844-.035156-4.578125-.949218-6.269531-2.5625l-1.058594-1.324218c-.335937-.492188-.601562-1.023438-.796875-1.585938-.253906-.503906-.433594-1.039062-.527344-1.589844-.097656-.585937-.15625-1.175781-.175781-1.765624.011719-1.15625.253907-2.292969.703125-3.355469.429688-1.082031 1.058594-2.070313 1.855469-2.914063 2.113281-2.082031 5.125-2.976562 8.035156-2.382812.550781.097656 1.085938.273437 1.585938.53125.5625.191406 1.097656.460937 1.589843.792968.460938.328126.90625.679688 1.324219 1.058594 1.613281 1.695313 2.527344 3.933594 2.558594 6.269532-.019531.589843-.078125 1.179687-.175781 1.765624-.09375.550782-.273438 1.085938-.527344 1.589844-.195312.5625-.460938 1.09375-.796875 1.585938l-1.058594 1.324218-1.324219 1.058594c-.492187.335938-1.027343.601563-1.589843.796875-.5.253907-1.035157.433594-1.585938.527344-.585937.101563-1.175781.160156-1.765625.179687zm0 0"/><path d="m476.691406 441.378906c-3.589844.019532-6.832031-2.128906-8.207031-5.441406s-.609375-7.128906 1.9375-9.652344c2.121094-2.070312 5.125-2.964844 8.035156-2.382812.550781.09375 1.085938.273437 1.585938.527344.5625.195312 1.097656.460937 1.589843.796874.460938.324219.90625.679688 1.324219 1.058594 2.546875 2.523438 3.3125 6.339844 1.9375 9.652344s-4.617187 5.460938-8.203125 5.441406zm0 0"/><path d="m476.691406 476.691406c-4.164062-.042968-7.71875-3.011718-8.5-7.101562-.78125-4.085938 1.429688-8.15625 5.28125-9.730469 3.851563-1.574219 8.277344-.210937 10.582032 3.253906 2.304687 3.464844 1.84375 8.074219-1.097657 11.015625-1.691406 1.613282-3.929687 2.527344-6.265625 2.5625zm0 0"/><path d="m105.929688 300.136719c0 4.875-3.949219 8.828125-8.828126 8.828125-4.875 0-8.824218-3.953125-8.824218-8.828125s3.949218-8.828125 8.824218-8.828125c4.878907 0 8.828126 3.953125 8.828126 8.828125zm0 0"/><path d="m344.277344 176.550781c0 4.875-3.953125 8.828125-8.828125 8.828125s-8.828125-3.953125-8.828125-8.828125 3.953125-8.828125 8.828125-8.828125 8.828125 3.953125 8.828125 8.828125zm0 0"/><path d="m105.929688 335.449219c0 4.875-3.949219 8.828125-8.828126 8.828125-4.875 0-8.824218-3.953125-8.824218-8.828125s3.949218-8.828125 8.824218-8.828125c4.878907 0 8.828126 3.953125 8.828126 8.828125zm0 0"/><path d="m105.929688 370.757812c0 4.875-3.949219 8.828126-8.828126 8.828126-4.875 0-8.824218-3.953126-8.824218-8.828126s3.949218-8.828124 8.824218-8.828124c4.878907 0 8.828126 3.953124 8.828126 8.828124zm0 0"/><path d="m105.929688 406.070312c0 4.875-3.949219 8.828126-8.828126 8.828126-4.875 0-8.824218-3.953126-8.824218-8.828126s3.949218-8.828124 8.824218-8.828124c4.878907 0 8.828126 3.953124 8.828126 8.828124zm0 0"/><path d="m105.929688 441.378906c0 4.875-3.949219 8.828125-8.828126 8.828125-4.875 0-8.824218-3.953125-8.824218-8.828125s3.949218-8.828125 8.824218-8.828125c4.878907 0 8.828126 3.953125 8.828126 8.828125zm0 0"/><path d="m105.929688 476.691406c0 4.875-3.949219 8.824219-8.828126 8.824219-4.875 0-8.824218-3.949219-8.824218-8.824219 0-4.878906 3.949218-8.828125 8.824218-8.828125 4.878907 0 8.828126 3.949219 8.828126 8.828125zm0 0"/></g><path d="m512 331.035156h-114.757812l4.058593-4.414062 23.925781-25.863282c3.015626-3.171874 7.1875-4.988281 11.5625-5.035156h35.574219c4.441407.03125 8.667969 1.921875 11.652344 5.210938l23.921875 25.6875zm0 0" fill="#285680"/></svg>