<?xml version="1.0" ?>
<!-- Uploaded to: SVG Repo, www.svgrepo.com, Generator: SVG Repo Mixer Tools -->
<svg width="800px" height="800px" viewBox="0 0 24 24" enable-background="new 0 0 24 24" id="Layer_1" version="1.1" xml:space="preserve" xmlns="http://www.w3.org/2000/svg" xmlns:xlink="http://www.w3.org/1999/xlink">
<g>
<path d="M13.5,3h8C21.7753906,3,22,3.2241211,22,3.5S21.7753906,4,21.5,4h-5C15.6728516,4,15,4.6728516,15,5.5   S15.6728516,7,16.5,7h2C18.7753906,7,19,7.2241211,19,7.5C19,7.7763672,19.2236328,8,19.5,8S20,7.7763672,20,7.5   C20,6.6728516,19.3271484,6,18.5,6h-2C16.2246094,6,16,5.7758789,16,5.5S16.2246094,5,16.5,5h5C22.3271484,5,23,4.3271484,23,3.5   S22.3271484,2,21.5,2h-8C13.2236328,2,13,2.2236328,13,2.5S13.2236328,3,13.5,3z" fill="#303C42"/>
<path d="M23.5,12h-0.5528564c-0.2456665-1.2272949-1.3723755-2.1507568-2.7127686-1.9833984   C19.8847656,9.4013672,19.2246094,9,18.5,9s-1.3828125,0.3955078-1.7333984,1.0136719C15.7734375,10.1293945,15,10.9760742,15,12   h-0.5c-0.2763672,0-0.5,0.2236328-0.5,0.5v1.4248047c-0.2705078-0.3930664-0.5322266-0.7792969-0.7871094-1.1572266   C10.3458252,8.5289917,8.053833,5.1695557,1,5.0147705V4.5C1,4.2236328,0.7763672,4,0.5,4S0,4.2236328,0,4.5v2   C0,6.7763672,0.2236328,7,0.5,7S1,6.7763672,1,6.5V6.0883179c5.0692749,0.8598633,6.9707031,4.3422241,9.1484375,8.3613892   c0.8779297,1.6201172,1.7851562,3.2954102,2.9511719,4.8500977C14.9785156,21.8051758,18.0908203,22,19,22   c2.7568359,0,5-2.2431641,5-5v-4.5C24,12.2236328,23.7763672,12,23.5,12z" fill="#303C42"/>
<path d="M17.0478516,11.0083008c0.0058594,0,0.0117188,0,0.0166016,0   c0.2441406,0.0039062,0.4238281-0.1259766,0.4970703-0.3349609C17.7011719,10.2705078,18.0791016,10,18.5,10   c0.4404297,0,0.8330078,0.2993164,0.9560547,0.7280273c0.0361328,0.1279297,0.1230469,0.2363281,0.2402344,0.3007812   c0.1162014,0.0639648,0.2558594,0.078125,0.3818359,0.0410156C20.2392578,11.0219727,20.3730469,11,20.5,11   c0.651001,0,1.2008057,0.4192505,1.4078979,1H16C16,11.4536133,16.4404297,11.0083008,17.0478516,11.0083008z" fill="#C2C79B"/>
<path d="M17.0478516,11.5083008c0.0058594,0,0.0117188,0,0.0166016,0   c0.2441406,0.0039062,0.4238281-0.1259766,0.4970703-0.3349609C17.7011719,10.7705078,18.0791016,10.5,18.5,10.5   c0.4404297,0,0.8330078,0.2993164,0.9560547,0.7280273c0.0361328,0.1279297,0.1230469,0.2363281,0.2402344,0.3007812   c0.1162014,0.0639648,0.2558594,0.078125,0.3818359,0.0410156C20.2392578,11.5219727,20.3730469,11.5,20.5,11.5   c0.4374905,0,0.8189697,0.199585,1.0917358,0.5h0.3161621C21.7008057,11.4192505,21.151001,11,20.5,11   c-0.1269531,0-0.2607422,0.0219727-0.421875,0.0698242c-0.1259766,0.0371094-0.2656345,0.0229492-0.3818359-0.0410156   c-0.1171875-0.0644531-0.2041016-0.1728516-0.2402344-0.3007812C19.3330078,10.2993164,18.9404297,10,18.5,10   c-0.4208984,0-0.7988281,0.2705078-0.9384766,0.6733398c-0.0732422,0.2089844-0.2529297,0.3388672-0.4970703,0.3349609   c-0.0048828,0-0.0107422,0-0.0166016,0C16.4404297,11.0083008,16,11.4536133,16,12h0.1574707   C16.3344116,11.7116089,16.6474609,11.5083008,17.0478516,11.5083008z" fill="#FFFFFF" opacity="0.2"/>
<path d="M23,17c0,2.2055664-1.7939453,4-4,4c-1.6318359,0-3.828125-0.6040039-5.0996094-2.2998047   c-1.1220703-1.4960938-2.0126953-3.1386719-2.8730469-4.7270508c-1.5244141-2.8125-2.9921875-5.5214844-5.5761719-7.2402344   c3.2529297,1.1538086,4.8925781,3.5776367,6.9335938,6.5952148C12.8901367,14.0750732,13.4211426,14.8566284,14,15.6584473V16.5   c0,0.2763672,0.2236328,0.5,0.5,0.5s0.5-0.2236328,0.5-0.5V13h8V17z" fill="#B75C1D"/>
<path d="M22.0488281,13v2.5c0,2.2055664-1.7939453,4-4,4c-1.6318359,0-3.828125-0.6040039-5.0996094-2.2998047   c-0.2106934-0.2809448-0.4061279-0.571167-0.6018677-0.861084c0.4758911,0.8071899,0.9844971,1.6030273,1.5530396,2.361084   C15.171875,20.3959961,17.3681641,21,19,21c2.2060547,0,4-1.7944336,4-4v-4H22.0488281z" opacity="0.1"/>
<linearGradient gradientUnits="userSpaceOnUse" id="SVGID_1_" x1="0.5659186" x2="25.5340595" y1="3.1750782" y2="14.8179131">
<stop offset="0" style="stop-color:#FFFFFF;stop-opacity:0.2"/>
<stop offset="1" style="stop-color:#FFFFFF;stop-opacity:0"/>
</linearGradient>
<path d="M13.5,3h8C21.7753906,3,22,3.2241211,22,3.5S21.7753906,4,21.5,4h-5   C15.6728516,4,15,4.6728516,15,5.5S15.6728516,7,16.5,7h2C18.7753906,7,19,7.2241211,19,7.5C19,7.7763672,19.2236328,8,19.5,8   S20,7.7763672,20,7.5C20,6.6728516,19.3271484,6,18.5,6h-2C16.2246094,6,16,5.7758789,16,5.5S16.2246094,5,16.5,5h5   C22.3271484,5,23,4.3271484,23,3.5S22.3271484,2,21.5,2h-8C13.2236328,2,13,2.2236328,13,2.5S13.2236328,3,13.5,3z M23.5,12   h-0.5528564c-0.2456665-1.2272949-1.3723755-2.1507568-2.7127686-1.9833984C19.8847656,9.4013672,19.2246094,9,18.5,9   s-1.3828125,0.3955078-1.7333984,1.0136719C15.7734375,10.1293945,15,10.9760742,15,12h-0.5c-0.2763672,0-0.5,0.2236328-0.5,0.5   v1.4248047c-0.2705078-0.3930664-0.5322266-0.7792969-0.7871094-1.1572266C10.3458252,8.5289917,8.053833,5.1695557,1,5.0147705   V4.5C1,4.2236328,0.7763672,4,0.5,4S0,4.2236328,0,4.5v2C0,6.7763672,0.2236328,7,0.5,7S1,6.7763672,1,6.5V6.0883179   c5.0692749,0.8598633,6.9707031,4.3422241,9.1484375,8.3613892c0.8779297,1.6201172,1.7851562,3.2954102,2.9511719,4.8500977   C14.9785156,21.8051758,18.0908203,22,19,22c2.7568359,0,5-2.2431641,5-5v-4.5C24,12.2236328,23.7763672,12,23.5,12z" fill="url(#SVGID_1_)"/>
</g>
<g/>
<g/>
<g/>
<g/>
<g/>
<g/>
<g/>
<g/>
<g/>
<g/>
<g/>
<g/>
<g/>
<g/>
<g/>
</svg>