<?xml version="1.0" encoding="iso-8859-1"?>
<!-- Uploaded to: SVG Repo, www.svgrepo.com, Generator: SVG Repo Mixer Tools -->
<svg xmlns="http://www.w3.org/2000/svg" xmlns:xlink="http://www.w3.org/1999/xlink" version="1.1" id="Layer_1"  viewBox="0 0 412.623 412.623" xml:space="preserve" width="512" height="512">
<g>
	<polygon style="fill:#666666;" points="406.873,100.251 367.813,100.251 391.873,70.124 406.873,70.124  "/>
	<path style="fill:#808080;" d="M401.623,120.83v34.13h-101.31l-0.4-0.05c1.57-13.72,13.22-34.08,27.36-34.08H401.623z"/>
	<path style="fill:#999999;" d="M412.623,127.53h-74.35c-14.14,0-25.79,10.66-27.36,24.38c-0.13,1.04-0.19,2.1-0.19,3.18v5.94   l-28.748,0.026l-59.162,6.774l-5.333,0.333l-5.907-1.333l-22.333-0.968c-21.64,0-39.937,11.118-39.937,30.638   c0,7.32,3.29,13.95,8.61,18.75c4.17,3.76,9.59,6.4,15.66,7.35c1.66,0.27,3.37,0.41,5.12,0.41v0.14h-6.09   c-21.23,0-39.47,15.06-43.49,35.9l-13.77,71.33c-1.36,7.03-7.52,12.12-14.68,12.12h-50.27c-15.38,0-27-13.92-24.27-29.05   l18.1-100.36c0.52-2.86,0.77-5.71,0.77-8.51c0-20.07-12.75-38.05-31.59-44.75c-2.95-1.05-6.05-1.83-9.27-2.29l1.72-19.15   c2.58-28.67,26.61-50.64,55.4-50.64h351.23L412.623,127.53z"/>
	<path style="fill:#666666;" d="M43.273,92.335c-4.566-4.805-11.021-7.806-18.182-7.806C11.237,84.529,0,95.766,0,109.621   c0,8.655,4.375,16.293,11.045,20.788"/>
	<path style="fill:#808080;" d="M47.123,313.45l18.1-100.36c0.52-2.86,0.77-5.71,0.77-8.51c0-23.21-17.06-43.63-40.86-47.04   l1.72-19.15c2.58-28.67,26.61-50.64,55.4-50.64h-21c-28.79,0-52.82,21.97-55.4,50.64l-1.72,19.15   c23.8,3.41,40.86,23.83,40.86,47.04c0,2.8-0.25,5.65-0.77,8.51l-18.1,100.36c-2.73,15.13,8.89,29.05,24.27,29.05h21   C56.013,342.5,44.393,328.58,47.123,313.45z"/>
	<path style="fill:#666666;" d="M196.603,165.854v0.108c-13.982,11.938-14.971,35.535-1.478,47.86h-14.762v-0.015v-0.093   c-7.363,0-14.028-2.298-18.843-6.004c-4.824-3.714-7.807-8.843-7.807-14.507c0-15.102,15.905-27.342,35.527-27.342L196.603,165.854   z"/>
	<path style="fill:#808080;" d="M117.313,342.5H59.435c-4.142,0-7.5-3.358-7.5-7.5s3.358-7.5,7.5-7.5h57.878   c4.142,0,7.5,3.358,7.5,7.5S121.455,342.5,117.313,342.5z"/>
	<g>
		<polygon style="fill:#CCCCCC;" points="275.933,87.75 209.813,87.75 164.453,161.13 230.591,161.101   "/>
		<path style="fill:#CCCCCC;" d="M306.813,87.75l-45.3,73.28l17.48,0.01c0.25-0.01,0.51-0.01,0.77-0.01h8.29l45.3-73.28H306.813z"/>
	</g>
	<path style="fill:#808080;" d="M13.403,159.83c18.84,6.7,31.59,24.68,31.59,44.75c0,2.8-0.25,5.65-0.77,8.51l-18.1,100.36   c-2.73,15.13,8.89,29.05,24.27,29.05h50.27c7.16,0,13.32-5.09,14.68-12.12l13.77-71.33c4.005-20.76,22.121-35.779,43.246-35.895   c17.401,1.234,37.905,1.423,37.905,1.423c18.567,0,35.038-11.949,40.787-29.606l4.665-14.301c0.02-0.061,0.041-0.133,0.072-0.194   c3.785-11.355,14.261-19.109,26.189-19.437H30.148L13.403,159.83z M235.531,176.101c2.909-0.004,4.972,2.836,4.07,5.601   l-2.814,8.626c-3.701,11.368-14.139,19.053-26.064,19.246c-14.219-0.986-31.09-2.839-39.892-4.55   c-3.683-0.716-6.494-3.867-6.528-7.619c0-0.03,0-0.06,0-0.09c0-11.664,11.251-21.153,25.099-21.153l8.309-0.01L235.531,176.101   L235.531,176.101z"/>
	<path style="fill:#666666;" d="M76.846,223.83c-9.418,0-17.485,6.742-19.157,16.011l-13.852,76.805   c-0.482,2.672,0.699,4.571,1.446,5.465c0.746,0.892,2.4,2.389,5.11,2.389h35.791c6.945,0,12.913-4.927,14.23-11.745l11.025-57.114   c1.194-6.188,3.288-12.014,6.129-17.357c3.485-6.554-1.423-14.454-8.846-14.454H76.846z"/>
</g>















</svg>