<?xml version="1.0" encoding="iso-8859-1"?>
<!-- Generator: Adobe Illustrator 19.0.0, SVG Export Plug-In . SVG Version: 6.00 Build 0)  -->
<svg version="1.1" id="Layer_1" xmlns="http://www.w3.org/2000/svg" xmlns:xlink="http://www.w3.org/1999/xlink" x="0px" y="0px"
	 viewBox="0 0 512.001 512.001" style="enable-background:new 0 0 512.001 512.001;" xml:space="preserve">
<path style="fill:#FFDC64;" d="M264.827,85.341h-17.653c-9.75,0-17.653-7.903-17.653-17.653l0,0c0-9.75,7.903-17.653,17.653-17.653
	h17.653c9.75,0,17.653,7.903,17.653,17.653l0,0C282.48,77.438,274.577,85.341,264.827,85.341z"/>
<path style="fill:#7DC882;" d="M273.654,76.515h-35.307c-121.871,0-220.667,98.796-220.667,220.667v61.787h476.64v-61.787
	C494.32,175.311,395.525,76.515,273.654,76.515z"/>
<path style="fill:#FFDC64;" d="M1.793,410.6c-8.566,27.839,14.805,55.276,43.603,50.905c59.122-8.973,131.885-14.269,210.604-14.269
	s151.482,5.297,210.604,14.269c28.798,4.37,52.169-23.065,43.603-50.905l-15.887-51.632c-57.283-16.191-142.763-26.48-238.32-26.48
	s-181.037,10.289-238.32,26.48L1.793,410.6z"/>
<path style="fill:#8CE187;" d="M267.768,76.515h-23.537c-81.247,0-147.111,98.796-147.111,220.667v52.96h317.76v-52.96
	C414.88,175.311,349.017,76.515,267.768,76.515z"/>
<path style="fill:#FFDC64;" d="M282.48,288.355h-52.96c-9.75,0-17.653-7.903-17.653-17.653l0,0c0-9.75,7.903-17.653,17.653-17.653
	h52.96c9.75,0,17.653,7.903,17.653,17.653l0,0C300.134,280.452,292.23,288.355,282.48,288.355z"/>
<path style="fill:#FFC850;" d="M256,411.928c78.015,0,152.673,5.073,215.903,14.669c0.269,0.041,0.525,0.062,0.762,0.062
	c1.605,0,2.657-1.099,3.14-1.753c1.315-1.781,0.837-3.336,0.656-3.922l-23.655-71.726c-53.714-10.468-122.148-16.77-196.806-16.77
	s-143.092,6.3-196.806,16.77l-23.655,71.726c-0.181,0.586-0.66,2.143,0.655,3.923c0.483,0.654,1.535,1.752,3.141,1.752
	c0.237,0,0.493-0.021,0.762-0.062C103.328,417.001,177.986,411.928,256,411.928z"/>
<g>
</g>
<g>
</g>
<g>
</g>
<g>
</g>
<g>
</g>
<g>
</g>
<g>
</g>
<g>
</g>
<g>
</g>
<g>
</g>
<g>
</g>
<g>
</g>
<g>
</g>
<g>
</g>
<g>
</g>
</svg>
