<?xml version="1.0" encoding="iso-8859-1"?>
<!-- Uploaded to: SVG Repo, www.svgrepo.com, Generator: SVG Repo Mixer Tools -->
<svg height="800px" width="800px" version="1.1" id="Layer_1" xmlns="http://www.w3.org/2000/svg" xmlns:xlink="http://www.w3.org/1999/xlink" 
	 viewBox="0 0 511.999 511.999" xml:space="preserve">
<path style="fill:#F95428;" d="M511.562,10.337l-19.06,55.452l-37.67-7.497l-8.621-38.794l55.452-19.06
	C507.797-1.67,513.67,4.203,511.562,10.337z"/>
<polygon style="fill:#999999;" points="413.41,125.581 376.589,153.798 358.202,135.411 386.406,98.577 406.825,104.698 "/>
<polygon style="fill:#666666;" points="433.681,110.579 418.655,130.827 413.41,125.581 386.406,98.577 381.173,93.345 
	401.42,78.319 426.028,89.496 "/>
<polygon style="fill:#808080;" points="492.502,65.788 433.681,110.579 401.42,78.319 446.212,19.497 "/>
<polygon style="fill:#666666;" points="237.057,349.668 228.568,341.183 261.495,308.246 239.658,286.408 248.144,277.922 
	278.467,308.245 "/>
<g>
	<path style="fill:#808080;" d="M257.696,368.065l-9.482,9.482c-2.859,2.859-7.497,2.859-10.356,0l-39.925-39.925l19.839-19.839
		l18.795,18.795l21.129,21.129C260.556,360.569,260.556,365.206,257.696,368.065z"/>
	<path style="fill:#808080;" d="M351.898,273.864l-9.482,9.482c-2.859,2.859-7.497,2.859-10.356,0l-39.925-39.925l15.05-15.05
		l4.788-4.788l39.925,39.925C354.759,266.367,354.759,271.003,351.898,273.864z"/>
</g>
<polygon style="fill:#0B9B53;" points="355.217,129.028 383.418,157.228 294.681,245.964 251.197,289.467 220.314,320.332 
	45.414,495.233 50.455,487.815 17.222,467.04 98.532,384.813 281.087,202.258 294.741,188.773 315.423,168.346 "/>
<g>
	<path style="fill:#088443;" d="M61.053,479.607l8.979,8.979c2.127,2.127,2.128,5.576,0.001,7.704l-14.105,14.113
		c-2.127,2.128-5.578,2.129-7.705,0.001L1.596,463.777c-2.128-2.128-2.128-5.577,0-7.705l14.113-14.113
		c2.128-2.128,5.579-2.127,7.706,0.002l8.978,8.986L61.053,479.607z"/>
	<polygon style="fill:#088443;" points="315.423,168.346 343.861,196.784 323.307,217.339 294.741,188.773 	"/>
	<polygon style="fill:#088443;" points="114.291,369.478 142.73,397.917 122.175,418.471 93.61,389.905 	"/>
	<polygon style="fill:#088443;" points="86.709,397.059 115.148,425.498 103.292,437.353 74.727,408.788 	"/>
</g>
</svg>