<svg height="456pt" viewBox="-52 0 456 456" width="456pt" xmlns="http://www.w3.org/2000/svg"><path d="m239.921875 120c8.878906 0 16 7.199219 16 16 0 8.878906-7.121094 16-16 16h-23.921875c-8.871094 0-16-7.121094-16-16 0-8.800781 7.128906-16 16-16zm0 0" fill="#eac6bb"/><path d="m144 120c8.808594 0 15.921875 7.199219 15.921875 16 0 8.878906-7.121094 16-15.921875 16h-24c-8.871094 0-16-7.121094-16-16 0-8.800781 7.128906-16 16-16zm0 0" fill="#eac6bb"/><path d="m188 208.078125c8.808594 0 15.921875 7.128906 15.921875 16 0 8.808594-7.121094 15.921875-15.921875 15.921875h-24c-8.871094 0-16-7.121094-16-15.921875 0-8.871094 7.128906-16 16-16zm0 0" fill="#eac6bb"/><path d="m239.921875 152c8.878906 0 16-7.121094 16-16 0-8.800781-7.121094-16-16-16h-23.921875c-8.871094 0-16 7.199219-16 16 0 8.878906 7.128906 16 16 16zm.078125 125.601562v50.476563c0 13.203125-10.800781 24-24 24h-80.078125c-13.203125 0-24-10.796875-24-24v-50.476563c-33.601563-21.28125-55.921875-58.800781-55.921875-101.523437l-.078125-48.078125c0-66.230469 53.757813-128 120-128 66.316406 0 120 53.679688 120 120l.078125 56.078125c0 42.730469-22.398438 80.160156-56 101.523437zm-36.078125-53.523437c0-8.871094-7.121094-16-15.921875-16h-24c-8.871094 0-16 7.128906-16 16 0 8.808594 7.128906 15.921875 16 15.921875h24c8.808594 0 15.921875-7.121094 15.921875-15.921875zm-44-88.078125c0-8.800781-7.121094-16-15.921875-16h-24c-8.871094 0-16 7.199219-16 16 0 8.878906 7.128906 16 16 16h24c8.808594 0 15.921875-7.121094 15.921875-16zm0 0" fill="#656d78"/><path d="m295.921875 120c0-66.320312-53.683594-120-120-120-3.867187 0-7.683594.246094-11.457031.664062 60.398437 6.273438 107.429687 57.257813 107.429687 119.335938l.082031 56.078125c0 42.730469-22.402343 72.160156-56 93.515625v58.484375c0 13.203125-10.800781 24-24 24h24.023438c13.199219 0 24-10.796875 24-24v-50.476563c33.601562-21.363281 56-58.800781 56-101.523437zm0 0" fill="#434a54"/><path d="m352 392.078125v55.921875c0 4.488281-3.601562 8-8 8h-56v-127.921875c35.359375 0 64 28.5625 64 64zm0 0" fill="#e6e9ed"/><path d="m264 328.078125h24v127.921875h-24zm0 0" fill="#ed5565"/><path d="m352 392.078125v55.921875c0 4.488281-3.601562 8-8 8h-56v-127.921875c35.359375 0 64 28.5625 64 64zm0 0" fill="#e6e9ed"/><path d="m264 328.078125v127.921875h-176.078125v-127.921875l24-.078125v.078125c0 13.203125 10.796875 24 24 24h80.078125c13.199219 0 24-10.796875 24-24zm0 0" fill="#e6e9ed"/><path d="m288 328.078125h-24.023438c35.359376 0 64 28.5625 64 64v55.921875c0 4.488281-3.601562 8-8 8h24.023438c4.398438 0 8-3.511719 8-8v-55.921875c0-35.4375-28.640625-64-64-64zm0 0" fill="#ccd1d9"/><path d="m288 332.769531v-4.691406h-24c8.496094 0 16.585938 1.691406 24 4.691406zm0 0" fill="#da4453"/><path d="m63.921875 328.078125v127.921875h-55.921875c-4.480469 0-8-3.511719-8-8v-55.921875c0-35.4375 28.558594-63.910156 63.921875-64zm0 0" fill="#e6e9ed"/><path d="m87.921875 328.078125v127.921875h-24v-127.921875zm0 0" fill="#ed5565"/><path d="m176.246094 376.015625h-.085938c-4.417968 0-7.953125 3.578125-7.953125 8 0 4.425781 3.617188 8 8.039063 8 4.417968 0 8-3.574219 8-8 0-4.421875-3.582032-8-8-8zm0 0" fill="#ccd1d9"/><path d="m176.246094 416.015625h-.085938c-4.417968 0-7.953125 3.578125-7.953125 8 0 4.425781 3.617188 8 8.039063 8 4.417968 0 8-3.574219 8-8 0-4.421875-3.582032-8-8-8zm0 0" fill="#ccd1d9"/><g fill="#434a54"><path d="m143.992188 296c-4.425782 0-8 3.574219-8 8v24c0 4.425781 3.574218 8 8 8 4.421874 0 8-3.574219 8-8v-24c0-4.425781-3.578126-8-8-8zm0 0"/><path d="m175.992188 336c4.421874 0 8-3.574219 8-8v-24c0-4.425781-3.578126-8-8-8-4.425782 0-8 3.574219-8 8v24c0 4.425781 3.574218 8 8 8zm0 0"/><path d="m207.992188 296c-4.425782 0-8 3.574219-8 8v24c0 4.425781 3.574218 8 8 8 4.421874 0 8-3.574219 8-8v-24c0-4.425781-3.578126-8-8-8zm0 0"/><path d="m239.921875 120c8.878906 0 16 7.199219 16 16 0 8.878906-7.121094 16-16 16h-23.921875c-8.871094 0-16-7.121094-16-16 0-8.800781 7.128906-16 16-16zm0-8h-23.921875c-13.230469 0-24 10.769531-24 24s10.769531 24 24 24h23.921875c13.230469 0 24-10.769531 24-24s-10.761719-24-24-24zm0 0"/><path d="m144 120c8.808594 0 15.921875 7.199219 15.921875 16 0 8.878906-7.121094 16-15.921875 16h-24c-8.871094 0-16-7.121094-16-16 0-8.800781 7.128906-16 16-16zm0-8h-24c-13.230469 0-24 10.769531-24 24s10.769531 24 24 24h24c13.183594 0 23.921875-10.769531 23.921875-24s-10.738281-24-23.921875-24zm0 0"/><path d="m188 208.078125c8.808594 0 15.921875 7.128906 15.921875 16 0 8.808594-7.121094 15.921875-15.921875 15.921875h-24c-8.871094 0-16-7.121094-16-15.921875 0-8.871094 7.128906-16 16-16zm0-8h-24c-13.230469 0-24 10.769531-24 24 0 13.1875 10.769531 23.921875 24 23.921875h24c13.183594 0 23.921875-10.734375 23.921875-23.921875 0-13.238281-10.738281-24-23.921875-24zm0 0"/></g></svg>