<svg id="Flat" height="512" viewBox="0 0 512 512" width="512" xmlns="http://www.w3.org/2000/svg"><path d="m56 160h32a0 0 0 0 1 0 0v80a0 0 0 0 1 0 0h-32a16 16 0 0 1 -16-16v-48a16 16 0 0 1 16-16z" fill="#6a6a33"/><path d="m440 160h32a0 0 0 0 1 0 0v80a0 0 0 0 1 0 0h-32a16 16 0 0 1 -16-16v-48a16 16 0 0 1 16-16z" fill="#6a6a33" transform="matrix(-1 0 0 -1 896 400)"/><path d="m256 32 59.919 12.483a160 160 0 0 1 127.266 162.348l-3.185 89.169-111.375 167.063a56 56 0 0 1 -46.595 24.937h-52.06a56 56 0 0 1 -46.595-24.937l-111.375-167.063-3.185-89.169a160 160 0 0 1 127.266-162.348z" fill="#8d8d54"/><path d="m224 24h64a16 16 0 0 1 16 16v16a0 0 0 0 1 0 0h-96a0 0 0 0 1 0 0v-16a16 16 0 0 1 16-16z" fill="#6a6a33"/><path d="m192 384v-48a64 64 0 0 1 128 0v48z" fill="#6a6a33"/><circle cx="256" cy="384" fill="#b9b973" r="64"/><path d="m240 175.38a35.062 35.062 0 0 1 -12.86 27.14l-37.58 30.75-.01.01-22.41 18.33-3.74 3.06a41.135 41.135 0 0 1 -16.17 8.1 40.437 40.437 0 0 1 -9.96 1.23 41.283 41.283 0 0 1 -41.27-41.27v-31.8a56.271 56.271 0 0 1 62.54-55.98l32.18 3.57 15.4 1.71 2.69.3a35.082 35.082 0 0 1 31.19 34.85z" fill="#ccdce5"/><path d="m416 190.93v31.8a41.274 41.274 0 0 1 -67.4 31.94l-5.08-4.16-12.73-10.41-31.04-25.4-14.89-12.18a35.07 35.07 0 0 1 18.33-61.99l23.67-2.63 26.6-2.95a56.317 56.317 0 0 1 62.54 55.98z" fill="#ccdce5"/><rect fill="#6a6a33" height="56" rx="8" width="16" x="248" y="80"/><rect fill="#6a6a33" height="32" rx="8" width="16" x="248" y="216"/><g fill="#e9f0f1"><path d="m367.82 135.18-37.03 104.92-31.04-25.4 27.11-76.8 26.6-2.95a55.947 55.947 0 0 1 14.36.23z"/><path d="m395.57 147.52-39.25 112.14a41.217 41.217 0 0 1 -7.72-4.99l-5.08-4.16 38.89-111.12a56.472 56.472 0 0 1 13.16 8.13z"/><path d="m220.77 144.09-31.21 89.18-.01.01-22.41 18.33 38.98-111.38 2.69.3a35.045 35.045 0 0 1 11.96 3.56z"/><path d="m190.72 138.52-43.49 124.25a40.437 40.437 0 0 1 -9.96 1.23 41.117 41.117 0 0 1 -26.96-10.03l41.78-119.37a56.247 56.247 0 0 1 6.45.35z"/></g><path d="m97.285 311.466 32.555-5.919c11.986-2.179 25.943 19.375 31.174 48.142s-.247 53.855-12.233 56.034l-32.555 5.919z" fill="#6a6a33"/><path d="m49.143 293.314 32.557-5.914c17.98-3.269 38.915 29.062 46.761 72.213s-.37 80.782-18.349 84.051l-32.555 5.919z" fill="#b9b973"/><ellipse cx="63.349" cy="371.446" fill="#8d8d54" rx="33.089" ry="79.413" transform="matrix(.984 -.179 .179 .984 -65.425 17.324)"/><ellipse cx="47.071" cy="374.406" fill="#ded9af" rx="16.544" ry="39.706" transform="matrix(.984 -.179 .179 .984 -66.217 14.46)"/><circle cx="256" cy="384" fill="#ded9af" r="24"/><path d="m308.5 405.071-21.67-12.511a31.98 31.98 0 0 0 -22.83-39.547v-25.013a8 8 0 0 0 -8-8 8 8 0 0 0 -8 8v25.013a31.98 31.98 0 0 0 -22.828 39.547l-21.672 12.511a8 8 0 0 0 -2.926 10.929 8 8 0 0 0 10.929 2.929l21.683-12.519a31.932 31.932 0 0 0 45.628 0l21.686 12.519a8 8 0 0 0 10.926-2.929 8 8 0 0 0 -2.926-10.929zm-52.5-5.071a16 16 0 1 1 16-16 16.019 16.019 0 0 1 -16 16z" fill="#6a6a33"/><path d="m414.715 311.466-32.555-5.919c-11.986-2.179-25.943 19.375-31.174 48.142s.247 53.855 12.233 56.034l32.555 5.919z" fill="#6a6a33"/><path d="m462.857 293.314-32.557-5.914c-17.98-3.269-38.915 29.062-46.761 72.213s.37 80.782 18.349 84.051l32.555 5.919z" fill="#b9b973"/><ellipse cx="448.651" cy="371.446" fill="#8d8d54" rx="79.413" ry="33.089" transform="matrix(.179 -.984 .984 .179 2.939 746.415)"/><ellipse cx="464.929" cy="374.406" fill="#ded9af" rx="39.706" ry="16.544" transform="matrix(.179 -.984 .984 .179 13.393 764.86)"/></svg>