<?xml version="1.0" encoding="iso-8859-1"?>
<!-- Generator: Adobe Illustrator 19.0.0, SVG Export Plug-In . SVG Version: 6.00 Build 0)  -->
<svg version="1.1" id="Layer_1" xmlns="http://www.w3.org/2000/svg" xmlns:xlink="http://www.w3.org/1999/xlink" x="0px" y="0px"
	 viewBox="0 0 511.999 511.999" style="enable-background:new 0 0 511.999 511.999;" xml:space="preserve">
<path style="fill:#CCCCCC;" d="M409.192,190.879l-128.698,128.7l-75.85-75.85l142.12-142.12l6.31-3.429
	c38.603-21.011,74.577-46.422,107.241-75.715C492.128,45.6,451.815,148.274,409.192,190.879z"/>
<path style="fill:#F2F2F2;" d="M483.932,0c15.703,69.057-4.754,142.249-55.761,193.256L291.176,330.262l-20.16-20.16
	l128.702-128.702c42.619-42.607,63.91-100.703,60.598-158.941c7.554-6.791,14.941-13.785,22.126-20.982L483.932,0z"/>
<g>
	<path style="fill:#808080;" d="M127.6,493.85l-9.806,9.794c-11.152,11.14-29.227,11.14-40.379,0l-46.157-46.169
		c-11.152-11.14-11.152-29.227,0-40.367l9.806-9.794l86.524,86.524L127.6,493.85z"/>
	<polygon style="fill:#808080;" points="204.644,243.729 291.176,330.261 147.944,473.493 127.606,493.848 41.065,407.307 	"/>
</g>
<g>
	<polygon style="fill:#666666;" points="260.949,360.49 207.607,413.832 154.265,467.174 127.6,493.85 127.588,493.839 
		97.194,462.801 260.77,299.213 271.017,310.103 291.176,330.262 	"/>
	<path style="fill:#666666;" d="M336.214,384.236c-2.286,0-4.574-0.872-6.318-2.618L159.801,211.511
		c-3.49-3.49-3.489-9.148,0.001-12.637c3.492-3.489,9.15-3.489,12.637,0.002l170.095,170.104c3.49,3.49,3.49,9.147,0,12.637
		C340.788,383.362,338.501,384.236,336.214,384.236z"/>
</g>
<polygon style="fill:#CCCCCC;" points="121.269,500.157 34.744,413.633 47.372,400.984 133.908,487.52 "/>
<g>
	<path style="fill:#4D4D4D;" d="M111.195,411.469l49.387,49.387l-12.638,12.638l-49.387-49.387c-3.489-3.489-3.489-9.149,0-12.638
		C102.044,407.982,107.706,407.982,111.195,411.469z"/>
	<path style="fill:#4D4D4D;" d="M137.877,384.804l49.378,49.378l-12.638,12.638l-49.378-49.378c-3.497-3.497-3.487-9.149,0-12.638
		C128.727,381.317,134.38,381.308,137.877,384.804z"/>
	<path style="fill:#4D4D4D;" d="M164.542,358.122l49.387,49.387l-12.638,12.638l-49.387-49.387c-3.489-3.489-3.496-9.141,0-12.638
		C155.391,354.635,161.053,354.635,164.542,358.122z"/>
	<path style="fill:#4D4D4D;" d="M198.67,338.922l41.923,41.923l-12.638,12.638l-41.923-41.923c-3.487-3.487-3.487-9.149,0-12.638
		C189.529,335.426,195.182,335.434,198.67,338.922z"/>
	<path style="fill:#4D4D4D;" d="M240.829,327.734l26.437,26.437l-12.638,12.638l-26.437-26.437c-3.489-3.489-3.487-9.149,0-12.638
		C231.679,324.245,237.341,324.245,240.829,327.734z"/>
</g>
<g>
	<path style="fill:#F2F2F2;" d="M252.641,228.1c3.489,3.489,3.487,9.149,0,12.638c-1.744,1.744-4.035,2.62-6.327,2.62
		c-2.275,0-4.566-0.876-6.31-2.62l-16.193-16.175l12.638-12.638L252.641,228.1z"/>
	<path style="fill:#F2F2F2;" d="M262.49,185.883l16.184,16.184c3.489,3.489,3.489,9.149,0,12.638
		c-1.744,1.744-4.035,2.62-6.327,2.62c-2.275,0-4.566-0.876-6.31-2.62l-16.184-16.184L262.49,185.883z"/>
	<path style="fill:#F2F2F2;" d="M288.531,159.841l16.175,16.175c3.497,3.497,3.487,9.149,0,12.638
		c-1.753,1.753-4.035,2.62-6.318,2.628c-2.291,0-4.566-0.876-6.328-2.62l-16.175-16.175L288.531,159.841z"/>
</g>
<g>
</g>
<g>
</g>
<g>
</g>
<g>
</g>
<g>
</g>
<g>
</g>
<g>
</g>
<g>
</g>
<g>
</g>
<g>
</g>
<g>
</g>
<g>
</g>
<g>
</g>
<g>
</g>
<g>
</g>
</svg>
