<?xml version="1.0" encoding="iso-8859-1"?>
<!-- Uploaded to: SVG Repo, www.svgrepo.com, Generator: SVG Repo Mixer Tools -->
<svg height="800px" width="800px" version="1.1" id="Layer_1" xmlns="http://www.w3.org/2000/svg" xmlns:xlink="http://www.w3.org/1999/xlink" 
	 viewBox="0 0 512.001 512.001" xml:space="preserve">
<path style="fill:#FFDB6C;" d="M256,512.001c-4.716,0-8.54-3.823-8.54-8.54v-61.476c0-4.718,3.824-8.54,8.54-8.54
	s8.54,3.823,8.54,8.54v61.476C264.54,508.177,260.716,512.001,256,512.001z"/>
<circle style="fill:#7C54B8;" cx="256.001" cy="407.244" r="34.737"/>
<path style="fill:#674799;" d="M256,388.453c16.44,0,30.204,11.424,33.807,26.766c0.601-2.561,0.929-5.227,0.929-7.971
	c0-19.185-15.552-34.737-34.737-34.737s-34.737,15.552-34.737,34.737c0,2.744,0.328,5.41,0.929,7.971
	C225.796,399.877,239.56,388.453,256,388.453z"/>
<path style="fill:#FFDB6C;" d="M280.474,128.088c0.041,0.581,0.089,1.161,0.089,1.752c0,13.565-10.998,24.563-24.563,24.563
	s-24.563-10.998-24.563-24.563c0-0.591,0.048-1.171,0.089-1.751c-38.044-2.407-69.943-10.058-93.76-17.67
	c-6.889-2.202-13.921,2.934-13.921,10.167v100.429c0,83.669,55.729,151.495,124.473,151.495H256h7.683
	c68.744,0,124.473-67.826,124.473-151.495V120.587c0-7.232-7.031-12.37-13.919-10.167
	C350.394,118.039,318.498,125.682,280.474,128.088z M232.648,221.213c-20.696,14.042-48.857,8.65-62.899-12.046l9.342-6.338
	c20.696-14.042,48.857-8.65,62.899,12.046L232.648,221.213z M287.442,221.213l-9.342-6.338l0,0
	c14.042-20.696,42.203-26.089,62.899-12.046l9.342,6.338C336.298,229.862,308.137,235.256,287.442,221.213z"/>
<path style="fill:#FFB966;" d="M374.235,110.419c-11.798,3.77-25.574,7.545-41.083,10.689v77.456c2.7,1.141,5.329,2.556,7.848,4.264
	l9.342,6.338c-4.517,6.658-10.501,11.722-17.223,15.075c-1.271,74.008-46.144,134.96-104.62,146.349
	c6.455,1.257,13.073,1.92,19.819,1.92H256h7.683c68.744,0,124.473-67.826,124.473-151.495V120.587
	C388.156,113.355,381.124,108.218,374.235,110.419z"/>
<circle style="fill:#FD4DD7;" cx="256.001" cy="129.846" r="24.563"/>
<circle style="fill:#E846AA;" cx="256.001" cy="129.846" r="10.68"/>
<g>
	<circle style="fill:#7C54B8;" cx="299.807" cy="161.422" r="8.54"/>
	<circle style="fill:#7C54B8;" cx="328.65" cy="157.631" r="8.54"/>
	<circle style="fill:#7C54B8;" cx="356.172" cy="151.743" r="8.54"/>
	<circle style="fill:#7C54B8;" cx="209.531" cy="162.47" r="8.54"/>
	<circle style="fill:#7C54B8;" cx="180.688" cy="158.678" r="8.54"/>
	<circle style="fill:#7C54B8;" cx="153.177" cy="152.791" r="8.54"/>
</g>
<path style="fill:#FC4C59;" d="M229.894,311.262l-8.742-7.143l0,0c15.826-19.367,44.354-22.238,63.72-6.412l8.742,7.143l0,0
	C277.789,324.217,249.26,327.088,229.894,311.262z"/>
<g>
	<path style="fill:#3CC247;" d="M280.474,128.088c2.339-0.148,4.649-0.321,6.941-0.507c7.465-6.98,14.546-14.842,21.001-23.481
		c11.354-15.197,19.441-31.018,24.198-46.191c1.873-5.972-4.844-11.025-9.994-7.466c-11.969,8.271-23.5,18.732-33.776,31.034
		c-2.072,2.481-4.095,5.038-6.058,7.667c-5,6.693-9.367,13.507-13.095,20.333v0.001
		C275.772,113.585,279.925,120.333,280.474,128.088z"/>
	<path style="fill:#3CC247;" d="M256,105.278c5.073,0,9.771,1.555,13.68,4.192c2.121-12.028,3.275-24.802,3.275-38.054
		c0-24.531-3.915-47.455-10.706-66.957c-2.07-5.944-10.429-5.944-12.499,0c-6.791,19.502-10.706,42.427-10.706,66.957
		c0,13.252,1.154,26.026,3.275,38.054C246.229,106.833,250.927,105.278,256,105.278z"/>
	<path style="fill:#3CC247;" d="M224.611,127.585c2.284,0.186,4.584,0.358,6.915,0.506c0.549-7.758,4.702-14.507,10.786-18.613
		l-0.01-0.028c-3.728-6.826-8.094-13.64-13.095-20.333c-1.964-2.628-3.985-5.184-6.058-7.667
		c-10.277-12.302-21.808-22.762-33.776-31.034c-5.149-3.558-11.866,1.493-9.994,7.466c4.759,15.173,12.844,30.994,24.198,46.191
		C210.041,112.725,217.133,120.596,224.611,127.585z"/>
</g>
<g>
	<path style="fill:#2DA85F;" d="M299.027,115.628c-3.243-9.82-9.747-18.151-18.237-23.711c-4.162,5.799-7.882,11.673-11.097,17.56
		v0.001c6.082,4.106,10.233,10.854,10.783,18.611c2.339-0.148,4.649-0.321,6.941-0.507
		C291.41,123.845,295.289,119.851,299.027,115.628z"/>
	<path style="fill:#2DA85F;" d="M256,84.528c-5.773,0-11.288,1.091-16.365,3.06c0.541,7.513,1.442,14.829,2.685,21.883
		c3.909-2.636,8.607-4.192,13.68-4.192c5.073,0,9.771,1.555,13.68,4.192c1.243-7.054,2.144-14.37,2.685-21.883
		C267.288,85.618,261.773,84.528,256,84.528z"/>
	<path style="fill:#2DA85F;" d="M212.979,115.614c3.744,4.23,7.63,8.232,11.633,11.971c2.284,0.186,4.584,0.358,6.915,0.506
		c0.549-7.758,4.702-14.507,10.786-18.613l-0.01-0.028c-3.211-5.88-6.926-11.746-11.081-17.538
		C222.73,97.469,216.224,105.796,212.979,115.614z"/>
</g>
</svg>