<?xml version="1.0" encoding="iso-8859-1"?>
<!-- Generator: Adobe Illustrator 19.0.0, SVG Export Plug-In . SVG Version: 6.00 Build 0)  -->
<svg version="1.1" id="Layer_1" xmlns="http://www.w3.org/2000/svg" xmlns:xlink="http://www.w3.org/1999/xlink" x="0px" y="0px"
	 viewBox="0 0 511.998 511.998" style="enable-background:new 0 0 511.998 511.998;" xml:space="preserve">
<path style="fill:#808080;" d="M162.993,340.187c-1.871,6.251-3.154,12.989-3.846,20.148h23.129
	c0.166-7.174,0.77-13.891,1.804-20.083C177.043,340.144,169.999,340.127,162.993,340.187z"/>
<g>
	<path style="fill:#E6E6E6;" d="M260.01,313.904c10.829-7.01,17.705-12.672,20.467-15.065c-3.121-0.522-6.439-0.794-9.98-0.794l0,0
		c-3.14,0-5.687-2.546-5.687-5.687v-26.695c-2.908,0.179-5.842,0.28-8.805,0.28c-2.964,0-5.899-0.1-8.807-0.28v26.689
		c0,0.002,0.001,0.003,0.001,0.006c0,3.142-2.547,5.687-5.687,5.687c-3.543,0-6.861,0.272-9.983,0.795
		c2.755,2.39,9.623,8.051,20.458,15.064H260.01z"/>
	<path style="fill:#E6E6E6;" d="M344.629,217.189c-1.653-0.637-2.99-2.022-3.468-3.867l-0.986-3.801
		c-4.982,2.974-10.282,5.688-15.859,8.112l1.641,6.966c0.72,3.057-1.174,6.119-4.231,6.84c-0.439,0.104-0.878,0.152-1.309,0.152
		c-2.579,0-4.914-1.765-5.53-4.384l-1.272-5.396c-6.282,2.187-12.844,4.026-19.637,5.487l1.11,6.987
		c0.494,3.102-1.622,6.016-4.724,6.509c-0.303,0.048-0.603,0.072-0.9,0.072c-2.748,0-5.165-1.995-5.61-4.795l-1.071-6.743
		c-6.856,1.016-13.904,1.647-21.094,1.874v7.526c0,3.142-2.547,5.687-5.687,5.687c-3.14,0-5.687-2.546-5.687-5.687v-7.508
		c-7.129-0.208-14.181-0.838-21.1-1.847l-1.065,6.696c-0.445,2.8-2.862,4.795-5.61,4.795c-0.297,0-0.597-0.023-0.9-0.072
		c-3.102-0.492-5.217-3.408-4.724-6.509l1.098-6.91c-6.752-1.431-13.326-3.238-19.659-5.416l-1.236,5.248
		c-0.616,2.618-2.953,4.384-5.53,4.384c-0.432,0-0.871-0.049-1.309-0.152c-3.057-0.72-4.951-3.783-4.231-6.84l1.597-6.776
		c-5.549-2.385-10.861-5.067-15.883-8.039l-0.918,3.538c-0.478,1.843-1.812,3.226-3.461,3.864
		c21.569,23.069,53.024,37.383,88.62,37.383S323.058,240.257,344.629,217.189z"/>
	<path style="fill:#E6E6E6;" d="M220.638,302.752c-0.038-0.209-0.048-0.416-0.063-0.624c-3.382,1.554-6.439,3.55-9.178,6.008
		c4.442,2.444,8.291,4.436,11.291,5.934L220.638,302.752z"/>
</g>
<path style="fill:#808080;" d="M205.731,298.045h-4.808c-1.11,0.204-2.855,0.597-4.785,1.174c1.705,1.056,3.379,2.075,5.008,3.045
	C202.596,300.749,204.124,299.34,205.731,298.045z"/>
<g>
	<path style="fill:#333333;" d="M158.543,373.117c0,6.468,0.704,14.242,2.218,22.689h24.856c-1.654-7.722-2.778-15.77-3.2-24.097
		h-23.852C158.56,372.18,158.543,372.644,158.543,373.117z"/>
	<path style="fill:#333333;" d="M225.697,330.671l-0.51-2.814c-0.024-0.01-0.049-0.014-0.072-0.024
		c-2.236-0.983-50.8-22.584-86.457-59.258c0.66,7.394,2.831,16.983,8.78,26.35c1.278,2.014,1.165,4.611-0.285,6.505
		c-1.45,1.895-3.929,2.682-6.205,1.973c-2.241-0.696-46.356-14.624-80.011-39.952c8.699,16.737,23.368,37.431,44.513,43.049
		c2.789,0.74,4.58,3.452,4.169,6.308c-0.412,2.856-2.899,4.959-5.781,4.873c-0.555-0.01-49.286-0.978-80.711,20.445
		C60.604,333.686,149.128,324.94,225.697,330.671z"/>
	<path style="fill:#333333;" d="M250.314,325.278c-1.084,0-2.145-0.309-3.059-0.893c-4.984-3.179-9.22-6.116-12.709-8.671
		l3.682,20.315c1.063,5.643,11.523,10.862,17.773,13.079c6.25-2.217,16.707-7.435,17.773-13.077l3.682-20.316
		c-3.488,2.555-7.725,5.491-12.709,8.669c-0.11,0.071-1.483,0.893-3.059,0.893H250.314z"/>
</g>
<g>
	<path style="fill:#E6E6E6;" d="M172.439,184.523c3.04,0.788,4.865,3.892,4.076,6.934l-1.761,6.787
		c4.84,3.044,10.033,5.826,15.547,8.297l1.36-5.77c0.721-3.057,3.784-4.95,6.84-4.231c3.057,0.72,4.951,3.783,4.231,6.84
		l-1.747,7.411c6.008,2.125,12.297,3.914,18.816,5.328l1.065-6.699c0.494-3.102,3.413-5.214,6.509-4.724
		c3.102,0.492,5.217,3.408,4.724,6.509l-1.101,6.93c6.29,0.916,12.739,1.507,19.314,1.711v-6.771c0-3.14,2.547-5.687,5.687-5.687
		s5.687,2.547,5.687,5.687v6.751c6.536-0.221,12.985-0.82,19.306-1.753l-1.092-6.868c-0.494-3.102,1.622-6.017,4.724-6.509
		c3.103-0.495,6.016,1.622,6.509,4.724l1.05,6.611c6.478-1.418,12.763-3.214,18.799-5.37l-1.715-7.281
		c-0.72-3.057,1.174-6.119,4.231-6.84c3.056-0.72,6.119,1.174,6.84,4.231l1.316,5.582c5.182-2.348,15.275-8.203,15.526-8.363
		l-1.695-6.534c-0.788-3.04,1.037-6.144,4.078-6.933c3.039-0.788,6.144,1.037,6.933,4.076l0.593,2.284
		c15.195-12.299,24.731-27.356,27.208-43.333l0.155,0.024c0.131-2.235,0.205-4.487,0.205-6.759
		c0-67.347-54.338-124.244-118.655-124.244c-64.318,0-118.657,56.897-118.657,124.244c0,3.363,0.154,6.685,0.438,9.965
		c3.312,15.345,13.003,29.201,27.049,40.42l0.674-2.602C166.296,185.561,169.394,183.734,172.439,184.523z M270.051,83.23
		c3.564-9.053,9.997-15.183,18.113-17.258c1.906-0.487,3.877-0.735,5.855-0.735c14.458,0,28.335,13.236,32.997,31.472
		c5.381,21.051-3.291,41.514-19.329,45.616c-0.744,0.19-1.499,0.332-2.259,0.449c3.513,1.77,5.948,2.379,6.018,2.397
		c3.055,0.727,4.943,3.793,4.216,6.848c-0.621,2.613-2.955,4.372-5.528,4.372c-0.436,0-0.879-0.05-1.322-0.156
		c-1.079-0.257-26.501-6.625-37.179-36.556c-1.134-2.557-2.079-5.265-2.801-8.094C266.306,101.713,266.74,91.642,270.051,83.23z
		 M263.455,139.711c2.772-1.475,6.217-0.423,7.692,2.349l3.93,7.386c1.475,2.773,0.424,6.217-2.349,7.692
		c-0.851,0.453-1.765,0.668-2.666,0.668c-2.035,0-4.004-1.095-5.026-3.016l-3.93-7.386
		C259.631,144.629,260.682,141.185,263.455,139.711z M248.548,139.709c2.773,1.475,3.825,4.919,2.35,7.692l-3.929,7.386
		c-1.023,1.922-2.991,3.018-5.026,3.018c-0.901,0-1.815-0.215-2.666-0.668c-2.773-1.475-3.825-4.919-2.35-7.692l3.929-7.386
		C242.331,139.286,245.775,138.234,248.548,139.709z M184.987,96.709c4.662-18.236,18.539-31.472,32.998-31.472
		c1.978,0,3.949,0.248,5.855,0.735c8.117,2.075,14.549,8.204,18.113,17.258c3.312,8.412,3.744,18.483,1.218,28.358
		c-0.72,2.819-1.662,5.516-2.791,8.065c-10.673,29.955-36.109,36.327-37.19,36.584c-0.442,0.106-0.885,0.156-1.322,0.156
		c-2.574,0-4.906-1.758-5.528-4.372c-0.725-3.048,1.151-6.106,4.193-6.844c0.303-0.075,2.699-0.711,6.066-2.399
		c-0.768-0.117-1.531-0.26-2.283-0.453C188.278,138.224,179.606,117.761,184.987,96.709z"/>
	<path style="fill:#E6E6E6;" d="M351.74,208.808c3.827-4.993,7.242-10.303,10.183-15.898c-3.577,3.518-7.501,6.843-11.724,9.958
		L351.74,208.808z"/>
</g>
<path style="fill:#808080;" d="M315.865,299.218c-1.928-0.574-3.673-0.969-4.785-1.173h-4.804c1.607,1.296,3.134,2.702,4.585,4.218
	C312.487,301.292,314.161,300.275,315.865,299.218z"/>
<path style="fill:#E6E6E6;" d="M291.427,302.126c-0.014,0.208-0.024,0.416-0.063,0.626l-2.051,11.318
	c3.002-1.498,6.852-3.49,11.293-5.935C297.867,305.676,294.809,303.681,291.427,302.126z"/>
<path style="fill:#333333;" d="M207.136,131.305c0.987,0.253,2.01,0.38,3.038,0.38c9.191,0,18.639-9.851,21.978-22.915
	c1.938-7.579,1.661-15.169-0.783-21.374c-2.19-5.563-5.865-9.259-10.347-10.403c-0.988-0.254-2.01-0.381-3.038-0.381
	c-9.19,0-18.638,9.851-21.977,22.914C192.245,114.247,197.34,128.8,207.136,131.305z"/>
<path style="fill:#E6E6E6;" d="M160.268,208.79l1.454-5.602c-3.987-2.915-7.69-5.998-11.078-9.236
	C153.453,199.162,156.682,204.113,160.268,208.79z"/>
<path style="fill:#333333;" d="M301.83,131.686c1.029,0,2.052-0.127,3.039-0.38c9.794-2.505,14.89-17.058,11.127-31.779
	c-3.339-13.063-12.788-22.914-21.977-22.914c-1.028,0-2.051,0.127-3.038,0.381c-4.483,1.145-8.158,4.84-10.347,10.403
	c-2.443,6.206-2.721,13.796-0.783,21.373C283.19,121.835,292.639,131.686,301.83,131.686z"/>
<g>
	<path style="fill:#808080;" d="M352.85,360.335c-0.698-7.159-1.99-13.895-3.865-20.148c-6.995-0.059-14.027-0.042-21.05,0.065
		c1.033,6.19,1.631,12.911,1.795,20.083L352.85,360.335L352.85,360.335z"/>
	<path style="fill:#808080;" d="M323.517,407.181c-2.476,8.535-5.539,16.596-8.928,24.098h26.172
		c0.957-2.273,6.71-18.884,8.022-24.098H323.517z"/>
	<path style="fill:#808080;" d="M301.369,495.425h28.921l6.05-32.644C327.254,475.91,315.722,487.454,301.369,495.425z"/>
	<path style="fill:#808080;" d="M133.759,340.853c-0.288,0.01-0.576,0.022-0.863,0.032c-3.725,1.818-18.076,10.2-18.076,31.572
		c0,24.169,14.558,103.02,18.315,122.968h12.65c-3.799-17.599-13.694-65.257-17.938-103.034
		C125.258,369.342,127.357,351.753,133.759,340.853z"/>
	<path style="fill:#808080;" d="M285.545,478.125c-5.1,6.358-9.913,11.71-13.974,15.943c13.727-2.47,25.418-8.185,35.306-15.943
		H285.545z"/>
</g>
<g>
	<path style="fill:#333333;" d="M351.242,395.807c1.515-8.449,2.218-16.221,2.218-22.689c0-0.474-0.018-0.937-0.023-1.408h-23.85
		c-0.423,8.327-1.547,16.376-3.2,24.097H351.242z"/>
	<path style="fill:#333333;" d="M408.167,317.684c-2.884,0.085-5.37-2.017-5.781-4.873c-0.412-2.856,1.38-5.568,4.167-6.308
		c21.201-5.634,35.868-26.342,44.551-43.078c-33.662,25.35-77.81,39.285-80.051,39.981c-2.279,0.709-4.756-0.08-6.205-1.973
		c-1.45-1.894-1.564-4.492-0.285-6.505c5.948-9.367,8.12-18.955,8.78-26.349c-35.657,36.668-84.219,58.273-86.455,59.257
		c-0.023,0.01-0.048,0.014-0.072,0.024l-0.51,2.814c76.576-5.731,165.114,3.016,202.586,7.46
		C457.448,316.656,408.725,317.668,408.167,317.684z"/>
	<path style="fill:#333333;" d="M361.895,340.487c-0.081-0.032-0.152-0.075-0.23-0.111c-0.274-0.006-0.548-0.01-0.822-0.016
		c2.631,10.015,3.991,20.982,3.991,32.759c0,14.03-3.082,33.664-10.234,53.571l-12.741,68.736h12.72
		c3.273-15.007,13.873-65.128,18.274-104.304C376.517,358.492,369.595,343.57,361.895,340.487z"/>
</g>
<g>
	<path style="fill:#808080;" d="M379.113,340.887c-0.289-0.011-0.579-0.023-0.869-0.032c6.401,10.9,8.501,28.489,5.911,51.536
		c-4.244,37.778-14.139,85.435-17.938,103.034h12.653c3.757-19.948,18.315-98.798,18.315-122.968
		C397.183,351.111,382.756,342.675,379.113,340.887z"/>
	<path style="fill:#808080;" d="M205.127,478.125c9.889,7.758,21.579,13.473,35.306,15.943c-4.062-4.233-8.874-9.585-13.974-15.943
		H205.127z"/>
	<path style="fill:#808080;" d="M175.662,462.782l6.051,32.644h28.921C196.282,487.454,184.749,475.91,175.662,462.782z"/>
	<path style="fill:#808080;" d="M188.487,407.181H163.22c1.313,5.215,7.062,21.824,8.022,24.098h26.173
		C194.026,423.777,190.963,415.716,188.487,407.181z"/>
</g>
<g>
	<path style="fill:#333333;" d="M147.169,373.117c0-11.777,1.36-22.744,3.991-32.76c-0.274,0.006-0.548,0.01-0.822,0.016
		c-0.078,0.036-0.15,0.081-0.232,0.113c-7.7,3.084-14.623,18.005-10.957,50.634c4.403,39.187,15,89.298,18.275,104.304h12.721
		l-12.74-68.733C150.253,406.783,147.169,387.148,147.169,373.117z"/>
	<path style="fill:#333333;" d="M217.876,466.751c-0.19-0.268-0.381-0.532-0.571-0.803c-4.693-6.672-9.646-14.499-14.309-23.294
		h-26.395c4.513,8.597,9.968,16.811,16.465,24.097H217.876z"/>
	<path style="fill:#333333;" d="M318.937,466.751c6.497-7.286,11.952-15.502,16.465-24.097h-26.393
		c-4.662,8.796-9.617,16.622-14.309,23.294c-0.191,0.271-0.381,0.535-0.572,0.803H318.937z"/>
</g>
<path style="fill:#E6E6E6;" d="M316.424,340.512c-11.1,0.332-22.104,0.92-32.855,1.795c-5.611,11.772-23.67,17.556-25.923,18.236
	c-0.146,0.044-0.576,0.245-1.647,0.245c-1.071,0-1.503-0.202-1.642-0.245c-2.253-0.681-20.311-6.465-25.923-18.236
	c-10.751-0.876-21.756-1.463-32.855-1.795c-1.308,7.133-1.981,15.129-1.981,23.87c0,65.597,48.549,116.013,62.404,129.061
	c13.85-13.044,62.404-63.461,62.404-129.061C318.407,355.639,317.736,347.642,316.424,340.512z"/>
<path d="M240.856,142.059l-3.929,7.386c-1.474,2.773-0.423,6.217,2.35,7.692c0.851,0.453,1.765,0.668,2.666,0.668
	c2.035,0,4.004-1.095,5.026-3.018l3.929-7.386c1.474-2.773,0.423-6.217-2.35-7.692S242.331,139.286,240.856,142.059z"/>
<path d="M265.036,154.788c1.023,1.921,2.99,3.016,5.026,3.016c0.901,0,1.815-0.215,2.666-0.668c2.773-1.475,3.824-4.919,2.349-7.692
	l-3.93-7.386c-1.475-2.772-4.92-3.825-7.692-2.349c-2.773,1.475-3.824,4.919-2.349,7.692L265.036,154.788z"/>
<path d="M204.317,142.325c0.752,0.192,1.515,0.336,2.283,0.453c-3.367,1.688-5.763,2.324-6.066,2.399
	c-3.041,0.737-4.917,3.796-4.193,6.844c0.621,2.613,2.954,4.372,5.528,4.372c0.436,0,0.879-0.05,1.322-0.156
	c1.081-0.257,26.517-6.629,37.19-36.584c1.128-2.549,2.07-5.247,2.791-8.065c2.526-9.874,2.093-19.946-1.218-28.358
	c-3.564-9.053-9.997-15.183-18.113-17.258c-1.907-0.487-3.877-0.735-5.855-0.735c-14.458,0-28.335,13.236-32.998,31.472
	C179.606,117.761,188.278,138.224,204.317,142.325z M196.007,99.526c3.339-13.063,12.788-22.914,21.977-22.914
	c1.028,0,2.051,0.127,3.038,0.381c4.483,1.145,8.156,4.84,10.347,10.403c2.443,6.206,2.721,13.796,0.783,21.374
	c-3.339,13.064-12.787,22.915-21.978,22.915c-1.028,0-2.051-0.127-3.038-0.38C197.34,128.8,192.245,114.247,196.007,99.526z"/>
<path d="M271.634,119.68c10.679,29.931,36.099,36.299,37.179,36.556c0.442,0.106,0.885,0.156,1.322,0.156
	c2.573,0,4.906-1.758,5.528-4.372c0.727-3.056-1.161-6.122-4.216-6.848c-0.071-0.017-2.505-0.627-6.018-2.397
	c0.76-0.117,1.515-0.259,2.259-0.449c16.04-4.102,24.71-24.565,19.329-45.616c-4.662-18.236-18.539-31.472-32.997-31.472
	c-1.978,0-3.949,0.248-5.855,0.735c-8.117,2.075-14.55,8.204-18.113,17.258c-3.311,8.412-3.743,18.483-1.218,28.356
	C269.555,114.414,270.5,117.123,271.634,119.68z M280.634,87.395c2.19-5.563,5.865-9.259,10.347-10.403
	c0.987-0.254,2.01-0.381,3.038-0.381c9.19,0,18.638,9.851,21.977,22.914c3.764,14.722-1.333,29.275-11.127,31.779
	c-0.988,0.253-2.011,0.38-3.039,0.38c-9.191,0-18.64-9.851-21.977-22.918C277.914,101.192,278.192,93.601,280.634,87.395z"/>
<path d="M430.095,307.434c28.388-20.774,40.947-61.565,41.574-63.653c0.767-2.551-0.341-5.294-2.665-6.596
	c-2.323-1.302-5.24-0.819-7.018,1.165c-22.02,24.582-61.11,41.826-81.356,49.581c6.714-18.284,3.72-34.006,3.559-34.814
	c-0.43-2.151-2.058-3.863-4.183-4.401c-2.126-0.536-4.371,0.196-5.771,1.884c-13.57,16.364-30.839,30.257-46.739,41.07
	c-6.927-3.676-15.254-4.999-15.926-4.999H276.18v-22.164c63.003-9.071,109.85-60.145,109.85-123.689
	c0-34.278-13.836-68.68-37.96-94.383c-24.957-26.59-57.656-41.236-92.069-41.236c-34.415,0-67.113,14.644-92.071,41.236
	c-24.123,25.703-37.96,60.104-37.96,94.383c0,63.544,46.848,114.617,109.85,123.689v22.164h-35.389
	c-0.305,0-8.638,0.888-15.932,4.997c-15.898-10.811-33.165-24.703-46.733-41.066c-1.399-1.688-3.645-2.419-5.771-1.884
	c-2.127,0.538-3.753,2.25-4.183,4.4c-0.162,0.809-3.156,16.533,3.561,34.821c-20.238-7.746-59.31-24.975-81.357-49.587
	c-1.778-1.986-4.695-2.468-7.018-1.166c-2.324,1.303-3.432,4.045-2.665,6.596c0.627,2.088,13.187,42.879,41.575,63.653
	c-23.448,2.514-59.746,10.423-80.558,34.977c-1.529,1.803-1.782,4.363-0.638,6.432c1.011,1.827,2.928,2.933,4.974,2.932
	c0.27,0,0.543-0.019,0.816-0.058c0.763-0.11,48.018-6.837,107.463-9.979c-5.585,6.647-10.52,16.525-10.52,30.719
	c0,28.689,18.604,125.618,19.395,129.73c0.515,2.677,2.858,4.612,5.585,4.612h255.152c2.726,0,5.069-1.935,5.585-4.612
	c0.792-4.112,19.395-101.041,19.395-129.73c0-14.193-4.935-24.07-10.519-30.717c59.439,3.143,106.7,9.867,107.463,9.977
	c0.273,0.04,0.545,0.058,0.814,0.058c2.046,0,3.963-1.106,4.974-2.933c1.144-2.068,0.891-4.628-0.637-6.431
	C489.839,317.856,453.543,309.946,430.095,307.434z M311.08,298.045c1.112,0.205,2.857,0.598,4.785,1.173
	c-1.704,1.057-3.378,2.073-5.005,3.044c-1.451-1.515-2.978-2.922-4.585-4.218h4.804V298.045z M291.365,302.752
	c0.038-0.209,0.048-0.417,0.063-0.626c3.383,1.554,6.44,3.55,9.18,6.009c-4.442,2.444-8.292,4.436-11.293,5.935L291.365,302.752z
	 M351.74,208.808l-1.54-5.94c4.223-3.115,8.147-6.44,11.724-9.958C358.982,198.505,355.567,203.815,351.74,208.808z M160.268,208.79
	c-3.585-4.677-6.814-9.628-9.625-14.836c3.388,3.238,7.092,6.321,11.078,9.236L160.268,208.79z M165.507,188.6l-0.674,2.602
	c-14.046-11.219-23.737-25.074-27.049-40.42c-0.284-3.28-0.438-6.603-0.438-9.965c0-67.347,54.339-124.244,118.657-124.244
	c64.317,0,118.655,56.897,118.655,124.244c0,2.271-0.073,4.523-0.205,6.759l-0.155-0.024c-2.477,15.976-12.014,31.033-27.208,43.333
	l-0.593-2.284c-0.788-3.04-3.893-4.866-6.933-4.076c-3.04,0.788-4.866,3.892-4.078,6.933l1.695,6.534
	c-0.251,0.159-10.345,6.016-15.526,8.363l-1.316-5.582c-0.721-3.057-3.784-4.951-6.84-4.231c-3.057,0.72-4.951,3.783-4.231,6.84
	l1.715,7.281c-6.036,2.155-12.322,3.951-18.799,5.37l-1.05-6.611c-0.494-3.102-3.407-5.218-6.509-4.724
	c-3.102,0.492-5.217,3.408-4.724,6.509l1.092,6.868c-6.322,0.933-12.771,1.532-19.306,1.753v-6.751c0-3.14-2.547-5.687-5.687-5.687
	c-3.14,0-5.687,2.547-5.687,5.687v6.771c-6.577-0.204-13.025-0.795-19.314-1.711l1.101-6.93c0.494-3.102-1.622-6.017-4.724-6.509
	c-3.095-0.49-6.016,1.622-6.509,4.724l-1.065,6.699c-6.52-1.414-12.808-3.203-18.816-5.328l1.747-7.411
	c0.72-3.057-1.174-6.119-4.231-6.84c-3.056-0.719-6.119,1.174-6.84,4.231l-1.36,5.77c-5.514-2.47-10.708-5.254-15.547-8.297
	l1.761-6.787c0.788-3.04-1.036-6.144-4.076-6.934C169.394,183.734,166.296,185.561,165.507,188.6z M167.382,217.185
	c1.649-0.638,2.983-2.021,3.461-3.864l0.918-3.538c5.023,2.972,10.333,5.654,15.883,8.039l-1.597,6.776
	c-0.72,3.057,1.174,6.119,4.231,6.84c0.439,0.104,0.877,0.152,1.309,0.152c2.579,0,4.914-1.765,5.53-4.384l1.236-5.248
	c6.333,2.178,12.909,3.985,19.659,5.416l-1.098,6.91c-0.494,3.102,1.622,6.016,4.724,6.509c0.303,0.048,0.603,0.072,0.9,0.072
	c2.747,0,5.164-1.995,5.61-4.795l1.065-6.696c6.919,1.009,13.971,1.639,21.1,1.847v7.508c0,3.142,2.547,5.687,5.687,5.687
	s5.687-2.546,5.687-5.687v-7.526c7.191-0.227,14.238-0.86,21.094-1.874l1.071,6.743c0.445,2.8,2.862,4.795,5.61,4.795
	c0.297,0,0.597-0.023,0.9-0.072c3.102-0.493,5.217-3.408,4.724-6.509l-1.11-6.987c6.793-1.46,13.355-3.3,19.637-5.487l1.272,5.396
	c0.616,2.618,2.952,4.384,5.53,4.384c0.432,0,0.871-0.049,1.309-0.152c3.057-0.72,4.951-3.783,4.231-6.84l-1.641-6.966
	c5.577-2.424,10.877-5.138,15.859-8.112l0.986,3.801c0.479,1.845,1.815,3.23,3.468,3.867c-21.57,23.068-53.029,37.38-88.626,37.38
	S188.952,240.253,167.382,217.185z M241.51,298.045c3.14,0,5.687-2.546,5.687-5.687c0-0.002-0.001-0.003-0.001-0.006v-26.689
	c2.91,0.179,5.844,0.28,8.807,0.28s5.897-0.1,8.805-0.28v26.695c0,3.142,2.547,5.687,5.687,5.687l0,0
	c3.542,0,6.859,0.272,9.98,0.794c-2.762,2.393-9.637,8.055-20.467,15.065h-8.026c-10.835-7.014-17.703-12.675-20.458-15.064
	C234.649,298.317,237.967,298.045,241.51,298.045z M277.456,315.716l-3.682,20.316c-1.066,5.642-11.523,10.861-17.773,13.077
	c-6.25-2.217-16.71-7.436-17.773-13.079l-3.682-20.315c3.488,2.555,7.725,5.491,12.709,8.671c0.913,0.583,1.975,0.893,3.059,0.893
	h11.374c1.575,0,2.948-0.822,3.059-0.893C269.731,321.207,273.968,318.27,277.456,315.716z M220.577,302.128
	c0.015,0.208,0.025,0.415,0.063,0.624l2.051,11.318c-3-1.498-6.85-3.49-11.291-5.934
	C214.138,305.677,217.195,303.682,220.577,302.128z M200.922,298.045h4.808c-1.607,1.296-3.134,2.704-4.585,4.219
	c-1.629-0.97-3.303-1.989-5.008-3.045C198.068,298.642,199.813,298.249,200.922,298.045z M23.126,338.129
	c31.423-21.423,80.156-20.455,80.711-20.445c2.882,0.086,5.37-2.017,5.781-4.873c0.412-2.856-1.38-5.568-4.169-6.308
	c-21.143-5.618-35.813-26.312-44.513-43.049c33.655,25.329,77.771,39.256,80.011,39.952c2.277,0.709,4.754-0.08,6.205-1.973
	c1.45-1.894,1.564-4.492,0.285-6.505c-5.949-9.368-8.121-18.957-8.78-26.35c35.657,36.672,84.22,58.274,86.457,59.258
	c0.023,0.01,0.048,0.014,0.072,0.024l0.51,2.814C149.128,324.94,60.604,333.686,23.126,338.129z M182.416,371.709
	c0.423,8.327,1.547,16.376,3.2,24.097H160.76c-1.514-8.449-2.218-16.221-2.218-22.689c0-0.474,0.017-0.937,0.023-1.408H182.416z
	 M159.147,360.335c0.692-7.159,1.975-13.897,3.846-20.148c7.006-0.059,14.05-0.042,21.088,0.066
	c-1.034,6.192-1.638,12.91-1.804,20.083h-23.129V360.335z M133.135,495.425c-3.757-19.948-18.315-98.798-18.315-122.968
	c0-21.372,14.351-29.756,18.076-31.572c0.288-0.01,0.574-0.022,0.863-0.032c-6.403,10.9-8.502,28.489-5.912,51.537
	c4.244,37.778,14.139,85.435,17.938,103.034h-12.65V495.425z M157.424,495.425c-3.273-15.006-13.872-65.117-18.275-104.304
	c-3.666-32.629,3.256-47.551,10.957-50.634c0.081-0.032,0.154-0.076,0.232-0.113c0.274-0.006,0.548-0.01,0.822-0.016
	c-2.631,10.016-3.992,20.983-3.991,32.76c0,14.031,3.082,33.666,10.237,53.574l12.74,68.733H157.424z M163.22,407.181h25.267
	c2.476,8.535,5.539,16.596,8.928,24.098h-26.173C170.283,429.004,164.533,412.396,163.22,407.181z M202.996,442.653
	c4.662,8.796,9.617,16.622,14.309,23.294c0.19,0.271,0.381,0.535,0.571,0.803h-24.809c-6.497-7.286-11.952-15.502-16.465-24.097
	H202.996z M181.714,495.425l-6.051-32.644c9.087,13.128,20.619,24.673,34.972,32.644H181.714z M205.127,478.125h21.333
	c5.1,6.358,9.913,11.71,13.974,15.943C226.706,491.598,215.017,485.884,205.127,478.125z M256.003,493.444
	c-13.855-13.048-62.404-63.464-62.404-129.061c0-8.742,0.672-16.738,1.981-23.87c11.099,0.332,22.105,0.92,32.855,1.795
	c5.612,11.772,23.67,17.556,25.923,18.236c0.14,0.042,0.571,0.245,1.642,0.245s1.501-0.2,1.647-0.245
	c2.253-0.681,20.312-6.465,25.923-18.236c10.751-0.876,21.755-1.463,32.855-1.795c1.31,7.13,1.983,15.128,1.983,23.87
	C318.407,429.982,269.853,480.4,256.003,493.444z M309.008,442.653h26.393c-4.513,8.597-9.968,16.811-16.465,24.097h-24.808
	c0.191-0.268,0.381-0.532,0.572-0.803C299.393,459.276,304.346,451.449,309.008,442.653z M285.545,478.125h21.332
	c-9.889,7.758-21.579,13.473-35.306,15.943C275.632,489.835,280.444,484.483,285.545,478.125z M330.29,495.425h-28.921
	c14.352-7.971,25.884-19.516,34.971-32.644L330.29,495.425z M314.59,431.279c3.388-7.502,6.451-15.563,8.928-24.098h25.267
	c-1.313,5.213-7.064,21.826-8.022,24.098H314.59z M329.588,371.709h23.85c0.005,0.471,0.023,0.934,0.023,1.408
	c0,6.468-0.704,14.242-2.218,22.689h-24.855C328.041,388.085,329.164,380.037,329.588,371.709z M327.935,340.251
	c7.025-0.107,14.055-0.124,21.05-0.065c1.874,6.253,3.167,12.988,3.865,20.148h-23.121
	C329.566,353.163,328.968,346.441,327.935,340.251z M341.858,495.425l12.741-68.736c7.152-19.908,10.234-39.541,10.234-53.571
	c0-11.777-1.359-22.744-3.991-32.759c0.274,0.006,0.548,0.01,0.822,0.016c0.077,0.036,0.149,0.08,0.23,0.111
	c7.7,3.084,14.623,18.005,10.957,50.634c-4.401,39.175-15,89.296-18.274,104.304H341.858z M378.868,495.425h-12.653
	c3.799-17.599,13.694-65.257,17.938-103.034c2.589-23.047,0.49-40.636-5.911-51.536c0.29,0.01,0.579,0.022,0.869,0.032
	c3.644,1.788,18.071,10.224,18.071,31.57C397.183,396.626,382.625,475.477,378.868,495.425z M286.306,330.671l0.51-2.814
	c0.024-0.01,0.049-0.014,0.072-0.024c2.236-0.983,50.799-22.588,86.455-59.257c-0.66,7.395-2.832,16.983-8.78,26.349
	c-1.278,2.014-1.165,4.611,0.285,6.505c1.449,1.894,3.925,2.682,6.205,1.973c2.242-0.697,46.391-14.632,80.051-39.981
	c-8.683,16.736-23.35,37.445-44.551,43.078c-2.789,0.74-4.58,3.452-4.167,6.308c0.412,2.856,2.897,4.958,5.781,4.873
	c0.558-0.017,49.281-1.028,80.726,20.447C451.419,333.687,362.882,324.94,286.306,330.671z"/>
<g>
</g>
<g>
</g>
<g>
</g>
<g>
</g>
<g>
</g>
<g>
</g>
<g>
</g>
<g>
</g>
<g>
</g>
<g>
</g>
<g>
</g>
<g>
</g>
<g>
</g>
<g>
</g>
<g>
</g>
</svg>
