<?xml version="1.0" encoding="iso-8859-1"?>
<!-- Generator: Adobe Illustrator 19.0.0, SVG Export Plug-In . SVG Version: 6.00 Build 0)  -->
<svg version="1.1" id="Layer_1" xmlns="http://www.w3.org/2000/svg" xmlns:xlink="http://www.w3.org/1999/xlink" x="0px" y="0px"
	 viewBox="0 0 512 512" style="enable-background:new 0 0 512 512;" xml:space="preserve">
<g>
	<path style="fill:#B3B3B3;" d="M193.435,354.879C193.435,354.879,193.434,354.88,193.435,354.879l-26.37,26.359l-6.2-6.204
		l24.452-24.442l-8.451-25.343l8.321-2.775l9.309,27.915C195.019,351.967,194.609,353.705,193.435,354.879z"/>
	<path style="fill:#B3B3B3;" d="M356.237,128.114l-22.515-3.117c-2.551-0.353-5.121,0.51-6.943,2.331l-0.001,0.001l-27.904,27.915
		l11.632,11.628l25.013-25.022l6.132,0.849l-27.663,27.655l11.628,11.631l38.771-38.76L474.479,33.132l-11.63-11.63L356.237,128.114
		z"/>
</g>
<g>
	<path style="fill:#666666;" d="M156.428,362.062l-12.554,52.916l-1.612,0.757l-64.858,92.388c-3.51,5-10.823,5.193-14.63,0.417
		c-5.805-7.284-12.168-14.089-19.026-20.362c-7.111-6.503-14.75-12.434-22.849-17.719c-4.848-3.164-5.544-9.992-1.451-14.086
		c0,0,118.973-118.704,119.148-118.342L156.428,362.062z"/>
	
		<rect x="133.665" y="289.494" transform="matrix(-0.9223 0.3865 -0.3865 -0.9223 387.987 529.2147)" style="fill:#666666;" width="14.254" height="28.235"/>
	
		<rect x="171.184" y="251.954" transform="matrix(-0.9222 -0.3866 0.3866 -0.9222 256.0161 569.653)" style="fill:#666666;" width="28.222" height="14.253"/>
</g>
<g>
	<path style="fill:#808080;" d="M187.688,407.884c2.401,5.383,0.45,11.71-4.572,14.813l-19.854,12.247
		c-4.164,2.569-9.637,0.931-11.704-3.502l-7.683-16.464l-13.596-29.121l6.768-29.222l26.147-3.693l11.863,26.599L187.688,407.884z"
		/>
	<path style="fill:#808080;" d="M263.083,298.007l-27.081,27.088c-2.958,2.959-7.754,2.959-10.713,0.001l-22.925-22.925
		l37.803-37.792l22.915,22.915C266.04,290.253,266.04,295.049,263.083,298.007z"/>
</g>
<path style="fill:#B3B3B3;" d="M256.226,259.899L241.5,274.635l-33.343,33.332l-16.282,16.282l-28.683,28.694l-32.915,32.915
	l-11.885-25.47c-0.175-0.362-0.329-0.735-0.482-1.096c-3.18-7.949-1.349-17.093,4.769-23.201l31.599-31.599l48.068-48.079
	l25.196-25.196L256.226,259.899z"/>
<polygon style="fill:#4D4D4D;" points="168.934,267.789 150.24,286.483 111.964,324.77 90.57,303.375 185.061,208.885 
	206.443,230.28 184.35,252.373 "/>
<path style="fill:#666666;" d="M296.549,152.916l-73.658,73.647l0,0c-1.233,1.233-1.926,2.907-1.928,4.651
	c0,1.744,0.693,3.419,1.928,4.652l28.683,28.683c1.293,1.293,3.066,1.99,4.893,1.922c1.665-0.061,3.24-0.752,4.41-1.922
	c0.114-0.114,0.224-0.232,0.329-0.354l68.231-79.075c2.251-2.608,2.107-6.513-0.329-8.949l-23.255-23.255
	C303.283,150.347,299.119,150.347,296.549,152.916z"/>
<path style="fill:#4D4D4D;" d="M317.808,173.492l-68.231,79.075c-0.105,0.123-0.215,0.24-0.329,0.354
	c-1.17,1.17-2.744,1.861-4.41,1.922c-1.827,0.067-3.601-0.629-4.893-1.922l11.63,11.63c1.293,1.293,3.066,1.99,4.893,1.922
	c1.665-0.061,3.24-0.752,4.41-1.922c0.114-0.114,0.224-0.232,0.329-0.354l68.231-79.075c2.251-2.608,2.107-6.513-0.329-8.949
	l-11.63-11.63C319.915,166.979,320.059,170.884,317.808,173.492z"/>
<polygon style="fill:#B3B3B3;" points="423.706,79.251 404.325,59.894 411.283,43.592 435.329,67.617 "/>
<path style="fill:#808080;" d="M212.495,236.321c-3.205,3.205-8.401,3.213-11.616,0.013l-2.401-2.39l-17.065-17.076l-2.386-2.375
	c-3.219-3.204-3.231-8.411-0.027-11.63c0.004-0.004,0.01-0.01,0.014-0.014c3.205-3.205,8.401-3.213,11.616-0.013l2.401,2.39
	l17.065,17.076l2.386,2.375c3.219,3.204,3.231,8.411,0.027,11.63C212.504,236.311,212.5,236.317,212.495,236.321z"/>
<path style="fill:#666666;" d="M204.025,216.229c3.142,3.209,3.134,8.357-0.045,11.55c-0.004,0.004-0.01,0.01-0.014,0.014
	c-3.205,3.205-8.401,3.213-11.616,0.013l6.127,6.138l2.401,2.39c3.215,3.199,8.411,3.192,11.616-0.013
	c0.004-0.004,0.01-0.01,0.014-0.014c3.204-3.219,3.192-8.426-0.027-11.63l-2.386-2.375L204.025,216.229z"/>
<path style="fill:#808080;" d="M118.005,330.811c-3.211,3.211-8.418,3.211-11.63,0l-21.838-21.828
	c-3.219-3.204-3.231-8.411-0.027-11.63c0.004-0.004,0.01-0.01,0.014-0.014c3.205-3.205,8.401-3.213,11.616-0.013l2.401,2.39
	l19.465,19.465C121.216,322.393,121.216,327.6,118.005,330.811z"/>
<path style="fill:#666666;" d="M109.535,310.719c3.142,3.209,3.134,8.357-0.045,11.55c-0.004,0.004-0.01,0.01-0.014,0.014
	c-3.205,3.205-8.401,3.213-11.616,0.013l6.127,6.138l2.401,2.39c3.215,3.199,8.411,3.192,11.616-0.013
	c0.004-0.004,0.01-0.01,0.014-0.014c3.204-3.219,3.192-8.426-0.027-11.63l-2.386-2.375L109.535,310.719z"/>
<rect x="432.58" y="18.242" transform="matrix(-0.7071 0.7071 -0.7071 -0.7071 814.0063 -274.3742)" style="fill:#999999;" width="62.496" height="26.314"/>
<rect x="151.304" y="290.66" transform="matrix(-0.7071 0.7071 -0.7071 -0.7071 526.7017 370.279)" style="fill:#666666;" width="70.719" height="7.127"/>
<g>
</g>
<g>
</g>
<g>
</g>
<g>
</g>
<g>
</g>
<g>
</g>
<g>
</g>
<g>
</g>
<g>
</g>
<g>
</g>
<g>
</g>
<g>
</g>
<g>
</g>
<g>
</g>
<g>
</g>
</svg>
