<?xml version="1.0" encoding="iso-8859-1"?>
<!-- Uploaded to: SVG Repo, www.svgrepo.com, Generator: SVG Repo Mixer Tools -->
<svg height="800px" width="800px" version="1.1" id="Layer_1" xmlns="http://www.w3.org/2000/svg" xmlns:xlink="http://www.w3.org/1999/xlink" 
	 viewBox="0 0 512 512" xml:space="preserve">
<path style="fill:#FF3501;" d="M269.551,259.556l-77.802,184.536c-9.948,25.804,3.028,54.732,28.684,64.544
	c26.321,10.146,54.929-3.66,64.392-28.283L378.4,254.818L269.551,259.556z"/>
<path style="fill:#FF6243;" d="M32.059,227.013c-25.798,9.924-38.623,38.809-28.706,64.522
	c9.644,25.228,38.033,38.991,65.043,28.521l184.049-77.618l4.738-108.838L32.059,227.013z"/>
<path style="fill:#9DB0CA;" d="M496.17,69.664c-2.504-4.629-7.047-7.805-12.25-8.564c-5.204-0.78-10.461,0.976-14.179,4.704
	L360.903,174.643l-5.528,89.433c7.859,1.41,15.741,2.092,23.567,2.092c35.058,0,69.076-13.8,94.225-38.961
	C514.49,185.895,523.943,121.102,496.17,69.664z"/>
<path style="fill:#B1C6E4;" d="M450.9,28.08c-0.759-5.204-3.935-9.745-8.564-12.25C390.877-11.943,326.105-2.479,284.781,38.834
	c-30.765,30.765-44.543,74.799-36.868,117.782l89.444-5.518L446.195,42.26C449.913,38.541,451.659,33.283,450.9,28.08z"/>
<path style="fill:#DBE9FD;" d="M222.677,205.207c0.008-45.908,37.354-83.253,83.253-83.253
	c46.008-0.016,83.269,37.237,83.253,83.253c0,45.9-37.346,83.246-83.253,83.253l0,0
	C260.013,288.459,222.677,251.108,222.677,205.207z"/>
<path style="fill:#B1C6E4;" d="M305.941,155.264c-27.534,0-49.947,22.413-49.955,49.955c-0.008,27.557,22.429,49.932,49.955,49.955
	c27.542-0.008,49.955-22.421,49.955-49.955C355.911,177.634,333.557,155.249,305.941,155.264z"/>
<path style="fill:#C5DCFD;" d="M364.847,146.352L247.12,264.078c15.071,15.057,35.869,24.381,58.811,24.381
	c45.908-0.008,83.253-37.354,83.253-83.253C389.192,182.214,379.893,161.412,364.847,146.352z"/>
<path style="fill:#9DB0CA;" d="M341.292,169.906l-70.633,70.633c9.047,9.03,21.529,14.624,35.282,14.635
	c27.542-0.008,49.955-22.421,49.955-49.955C355.903,191.435,350.323,178.949,341.292,169.906z"/>
<circle style="fill:#DBE9FD;" cx="305.977" cy="205.217" r="16.651"/>
<path style="fill:#C5DCFD;" d="M317.753,216.994c6.503-6.503,6.503-17.045,0-23.548l-23.548,23.548
	C300.707,223.496,311.25,223.496,317.753,216.994z"/>
</svg>