<svg height="511pt" viewBox="-24 0 511 511.99872" width="511pt" xmlns="http://www.w3.org/2000/svg"><path d="m443.410156 275.621094c-14.015625-21.859375-25.421875-45.3125-32.761718-70.222656-15.613282-52.988282-54.117188-96.164063-104.066407-118.09375-3.660156-1.605469-4.199219-6.539063-.972656-8.898438 18.707031-13.691406 28.777344-30.511719 23.09375-40.523438-6.703125-11.800781-32.753906-9.660156-58.191406 4.78125-5.125 2.910157-9.824219 6.097657-14.019531 9.429688 9.695312-23.136719 8.625-45.363281-2.933594-50.851562-12.257813-5.824219-31.667969 9.402343-43.351563 34.003906-5.796875 12.207031-8.597656 24.425781-8.453125 34.351562.035156 2.515625-1.714844 4.695313-4.1875 5.152344-69.0625 12.746094-124.796875 63.519531-144.675781 129.800781-7.398437 24.683594-18.015625 48.28125-32.183594 69.800781-12.8125 19.453126-20.21875 42.75-20.207031 67.789063.105469 226.476563 462.183594 226.476563 462.289062 0 .011719-24.496094-7.078124-47.328125-19.378906-66.519531zm0 0" fill="#fd4755"/><path d="m443.410156 275.621094c-14.015625-21.859375-25.421875-45.3125-32.761718-70.222656-15.613282-52.988282-54.117188-96.164063-104.066407-118.09375-3.660156-1.605469-4.199219-6.539063-.972656-8.898438 18.707031-13.691406 28.777344-30.511719 23.09375-40.523438-4.609375-8.113281-18.363281-9.636718-34.777344-5.105468 2.417969 1.238281 4.3125 2.933594 5.546875 5.105468 5.683594 10.011719-4.382812 26.832032-23.09375 40.523438-3.222656 2.359375-2.6875 7.292969.972656 8.898438 49.949219 21.929687 88.449219 65.105468 104.066407 118.09375 7.339843 24.910156 18.746093 48.363281 32.761719 70.222656 12.300781 19.191406 19.390624 42.023437 19.378906 66.519531-.050782 108.460937-106.054688 164.972656-216.527344 169.546875 120.207031 4.980469 245.703125-51.53125 245.757812-169.546875.011719-24.496094-7.078124-47.328125-19.378906-66.519531zm0 0" fill="#c41926"/><g fill="#353535"><path d="m345.707031 272.265625c0 10.230469-8.292969 18.523437-18.523437 18.523437-10.21875 0-18.511719-8.292968-18.511719-18.523437 0-3.636719 1.050781-7.035156 2.863281-9.898437.011719 0 .011719 0 .011719-.011719 5.820313-3.222657 11.867187-6.046875 18.078125-8.4375 9.074219 1.183593 16.082031 8.953125 16.082031 18.347656zm0 0"/><path d="m297.714844 278.847656c-2.402344.003906-4.769532-1.117187-6.28125-3.21875-2.488282-3.464844-1.699219-8.292968 1.765625-10.78125 4.570312-3.285156 9.40625-6.351562 14.371093-9.117187.078126-.046875.152344-.089844.230469-.132813 6.121094-3.390625 12.53125-6.382812 19.050781-8.890625 12.707032-4.90625 25.953126-8.066406 39.363282-9.398437 4.246094-.421875 8.03125 2.679687 8.453125 6.925781s-2.679688 8.03125-6.925781 8.449219c-12.027344 1.195312-23.917969 4.035156-35.335938 8.441406-5.789062 2.230469-11.476562 4.875-16.910156 7.875-.09375.054688-.191406.109375-.289063.164062-4.492187 2.496094-8.863281 5.265626-12.988281 8.234376-1.363281.976562-2.941406 1.449218-4.503906 1.449218zm0 0"/><path d="m117.582031 272.265625c0 10.230469 8.292969 18.523437 18.523438 18.523437 10.21875 0 18.511719-8.292968 18.511719-18.523437 0-3.636719-1.050782-7.035156-2.863282-9.898437-.011718 0-.011718 0-.011718-.011719-5.820313-3.222657-11.867188-6.046875-18.078126-8.4375-9.074218 1.183593-16.082031 8.953125-16.082031 18.347656zm0 0"/><path d="m165.574219 278.847656c-1.5625 0-3.140625-.472656-4.503907-1.453125-4.128906-2.964843-8.496093-5.734375-12.992187-8.234375-.097656-.050781-.191406-.105468-.289063-.164062-5.433593-2.996094-11.117187-5.644532-16.898437-7.867188-11.429687-4.410156-23.316406-7.25-35.34375-8.445312-4.246094-.417969-7.347656-4.203125-6.925781-8.449219s4.203125-7.339844 8.449218-6.925781c13.414063 1.328125 26.660157 4.492187 39.375 9.402344 6.511719 2.503906 12.921876 5.496093 19.042969 8.886718.074219.042969.152344.085938.230469.128906 4.964844 2.769532 9.796875 5.835938 14.371094 9.121094 3.464844 2.488282 4.253906 7.316406 1.761718 10.78125-1.507812 2.101563-3.875 3.21875-6.277343 3.21875zm0 0"/></g><path d="m231.644531 353.589844c-47.046875 0-87.722656-11.949219-107.082031-29.300782-2.683594-2.40625-6.976562-.546874-6.980469 3.054688v.105469c0 62.992187 51.066407 114.058593 114.0625 114.058593 62.996094 0 114.0625-51.066406 114.0625-114.058593 0-.035157 0-.070313 0-.105469-.003906-3.601562-4.296875-5.460938-6.976562-3.054688-19.363281 17.351563-60.039063 29.300782-107.085938 29.300782zm0 0" fill="#8c2f3f"/><path d="m168.863281 345.75c-3.996093 5.378906-6.242187 11.359375-6.242187 17.660156 0 9.515625 5.078125 18.300782 13.65625 25.382813h110.734375c8.578125-7.082031 13.65625-15.867188 13.65625-25.382813 0-6.300781-2.246094-12.277344-6.242188-17.660156-18.230469 4.964844-39.738281 7.839844-62.78125 7.839844s-44.550781-2.875-62.78125-7.839844zm0 0" fill="#e8eaea"/><path d="m287.011719 388.792969h-110.734375c-8.578125 7.085937-13.65625 15.867187-13.65625 25.382812 0 1.472657.121094 2.921875.359375 4.351563 19.101562 14.425781 42.882812 22.980468 68.664062 22.980468s49.5625-8.554687 68.664063-22.980468c.238281-1.429688.359375-2.882813.359375-4.351563 0-9.515625-5.078125-18.296875-13.65625-25.382812zm0 0" fill="#e8eaea"/><path d="m357.988281 214.855469c26.824219-7.007813 49.617188-27.988281 58.535157-54.238281 7.5-22.09375 5.90625-47.597657-4.980469-68.132813-2.125-4.003906-8.136719-3.289063-9.222657 1.109375-3.703124 15.015625-11.410156 29.046875-22.207031 40.128906-13.65625 14.023438-32.238281 22.730469-51.59375 25.65625-26.046875 3.933594 11.589844 60.148438 29.46875 55.476563zm0 0" fill="#fd4755"/><path d="m411.542969 92.484375c-2.125-4.003906-8.140625-3.289063-9.222657 1.109375-.078124.320312-.171874.632812-.253906.949219 4.410156 16.613281 3.839844 34.714843-1.683594 50.972656-8.914062 26.253906-31.710937 47.230469-58.535156 54.242187-.027344.007813-.058594.015626-.085937.023438-3.164063.789062-4.292969 4.664062-1.90625 6.882812 6.363281 5.921876 13.046875 9.523438 18.132812 8.191407 26.824219-7.007813 49.617188-27.988281 58.535157-54.238281 7.5-22.09375 5.902343-47.597657-4.980469-68.132813zm0 0" fill="#c41926"/><path d="m105.300781 214.855469c-26.824219-7.007813-49.617187-27.988281-58.535156-54.238281-7.503906-22.09375-5.90625-47.597657 4.980469-68.132813 2.125-4.003906 8.136718-3.289063 9.222656 1.109375 3.703125 15.015625 11.410156 29.046875 22.207031 40.128906 13.65625 14.023438 32.238281 22.730469 51.59375 25.65625 26.046875 3.933594-11.589843 60.148438-29.46875 55.476563zm0 0" fill="#fd4755"/><path d="m51.746094 92.484375c2.125-4.003906 8.140625-3.289063 9.222656 1.109375.078125.320312.171875.632812.253906.949219-4.414062 16.613281-3.839844 34.714843 1.683594 50.972656 8.914062 26.253906 31.710938 47.230469 58.53125 54.242187.03125.007813.0625.015626.089844.023438 3.164062.789062 4.292968 4.664062 1.90625 6.882812-6.363282 5.921876-13.046875 9.523438-18.132813 8.191407-26.824219-7.007813-49.617187-27.988281-58.535156-54.238281-7.503906-22.09375-5.902344-47.597657 4.980469-68.132813zm0 0" fill="#c41926"/><path d="m166.636719 399.878906h130.011719c-2.320313-4.003906-5.582032-7.734375-9.636719-11.085937h-110.734375c-4.054688 3.351562-7.316406 7.082031-9.640625 11.085937zm0 0" fill="#c0c4c4"/></svg>