<?xml version="1.0" encoding="iso-8859-1"?>
<!-- Uploaded to: SVG Repo, www.svgrepo.com, Generator: SVG Repo Mixer Tools -->
<svg height="800px" width="800px" version="1.1" id="Layer_1" xmlns="http://www.w3.org/2000/svg" xmlns:xlink="http://www.w3.org/1999/xlink" 
	 viewBox="0 0 512 512" xml:space="preserve">
<path style="fill:#99774F;" d="M320,475.826C320,495.772,303.772,512,283.826,512c-19.946,0-36.174-16.228-36.174-36.174V247.652
	c0-4.61,3.738-8.348,8.348-8.348s8.348,3.738,8.348,8.348v228.174c0,10.74,8.738,19.478,19.478,19.478
	c10.74,0,19.478-8.739,19.478-19.478c0-4.61,3.738-8.348,8.348-8.348S320,471.216,320,475.826z"/>
<path style="fill:#AF7AAE;" d="M289.391,33.391L289.391,33.391L289.391,33.391v11.13h-66.783v-11.13l0,0l0,0l0,0
	C222.609,14.95,237.559,0,256,0S289.391,14.949,289.391,33.391L289.391,33.391z"/>
<path style="fill:#D199D1;" d="M512,256L512,256H0l0,0C0,133.057,99.665,33.391,222.609,33.391h66.783
	C412.335,33.391,512,133.057,512,256z"/>
<path style="fill:#AF7AAE;" d="M378.435,256L378.435,256H0l0,0c0-4.185,0.116-8.342,0.344-12.471
	c13.046-236.258,364.702-236.258,377.748,0C378.319,247.657,378.435,251.815,378.435,256z"/>
</svg>