<svg height="512pt" viewBox="-13 0 512 512.00038" width="512pt" xmlns="http://www.w3.org/2000/svg"><path d="m138.367188 49.421875-5.058594.65625c-7.808594 1.015625-13.316406 8.167969-12.300782 15.972656l56.847657 438.046875h34.535156l-58.050781-442.371094c-1.015625-7.808593-8.164063-13.316406-15.972656-12.304687zm0 0" fill="#996459"/><path d="m154.339844 61.726562c-1.015625-7.808593-8.164063-13.316406-15.972656-12.304687l-5.058594.65625c-.441406.058594-.871094.140625-1.296875.234375 4.648437 1.855469 8.1875 6.097656 8.878906 11.414062l58.050781 442.371094h13.449219zm0 0" fill="#875850"/><path d="m287.925781 272.347656-247.199219 32.074219c-11.589843 1.507813-22.210937-6.671875-23.71875-18.273437l-16.828124-129.65625c-1.507813-11.589844 6.679687-22.210938 18.269531-23.71875l151.40625-19.652344 95.792969-12.433594c11.589843-1.507812 22.210937 6.679688 23.71875 18.269531l12.6875 97.742188 4.140624 31.917969c1.507813 11.601562-6.671874 22.222656-18.269531 23.730468zm0 0" fill="#f8a28b"/><path d="m302.054688 216.703125-122.230469-15.871094c-.652344-.082031-1.304688-.199219-1.9375-.335937-.644531-.90625-.644531-2.152344.074219-3.066406l18.554687-23.835938c4.953125-6.4375 3.75-15.679688-2.6875-20.640625-6.4375-4.964844-15.679687-3.761719-20.640625 2.675781l-10.613281 13.632813 7.28125-56.140625 95.792969-12.433594c11.589843-1.507812 22.210937 6.683594 23.71875 18.273438zm0 0" fill="#f58c79"/><path d="m208.023438 231.117188c0 3.203124-1.011719 6.445312-3.121094 9.175781-4.8125 6.25-13.78125 7.4375-20.0625 2.65625l-24.539063-18.703125c-1.117187-.855469-2.722656-.652344-3.585937.464844l-18.945313 24.347656c-2.824219 3.636718-7.058593 5.535156-11.328125 5.535156-3.054687 0-6.140625-.96875-8.746094-2.984375-6.605468-5.089844-7.816406-14.636719-2.695312-21.21875l18.28125-23.476563c.875-1.128906.664062-2.761718-.472656-3.625l-24.023438-18.316406c-6.4375-4.949218-7.640625-14.191406-2.675781-20.640625 4.960937-6.4375 14.203125-7.636719 20.640625-2.675781l24.183594 18.429688c1.117187.851562 2.71875.652343 3.582031-.464844l8.058594-10.359375-1.019531 7.851562c-1.421876 10.949219 5.773437 21.011719 16.332031 23.382813.148437.210937.328125.398437.535156.558594l23.667969 18.039062c3.886718 2.960938 5.933594 7.460938 5.933594 12.023438zm0 0" fill="#fff"/><path d="m343.554688.125 3.589843.46875c8.214844 1.066406 14.007813 8.585938 12.941407 16.800781l-63.164063 486.703125h-34.066406l63.898437-491.027344c1.0625-8.214843 8.585938-14.011718 16.800782-12.945312zm0 0" fill="#996459"/><path d="m347.144531.59375-3.589843-.46875c-3.054688-.394531-6.007813.160156-8.574219 1.429688 6.203125 2.484374 10.199219 8.90625 9.300781 15.839843l-63.164062 486.703125h15.804687l63.164063-486.703125c1.066406-8.214843-4.726563-15.734375-12.941407-16.800781zm0 0" fill="#875850"/><path d="m196.515625 173.59375-18.554687 23.835938c-.71875.917968-.71875 2.160156-.074219 3.066406-10.558594-2.371094-17.753907-12.433594-16.332031-23.382813l1.019531-7.851562 10.613281-13.632813c4.960938-6.4375 14.203125-7.640625 20.640625-2.675781 6.4375 4.960937 7.640625 14.203125 2.6875 20.640625zm0 0" fill="#eff2fa"/><path d="m196.855469 186.859375 249.335937 32.359375c11.007813 1.425781 21.085938-6.335938 22.511719-17.339844l17.105469-131.800781c1.429687-11.003906-6.332032-21.085937-17.339844-22.511719l-249.335938-32.359375c-11.003906-1.429687-21.082031 6.335938-22.511718 17.339844l-17.105469 131.800781c-1.425781 11.003906 6.335937 21.082032 17.339844 22.511719zm0 0" fill="#ffd782"/><path d="m302.523438 159.875c-3.511719-.402344-6.714844-2.183594-8.910157-4.949219l-24.84375-31.308593c-4.570312-5.761719-3.609375-14.140626 2.152344-18.710938s14.136719-3.609375 18.710937 2.152344l16.566407 20.878906 57.914062-45.960938c5.757813-4.570312 14.136719-3.605468 18.707031 2.15625 4.570313 5.757813 3.609376 14.136719-2.152343 18.707032l-68.34375 54.238281c-2.769531 2.195313-6.292969 3.203125-9.800781 2.796875zm0 0" fill="#fff"/><path d="m337.910156 512h-194.933594c-4.363281 0-7.902343-3.539062-7.902343-7.902344 0-4.367187 3.539062-7.902344 7.902343-7.902344h194.933594c4.367188 0 7.90625 3.535157 7.90625 7.902344-.003906 4.363282-3.539062 7.902344-7.90625 7.902344zm0 0" fill="#5c546a"/></svg>