<?xml version="1.0" ?>
<!-- Uploaded to: SVG Repo, www.svgrepo.com, Generator: SVG Repo Mixer Tools -->
<svg width="800px" height="800px" viewBox="0 0 24 24" enable-background="new 0 0 24 24" id="Layer_1" version="1.1" xml:space="preserve" xmlns="http://www.w3.org/2000/svg" xmlns:xlink="http://www.w3.org/1999/xlink">
<g>
<path d="M23.7602558,17.5654297c-0.1054688-0.0639648-2.6186523-1.5727539-5.7602539-1.5727539   c-0.3234863,0-0.6445312,0.0128174-0.9620361,0.0322876c0.7371826-0.4002686,1.4799194-0.8638306,2.1671143-1.4004517   c3.3183594-2.5908203,4.7128906-6.7998047,4.7705078-6.9775391c0.0532227-0.1645508,0.0180664-0.3452148-0.09375-0.4775391   c-0.1123047-0.1313477-0.2822266-0.1923828-0.4555664-0.1713867c-0.1435547,0.0214844-3.5458984,0.5561523-6.6601562,3.3867188   c-0.8416147,0.7651367-1.6035166,1.6148071-2.2730112,2.4495239c0.296875-1.1581421,0.506897-2.4572144,0.506897-3.8416138   c0-4.7885742-2.4765625-8.6142578-2.5820312-8.7744141c-0.1845703-0.28125-0.6513672-0.28125-0.8359375,0   C11.4765635,0.378418,9.000001,4.2041016,9.000001,8.9926758c0,1.3843994,0.210022,2.6834717,0.506897,3.8416138   c-0.6694946-0.8347168-1.4313965-1.6843872-2.2730103-2.4495239C4.1196299,7.5541992,0.7172861,7.0195312,0.5737314,6.9980469   C0.4033213,6.9770508,0.230958,7.0380859,0.118165,7.1694336c-0.1118164,0.1323242-0.1469727,0.3129883-0.09375,0.4775391   c0.0576172,0.1777344,1.4521484,4.3867188,4.7705078,6.9775391c0.6871948,0.5366211,1.4299316,1.0001831,2.1671143,1.4004517   c-0.3175049-0.0194702-0.6385498-0.0322876-0.9620361-0.0322876c-3.1416016,0-5.6547852,1.5087891-5.7602539,1.5727539   c-0.1494141,0.0913086-0.2402344,0.2539062-0.2397461,0.4287109c0.0004883,0.175293,0.0927734,0.3374023,0.2426758,0.4272461   c0.1069336,0.0639648,2.6542969,1.5712891,5.7573242,1.5712891c0.6921387,0,1.3742676-0.0994263,2.0223389-0.2503662   c-1.0606689,1.2492676-1.0251465,2.6998901-1.0218506,2.7718506c0.0068359,0.1538086,0.0839844,0.2963867,0.2094727,0.3857422   c0.0854492,0.0610352,0.1870117,0.0927734,0.2900391,0.0927734c0.0478516,0,0.0957031-0.0068359,0.1425781-0.0205078   c0.0751953-0.0224609,1.8642578-0.5678711,3.2353516-2.1523438c0.2457886-0.2839966,0.4439697-0.5654907,0.6220703-0.8417969   v3.5146484c0,0.2763672,0.2236328,0.5,0.5,0.5s0.5-0.2236328,0.5-0.5v-3.5146484   c0.1781006,0.2763062,0.3762817,0.5578003,0.6220703,0.8417969c1.3710938,1.5844727,3.1601572,2.1298828,3.2353525,2.1523438   c0.046875,0.0136719,0.0947266,0.0205078,0.1425781,0.0205078c0.1030273,0,0.2045898-0.0317383,0.2900391-0.0927734   c0.1254883-0.0893555,0.2026367-0.2319336,0.2094727-0.3857422c0.0032959-0.0720215,0.0392456-1.5263672-1.0255136-2.7766113   c0.6515512,0.1536865,1.3357553,0.255127,2.0260019,0.255127c3.1416016,0,5.6547852-1.5087891,5.7602539-1.5727539   c0.1489258-0.0908203,0.2397461-0.2529297,0.2397461-0.4272461S23.9091816,17.65625,23.7602558,17.5654297z" fill="#303C42"/>
<path d="M17.4389668,11.125c1.9638672-1.7856445,4.0878906-2.5927734,5.2504883-2.9272461   c-0.5698242,1.3291016-1.8857422,3.9101562-4.0996094,5.6386719c-1.8334961,1.4316406-4.1552744,2.3510742-5.5317392,2.8134766   C13.875001,15.2973633,15.4511728,12.9321289,17.4389668,11.125z" fill="#69B342"/>
<path d="M10.000001,8.9926758c0-3.3120117,1.3081055-6.2016602,2-7.4990234   c0.6918945,1.2973633,2,4.1870117,2,7.4990234c0,3.1842041-1.2039795,5.9627075-1.9121094,7.3264771   c-0.02948,0.0498657-0.06073,0.1020508-0.0878906,0.1486206c-0.0271606-0.0465698-0.0584106-0.0987549-0.0878906-0.1486206   C11.2039804,14.9553833,10.000001,12.1768799,10.000001,8.9926758z" fill="#69B342"/>
<path d="M12.000001,1.4936523c-0.6918945,1.2973633-2,4.1870117-2,7.4990234   c0,3.1842041,1.2039795,5.9627075,1.9121094,7.3264771c0.0068359,0.0115356,0.0133667,0.0227051,0.0203247,0.0344238   c-0.5425415-1.045105-1.4650879-3.1743164-1.4650879-5.6141968c0-2.5380859,1.0024414-4.7525024,1.5326538-5.7467041   c0.5302124,0.9942017,1.5326538,3.2086182,1.5326538,5.7467041c0,2.4398804-0.9225464,4.5690918-1.4650879,5.6141968   c0.006958-0.0117188,0.0134888-0.0228882,0.0203247-0.0344238c0.7081299-1.3637695,1.9121094-4.1422729,1.9121094-7.3264771   C14.000001,5.6806641,12.6918955,2.7910156,12.000001,1.4936523z" fill="#FFFFFF" opacity="0.2"/>
<path d="M1.3115244,8.1982422C2.474122,8.5327148,4.5976572,9.3398438,6.5610361,11.125   c1.9853516,1.8046875,3.5625,4.1713867,4.3803711,5.5244141c-1.3764648-0.4624023-3.6977539-1.3818359-5.53125-2.8129883   C3.2011728,12.1118164,1.8828135,9.5288086,1.3115244,8.1982422z" fill="#69B342"/>
<path d="M6.6671762,14.6000977C4.960206,13.34375,3.9414682,11.4619751,3.500001,10.4926758   c0.8983765,0.2436523,2.5393066,0.831665,4.0565186,2.1321411c1.5341797,1.3147583,2.7528687,3.0388794,3.3848877,4.0245972   C10.1235361,15.2963867,8.5463877,12.9296875,6.5610361,11.125C4.5976572,9.3398438,2.474122,8.5327148,1.3115244,8.1982422   c0.5712891,1.3305664,1.8896484,3.9135742,4.0986328,5.6381836c0.8702393,0.6792603,1.8491821,1.239624,2.7860107,1.6941528   C7.671998,15.2611694,7.1477671,14.9537964,6.6671762,14.6000977z" fill="#FFFFFF" opacity="0.2"/>
<path d="M1.6103525,17.9897461c0.9379883-0.4199219,2.559082-0.9970703,4.3896484-0.9970703   c1.8129883,0,3.6181641,0.3725586,4.730957,0.6572266c-1.081543,0.5639648-2.9057617,1.3427734-4.730957,1.3427734   C4.1933603,18.9926758,2.5576181,18.4111328,1.6103525,17.9897461z" fill="#69B342"/>
<path d="M3.000001,18.2404785c0.7950439-0.3149414,2.1691895-0.7478027,3.7208252-0.7478027   c1.3099365,0,2.592041,0.2020874,3.532959,0.3942871c0.1705933-0.0812378,0.331665-0.1611938,0.4771729-0.2370605   c-1.112793-0.284668-2.9179688-0.6572266-4.730957-0.6572266c-1.8305664,0-3.4516602,0.5771484-4.3896484,0.9970703   c0.9472656,0.4213867,2.5830078,1.0029297,4.3896484,1.0029297c0.1359253,0,0.2712402-0.0123291,0.4068604-0.0205688   C5.0043344,18.9175415,3.7463999,18.5342407,3.000001,18.2404785z" fill="#FFFFFF" opacity="0.2"/>
<path d="M17.3328266,14.6000977c1.7069702-1.2563477,2.725708-3.1381226,3.1671753-4.1074219   c-0.8983765,0.2436523-2.5393066,0.831665-4.0565186,2.1321411c-1.5341806,1.3147583-2.7528696,3.0388794-3.3848886,4.0245972   c0.8178711-1.3530273,2.3950195-3.7197266,4.380372-5.5244141c1.9633789-1.7851562,4.0869141-2.5922852,5.2495117-2.9267578   c-0.5712891,1.3305664-1.8896484,3.9135742-4.0986328,5.6381836c-0.8702393,0.6792603-1.8491821,1.239624-2.7860117,1.6941528   C16.3280048,15.2611694,16.8522358,14.9537964,17.3328266,14.6000977z" fill="#FFFFFF" opacity="0.2"/>
<path d="M21.0000019,18.2404785c-0.7950439-0.3149414-2.1691895-0.7478027-3.7208252-0.7478027   c-1.3099375,0-2.592042,0.2020874-3.5329599,0.3942871c-0.1705933-0.0812378-0.331665-0.1611938-0.4771729-0.2370605   c1.112793-0.284668,2.9179697-0.6572266,4.730958-0.6572266c1.8305664,0,3.4516602,0.5771484,4.3896484,0.9970703   c-0.9472656,0.4213867-2.5830078,1.0029297-4.3896484,1.0029297c-0.1359253,0-0.2712402-0.0123291-0.4068604-0.0205688   C18.9956684,18.9175415,20.253603,18.5342407,21.0000019,18.2404785z" fill="#FFFFFF" opacity="0.2"/>
<path d="M10.1220713,20.1655273c-0.6630859,0.765625-1.4541016,1.2543945-2.0200195,1.5356445   c0.137207-0.5361328,0.4570312-1.2529297,1.1977539-1.8085938c0.7509766-0.5629883,1.359375-0.9829102,1.8222656-1.2861328   C10.9135752,19.0673828,10.5971689,19.6162109,10.1220713,20.1655273z" fill="#69B342"/>
<path d="M13.8779306,20.1655273c-0.4716797-0.5449219-0.7875977-1.0942383-0.996582-1.5566406   c0.4628906,0.3027344,1.0698242,0.722168,1.8188477,1.2836914c0.7446289,0.5585938,1.0639648,1.2753906,1.2001953,1.8120117   C15.3359385,21.4248047,14.5458994,20.9370117,13.8779306,20.1655273z" fill="#69B342"/>
<path d="M18.0000019,18.9926758c-1.8012695,0-3.6342783-0.7802734-4.7246103-1.3452148   c1.1123047-0.2836914,2.9121103-0.6547852,4.7246103-0.6547852c1.8276367,0,3.4550781,0.5800781,4.3945312,1.0004883   C21.4570332,18.4135742,19.833498,18.9926758,18.0000019,18.9926758z" fill="#69B342"/>
<linearGradient gradientUnits="userSpaceOnUse" id="SVGID_1_" x1="0.1649517" x2="23.9852295" y1="7.0277262" y2="18.1353035">
<stop offset="0" style="stop-color:#FFFFFF;stop-opacity:0.2"/>
<stop offset="1" style="stop-color:#FFFFFF;stop-opacity:0"/>
</linearGradient>
<path d="M23.7602558,17.5654297c-0.1054688-0.0639648-2.6186523-1.5727539-5.7602539-1.5727539   c-0.3234863,0-0.6445312,0.0128174-0.9620361,0.0322876c0.7371826-0.4002686,1.4799194-0.8638306,2.1671143-1.4004517   c3.3183594-2.5908203,4.7128906-6.7998047,4.7705078-6.9775391c0.0532227-0.1645508,0.0180664-0.3452148-0.09375-0.4775391   c-0.1123047-0.1313477-0.2822266-0.1923828-0.4555664-0.1713867c-0.1435547,0.0214844-3.5458984,0.5561523-6.6601562,3.3867188   c-0.8416147,0.7651367-1.6035166,1.6148071-2.2730112,2.4495239c0.296875-1.1581421,0.506897-2.4572144,0.506897-3.8416138   c0-4.7885742-2.4765625-8.6142578-2.5820312-8.7744141c-0.1845703-0.28125-0.6513672-0.28125-0.8359375,0   C11.4765635,0.378418,9.000001,4.2041016,9.000001,8.9926758c0,1.3843994,0.210022,2.6834717,0.506897,3.8416138   c-0.6694946-0.8347168-1.4313965-1.6843872-2.2730103-2.4495239C4.1196299,7.5541992,0.7172861,7.0195312,0.5737314,6.9980469   C0.4033213,6.9770508,0.230958,7.0380859,0.118165,7.1694336c-0.1118164,0.1323242-0.1469727,0.3129883-0.09375,0.4775391   c0.0576172,0.1777344,1.4521484,4.3867188,4.7705078,6.9775391c0.6871948,0.5366211,1.4299316,1.0001831,2.1671143,1.4004517   c-0.3175049-0.0194702-0.6385498-0.0322876-0.9620361-0.0322876c-3.1416016,0-5.6547852,1.5087891-5.7602539,1.5727539   c-0.1494141,0.0913086-0.2402344,0.2539062-0.2397461,0.4287109c0.0004883,0.175293,0.0927734,0.3374023,0.2426758,0.4272461   c0.1069336,0.0639648,2.6542969,1.5712891,5.7573242,1.5712891c0.6921387,0,1.3742676-0.0994263,2.0223389-0.2503662   c-1.0606689,1.2492676-1.0251465,2.6998901-1.0218506,2.7718506c0.0068359,0.1538086,0.0839844,0.2963867,0.2094727,0.3857422   c0.0854492,0.0610352,0.1870117,0.0927734,0.2900391,0.0927734c0.0478516,0,0.0957031-0.0068359,0.1425781-0.0205078   c0.0751953-0.0224609,1.8642578-0.5678711,3.2353516-2.1523438c0.2457886-0.2839966,0.4439697-0.5654907,0.6220703-0.8417969   v3.5146484c0,0.2763672,0.2236328,0.5,0.5,0.5s0.5-0.2236328,0.5-0.5v-3.5146484   c0.1781006,0.2763062,0.3762817,0.5578003,0.6220703,0.8417969c1.3710938,1.5844727,3.1601572,2.1298828,3.2353525,2.1523438   c0.046875,0.0136719,0.0947266,0.0205078,0.1425781,0.0205078c0.1030273,0,0.2045898-0.0317383,0.2900391-0.0927734   c0.1254883-0.0893555,0.2026367-0.2319336,0.2094727-0.3857422c0.0032959-0.0720215,0.0392456-1.5263672-1.0255136-2.7766113   c0.6515512,0.1536865,1.3357553,0.255127,2.0260019,0.255127c3.1416016,0,5.6547852-1.5087891,5.7602539-1.5727539   c0.1489258-0.0908203,0.2397461-0.2529297,0.2397461-0.4272461S23.9091816,17.65625,23.7602558,17.5654297z" fill="url(#SVGID_1_)"/>
</g>
<g/>
<g/>
<g/>
<g/>
<g/>
<g/>
<g/>
<g/>
<g/>
<g/>
<g/>
<g/>
<g/>
<g/>
<g/>
</svg>