<?xml version="1.0" ?><!-- Uploaded to: SVG Repo, www.svgrepo.com, Generator: SVG Repo Mixer Tools -->
<svg width="800px" height="800px" viewBox="0 0 24 24" data-name="Layer 1" id="Layer_1" xmlns="http://www.w3.org/2000/svg"><title/><rect height="3" rx="1" ry="1" style="fill:#b3c1c9" width="20" x="2" y="10"/><path d="M16.5,13.3695H6v4.7256a1.9998,1.9998,0,0,0,.8313,1.623L9.4764,21.623A2.00032,2.00032,0,0,0,10.6452,22h2.7096a2.00032,2.00032,0,0,0,1.1688-.377l2.6451-1.9049A1.99981,1.99981,0,0,0,18,18.0951V13.3695Z" style="fill:#4eba94"/><path d="M16,14H8v6a1,1,0,0,0,.4.8l1.3333,1a1.00031,1.00031,0,0,0,.6.2h3.3334a1.0003,1.0003,0,0,0,.6-.2l1.3333-1A1,1,0,0,0,16,20Z" style="fill:#67c7a5"/><path d="M17,17H7a2.99994,2.99994,0,0,1-3-3V6a3.9806,3.9806,0,0,1,.5937-2.0979C5.2981,2.7607,6.5602,3,8,3h8c1.4325,0,2.6891-.247,3.3956.8848A3.98059,3.98059,0,0,1,20,6v8A2.99994,2.99994,0,0,1,17,17Z" style="fill:#67c7a5"/><circle cx="9" cy="11" r="2.5" style="fill:#fff"/><circle cx="15" cy="11" r="2.5" style="fill:#fff"/><circle cx="15" cy="11" r="0.75" style="fill:#738394"/><circle cx="9" cy="11" r="0.75" style="fill:#738394"/><path d="M13,19H11a1,1,0,0,1-1-1h0a1,1,0,0,1,1-1h2a1,1,0,0,1,1,1h0A1,1,0,0,1,13,19Z" style="fill:#40997a"/><rect height="3" style="fill:#67c7a5" width="16" x="4" y="8"/><rect height="3" style="fill:#fff4ab" width="1" x="7" y="6"/><rect height="3" style="fill:#fff4ab" width="1" x="10" y="6"/><rect height="3" style="fill:#fff4ab" width="1" x="13" y="6"/><rect height="1" style="fill:#fff4ab" width="9" x="6" y="7"/><path d="M4.5547,4,6,5,8,4l2,1,2-1,2,1,1.9996-1L18,5l1.4453-1A3.98315,3.98315,0,0,0,16,2H8A3.98316,3.98316,0,0,0,4.5547,4Z" style="fill:#4b5661"/></svg>