<?xml version="1.0" encoding="iso-8859-1"?>
<!-- Generator: Adobe Illustrator 19.0.0, SVG Export Plug-In . SVG Version: 6.00 Build 0)  -->
<svg version="1.1" id="Capa_1" xmlns="http://www.w3.org/2000/svg" xmlns:xlink="http://www.w3.org/1999/xlink" x="0px" y="0px"
	 viewBox="0 0 512.002 512.002" style="enable-background:new 0 0 512.002 512.002;" xml:space="preserve">
<path style="fill:#DFE0E0;" d="M509.64,334.738c-1.868-5.132-4.704-9.629-8.223-13.37c9.545-10.38,13.12-25.587,7.964-39.753
	c-2.936-8.066-8.261-14.568-14.881-19.013c8.889-10.343,12.091-25.049,7.094-38.777c-7.366-20.237-29.741-30.67-49.978-23.305
	c-6.956,2.532-12.754,6.838-17.069,12.22c-19.61,25.538-70.432,69.381-124.838,89.183c-31.492,11.462-47.729,46.283-36.267,77.775
	c7.979,21.922,27.281,36.439,48.897,39.378l0.001,0.01c0.36,0.047,0.735,0.087,1.106,0.128c2.007,0.235,4.032,0.372,6.069,0.404
	c0.152,0.004,0.304,0.009,0.457,0.012c0.171,0.001,0.341,0.007,0.512,0.007c40.519,0.693,123.607-23.188,155.85-34.923
	C506.571,377.35,517.005,354.974,509.64,334.738z"/>
<path style="opacity:0.05;enable-background:new    ;" d="M323.69,296.278c-4.622,2.039-9.286,3.937-13.979,5.645
	c-31.492,11.462-47.729,46.283-36.267,77.775c7.979,21.922,27.281,36.439,48.897,39.378l0.001,0.01
	c0.36,0.047,0.735,0.087,1.106,0.128c2.007,0.235,4.032,0.372,6.069,0.404c0.152,0.004,0.304,0.009,0.457,0.012
	c0.17,0.001,0.341,0.007,0.512,0.007c17.322,0.296,42.424-3.9,68.007-9.717C308.77,406.235,315.356,325.138,323.69,296.278z"/>
<path style="opacity:0.1;enable-background:new    ;" d="M384.87,344.219c-1.417-3.892-5.72-5.896-9.613-4.482
	c-3.893,1.417-5.899,5.721-4.482,9.613c4.862,13.359,4.231,27.813-1.776,40.698c-6.009,12.885-16.675,22.659-30.035,27.522
	c-2.393,0.871-4.823,1.559-7.271,2.078c10.32,0.054,23.232-1.399,37.29-3.792c5.569-5.567,10.184-12.12,13.611-19.469
	C390.294,379.87,391.103,361.344,384.87,344.219z"/>
<path style="opacity:0.1;enable-background:new    ;" d="M403.349,328.347c-3.064,0-5.94-1.892-7.049-4.936
	c-1.417-3.893,0.591-8.196,4.482-9.613c5.152-1.875,7.818-7.592,5.943-12.743c-0.908-2.496-2.734-4.489-5.142-5.611
	c-2.407-1.122-5.107-1.242-7.603-0.332c-3.894,1.414-8.197-0.592-9.613-4.482c-1.417-3.893,0.591-8.196,4.482-9.613
	c6.263-2.278,13.035-1.982,19.073,0.833c6.038,2.816,10.618,7.814,12.897,14.075c2.278,6.261,1.983,13.034-0.833,19.072
	s-7.814,10.618-14.075,12.897C405.066,328.2,404.2,328.347,403.349,328.347z"/>
<path style="opacity:0.1;enable-background:new    ;" d="M450.882,365.107c-3.064,0-5.94-1.892-7.049-4.937
	c-1.417-3.892,0.591-8.196,4.482-9.613c5.152-1.875,7.817-7.592,5.942-12.744c-0.908-2.496-2.733-4.488-5.141-5.61
	c-2.407-1.122-5.107-1.242-7.602-0.332c-3.894,1.413-8.197-0.592-9.613-4.482c-1.417-3.893,0.591-8.196,4.482-9.613
	c6.263-2.278,13.035-1.982,19.073,0.833c6.038,2.816,10.618,7.815,12.897,14.075c4.704,12.924-1.983,27.266-14.907,31.97
	C452.6,364.961,451.733,365.107,450.882,365.107z"/>
<path style="fill:#DFE0E0;" d="M2.364,334.738c1.868-5.132,4.704-9.629,8.223-13.37c-9.545-10.38-13.12-25.587-7.964-39.753
	c2.936-8.066,8.261-14.568,14.881-19.013c-8.889-10.343-12.091-25.049-7.094-38.777c7.366-20.237,29.741-30.67,49.978-23.305
	c6.956,2.532,12.754,6.838,17.069,12.22c19.61,25.538,70.432,69.381,124.838,89.183c31.492,11.462,47.729,46.283,36.267,77.775
	c-7.979,21.922-27.281,36.439-48.897,39.378l-0.001,0.01c-0.36,0.047-0.735,0.087-1.106,0.128c-2.007,0.235-4.032,0.372-6.069,0.404
	c-0.152,0.004-0.304,0.009-0.457,0.012c-0.171,0.001-0.341,0.007-0.512,0.007c-40.519,0.693-123.607-23.188-155.85-34.923
	C5.433,377.35-5.001,354.974,2.364,334.738z"/>
<path style="opacity:0.1;enable-background:new    ;" d="M86.719,223.63c-3.578-3.879-6.695-7.544-9.264-10.889
	c-4.315-5.383-10.113-9.688-17.069-12.22c-20.237-7.365-42.612,3.068-49.978,23.305c-4.997,13.728-1.795,28.434,7.094,38.777
	c-6.62,4.445-11.945,10.947-14.881,19.013c-5.156,14.166-1.581,29.373,7.964,39.753c-3.519,3.74-6.355,8.238-8.223,13.37
	c-7.365,20.237,3.069,42.612,23.305,49.978c21.495,7.824,65.587,21.043,104.599,28.783C74.99,370.841,74.711,271.954,86.719,223.63z
	"/>
<path style="opacity:0.1;enable-background:new    ;" d="M173.041,417.569c-13.36-4.862-24.026-14.637-30.035-27.522
	c-6.008-12.886-6.639-27.339-1.776-40.698c1.417-3.893-0.59-8.196-4.482-9.613c-3.893-1.415-8.197,0.591-9.613,4.482
	c-6.232,17.125-5.424,35.651,2.277,52.168c3.427,7.349,8.042,13.902,13.611,19.469c14.06,2.393,26.972,3.846,37.292,3.792
	C177.865,419.128,175.435,418.441,173.041,417.569z"/>
<path style="opacity:0.1;enable-background:new    ;" d="M108.655,328.347c-0.851,0-1.717-0.146-2.564-0.454
	c-6.261-2.279-11.259-6.859-14.075-12.897c-2.815-6.038-3.111-12.812-0.833-19.072c2.279-6.261,6.859-11.259,12.897-14.075
	c6.039-2.815,12.813-3.112,19.073-0.833c3.892,1.417,5.899,5.721,4.482,9.613c-1.417,3.891-5.717,5.896-9.613,4.482
	c-2.495-0.91-5.195-0.792-7.603,0.332c-2.407,1.122-4.233,3.115-5.142,5.611c-1.875,5.151,0.791,10.868,5.943,12.743
	c3.892,1.417,5.899,5.721,4.482,9.613C114.596,326.455,111.719,328.347,108.655,328.347z"/>
<path style="opacity:0.1;enable-background:new    ;" d="M61.122,365.107c-0.852,0-1.717-0.147-2.564-0.454
	c-12.924-4.704-19.611-19.046-14.907-31.971c2.278-6.26,6.858-11.259,12.897-14.074s12.812-3.112,19.073-0.833
	c3.892,1.417,5.899,5.721,4.482,9.613c-1.417,3.891-5.717,5.896-9.613,4.482c-2.495-0.91-5.195-0.791-7.603,0.332
	c-2.407,1.122-4.232,3.114-5.141,5.609c-1.875,5.153,0.79,10.87,5.942,12.745c3.892,1.417,5.899,5.721,4.482,9.613
	C67.062,363.216,64.186,365.107,61.122,365.107z"/>
<path style="fill:#FBE067;" d="M256.002,207.915c-34.038,0-66.283-4.511-90.795-12.7c-39.066-13.053-47.266-31.721-47.266-45.082
	s8.2-32.029,47.266-45.082c24.512-8.189,56.757-12.7,90.795-12.7s66.283,4.511,90.795,12.7
	c39.065,13.053,47.266,31.721,47.266,45.082s-8.2,32.029-47.266,45.082C322.285,203.404,290.04,207.915,256.002,207.915z
	 M153.584,150.133c2.521,2.763,10.518,8.501,28.573,13.703c20.32,5.854,46.546,9.079,73.845,9.079s53.524-3.225,73.845-9.079
	c18.056-5.202,26.053-10.94,28.573-13.703c-2.521-2.763-10.518-8.501-28.573-13.703c-20.32-5.854-46.546-9.079-73.845-9.079
	s-53.524,3.225-73.845,9.079C164.102,141.632,156.104,147.37,153.584,150.133z"/>
<path style="opacity:0.05;enable-background:new    ;" d="M137.174,153.918c-10.771-17.507,7.22-35.951,23.803-47.381
	c-35.423,12.955-43.036,30.733-43.036,43.597c0,13.361,8.2,32.029,47.266,45.082c24.512,8.189,56.757,12.7,90.795,12.7
	c34.038,0,66.283-4.511,90.795-12.7c36.564-12.217,46.087-29.352,47.158-42.452C287.281,224.426,152.37,178.617,137.174,153.918z"/>
<g>
</g>
<g>
</g>
<g>
</g>
<g>
</g>
<g>
</g>
<g>
</g>
<g>
</g>
<g>
</g>
<g>
</g>
<g>
</g>
<g>
</g>
<g>
</g>
<g>
</g>
<g>
</g>
<g>
</g>
</svg>
