<svg xmlns="http://www.w3.org/2000/svg" data-name="Layer 1" viewBox="0 0 512 512"><g data-name="&lt;Group&gt;"><g data-name="&lt;Group&gt;"><path fill="#00efd1" d="M450.04,179.64V390.86c0,15.51-11.98,28.08-26.76,28.08H88.72c-14.78,0-26.77-12.57-26.77-28.08V179.64ZM333.98,269.51c0-9.19-14.64-17.26-36.79-21.77-1.31-.18-2.62-.56-3.94-.75l-.47.08-2.16-12.46a35.225,35.225,0,0,0-6.96-16.17,34.718,34.718,0,0,0-13.87-10.67,35.138,35.138,0,0,0-48.6,26.84l-2.13,12.28-.5-.09c-1.5.38-3,.57-4.5.94-21.59,4.51-36.04,12.58-36.04,21.58,0,6.16,6.72,11.85,17.87,16.31v32.14l-3.52-.3,3.52,5.34v37.06a12.665,12.665,0,0,0,5.9,10.7l47.45,29.97a12.651,12.651,0,0,0,13.52,0l47.45-29.97a12.665,12.665,0,0,0,5.9-10.7V322.81l3.52-5.34-3.52.3v-32C327.27,281.35,333.98,275.68,333.98,269.51Z" data-name="&lt;Group&gt;"/><path fill="#00acea" d="M450.04 121.14v58.5H61.95v-58.5c0-15.51 11.99-28.08 26.77-28.08H423.28C438.06 93.06 450.04 105.63 450.04 121.14zM235.93 135.18c0-10.34-7.99-18.72-17.85-18.72s-17.84 8.38-17.84 18.72 7.99 18.72 17.84 18.72S235.93 145.52 235.93 135.18zm-57.99 0c0-10.34-7.99-18.72-17.85-18.72s-17.84 8.38-17.84 18.72 7.99 18.72 17.84 18.72S177.94 145.52 177.94 135.18zm-58 0c0-10.34-7.98-18.72-17.84-18.72s-17.84 8.38-17.84 18.72 7.99 18.72 17.84 18.72S119.94 145.52 119.94 135.18zM195.89 285.63c-11.15-4.46-17.87-10.15-17.87-16.31 0-9 14.45-17.07 36.04-21.58 1.5-.37 3-.56 4.5-.94l.5.09-2.19 12.67 11.45 3.57a89.345 89.345 0 0 0 55.17 0l11.45-3.57-2.16-12.49.47-.08c1.32.19 2.63.57 3.94.75 22.15 4.51 36.79 12.58 36.79 21.77 0 6.17-6.71 11.84-17.87 16.26-14.29 5.66-35.88 9.27-60.02 9.27C231.91 295.04 210.23 291.36 195.89 285.63z" data-name="&lt;Group&gt;"/><path fill="#fedb41" d="M316.11,322.81v37.06a12.665,12.665,0,0,1-5.9,10.7l-47.45,29.97a12.651,12.651,0,0,1-13.52,0l-47.45-29.97a12.665,12.665,0,0,1-5.9-10.7V322.81l20.95,31.78,30.3-32.48-.15-.01c6.58-5.08,11.44-5.08,18.02,0l-.15.01,30.3,32.48Z" data-name="&lt;Group&gt;"/><polygon fill="#00acea" points="265.01 322.1 316.11 317.77 316.11 322.81 295.16 354.59 264.86 322.11 265.01 322.1" data-name="&lt;Group&gt;"/><path fill="#fedb41" d="M316.11 285.77v32l-51.1 4.33c-6.58-5.08-11.44-5.08-18.02 0l-51.1-4.33V285.63c14.34 5.73 36.02 9.41 60.2 9.41C280.23 295.04 301.82 291.43 316.11 285.77zM292.78 247.07l2.16 12.49-11.45 3.57a89.345 89.345 0 0 1-55.17 0l-11.45-3.57 2.19-12.67 2.13-12.28a35.255 35.255 0 0 1 48.6-26.84 34.718 34.718 0 0 1 13.87 10.67 35.225 35.225 0 0 1 6.96 16.17z" data-name="&lt;Group&gt;"/><polygon fill="#00acea" points="246.99 322.1 247.14 322.11 216.84 354.59 195.89 322.81 195.89 317.77 246.99 322.1" data-name="&lt;Group&gt;"/><path fill="#00efd1" d="M218.08 116.46c9.86 0 17.85 8.38 17.85 18.72s-7.99 18.72-17.85 18.72-17.84-8.38-17.84-18.72S208.23 116.46 218.08 116.46zM160.09 116.46c9.86 0 17.85 8.38 17.85 18.72s-7.99 18.72-17.85 18.72-17.84-8.38-17.84-18.72S150.24 116.46 160.09 116.46z" data-name="&lt;Group&gt;"/><ellipse cx="102.1" cy="135.18" fill="#00efd1" data-name="&lt;Group&gt;" rx="17.84" ry="18.72"/></g><g data-name="&lt;Group&gt;"><path fill="#083863" d="M423.28,86H88.72C70.1,86,55,101.8,55,121.14V390.86C55,410.2,70.1,426,88.72,426H423.28C441.9,426,457,410.2,457,390.86V179.737c0-.033,0-.064,0-.1s0-.064,0-.1v-58.4C457,101.8,441.9,86,423.28,86ZM88.72,100H423.28c10.9,0,19.72,9.517,19.72,21.14V173H69V121.14C69,109.517,77.818,100,88.72,100ZM423.28,412H88.72C77.818,412,69,402.483,69,390.86V187H443V390.86C443,402.483,434.176,412,423.28,412Z" data-name="&lt;Compound Path&gt;"/><path fill="#083863" d="M160.09 160.9c13.7 0 24.85-11.538 24.85-25.72s-11.147-25.72-24.85-25.72S135.25 121 135.25 135.18 146.394 160.9 160.09 160.9zm0-37.44c5.983 0 10.85 5.258 10.85 11.72s-4.867 11.72-10.85 11.72-10.84-5.257-10.84-11.72S154.112 123.46 160.09 123.46zM218.08 160.9c13.7 0 24.85-11.538 24.85-25.72s-11.148-25.72-24.85-25.72S193.24 121 193.24 135.18 204.384 160.9 218.08 160.9zm0-37.44c5.982 0 10.85 5.258 10.85 11.72s-4.868 11.72-10.85 11.72-10.84-5.257-10.84-11.72S212.1 123.46 218.08 123.46zM102.1 160.9c13.7 0 24.84-11.538 24.84-25.72S115.8 109.46 102.1 109.46 77.26 121 77.26 135.18 88.4 160.9 102.1 160.9zm0-37.44c5.977 0 10.84 5.258 10.84 11.72s-4.863 11.72-10.84 11.72-10.84-5.257-10.84-11.72S96.122 123.46 102.1 123.46zM298.82 240.93l-1.294-7.461a42.386 42.386 0 0 0-8.338-19.324 41.853 41.853 0 0 0-16.666-12.819 42.137 42.137 0 0 0-58.237 32.137l-1.27 7.339c-.169.038-.33.069-.5.111-26.758 5.609-41.438 15.7-41.438 28.407 0 5.8 2.925 13.908 17.925 20.885v21.211a7.311 7.311 0 0 0-2.591 2.476 7 7 0 0 0 .2 7.43L189 324.909V359.87a19.513 19.513 0 0 0 9.107 16.618l47.422 29.97a19.711 19.711 0 0 0 20.976 0L313.9 376.487A19.508 19.508 0 0 0 323 359.87V324.909l2.419-3.587a7 7 0 0 0 .145-7.43A7.228 7.228 0 0 0 323 311.416V290.361c15-6.925 17.925-15.038 17.925-20.851C340.925 256.651 326.009 246.507 298.82 240.93zm-70.733-5.123c.007-.035.013-.07.017-.1a28.315 28.315 0 0 1 16.648-21.488 29.228 29.228 0 0 1 22.305 0 27.821 27.821 0 0 1 11.071 8.515 28.349 28.349 0 0 1 5.576 12.963c.006.038.013.076.019.114l3.274 18.9-5.659 1.764a81.86 81.86 0 0 1-50.935-.022l-5.59-1.743zm38.8 79.1c-7.406-4.776-14.384-4.776-21.79 0L203 311.337V295.389c15 4.268 33.479 6.651 53.09 6.651 19.574 0 37.91-2.344 52.91-6.543v15.84zm38.962 10.753l-11.633 17.646-14.4-15.44zm-73.652 2.206l-14.4 15.44-11.633-17.646zm74.225 36.78l-47.424 29.972a5.656 5.656 0 0 1-6.028 0l-47.386-29.969A5.575 5.575 0 0 1 203 359.87V346.147l8.05 12.3a6.951 6.951 0 0 0 5.231 3.123c.2.017.378.025.574.025a6.984 6.984 0 0 0 5.11-2.225L252.2 326.948c3.07-2.207 4.531-2.207 7.6 0l30.24 32.417a7 7 0 0 0 5.117 2.225q.292 0 .587-.025a6.9 6.9 0 0 0 5.2-3.123l8.05-12.3V359.87A5.58 5.58 0 0 1 306.417 364.651zm7.115-85.389c-14.084 5.578-35.02 8.778-57.442 8.778s-43.431-3.248-57.6-8.91c-9.883-3.953-13.469-8.032-13.469-9.81 0-2.415 6.53-8.843 25.405-13.565l-.452 2.613a7 7 0 0 0 4.814 7.875l11.361 3.541a95.63 95.63 0 0 0 59.425.028l11.45-3.569a7 7 0 0 0 4.815-7.876l-.434-2.5c19.174 4.737 25.576 11.089 25.576 13.647C326.98 271.289 323.4 275.354 313.532 279.262z" data-name="&lt;Compound Path&gt;"/></g></g></svg>