<svg height="512pt" viewBox="0 -61 512 511" width="512pt" xmlns="http://www.w3.org/2000/svg"><path d="m256 124.085938v52.964843c-.027344 9.738281-7.917969 17.628907-17.65625 17.65625h-44.136719c-9.738281-.027343-17.625-7.917969-17.65625-17.65625v-61.792969c-.457031-9.496093 3.113281-18.746093 9.839844-25.472656 6.722656-6.722656 15.972656-10.296875 25.472656-9.835937 11.714844-.035157 22.960938 4.601562 31.246094 12.886719 8.285156 8.285156 12.925781 19.535156 12.890625 31.25zm0 0" fill="#fac176"/><path d="m176.550781 123.113281v45.109375c-.027343 9.738282-7.914062 17.628906-17.652343 17.65625h-35.3125c-9.738282-.027344-17.625-7.917968-17.65625-17.65625v-52.964844c-.40625-8.453124 2.773437-16.683593 8.757812-22.667968s14.214844-9.164063 22.667969-8.757813c10.414062-.003906 20.398437 4.140625 27.75 11.507813 7.355469 7.371094 11.472656 17.363281 11.445312 27.773437zm0 0" fill="#fac176"/><path d="m105.929688 122.144531v37.253907c-.027344 9.738281-7.914063 17.625-17.652344 17.652343h-26.484375c-9.738281-.027343-17.625-7.914062-17.65625-17.652343v-44.140626c-.351563-7.382812 2.429687-14.570312 7.65625-19.796874 5.226562-5.226563 12.414062-8.007813 19.796875-7.65625 18.964844.011718 34.332031 15.378906 34.339844 34.339843zm0 0" fill="#fac176"/><path d="m44.136719 122.761719v32.042969c.179687 2.335937-1.550781 4.382812-3.882813 4.59375h-13.769531c-9.738281-.03125-17.628906-7.917969-17.65625-17.65625v-23.570313c-.5-4.542969.90625-9.085937 3.886719-12.550781 2.976562-3.464844 7.261718-5.535156 11.824218-5.722656 5.390626.0625 10.46875 2.523437 13.859376 6.710937 3.757812 4.539063 5.789062 10.261719 5.738281 16.152344zm0 0" fill="#fac176"/><path d="m512 53.464844v61.792968c0 4.875-3.953125 8.828126-8.828125 8.828126v-5.914063c.5-4.542969-.90625-9.085937-3.886719-12.550781-2.976562-3.464844-7.261718-5.535156-11.824218-5.722656-5.390626.0625-10.46875 2.523437-13.859376 6.710937-3.757812 4.539063-5.789062 10.261719-5.738281 16.152344v-7.503907c.351563-7.382812-2.429687-14.570312-7.65625-19.796874-5.226562-5.226563-12.414062-8.007813-19.796875-7.65625-18.964844.011718-34.332031 15.378906-34.339844 34.339843v-6.886719c.40625-8.453124-2.773437-16.683593-8.757812-22.667968s-14.214844-9.164063-22.667969-8.757813c-10.414062-.003906-20.398437 4.140625-27.75 11.507813-7.355469 7.371094-11.472656 17.363281-11.445312 27.773437v-7.855469c.457031-9.496093-3.113281-18.746093-9.839844-25.472656-6.722656-6.722656-15.972656-10.296875-25.472656-9.835937-11.714844-.035157-22.960938 4.601562-31.246094 12.886719-8.285156 8.285156-12.925781 19.535156-12.890625 31.25.035156-11.714844-4.605469-22.964844-12.890625-31.25-8.285156-8.285157-19.53125-12.921876-31.246094-12.886719-9.5-.460938-18.75 3.113281-25.472656 9.835937-6.726563 6.726563-10.296875 15.976563-9.839844 25.472656v7.855469c.027344-10.410156-4.089843-20.402343-11.445312-27.773437-7.351563-7.367188-17.335938-11.511719-27.75-11.507813-8.453125-.40625-16.683594 2.773438-22.667969 8.757813s-9.164062 14.214844-8.757812 22.667968v6.886719c-.007813-18.960937-15.375-34.328125-34.339844-34.339843-7.382813-.351563-14.570313 2.429687-19.796875 7.65625-5.226563 5.226562-8.007813 12.414062-7.65625 19.796874v7.503907c.050781-5.890625-1.980469-11.613281-5.738281-16.152344-3.390626-4.1875-8.46875-6.648437-13.859376-6.710937-4.5625.1875-8.847656 2.257812-11.824218 5.722656-2.980469 3.464844-4.386719 8.007812-3.886719 12.550781v5.914063c-4.875 0-8.828125-3.953126-8.828125-8.828126v-61.792968c0-29.21875 114.582031-52.964844 256-52.964844s256 23.746094 256 52.964844zm0 0" fill="#fb7b76"/><path d="m335.449219 115.257812v61.792969c-.03125 9.738281-7.917969 17.628907-17.65625 17.65625h-44.136719c-9.738281-.027343-17.628906-7.917969-17.65625-17.65625v-52.964843c-.035156-11.714844 4.605469-22.964844 12.890625-31.25 8.285156-8.285157 19.53125-12.921876 31.246094-12.886719 9.5-.460938 18.75 3.113281 25.472656 9.835937 6.726563 6.726563 10.296875 15.976563 9.839844 25.472656zm0 0" fill="#fac176"/><path d="m406.070312 115.257812v52.964844c-.03125 9.738282-7.917968 17.628906-17.65625 17.65625h-35.3125c-9.738281-.027344-17.625-7.917968-17.652343-17.65625v-45.109375c-.027344-10.410156 4.089843-20.402343 11.445312-27.773437 7.351563-7.367188 17.335938-11.511719 27.75-11.507813 8.453125-.40625 16.683594 2.773438 22.667969 8.757813s9.164062 14.214844 8.757812 22.667968zm0 0" fill="#fac176"/><path d="m467.863281 115.257812v44.140626c-.03125 9.738281-7.917969 17.625-17.65625 17.652343h-26.484375c-9.738281-.027343-17.625-7.914062-17.652344-17.652343v-37.253907c.007813-18.960937 15.375-34.328125 34.339844-34.339843 7.382813-.351563 14.570313 2.429687 19.796875 7.65625 5.226563 5.226562 8.007813 12.414062 7.65625 19.796874zm0 0" fill="#fac176"/><path d="m503.171875 118.171875v23.570313c-.027344 9.738281-7.917969 17.625-17.65625 17.65625h-13.769531c-2.332032-.210938-4.0625-2.257813-3.882813-4.59375v-32.042969c-.050781-5.890625 1.980469-11.613281 5.738281-16.152344 3.390626-4.1875 8.46875-6.648437 13.859376-6.710937 4.5625.1875 8.847656 2.257812 11.824218 5.722656 2.980469 3.464844 4.386719 8.007812 3.886719 12.550781zm0 0" fill="#fac176"/><path d="m256 132.914062v44.136719c-.027344 9.738281-7.917969 17.628907-17.65625 17.65625h-44.136719c-9.738281-.027343-17.625-7.917969-17.65625-17.65625v-53.9375c-.234375-9.347656 3.445313-18.367187 10.148438-24.886719 6.703125-6.519531 15.824219-9.945312 25.164062-9.449218 11.714844-.035156 22.960938 4.601562 31.246094 12.886718 8.285156 8.285157 12.925781 19.53125 12.890625 31.25zm0 0" fill="#f5efca"/><path d="m176.550781 131.941406v36.28125c-.027343 9.738282-7.914062 17.628906-17.652343 17.65625h-35.3125c-9.738282-.027344-17.625-7.917968-17.65625-17.65625v-44.136718c-.40625-8.453126 2.773437-16.6875 8.757812-22.671876 5.984375-5.984374 14.214844-9.164062 22.667969-8.753906 10.414062-.003906 20.398437 4.136719 27.75 11.507813 7.355469 7.371093 11.472656 17.363281 11.445312 27.773437zm0 0" fill="#f5efca"/><path d="m105.929688 130.972656v28.425782c-.027344 9.738281-7.914063 17.625-17.652344 17.652343h-26.484375c-9.738281-.027343-17.625-7.914062-17.65625-17.652343v-35.3125c-.351563-7.382813 2.429687-14.570313 7.65625-19.800782 5.226562-5.226562 12.414062-8.003906 19.796875-7.652344 18.964844.007813 34.332031 15.378907 34.339844 34.339844zm0 0" fill="#f9eab0"/><path d="m44.136719 131.589844v23.214844c.179687 2.335937-1.550781 4.382812-3.882813 4.59375h-13.769531c-9.738281-.03125-17.628906-7.917969-17.65625-17.65625v-14.742188c-.5-4.542969.90625-9.085938 3.886719-12.550781 2.976562-3.464844 7.261718-5.539063 11.824218-5.722657 5.390626.0625 10.46875 2.523438 13.859376 6.707032 3.757812 4.542968 5.789062 10.261718 5.738281 16.15625zm0 0" fill="#f9eab0"/><path d="m335.449219 123.113281v53.9375c-.03125 9.738281-7.917969 17.628907-17.65625 17.65625h-44.136719c-9.738281-.027343-17.628906-7.917969-17.65625-17.65625v-44.136719c-.035156-11.71875 4.605469-22.964843 12.890625-31.25 8.285156-8.285156 19.53125-12.921874 31.246094-12.886718 9.339843-.496094 18.460937 2.929687 25.164062 9.449218 6.703125 6.519532 10.382813 15.539063 10.148438 24.886719zm0 0" fill="#f5efca"/><path d="m406.070312 124.085938v44.136718c-.03125 9.738282-7.917968 17.628906-17.65625 17.65625h-35.3125c-9.738281-.027344-17.625-7.917968-17.652343-17.65625v-36.28125c-.027344-10.410156 4.089843-20.402344 11.445312-27.773437 7.351563-7.371094 17.335938-11.511719 27.75-11.507813 8.453125-.410156 16.683594 2.769532 22.667969 8.753906 5.984375 5.984376 9.164062 14.21875 8.757812 22.671876zm0 0" fill="#f5efca"/><path d="m467.863281 124.085938v35.3125c-.03125 9.738281-7.917969 17.625-17.65625 17.652343h-26.484375c-9.738281-.027343-17.625-7.914062-17.652344-17.652343v-28.425782c.007813-18.960937 15.375-34.332031 34.339844-34.339844 7.382813-.351562 14.570313 2.425782 19.796875 7.652344 5.226563 5.230469 8.007813 12.417969 7.65625 19.800782zm0 0" fill="#f9eab0"/><path d="m503.171875 127v14.742188c-.027344 9.738281-7.917969 17.625-17.65625 17.65625h-13.769531c-2.332032-.210938-4.0625-2.257813-3.882813-4.59375v-23.214844c-.050781-5.894532 1.980469-11.613282 5.738281-16.15625 3.390626-4.183594 8.46875-6.644532 13.859376-6.707032 4.5625.183594 8.847656 2.257813 11.824218 5.722657 2.980469 3.464843 4.386719 8.007812 3.886719 12.550781zm0 0" fill="#f9eab0"/><g fill="#fac176"><path d="m256 258.617188v34.074218c.007812 11.3125-4.484375 22.160156-12.480469 30.160156-7.996093 7.996094-18.847656 12.484376-30.15625 12.480469h-1.5c-26.484375 0-35.3125-11.476562-35.3125-25.601562v-51.113281c0-14.136719 11.460938-25.597657 25.601563-25.597657h28.246094c14.140624 0 25.601562 11.460938 25.601562 25.597657zm0 0"/><path d="m176.550781 249.792969v35.042969c.003907 10.046874-3.984375 19.679687-11.089843 26.78125-7.101563 7.101562-16.734376 11.09375-26.78125 11.089843h-1.324219c-8.292969.566407-16.441407-2.398437-22.429688-8.167969-5.984375-5.769531-9.253906-13.800781-8.996093-22.109374v-42.636719c-.042969-6.628907 2.527343-13.003907 7.152343-17.746094 4.820313-5.027344 11.484375-7.863281 18.449219-7.855469h19.421875c14.136719 0 25.597656 11.460938 25.597656 25.601563zm0 0"/><path d="m105.929688 282.011719v8.828125c-6.210938 6.839844-15.035157 10.722656-24.273438 10.679687h-1.238281c-7.246094.484375-14.363281-2.113281-19.59375-7.160156-5.226563-5.042969-8.082031-12.058594-7.859375-19.320313v-8.828124c-.222656 7.261718 2.632812 14.277343 7.859375 19.320312 5.230469 5.046875 12.347656 7.644531 19.59375 7.160156h1.238281c9.238281.042969 18.0625-3.839844 24.273438-10.679687zm0 0"/><path d="m52.964844 234.609375v10.769531c.066406 5.894532-1.96875 11.621094-5.738282 16.152344-3.390624 4.1875-8.46875 6.644531-13.859374 6.710938-5.269532.210937-10.214844-2.550782-12.800782-7.152344-1.953125-3.375-2.960937-7.21875-2.910156-11.121094v-15.359375c.003906-9.410156 7.628906-17.035156 17.035156-17.039063h1.238282c9.40625.003907 17.03125 7.628907 17.035156 17.039063zm0 0"/><path d="m335.449219 258.617188v51.113281c0 14.125-8.828125 25.601562-35.3125 25.601562h-1.5c-11.308594.003907-22.160157-4.484375-30.15625-12.480469-7.996094-8-12.488281-18.847656-12.480469-30.160156v-34.074218c0-14.136719 11.460938-25.597657 25.601562-25.597657h28.246094c14.140625 0 25.601563 11.460938 25.601563 25.597657zm0 0"/><path d="m406.070312 249.792969v42.636719c.257813 8.308593-3.011718 16.339843-8.996093 22.109374-5.988281 5.769532-14.136719 8.734376-22.429688 8.167969h-1.324219c-10.046874.003907-19.679687-3.988281-26.78125-11.089843-7.105468-7.101563-11.09375-16.734376-11.089843-26.78125v-35.042969c0-14.140625 11.460937-25.601563 25.597656-25.601563h19.421875c6.964844-.007812 13.628906 2.828125 18.449219 7.855469 4.625 4.742187 7.195312 11.117187 7.152343 17.746094zm0 0"/><path d="m459.035156 266.210938v8.828124c.222656 7.261719-2.632812 14.277344-7.859375 19.320313-5.230469 5.046875-12.347656 7.644531-19.59375 7.160156h-1.238281c-9.238281.042969-18.0625-3.839843-24.273438-10.679687v-8.828125c6.210938 6.839843 15.035157 10.722656 24.273438 10.679687h1.238281c7.246094.484375 14.363281-2.113281 19.59375-7.160156 5.226563-5.042969 8.082031-12.058594 7.859375-19.320312zm0 0"/><path d="m494.34375 234.609375v15.359375c.050781 3.902344-.957031 7.746094-2.910156 11.121094-2.585938 4.601562-7.53125 7.363281-12.800782 7.152344-5.390624-.066407-10.46875-2.523438-13.859374-6.710938-3.769532-4.53125-5.804688-10.257812-5.738282-16.152344v-10.769531c.003906-9.410156 7.628906-17.035156 17.035156-17.039063h1.238282c9.40625.003907 17.03125 7.628907 17.035156 17.039063zm0 0"/></g><path d="m256 258.617188v25.25c.007812 11.308593-4.484375 22.15625-12.480469 30.15625-7.996093 7.996093-18.847656 12.488281-30.15625 12.480468h-1.5c-26.484375 0-35.3125-11.476562-35.3125-25.601562v-42.285156c0-14.136719 11.460938-25.597657 25.601563-25.597657h28.246094c14.140624 0 25.601562 11.460938 25.601562 25.597657zm0 0" fill="#f5efca"/><path d="m176.550781 249.792969v26.214843c.003907 10.046876-3.984375 19.679688-11.089843 26.78125-7.101563 7.101563-16.734376 11.09375-26.78125 11.089844h-1.324219c-8.292969.566406-16.441407-2.398437-22.429688-8.167968-5.984375-5.769532-9.253906-13.800782-8.996093-22.109376v-33.808593c-.042969-6.628907 2.527343-13.003907 7.152343-17.746094 4.820313-5.027344 11.484375-7.863281 18.449219-7.855469h19.421875c14.136719 0 25.597656 11.460938 25.597656 25.601563zm0 0" fill="#f5efca"/><path d="m113.082031 232.046875c-4.625 4.742187-7.195312 11.117187-7.152343 17.746094v32.21875c-6.210938 6.839843-15.035157 10.722656-24.273438 10.679687h-1.238281c-7.246094.484375-14.363281-2.113281-19.59375-7.160156-5.226563-5.042969-8.082031-12.058594-7.859375-19.320312v-25.246094c0-14.140625 11.460937-25.601563 25.601562-25.601563h10.59375c8.476563.007813 16.394532 4.246094 21.097656 11.300781 1.199219 1.648438 2.148438 3.460938 2.824219 5.382813zm0 0" fill="#f9eab0"/><path d="m52.964844 234.609375v1.941406c.066406 5.894531-1.96875 11.621094-5.738282 16.152344-3.390624 4.1875-8.46875 6.644531-13.859374 6.710937-5.269532.210938-10.214844-2.550781-12.800782-7.152343-1.953125-3.375-2.960937-7.21875-2.910156-11.121094v-6.53125c.003906-9.410156 7.628906-17.035156 17.035156-17.039063h1.238282c9.40625.003907 17.03125 7.628907 17.035156 17.039063zm0 0" fill="#f9eab0"/><path d="m335.449219 258.617188v42.285156c0 14.125-8.828125 25.601562-35.3125 25.601562h-1.5c-11.308594.007813-22.160157-4.484375-30.15625-12.480468-7.996094-8-12.488281-18.847657-12.480469-30.15625v-25.25c0-14.136719 11.460938-25.597657 25.601562-25.597657h28.246094c14.140625 0 25.601563 11.460938 25.601563 25.597657zm0 0" fill="#f5efca"/><path d="m406.070312 249.792969v33.808593c.257813 8.308594-3.011718 16.339844-8.996093 22.109376-5.988281 5.769531-14.136719 8.734374-22.429688 8.167968h-1.324219c-10.046874.003906-19.679687-3.988281-26.78125-11.089844-7.105468-7.101562-11.09375-16.734374-11.089843-26.78125v-26.214843c0-14.140625 11.460937-25.601563 25.597656-25.601563h19.421875c6.964844-.007812 13.628906 2.828125 18.449219 7.855469 4.625 4.742187 7.195312 11.117187 7.152343 17.746094zm0 0" fill="#f5efca"/><path d="m459.035156 240.964844v25.246094c.222656 7.261718-2.632812 14.277343-7.859375 19.320312-5.230469 5.046875-12.347656 7.644531-19.59375 7.160156h-1.238281c-9.238281.042969-18.0625-3.839844-24.273438-10.679687v-32.21875c.042969-6.628907-2.527343-13.003907-7.152343-17.746094.675781-1.921875 1.625-3.734375 2.824219-5.382813 4.703124-7.054687 12.621093-11.292968 21.097656-11.300781h10.59375c6.789062 0 13.300781 2.699219 18.101562 7.5 4.800782 4.800781 7.5 11.3125 7.5 18.101563zm0 0" fill="#f9eab0"/><path d="m494.34375 234.609375v6.53125c.050781 3.902344-.957031 7.746094-2.910156 11.121094-2.585938 4.601562-7.53125 7.363281-12.800782 7.152343-5.390624-.066406-10.46875-2.523437-13.859374-6.710937-3.769532-4.53125-5.804688-10.257813-5.738282-16.152344v-1.941406c.003906-9.410156 7.628906-17.035156 17.035156-17.039063h1.238282c9.40625.003907 17.03125 7.628907 17.035156 17.039063zm0 0" fill="#f9eab0"/><path d="m503.171875 269.566406v68.234375c0 28.160157-110.609375 51.113281-247.171875 51.113281s-247.171875-22.953124-247.171875-51.113281v-68.234375c.003906-2.261718.910156-4.429687 2.519531-6.019531 1.605469-1.589844 3.78125-2.476563 6.042969-2.457031h3.175781c2.585938 4.601562 7.53125 7.363281 12.800782 7.152344 5.390624-.066407 10.46875-2.523438 13.859374-6.710938 3.769532-4.53125 5.804688-10.257812 5.738282-16.152344v29.660156c-.222656 7.261719 2.632812 14.277344 7.859375 19.320313 5.230469 5.046875 12.347656 7.644531 19.59375 7.160156h1.238281c9.238281.042969 18.0625-3.839843 24.273438-10.679687v1.589844c-.257813 8.308593 3.011718 16.339843 8.996093 22.109374 5.988281 5.769532 14.136719 8.734376 22.429688 8.167969h1.324219c10.046874.003907 19.679687-3.988281 26.78125-11.089843 7.105468-7.101563 11.09375-16.734376 11.089843-26.78125v24.894531c0 14.125 8.828125 25.601562 35.3125 25.601562h1.5c11.308594.003907 22.160157-4.484375 30.15625-12.480469 7.996094-8 12.488281-18.847656 12.480469-30.160156-.007812 11.3125 4.484375 22.160156 12.480469 30.160156 7.996093 7.996094 18.847656 12.484376 30.15625 12.480469h1.5c26.484375 0 35.3125-11.476562 35.3125-25.601562v-24.894531c-.003907 10.046874 3.984375 19.679687 11.089843 26.78125 7.101563 7.101562 16.734376 11.09375 26.78125 11.089843h1.324219c8.292969.566407 16.441407-2.398437 22.429688-8.167969 5.984375-5.769531 9.253906-13.800781 8.996093-22.109374v-1.589844c6.210938 6.839844 15.035157 10.722656 24.273438 10.679687h1.238281c7.246094.484375 14.363281-2.113281 19.59375-7.160156 5.226563-5.042969 8.082031-12.058594 7.859375-19.320313v-29.660156c-.066406 5.894532 1.96875 11.621094 5.738282 16.152344 3.390624 4.1875 8.46875 6.644531 13.859374 6.710938 5.269532.210937 10.214844-2.550782 12.800782-7.152344h3.175781c2.261719-.019532 4.4375.867187 6.042969 2.457031 1.609375 1.589844 2.515625 3.757813 2.519531 6.019531zm0 0" fill="#fb7b76"/></svg>