<?xml version="1.0" encoding="iso-8859-1"?>
<!-- Generator: Adobe Illustrator 19.0.0, SVG Export Plug-In . SVG Version: 6.00 Build 0)  -->
<svg version="1.1" id="Layer_1" xmlns="http://www.w3.org/2000/svg" xmlns:xlink="http://www.w3.org/1999/xlink" x="0px" y="0px"
	 viewBox="0 0 512 512" style="enable-background:new 0 0 512 512;" xml:space="preserve">
<path style="fill:#F5DCB4;" d="M426.667,89.825h-71.86c-19.815,0-35.93-16.118-35.93-35.93C318.877,24.175,294.702,0,264.983,0
	s-53.895,24.175-53.895,53.895v35.93h17.965v-35.93c0-19.812,16.115-35.93,35.93-35.93s35.93,16.118,35.93,35.93
	c0,29.72,24.175,53.895,53.895,53.895h71.86c4.965,0,8.982-4.022,8.982-8.982C435.649,93.847,431.631,89.825,426.667,89.825z"/>
<path style="fill:#FFDC64;" d="M426.667,71.86c-4.965,0-8.982-4.022-8.982-8.982V44.912c0-4.961,4.017-8.982,8.982-8.982
	s8.982,4.022,8.982,8.982v17.965C435.649,67.838,431.631,71.86,426.667,71.86z"/>
<path style="fill:#FFF082;" d="M401.263,82.382c-2.298,0-4.597-0.877-6.351-2.632l-12.701-12.701c-3.509-3.509-3.509-9.192,0-12.701
	c3.509-3.509,9.192-3.509,12.701,0l12.702,12.701c3.509,3.509,3.509,9.192,0,12.701C405.859,81.505,403.562,82.382,401.263,82.382z"
	/>
<g>
	<rect x="211.088" y="71.86" style="fill:#EBC9A0;" width="17.965" height="17.965"/>
	<path style="fill:#EBC9A0;" d="M400.113,107.79h-17.185V89.825h17.185V107.79z M365.736,107.79h-10.929
		c-2.544,0-5.027-0.175-7.464-0.509l2.457-17.799c1.63,0.228,3.306,0.342,5.008,0.342h10.929V107.79z M327.938,100.627
		c-6-3.456-11.21-7.965-15.491-13.403l14.105-11.114c2.869,3.631,6.351,6.645,10.351,8.957L327.938,100.627z M303.043,68.982
		c-1.412-4.89-2.131-9.965-2.131-15.087c-0.009-1.162-0.062-2.368-0.175-3.553l17.877-1.728c0.166,1.719,0.255,3.46,0.263,5.228
		c0,3.483,0.483,6.877,1.429,10.14L303.043,68.982z M211.088,54.671v-0.776c0-6.631,1.194-13.11,3.535-19.254l16.789,6.412
		c-1.57,4.092-2.359,8.412-2.359,12.842L211.088,54.671z M296.851,37.276c-2.149-4.093-5.009-7.693-8.527-10.697l11.684-13.649
		c5.255,4.496,9.544,9.886,12.754,16.013L296.851,37.276z M238.631,29.465l-13.158-12.228c4.71-5.075,10.264-9.145,16.509-12.096
		l7.684,16.237C245.5,23.351,241.79,26.071,238.631,29.465z M276.456,19.833c-4.36-1.465-9-2.079-13.57-1.807l-1-17.939
		c6.824-0.391,13.772,0.527,20.289,2.71L276.456,19.833z"/>
	<path style="fill:#EBC9A0;" d="M426.667,107.79h-8.982V89.825h8.982c4.961,0,8.982,4.022,8.982,8.982l0,0
		C435.649,103.768,431.627,107.79,426.667,107.79z"/>
</g>
<path style="fill:#464655;" d="M256,80.842h-71.86c-4.961,0-8.982,4.022-8.982,8.982v40.421h89.825V89.825
	C264.983,84.863,260.961,80.842,256,80.842z"/>
<circle style="fill:#5B5D6E;" cx="220.07" cy="314.386" r="197.614"/>
<path style="fill:#464655;" d="M286.69,445.379c-109.139,0-197.614-88.475-197.614-197.614c0-37.495,10.443-72.549,28.578-102.416
	c-57.07,34.652-95.197,97.391-95.197,169.036C22.456,423.525,110.931,512,220.07,512c71.645,0,134.383-38.127,169.036-95.198
	C359.239,434.936,324.185,445.379,286.69,445.379z"/>
<g>
	<path style="fill:#FFDC64;" d="M480.561,107.79h-17.965c-4.965,0-8.982-4.022-8.982-8.982c0-4.961,4.017-8.982,8.982-8.982h17.965
		c4.965,0,8.982,4.022,8.982,8.982C489.544,103.768,485.525,107.79,480.561,107.79z"/>
	<path style="fill:#FFDC64;" d="M426.667,161.684c-4.965,0-8.982-4.022-8.982-8.982v-17.965c0-4.961,4.017-8.982,8.982-8.982
		s8.982,4.022,8.982,8.982v17.965C435.649,157.662,431.631,161.684,426.667,161.684z"/>
</g>
<g>
	<path style="fill:#FFF082;" d="M464.771,145.899c-2.298,0-4.597-0.877-6.351-2.632l-12.702-12.701
		c-3.509-3.509-3.509-9.192,0-12.701c3.509-3.509,9.194-3.509,12.702,0l12.701,12.701c3.509,3.509,3.509,9.192,0,12.701
		C469.368,145.022,467.07,145.899,464.771,145.899z"/>
	<path style="fill:#FFF082;" d="M388.561,145.899c-2.298,0-4.597-0.877-6.351-2.632c-3.509-3.509-3.509-9.192,0-12.701
		l12.701-12.701c3.509-3.509,9.194-3.509,12.702,0c3.509,3.509,3.509,9.192,0,12.701l-12.702,12.701
		C393.158,145.022,390.859,145.899,388.561,145.899z"/>
	<path style="fill:#FFF082;" d="M452.07,82.382c-2.298,0-4.597-0.877-6.351-2.632c-3.509-3.509-3.509-9.192,0-12.701l12.702-12.701
		c3.509-3.509,9.192-3.509,12.701,0c3.509,3.509,3.509,9.192,0,12.701L458.422,79.75C456.666,81.505,454.367,82.382,452.07,82.382z"
		/>
</g>
<g>
	<path style="fill:#707487;" d="M297.579,183.688c-1.825,0-3.667-0.444-5.386-1.378c-3.798-2.083-7.728-4.013-11.667-5.745
		c-5.685-2.492-8.263-9.114-5.772-14.79c2.483-5.667,9.105-8.267,14.79-5.772c4.544,1.991,9.061,4.215,13.439,6.605
		c5.439,2.978,7.43,9.802,4.456,15.241C305.395,181.579,301.543,183.688,297.579,183.688z"/>
	<path style="fill:#707487;" d="M371.983,270.127c-4.579,0-8.886-2.825-10.544-7.377c-8.149-22.293-21.729-42.653-39.263-58.877
		c-4.553-4.211-4.834-11.311-0.623-15.864c4.228-4.553,11.325-4.829,15.869-0.619c20.149,18.632,35.746,42.022,45.105,67.649
		c2.131,5.825-0.868,12.272-6.693,14.403C374.561,269.904,373.263,270.127,371.983,270.127z"/>
</g>
<g>
</g>
<g>
</g>
<g>
</g>
<g>
</g>
<g>
</g>
<g>
</g>
<g>
</g>
<g>
</g>
<g>
</g>
<g>
</g>
<g>
</g>
<g>
</g>
<g>
</g>
<g>
</g>
<g>
</g>
</svg>
