<svg id="Layer_1" enable-background="new 0 0 512 512" height="512" viewBox="0 0 512 512" width="512" xmlns="http://www.w3.org/2000/svg"><g><path d="m511.999 421.51v41.38c0 27.08-22.03 49.11-49.11 49.11h-420.04c-13.12 0-25.2-5.36-33.13-14.72-7.93-9.36-11.23-22.15-9.07-35.1 0-.03.01-.07.02-.11l75.33-414.85c2.12-12.64 9.07-24.5 19.58-33.4 10.52-8.91 23.39-13.82 36.22-13.82h82.77c27.08 0 49.12 22.03 49.12 49.11v25.85l-20 15.774 20 15.226v25.9c0 27.08-22.04 49.11-49.12 49.11-18.56 0-33.65 15.1-33.65 33.65v126.79c17.02-29.89 38.84-52.91 65.14-68.66 27.13-16.24 58.3-24.48 92.67-24.48 95.54 0 173.27 77.72 173.27 173.24z" fill="#ffd2a2"/><path d="m511.999 421.51v41.38c0 27.08-22.03 49.11-49.11 49.11h-124.16v-263.73c95.54 0 173.27 77.72 173.27 173.24z" fill="#ffbd83"/><path d="m263.689 74.96v31h-101.01c-8.29-1-15-7.72-15-16v-24.87c0-8.28 6.71-15 15-15 8.28 0 15 6.72 15 15v9.87z" fill="#ffbd83"/><path d="m410.479 366.39c0 10.76-4.19 20.87-11.81 28.48l-52.87 52.8c-1.96 1.95-4.51 2.92-7.07 2.92s-5.11-.97-7.07-2.92l-52.87-52.8c-7.62-7.61-11.81-17.72-11.81-28.48 0-10.77 4.19-20.88 11.81-28.49 15.72-15.7 41.3-15.7 57.02 0l2.92 2.92 2.92-2.92c15.72-15.7 41.3-15.7 57.02 0 7.62 7.61 11.81 17.72 11.81 28.49z" fill="#ff6769"/><path d="m410.479 366.39c0 10.76-4.19 20.87-11.81 28.48l-52.87 52.8c-1.96 1.95-4.51 2.92-7.07 2.92v-109.77l2.92-2.92c15.72-15.7 41.3-15.7 57.02 0 7.62 7.61 11.81 17.72 11.81 28.49z" fill="#ff0c6c"/></g></svg>