<?xml version="1.0" encoding="UTF-8"?>
<!DOCTYPE svg PUBLIC "-//W3C//DTD SVG 1.1//EN" "http://www.w3.org/Graphics/SVG/1.1/DTD/svg11.dtd">
<svg xmlns="http://www.w3.org/2000/svg" version="1.1" width="512px" height="512px" style="shape-rendering:geometricPrecision; text-rendering:geometricPrecision; image-rendering:optimizeQuality; fill-rule:evenodd; clip-rule:evenodd" xmlns:xlink="http://www.w3.org/1999/xlink">
<g><path style="opacity:0.978" fill="#040100" d="M 105.5,-0.5 C 120.167,-0.5 134.833,-0.5 149.5,-0.5C 173.419,1.74714 196.086,8.58048 217.5,20C 230.578,27.7413 240.078,38.5746 246,52.5C 247.324,171.798 247.991,291.132 248,410.5C 251.035,415.906 253.535,421.573 255.5,427.5C 257.465,421.573 259.965,415.906 263,410.5C 263.009,291.132 263.676,171.798 265,52.5C 270.922,38.5746 280.422,27.7413 293.5,20C 314.914,8.58048 337.581,1.74714 361.5,-0.5C 376.167,-0.5 390.833,-0.5 405.5,-0.5C 429.419,1.74714 452.086,8.58048 473.5,20C 486.578,27.7413 496.078,38.5746 502,52.5C 503.324,171.798 503.991,291.132 504,410.5C 507.089,416.001 509.589,421.668 511.5,427.5C 511.5,433.5 511.5,439.5 511.5,445.5C 505.696,463.564 494.696,477.73 478.5,488C 455.413,501.1 430.746,508.933 404.5,511.5C 390.5,511.5 376.5,511.5 362.5,511.5C 331.201,509.011 302.868,498.511 277.5,480C 266.714,470.711 259.38,459.211 255.5,445.5C 249.662,463.676 238.662,477.843 222.5,488C 199.413,501.1 174.746,508.933 148.5,511.5C 134.5,511.5 120.5,511.5 106.5,511.5C 75.201,509.011 46.8676,498.511 21.5,480C 10.6159,470.645 3.28256,459.145 -0.5,445.5C -0.5,439.5 -0.5,433.5 -0.5,427.5C 1.41131,421.668 3.91131,416.001 7,410.5C 7.00946,291.132 7.67612,171.798 9,52.5C 14.9224,38.5746 24.4224,27.7413 37.5,20C 58.914,8.58048 81.5806,1.74714 105.5,-0.5 Z"/></g>
<g><path style="opacity:1" fill="#c61d1d" d="M 109.5,16.5 C 139.397,14.7544 168.397,18.9211 196.5,29C 207.722,33.5727 217.222,40.406 225,49.5C 231.881,61.4639 230.548,72.4639 221,82.5C 211.485,90.8448 200.652,97.0115 188.5,101C 145.606,114.248 102.939,113.581 60.5,99C 46.2769,93.8318 35.1102,84.9985 27,72.5C 24.6836,65.6492 25.0169,58.9825 28,52.5C 36.4381,41.3423 47.2715,33.1757 60.5,28C 76.5108,22.2289 92.8441,18.3955 109.5,16.5 Z"/></g>
<g><path style="opacity:1" fill="#c61d1d" d="M 365.5,16.5 C 395.397,14.7544 424.397,18.9211 452.5,29C 463.722,33.5727 473.222,40.406 481,49.5C 487.881,61.4639 486.548,72.4639 477,82.5C 467.485,90.8448 456.652,97.0115 444.5,101C 401.606,114.248 358.939,113.581 316.5,99C 302.277,93.8318 291.11,84.9985 283,72.5C 280.684,65.6492 281.017,58.9825 284,52.5C 292.438,41.3423 303.271,33.1757 316.5,28C 332.511,22.2289 348.844,18.3955 365.5,16.5 Z"/></g>
<g><path style="opacity:1" fill="#f34335" d="M 211.5,109.5 C 212.666,181.666 212.832,253.999 212,326.5C 209.155,335.011 204.321,342.178 197.5,348C 191.768,351.856 186.101,355.69 180.5,359.5C 143.069,369.253 105.736,368.753 68.5,358C 51.9358,353.062 38.4358,343.896 28,330.5C 27.0266,328.608 26.3599,326.608 26,324.5C 25.3333,248.833 25.3333,173.167 26,97.5C 43.8414,111.331 64.0081,120.164 86.5,124C 129.754,132.076 171.42,127.243 211.5,109.5 Z"/></g>
<g><path style="opacity:1" fill="#c81e1e" d="M 180.5,359.5 C 186.101,355.69 191.768,351.856 197.5,348C 204.321,342.178 209.155,335.011 212,326.5C 212.832,253.999 212.666,181.666 211.5,109.5C 217.701,106.14 223.535,102.14 229,97.5C 229.667,173.167 229.667,248.833 229,324.5C 226.097,332.407 221.264,338.907 214.5,344C 204.03,351.068 192.697,356.235 180.5,359.5 Z"/></g>
<g><path style="opacity:1" fill="#f34335" d="M 467.5,109.5 C 468.666,181.666 468.832,253.999 468,326.5C 465.155,335.011 460.321,342.178 453.5,348C 447.768,351.856 442.101,355.69 436.5,359.5C 399.069,369.253 361.736,368.753 324.5,358C 307.936,353.062 294.436,343.896 284,330.5C 283.027,328.608 282.36,326.608 282,324.5C 281.333,248.833 281.333,173.167 282,97.5C 299.841,111.331 320.008,120.164 342.5,124C 385.754,132.076 427.42,127.243 467.5,109.5 Z"/></g>
<g><path style="opacity:1" fill="#c81e1e" d="M 436.5,359.5 C 442.101,355.69 447.768,351.856 453.5,348C 460.321,342.178 465.155,335.011 468,326.5C 468.832,253.999 468.666,181.666 467.5,109.5C 473.701,106.14 479.535,102.14 485,97.5C 485.667,173.167 485.667,248.833 485,324.5C 482.097,332.407 477.264,338.907 470.5,344C 460.03,351.068 448.697,356.235 436.5,359.5 Z"/></g>
<g><path style="opacity:1" fill="#fffbfb" d="M 46.5,136.5 C 51.9459,135.339 56.1126,137.006 59,141.5C 59.6667,180.167 59.6667,218.833 59,257.5C 56.646,263.095 52.4793,264.928 46.5,263C 45.3333,261.833 44.1667,260.667 43,259.5C 42.3333,219.833 42.3333,180.167 43,140.5C 44.3756,139.295 45.5423,137.962 46.5,136.5 Z"/></g>
<g><path style="opacity:1" fill="#fffbfb" d="M 302.5,136.5 C 307.946,135.339 312.113,137.006 315,141.5C 315.667,180.167 315.667,218.833 315,257.5C 312.646,263.095 308.479,264.928 302.5,263C 301.333,261.833 300.167,260.667 299,259.5C 298.333,219.833 298.333,180.167 299,140.5C 300.376,139.295 301.542,137.962 302.5,136.5 Z"/></g>
<g><path style="opacity:1" fill="#fffbfa" d="M 46.5,281.5 C 51.9459,280.339 56.1126,282.006 59,286.5C 59.6667,296.833 59.6667,307.167 59,317.5C 56.5493,323.089 52.3826,324.922 46.5,323C 44.9512,321.786 43.7845,320.286 43,318.5C 42.3333,307.5 42.3333,296.5 43,285.5C 44.3756,284.295 45.5423,282.962 46.5,281.5 Z"/></g>
<g><path style="opacity:1" fill="#fffbfa" d="M 302.5,281.5 C 307.946,280.339 312.113,282.006 315,286.5C 315.667,296.833 315.667,307.167 315,317.5C 312.549,323.089 308.383,324.922 302.5,323C 300.951,321.786 299.785,320.286 299,318.5C 298.333,307.5 298.333,296.5 299,285.5C 300.376,284.295 301.542,282.962 302.5,281.5 Z"/></g>
<g><path style="opacity:1" fill="#fdda00" d="M 211.5,365.5 C 212.662,383.329 212.829,401.329 212,419.5C 209.902,428.202 205.402,435.368 198.5,441C 192.321,445.03 186.321,449.196 180.5,453.5C 139.249,464.346 98.5825,462.513 58.5,448C 47.3257,443.492 37.8257,436.659 30,427.5C 27.8543,424.874 26.521,421.874 26,418.5C 25.3333,396.833 25.3333,375.167 26,353.5C 43.887,367.356 64.0537,376.19 86.5,380C 129.74,387.826 171.407,382.993 211.5,365.5 Z"/></g>
<g><path style="opacity:1" fill="#fbbf07" d="M 180.5,453.5 C 186.321,449.196 192.321,445.03 198.5,441C 205.402,435.368 209.902,428.202 212,419.5C 212.829,401.329 212.662,383.329 211.5,365.5C 217.701,362.14 223.535,358.14 229,353.5C 229.667,375.167 229.667,396.833 229,418.5C 226.492,426.024 221.992,432.191 215.5,437C 204.871,444.647 193.204,450.147 180.5,453.5 Z"/></g>
<g><path style="opacity:1" fill="#fdda00" d="M 467.5,365.5 C 468.662,383.329 468.829,401.329 468,419.5C 465.902,428.202 461.402,435.368 454.5,441C 448.321,445.03 442.321,449.196 436.5,453.5C 395.249,464.346 354.583,462.513 314.5,448C 303.326,443.492 293.826,436.659 286,427.5C 283.854,424.874 282.521,421.874 282,418.5C 281.333,396.833 281.333,375.167 282,353.5C 299.887,367.356 320.054,376.19 342.5,380C 385.74,387.826 427.407,382.993 467.5,365.5 Z"/></g>
<g><path style="opacity:1" fill="#fbbf07" d="M 436.5,453.5 C 442.321,449.196 448.321,445.03 454.5,441C 461.402,435.368 465.902,428.202 468,419.5C 468.829,401.329 468.662,383.329 467.5,365.5C 473.701,362.14 479.535,358.14 485,353.5C 485.667,375.167 485.667,396.833 485,418.5C 482.492,426.024 477.992,432.191 471.5,437C 460.871,444.647 449.204,450.147 436.5,453.5 Z"/></g>
<g><path style="opacity:1" fill="#f7bb07" d="M 16.5,438.5 C 34.8454,456.51 56.8454,468.01 82.5,473C 121.89,480.57 160.557,477.904 198.5,465C 213.928,459.628 226.928,450.795 237.5,438.5C 237.833,439 238.167,439.5 238.5,440C 235.296,452.082 228.629,461.749 218.5,469C 202.383,479.887 184.716,487.22 165.5,491C 131.189,497.502 97.5224,495.169 64.5,484C 50.4231,478.571 37.9231,470.738 27,460.5C 21.6166,454.067 18.1166,446.733 16.5,438.5 Z"/></g>
<g><path style="opacity:1" fill="#f7bb07" d="M 272.5,438.5 C 290.845,456.51 312.845,468.01 338.5,473C 377.89,480.57 416.557,477.904 454.5,465C 469.928,459.628 482.928,450.795 493.5,438.5C 493.833,439 494.167,439.5 494.5,440C 491.296,452.082 484.629,461.749 474.5,469C 458.383,479.887 440.716,487.22 421.5,491C 387.189,497.502 353.522,495.169 320.5,484C 306.423,478.571 293.923,470.738 283,460.5C 277.617,454.067 274.117,446.733 272.5,438.5 Z"/></g>
</svg>
