<?xml version="1.0" encoding="iso-8859-1"?>
<!-- Generator: Adobe Illustrator 19.0.0, SVG Export Plug-In . SVG Version: 6.00 Build 0)  -->
<svg xmlns="http://www.w3.org/2000/svg" xmlns:xlink="http://www.w3.org/1999/xlink" version="1.1" id="Layer_1" x="0px" y="0px" viewBox="0 0 441.71 441.71" style="enable-background:new 0 0 441.71 441.71;" xml:space="preserve" width="512" height="512">
<g>
	<path style="fill:#666666;" d="M131.611,380.978c-4.143,0-7.5-3.608-7.5-8.058v-111.8c0-4.45,3.357-8.058,7.5-8.058   c4.143,0,7.5,3.608,7.5,8.058v111.8C139.111,377.37,135.753,380.978,131.611,380.978z"/>
	<path style="fill:#666666;" d="M194.289,380.978c-4.143,0-7.5-3.608-7.5-8.058V42.551c0-4.45,3.357-8.058,7.5-8.058   s7.5,3.608,7.5,8.058V372.92C201.789,377.37,198.431,380.978,194.289,380.978z"/>
	<path style="fill:#666666;" d="M247.419,380.978c-4.143,0-7.5-3.608-7.5-8.058V42.551c0-4.45,3.357-8.058,7.5-8.058   s7.5,3.608,7.5,8.058V372.92C254.919,377.37,251.561,380.978,247.419,380.978z"/>
	<path style="fill:#666666;" d="M300.549,380.978c-4.143,0-7.5-3.608-7.5-8.058V42.551c0-4.45,3.357-8.058,7.5-8.058   s7.5,3.608,7.5,8.058V372.92C308.049,377.37,304.691,380.978,300.549,380.978z"/>
	<path style="fill:#666666;" d="M353.679,380.978c-4.143,0-7.5-3.608-7.5-8.058V42.551c0-4.45,3.357-8.058,7.5-8.058   s7.5,3.608,7.5,8.058V372.92C361.179,377.37,357.821,380.978,353.679,380.978z"/>
	<path style="fill:#666666;" d="M88.029,380.978c-4.143,0-7.5-3.608-7.5-8.058V42.551c0-4.45,3.357-8.058,7.5-8.058   s7.5,3.608,7.5,8.058V372.92C95.529,377.37,92.171,380.978,88.029,380.978z"/>
	<rect x="131.942" y="214.485" style="fill:#666666;" width="229.239" height="15"/>
	<path style="fill:#666666;" d="M141.159,176.988c-4.143,0-7.5-3.358-7.5-7.5V53.998c0-4.142,3.357-7.5,7.5-7.5s7.5,3.358,7.5,7.5   v115.49C148.659,173.63,145.301,176.988,141.159,176.988z"/>
	<rect x="80.529" y="361.48" style="fill:#808080;" width="280.65" height="80.23"/>
	<rect x="80.529" style="fill:#808080;" width="280.65" height="53.99"/>
	<rect x="80.531" y="169.487" style="fill:#EAB96C;" width="73.66" height="104.995"/>
	<path style="fill:#EAB96C;" d="M220.859,406.48c-4.15,0-7.5,3.35-7.5,7.5c0,4.14,3.35,7.49,7.5,7.49c4.14,0,7.5-3.35,7.5-7.49   C228.359,409.83,224.999,406.48,220.859,406.48z"/>
	<path style="fill:#EAB96C;" d="M192.168,406.48c-4.14,0-7.5,3.35-7.5,7.5c0,4.14,3.36,7.49,7.5,7.49c4.141,0,7.5-3.35,7.5-7.49   C199.668,409.83,196.309,406.48,192.168,406.48z"/>
	<path style="fill:#EAB96C;" d="M134.798,406.48c-4.14,0-7.5,3.35-7.5,7.5c0,4.14,3.36,7.49,7.5,7.49c4.141,0,7.5-3.35,7.5-7.49   C142.298,409.83,138.939,406.48,134.798,406.48z"/>
	<path style="fill:#EAB96C;" d="M249.539,406.48c-4.14,0-7.5,3.35-7.5,7.5c0,4.14,3.36,7.49,7.5,7.49s7.5-3.35,7.5-7.49   C257.039,409.83,253.678,406.48,249.539,406.48z"/>
	<path style="fill:#EAB96C;" d="M306.909,406.48c-4.14,0-7.49,3.35-7.49,7.5c0,4.14,3.351,7.49,7.49,7.49c4.15,0,7.5-3.35,7.5-7.49   C314.409,409.83,311.059,406.48,306.909,406.48z"/>
	<path style="fill:#EAB96C;" d="M278.229,406.48c-4.141,0-7.5,3.35-7.5,7.5c0,4.14,3.359,7.49,7.5,7.49c4.14,0,7.5-3.35,7.5-7.49   C285.729,409.83,282.369,406.48,278.229,406.48z"/>
	<path style="fill:#EAB96C;" d="M163.479,406.48c-4.141,0-7.49,3.35-7.49,7.5c0,4.14,3.35,7.49,7.49,7.49c4.149,0,7.5-3.35,7.5-7.49   C170.979,409.83,167.628,406.48,163.479,406.48z"/>
	<path style="fill:#EAB96C;" d="M220.859,34.99c4.14,0,7.5-3.35,7.5-7.49c0-4.15-3.36-7.51-7.5-7.51c-4.15,0-7.5,3.36-7.5,7.51   C213.359,31.64,216.708,34.99,220.859,34.99z"/>
	<path style="fill:#EAB96C;" d="M192.168,34.99c4.141,0,7.5-3.35,7.5-7.49c0-4.15-3.359-7.51-7.5-7.51c-4.14,0-7.5,3.36-7.5,7.51   C184.668,31.64,188.029,34.99,192.168,34.99z"/>
	<path style="fill:#EAB96C;" d="M249.539,34.99c4.14,0,7.5-3.35,7.5-7.49c0-4.15-3.36-7.51-7.5-7.51s-7.5,3.36-7.5,7.51   C242.039,31.64,245.399,34.99,249.539,34.99z"/>
	<path style="fill:#EAB96C;" d="M278.229,34.99c4.14,0,7.5-3.35,7.5-7.49c0-4.15-3.36-7.51-7.5-7.51c-4.141,0-7.5,3.36-7.5,7.51   C270.729,31.64,274.088,34.99,278.229,34.99z"/>
	<path style="fill:#EAB96C;" d="M134.798,34.99c4.141,0,7.5-3.35,7.5-7.49c0-4.15-3.359-7.51-7.5-7.51c-4.14,0-7.5,3.36-7.5,7.51   C127.298,31.64,130.659,34.99,134.798,34.99z"/>
	<path style="fill:#EAB96C;" d="M306.909,34.99c4.15,0,7.5-3.35,7.5-7.49c0-4.15-3.35-7.51-7.5-7.51c-4.14,0-7.49,3.36-7.49,7.51   C299.418,31.64,302.769,34.99,306.909,34.99z"/>
	<path style="fill:#EAB96C;" d="M163.479,34.99c4.149,0,7.5-3.35,7.5-7.49c0-4.15-3.351-7.51-7.5-7.51c-4.141,0-7.49,3.36-7.49,7.51   C155.989,31.64,159.338,34.99,163.479,34.99z"/>
	<path style="fill:#EAB96C;" d="M335.599,34.99c4.141,0,7.5-3.35,7.5-7.49c0-4.15-3.359-7.51-7.5-7.51c-4.14,0-7.5,3.36-7.5,7.51   C328.099,31.64,331.459,34.99,335.599,34.99z"/>
	<path style="fill:#EAB96C;" d="M335.599,421.47c4.141,0,7.5-3.35,7.5-7.49c0-4.15-3.359-7.51-7.5-7.51c-4.14,0-7.5,3.36-7.5,7.51   C328.099,418.12,331.459,421.47,335.599,421.47z"/>
	<rect x="80.529" y="361.48" style="fill:#666666;" width="38.83" height="80.23"/>
	<rect x="80.529" style="fill:#666666;" width="38.83" height="53.99"/>
	<rect x="80.531" y="169.487" style="fill:#D8A664;" width="23.413" height="104.995"/>
	<path style="fill:#333333;" d="M131.942,216.985c0-8.408-6.841-15.249-15.249-15.249s-15.249,6.841-15.249,15.249   c0,6.412,3.983,11.902,9.601,14.152v10.698c0,3.119,2.528,5.648,5.648,5.648c3.12,0,5.648-2.529,5.648-5.648v-10.698   C127.958,228.887,131.942,223.397,131.942,216.985z"/>
	<path style="fill:#EAB96C;" d="M106.109,34.99c4.141,0,7.5-3.35,7.5-7.49c0-4.15-3.359-7.51-7.5-7.51c-4.14,0-7.5,3.36-7.5,7.51   C98.609,31.64,101.969,34.99,106.109,34.99z"/>
	<path style="fill:#EAB96C;" d="M106.109,421.48c4.141,0,7.5-3.35,7.5-7.49c0-4.15-3.359-7.51-7.5-7.51c-4.14,0-7.5,3.36-7.5,7.51   C98.609,418.13,101.969,421.48,106.109,421.48z"/>
</g>















</svg>
