<svg height="512pt" viewBox="0 0 512 512.00018" width="512pt" xmlns="http://www.w3.org/2000/svg"><path d="m454.734375 57.265625c-76.207031-76.503906-199.214844-76.203125-275.421875 0-64.203125 64.207031-75.605469 163.511719-28.203125 240.019531l-20.101563 20.398438-10.847656 49.15625 33.714844 33.714844 40.738281-19.265626 20.101563-20.402343c76.507812 47.40625 175.816406 36.304687 240.019531-28.199219 76.503906-76.207031 76.203125-199.214844 0-275.421875zm0 0" fill="#676e74"/><path d="m194.613281 381.289062 20.101563-20.402343c76.507812 47.40625 175.8125 36.304687 240.019531-28.199219 76.503906-76.207031 76.203125-199.214844 0-275.421875l-322.074219 322.074219 21.210938 21.214844zm0 0" fill="#474f54"/><path d="m433.703125 78.296875c-29.859375-29.863281-71.113281-48.332031-116.679687-48.332031-91.132813 0-165.011719 73.878906-165.011719 165.011718 0 45.566407 18.46875 86.820313 48.328125 116.683594 29.863281 29.859375 71.117187 48.328125 116.683594 48.328125 91.132812 0 165.011718-73.878906 165.011718-165.011719 0-45.566406-18.46875-86.820312-48.332031-116.679687zm0 0" fill="#64e1dc"/><path d="m482.035156 194.976562c0-45.566406-18.46875-86.820312-48.332031-116.679687l-233.363281 233.363281c29.863281 29.859375 71.117187 48.328125 116.683594 48.328125 91.132812 0 165.011718-73.878906 165.011718-165.011719zm0 0" fill="#00c8c8"/><path d="m449.910156 187.285156c-1.472656-2.460937-23.839844-39.316406-58.246094-66.949218-21.042968-16.90625-46.578124-30.367188-74.640624-30.367188-73.9375 0-130.511719 93.347656-132.886719 97.316406l-4.601563 7.691406 4.601563 7.691407c1.472656 2.464843 23.835937 39.320312 58.242187 66.953125 21.046875 16.902344 46.582032 30.363281 74.644532 30.363281 73.9375 0 130.511718-93.347656 132.886718-97.316406l4.597656-7.691407zm0 0" fill="#efeff4"/><path d="m449.910156 202.667969 4.597656-7.691407-4.597656-7.691406c-1.472656-2.460937-23.839844-39.316406-58.246094-66.949218l-149.285156 149.285156c21.046875 16.902344 46.582032 30.363281 74.644532 30.363281 73.9375 0 130.511718-93.347656 132.886718-97.316406zm0 0" fill="#dadae5"/><path d="m348.832031 163.171875c-8.148437-8.152344-19.402343-13.199219-31.808593-13.199219-24.816407 0-45.003907 20.1875-45.003907 45.003906 0 12.410157 5.046875 23.660157 13.195313 31.808594 8.152344 8.148438 19.398437 13.195313 31.808594 13.195313 24.816406 0 45.003906-20.1875 45.003906-45.003907 0-12.40625-5.046875-23.65625-13.195313-31.804687zm0 0" fill="#64e1dc"/><path d="m362.027344 194.976562c0-12.40625-5.046875-23.65625-13.195313-31.804687l-63.617187 63.613281c8.148437 8.148438 19.398437 13.195313 31.808594 13.195313 24.816406 0 45.003906-20.1875 45.003906-45.003907zm0 0" fill="#00c8c8"/><path d="m327.628906 184.371094c-2.714844-2.714844-6.464844-4.394532-10.605468-4.394532-8.277344 0-15 6.722657-15 15 0 4.140626 1.679687 7.890626 4.394531 10.605469 2.714843 2.714844 6.464843 4.394531 10.605469 4.394531 8.277343 0 15-6.722656 15-15 0-4.136718-1.679688-7.886718-4.394532-10.605468zm0 0" fill="#676e74"/><path d="m332.023438 194.976562c0-4.136718-1.679688-7.886718-4.394532-10.605468l-21.210937 21.210937c2.714843 2.714844 6.464843 4.394531 10.605469 4.394531 8.277343 0 15-6.722656 15-15zm0 0" fill="#474f54"/><path d="m162.664062 349.335938-31.65625-31.652344-131.007812 130.710937 31.800781 31.804688 31.804688 31.800781 131.007812-130.710938zm0 0" fill="#fdbf00"/><path d="m194.613281 381.289062-31.949219-31.953124-130.863281 130.863281 31.804688 31.800781zm0 0" fill="#ff9100"/></svg>