<svg height="503pt" viewBox="0 0 503.58041 503" width="503pt" xmlns="http://www.w3.org/2000/svg"><path d="m364.910156 79.898438 12.105469-25.097657c10.085937 2.773438 20.6875-2.238281 24.949219-11.792969 5.367187-10.128906 1.585937-22.691406-8.480469-28.175781-5.285156-2.457031-11.40625-2.351562-16.609375.277344-1.183594-5.707031-4.914062-10.558594-10.125-13.164063-10.5625-4.460937-22.742188.402344-27.328125 10.90625-4.851563 9.289063-2.179687 20.726563 6.28125 26.902344v-.035156l-11.167969 23.214844zm0 0" fill="#cbb292"/><path d="m449.691406 173.777344 19.699219-19.699219c8.628906 5.964844 20.320313 4.710937 27.492187-2.941406 8.402344-7.792969 8.976563-20.894531 1.285157-29.394531-4.183594-4.054688-9.992188-5.972657-15.769531-5.207032.769531-5.773437-1.148438-11.582031-5.207032-15.765625-8.496094-7.691406-21.597656-7.117187-29.390625 1.285157-7.652343 7.167968-8.90625 18.863281-2.941406 27.492187l-18.222656 18.222656zm0 0" fill="#cbb292"/><path d="m361.003906 182.367188c4.140625-12.316407 7.558594-24.863282 10.238282-37.574219 4.269531-13.28125 5.191406-27.410157 2.691406-41.132813-1.652344-8.378906-4.703125-16.414062-9.023438-23.777344v-.089843c-1.484375-2.648438-3.261718-5.121094-5.296875-7.375-2.667969-3.007813-5.839843-5.535157-9.371093-7.460938-4.789063-2.652343-10.40625-3.363281-15.707032-1.996093-8.207031 2.777343-15.417968 7.910156-20.738281 14.75-8.058594 10.960937-17.542969 20.796874-28.203125 29.246093-12.363281 7.199219-25.6875 12.605469-39.574219 16.054688-30.285156 9.285156-64.300781 27.246093-53.367187 63.867187zm0 0" fill="#59474e"/><path d="m52.066406 329.894531 8.679688 34.710938h43.390625v-34.710938c-.109375-13.925781-11.160157-25.300781-25.078125-25.8125-13.917969-.511719-25.773438 10.019531-26.902344 23.902344zm0 0" fill="#24ae5f"/><path d="m59.617188 354.800781v-.089843c.5625-1.800782.914062-3.667969 1.042968-5.550782.070313-.636718.101563-1.273437.085938-1.910156-.0625-14.351562-11.679688-25.972656-26.035156-26.035156-14.378907 0-26.03125 11.65625-26.03125 26.035156-.023438 7.222656 3 14.125 8.328124 19.003906-11.777343 4.402344-18.722656 16.59375-16.507812 28.972656 2.214844 12.378907 12.960938 21.402344 25.535156 21.445313h26.03125zm0 0" fill="#4fba6f"/><path d="m26.035156 451.386719h451.253906c0 28.753906-23.3125 52.066406-52.070312 52.066406h-347.117188c-28.757812 0-52.066406-23.3125-52.066406-52.066406zm0 0" fill="#95a5a5"/><path d="m503.324219 434.027344c-.074219 9.558594-7.800781 17.285156-17.359375 17.359375h-468.609375c-9.574219-.03125-17.3281252-7.785157-17.355469-17.359375-.0234375-4.601563 1.824219-9.019532 5.121094-12.234375 3.214844-3.296875 7.628906-5.144531 12.234375-5.121094h468.609375c.84375.011719 1.683594.070313 2.519531.175781 8.523437 1.25 14.84375 8.5625 14.839844 17.179688zm0 0" fill="#bdc3c7"/><path d="m472.863281 348.203125c-.339843 23.921875-6.441406 47.410156-17.789062 68.46875h-411.683594v-17.355469c0-38.339844 31.082031-69.421875 69.421875-69.421875h9.632812c-1.734374-43.390625 9.71875-87.734375 38.964844-118.367187 44.085938-46.167969 108.039063-53.71875 166.53125-36.015625h.085938l102.921875 66.214843c19.289062 21.601563 32.679687 47.8125 38.875 76.105469 1.695312 8.261719 2.683593 16.648438 2.953125 25.078125.085937 1.824219.085937 3.558594.085937 5.292969zm0 0" fill="#af8066"/><path d="m126.601562 373.285156c-4.121093-.003906-7.671874-2.90625-8.496093-6.945312-2.402344-11.894532-3.855469-23.964844-4.335938-36.089844-.175781-4.792969 3.566407-8.820312 8.359375-8.996094 4.792969-.175781 8.820313 3.570313 8.996094 8.363282.441406 11.171874 1.777344 22.292968 3.992188 33.253906.933593 4.695312-2.109376 9.261718-6.804688 10.203125-.5625.125-1.132812.195312-1.710938.210937zm0 0" fill="#7f5b53"/><path d="m447.132812 164.925781c-1.496093-3.71875-3.664062-7.132812-6.394531-10.066406-11.414062-12.003906-26.035156-6.863281-38.558593 0-11.253907 7.65625-23.460938 13.8125-36.308594 18.308594-14.035156 2.710937-28.382813 3.417969-42.617188 2.101562-32.386718-1.257812-71.59375 4.78125-71.59375 45.378907-.695312 26.320312 6.890625 52.199218 21.695313 73.976562 48.234375 65.128906 130.863281-13.578125 160.949219-57.535156 8.433593-11.113282 13.960937-24.152344 16.082031-37.9375 1.800781-11.503906.679687-23.269532-3.253907-34.226563zm0 0" fill="#7f5b53"/><path d="m164.882812 321.214844c-4.792968 0-8.679687-3.882813-8.679687-8.675782 0-63.609374 27.40625-91.753906 28.578125-92.917968 3.394531-3.296875 8.808594-3.265625 12.164062.070312 3.359376 3.339844 3.421876 8.753906.140626 12.167969-.539063.5625-23.527344 25.199219-23.527344 80.679687 0 4.792969-3.882813 8.675782-8.675782 8.675782zm0 0" fill="#cbb292"/><path d="m164.882812 364.605469c-4.792968 0-8.679687-3.886719-8.679687-8.679688v-8.675781c0-4.792969 3.886719-8.679688 8.679687-8.679688 4.792969 0 8.675782 3.886719 8.675782 8.679688v8.675781c0 4.792969-3.882813 8.679688-8.675782 8.679688zm0 0" fill="#cbb292"/><path d="m503.324219 386.300781c.027343 11.925781-5.449219 23.195313-14.839844 30.546875-.835937-.105468-1.675781-.164062-2.519531-.175781h-30.890625c11.347656-21.058594 17.449219-44.546875 17.789062-68.46875 17.808594 4.019531 30.460938 19.839844 30.460938 38.097656zm0 0" fill="#7f5b53"/></svg>