<?xml version="1.0" encoding="UTF-8"?>
<!DOCTYPE svg PUBLIC "-//W3C//DTD SVG 1.1//EN" "http://www.w3.org/Graphics/SVG/1.1/DTD/svg11.dtd">
<svg xmlns="http://www.w3.org/2000/svg" version="1.1" width="512px" height="512px" style="shape-rendering:geometricPrecision; text-rendering:geometricPrecision; image-rendering:optimizeQuality; fill-rule:evenodd; clip-rule:evenodd" xmlns:xlink="http://www.w3.org/1999/xlink">
<g><path style="opacity:0.992" fill="#917aff" d="M 284.5,34.5 C 304.562,62.276 323.895,90.6094 342.5,119.5C 317.855,129.821 293.188,140.154 268.5,150.5C 268.167,149.5 267.833,148.5 267.5,147.5C 273.262,109.83 278.929,72.1629 284.5,34.5 Z"/></g>
<g><path style="opacity:1" fill="#7340ff" d="M 208.5,119.5 C 227.633,129.567 246.633,139.9 265.5,150.5C 265.833,151.5 266.167,152.5 266.5,153.5C 263.829,172.179 261.162,190.846 258.5,209.5C 228.991,193.579 199.325,177.912 169.5,162.5C 182.159,147.842 195.159,133.509 208.5,119.5 Z"/></g>
<g><path style="opacity:1" fill="#825fff" d="M 284.5,34.5 C 278.929,72.1629 273.262,109.83 267.5,147.5C 267.833,148.5 268.167,149.5 268.5,150.5C 293.188,140.154 317.855,129.821 342.5,119.5C 353.326,134.48 363.659,149.813 373.5,165.5C 359.211,171.933 344.544,177.6 329.5,182.5C 330.28,192.851 331.28,203.184 332.5,213.5C 334.005,221.185 331.505,223.185 325,219.5C 322.844,208.6 321.678,197.6 321.5,186.5C 300.435,193.966 279.435,201.633 258.5,209.5C 261.162,190.846 263.829,172.179 266.5,153.5C 266.167,152.5 265.833,151.5 265.5,150.5C 246.633,139.9 227.633,129.567 208.5,119.5C 233.502,90.2037 258.835,61.8704 284.5,34.5 Z"/></g>
<g><path style="opacity:0.997" fill="#825efe" d="M 169.5,162.5 C 199.325,177.912 228.991,193.579 258.5,209.5C 254.852,230.367 251.852,251.367 249.5,272.5C 261.5,268.833 273.5,265.167 285.5,261.5C 275.052,277.953 269.552,295.953 269,315.5C 273.441,318.964 277.941,322.298 282.5,325.5C 268.639,331.456 254.305,336.456 239.5,340.5C 242.033,318.77 245.033,297.104 248.5,275.5C 248.167,274.5 247.833,273.5 247.5,272.5C 208.994,251.079 170.327,229.913 131.5,209C 130.748,208.329 130.414,207.496 130.5,206.5C 143.5,191.833 156.5,177.167 169.5,162.5 Z"/></g>
<g><path style="opacity:0.997" fill="#917afe" d="M 373.5,165.5 C 386.239,182.639 398.239,200.306 409.5,218.5C 394.991,223.392 380.491,228.392 366,233.5C 364.97,233.836 364.47,234.503 364.5,235.5C 332.262,226.58 305.929,235.246 285.5,261.5C 273.5,265.167 261.5,268.833 249.5,272.5C 251.852,251.367 254.852,230.367 258.5,209.5C 279.435,201.633 300.435,193.966 321.5,186.5C 321.678,197.6 322.844,208.6 325,219.5C 331.505,223.185 334.005,221.185 332.5,213.5C 331.28,203.184 330.28,192.851 329.5,182.5C 344.544,177.6 359.211,171.933 373.5,165.5 Z"/></g>
<g><path style="opacity:1" fill="#825fff" d="M 275.5,207.5 C 277.527,207.338 279.527,207.505 281.5,208C 287,214.167 292.5,220.333 298,226.5C 300.964,229.605 301.13,232.772 298.5,236C 297.167,236.667 295.833,236.667 294.5,236C 288,228.833 281.5,221.667 275,214.5C 274.297,212.071 274.463,209.738 275.5,207.5 Z"/></g>
<g><path style="opacity:1" fill="#7340ff" d="M 130.5,206.5 C 130.414,207.496 130.748,208.329 131.5,209C 170.327,229.913 208.994,251.079 247.5,272.5C 247.833,273.5 248.167,274.5 248.5,275.5C 245.033,297.104 242.033,318.77 239.5,340.5C 187.948,314.39 136.615,287.723 85.5,260.5C 84.7025,260.043 84.3691,259.376 84.5,258.5C 99.4905,240.844 114.824,223.511 130.5,206.5 Z"/></g>
<g><path style="opacity:1" fill="#825ffe" d="M 409.5,218.5 C 422.239,235.639 434.239,253.306 445.5,271.5C 435.305,275.231 424.972,278.565 414.5,281.5C 414.5,280.5 414.5,279.5 414.5,278.5C 415.218,276.863 415.384,275.197 415,273.5C 402.04,255.612 385.207,242.945 364.5,235.5C 364.47,234.503 364.97,233.836 366,233.5C 380.491,228.392 394.991,223.392 409.5,218.5 Z"/></g>
<g><path style="opacity:1" fill="#f9f3f7" d="M 364.5,235.5 C 385.207,242.945 402.04,255.612 415,273.5C 415.384,275.197 415.218,276.863 414.5,278.5C 389.255,346.583 345.255,362.249 282.5,325.5C 277.941,322.298 273.441,318.964 269,315.5C 269.552,295.953 275.052,277.953 285.5,261.5C 305.929,235.246 332.262,226.58 364.5,235.5 Z"/></g>
<g><path style="opacity:1" fill="#7441fe" d="M 335.5,250.5 C 357.688,249.5 372.188,259.5 379,280.5C 380.622,311.752 365.789,326.919 334.5,326C 311.92,318.688 302.087,303.188 305,279.5C 310.189,264.475 320.355,254.809 335.5,250.5 Z"/></g>
<g><path style="opacity:0.998" fill="#815eff" d="M 84.5,258.5 C 84.3691,259.376 84.7025,260.043 85.5,260.5C 136.615,287.723 187.948,314.39 239.5,340.5C 235.12,366.409 231.12,392.409 227.5,418.5C 164.85,382.194 102.184,345.861 39.5,309.5C 54.1569,292.178 69.1569,275.178 84.5,258.5 Z"/></g>
<g><path style="opacity:0.998" fill="#917bfe" d="M 445.5,271.5 C 457.524,288.202 469.191,305.202 480.5,322.5C 396.04,354.099 311.707,386.099 227.5,418.5C 231.12,392.409 235.12,366.409 239.5,340.5C 254.305,336.456 268.639,331.456 282.5,325.5C 345.255,362.249 389.255,346.583 414.5,278.5C 414.5,279.5 414.5,280.5 414.5,281.5C 424.972,278.565 435.305,275.231 445.5,271.5 Z"/></g>
<g><path style="opacity:1" fill="#7340ff" d="M 39.5,309.5 C 102.184,345.861 164.85,382.194 227.5,418.5C 224.342,437.766 221.675,457.1 219.5,476.5C 146.241,436.853 72.9079,396.52 -0.5,355.5C -0.5,354.833 -0.5,354.167 -0.5,353.5C 12.4641,338.534 25.7974,323.867 39.5,309.5 Z"/></g>
<g><path style="opacity:1" fill="#825fff" d="M 480.5,322.5 C 490.833,337.167 501.167,351.833 511.5,366.5C 511.5,367.5 511.5,368.5 511.5,369.5C 414.313,405.562 316.98,441.229 219.5,476.5C 221.675,457.1 224.342,437.766 227.5,418.5C 311.707,386.099 396.04,354.099 480.5,322.5 Z"/></g>
</svg>
