<?xml version="1.0" encoding="iso-8859-1"?>
<!-- Generator: Adobe Illustrator 19.0.0, SVG Export Plug-In . SVG Version: 6.00 Build 0)  -->
<svg version="1.1" id="Capa_1" xmlns="http://www.w3.org/2000/svg" xmlns:xlink="http://www.w3.org/1999/xlink" x="0px" y="0px"
	 viewBox="0 0 464 464" style="enable-background:new 0 0 464 464;" xml:space="preserve">
<path style="fill:#FC88A1;" d="M188.736,460.56l151.2-140.456c35.524-32.993,37.575-88.537,4.582-124.061
	c-0.14-0.151-0.281-0.301-0.422-0.451c-32.924-34.937-87.805-36.951-123.2-4.52l-32.16,29.488l-32.168-29.488
	c-35.395-32.431-90.276-30.417-123.2,4.52c-33.242,35.291-31.582,90.848,3.709,124.09c0.15,0.141,0.3,0.282,0.451,0.422
	L188.736,460.56z"/>
<g>
	<path style="fill:#FCBDCB;" d="M40.8,257.408c-5.188-28.96,14.084-56.643,43.045-61.83c4.157-0.745,8.388-0.992,12.603-0.738
		l-0.96,16c-20.538-1.252-38.202,14.382-39.454,34.92c-0.181,2.962-0.007,5.935,0.518,8.856L40.8,257.408z"/>
	<path style="fill:#FCBDCB;" d="M110,194.664h16v16h-16V194.664z"/>
</g>
<g>
	<path style="fill:#FC5B68;" d="M464,48h-48V0l-40,40v48h48L464,48z"/>
	<path style="fill:#FC5B68;" d="M232,368.616l151.2-140.448c35.524-33,37.57-88.549,4.571-124.072
		c-0.139-0.15-0.279-0.299-0.419-0.448c-32.92-34.947-87.812-36.958-123.2-4.512L232,128.616l-32.168-29.48
		c-35.388-32.446-90.28-30.435-123.2,4.512c-33.242,35.297-31.577,90.859,3.72,124.101c0.149,0.14,0.298,0.28,0.448,0.419
		L232,368.616z"/>
</g>
<path style="fill:#FDCD74;" d="M26.342,426.375l91.998-91.998l11.314,11.314l-91.998,91.998L26.342,426.375z"/>
<path style="fill:#FC5B68;" d="M48,432H32v-16c0-8.837-7.163-16-16-16s-16,7.163-16,16v48h48c8.837,0,16-7.163,16-16
	S56.837,432,48,432z"/>
<g>
	<path style="fill:#FC88A1;" d="M80.8,169.408c-5.188-28.96,14.084-56.643,43.045-61.83c4.157-0.745,8.388-0.992,12.603-0.738
		l-0.96,16c-20.538-1.252-38.202,14.382-39.454,34.92c-0.181,2.962-0.007,5.935,0.518,8.856L80.8,169.408z"/>
	<path style="fill:#FC88A1;" d="M150,106.664h16v16h-16V106.664z"/>
</g>
<path style="fill:#FDCD74;" d="M338.344,114.341l80-80l11.314,11.314l-80,80L338.344,114.341z"/>
<g>
</g>
<g>
</g>
<g>
</g>
<g>
</g>
<g>
</g>
<g>
</g>
<g>
</g>
<g>
</g>
<g>
</g>
<g>
</g>
<g>
</g>
<g>
</g>
<g>
</g>
<g>
</g>
<g>
</g>
</svg>
