<?xml version="1.0" encoding="iso-8859-1"?>
<!-- Uploaded to: SVG Repo, www.svgrepo.com, Generator: SVG Repo Mixer Tools -->
<svg height="800px" width="800px" version="1.1" id="Layer_1" xmlns="http://www.w3.org/2000/svg" xmlns:xlink="http://www.w3.org/1999/xlink" 
	 viewBox="0 0 512 512" xml:space="preserve">
<path style="fill:#F4C063;" d="M332.185,512H179.816c0-11.305,4.58-21.53,11.983-28.922c8.726-8.726,21.352-13.527,35.024-11.548
	V434.26h58.356v37.269c13.682-1.979,26.31,2.824,35.024,11.548C327.605,490.47,332.185,500.696,332.185,512z"/>
<path style="fill:#D5A03C;" d="M285.178,434.26v31.679c-9.448,2.612-19.207,3.99-29.177,3.99c-9.97,0-19.729-1.378-29.177-3.99
	V434.26H285.178z"/>
<ellipse style="fill:#F4C063;" cx="256" cy="222.055" rx="153.648" ry="222.055"/>
<path style="fill:#C3F6F9;" d="M256.006,399.95c-29.612,0-58-17.458-79.935-49.157c-23.594-34.098-36.588-79.819-36.588-128.741
	s12.994-94.643,36.588-128.741c21.935-31.7,50.323-49.157,79.935-49.157s58,17.458,79.935,49.157
	c23.594,34.098,36.588,79.819,36.588,128.741s-12.994,94.643-36.588,128.741C314.006,382.493,285.617,399.95,256.006,399.95z"/>
<g>
	<path style="fill:#FFFFFF;" d="M200.413,189.253c-1.545,0-3.077-0.677-4.117-1.976c-1.818-2.271-1.449-5.587,0.822-7.405
		L324.257,78.14c2.272-1.818,5.588-1.449,7.405,0.822c1.818,2.271,1.449,5.587-0.822,7.405L203.701,188.099
		C202.729,188.876,201.567,189.253,200.413,189.253z"/>
	<path style="fill:#FFFFFF;" d="M139.695,237.838c-1.545,0-3.077-0.677-4.118-1.976c-1.818-2.271-1.449-5.587,0.822-7.405
		l37.746-30.202c2.271-1.818,5.588-1.449,7.405,0.822c1.818,2.271,1.449,5.587-0.822,7.405l-37.746,30.202
		C142.012,237.461,140.849,237.838,139.695,237.838z"/>
	<path style="fill:#FFFFFF;" d="M145.09,281.739c-1.545,0-3.077-0.677-4.117-1.976c-1.818-2.271-1.449-5.587,0.822-7.405
		l139.02-111.241c2.272-1.818,5.588-1.449,7.405,0.822c1.818,2.271,1.449,5.587-0.822,7.405l-139.02,111.241
		C147.407,281.362,146.243,281.739,145.09,281.739z"/>
	<path style="fill:#FFFFFF;" d="M308.504,150.979c-1.545,0-3.077-0.677-4.117-1.976c-1.818-2.271-1.449-5.587,0.822-7.405
		l38.633-30.913c2.271-1.818,5.588-1.449,7.405,0.822c1.818,2.271,1.449,5.587-0.822,7.405l-38.633,30.913
		C310.821,150.602,309.659,150.979,308.504,150.979z"/>
	<path style="fill:#FFFFFF;" d="M194.705,378.134c-1.545,0-3.077-0.677-4.118-1.976c-1.818-2.272-1.449-5.587,0.822-7.405
		l54.543-43.641c2.272-1.818,5.588-1.449,7.405,0.822c1.818,2.272,1.449,5.587-0.822,7.405l-54.541,43.641
		C197.021,377.757,195.859,378.134,194.705,378.134z"/>
	<path style="fill:#FFFFFF;" d="M270.798,317.25c-1.545,0-3.077-0.677-4.118-1.976c-1.818-2.272-1.449-5.587,0.822-7.405
		l101.601-81.293c2.272-1.818,5.587-1.449,7.405,0.822c1.818,2.272,1.449,5.587-0.822,7.405l-101.601,81.293
		C273.115,316.873,271.953,317.25,270.798,317.25z"/>
</g>
<path style="fill:#D5A03C;" d="M256.005,406.39c-31.788,0-62.056-18.443-85.23-51.933c-24.333-35.163-37.732-82.186-37.732-132.404
	s13.4-97.241,37.732-132.404c23.174-33.489,53.442-51.933,85.23-51.933s62.056,18.443,85.23,51.932
	c24.332,35.164,37.732,82.186,37.732,132.405s-13.4,97.241-37.732,132.404C318.062,387.947,287.794,406.39,256.005,406.39z
	 M256.005,50.594c-27.435,0-53.943,16.472-74.64,46.383c-22.856,33.031-35.444,77.451-35.444,125.076s12.588,92.045,35.444,125.076
	c20.696,29.91,47.204,46.383,74.64,46.383c27.436,0,53.943-16.472,74.64-46.383c22.856-33.031,35.444-77.452,35.444-125.076
	s-12.588-92.045-35.444-125.076C309.949,67.066,283.44,50.594,256.005,50.594z"/>
</svg>