<?xml version="1.0" encoding="iso-8859-1"?>
<!-- Generator: Adobe Illustrator 19.0.0, SVG Export Plug-In . SVG Version: 6.00 Build 0)  -->
<svg version="1.1" id="Capa_1" xmlns="http://www.w3.org/2000/svg" xmlns:xlink="http://www.w3.org/1999/xlink" x="0px" y="0px"
	 viewBox="0 0 512.001 512.001" style="enable-background:new 0 0 512.001 512.001;" xml:space="preserve">
<path style="fill:#F5D7B7;" d="M484.9,192.28c-16.734-7.803-35.171-5.667-46.976,4.06c-3.105,2.559-7.382,3.149-11.089,1.584
	c-43.172-18.223-103.981-44.098-157.228-68.927c-53.039-24.733-111.697-54.546-153.378-75.888c-3.792-1.941-6.335-5.77-6.405-10.029
	c-0.251-15.209-10.445-30.571-27.082-38.329C60.644-5.554,35.564,1.461,26.725,20.417C23.189,28,22.788,36.345,24.994,44.289
	c1.14,4.107-0.847,8.368-4.726,10.135C12.765,57.84,6.63,63.51,3.094,71.093c-8.84,18.957,1.908,42.678,24.006,52.982
	c16.547,7.716,34.758,5.714,46.576-3.736c3.39-2.711,7.964-3.397,11.963-1.708c43.143,18.212,103.702,43.989,156.754,68.727
	c53.24,24.826,112.14,54.772,153.85,76.129c3.671,1.88,5.866,5.665,5.934,9.788c0.251,15.209,10.445,30.571,27.082,38.329
	c22.098,10.304,47.177,3.29,56.017-15.667c3.743-8.028,3.973-16.909,1.316-25.265c-1.057-3.324,0.581-6.837,3.807-8.164
	c8.108-3.335,14.765-9.22,18.508-17.247C517.746,226.305,506.998,202.585,484.9,192.28z"/>
<path style="opacity:0.1;enable-background:new    ;" d="M484.9,192.28c-16.734-7.803-35.171-5.667-46.976,4.06
	c-3.105,2.559-7.382,3.149-11.089,1.584c-43.172-18.223-103.981-44.098-157.228-68.927
	c-53.039-24.733-111.697-54.546-153.378-75.888c-3.792-1.941-6.335-5.77-6.405-10.029c-0.251-15.209-10.445-30.571-27.082-38.329
	C60.644-5.554,35.564,1.461,26.725,20.417C23.189,28,22.788,36.345,24.994,44.289c1.14,4.107-0.847,8.368-4.726,10.135
	C12.765,57.84,6.63,63.51,3.094,71.093c-8.84,18.957,1.908,42.678,24.006,52.982c16.547,7.716,34.758,5.714,46.576-3.736
	c3.39-2.711,7.964-3.397,11.963-1.708c43.143,18.212,103.702,43.989,156.754,68.727c53.24,24.826,112.14,54.772,153.85,76.129
	c3.671,1.88,5.866,5.665,5.934,9.788c0.251,15.209,10.445,30.571,27.082,38.329c22.098,10.304,47.177,3.29,56.017-15.667
	c3.743-8.028,3.973-16.909,1.316-25.265c-1.057-3.324,0.581-6.837,3.807-8.164c8.108-3.335,14.765-9.22,18.508-17.247
	C517.746,226.305,506.998,202.585,484.9,192.28z"/>
<g style="opacity:0.05;">
	<path d="M321.901,201.01c-1.008,0-2.031-0.204-3.013-0.635c-4.139-1.818-18.026-7.942-22.97-10.413
		c-3.705-1.852-5.207-6.357-3.355-10.062s6.356-5.207,10.063-3.355c3.08,1.54,11.624,5.409,22.296,10.097
		c3.792,1.666,5.516,6.091,3.85,9.883C327.537,199.335,324.786,201.01,321.901,201.01z"/>
</g>
<path style="fill:#F5D7B7;" d="M428.487,381.991c-14.652-14.652-37.804-15.985-53.153-6.634c-3.483,2.122-7.928,1.793-11.072-0.805
	c-73.374-60.629-179.375-161.524-239.287-224.484c-3.7-3.889-4.804-9.557-2.886-14.57c5.459-14.264,1.328-32.401-11.717-45.446
	c-16.901-16.901-42.356-18.848-56.855-4.35c-5.443,5.443-8.567,12.431-9.453,19.93c-0.584,4.943-4.433,8.792-9.376,9.376
	c-7.499,0.885-14.487,4.009-19.93,9.453c-14.499,14.499-12.552,39.954,4.35,56.855c13.045,13.045,31.182,17.176,45.446,11.717
	c5.013-1.919,10.681-0.815,14.57,2.886C142.086,255.83,242.981,361.83,303.61,435.205c2.598,3.144,2.927,7.589,0.805,11.072
	c-9.351,15.349-8.017,38.501,6.634,53.153c16.901,16.901,39.594,16.087,54.093,1.588c1.976-1.976,3.695-4.106,5.15-6.352
	c1.722-2.658,4.831-4.021,7.958-3.519c11.413,1.832,22.853-1.952,31.427-10.527c8.574-8.574,12.359-20.014,10.527-31.427
	c-0.502-3.127,0.86-6.236,3.518-7.958c2.246-1.455,4.376-3.173,6.353-5.15C444.574,421.585,445.389,398.892,428.487,381.991z"/>
<g style="opacity:0.05;">
	<path d="M158.291,225.534c-1.472,0-2.957-0.432-4.26-1.332c-2.5-1.729-24.171-23.668-28.139-27.798
		c-2.87-2.987-2.774-7.735,0.212-10.604c2.986-2.87,7.734-2.775,10.604,0.212c7.436,7.739,23.968,24.167,26.174,26.086
		c3.139,2.421,3.864,6.904,1.583,10.202C163.011,224.405,160.67,225.534,158.291,225.534z M162.565,211.865
		c0.088,0.061,0.174,0.124,0.259,0.188C162.716,211.969,162.627,211.909,162.565,211.865z"/>
	<path d="M281.394,375.648c-1.482,0-2.979-0.438-4.287-1.352c-2.638-1.842-24.904-24.693-25.125-24.921
		c-2.882-2.976-2.806-7.724,0.17-10.605c2.975-2.881,7.723-2.806,10.605,0.17c8.79,9.076,21.384,21.649,23.256,23.293
		c3.128,2.435,3.832,6.921,1.536,10.209C286.091,374.53,283.761,375.648,281.394,375.648z M285.694,361.999
		c0.089,0.062,0.175,0.125,0.26,0.19C285.847,362.104,285.758,362.043,285.694,361.999z"/>
</g>
<path style="opacity:0.05;enable-background:new    ;" d="M311.049,499.429c16.901,16.901,39.594,16.087,54.093,1.588
	c1.976-1.976,3.695-4.106,5.15-6.352c1.722-2.659,4.831-4.021,7.959-3.519c11.413,1.832,22.852-1.953,31.427-10.527
	c4.331-4.331,7.436-9.395,9.216-14.816c-13.585,11.72-32.261,11.639-47.173,6.173c-2.781-1.019-5.811-1.047-8.633-0.152
	c-21.891,6.941-39.834-7.342-37.989-31.159c0.271-3.495-0.768-6.959-3.046-9.625c-30.181-35.318-208.637-224.512-240.726-257.059
	c-2.234-2.265-5.255-3.587-8.436-3.675c-45.492-1.261-47.972-31.723-45.571-53.612c-4.661,1.594-8.953,4.16-12.559,7.766
	c-14.499,14.499-12.552,39.954,4.35,56.855c13.046,13.046,31.184,17.176,45.45,11.715c5.011-1.919,10.677-0.815,14.564,2.884
	c62.963,59.914,163.865,165.922,224.494,239.298c2.594,3.139,2.923,7.578,0.804,11.054
	C295.063,461.616,296.394,484.775,311.049,499.429z"/>
<g>
</g>
<g>
</g>
<g>
</g>
<g>
</g>
<g>
</g>
<g>
</g>
<g>
</g>
<g>
</g>
<g>
</g>
<g>
</g>
<g>
</g>
<g>
</g>
<g>
</g>
<g>
</g>
<g>
</g>
</svg>
