<?xml version="1.0" encoding="UTF-8"?>
<!DOCTYPE svg PUBLIC "-//W3C//DTD SVG 1.1//EN" "http://www.w3.org/Graphics/SVG/1.1/DTD/svg11.dtd">
<svg xmlns="http://www.w3.org/2000/svg" version="1.1" width="512px" height="512px" style="shape-rendering:geometricPrecision; text-rendering:geometricPrecision; image-rendering:optimizeQuality; fill-rule:evenodd; clip-rule:evenodd" xmlns:xlink="http://www.w3.org/1999/xlink">
<g><path style="opacity:0.995" fill="#e9931e" d="M 43.5,-0.5 C 48.8333,-0.5 54.1667,-0.5 59.5,-0.5C 84.9418,5.10993 100.108,20.7766 105,46.5C 105.829,66.3376 105.662,86.0043 104.5,105.5C 83.8306,105.667 63.164,105.5 42.5,105C 20.0949,99.4267 5.76152,85.5933 -0.5,63.5C -0.5,56.5 -0.5,49.5 -0.5,42.5C 5.61414,19.3856 20.2808,5.05224 43.5,-0.5 Z"/></g>
<g><path style="opacity:0.993" fill="#e6ba19" d="M 59.5,-0.5 C 160.833,-0.5 262.167,-0.5 363.5,-0.5C 389.069,6.90921 403.235,23.9092 406,50.5C 406.5,168.833 406.667,287.166 406.5,405.5C 325.833,405.333 245.166,405.5 164.5,406C 192.893,411.559 208.559,428.726 211.5,457.5C 209.309,487.35 193.643,505.35 164.5,511.5C 158.833,511.5 153.167,511.5 147.5,511.5C 121.931,504.091 107.765,487.091 105,460.5C 104.5,342.167 104.333,223.834 104.5,105.5C 105.662,86.0043 105.829,66.3376 105,46.5C 100.108,20.7766 84.9418,5.10993 59.5,-0.5 Z"/></g>
<g><path style="opacity:1" fill="#36495d" d="M 145.5,70.5 C 165.836,70.3334 186.169,70.5 206.5,71C 213.394,76.8414 213.061,82.1747 205.5,87C 185.5,87.6667 165.5,87.6667 145.5,87C 138.899,81.5041 138.899,76.0041 145.5,70.5 Z"/></g>
<g><path style="opacity:1" fill="#dd4d3c" d="M 299.5,135.5 C 291.918,131.375 283.918,128.375 275.5,126.5C 263.343,121.762 251.01,121.429 238.5,125.5C 228.951,127.445 219.951,130.779 211.5,135.5C 224.447,113.776 237.78,92.2764 251.5,71C 256.117,69.703 259.95,70.8697 263,74.5C 275.178,94.861 287.345,115.194 299.5,135.5 Z"/></g>
<g><path style="opacity:1" fill="#36495d" d="M 304.5,70.5 C 324.503,70.3334 344.503,70.5 364.5,71C 372.5,76.3333 372.5,81.6667 364.5,87C 344.5,87.6667 324.5,87.6667 304.5,87C 297.899,81.5041 297.899,76.0041 304.5,70.5 Z"/></g>
<g><path style="opacity:1" fill="#3d8ec9" d="M 275.5,126.5 C 307.454,144.197 315.954,169.864 301,203.5C 297.917,208.588 294.083,213.088 289.5,217C 284.436,220.191 279.436,223.358 274.5,226.5C 268.078,227.951 261.578,228.951 255,229.5C 249.206,229.397 243.706,228.397 238.5,226.5C 210.554,214.288 199.054,192.954 204,162.5C 209.526,144.478 221.026,132.145 238.5,125.5C 251.01,121.429 263.343,121.762 275.5,126.5 Z"/></g>
<g><path style="opacity:1" fill="#e2e5e5" d="M 238.5,125.5 C 221.026,132.145 209.526,144.478 204,162.5C 199.054,192.954 210.554,214.288 238.5,226.5C 227.044,223.941 216.377,219.441 206.5,213C 196.425,206.425 187.092,198.925 178.5,190.5C 174.836,186.668 171.336,182.668 168,178.5C 167.333,176.833 167.333,175.167 168,173.5C 180.526,158.359 195.026,145.693 211.5,135.5C 219.951,130.779 228.951,127.445 238.5,125.5 Z"/></g>
<g><path style="opacity:1" fill="#e2e5e5" d="M 275.5,126.5 C 283.918,128.375 291.918,131.375 299.5,135.5C 314.987,145.701 329.154,157.701 342,171.5C 343.373,173.695 343.706,176.029 343,178.5C 339.664,182.668 336.164,186.668 332.5,190.5C 316.061,207.059 296.727,219.059 274.5,226.5C 279.436,223.358 284.436,220.191 289.5,217C 294.083,213.088 297.917,208.588 301,203.5C 315.954,169.864 307.454,144.197 275.5,126.5 Z"/></g>
<g><path style="opacity:1" fill="#e0e5e7" d="M 255.5,158.5 C 254.869,168.133 249.869,173.799 240.5,175.5C 228.061,176.226 221.395,170.393 220.5,158C 222.782,144.187 230.782,138.854 244.5,142C 251.536,145.236 255.203,150.736 255.5,158.5 Z"/></g>
<g><path style="opacity:1" fill="#354a5f" d="M 255.5,158.5 C 266.009,159.341 272.009,165.008 273.5,175.5C 270.845,190.333 262.178,195.833 247.5,192C 241.527,188.558 238.194,183.392 237.5,176.5C 238.791,176.737 239.791,176.404 240.5,175.5C 249.869,173.799 254.869,168.133 255.5,158.5 Z"/></g>
<g><path style="opacity:1" fill="#dd4d3c" d="M 178.5,190.5 C 187.092,198.925 196.425,206.425 206.5,213C 216.377,219.441 227.044,223.941 238.5,226.5C 243.706,228.397 249.206,229.397 255,229.5C 261.578,228.951 268.078,227.951 274.5,226.5C 296.727,219.059 316.061,207.059 332.5,190.5C 344.989,211.472 357.489,232.472 370,253.5C 370.959,257.421 369.792,260.588 366.5,263C 329.583,264.161 292.583,264.661 255.5,264.5C 218.417,264.661 181.417,264.161 144.5,263C 141.208,260.588 140.041,257.421 141,253.5C 153.511,232.472 166.011,211.472 178.5,190.5 Z"/></g>
<g><path style="opacity:1" fill="#394b5c" d="M 146.5,299.5 C 198.168,299.333 249.834,299.5 301.5,300C 308.148,302.47 309.981,306.97 307,313.5C 305.421,315.041 303.587,316.208 301.5,317C 249.833,317.667 198.167,317.667 146.5,317C 138.542,311.086 138.542,305.252 146.5,299.5 Z"/></g>
<g><path style="opacity:1" fill="#394b5c" d="M 332.5,299.5 C 342.839,299.334 353.172,299.5 363.5,300C 370.77,303.005 372.27,307.838 368,314.5C 366.581,315.46 365.081,316.293 363.5,317C 353.167,317.667 342.833,317.667 332.5,317C 326.911,314.549 325.078,310.383 327,304.5C 328.73,302.598 330.563,300.931 332.5,299.5 Z"/></g>
<g><path style="opacity:1" fill="#35495d" d="M 145.5,335.5 C 180.502,335.333 215.502,335.5 250.5,336C 255.535,339.013 256.702,343.18 254,348.5C 252.786,350.049 251.286,351.215 249.5,352C 215.167,352.667 180.833,352.667 146.5,352C 138.873,347.009 138.54,341.509 145.5,335.5 Z"/></g>
<g><path style="opacity:0.998" fill="#eacb5a" d="M 406.5,405.5 C 427.169,405.333 447.836,405.5 468.5,406C 491.351,411.685 505.685,425.852 511.5,448.5C 511.5,455.5 511.5,462.5 511.5,469.5C 505.055,491.612 490.722,505.612 468.5,511.5C 367.167,511.5 265.833,511.5 164.5,511.5C 193.643,505.35 209.309,487.35 211.5,457.5C 208.559,428.726 192.893,411.559 164.5,406C 245.166,405.5 325.833,405.333 406.5,405.5 Z"/></g>
</svg>
