<?xml version="1.0" encoding="iso-8859-1"?>
<!-- Generator: Adobe Illustrator 19.0.0, SVG Export Plug-In . SVG Version: 6.00 Build 0)  -->
<svg version="1.1" id="Capa_1" xmlns="http://www.w3.org/2000/svg" xmlns:xlink="http://www.w3.org/1999/xlink" x="0px" y="0px"
	 viewBox="0 0 512.001 512.001" style="enable-background:new 0 0 512.001 512.001;" xml:space="preserve">
<path style="fill:#F4A32C;" d="M465.692,508.926L276.09,368.829l-50.87,111.532c-3.085,6.762-10.312,10.382-17.577,8.806
	c-7.264-1.578-12.337-7.873-12.337-15.306V355.571L74.623,434.266c-6.349,4.14-14.48,3.241-19.773-2.187
	c-5.291-5.43-5.983-13.582-1.679-19.823l83.405-121.023l-66.166,1.664c-7.625,0.172-14.235-5.088-15.746-12.552
	c-1.511-7.466,2.538-14.904,9.627-17.688l59.93-23.535l-95.556-59.936c-6.339-3.973-8.986-11.926-6.29-18.908
	c2.693-6.982,10.004-11.097,17.363-9.78l110.552,19.699l-22.642-44.136c-3.379-6.593-1.754-14.494,3.948-19.215
	c5.704-4.721,13.767-4.843,19.611-0.296l39.204,30.528l-4.707-120.802c-0.294-7.59,4.876-14.28,12.293-15.907
	c7.414-1.631,14.912,2.28,17.825,9.293l49.906,120.28L297.15,87.65c4.501-6.058,12.414-8.046,19.242-4.833
	c6.829,3.214,10.342,10.577,8.543,17.908l-11.14,45.373l130.67-71.476c6.628-3.625,14.9-2.003,19.668,3.859
	c4.767,5.862,4.671,14.289-0.228,20.041l-96.676,113.523l87.821,4.185c16.539,0.789,20.659,23.465,5.463,30.026l-104.376,45.033
	l131.866,196.306c4.26,6.342,3.345,14.776-2.177,20.057C480.334,512.899,471.869,513.49,465.692,508.926z"/>
<path style="fill:#E89528;" d="M197.999,0.368c-7.418,1.628-12.587,8.317-12.293,15.908l4.707,120.802l-39.204-30.528
	c-5.844-4.547-13.905-4.426-19.611,0.297c-5.703,4.72-7.326,12.621-3.948,19.214l22.642,44.136L39.738,150.498
	c-7.36-1.317-14.67,2.799-17.363,9.78c-2.695,6.983-0.048,14.936,6.29,18.908l95.556,59.936l-59.93,23.535
	c-7.088,2.784-11.138,10.222-9.627,17.687c1.511,7.464,8.121,12.725,15.745,12.552l66.167-1.664L53.171,412.256
	c-4.302,6.242-3.612,14.393,1.679,19.824c5.293,5.429,13.424,6.326,19.773,2.186l120.682-78.695v0.23l37.238-51.58l40.697-140.803
	c-0.775-19.885-7.512-33.476-7.512-33.476L215.824,9.663C212.911,2.649,205.412-1.262,197.999,0.368z"/>
<path style="fill:#F7E7A1;" d="M281.136,339.751L431.58,450.915L327.041,295.291c-5.46-8.12-2.211-19.225,6.792-23.115
	l73.699-31.797l-63.366-3.02c-12.991-0.622-19.614-15.901-11.176-25.804l73.148-85.896l-101.045,55.271
	c-5.445,2.978-12.143,2.458-17.064-1.325c-4.921-3.782-7.145-10.123-5.665-16.151l4.278-17.422l-11.003,14.809
	c-7.238,9.74-22.384,7.882-27.039-3.336l-34.202-82.428l3.274,84.019c0.236,6.064-3.099,11.773-8.5,14.544
	c-5.401,2.771-11.985,2.154-16.774-1.575l-19.146-14.908l10.382,20.237c5.91,11.518-3.931,24.84-16.68,22.571L89.423,186.15
	l66.823,41.913c5.037,3.157,7.825,8.799,7.272,14.723c-0.551,5.923-4.335,10.953-9.871,13.126l-23.123,9.081l26.43-0.665
	c5.895-0.136,11.348,2.995,14.167,8.203c2.819,5.207,2.482,11.471-0.879,16.346l-64.508,93.605l91.737-59.821
	c4.823-3.141,10.959-3.391,16.018-0.651c5.059,2.741,8.201,8.019,8.201,13.772v88.74l35.884-78.675
	c1.971-4.319,5.735-7.476,10.329-8.664C272.477,335.999,277.304,336.919,281.136,339.751z"/>
<path style="fill:#F4D44E;" d="M105.733,382.481l91.737-59.821c4.823-3.141,10.959-3.391,16.018-0.651
	c1.687,0.915,3.155,2.116,4.371,3.518l14.684-21.307c2.957-4.289,3.253-9.8,0.774-14.382c-2.48-4.583-7.279-7.337-12.466-7.217
	l-23.255,0.585l20.344-7.99c4.872-1.913,8.2-6.339,8.685-11.549c0.486-5.212-1.967-10.176-6.399-12.954l-58.796-36.879
	l68.221,12.156c11.218,1.997,19.876-9.725,14.676-19.859l-9.135-17.806l16.846,13.118c4.214,3.281,10.008,3.825,14.759,1.387
	c4.751-2.439,7.687-7.463,7.479-12.797l-1.037-26.613c-7.773,6.691-20.45,4.18-24.64-5.912l-34.199-82.429l3.274,84.019
	c0.236,6.064-3.099,11.773-8.5,14.544c-5.401,2.771-11.985,2.154-16.774-1.575l-19.146-14.908l10.382,20.237
	c5.91,11.519-3.931,24.84-16.68,22.571L89.423,186.15l66.823,41.913c5.037,3.157,7.824,8.799,7.272,14.723
	c-0.552,5.922-4.335,10.952-9.871,13.126l-23.123,9.081l26.43-0.665c5.895-0.136,11.348,2.995,14.167,8.203
	c2.82,5.207,2.482,11.471-0.879,16.345L105.733,382.481z"/>
<g>
</g>
<g>
</g>
<g>
</g>
<g>
</g>
<g>
</g>
<g>
</g>
<g>
</g>
<g>
</g>
<g>
</g>
<g>
</g>
<g>
</g>
<g>
</g>
<g>
</g>
<g>
</g>
<g>
</g>
</svg>
