<?xml version="1.0" encoding="iso-8859-1"?>
<!-- Generator: Adobe Illustrator 19.0.0, SVG Export Plug-In . SVG Version: 6.00 Build 0)  -->
<svg version="1.1" id="Layer_1" xmlns="http://www.w3.org/2000/svg" xmlns:xlink="http://www.w3.org/1999/xlink" x="0px" y="0px"
	 viewBox="0 0 280.028 280.028" style="enable-background:new 0 0 280.028 280.028;" xml:space="preserve">
<g>
	<path style="fill:#324D5B;" d="M175.017,13.118H105.01c-9.661,0-17.502,7.841-17.502,17.502v26.253h17.502V39.37
		c0-4.83,3.912-8.751,8.751-8.751h52.505c4.839,0,8.751,3.92,8.751,8.751v17.502h17.502V30.619
		C192.519,20.967,184.678,13.118,175.017,13.118z"/>
	<path style="fill:#E2574C;" d="M17.502,56.881h245.024c9.661,0,17.502,7.841,17.502,17.51v175.017
		c0,9.661-7.841,17.502-17.502,17.502H17.502C7.841,266.91,0,259.069,0,249.408V74.391C0,64.721,7.841,56.881,17.502,56.881z"/>
	<path style="fill:#FFFFFF;" d="M183.768,144.38h-26.253v-26.235c0-4.839-3.912-8.768-8.751-8.768h-17.502
		c-4.839,0-8.751,3.929-8.751,8.768v26.235H96.259c-4.839,0-8.751,3.929-8.751,8.751v17.502c0,4.848,3.912,8.768,8.751,8.768h26.253
		v26.235c0,4.848,3.912,8.751,8.751,8.751h17.502c4.839,0,8.751-3.903,8.751-8.751v-26.235h26.253c4.839,0,8.751-3.92,8.751-8.768
		v-17.502C192.519,148.318,188.607,144.38,183.768,144.38z"/>
	<g>
		<path style="fill:#BF392C;" d="M17.502,56.881C7.841,56.881,0,64.721,0,74.391v43.746l61.256-61.256
			C61.256,56.881,17.502,56.881,17.502,56.881z M17.414,266.901h43.842L0,205.636v43.772C0,259.043,7.788,266.857,17.414,266.901z
			 M262.526,56.881h-43.754l61.256,61.256V74.391C280.027,64.721,272.187,56.881,262.526,56.881z M262.613,266.901
			c9.626-0.053,17.414-7.858,17.414-17.493v-43.772l-61.256,61.265H262.613z"/>
	</g>
</g>
<g>
</g>
<g>
</g>
<g>
</g>
<g>
</g>
<g>
</g>
<g>
</g>
<g>
</g>
<g>
</g>
<g>
</g>
<g>
</g>
<g>
</g>
<g>
</g>
<g>
</g>
<g>
</g>
<g>
</g>
</svg>
