<svg height="512" viewBox="0 0 58 58" width="512" xmlns="http://www.w3.org/2000/svg"><g id="Page-1" fill="none" fill-rule="evenodd"><g id="062---bomb-message" fill-rule="nonzero"><path id="Shape" d="m38.45 7-6.9-6c-1.4811489-1.21991279-3.6188511-1.21991279-5.1 0l-6.9 6-12.55 10.91-7 6.09v30c0 2.209139 1.790861 4 4 4h50c2.209139 0 4-1.790861 4-4v-30l-7-6.09z" fill="#f29c1f"/><path id="Shape" d="m58 24v30c0 2.209139-1.790861 4-4 4h-.83l-18.04-15.07 15.87-13.14z" fill="#f0c419"/><path id="Shape" d="m53.17 58h-48.34l18.04-15.07 2.94 2.43c1.8515138 1.529913 4.5284862 1.529913 6.38 0l2.94-2.43z" fill="#f3d55b"/><path id="Shape" d="m22.87 42.93-18.04 15.07h-.83c-2.209139 0-4-1.790861-4-4v-30l7 5.79z" fill="#f0c419"/><path id="Shape" d="m51 11v18.79l-15.87 13.14-2.94 2.43c-1.8515138 1.529913-4.5284862 1.529913-6.38 0l-2.94-2.43-15.87-13.14v-18.79c0-2.209139 1.790861-4 4-4h36c2.209139 0 4 1.790861 4 4z" fill="#ecf0f1"/><path id="Shape" d="m15.754 18.878c-.058 0-.115 0-.173 0-1.0492588-.084995-1.9823724-.700156-2.474-1.631-.1638245-.319404-.1438828-.7021122.0522505-1.0027599.1961333-.3006478.5383641-.4731045.8967023-.4518657s.6778013.2329144.8370472.5546256c.1710014.2986971.4740218.4981112.816.537.481 0 1.823-.318 4.122-3.821 1.542-2.35 3.273-3.545 5.145-3.552h.016c2.846 0 4.76 2.821 4.84 2.941.3070703.4592248.1837247 1.0804297-.2755 1.3875-.4592248.3070703-1.0804297.1837248-1.3875-.2755-.033-.048-1.45-2.062-3.193-2.053-1.157.008-2.325.9-3.474 2.649-2.084 3.169-3.966 4.718-5.748 4.718z" fill="#a59078"/><path id="Shape" d="m26 17.42v-2.42c.0032948-1.1032019.8967981-1.9967052 2-2h2c1.1032019.0032948 1.9967052.8967981 2 2v2.42z" fill="#7f8284"/><circle id="Oval" cx="29" cy="28" fill="#393f4a" r="11"/><path id="Shape" d="m22.269 27.077c-.0933548-.0002581-.1862287-.0133816-.276-.039-.5305869-.152078-.8376249-.7052834-.686-1.236.6201252-2.1529112 2.1110735-3.9490815 4.113-4.955.3192168-.1607695.6999548-.1390265.9987937.0570386s.4703779.5366653.45.8935c-.0203779.3568346-.2295769.6756919-.5487937.8364614-1.5027658.7549862-2.6221137 2.1030609-3.088 3.719-.1232803.4293211-.5163301.7248227-.963.724z" fill="#bdc3c7"/></g></g></svg>