<?xml version="1.0" encoding="iso-8859-1"?>
<!-- Uploaded to: SVG Repo, www.svgrepo.com, Generator: SVG Repo Mixer Tools -->
<svg height="800px" width="800px" version="1.1" id="Layer_1" xmlns="http://www.w3.org/2000/svg" xmlns:xlink="http://www.w3.org/1999/xlink" 
	 viewBox="0 0 511.999 511.999" xml:space="preserve">
<path style="fill:#808080;" d="M457.102,213.106c28.301,31.905,45.478,73.892,45.478,119.898c0,59.039-28.289,111.473-72.072,144.47
	c-9.04,6.805-20.102,10.371-31.428,10.371h-131.55c11.326,0,22.387-3.566,31.428-10.384c43.77-32.997,72.072-85.419,72.072-144.458
	c0-46.005-17.189-87.993-45.478-119.898v-60.859c30.624,0.628,59.378,8.865,84.44,22.902v-45.918
	c0-32.671-26.569-59.227-59.227-59.227h-43.218h-0.013c-12.38-18.432-30.373-32.771-51.53-40.569
	c11.464-4.231,23.844-6.542,36.777-6.542h57.984c58.737,0,106.337,47.613,106.337,106.337V213.106z"/>
<path style="fill:#999999;" d="M256.004,164.552h0.013c7.747,3.026,15.243,6.567,22.425,10.597V157.42v-28.188
	c0-18.771-8.777-35.534-22.438-46.395c-10.12-8.023-22.902-12.832-36.789-12.832h-14.741h-43.243
	c-32.658,0-59.214,26.569-59.214,59.227v45.918c25.062-14.038,53.815-22.287,84.427-22.902c1.256-0.038,2.511-0.05,3.779-0.05
	c14.942,0,29.457,1.808,43.344,5.236C241.251,159.316,248.734,161.701,256.004,164.552z M325.552,213.106
	c28.289,31.905,45.478,73.892,45.478,119.898c0,59.039-28.301,111.46-72.072,144.458c-9.04,6.818-20.102,10.384-31.428,10.384
	h-23.065h-131.55c-11.313,0-22.387-3.566-31.428-10.384c-43.77-32.997-72.072-85.419-72.072-144.458
	c0-46.005,17.189-87.993,45.491-119.898v-83.875c0-58.725,47.6-106.337,106.325-106.337h57.984c12.92,0,25.313,2.31,36.777,6.542
	c0,0,0,0,0.013,0c21.157,7.797,39.15,22.136,51.53,40.569c11.376,16.926,18.018,37.292,18.018,59.227v23.015V213.106z
	 M276.86,336.193c0-30.511-38.786-55.247-86.637-55.247s-86.637,24.735-86.637,55.247c0,30.511,38.786,55.247,86.637,55.247
	S276.86,366.704,276.86,336.193z"/>
<g>
	<path style="fill:#808080;" d="M278.442,157.42v17.729c-7.182-4.031-14.678-7.571-22.425-10.597
		C263.287,161.701,270.758,159.328,278.442,157.42z"/>
	<path style="fill:#808080;" d="M256.004,82.837l-0.013,0.013c-13.661,10.848-22.425,27.611-22.425,46.382v28.188v0.013
		c-13.887-3.428-28.402-5.236-43.344-5.236c-1.268,0-2.524,0.013-3.779,0.05v-23.015c0-21.923,6.642-42.301,18.031-59.227h14.741
		C233.102,70.004,245.884,74.813,256.004,82.837z"/>
</g>
<ellipse style="fill:#B3B3B3;" cx="190.224" cy="336.188" rx="86.637" ry="55.247"/>
<path style="fill:#999999;" d="M190.223,280.946c-5.802,0-11.467,0.37-16.951,1.065c39.732,5.026,69.686,27.371,69.686,54.182
	c0,26.811-29.954,49.156-69.686,54.182c5.483,0.693,11.149,1.065,16.951,1.065c47.851,0,86.637-24.735,86.637-55.247
	S238.074,280.946,190.223,280.946z"/>
<path style="fill:#808080;" d="M79.767,332.966c0-87.796,62.593-160.963,145.586-177.337c-11.366-2.244-23.107-3.433-35.131-3.433
	c-1.268,0-2.524,0.013-3.779,0.05c-30.612,0.615-59.365,8.865-84.427,22.902v-45.918c0-32.658,26.556-59.227,59.214-59.227h43.243
	h14.741c13.887,0,26.669,4.809,36.789,12.832c13.661,10.861,22.438,27.623,22.438,46.395v23.846
	c16.452,1.617,32.253,5.446,47.11,11.175v-12.006v-23.015c0-21.935-6.642-42.301-18.018-59.227
	c-12.38-18.432-30.373-32.771-51.53-40.569c-0.013,0-0.013,0-0.013,0c-11.464-4.231-23.857-6.542-36.777-6.542h-57.984
	c-58.725,0-106.325,47.613-106.325,106.337v83.875C26.605,245.011,9.416,286.998,9.416,333.004
	c0,59.039,28.301,111.46,72.072,144.458c9.04,6.818,20.115,10.384,31.428,10.384h54.36C114.835,456.2,79.767,398.681,79.767,332.966
	z"/>
<g>
	<path style="fill:#333333;" d="M466.518,210.216v-80.354c0-63.826-51.927-115.754-115.753-115.754h-57.979
		c-12.626,0-24.979,2.03-36.784,5.992c-11.563-3.886-23.934-5.996-36.789-5.996h-57.978c-63.826,0-115.752,51.926-115.752,115.752
		v80.356C16.127,244.613,0,288.297,0,333.629C0,364,6.947,393.028,20.65,419.906c13.065,25.627,32.144,48.348,55.174,65.71
		c10.504,7.919,23.676,12.28,37.091,12.28h154.619c0.04,0,0.08-0.003,0.121-0.003h131.428c13.425,0,26.599-4.358,37.089-12.27
		c23.034-17.36,42.116-40.083,55.179-65.711c13.701-26.876,20.648-55.906,20.648-86.282
		C512,288.284,495.874,244.603,466.518,210.216z M87.16,470.576c-43.423-32.732-68.326-82.647-68.326-136.947
		c0-41.931,15.311-82.291,43.113-113.647c1.527-1.723,2.371-3.945,2.371-6.248v-83.878c0-53.441,43.477-96.918,96.918-96.918h57.978
		c53.441,0,96.918,43.477,96.918,96.918v83.878c0,2.302,0.844,4.525,2.371,6.248c27.802,31.355,43.114,71.716,43.114,113.647
		c0,54.3-24.904,104.214-68.326,136.947l0,0c-7.242,5.459-16.364,8.469-25.692,8.482H244.47v0.003H112.914
		C103.565,479.061,94.419,476.048,87.16,470.576z M323.689,80.053h27.075c27.464,0,49.807,22.344,49.807,49.809v30.605
		c-20.613-9.372-42.917-15.017-65.608-16.593v-14.019C334.964,112.036,330.914,95.147,323.689,80.053z M424.835,470.583
		c-7.246,5.466-16.392,8.475-25.751,8.475h-86.253c19.365-16.366,35.49-36.636,46.969-59.152
		c13.701-26.879,20.65-55.907,20.65-86.278c0-45.332-16.127-89.016-45.484-123.417v-47.447c24.722,1.906,48.89,9.163,70.422,21.231
		c1.431,0.802,3.017,1.203,4.604,1.203c1.646,0,3.292-0.431,4.761-1.292c2.884-1.69,4.656-4.783,4.656-8.125v-45.919
		c0-37.85-30.792-68.643-68.642-68.643H312.36c-8.032-10.872-17.92-20.292-29.19-27.793c3.18-0.311,6.387-0.485,9.619-0.485h57.979
		c53.442,0,96.919,43.478,96.919,96.92v83.877c0,2.303,0.844,4.526,2.372,6.249c27.799,31.339,43.109,71.698,43.109,113.64
		C493.166,387.935,468.261,437.853,424.835,470.583z"/>
	<path style="fill:#333333;" d="M97.249,183.904c1.469,0.861,3.115,1.292,4.761,1.292c1.585,0,3.172-0.399,4.602-1.202
		c25.413-14.234,54.326-21.757,83.612-21.757s58.199,7.524,83.613,21.757c2.917,1.634,6.479,1.598,9.363-0.092
		c2.883-1.69,4.656-4.783,4.656-8.125v-45.924c0-37.85-30.793-68.643-68.643-68.643h-57.978c-37.849,0-68.642,30.792-68.642,68.643
		v45.924C92.593,179.122,94.365,182.214,97.249,183.904z M269.021,129.855v20.987c-4.425,1.278-8.774,2.716-13.028,4.287
		c-4.285-1.576-8.627-2.992-13.016-4.255v-21.013c0-12.574,4.676-24.43,13.023-33.547
		C264.084,105.173,269.021,116.948,269.021,129.855z M240.864,85.005c-10.729,12.366-16.72,28.148-16.72,44.857v16.605
		c-9.317-1.686-18.77-2.689-28.278-2.972v-13.633c0-17.694,4.763-34.809,13.79-49.815h9.556
		C226.967,80.047,234.314,81.83,240.864,85.005z M111.428,129.855c0-27.465,22.344-49.809,49.807-49.809h27.042
		c-7.389,15.46-11.245,32.407-11.245,49.815v14.018c-22.7,1.58-44.97,7.202-65.604,16.587
		C111.428,160.466,111.428,129.855,111.428,129.855z"/>
	<path style="fill:#333333;" d="M256.549,383.831c19.171-12.226,29.729-28.919,29.729-47.006c0-18.087-10.558-34.78-29.729-47.006
		c-17.857-11.387-41.411-17.658-66.325-17.658s-48.468,6.272-66.325,17.658c-19.171,12.226-29.729,28.92-29.729,47.006
		s10.558,34.78,29.729,47.006c17.857,11.387,41.411,17.658,66.325,17.658S238.692,395.218,256.549,383.831z M113.005,336.825
		c0-24.842,35.363-45.83,77.22-45.83s77.22,20.987,77.22,45.83c0,24.842-35.363,45.83-77.22,45.83S113.005,361.667,113.005,336.825z
		"/>
</g>
</svg>