<svg height="512pt" viewBox="0 0 512 512" width="512pt" xmlns="http://www.w3.org/2000/svg"><path d="m396.699219 126.699219c-40.5 42-69 92.699219-84 147.601562-1.199219 5.097657 12.601562 10.199219 11.402343 15.296875-1.203124 4.5-17.101562 9.300782-17.703124 14.101563-1.5 8.101562-2.699219 16.5-3.597657 24.898437-.902343 9.902344-1.5 20.101563-1.800781 30.300782v123.101562h-90v-123.101562c-.300781-10.199219-.902344-20.398438-1.800781-30.296876-.902344-8.402343-2.101563-16.5-3.601563-24.902343-.601562-5.097657-16.796875-9.898438-17.699218-14.699219-1.199219-4.800781 12.300781-9.601562 11.097656-14.398438-14.699219-55.503906-43.496094-106.203124-84.296875-148.5l-24.601563-25.5 165.902344.296876 165.300781.300781zm0 0" fill="#fdbf00"/><path d="m396.699219 126.699219c-40.5 42-69 92.699219-84 147.601562-1.199219 5.097657 12.601562 10.199219 11.402343 15.296875-1.203124 4.5-17.101562 9.300782-17.703124 14.101563-1.5 8.101562-2.699219 16.5-3.597657 24.898437-.902343 9.902344-1.5 20.101563-1.800781 30.300782v123.101562h-45v-381.101562l165.300781.300781zm0 0" fill="#ff9f00"/><path d="m436 512h-360c0-30.601562 24-57 54.300781-59.699219l7.800781-.902343 3.898438-6.597657c7.800781-13.800781 23.398438-22.800781 39.300781-22.800781 3.300781 0 6.597657.597656 9.898438 1.199219l9.902343 2.402343 6-8.101562c11.398438-15.898438 29.699219-25.5 48.898438-25.5s37.5 9.601562 48.898438 25.5l6 8.101562 9.902343-2.402343c3.300781-.601563 6.597657-1.199219 9.898438-1.199219 15.902343 0 31.5 9 39.300781 22.800781l3.898438 6.597657 7.800781.902343c30.300781 2.699219 54.300781 29.097657 54.300781 59.699219zm0 0" fill="#ffd400"/><path d="m391 316c0 28.5-50.097656 39-90 42.898438-20.097656 1.800781-37.5 2.101562-45 2.101562s-24.902344-.300781-45-2.101562c-39.902344-3.898438-90-14.398438-90-42.898438 0-21 26.101562-35.101562 78-41.398438 2.699219 9.597657 5.101562 19.199219 6.601562 29.097657-27.601562 3.300781-43.203124 8.699219-50.402343 12.300781 8.699219 4.5 27 9.601562 54 12.597656 13.5 1.5 29.101562 2.402344 46.800781 2.402344s33.300781-.902344 46.800781-2.402344c27-2.996094 45.300781-8.101562 54-12.597656-7.199219-3.601562-22.800781-9-50.402343-12.300781 1.5-9.898438 3.902343-19.800781 6.300781-29.398438 51.902343 6.597657 78.300781 20.699219 78.300781 41.699219zm0 0" fill="#ffd400"/><path d="m445.601562 90.300781c-12.300781-35.699219-45.601562-60.300781-84.601562-60.300781-9.300781 0-18.601562 1.5-27.597656 4.5-19.804688-21.902344-48.003906-34.5-77.402344-34.5s-57.597656 12.597656-77.402344 34.5c-8.996094-3-18.296875-4.5-27.597656-4.5-39 0-72.300781 24.601562-84.601562 60.300781-35.097657-3.300781-66.398438 25.898438-66.398438 60.699219 0 33 27 60 60 60 15 0 30.097656-5.398438 40.902344-15.300781 29.398437 19.800781 70.496094 20.101562 100.496094-.300781 16.5 10.203124 35.402343 15.300781 54.601562 15.300781s38.101562-5.097657 54.601562-15.300781c29.699219 20.402343 71.097657 20.101562 100.496094.300781 10.804688 9.902343 25.902344 15.300781 40.902344 15.300781 33 0 60-27 60-60 0-34.800781-31.300781-64-66.398438-60.699219zm0 0" fill="#ffd400"/><g fill="#fdbf00"><path d="m301 358.898438c-20.097656 1.800781-37.5 2.101562-45 2.101562v-30c17.699219 0 33.300781-.902344 46.800781-2.402344 27-2.996094 45.300781-8.101562 54-12.597656-7.199219-3.601562-22.800781-9-50.402343-12.300781 1.5-9.898438 3.902343-19.800781 6.300781-29.398438 51.902343 6.597657 78.300781 20.699219 78.300781 41.699219 0 28.5-50.097656 39-90 42.898438zm0 0"/><path d="m436 512h-180v-120c19.199219 0 37.5 9.601562 48.898438 25.5l6 8.101562 9.902343-2.402343c3.300781-.601563 6.597657-1.199219 9.898438-1.199219 15.902343 0 31.5 9 39.300781 22.800781l3.898438 6.597657 7.800781.902343c30.300781 2.699219 54.300781 29.097657 54.300781 59.699219zm0 0"/><path d="m512 151c0 33-27 60-60 60-15 0-30.097656-5.398438-40.902344-15.300781-29.398437 19.800781-70.796875 20.101562-100.496094-.300781-16.5 10.203124-35.402343 15.300781-54.601562 15.300781v-210.699219c29.398438 0 57.597656 12.597656 77.402344 34.5 8.996094-3 18.296875-4.5 27.597656-4.5 39 0 72.300781 24.601562 84.601562 60.300781 35.097657-3.300781 66.398438 25.898438 66.398438 60.699219zm0 0"/></g></svg>