<svg id="Capa_1" enable-background="new 0 0 510 510" height="512" viewBox="0 0 510 510" width="512" xmlns="http://www.w3.org/2000/svg"><path d="m495 240h-7.99c-7.37-116.44-100.42-209.63-217.01-217.01v-7.99c0-8.28-6.72-15-15-15s-15 6.72-15 15v7.99c-116.43 7.36-209.63 100.42-217.01 217.01h-7.99c-8.28 0-15 6.72-15 15s6.72 15 15 15h7.97c7.16 114.3 98.43 209.49 217.03 217.01v7.99c0 8.28 6.72 15 15 15s15-6.72 15-15v-8c117.03-7.46 209.44-100.82 217.01-217h7.99c8.28 0 15-6.72 15-15s-6.72-15-15-15zm-255 216.94c-101.57-7.41-179.88-88.74-186.95-186.94h31.59c6.99 81.57 71.97 148.14 155.36 155.35zm0-372.27c-82.34 7.18-148.14 72.98-155.33 155.33h-31.61c7.33-99.73 87.21-179.61 186.94-186.94zm30 372.26v-31.59c83.33-7.24 148.08-73.49 155.33-155.34h31.6c-7.46 99.73-86.6 179.58-186.93 186.93zm155.33-216.93c-7.19-82.34-72.98-148.14-155.33-155.33v-31.61c99.73 7.34 179.61 87.22 186.94 186.94z" fill="#d7ebed"/><path d="m495 240h-7.99c-7.37-116.44-100.42-209.63-217.01-217.01v-7.99c0-8.28-6.72-15-15-15v510c8.28 0 15-6.72 15-15v-8c117.03-7.46 209.44-100.82 217.01-217h7.99c8.28 0 15-6.72 15-15s-6.72-15-15-15zm-225 216.93v-31.59c83.33-7.24 148.08-73.49 155.33-155.34h31.6c-7.46 99.73-86.6 179.58-186.93 186.93zm155.33-216.93c-7.19-82.34-72.98-148.14-155.33-155.33v-31.61c99.73 7.34 179.61 87.22 186.94 186.94z" fill="#b6dade"/><path d="m396 255c0 33.04-11.69 66.55-35.49 93.54-26.8 30.25-64.89 47.46-105.51 47.46h-.01c-41.11 0-79.49-17.55-106.31-48.4-21.36-24.25-34.68-56.63-34.68-92.6 0-77.75 63.25-141 140.99-141h.01c77.75.01 141 63.25 141 141z" fill="#ff5b5b"/><path d="m396 255c0 33.04-11.69 66.55-35.49 93.54-26.8 30.25-64.89 47.46-105.51 47.46v-282c77.75.01 141 63.25 141 141z" fill="#f40000"/><path d="m360.51 348.54c-26.8 30.25-64.89 47.46-105.51 47.46h-.01c-41.11 0-79.49-17.55-106.31-48.4 5.98-4.89 13.27-8.29 21.35-9.62l48.592-8c2.415-.398 4.188-2.486 4.188-4.934v-23.871c0-1.621-.785-3.143-2.112-4.074-15.923-11.171-27.408-30.14-27.408-53.011v-15.34c0-33.54 27.19-60.75 60.75-60.75.32 0 .64 0 .96.01 33.12.51 59.79 27.51 59.79 60.74v15.34c0 22.506-11.503 41.447-27.428 52.729-1.316.932-2.092 2.447-2.092 4.06v24.168c0 2.448 1.772 4.536 4.188 4.934l48.582 8c8.59 1.409 16.29 5.169 22.47 10.559z" fill="#685e68"/><path d="m360.51 348.54c-26.8 30.25-64.89 47.46-105.51 47.46v-227.99c33.12.51 59.79 27.51 59.79 60.74v15.34c0 22.506-11.503 41.447-27.428 52.729-1.316.932-2.092 2.447-2.092 4.06v24.168c0 2.448 1.772 4.536 4.188 4.934l48.582 8c8.59 1.409 16.29 5.169 22.47 10.559z" fill="#40383f"/></svg>