<?xml version="1.0" encoding="iso-8859-1"?>
<!-- Generator: Adobe Illustrator 19.0.0, SVG Export Plug-In . SVG Version: 6.00 Build 0)  -->
<svg xmlns="http://www.w3.org/2000/svg" xmlns:xlink="http://www.w3.org/1999/xlink" version="1.1" id="Layer_1" x="0px" y="0px" viewBox="0 0 512 512" style="enable-background:new 0 0 512 512;" xml:space="preserve" width="512" height="512">
<g id="XMLID_396_">
	<path id="XMLID_399_" style="fill:#E3F4FF;" d="M40.6,38.925c-8.602,4.216-14.029,13.386-13.92,23.395   c2.688,246.376,69.657,355.652,185.166,435.683c0.143,0.099,0.286,0.198,0.429,0.296c26.51,18.268,60.938,18.268,87.448,0   c0.143-0.098,0.286-0.197,0.428-0.296C415.66,417.971,482.63,308.694,485.318,62.32c0.109-10.008-5.318-19.179-13.92-23.395   C444.268,25.628,376.366,0,255.999,0S67.73,25.628,40.6,38.925z"/>
	<g id="XMLID_403_">
		<g id="XMLID_401_">
			<path id="XMLID_402_" style="fill:#BDDFF4;" d="M255.999,386.927c-20.617,0-39.84-8.027-52.74-22.022     c-2.892-3.138-2.693-8.025,0.445-10.918c3.138-2.893,8.026-2.693,10.918,0.445c9.983,10.831,25.064,17.042,41.378,17.042     c16.313,0,31.394-6.211,41.377-17.042c2.892-3.139,7.781-3.337,10.918-0.445c3.138,2.892,3.337,7.78,0.445,10.918     C295.839,378.899,276.616,386.927,255.999,386.927z"/>
		</g>
	</g>
	<path id="XMLID_407_" style="fill:#BDDFF4;" d="M485.32,62.316C482.626,308.694,415.661,417.975,300.151,498   c-0.146,0.103-0.283,0.196-0.43,0.299c-6.628,4.564-13.754,7.994-21.124,10.271c111.156-86.618,175.261-207.303,177.955-464.57   c0.049-4.522-0.898-8.89-2.665-12.774c7.058,2.802,12.885,5.429,17.512,7.695C480,43.144,485.427,52.313,485.32,62.316z"/>
	<g id="XMLID_408_">
		<g id="XMLID_409_">
			<circle id="XMLID_2610_" style="fill:#FD82AC;" cx="131.395" cy="221.801" r="19.43"/>
			<circle id="XMLID_2609_" style="fill:#FD82AC;" cx="380.602" cy="221.801" r="19.43"/>
		</g>
	</g>
	<g id="XMLID_410_">
		<path id="XMLID_413_" style="fill:#4E7693;" d="M236.982,407.062c-3.287,0-5.931,2.709-5.86,5.995    C232.318,468.566,242.998,512,255.999,512c13.001,0,23.681-43.434,24.877-98.943c0.071-3.286-2.573-5.995-5.86-5.995H236.982z"/>
	</g>
	<g id="XMLID_414_">
		<g id="XMLID_415_">
			<g id="XMLID_419_">
				<g id="XMLID_417_">
					<path id="XMLID_418_" style="fill:#4E7693;" d="M354.605,358.353h-59.862c-3,0-5.878-1.192-7.999-3.313l-14.486-14.486       c-2.12-2.12-2.12-5.558,0-7.679l8.319-8.319c2.12-2.12,5.558-2.12,7.679,0l11.173,11.173h50.491l44.069-44.07       c4.418-4.418,11.58-4.418,15.998,0v0c4.418,4.418,4.418,11.58,0,15.998l-47.382,47.383       C360.482,357.161,357.605,358.353,354.605,358.353z"/>
				</g>
			</g>
		</g>
		<g id="XMLID_421_">
			<g id="XMLID_424_">
				<g id="XMLID_423_">
					<path id="XMLID_2595_" style="fill:#4E7693;" d="M157.393,358.353h59.862c3,0,5.878-1.192,7.999-3.313l14.486-14.486       c2.12-2.12,2.12-5.558,0-7.679l-8.319-8.319c-2.12-2.12-5.558-2.12-7.679,0l-11.173,11.173h-50.491l-44.069-44.07       c-4.418-4.418-11.58-4.418-15.998,0l0,0c-4.418,4.418-4.418,11.58,0,15.998l47.382,47.383       C151.516,357.161,154.393,358.353,157.393,358.353z"/>
				</g>
			</g>
		</g>
	</g>
	<g id="XMLID_425_">
		<path id="XMLID_428_" style="fill:#BDDFF4;" d="M255.998,301.174c-8.335,0-16.363-1.179-23.216-3.409    c-4.058-1.321-6.276-5.681-4.956-9.738c1.32-4.058,5.678-6.277,9.738-4.956c5.328,1.734,11.702,2.651,18.433,2.651    c6.731,0,13.106-0.916,18.434-2.651c4.059-1.319,8.418,0.898,9.738,4.956c1.32,4.057-0.898,8.418-4.956,9.738    C272.362,299.995,264.333,301.174,255.998,301.174z"/>
	</g>
	<g id="XMLID_429_">
		<g id="XMLID_436_">
			<g id="XMLID_431_">
				<g id="XMLID_432_">
					<path id="XMLID_433_" style="fill:#38627C;" d="M293.886,127.923c-3.787,0-7.52-1.757-9.905-5.063       c-3.942-5.463-2.712-13.087,2.75-17.031c0.999-0.722,24.807-17.826,54.414-31.606c42.445-19.755,74.91-22.558,96.498-8.33       c5.627,3.708,7.182,11.276,3.473,16.903c-3.708,5.627-11.276,7.183-16.903,3.473c-29.26-19.281-100.537,23.011-123.199,39.348       C298.855,127.174,296.359,127.923,293.886,127.923z"/>
				</g>
				<g id="XMLID_434_">
					<path id="XMLID_435_" style="fill:#38627C;" d="M218.113,127.925c-2.474,0-4.97-0.75-7.13-2.308l0,0       c-22.662-16.337-93.939-58.632-123.199-39.348c-5.628,3.709-13.194,2.153-16.903-3.473c-3.709-5.627-2.153-13.194,3.473-16.903       c21.587-14.228,54.053-11.426,96.498,8.33c29.607,13.781,53.415,30.885,54.414,31.606c5.463,3.945,6.694,11.572,2.749,17.035       C225.63,126.169,221.898,127.925,218.113,127.925z"/>
				</g>
			</g>
		</g>
		<g id="XMLID_441_">
			<g id="XMLID_442_">
				<path id="XMLID_2572_" style="fill:#38627C;" d="M401.829,139.942c2.403,13.813-16.147,33.173-41.433,43.241      s-47.733,7.032-50.137-6.782c-2.403-13.813,16.147-33.173,41.433-43.241S399.426,126.129,401.829,139.942z"/>
			</g>
			<g id="XMLID_443_">
				<path id="XMLID_2568_" style="fill:#38627C;" d="M110.168,139.942c-2.403,13.813,16.147,33.173,41.433,43.241      s47.733,7.032,50.137-6.782c2.403-13.813-16.147-33.173-41.433-43.241S112.572,126.129,110.168,139.942z"/>
			</g>
		</g>
	</g>
	<g id="XMLID_445_">
		<g id="XMLID_447_">
			<path id="XMLID_450_" style="fill:#BDDFF4;" d="M290.304,277.593c-3.729,0-7.012-2.706-7.62-6.507l-15.845-99.036     c-0.674-4.213,2.195-8.175,6.408-8.85c4.217-0.665,8.176,2.195,8.85,6.409l15.845,99.036c0.674,4.213-2.195,8.175-6.408,8.85     C291.121,277.56,290.71,277.593,290.304,277.593z"/>
		</g>
		<g id="XMLID_451_">
			<path id="XMLID_454_" style="fill:#BDDFF4;" d="M221.693,277.593c-0.406,0-0.817-0.032-1.23-0.098     c-4.213-0.675-7.083-4.637-6.408-8.85l15.845-99.036c0.675-4.214,4.639-7.076,8.85-6.409c4.213,0.675,7.082,4.637,6.408,8.85     l-15.845,99.036C228.705,274.886,225.422,277.593,221.693,277.593z"/>
		</g>
	</g>
	<g id="XMLID_455_">
		<g id="XMLID_456_">
			<path id="XMLID_459_" style="fill:#BDDFF4;" d="M367.571,277.641c-15.883,0-31.505-5.338-44.386-15.587     c-3.34-2.657-3.892-7.517-1.236-10.857c2.657-3.338,7.517-3.891,10.857-1.235c15.055,11.979,34.885,15.397,53.045,9.15     c23.682-8.149,39.152-31.288,37.622-56.268c-0.261-4.26,2.98-7.924,7.239-8.185c4.246-0.234,7.923,2.981,8.184,7.239     c1.954,31.888-17.791,61.424-48.017,71.825C383.243,276.352,375.375,277.641,367.571,277.641z"/>
		</g>
		<g id="XMLID_460_">
			<path id="XMLID_463_" style="fill:#BDDFF4;" d="M144.427,277.641c-7.806,0-15.671-1.289-23.309-3.918     c-30.225-10.401-49.97-39.937-48.016-71.825c0.261-4.26,3.946-7.481,8.184-7.239c4.26,0.262,7.501,3.926,7.239,8.185     c-1.531,24.98,13.94,48.119,37.621,56.268c18.16,6.249,37.989,2.829,53.046-9.15c3.339-2.657,8.2-2.104,10.857,1.235     c2.656,3.34,2.104,8.2-1.236,10.857C175.933,272.302,160.309,277.641,144.427,277.641z"/>
		</g>
	</g>
</g>















</svg>
