<svg height="511pt" viewBox="-10 0 511 511.99943" width="511pt" xmlns="http://www.w3.org/2000/svg"><path d="m453.039062 58.90625c-.53125-4.164062-4.332031-7.121094-8.503906-6.585938-14.773437 1.871094-17.964844-2.207031-24.945312-11.152343-10.464844-13.414063-26.285156-33.691407-87.988282-39.960938-40.996093-4.167969-71.226562 2.480469-89.835937 19.765625-13.128906 12.191406-16.710937 26.417969-17.675781 33.90625-.664063.613282-1.257813 1.320313-1.75 2.117188-.066406.101562-7.335938 10.285156-59.480469 18.628906-35.34375 5.65625-53.464844 22.589844-62.441406 35.800781-9.921875 14.601563-11.167969 28.042969-11.214844 28.609375-.355469 4.164063 2.722656 7.8125 6.886719 8.195313 4.175781.371093 7.859375-2.695313 8.265625-6.859375.167969-1.699219 4.707031-41.734375 60.910156-50.726563 31.820313-5.089843 53.738281-11.871093 64.378906-19.828125 9.960938 15.546875 14.300781 30.636719 12.261719 43.066406-1.492188 9.09375-6.515625 16.699219-14.929688 22.597657-3.4375 2.410156-4.273437 7.15625-1.859374 10.59375 1.480468 2.109375 3.835937 3.238281 6.234374 3.238281 1.507813 0 3.027344-.445312 4.355469-1.378906 11.894531-8.335938 19.03125-19.300782 21.207031-32.589844 1.8125-11.039062-.015624-23.339844-5.1875-36.019531 11.472657 3.929687 26.449219 7.402343 44.683594 10.320312 56.128906 8.980469 60.722656 50.804688 60.902344 52.714844.339844 3.960937 3.660156 6.953125 7.570312 6.953125.207032 0 .417969-.007812.628907-.023438 4.1875-.34375 7.300781-4.015624 6.960937-8.203124-.050781-.582032-1.285156-14.460938-11.144531-29.535157-8.972656-13.71875-27.105469-31.261719-62.515625-36.925781-52.144531-8.34375-59.414062-18.527344-59.476562-18.621094-.054688-.089844-.121094-.167968-.175782-.253906.632813-5.058594 3.160156-15.675781 13.207032-24.863281 15.089843-13.804688 41.953124-19.183594 77.691406-15.546875 55.246094 5.613281 68.132812 22.128906 77.539062 34.183594 7.613282 9.757812 15.488282 19.847656 38.851563 16.886718 4.167969-.527344 7.117187-4.335937 6.589843-8.503906zm0 0" fill="#24475c"/><g fill="#ffbf14"><path d="m445.492188 44.875c-4.199219 0-7.605469-3.40625-7.605469-7.605469v-15.515625c0-4.199218 3.40625-7.605468 7.605469-7.605468 4.203124 0 7.609374 3.40625 7.609374 7.605468v15.515625c-.003906 4.199219-3.40625 7.605469-7.609374 7.605469zm0 0"/><path d="m483.601562 67.46875h-15.511718c-4.203125 0-7.605469-3.402344-7.605469-7.605469 0-4.199219 3.402344-7.605469 7.605469-7.605469h15.511718c4.203126 0 7.605469 3.40625 7.605469 7.605469 0 4.203125-3.40625 7.605469-7.605469 7.605469zm0 0"/><path d="m445.492188 105.578125c-4.199219 0-7.605469-3.40625-7.605469-7.605469v-15.511718c0-4.203126 3.40625-7.609376 7.605469-7.609376 4.203124 0 7.609374 3.40625 7.609374 7.609376v15.511718c-.003906 4.199219-3.40625 7.605469-7.609374 7.605469zm0 0"/></g><path d="m441.804688 368.082031h-425.304688c-8.835938 0-16-7.164062-16-16v-57.035156c0-8.835937 7.164062-16 16-16h425.304688c8.835937 0 16 7.164063 16 16v57.035156c0 8.835938-7.164063 16-16 16zm0 0" fill="#2c5771"/><path d="m441.578125 279.046875h-5.691406v50.890625c0 8.960938-7.261719 16.226562-16.222657 16.226562h-419.164062v5.691407c0 8.960937 7.265625 16.222656 16.226562 16.222656h424.851563c8.960937 0 16.226563-7.261719 16.226563-16.222656v-56.582031c0-8.960938-7.265626-16.226563-16.226563-16.226563zm0 0" fill="#24475c"/><path d="m433.015625 279.046875v-91.8125c0-28.777344-23.328125-52.105469-52.105469-52.105469h-30.351562c-28.773438 0-52.101563 23.328125-52.101563 52.105469v91.8125zm0 0" fill="#ff4c4c"/><path d="m380.910156 135.128906h-27.484375c28.777344 0 52.105469 23.328125 52.105469 52.105469v91.8125h27.484375v-91.8125c0-28.777344-23.328125-52.105469-52.105469-52.105469zm0 0" fill="#d43f3f"/><path d="m298.457031 279.046875v-91.8125c0-28.777344-23.328125-52.105469-52.105469-52.105469h-30.351562c-28.777344 0-52.105469 23.328125-52.105469 52.105469v91.8125zm0 0" fill="#ff4c4c"/><path d="m163.894531 368.082031v91.8125c0 28.777344 23.328125 52.105469 52.105469 52.105469h30.351562c28.773438 0 52.101563-23.328125 52.101563-52.105469v-91.8125zm0 0" fill="#ff4c4c"/><path d="m246.351562 135.128906h-27.488281c28.777344 0 52.105469 23.328125 52.105469 52.105469v91.8125h27.484375v-91.8125c.003906-28.777344-23.324219-52.105469-52.101563-52.105469zm0 0" fill="#d43f3f"/><path d="m270.96875 368.082031v91.8125c0 28.777344-23.328125 52.105469-52.105469 52.105469h27.488281c28.777344 0 52.101563-23.328125 52.101563-52.105469 0-32.460937 0-59.292969 0-91.8125zm0 0" fill="#d43f3f"/><path d="m29.332031 368.082031v91.8125c0 28.777344 23.328125 52.105469 52.105469 52.105469h30.351562c28.777344 0 52.105469-23.328125 52.105469-52.105469v-91.8125zm0 0" fill="#ff4c4c"/><path d="m137.632812 368.082031v91.8125c0 28.777344-23.324218 52.105469-52.101562 52.105469h27.484375c28.777344 0 52.105469-23.328125 52.105469-52.105469 0-32.460937 0-59.292969 0-91.8125zm0 0" fill="#d43f3f"/><path d="m298.457031 368.082031v91.8125c0 28.777344 23.328125 52.105469 52.101563 52.105469h30.351562c28.777344 0 52.105469-23.328125 52.105469-52.105469 0-32.460937 0-59.292969 0-91.8125zm0 0" fill="#ff4c4c"/><path d="m405.53125 368.082031v91.8125c0 28.777344-23.328125 52.105469-52.105469 52.105469h27.484375c28.777344 0 52.105469-23.328125 52.105469-52.105469 0-32.460937 0-59.292969 0-91.8125zm0 0" fill="#d43f3f"/><path d="m29.332031 241.613281v37.433594h134.5625v-91.8125c0-28.777344-23.328125-52.105469-52.105469-52.105469h-30.351562c-28.773438 0-52.101562 23.328125-52.101562 52.105469v26.050781" fill="#ff4c4c"/><path d="m113.015625 135.128906h-27.484375c28.773438 0 52.101562 23.328125 52.101562 52.105469v91.8125h27.488282v-91.8125c0-28.777344-23.328125-52.105469-52.105469-52.105469zm0 0" fill="#d43f3f"/></svg>