<?xml version="1.0" encoding="iso-8859-1"?>
<!-- Generator: Adobe Illustrator 19.0.0, SVG Export Plug-In . SVG Version: 6.00 Build 0)  -->
<svg version="1.1" id="Layer_1" xmlns="http://www.w3.org/2000/svg" xmlns:xlink="http://www.w3.org/1999/xlink" x="0px" y="0px"
	 viewBox="0 0 503.467 503.467" style="enable-background:new 0 0 503.467 503.467;" xml:space="preserve">
<path style="fill:#FFD0A1;" d="M447.147,286.034c19.627,0,34.133,15.36,34.133,34.133s-15.36,34.133-34.133,34.133h-153.6H276.48
	c18.773,0,34.133,15.36,34.133,34.133s-15.36,34.133-34.133,34.133h-25.6c13.653,0,25.6,11.947,25.6,25.6s-12.8,25.6-25.6,25.6
	H139.947c-68.267,0-76.8-25.6-136.533-34.133v-204.8c85.333-17.067,196.267-85.333,238.933-128c8.533-8.533,25.6-23.893,25.6-23.893
	c3.413-2.56,7.68-2.56,11.947,0.853l4.267,4.267c13.653,13.653,13.653,52.053,0,65.707l-60.587,60.587c0,0-4.267,4.267,2.56,4.267
	h238.933c18.773,0,34.133,15.36,34.133,34.133s-15.36,34.133-34.133,34.133h-17.92V286.034z"/>
<path style="fill:#51565F;" d="M250.88,478.034H139.947c-39.253,0-59.733-8.533-80.213-17.067
	c-15.36-6.827-31.573-13.653-56.32-17.067c-1.707,0-3.413-1.707-3.413-4.267v-204.8c0-1.707,1.707-3.413,3.413-4.267
	c85.333-17.067,195.413-85.333,236.373-127.147c8.533-8.533,24.747-23.04,25.6-23.893c5.973-4.267,11.947-3.413,17.067,0.853
	l4.267,4.267c6.827,6.827,11.093,20.48,11.093,35.84c0,15.36-4.267,29.013-11.093,35.84l-32.427,32.427
	c-1.707,1.707-4.267,1.707-5.973,0c-1.707-1.707-1.707-4.267,0-5.973l32.427-32.427c5.12-5.12,8.533-17.067,8.533-29.867
	c0-12.8-3.413-23.893-8.533-29.867l-4.267-4.267c-2.56-2.56-4.267-1.707-5.973,0l0,0c0,0-16.213,15.36-24.747,23.04
	C203.947,151.208,93.867,219.474,7.68,238.248v197.973c23.893,4.267,40.107,10.24,55.467,17.067
	c20.48,8.533,39.253,16.213,76.8,16.213H250.88c11.093,0,21.333-10.24,21.333-21.333s-10.24-21.333-21.333-21.333
	c-2.56,0-4.267-1.707-4.267-4.267s1.707-4.267,4.267-4.267h25.6c16.213,0,29.867-13.653,29.867-29.867s-13.653-29.867-29.867-29.867
	c-2.56,0-4.267-1.707-4.267-4.267s1.707-4.267,4.267-4.267h170.667c17.067,0,29.867-12.8,29.867-29.867
	c0-17.067-12.8-29.867-29.867-29.867h-153.6c-2.56,0-4.267-1.707-4.267-4.267c0-2.56,1.707-4.267,4.267-4.267h170.667
	c16.213,0,29.867-13.653,29.867-29.867s-13.653-29.867-29.867-29.867H225.28c-2.56,0-4.267-1.707-4.267-4.267
	c0-2.56,1.707-4.267,4.267-4.267h238.933c21.333,0,38.4,17.067,38.4,38.4c0,18.773-13.653,34.987-31.573,37.547
	c9.387,6.827,14.507,17.92,14.507,30.72c0,21.333-17.067,38.4-38.4,38.4H300.373c8.533,6.827,14.507,17.92,14.507,29.867
	c0,21.333-17.067,38.4-38.4,38.4h-5.12c5.973,5.12,9.387,12.8,9.387,21.333C280.747,463.527,266.24,478.034,250.88,478.034z
	 M481.28,187.901c-1.707,0-3.413-0.853-3.413-2.56c-0.853-1.707,0-4.267,1.707-5.973c0,0,14.507-7.68,14.507-22.187
	c0-6.827-3.413-10.24-7.68-13.653c-4.267-4.267-9.387-9.387-9.387-20.48s5.12-15.36,9.387-20.48c4.267-4.267,7.68-7.68,7.68-13.653
	c0-14.507-14.507-21.333-14.507-22.187c-1.707-0.853-2.56-3.413-1.707-5.973c0.853-1.707,3.413-2.56,5.973-1.707
	c0.853,0,19.627,10.24,19.627,29.013c0,10.24-5.12,15.36-9.387,20.48c-4.267,4.267-7.68,7.68-7.68,13.653s3.413,10.24,7.68,13.653
	c4.267,4.267,9.387,9.387,9.387,20.48c0,19.627-18.773,29.013-19.627,29.013C482.987,187.901,482.133,187.901,481.28,187.901z
	 M430.08,119.634c-1.707,0-3.413-0.853-3.413-2.56c-0.853-1.707,0-4.267,1.707-5.973c0,0,14.507-7.68,14.507-22.187
	c0-6.827-3.413-10.24-7.68-13.653c-4.267-4.267-9.387-9.387-9.387-20.48c0-19.627,18.773-29.013,19.627-29.013
	c1.707-0.853,4.267,0,5.973,1.707c1.707,1.707,0,4.267-1.707,5.973c0,0-14.507,7.68-14.507,22.187c0,6.827,3.413,10.24,7.68,13.653
	c4.267,4.267,9.387,9.387,9.387,20.48c0,19.627-18.773,29.013-19.627,29.013C431.787,119.634,430.933,119.634,430.08,119.634z"/>
<g>
</g>
<g>
</g>
<g>
</g>
<g>
</g>
<g>
</g>
<g>
</g>
<g>
</g>
<g>
</g>
<g>
</g>
<g>
</g>
<g>
</g>
<g>
</g>
<g>
</g>
<g>
</g>
<g>
</g>
</svg>
