<svg xmlns="http://www.w3.org/2000/svg" viewBox="0 0 32 32"><path fill="#92ca62" d="M22.734 7.718a9.453 9.453 0 0 1-6.567-2.643.971.971 0 0 0-1.341 0 9.461 9.461 0 0 1-6.568 2.643c-.386 0-.765-.025-1.137-.073a.993.993 0 0 0-1.125.985l.007 7.768v1.309a7.239 7.239 0 0 0 4.128 6.536l5.38 2.56 5.368-2.558a7.24 7.24 0 0 0 4.124-6.534v-1.312l-.007-7.769a.994.994 0 0 0-1.125-.985 9.06 9.06 0 0 1-1.137.073z"/><path fill="#71bc58" d="M7.133 8.611a9.443 9.443 0 0 0 6.431-2.524 9.428 9.428 0 0 1-5.306 1.631 9.06 9.06 0 0 1-1.137-.073.984.984 0 0 0-1.105.894c.366.046.738.072 1.117.072zm17.863.019a.993.993 0 0 0-1.125-.984 9.085 9.085 0 0 1-1.137.073 9.457 9.457 0 0 1-6.568-2.643.971.971 0 0 0-1.341 0 9.53 9.53 0 0 1-.872.731.962.962 0 0 1 1.088.162 9.457 9.457 0 0 0 6.568 2.643c.386 0 .765-.025 1.137-.073a.993.993 0 0 1 1.125.985l.007 7.768v1.312a7.228 7.228 0 0 1-2.225 5.202 7.233 7.233 0 0 0 3.35-6.095v-1.312l-.007-7.769z"/><path fill="#71bc58" d="M18.258 6.592a9.533 9.533 0 0 1-2.091-1.518.971.971 0 0 0-1.341 0c-.057.055-.121.103-.18.157a9.411 9.411 0 0 0 3.612 1.361zm6.738 2.038a.993.993 0 0 0-1.125-.984 9.085 9.085 0 0 1-1.137.073 9.99 9.99 0 0 1-.738-.036l.007 7.716v1.312a7.24 7.24 0 0 1-4.124 6.534l-4.919 2.344 2.551 1.214 5.368-2.558a7.24 7.24 0 0 0 4.124-6.534v-1.312l-.007-7.769z"/><path fill="#f04c4d" d="m19.405 16.905.39-.39a2.759 2.759 0 0 0-3.901-3.901l-.39.39-.39-.39a2.759 2.759 0 0 0-3.901 3.901l.39.39 3.901 3.901 3.901-3.901z"/><path fill="#e13340" d="M19.795 12.614a2.756 2.756 0 0 0-2.95-.617c.346.134.671.338.95.617a2.759 2.759 0 0 1 0 3.901l-.39.39-2.901 2.901 1 1 3.901-3.901.39-.39a2.759 2.759 0 0 0 0-3.901zm-4.681 0a2.677 2.677 0 0 0-.713-.516s-.73-.42-1.686-.249h-.001a2.603 2.603 0 0 0-.55.148c.346.134.671.338.951.617l.39.39.002-.002.993.993.998-.998-.384-.383z"/></svg>