<?xml version="1.0" ?><svg width="64px" height="64px" viewBox="0 0 64 64" id="fill" xmlns="http://www.w3.org/2000/svg"><rect height="2" style="fill:#e5e6eb" transform="translate(-2.438 5.488) rotate(-9.444)" width="54.745" x="4.628" y="16.5"/><rect height="45" style="fill:#e5e6eb" width="4" x="30" y="5"/><rect height="45" style="fill:#d9dae2" width="2" x="32" y="5"/><rect height="4" rx="2" ry="2" style="fill:#cfcfd9" width="8" x="28" y="3"/><path d="M35,49H29a8,8,0,0,0-8,8v2H43V57A8,8,0,0,0,35,49Z" style="fill:#e5e6eb"/><path d="M32,50H30a8,8,0,0,0-8,8v2h2V58A8,8,0,0,1,32,50Z" style="fill:#fff"/><path d="M35,49H33a8,8,0,0,1,8,8v2h2V57A8,8,0,0,0,35,49Z" style="fill:#cfcfd9"/><rect height="4" style="fill:#444" width="30" x="17" y="57"/><rect height="4" width="4" x="43" y="57"/><circle cx="32" cy="17" r="6" style="fill:#d9dae2"/><path d="M33.629,11.23a5.991,5.991,0,0,1-5.258,10.54,6,6,0,1,0,5.258-10.54Z" style="fill:#cfcfd9"/><circle cx="32" cy="17" r="2" style="fill:#e5e6eb"/><circle cx="13" cy="21" r="3" style="fill:#d9dae2"/><circle cx="51" cy="15" r="3" style="fill:#d9dae2"/><path d="M32,14a3,3,0,1,0,3,3A3,3,0,0,0,32,14Zm0,4a1,1,0,1,1,1-1A1,1,0,0,1,32,18Z"/><path d="M60.249,31.257,53.618,18A3.975,3.975,0,0,0,55,15c0-.108-.023-.209-.032-.315l4.2-.7-.328-1.972-4.519.753a3.986,3.986,0,0,0-7.163,1.193L38.8,15.354A7.019,7.019,0,0,0,35,10.685V7.816A2.993,2.993,0,0,0,34,2H30a2.993,2.993,0,0,0-1,5.816v2.869A7,7,0,0,0,25,17c0,.219.013.434.033.647l-8.55,1.425A3.978,3.978,0,0,0,9.07,20.308l-4.234.706.328,1.972,4.074-.679A3.989,3.989,0,0,0,10.382,24L3.789,37.176l1.789.894,6.585-13.161a3.895,3.895,0,0,0,1.674,0L20.46,38.09l1.789-.9L15.618,24A3.973,3.973,0,0,0,17,21.014L25.505,19.6A7.029,7.029,0,0,0,29,23.315V48a9.01,9.01,0,0,0-8.941,8H17a1,1,0,0,0-1,1v4a1,1,0,0,0,1,1H47a1,1,0,0,0,1-1V57a1,1,0,0,0-1-1H43.941A9.01,9.01,0,0,0,35,48V23.315a7,7,0,0,0,3.982-5.965l8.157-1.36A3.978,3.978,0,0,0,48.382,18L41.728,31.269l1.789.9,6.646-13.255a3.89,3.89,0,0,0,1.673,0L58.46,32.152ZM11,21a2,2,0,1,1,2,2A2,2,0,0,1,11,21ZM30,4h4a1,1,0,0,1,0,2H30a1,1,0,0,1,0-2Zm1,4h2v2.08a6.29,6.29,0,0,0-2,0ZM46,60H18V58H46Zm-4.08-4H22.08A7.006,7.006,0,0,1,29,50h6A7.006,7.006,0,0,1,41.92,56ZM33,48H31V23.92a6.29,6.29,0,0,0,2,0ZM32,22a5,5,0,1,1,5-5A5.006,5.006,0,0,1,32,22Zm17-7a2,2,0,1,1,2,2A2,2,0,0,1,49,15Z"/><path d="M3,37H23a0,0,0,0,1,0,0v.92A3.08,3.08,0,0,1,19.92,41H6.08A3.08,3.08,0,0,1,3,37.92V37A0,0,0,0,1,3,37Z" style="fill:#027de5"/><path d="M21,37v.92A3.08,3.08,0,0,1,17.92,41h2A3.08,3.08,0,0,0,23,37.92V37Z" style="fill:#0468ad"/><path d="M41,31H61a0,0,0,0,1,0,0v.92A3.08,3.08,0,0,1,57.92,35H44.08A3.08,3.08,0,0,1,41,31.92V31A0,0,0,0,1,41,31Z" style="fill:#027de5"/><path d="M59,31v.92A3.08,3.08,0,0,1,55.92,35h2A3.08,3.08,0,0,0,61,31.92V31Z" style="fill:#0468ad"/></svg>