<svg height="464pt" viewBox="0 -56 464 464" width="464pt" xmlns="http://www.w3.org/2000/svg"><path d="m128 120-48-32 16-24 56 32zm0 0" fill="#2d333a"/><path d="m320 32h-160c-16 96-96 144-96 144h72v80h112v-80h72v-48h48v-96zm-104 192h-48v-48h48zm0 0" fill="#5a6470"/><path d="m136 176h-72l-64 176h96l40-96zm0 0" fill="#d3843d"/><path d="m368 32h96v80h-96zm0 0" fill="#2d333a"/><path d="m184 64h104v80h-104zm0 0" fill="#2d333a"/><path d="m232 88h56v32h-56c-8.835938 0-16-7.164062-16-16s7.164062-16 16-16zm0 0" fill="#aabece"/><path d="m464 32v-32l-96 32zm0 0" fill="#5a6470"/><path d="m160 0h32v32h-32zm0 0" fill="#2d333a"/><g fill="#aabece"><path d="m392 56h72v16h-72zm0 0"/><path d="m312 56h56v16h-56zm0 0"/><path d="m344 88h24v16h-24zm0 0"/><path d="m312 88h16v16h-16zm0 0"/></g></svg>