<?xml version="1.0" encoding="iso-8859-1"?>
<!-- Generator: Adobe Illustrator 19.0.0, SVG Export Plug-In . SVG Version: 6.00 Build 0)  -->
<svg version="1.1" id="Capa_1" xmlns="http://www.w3.org/2000/svg" xmlns:xlink="http://www.w3.org/1999/xlink" x="0px" y="0px"
	 viewBox="0 0 512 512" style="enable-background:new 0 0 512 512;" xml:space="preserve">
<path style="fill:#393B51;" d="M378.246,512H94.175c-8.28,0-14.991-6.712-14.991-14.991v-65.581h314.054v65.581
	C393.238,505.289,386.526,512,378.246,512z"/>
<path style="fill:#4A4D60;" d="M378.246,512H161.625v-34.469h231.613v19.478C393.238,505.289,386.526,512,378.246,512z"/>
<path style="fill:#7902CA;" d="M110.344,388.829C56.465,349.803,21.43,286.377,21.43,214.773C21.43,96.152,117.582,0,236.203,0
	s214.783,96.152,214.783,214.773c0,71.605-35.046,135.031-88.914,174.056L222.13,421.428L110.344,388.829z"/>
<g>
	<path style="fill:#A657F2;" d="M154.511,298.893c49.034,49.034,98.819,93.967,69.5,98.634
		c-34.761,5.531-80.751-9.35-119.767-48.366s-53.898-85.005-48.366-119.767C60.543,200.074,105.477,249.859,154.511,298.893z"/>
	<path style="fill:#A657F2;" d="M197.247,256.157C121.601,180.51,82.494,73.492,145.68,48.34
		c74.916-29.823,162.301-23.3,222.493,36.891s66.715,147.576,36.891,222.493C379.912,370.909,272.894,331.803,197.247,256.157z"/>
</g>
<path style="fill:#FFD200;" d="M386.681,454.03H85.74c-14.851,0-26.89-12.039-26.89-26.89v-11.424
	c0-14.851,12.039-26.89,26.89-26.89h300.94c14.851,0,26.89,12.039,26.89,26.89v11.424
	C413.571,441.991,401.532,454.03,386.681,454.03z"/>
<path style="fill:#E0B605;" d="M144.403,427.153v-11.45c0-14.844,12.034-26.878,26.878-26.878H85.728
	c-14.844,0-26.878,12.034-26.878,26.878v11.45c0,14.844,12.034,26.878,26.878,26.878h85.553
	C156.436,454.03,144.403,441.996,144.403,427.153z"/>
<polygon style="fill:#FFD200;" points="490.57,125.237 387.434,144.937 367.735,248.072 348.036,144.937 244.9,125.237 
	348.036,105.538 367.735,2.403 387.434,105.538 "/>
<polygon style="fill:#FFE471;" points="367.735,2.403 367.735,248.072 348.036,144.937 244.9,125.237 348.036,105.538 "/>
<g>
</g>
<g>
</g>
<g>
</g>
<g>
</g>
<g>
</g>
<g>
</g>
<g>
</g>
<g>
</g>
<g>
</g>
<g>
</g>
<g>
</g>
<g>
</g>
<g>
</g>
<g>
</g>
<g>
</g>
</svg>
