<svg height="512pt" viewBox="-91 0 512 512.00001" width="512pt" xmlns="http://www.w3.org/2000/svg"><path d="m165.691406 512h67.757813c17.007812 0 31.597656-12.128906 34.710937-28.847656l62.605469-336.613282c1.679687-9.046874-.234375-18.390624-5.339844-26.042968l-69.808593-104.773438c-6.550782-9.824218-17.574219-15.722656-29.378907-15.722656h-121.097656c-11.804687 0-22.828125 5.898438-29.378906 15.722656l-69.851563 104.757813c-5.089844 7.65625-6.988281 17-5.296875 26.039062l62.632813 336.632813c3.109375 16.710937 17.6875 28.832031 34.683594 28.847656zm0 0" fill="#59474e"/><path d="m330.765625 146.539062-51.816406 278.863282c0 .046875-.039063.085937-.089844.085937-6.878906 10.398438-18.703125 16.429688-31.160156 15.890625h-164.015625c-12.457032.539063-24.285156-5.492187-31.164063-15.890625-.046875 0-.085937-.039062-.085937-.085937l-51.820313-278.863282c-1.710937-9.039062.191407-18.390624 5.296875-26.042968l69.828125-104.78125c6.554688-9.824219 17.585938-15.7226565 29.394531-15.714844h121.113282c11.8125-.0078125 22.84375 5.890625 29.398437 15.714844l69.824219 104.78125c5.109375 7.652344 7.011719 17.003906 5.296875 26.042968zm0 0" fill="#7f5b53"/><path d="m83.683594 423.722656c-5.371094.222656-10.613282-1.679687-14.59375-5.296875l-51.121094-275.109375c-.878906-4.484375.046875-9.136718 2.578125-12.941406l69.886719-104.871094c3.28125-4.910156 8.796875-7.855468 14.699218-7.847656h121.113282c5.90625-.011719 11.425781 2.933594 14.707031 7.847656l69.820313 104.78125c2.578124 3.828125 3.53125 8.527344 2.644531 13.058594l-51.128907 275.082031c-3.976562 3.617188-9.21875 5.519531-14.589843 5.296875zm0 0" fill="#2c3e50"/><path d="m201 141.242188h13.578125c16.183594.648437 29.84375-11.910157 30.558594-28.089844v-24.875c0-24.832032-21.871094-52.96875-48.886719-52.96875h-61.121094c-27.011718 0-48.886718 28.136718-48.886718 52.96875v24.875c.714843 16.179687 14.378906 28.738281 30.5625 28.089844h13.574218" fill="#e6e7e8"/><path d="m209.828125 141.242188v39.28125c-.792969 13.171874-12.070313 23.230468-25.246094 22.511718h-37.78125c-13.175781.71875-24.457031-9.339844-25.25-22.511718v-39.28125zm0 0" fill="#a5a5a4"/><path d="m148.035156 88.277344h-17.65625c-4.875 0-8.828125-3.953125-8.828125-8.828125s3.953125-8.828125 8.828125-8.828125h17.65625c4.875 0 8.828125 3.953125 8.828125 8.828125s-3.953125 8.828125-8.828125 8.828125zm0 0" fill="#2c2f38"/><path d="m201 88.277344h-17.65625c-4.875 0-8.824219-3.953125-8.824219-8.828125s3.949219-8.828125 8.824219-8.828125h17.65625c4.875 0 8.828125 3.953125 8.828125 8.828125s-3.953125 8.828125-8.828125 8.828125zm0 0" fill="#2c2f38"/><path d="m165.691406 123.585938c-4.875 0-8.828125-3.953126-8.828125-8.828126v-8.828124c0-4.875 3.953125-8.828126 8.828125-8.828126s8.828125 3.953126 8.828125 8.828126v8.828124c0 4.875-3.953125 8.828126-8.828125 8.828126zm0 0" fill="#2c2f38"/><path d="m121.550781 158.898438h88.277344v17.652343h-88.277344zm0 0" fill="#2c2f38"/><path d="m177.21875 273.65625h-23.058594c-8.628906 0-15.996094-6.238281-17.414062-14.753906l-6.367188-38.210938c0-9.753906 7.90625-17.65625 17.65625-17.65625h35.308594c9.753906 0 17.65625 7.902344 17.65625 17.65625l-6.363281 38.210938c-1.421875 8.515625-8.785157 14.753906-17.417969 14.753906zm0 0" fill="#e6e7e8"/><path d="m77.414062 300.136719c-3.570312 0-6.789062-2.148438-8.152343-5.449219-1.367188-3.296875-.613281-7.09375 1.910156-9.617188l6.242187-6.242187v-31.65625c0-3.097656 1.625-5.96875 4.28125-7.566406l44.136719-26.480469c2.707031-1.695312 6.117188-1.792969 8.917969-.265625 2.800781 1.53125 4.558594 4.457031 4.59375 7.648437.035156 3.191407-1.652344 6.152344-4.417969 7.746094l-39.855469 23.914063v30.316406c0 2.339844-.929687 4.585937-2.585937 6.238281l-8.828125 8.828125c-1.65625 1.65625-3.902344 2.585938-6.242188 2.585938zm0 0" fill="#a5a5a4"/><path d="m253.964844 308.964844c-2.339844 0-4.585938-.929688-6.238282-2.585938l-8.828124-8.828125c-1.65625-1.65625-2.585938-3.898437-2.585938-6.242187v-39.140625l-39.859375-23.914063c-2.765625-1.59375-4.453125-4.554687-4.417969-7.746094.039063-3.191406 1.796875-6.117187 4.597656-7.648437 2.800782-1.527344 6.207032-1.429687 8.914063.265625l44.136719 26.480469c2.65625 1.597656 4.28125 4.46875 4.28125 7.566406v40.484375l6.242187 6.242188c2.523438 2.523437 3.277344 6.320312 1.914063 9.617187-1.367188 3.296875-4.585938 5.449219-8.15625 5.449219zm0 0" fill="#a5a5a4"/><path d="m148.035156 185.378906c-4.875 0-8.828125-3.953125-8.828125-8.828125v-8.828125c0-4.875 3.953125-8.824218 8.828125-8.824218s8.828125 3.949218 8.828125 8.824218v8.828125c0 4.875-3.953125 8.828125-8.828125 8.828125zm0 0" fill="#2c2f38"/><path d="m183.34375 185.378906c-4.875 0-8.824219-3.953125-8.824219-8.828125v-8.828125c0-4.875 3.949219-8.824218 8.824219-8.824218 4.878906 0 8.828125 3.949218 8.828125 8.824218v8.828125c0 4.875-3.949219 8.828125-8.828125 8.828125zm0 0" fill="#2c2f38"/><g fill="#a5a5a4"><path d="m95.070312 300.136719c-2.339843 0-4.585937-.929688-6.242187-2.585938l-8.828125-8.828125c-3.34375-3.460937-3.296875-8.96875.109375-12.375 3.402344-3.402344 8.910156-3.453125 12.375-.105468l8.828125 8.828124c2.523438 2.523438 3.277344 6.320313 1.910156 9.617188-1.367187 3.300781-4.582031 5.449219-8.152344 5.449219zm0 0"/><path d="m236.3125 308.964844c-3.570312 0-6.789062-2.152344-8.15625-5.449219-1.363281-3.296875-.609375-7.09375 1.914062-9.617187l8.828126-8.828126c3.460937-3.347656 8.96875-3.296874 12.375.105469 3.402343 3.40625 3.453124 8.910157.105468 12.375l-8.828125 8.828125c-1.652343 1.65625-3.898437 2.585938-6.238281 2.585938zm0 0"/><path d="m121.550781 414.898438c-3.253906-.003907-6.242187-1.796876-7.777343-4.667969-1.535157-2.871094-1.363282-6.351563.441406-9.0625l16.164062-24.1875c1.714844-2.707031 4.761719-4.273438 7.960938-4.089844 3.199218.183594 6.050781 2.085937 7.445312 4.96875 1.394532 2.886719 1.117188 6.300781-.726562 8.921875l-16.152344 24.1875c-1.640625 2.457031-4.398438 3.929688-7.355469 3.929688zm0 0"/><path d="m209.828125 414.898438c-2.953125 0-5.714844-1.472657-7.351563-3.929688l-16.15625-24.1875c-1.84375-2.621094-2.121093-6.035156-.726562-8.921875 1.398438-2.882813 4.246094-4.785156 7.445312-4.96875 3.199219-.183594 6.246094 1.382813 7.960938 4.089844l16.164062 24.1875c1.804688 2.710937 1.976563 6.191406.441407 9.0625-1.535157 2.871093-4.523438 4.664062-7.777344 4.667969zm0 0"/><path d="m148.035156 414.898438c-3.53125-.003907-6.722656-2.105469-8.113281-5.351563l-26.480469-61.792969c-1.027344-2.386718-.949218-5.101562.210938-7.425781l26.480468-52.964844c2.179688-4.363281 7.484376-6.132812 11.847657-3.953125 4.363281 2.179688 6.132812 7.484375 3.957031 11.847656l-24.675781 49.300782 24.867187 58.03125c1.167969 2.726562.890625 5.855468-.738281 8.332031s-4.390625 3.96875-7.355469 3.976563zm0 0"/><path d="m183.34375 414.898438c-2.964844-.003907-5.734375-1.492188-7.367188-3.96875-1.632812-2.480469-1.914062-5.613282-.742187-8.339844l24.882813-58.03125-24.65625-49.300782c-2.179688-4.363281-.40625-9.667968 3.957031-11.847656 4.363281-2.179687 9.667969-.410156 11.847656 3.953125l26.480469 52.964844c1.160156 2.324219 1.238281 5.039063.210937 7.425781l-26.480469 61.792969c-1.394531 3.25-4.59375 5.355469-8.132812 5.351563zm0 0"/></g><path d="m153.492188 269.242188h24.398437c3.058594 0 5.898437 1.585937 7.503906 4.1875 1.609375 2.601562 1.753907 5.847656.386719 8.585937l-12.199219 24.398437c-1.496093 2.988282-4.550781 4.871094-7.890625 4.871094s-6.394531-1.882812-7.894531-4.871094l-12.199219-24.398437c-1.367187-2.738281-1.21875-5.984375.386719-8.585937 1.609375-2.601563 4.449219-4.1875 7.507813-4.1875zm0 0" fill="#bdc3c7"/></svg>