<svg height="464pt" viewBox="-48 0 464 464" width="464pt" xmlns="http://www.w3.org/2000/svg"><path d="m0 88v159.023438c0 62.441406 20.71875 114 72 144.976562l112 72 112-72c51.28125-30.976562 72-82.535156 72-144.976562v-159.023438s-96 8-184-88c-88 96-184 88-184 88zm0 0" fill="#5a6470"/><path d="m312 288c-3.550781.011719-7 1.21875-9.785156 3.425781l-46.214844-59.425781 46.214844-59.425781c5.878906 4.527343 14.101562 4.402343 19.839844-.300781 5.734374-4.703126 7.46875-12.742188 4.183593-19.394532-3.289062-6.652344-10.726562-10.15625-17.949219-8.453125-7.222656 1.699219-12.316406 8.15625-12.289062 15.574219h-72l-32.871094-65.742188c6.648438-3.308593 10.144532-10.757812 8.445313-17.988281-1.699219-7.226562-8.148438-12.339843-15.574219-12.339843s-13.875 5.113281-15.574219 12.339843c-1.699219 7.230469 1.796875 14.679688 8.445313 17.988281l-32.871094 65.742188h-72c.078125-7.542969-5.070312-14.136719-12.40625-15.890625s-14.914062 1.796875-18.253906 8.558594c-3.34375 6.761719-1.566406 14.9375 4.285156 19.703125 5.847656 4.761718 14.214844 4.847656 20.160156.203125l46.214844 59.425781-46.214844 59.425781c-5.878906-4.527343-14.101562-4.402343-19.839844.300781-5.734374 4.703126-7.46875 12.742188-4.183593 19.394532 3.289062 6.652344 10.726562 10.15625 17.949219 8.453125 7.222656-1.699219 12.316406-8.15625 12.289062-15.574219h72l32.871094 65.742188c-6.648438 3.308593-10.144532 10.757812-8.445313 17.988281 1.699219 7.226562 8.148438 12.339843 15.574219 12.339843s13.875-5.113281 15.574219-12.339843c1.699219-7.230469-1.796875-14.679688-8.445313-17.988281l32.871094-65.742188h72c0 8.835938 7.164062 16 16 16s16-7.164062 16-16-7.164062-16-16-16zm0 0" fill="#fdbd40"/><path d="m248 232c0 35.347656-28.652344 64-64 64s-64-28.652344-64-64 28.652344-64 64-64 64 28.652344 64 64zm0 0" fill="#f49758"/><path d="m216 240c-4.417969 0-8-3.582031-8-8 0-13.253906-10.746094-24-24-24-4.417969 0-8-3.582031-8-8s3.582031-8 8-8c22.082031.027344 39.972656 17.917969 40 40 0 4.417969-3.582031 8-8 8zm0 0" fill="#fff"/></svg>