<svg height="512pt" viewBox="-49 0 512 512" width="512pt" xmlns="http://www.w3.org/2000/svg"><path d="m70.621094 0c-38.839844 0-70.621094 31.78125-70.621094 70.621094v355.804687c.105469-.175781.160156-.363281.265625-.53125 1.394531-2.242187 3.390625-3.195312 5.429687-3.351562 10.8125-25.195313 35.890626-42.957031 64.925782-42.957031h344.277344v-379.585938zm0 0" fill="#8e462c"/><path d="m70.621094 353.101562c-38.839844 0-70.621094 31.78125-70.621094 70.621094 0 38.84375 31.78125 70.621094 70.621094 70.621094h61.792968v-70.621094h52.964844v70.621094h229.519532v-141.242188zm0 0" fill="#f2ecbf"/><path d="m70.621094 388.414062c-19.472656 0-35.3125 15.835938-35.3125 35.308594 0 19.476563 15.839844 35.3125 35.3125 35.3125h61.792968v-35.3125h52.964844v35.3125h229.519532v-70.621094zm0 0" fill="#ccc496"/><path d="m132.414062 432.550781h-61.792968c-4.875 0-8.828125-3.945312-8.828125-8.828125 0-4.878906 3.953125-8.824218 8.828125-8.824218h61.792968c4.871094 0 8.828126 3.945312 8.828126 8.824218 0 4.882813-3.957032 8.828125-8.828126 8.828125zm0 0" fill="#ada477"/><path d="m238.34375 432.550781h-52.964844c-4.871094 0-8.828125-3.945312-8.828125-8.828125 0-4.878906 3.957031-8.824218 8.828125-8.824218h52.964844c4.875 0 8.828125 3.945312 8.828125 8.824218 0 4.882813-3.953125 8.828125-8.828125 8.828125zm0 0" fill="#ada477"/><path d="m61.792969.617188c-34.710938 4.386718-61.792969 34.15625-61.792969 70.003906v353.101562c0-35.847656 27.082031-65.675781 61.792969-70.0625zm0 0" fill="#6a2614"/><path d="m0 131.179688v54.199218c0-35.847656 27.082031-65.613281 61.792969-70.003906v-54.199219c-34.710938 4.386719-61.792969 34.152344-61.792969 70.003907zm0 0" fill="#e9c24e"/><path d="m0 273.039062v54.199219c0-35.847656 27.082031-65.613281 61.792969-70.003906v-54.199219c-34.710938 4.386719-61.792969 34.152344-61.792969 70.003906zm0 0" fill="#e9c24e"/><path d="m185.378906 512-26.480468-26.484375-26.484376 26.484375v-97.101562h52.964844zm0 0" fill="#dd352e"/><path d="m414.898438 414.898438h-44.140626c-4.871093 0-8.828124 3.945312-8.828124 8.824218 0 4.882813 3.957031 8.828125 8.828124 8.828125h44.140626zm0 0" fill="#ada477"/><path d="m326.621094 44.136719h-176.550782c0 24.402343-19.738281 44.140625-44.140624 44.140625v176.550781c24.402343 0 44.140624 19.738281 44.140624 44.136719h176.550782c0-24.398438 19.738281-44.136719 44.136718-44.136719v-176.550781c-24.398437 0-44.136718-19.738282-44.136718-44.140625zm0 0" fill="#fff"/><path d="m275.316406 220.691406c-36.566406 0-66.207031-29.644531-66.207031-66.207031 0-19.121094 8.144531-36.292969 21.105469-48.375-1.15625-.054687-2.285156-.179687-3.453125-.179687-43.871094 0-79.445313 35.566406-79.445313 79.449218 0 43.882813 35.574219 79.449219 79.445313 79.449219 33.085937 0 61.421875-20.234375 73.375-48.992187-7.671875 3.105468-16.039063 4.855468-24.820313 4.855468zm0 0" fill="#51c29d"/><g fill="#ebba16"><path d="m291.308594 180.207031-38.964844-38.964843 38.964844-38.964844 38.964844 38.964844zm-14-38.964843 14 14 14.003906-14-14.003906-14zm0 0"/><path d="m291.308594 123.585938c-4.871094 0-8.824219-3.953126-8.824219-8.828126v-17.65625c0-4.871093 3.953125-8.824218 8.824219-8.824218 4.875 0 8.828125 3.953125 8.828125 8.824218v17.65625c0 4.875-3.953125 8.828126-8.828125 8.828126zm0 0"/><path d="m335.449219 150.070312h-17.65625c-4.871094 0-8.828125-3.957031-8.828125-8.828124 0-4.875 3.957031-8.828126 8.828125-8.828126h17.65625c4.871093 0 8.828125 3.953126 8.828125 8.828126 0 4.871093-3.957032 8.828124-8.828125 8.828124zm0 0"/><path d="m291.308594 194.207031c-4.871094 0-8.824219-3.953125-8.824219-8.828125v-17.65625c0-4.871094 3.953125-8.824218 8.824219-8.824218 4.875 0 8.828125 3.953124 8.828125 8.824218v17.65625c0 4.875-3.953125 8.828125-8.828125 8.828125zm0 0"/><path d="m264.828125 150.070312h-17.65625c-4.871094 0-8.828125-3.957031-8.828125-8.828124 0-4.875 3.957031-8.828126 8.828125-8.828126h17.65625c4.871094 0 8.828125 3.953126 8.828125 8.828126 0 4.871093-3.957031 8.828124-8.828125 8.828124zm0 0"/></g></svg>