<svg id="Capa_1" enable-background="new 0 0 512 512" height="512" viewBox="0 0 512 512" width="512" xmlns="http://www.w3.org/2000/svg"><path d="m404.805 314.792h-26.595c-8.695 0-11.669-11.587-4.048-15.774 15.411-8.467 24.302-25.296 22.611-42.798l-13.771-142.532c-1.639-16.965-6.602-32.87-14.199-47.102h6.346c25.304 0 45.818-20.513 45.818-45.818v-14.989c0-3.192-2.588-5.779-5.779-5.779h-157.386c-64.783 0-118.97 49.204-125.201 113.687l-13.771 142.532c-1.691 17.502 7.2 34.331 22.611 42.798 7.621 4.187 4.647 15.774-4.048 15.774h-26.595c-16.854 0-32.082 6.929-43.016 18.084v179.125h394.002c1.801 0 3.261-1.46 3.261-3.261v-133.708c0-33.269-26.97-60.239-60.24-60.239z" fill="#665e66"/><g fill="#544f57"><path d="m415.188 0h-35.428v.164c0 25.304-20.513 45.818-45.818 45.818-2.854 0-4.777 2.967-3.559 5.548 6.027 12.775 9.983 26.762 11.412 41.554l13.771 142.532c1.691 17.502-7.2 34.331-22.611 42.798-7.621 4.187-4.647 15.774 4.048 15.774h26.595c5.236 0 10.315.668 15.158 1.924 12.552-9.071 19.532-24.211 18.017-39.892l-13.771-142.532c-1.639-16.965-6.602-32.87-14.199-47.102h6.346c25.304 0 45.818-20.513 45.818-45.818v-14.989c0-3.191-2.587-5.779-5.779-5.779z"/><path d="m415.188 0h-35.428v.164c0 25.304-20.513 45.818-45.818 45.818-2.854 0-4.777 2.967-3.559 5.548 6.027 12.775 9.983 26.762 11.412 41.554l13.771 142.532c1.691 17.502-7.2 34.331-22.611 42.798-7.621 4.187-4.647 15.774 4.048 15.774h26.595c5.236 0 10.315.668 15.158 1.924 12.552-9.071 19.532-24.211 18.017-39.892l-13.771-142.532c-1.639-16.965-6.602-32.87-14.199-47.102h6.346c25.304 0 45.818-20.513 45.818-45.818v-14.989c0-3.191-2.587-5.779-5.779-5.779z"/><path d="m409.093 314.942c9.185 10.574 14.745 24.38 14.745 39.486v60.443c0 42.264-34.262 76.525-76.525 76.525h-279.531v20.604h394.002c1.801 0 3.261-1.46 3.261-3.261v-133.708c0-31.828-24.683-57.89-55.952-60.089z"/></g><path d="m350.69 178.269 2.507-34.044c4.108-55.777-38.267-103.102-94.191-103.787-56.209-.688-100.792 46.864-96.676 102.754l2.583 35.078c.317 4.306-1.644 8.499-5.229 10.904-4.976 3.339-8.252 9.017-8.252 15.46 0 10.275 8.33 18.604 18.605 18.604h25.124c4.774 0 8.836 3.481 9.567 8.199l5.729 36.956c1.071 6.91 7.02 12.008 14.013 12.008h66.663c6.993 0 12.942-5.098 14.013-12.008l5.729-36.956c.731-4.718 4.793-8.199 9.567-8.199h25.124c10.275 0 18.605-8.329 18.605-18.604 0-6.443-3.275-12.121-8.252-15.46-3.585-2.407-5.546-6.599-5.229-10.905z" fill="#f1f1f4"/><path d="m355.919 189.173c-3.585-2.406-5.547-6.598-5.23-10.904l2.507-34.044c3.41-46.306-25.217-86.787-67.037-99.591 21.03 19.227 33.279 47.785 30.981 78.987l-1.837 24.949c-.627 8.513 2.498 16.747 8.152 23.143 2.9 3.281 4.66 7.592 4.66 12.315 0 10.275-8.33 18.604-18.605 18.604h-25.124c-4.774 0-8.836 3.481-9.567 8.199l-5.729 36.955c-1.071 6.91-7.02 12.008-14.013 12.008h-45.952l1.332 8.596c1.071 6.91 7.02 12.008 14.013 12.008h66.663c6.993 0 12.942-5.098 14.013-12.008l5.729-36.955c.731-4.718 4.793-8.199 9.567-8.199h25.124c10.275 0 18.605-8.329 18.605-18.604 0-6.443-3.275-12.12-8.252-15.459z" fill="#dfdde2"/><path d="m360.228 216.059c-3.405 4.362-8.699 7.178-14.661 7.178h-25.124c-4.774 0-8.836 3.481-9.567 8.199l-5.729 36.955c-1.071 6.91-7.02 12.008-14.013 12.008h-66.664c-6.993 0-12.942-5.098-14.013-12.008l-5.729-36.955c-.731-4.718-4.793-8.199-9.567-8.199h-25.124c-5.963 0-11.257-2.816-14.661-7.178l-3.863 42.637c-.659 7.267 2.793 14.234 8.794 17.75l68.301 40.015c8.921 5.226 19.016 7.988 29.194 7.988s20.274-2.762 29.194-7.988l68.301-40.015c6.001-3.516 9.453-10.483 8.794-17.75z" fill="#e28086"/><path d="m28.455 183.259h43.622c1.214 0 2.198-.984 2.198-2.198v-112.266c0-1.214-.984-2.198-2.198-2.198h-43.622c-1.214 0-2.198.984-2.198 2.198v112.267c0 1.213.984 2.197 2.198 2.197z" fill="#f1f1f4"/><path d="m32.75 183.259h35.033v328.741h-31.773c-1.801 0-3.261-1.46-3.261-3.261v-325.48z" fill="#e2bcaf"/><path d="m131.486 125.225h-57.211v49.529h52.426z" fill="#8b818e"/><path d="m389.362 179.507c26.75 6.415 51.596 19.147 72.412 37.123-17.096-32.199-43.863-57.808-75.94-73.638z" fill="#8b818e"/><path d="m132.601 113.687c1.319-13.655 4.797-26.621 10.063-38.584h-68.389v50.122h57.211z" fill="#c6c1c8"/><path d="m474.645 197.842c-14.916-49.74-50.909-88.771-96.449-108.532 2.363 7.816 3.995 15.966 4.807 24.377l2.831 29.305c32.077 15.83 58.843 41.439 75.94 73.638 7.062 6.098 13.661 12.798 19.713 20.058 1.676 2.01 4.896.295 4.144-2.212z" fill="#c6c1c8"/><path d="m244.205 159.292c0 14.062-11.266 25.493-25.265 25.759-14.441.274-26.262-11.895-26.262-26.339v-5.989c0-2.061 1.671-3.732 3.732-3.732h44.062c2.061 0 3.732 1.671 3.732 3.732v6.569z" fill="#e28086"/><path d="m271.398 159.292c0 14.062 11.266 25.493 25.265 25.759 14.441.274 26.262-11.895 26.262-26.339v-5.989c0-2.061-1.671-3.732-3.732-3.732h-44.062c-2.061 0-3.732 1.671-3.732 3.732v6.569z" fill="#e28086"/><path d="m321.002 168.597c1.239-3.069 1.923-6.411 1.923-9.885v-5.989c0-2.061-1.671-3.732-3.732-3.732h-3.918c-.417 7.038 1.724 13.869 5.727 19.606z" fill="#dd636e"/><path d="m249.629 280.399h-15.453v-30.756c0-4.267 3.459-7.726 7.726-7.726s7.726 3.459 7.726 7.726v30.756zm24.072-38.482c-4.267 0-7.726 3.459-7.726 7.726v30.756h15.453v-30.756c0-4.267-3.46-7.726-7.727-7.726z" fill="#c6c1c8"/><path d="m249.629 259.796h-15.453v20.603h15.453z" fill="#afaab4"/><path d="m281.428 249.643c0-4.267-3.459-7.726-7.726-7.726-1.407 0-2.725.376-3.861 1.033l-.75 4.838c-.406 2.621-1.515 4.98-3.115 6.901v25.711h15.453v-30.757z" fill="#afaab4"/><path d="m130.743 417.774v94.226h-15.453v-94.226c0-4.267 3.459-7.726 7.726-7.726 4.268-.001 7.727 3.459 7.727 7.726zm261.844-7.727c-4.267 0-7.726 3.459-7.726 7.726v94.227h15.453v-94.226c-.001-4.267-3.46-7.727-7.727-7.727z" fill="#544f57"/><path d="m115.291 491.396h15.453v20.604h-15.453z" fill="#454045"/><path d="m384.86 481.567v30.433h15.453v-41.929c-4.631 4.448-9.821 8.318-15.453 11.496z" fill="#454045"/><path d="m257.802 367.498c-22.021 0-44.042-5.514-64.115-16.543-3.74-2.055-5.106-6.753-3.051-10.492 2.055-3.74 6.753-5.105 10.492-3.051 35.488 19.498 77.861 19.498 113.349 0 3.74-2.055 8.437-.689 10.492 3.051 2.055 3.739.689 8.437-3.051 10.492-20.074 11.029-42.095 16.543-64.116 16.543z" fill="#544f57"/><path d="m368.803 66.585h6.346c3.558 0 7.021-.406 10.346-1.173-6.56-13.962-15.466-26.642-26.369-37.566-3.014-3.021-7.906-3.025-10.927-.01s-3.025 7.906-.01 10.927c8.219 8.234 15.154 17.594 20.614 27.822z" fill="#544f57"/><path d="m351.686 42.419c6.704 7.314 12.45 15.423 17.117 24.166 5.223-.105 9.756.429 16.689-1.172.001 0 .002-.001.004-.001-5.368-11.426-12.309-21.993-20.628-31.442-3.849 3.522-8.3 6.396-13.182 8.449z" fill="#454045"/><path d="m243.162 224.064c-.662 0-1.335-.086-2.005-.265-4.122-1.105-6.567-5.341-5.463-9.463l2.692-10.045c1.105-4.123 5.348-6.565 9.463-5.464 4.122 1.105 6.568 5.341 5.464 9.463l-2.692 10.045c-.925 3.453-4.048 5.729-7.459 5.729z" fill="#c6c1c8"/><path d="m272.441 224.064c-3.411 0-6.533-2.277-7.458-5.729l-2.692-10.045c-1.104-4.122 1.342-8.359 5.464-9.463 4.12-1.102 8.358 1.342 9.463 5.464l2.692 10.045c1.104 4.122-1.342 8.359-5.463 9.463-.671.179-1.344.265-2.006.265z" fill="#c6c1c8"/><path d="m272.769 224.057c.556-.024 1.118-.108 1.678-.258 4.122-1.105 6.567-5.341 5.463-9.463l-2.375-8.861c-1.409 1.411-2.391 3.262-2.716 5.357z" fill="#afaab4"/></svg>