<svg height="469pt" viewBox="0 -42 469.33334 469" width="469pt" xmlns="http://www.w3.org/2000/svg"><path d="m85.332031 362.832031c0 11.785157-9.550781 21.335938-21.332031 21.335938s-21.332031-9.550781-21.332031-21.335938c0-11.78125 9.550781-21.332031 21.332031-21.332031s21.332031 9.550781 21.332031 21.332031zm0 0" fill="#2c2f53"/><path d="m426.667969 362.832031c0 11.785157-9.550781 21.335938-21.335938 21.335938-11.78125 0-21.332031-9.550781-21.332031-21.335938 0-11.78125 9.550781-21.332031 21.332031-21.332031 11.785157 0 21.335938 9.550781 21.335938 21.332031zm0 0" fill="#2c2f53"/><path d="m21.332031.167969h426.667969c11.78125 0 21.332031 9.550781 21.332031 21.332031v320c0 11.78125-9.550781 21.332031-21.332031 21.332031h-426.667969c-11.78125 0-21.332031-9.550781-21.332031-21.332031v-320c0-11.78125 9.550781-21.332031 21.332031-21.332031zm0 0" fill="#2c2f53"/><path d="m21.332031.167969h384c11.785157 0 21.335938 9.550781 21.335938 21.332031v320c0 11.78125-9.550781 21.332031-21.335938 21.332031h-384c-11.78125 0-21.332031-9.550781-21.332031-21.332031v-320c0-11.78125 9.550781-21.332031 21.332031-21.332031zm0 0" fill="#4c4f6e"/><path d="m64 .167969h234.667969c11.78125 0 21.332031 9.550781 21.332031 21.332031v320c0 11.78125-9.550781 21.332031-21.332031 21.332031h-234.667969c-11.78125 0-21.332031-9.550781-21.332031-21.332031v-320c0-11.78125 9.550781-21.332031 21.332031-21.332031zm0 0" fill="#999aac"/><path d="m21.332031 21.5h426.667969v320h-426.667969zm0 0" fill="#2c2f53"/><path d="m21.332031 21.5h21.335938v320h-21.335938zm0 0" fill="#080b36"/><path d="m42.667969 42.832031h384v277.335938h-384zm0 0" fill="#7c7f95"/><path d="m42.667969 42.832031h384v277.335938h-384zm0 0" fill="#7c7f95"/><path d="m42.667969 42.832031h277.332031v277.335938h-277.332031zm0 0" fill="#999aac"/><path d="m128 64.167969c11.78125 0 21.332031 9.550781 21.332031 21.332031v192c0 11.78125-9.550781 21.332031-21.332031 21.332031s-21.332031-9.550781-21.332031-21.332031v-192c0-11.78125 9.550781-21.332031 21.332031-21.332031zm0 0" fill="#4c4f6e"/><path d="m405.332031 181.5c0 53.019531-42.980469 96-96 96s-96-42.980469-96-96 42.980469-96 96-96 96 42.980469 96 96zm0 0" fill="#2c2f53"/><path d="m405.332031 181.5c0 53.019531-42.980469 96-96 96s-96-42.980469-96-96 42.980469-96 96-96 96 42.980469 96 96zm0 0" fill="#2c2f53"/><path d="m362.667969 181.5c0 29.457031-23.878907 53.332031-53.335938 53.332031-29.453125 0-53.332031-23.875-53.332031-53.332031s23.878906-53.332031 53.332031-53.332031c29.457031 0 53.335938 23.875 53.335938 53.332031zm0 0" fill="#080b36"/><path d="m341.332031 181.5c0 17.671875-14.324219 32-32 32-17.671875 0-32-14.328125-32-32s14.328125-32 32-32c17.675781 0 32 14.328125 32 32zm0 0" fill="#7c7f95"/><path d="m316.621094 152.878906c-6.359375-6.359375-19.554688-3.476562-29.46875 6.4375-9.917969 9.917969-12.800782 23.113282-6.441406 29.472656 6.359374 6.359376 19.554687 3.476563 29.472656-6.441406 9.914062-9.914062 12.796875-23.109375 6.4375-29.46875zm0 0" fill="#cacad4"/><path d="m320 138.832031c0 5.890625-4.777344 10.667969-10.667969 10.667969s-10.664062-4.777344-10.664062-10.667969 4.773437-10.664062 10.664062-10.664062 10.667969 4.773437 10.667969 10.664062zm0 0" fill="#11cbe5"/><g fill="#999aac"><path d="m320 117.5c0 5.890625-4.777344 10.667969-10.667969 10.667969s-10.664062-4.777344-10.664062-10.667969 4.773437-10.667969 10.664062-10.667969 10.667969 4.777344 10.667969 10.667969zm0 0"/><path d="m320 245.5c0 5.890625-4.777344 10.667969-10.667969 10.667969s-10.664062-4.777344-10.664062-10.667969 4.773437-10.667969 10.664062-10.667969 10.667969 4.777344 10.667969 10.667969zm0 0"/><path d="m288 126.074219c0 5.890625-4.777344 10.667969-10.667969 10.667969s-10.664062-4.777344-10.664062-10.667969 4.773437-10.667969 10.664062-10.667969 10.667969 4.777344 10.667969 10.667969zm0 0"/><path d="m352 236.925781c0 5.890625-4.777344 10.667969-10.667969 10.667969s-10.664062-4.777344-10.664062-10.667969 4.773437-10.667969 10.664062-10.667969 10.667969 4.777344 10.667969 10.667969zm0 0"/><path d="m264.574219 149.5c0 5.890625-4.777344 10.667969-10.667969 10.667969s-10.664062-4.777344-10.664062-10.667969 4.773437-10.667969 10.664062-10.667969 10.667969 4.777344 10.667969 10.667969zm0 0"/><path d="m375.425781 213.5c0 5.890625-4.777343 10.667969-10.667969 10.667969-5.890624 0-10.664062-4.777344-10.664062-10.667969s4.773438-10.667969 10.664062-10.667969c5.890626 0 10.667969 4.777344 10.667969 10.667969zm0 0"/><path d="m256 181.5c0 5.890625-4.777344 10.667969-10.667969 10.667969s-10.664062-4.777344-10.664062-10.667969 4.773437-10.667969 10.664062-10.667969 10.667969 4.777344 10.667969 10.667969zm0 0"/><path d="m384 181.5c0 5.890625-4.777344 10.667969-10.667969 10.667969s-10.664062-4.777344-10.664062-10.667969 4.773437-10.667969 10.664062-10.667969 10.667969 4.777344 10.667969 10.667969zm0 0"/><path d="m264.574219 213.5c0 5.890625-4.777344 10.667969-10.667969 10.667969s-10.664062-4.777344-10.664062-10.667969 4.773437-10.667969 10.664062-10.667969 10.667969 4.777344 10.667969 10.667969zm0 0"/><path d="m375.425781 149.5c0 5.890625-4.777343 10.667969-10.667969 10.667969-5.890624 0-10.664062-4.777344-10.664062-10.667969s4.773438-10.667969 10.664062-10.667969c5.890626 0 10.667969 4.777344 10.667969 10.667969zm0 0"/><path d="m288 236.925781c0 5.890625-4.777344 10.667969-10.667969 10.667969s-10.664062-4.777344-10.664062-10.667969 4.773437-10.667969 10.664062-10.667969 10.667969 4.777344 10.667969 10.667969zm0 0"/><path d="m352 126.074219c0 5.890625-4.777344 10.667969-10.667969 10.667969s-10.664062-4.777344-10.664062-10.667969 4.773437-10.667969 10.664062-10.667969 10.667969 4.777344 10.667969 10.667969zm0 0"/></g><path d="m106.667969 64.167969c11.78125 0 21.332031 9.550781 21.332031 21.332031v192c0 11.78125-9.550781 21.332031-21.332031 21.332031-11.785157 0-21.335938-9.550781-21.335938-21.332031v-192c0-11.78125 9.550781-21.332031 21.335938-21.332031zm0 0" fill="#cacad4"/><path d="m106.667969 85.5c11.78125 0 21.332031 9.550781 21.332031 21.332031v149.335938c0 11.78125-9.550781 21.332031-21.332031 21.332031-11.785157 0-21.335938-9.550781-21.335938-21.332031v-149.335938c0-11.78125 9.550781-21.332031 21.335938-21.332031zm0 0" fill="#eaeaee"/></svg>