<svg id="fist-justice" enable-background="new 0 0 300 300" height="512" viewBox="0 0 300 300" width="512" xmlns="http://www.w3.org/2000/svg"><path d="m219.01 94h-161.01v89.01c0 12.697 10.293 22.99 22.99 22.99h1.01v32h136v-32h1.01c12.697 0 22.99-10.293 22.99-22.99v-66.02c0-12.697-10.293-22.99-22.99-22.99z" fill="#ffde9d"/><path d="m218 246h-136c-4.422 0-8-3.578-8-8v-24.797c-13.734-3.18-24-15.508-24-30.195v-89.008c0-4.422 3.578-8 8-8h161.008c17.086 0 30.992 13.906 30.992 30.992v66.016c0 14.688-10.266 27.016-24 30.195v24.797c0 4.422-3.578 8-8 8zm-128-16h120v-24c0-4.422 3.578-8 8-8h1.008c8.266 0 14.992-6.727 14.992-14.992v-66.016c0-8.266-6.727-14.992-14.992-14.992h-153.008v81.008c0 8.265 6.727 14.992 14.992 14.992h1.008c4.422 0 8 3.578 8 8z" fill="#5d038e"/><path d="m78 118c-11.046 0-20-8.954-20-20v-48c0-11.046 8.954-20 20-20 11.046 0 20 8.954 20 20v48c0 11.046-8.954 20-20 20z" fill="#ffde9d"/><path d="m78 126c-15.438 0-28-12.562-28-28v-48c0-15.438 12.562-28 28-28s28 12.562 28 28v48c0 15.438-12.562 28-28 28zm0-88c-6.617 0-12 5.383-12 12v48c0 6.617 5.383 12 12 12s12-5.383 12-12v-48c0-6.617-5.383-12-12-12z" fill="#5d038e"/><path d="m118 126c-11.046 0-20-8.954-20-20v-56c0-11.046 8.954-20 20-20 11.046 0 20 8.954 20 20v56c0 11.046-8.954 20-20 20z" fill="#ffde9d"/><path d="m118 134c-15.438 0-28-12.562-28-28v-56c0-15.438 12.562-28 28-28s28 12.562 28 28v56c0 15.438-12.562 28-28 28zm0-96c-6.617 0-12 5.383-12 12v56c0 6.617 5.383 12 12 12s12-5.383 12-12v-56c0-6.617-5.383-12-12-12z" fill="#5d038e"/><path d="m158 126c-11.046 0-20-8.954-20-20v-56c0-11.046 8.954-20 20-20 11.046 0 20 8.954 20 20v56c0 11.046-8.954 20-20 20z" fill="#ffde9d"/><path d="m158 134c-15.438 0-28-12.562-28-28v-56c0-15.438 12.562-28 28-28s28 12.562 28 28v56c0 15.438-12.562 28-28 28zm0-96c-6.617 0-12 5.383-12 12v56c0 6.617 5.383 12 12 12s12-5.383 12-12v-56c0-6.617-5.383-12-12-12z" fill="#5d038e"/><path d="m178 89.922v-39.922c0-11.046 8.954-20 20-20 11.046 0 20 8.954 20 20v40.508" fill="#ffde9d"/><path d="m218 98.508c-4.422 0-8-3.578-8-8v-40.508c0-6.617-5.383-12-12-12s-12 5.383-12 12v39.922c0 4.422-3.578 8-8 8s-8-3.578-8-8v-39.922c0-15.438 12.562-28 28-28s28 12.562 28 28v40.508c0 4.422-3.578 8-8 8z" fill="#5d038e"/><path d="m218 94h-64c0 22.091 17.909 40 40 40h14.892s-22.892 0-30.892 32" fill="#ffde9d"/><path d="m178.008 174c-.641 0-1.297-.078-1.945-.242-4.289-1.07-6.898-5.414-5.82-9.695 2.633-10.555 6.742-18.188 11.312-23.695-20.453-5.501-35.555-24.204-35.555-46.368 0-4.422 3.578-8 8-8h64c4.422 0 8 3.578 8 8s-3.578 8-8 8h-54.984c3.555 13.789 16.102 24 30.984 24h14.891c4.422 0 8 3.578 8 8s-3.578 8-8 8c-.562.023-16.859.844-23.133 25.938-.906 3.64-4.164 6.062-7.75 6.062z" fill="#5d038e"/><path d="m74 270v-32h152v32" fill="#816982"/><path d="m226 278c-4.422 0-8-3.578-8-8v-24h-136v24c0 4.422-3.578 8-8 8s-8-3.578-8-8v-32c0-4.422 3.578-8 8-8h152c4.422 0 8 3.578 8 8v32c0 4.422-3.578 8-8 8z" fill="#5d038e"/></svg>