<?xml version="1.0" encoding="iso-8859-1"?>
<!-- Generator: Adobe Illustrator 19.0.0, SVG Export Plug-In . SVG Version: 6.00 Build 0)  -->
<svg xmlns="http://www.w3.org/2000/svg" xmlns:xlink="http://www.w3.org/1999/xlink" version="1.1" id="Layer_1" x="0px" y="0px" viewBox="0 0 512 512" style="enable-background:new 0 0 512 512;" xml:space="preserve" width="512" height="512">
<g>
	<path style="fill:#FFBD59;" d="M256,198.758c-31.563,0-57.242,25.679-57.242,57.242s25.679,57.242,57.242,57.242   s57.242-25.679,57.242-57.242S287.563,198.758,256,198.758z"/>
	<path style="fill:#FF8036;" d="M256,198.758v114.483c31.563,0,57.242-25.679,57.242-57.242S287.563,198.758,256,198.758z"/>
	<path style="fill:#5F6270;" d="M497,241h-13.87c-3.243-50.184-22.727-97.22-55.918-134.999l3.156-3.156   c5.858-5.858,5.858-15.355,0-21.213c-5.857-5.858-15.355-5.858-21.213,0l-3.156,3.156C368.22,51.596,321.184,32.113,271,28.87V15   c0-8.284-6.716-15-15-15s-15,6.716-15,15v13.87c-50.184,3.243-97.22,22.727-134.999,55.918l-3.156-3.156   c-5.857-5.858-15.355-5.858-21.213,0c-5.858,5.858-5.858,15.355,0,21.213l3.156,3.156C51.596,143.78,32.113,190.816,28.87,241H15   c-8.284,0-15,6.716-15,15s6.716,15,15,15h13.87c3.243,50.184,22.727,97.22,55.918,134.999l-3.156,3.156   c-5.858,5.858-5.858,15.355,0,21.213c2.929,2.929,6.768,4.394,10.606,4.394s7.678-1.464,10.606-4.394l3.156-3.156   C143.78,460.404,190.816,479.887,241,483.13V497c0,8.284,6.716,15,15,15s15-6.716,15-15v-13.87   c50.184-3.243,97.22-22.727,134.999-55.918l3.156,3.156c2.929,2.929,6.768,4.394,10.606,4.394s7.678-1.464,10.606-4.394   c5.858-5.858,5.858-15.355,0-21.213l-3.156-3.156C460.404,368.22,479.887,321.184,483.13,271H497c8.284,0,15-6.716,15-15   S505.284,241,497,241z M384.668,106.119l-2.142,2.142c-5.858,5.858-5.858,15.355,0,21.213c2.929,2.929,6.768,4.394,10.606,4.394   s7.678-1.464,10.606-4.394l2.142-2.142c26.688,31.044,43.923,70.435,47.183,113.668h-44.349   C401.632,168.338,343.662,110.368,271,103.286V58.936C314.233,62.196,353.625,79.431,384.668,106.119z M370.613,271h7.922   C371.708,327.103,327.103,371.709,271,378.535v-7.922c0-8.284-6.716-15-15-15s-15,6.716-15,15v7.922   C184.897,371.709,140.292,327.103,133.465,271h7.922c8.284,0,15-6.716,15-15s-6.716-15-15-15h-7.922   c6.827-56.103,51.433-100.709,107.535-107.535v7.922c0,8.284,6.716,15,15,15s15-6.716,15-15v-7.922   c56.103,6.827,100.708,51.433,107.535,107.535h-7.922c-8.284,0-15,6.716-15,15S362.329,271,370.613,271z M106.119,127.332   l2.142,2.142c2.929,2.929,6.768,4.394,10.606,4.394s7.678-1.464,10.606-4.394c5.858-5.858,5.858-15.355,0-21.213l-2.142-2.142   C158.375,79.431,197.767,62.196,241,58.936v44.349C168.338,110.368,110.368,168.338,103.286,241H58.936   C62.196,197.767,79.431,158.375,106.119,127.332z M127.332,405.881l2.142-2.142c5.858-5.858,5.858-15.355,0-21.213   c-5.857-5.858-15.355-5.858-21.213,0l-2.142,2.142C79.431,353.625,62.196,314.233,58.936,271h44.349   c7.082,72.662,65.053,130.632,137.714,137.714v44.349C197.767,449.804,158.375,432.569,127.332,405.881z M405.881,384.668   l-2.142-2.142c-5.857-5.858-15.355-5.858-21.213,0c-5.858,5.858-5.858,15.355,0,21.213l2.142,2.142   c-31.044,26.688-70.435,43.923-113.668,47.183v-44.349c72.662-7.082,130.632-65.053,137.714-137.714h44.349   C449.804,314.233,432.569,353.625,405.881,384.668z"/>
	<path style="fill:#343642;" d="M497,241h-13.87c-3.243-50.184-22.727-97.22-55.918-134.999l3.156-3.156   c5.858-5.858,5.858-15.355,0-21.213c-5.857-5.858-15.355-5.858-21.213,0l-3.156,3.156C368.22,51.596,321.184,32.113,271,28.87V15   c0-8.284-6.716-15-15-15v156.387c8.284,0,15-6.716,15-15v-7.922c56.103,6.827,100.708,51.433,107.535,107.535h-7.922   c-8.284,0-15,6.716-15,15s6.716,15,15,15h7.922C371.708,327.103,327.103,371.709,271,378.535v-7.922c0-8.284-6.716-15-15-15V512   c8.284,0,15-6.716,15-15v-13.87c50.184-3.243,97.22-22.727,134.999-55.918l3.156,3.156c2.929,2.929,6.768,4.394,10.606,4.394   s7.678-1.464,10.606-4.394c5.858-5.858,5.858-15.355,0-21.213l-3.156-3.156C460.404,368.22,479.887,321.184,483.13,271H497   c8.284,0,15-6.716,15-15S505.284,241,497,241z M405.881,384.668l-2.142-2.142c-5.857-5.858-15.355-5.858-21.213,0   c-5.858,5.858-5.858,15.355,0,21.213l2.142,2.142c-31.044,26.688-70.435,43.923-113.668,47.183v-44.349   c72.662-7.082,130.632-65.053,137.714-137.714h44.349C449.804,314.233,432.569,353.625,405.881,384.668z M408.714,241   C401.632,168.338,343.662,110.368,271,103.286V58.936c43.233,3.26,82.625,20.495,113.668,47.183l-2.142,2.142   c-5.858,5.858-5.858,15.355,0,21.213c2.929,2.929,6.768,4.394,10.606,4.394s7.678-1.464,10.606-4.394l2.142-2.142   c26.688,31.044,43.923,70.435,47.183,113.668H408.714z"/>
</g>















</svg>
