<?xml version="1.0" encoding="iso-8859-1"?>
<!-- Generator: Adobe Illustrator 19.0.0, SVG Export Plug-In . SVG Version: 6.00 Build 0)  -->
<svg version="1.1" id="Layer_1" xmlns="http://www.w3.org/2000/svg" xmlns:xlink="http://www.w3.org/1999/xlink" x="0px" y="0px"
	 viewBox="0 0 512 512" style="enable-background:new 0 0 512 512;" xml:space="preserve">
<circle style="fill:#88EB92;" cx="256" cy="256" r="256"/>
<path style="fill:#73D17C;" d="M511.746,267.092c-4.352,102.197-68.631,188.881-158.593,225.816L256,395.756l126.632-257.778
	L511.746,267.092z"/>
<path style="fill:#FF8C8A;" d="M256,190.427c0-40.964-33.208-74.183-74.172-74.183c-40.976,0-74.183,33.219-74.183,74.183
	c0,98.815,112.504,143.034,148.355,205.34c35.862-62.306,148.367-106.525,148.367-205.34c0-40.964-33.219-74.183-74.183-74.183
	S256,149.463,256,190.427z"/>
<path style="fill:#FA7876;" d="M249.906,386.326c2.216,3.105,4.259,6.244,6.094,9.442c35.862-62.306,148.367-106.525,148.367-205.34
	c0-21.215-8.911-40.341-23.189-53.869c10.065,12.662,16.079,28.683,16.079,46.112C397.257,280.597,286.807,324.908,249.906,386.326z
	"/>
<g>
</g>
<g>
</g>
<g>
</g>
<g>
</g>
<g>
</g>
<g>
</g>
<g>
</g>
<g>
</g>
<g>
</g>
<g>
</g>
<g>
</g>
<g>
</g>
<g>
</g>
<g>
</g>
<g>
</g>
</svg>
