<?xml version="1.0" encoding="iso-8859-1"?>
<!-- Generator: Adobe Illustrator 19.0.0, SVG Export Plug-In . SVG Version: 6.00 Build 0)  -->
<svg version="1.1" id="Capa_1" xmlns="http://www.w3.org/2000/svg" xmlns:xlink="http://www.w3.org/1999/xlink" x="0px" y="0px"
	 viewBox="0 0 512.001 512.001" style="enable-background:new 0 0 512.001 512.001;" xml:space="preserve">
<path style="fill:#FFDA45;" d="M249.432,326.662l-8.482,8.482c-38.178,37.753-27.786,27.361-52.6,52.175l-55.143,7.635
	l-1.697-14.422l-6.787-56.84c24.814-24.814,14.422-14.422,52.175-52.6l8.483-8.483c5.939-5.515,15.695-5.515,21.422,0.212
	l42.418,42.418C254.946,310.967,254.946,320.722,249.432,326.662z"/>
<path style="fill:#FFBC36;" d="M249.432,326.662l-8.482,8.482c-38.178,37.753-27.786,27.361-52.6,52.175l-55.143,7.635
	l-1.697-14.422l96.502-96.501l21.209,21.209C254.946,310.967,254.946,320.722,249.432,326.662z"/>
<path style="fill:#3F6199;" d="M512.001,179.893c0-49.629-19.936-94.593-52.598-127.255S381.777,0.04,332.149,0.04
	c-99.26,0-180.067,80.807-180.066,180.066c-0.001,49.63,20.149,94.381,52.811,127.043s77.412,52.812,127.043,52.811
	C431.195,359.961,512.001,279.153,512.001,179.893z"/>
<path style="fill:#355382;" d="M331.936,359.959c-49.63,0.001-94.381-20.149-127.043-52.811l254.51-254.509
	c32.662,32.662,52.598,77.626,52.598,127.255C512.001,279.153,431.195,359.961,331.936,359.959z"/>
<path style="fill:#CDEBFC;" d="M332.147,330.054c-41.569,0-78.896-16.967-106.045-44.116
	c-27.149-27.149-44.116-64.476-44.116-106.045c0-82.716,67.232-149.949,149.949-149.949c41.358,0.211,78.897,16.966,106.046,44.115
	c27.149,27.149,43.903,64.688,44.115,106.046C481.883,262.609,414.651,329.842,332.147,330.054z"/>
<path style="fill:#BFE1FF;" d="M332.147,330.054c-41.569,0-78.896-16.967-106.045-44.116L437.981,74.059
	c27.149,27.149,43.903,64.688,44.115,106.046C481.883,262.609,414.651,329.842,332.147,330.054z"/>
<path style="fill:#3F6199;" d="M188.349,387.319L76.911,498.758c-17.604,17.604-46.023,17.604-63.628,0
	c-17.604-17.604-17.817-46.236,0-63.628l111.439-111.439L188.349,387.319z"/>
<path style="fill:#355382;" d="M188.349,387.319L76.911,498.758c-17.604,17.604-46.023,17.604-63.628,0l143.252-143.252
	L188.349,387.319z"/>
<g>
	<path style="fill:#1EA1E3;" d="M352.085,159.957c-5.939,3.394-12.727,5.091-19.936,5.091c-25.028,0-44.964-20.361-45.175-45.175
		c0.212-24.815,20.36-44.963,44.963-44.963c25.026-0.001,44.963,20.36,45.175,45.175c0,7.211-1.91,14.209-5.302,20.148
		C367.778,148.929,360.78,155.927,352.085,159.957z"/>
	<path style="fill:#1EA1E3;" d="M412.318,254.974l-155.251,0.001h-5.09c-5.515,0-9.969-4.454-9.757-9.757l-0.211-20.149
		c-0.001-33.087,26.935-60.023,60.021-60.021l45.175-0.212l14.846-0.001c33.087,0.001,60.022,26.937,60.022,60.023l-0.001,20.361
		C422.073,250.732,417.832,254.974,412.318,254.974z"/>
</g>
<g>
	<path style="fill:#368DCF;" d="M412.318,254.974l-155.251,0.001l90.139-90.139l14.846-0.001
		c33.087,0.001,60.022,26.937,60.022,60.023l-0.001,20.361C422.073,250.732,417.832,254.974,412.318,254.974z"/>
	<path style="fill:#368DCF;" d="M352.085,159.957l19.724-19.724C367.778,148.929,360.78,155.927,352.085,159.957z"/>
</g>
<g>
</g>
<g>
</g>
<g>
</g>
<g>
</g>
<g>
</g>
<g>
</g>
<g>
</g>
<g>
</g>
<g>
</g>
<g>
</g>
<g>
</g>
<g>
</g>
<g>
</g>
<g>
</g>
<g>
</g>
</svg>
