<?xml version="1.0" encoding="iso-8859-1"?>
<!-- Generator: Adobe Illustrator 19.0.0, SVG Export Plug-In . SVG Version: 6.00 Build 0)  -->
<svg xmlns="http://www.w3.org/2000/svg" xmlns:xlink="http://www.w3.org/1999/xlink" version="1.1" id="Layer_1" x="0px" y="0px" viewBox="0 0 497 497" style="enable-background:new 0 0 497 497;" xml:space="preserve" width="512" height="512">
<g>
	<path style="fill:#4B3F4E;" d="M496.998,96.547c0.117-13.085-5.348-25.599-14.599-34.85l-47.095-47.095   c-9.251-9.251-21.765-14.716-34.85-14.599c-12.892,0.117-24.945,5.273-33.941,14.531c-18.853,19.39-49.828,61.53-52.912,131.009   l-44.039,44.039l4.474,33.384l33.384,4.474l44.039-44.039c69.48-3.084,111.619-34.058,131.009-52.912   C491.726,121.492,496.881,109.439,496.998,96.547z M369.052,127.948c5.527-35.648,20.553-58.852,31.98-71.903l39.923,39.923   C427.904,107.395,404.7,122.421,369.052,127.948z"/>
	<path style="fill:#D2D2D2;" d="M232.241,381.737c-10.784-7.896-26.059-20.127-42.527-36.594l-37.858-37.858   c-16.467-16.467-28.698-31.742-36.594-42.527c-5.893-8.047-17.561-8.956-24.614-1.904l-38.58,38.58   C12.065,341.439-6.949,398.228,2.305,454.04c0.595,3.589,1.308,7.182,2.151,10.768c3.235,13.756,13.979,24.501,27.736,27.736   c3.585,0.843,7.179,1.556,10.768,2.151c55.812,9.255,112.601-9.76,152.605-49.763l38.58-38.58   C241.197,399.298,240.289,387.63,232.241,381.737z"/>
	<path style="fill:#C3C3C3;" d="M211.742,365.488c-6.856-5.848-14.307-12.625-22.027-20.345l-37.858-37.858   c-7.723-7.723-14.501-15.175-20.351-22.034c-0.291,0.269-0.581,0.539-0.863,0.82l-41.024,41.024   c-16.343,16.344-26.305,38.036-28.051,61.091c-0.966,12.81,3.693,25.37,12.784,34.461c8.324,8.324,19.378,12.909,31.125,12.909   c0,0,0.001,0,0.002,0c1.106,0,2.229-0.042,3.355-0.127c11.489-0.875,22.607-3.75,33.058-8.551   c10.461-4.813,19.885-11.373,28.011-19.499l41.024-41.024C211.21,366.075,211.473,365.779,211.742,365.488z"/>
	<path style="fill:#D2D2D2;" d="M182.487,314.513l-30.631-7.227l-41.024,41.024c-11.282,11.282-18.144,26.225-19.349,42.133   c-0.323,4.288,1.301,8.212,4.082,10.993s6.704,4.405,10.993,4.082c7.957-0.606,15.666-2.616,22.797-5.892   c7.138-3.283,13.691-7.813,19.335-13.457l41.024-41.024L182.487,314.513z"/>
	
		<rect x="146.408" y="240.593" transform="matrix(0.7071 -0.7071 0.7071 0.7071 -121.7943 240.687)" style="fill:#CC8763;" width="166.459" height="53.539"/>
</g>















</svg>
