<svg height="464pt" viewBox="0 0 464 464" width="464pt" xmlns="http://www.w3.org/2000/svg"><path d="m448 232c0 119.292969-96.707031 216-216 216s-216-96.707031-216-216 96.707031-216 216-216 216 96.707031 216 216zm0 0"/><path d="m144 368 8-32v-48c1.785156-17.554688-4.039062-35.03125-16-48-14.480469-17.441406-46.800781-62.960938-27.121094-108.640625 13.28125-30.878906 39.921875-49.359375 91.121094-51.359375 52.558594-2.078125 90.320312 21.519531 91.039062 24.160156-.199218 5.402344-1.226562 10.746094-3.039062 15.839844 2.875 7.875 6.15625 15.589844 9.839844 23.121094l6.558594 39.597656c9.042968 6.640625 22.960937 16.402344 29.28125 21.519531 8.800781 7.121094-29.679688 11.761719-29.679688 11.761719s-.640625 16.960938 8 24c3.441406 2.800781-39.839844 7.921875-40 8 0 0 32 24 40 24l-8 8c-8 8 7.359375 28.480469 0 32s-23.839844.480469-32 0-2.160156 64.078125 0 72zm0 0" fill="#fff"/><path d="m232 0c-128.128906 0-232 103.871094-232 232s103.871094 232 232 232 232-103.871094 232-232c-.144531-128.070312-103.929688-231.855469-232-232zm0 32c47.523438-.039062 93.492188 16.917969 129.601562 47.816406l-281.785156 281.785156c-50.648437-59.332031-62.144531-142.707031-29.441406-213.527343 32.699219-70.824219 103.617188-116.148438 181.625-116.074219zm0 400c-47.507812.03125-93.460938-16.929688-129.558594-47.816406l281.742188-281.742188c50.621094 59.328125 62.101562 142.6875 29.40625 213.496094-32.699219 70.804688-103.597656 116.121094-181.589844 116.0625zm0 0" fill="#c1272d"/><g fill="#fff"><path d="m392 272h-40c-4.417969 0-8-3.582031-8-8s3.582031-8 8-8h40c4.417969 0 8 3.582031 8 8s-3.582031 8-8 8zm0 0"/><path d="m384 320c-1.234375.011719-2.457031-.261719-3.566406-.800781l-32-16c-3.957032-1.972657-5.5625-6.78125-3.585938-10.734375 1.976563-3.957032 6.78125-5.558594 10.738282-3.585938l32 16c3.277343 1.679688 4.984374 5.382813 4.136718 8.964844-.851562 3.585938-4.039062 6.128906-7.722656 6.15625zm0 0"/><path d="m352 240c-4.109375.003906-7.554688-3.105469-7.96875-7.195312-.410156-4.089844 2.339844-7.828126 6.367188-8.644532l40-8c4.253906-.699218 8.296874 2.097656 9.144531 6.324219.84375 4.226563-1.8125 8.363281-6.007813 9.355469l-40 8c-.503906.105468-1.019531.160156-1.535156.160156zm0 0"/></g></svg>