<svg id="Capa_1" enable-background="new 0 0 512 512" height="512" viewBox="0 0 512 512" width="512" xmlns="http://www.w3.org/2000/svg" xmlns:xlink="http://www.w3.org/1999/xlink"><linearGradient id="SVGID_1_" gradientUnits="userSpaceOnUse" x1="0" x2="512" y1="256" y2="256"><stop offset="0" stop-color="#80d8ff"/><stop offset="1" stop-color="#ea80fc"/></linearGradient><path d="m256 0c-141.483 0-256 114.496-256 256 0 141.484 114.497 256 256 256 141.482 0 256-114.496 256-256 0-141.483-114.497-256-256-256zm20 40.92c103.36 9.43 185.652 91.734 195.079 195.08h-40.223c-9.215-81.097-73.759-145.641-154.856-154.857zm-40 0v40.223c-81.097 9.216-145.641 73.76-154.857 154.857h-40.223c9.429-103.361 91.735-185.652 195.08-195.08zm0 430.16c-103.361-9.43-185.653-91.734-195.08-195.08h40.223c9.216 81.097 73.76 145.641 154.857 154.857zm20-159.08c-11.046 0-20 8.955-20 20v58.526c-59.013-8.735-105.791-55.513-114.526-114.526h58.526c11.045 0 20-8.955 20-20s-8.955-20-20-20h-58.526c8.735-59.013 55.513-105.791 114.526-114.526v58.526c0 11.045 8.954 20 20 20 11.045 0 20-8.955 20-20v-58.526c59.013 8.735 105.791 55.513 114.526 114.526h-58.526c-11.046 0-20 8.955-20 20s8.954 20 20 20h58.526c-8.735 59.013-55.513 105.791-114.526 114.526v-58.526c0-11.045-8.955-20-20-20zm20 159.08v-40.223c81.097-9.216 145.641-73.76 154.856-154.857h40.223c-9.428 103.361-91.734 185.652-195.079 195.08z" fill="url(#SVGID_1_)"/></svg>