<svg height="480pt" viewBox="-8 0 480 480.22078" width="480pt" xmlns="http://www.w3.org/2000/svg"><path d="m198.011719 357.679688-106.796875 106.71875c-13.421875 13.585937-33.089844 18.941406-51.542969 14.035156-18.457031-4.902344-32.871094-19.316406-37.777344-37.773438-4.902343-18.453125.453125-38.121094 14.039063-51.542968l106.71875-106.800782c3.144531-3.117187 8.21875-3.117187 11.359375 0l64 64c3.121093 3.144532 3.121093 8.21875 0 11.363282zm0 0"/><path d="m422.011719 189.679688-168 168c-3.152344 3.09375-8.203125 3.09375-11.359375 0l-88-88c-3.117188-3.144532-3.117188-8.21875 0-11.363282l256-256c2.78125-2.753906 7.148437-3.09375 10.320312-.796875 24.902344 18.167969 40.394532 46.507813 42.242188 77.277344 2.707031 41.144531-12.285156 81.488281-41.203125 110.882813zm0 0" fill="#e6e6e6"/><path d="m99.691406 455.996094-8.476562 8.402344c-.960938.960937-2 1.917968-3.042969 2.800781l-75.039063-75.042969c.878907-1.039062 1.839844-2.078125 2.800782-3.039062l8.398437-8.480469zm0 0" fill="#b3b3b3"/><path d="m273.292969 383.996094c-.015625 10.097656-6.097657 19.195312-15.425781 23.058594-9.324219 3.867187-20.058594 1.746093-27.214844-5.375l-120-120c-9.703125-9.789063-9.703125-25.574219 0-35.363282 9.894531-9.445312 25.46875-9.445312 35.359375 0l120 120c4.6875 4.6875 7.308593 11.054688 7.28125 17.679688zm0 0" fill="#333"/><g fill="#c1272d"><path d="m448.332031 375.996094c.761719 10.824218-3.207031 21.449218-10.878906 29.121094-7.671875 7.671874-18.296875 11.640624-29.121094 10.878906-10.824219.761718-21.445312-3.207032-29.117187-10.878906-7.671875-7.671876-11.644532-18.296876-10.882813-29.121094 0-25.199219 31.359375-51.359375 34.960938-54.238282 2.960937-2.320312 7.121093-2.320312 10.082031 0 3.597656 2.878907 34.957031 29.039063 34.957031 54.238282zm0 0"/><path d="m463.613281 89.277344c-.328125 36.4375-14.351562 71.421875-39.28125 98v92.71875c-.039062 13.238281-10.761719 23.960937-24 24-13.253906 0-24-10.742188-24-24 .039063-2.082032-.804687-4.085938-2.320312-5.519532-1.457031-1.515624-3.460938-2.386718-5.566407-2.417968-2.101562-.03125-4.132812.785156-5.632812 2.257812-1.597656 1.457032-2.5 3.523438-2.480469 5.679688v28c0 15.464844-12.535156 28-28 28-15.460937 0-28-12.535156-28-28v-128.078125c-.019531-14.878907 5.878907-29.15625 16.402344-39.679688l26.078125-26.082031c4.136719-4.054688 7.074219-9.175781 8.480469-14.796875l13.28125-53.28125c.351562-1.414063 1.066406-2.710937 2.078125-3.761719l40-40c2.78125-2.753906 7.148437-3.09375 10.320312-.796875 27.90625 20.355469 43.882813 53.238281 42.640625 87.757813zm0 0"/></g></svg>