<svg height="512" viewBox="0 0 57 58" width="512" xmlns="http://www.w3.org/2000/svg"><g id="022---Katana-Detail" fill="none"><path id="Shape" d="m18.61 44.28c-.12.14-9.31 10.46-9.4 10.58l-2.21 2.48c-.71899357.8013706-1.94334277.8897712-2.77.2l-3.51-3.54c-.41539947-.3488326-.67129055-.8514335-.70899978-1.392561s.14599816-1.0743624.50899978-1.477439l4.67-5 7.24-7.8z" fill="#5f5346"/><g fill="#7f6e5d"><path id="Shape" d="m15.8 47.52c-.1 0 .1-.2-1.5 1.6l-6.45-2.18c3.73 8.09 2.66 5.8 2.87 6.22-1.62 1.84-1.48 1.59-1.42 1.72-.88-.19 3.24.65-9.21-1.84-.19938372-.6680954-.03645426-1.3918053.43-1.91.07-.1-.4-.13 7.75 1.5-3.07-6.67-3-6.48-3-6.58l1.47-1.59c-.1-.1.65.21 6.73 2.26l-2.28-7 1.32-1.42c.81.77-.02-.72 3.29 9.22z"/><path id="Shape" d="m15.8 47.52c-.1 0 .1-.2-1.5 1.6-.09.12.31 1.2-3.14-9.45l1.32-1.42c.84.82.01-.67 3.32 9.27z"/><path id="Shape" d="m15.74 47.5c-1.6 1.8-1.4 1.63-1.53 1.59-7.44-2.5-5.49-1.86-9-3l1.47-1.59c-.1-.1.65.21 6.73 2.26z"/><path id="Shape" d="m10.72 53.16-1.46 1.63c-3.93-8.57-4-8.62-4-8.74l1.47-1.59c.03.1 3.85 8.42 3.99 8.7z"/><path id="Shape" d="m10.72 53.16c-1.62 1.84-1.48 1.59-1.42 1.72-.88-.19 3.24.65-9.21-1.84-.19938372-.6680954-.03645426-1.3918053.43-1.91.08-.11-.24-.1 10.23 2z"/></g><path id="Shape" d="m23 39.24c3.19 3.91 5.05 7.7 4 8.76-1.37 1.37-7-2.07-12-7s-7.37-9.63-6-11c1.07-1.07 4.18.19 7.85 3.15z" fill="#f3d55b"/><path id="Shape" d="m56.51 1.67-34.82 39c-.188794.1987308-.4508885.3112511-.725.3112511s-.536206-.1125203-.725-.3112511c-4.07-3.71-1-.73-4.95-4.51-.3682542-.3862983-.3682542-.9937017 0-1.38l32.41-34.46c.1884718-.20322316.4528349-.31910838.73-.32h7.34c.3947355.00093102.7519873.23398202.9119039.59487491.1599166.3608929.0925707.78208897-.1719039 1.07512509z" fill="#bdc3c7"/><path id="Shape" d="m54.37 0-35.73 39.26-1.48-1.34 34.51-37.92z" fill="#95a5a5"/></g></svg>