<svg height="464pt" viewBox="0 0 464 464" width="464pt" xmlns="http://www.w3.org/2000/svg"><path d="m416 144h-80l8-32h64zm0 0" fill="#5a6470"/><path d="m232 48h-80l8-48h64zm0 0" fill="#5a6470"/><path d="m336 144h80v64h-80zm0 0" fill="#f6bf9b"/><path d="m160 48h64v64h-64zm0 0" fill="#f6bf9b"/><path d="m432 392h-112v-152h112zm0 0" fill="#5a6470"/><path d="m432 152h-112c-4.417969 0-8-3.582031-8-8s3.582031-8 8-8h112c4.417969 0 8 3.582031 8 8s-3.582031 8-8 8zm0 0" fill="#143441"/><path d="m248 56h-112c-4.417969 0-8-3.582031-8-8s3.582031-8 8-8h112c4.417969 0 8 3.582031 8 8s-3.582031 8-8 8zm0 0" fill="#143441"/><path d="m344 240 32 72 32-72zm0 0" fill="#cfdfe8"/><path d="m144 144h96v160h-96zm0 0" fill="#5a6470"/><g fill="#143441"><path d="m112 144v64h-32v32h64v-96zm0 0"/><path d="m376 392h-48v40h96v-40zm0 0"/><path d="m160 304v128h64v-128zm0 0"/><path d="m0 176h80v32h-80zm0 0"/><path d="m240 144h32v128h-32zm0 0"/></g><path d="m376 432h-64v32h128v-32zm0 0" fill="#5a6470"/><path d="m144 432v32h96v-32zm0 0" fill="#5a6470"/><path d="m320 240-32 64 32 40zm0 0" fill="#143441"/><path d="m432 240 32 64-32 40zm0 0" fill="#143441"/><path d="m48 208h32v32h-32zm0 0" fill="#f6bf9b"/><path d="m240 272h32v32h-32zm0 0" fill="#f6bf9b"/><path d="m168 144 24 64 24-64zm0 0" fill="#cfdfe8"/><path d="m368 336h16v16h-16zm0 0" fill="#cfdfe8"/><path d="m184 232h16v16h-16zm0 0" fill="#cfdfe8"/><path d="m184 264h16v16h-16zm0 0" fill="#cfdfe8"/></svg>