<svg height="472pt" viewBox="0 -48 472 472" width="472pt" xmlns="http://www.w3.org/2000/svg"><path d="m392 168-196.097656 94.664062c-4.304688-22.773437-13.859375-44.226562-27.902344-62.664062h-128c-19.640625 21.847656-32 67.566406-32 96 0 53.015625 42.984375 80 96 80 32.167969 0 60.566406-9.992188 77.984375-29.648438l210.015625-130.351562zm0 0" fill="#d3843d"/><path d="m56 338.871094c-1.761719.003906-3.472656-.578125-4.863281-1.65625-12.71875-9.796875-19.859375-25.179688-19.136719-41.214844.863281-23.589844 6.839844-46.710938 17.511719-67.769531 2.109375-3.882813 6.96875-5.320313 10.851562-3.210938 3.882813 2.109375 5.324219 6.96875 3.210938 10.851563-9.414063 18.707031-14.722657 39.207031-15.574219 60.128906-.679688 11.050781 4.136719 21.726562 12.871094 28.527344 2.71875 2.089844 3.804687 5.671875 2.703125 8.917968-1.101563 3.242188-4.148438 5.425782-7.574219 5.425782zm0 0" fill="#fdbd40"/><path d="m104 352c-5.722656.007812-11.441406-.382812-17.113281-1.167969-4.285157-.707031-7.222657-4.703125-6.617188-9.003906.601563-4.304687 4.527344-7.335937 8.84375-6.835937 4.933594.679687 9.90625 1.015624 14.886719 1.007812 4.417969 0 8 3.582031 8 8s-3.582031 8-8 8zm0 0" fill="#fdbd40"/><path d="m472 200-80 16v-48h80zm0 0" fill="#b7621c"/><g fill="#aabece"><path d="m152 128c-4.417969 0-8-3.582031-8-8s3.582031-8 8-8c13.253906 0 24-10.746094 24-24s-10.746094-24-24-24c-5.035156.011719-9.9375 1.625-14 4.601562-2.863281 2.066407-6.742188 2.011719-9.546875-.132812-2.804687-2.148438-3.867187-5.878906-2.621094-9.179688 5.175781-13.335937.871094-28.488281-10.542969-37.113281-11.414062-8.621093-27.164062-8.621093-38.578124 0-11.414063 8.625-15.71875 23.777344-10.542969 37.113281 1.246093 3.300782.183593 7.03125-2.621094 9.179688-2.804687 2.144531-6.683594 2.199219-9.546875.132812-4.0625-2.976562-8.964844-4.589843-14-4.601562-13.253906 0-24 10.746094-24 24s10.746094 24 24 24c4.417969 0 8 3.582031 8 8s-3.582031 8-8 8c-22.089844 0-40-17.910156-40-40s17.910156-40 40-40c2.6875-.011719 5.367188.257812 8 .800781 0-.28125 0-.554687 0-.800781 0-26.507812 21.492188-48 48-48s48 21.492188 48 48v.800781c2.632812-.542969 5.3125-.8125 8-.800781 22.089844 0 40 17.910156 40 40s-17.910156 40-40 40zm0 0"/><path d="m72 176c-4.417969 0-8-3.582031-8-8v-48c0-4.417969 3.582031-8 8-8s8 3.582031 8 8v48c0 4.417969-3.582031 8-8 8zm0 0"/><path d="m120 176c-4.417969 0-8-3.582031-8-8v-48c0-4.417969 3.582031-8 8-8s8 3.582031 8 8v48c0 4.417969-3.582031 8-8 8zm0 0"/></g></svg>