<svg height="464pt" viewBox="-48 0 464 464" width="464pt" xmlns="http://www.w3.org/2000/svg"><path d="m320 176h-272l32-176 64 16h80l64-16zm0 0" fill="#5a6470"/><path d="m48 224h272v240h-272zm0 0" fill="#f6bf9b"/><path d="m0 176h368v48h-368zm0 0" fill="#143441"/><path d="m80 224h64v32h-64zm0 0" fill="#5a6470"/><path d="m224 224h64v32h-64zm0 0" fill="#5a6470"/><g fill="#eda37a"><path d="m200 344h-40c-4.417969 0-8-3.582031-8-8v-72h16v64h32zm0 0"/><path d="m16 224h32v80h-32zm0 0"/><path d="m320 224h32v80h-32zm0 0"/></g><path d="m208.066406 384.132812 32.015625-47.996093 24 16.007812-32.015625 48zm0 0" fill="#d3843d"/><path d="m240.078125 336.121094 16.011719-24.003906 24 16.011718-16.011719 24zm0 0" fill="#b7621c"/><path d="m176 424h16v40h-16zm0 0" fill="#eda37a"/><path d="m144 424h16v40h-16zm0 0" fill="#eda37a"/><path d="m208 424h16v40h-16zm0 0" fill="#eda37a"/><path d="m116.800781 110.398438-9.601562-12.796876 28.800781-21.601562v-36h16v40c0 2.519531-1.1875 4.890625-3.199219 6.398438zm0 0" fill="#aabece"/><path d="m251.199219 110.398438-32-24c-2.011719-1.507813-3.199219-3.878907-3.199219-6.398438v-40h16v36l28.800781 21.601562zm0 0" fill="#aabece"/><path d="m251.558594 422.65625-67.558594-45.054688-67.558594 45.039063-8.882812-13.3125 72-48c2.691406-1.792969 6.191406-1.792969 8.882812 0l72 48zm0 0" fill="#eda37a"/></svg>