<?xml version="1.0" encoding="UTF-8"?>
<!DOCTYPE svg PUBLIC "-//W3C//DTD SVG 1.1//EN" "http://www.w3.org/Graphics/SVG/1.1/DTD/svg11.dtd">
<svg xmlns="http://www.w3.org/2000/svg" version="1.1" width="512px" height="512px" style="shape-rendering:geometricPrecision; text-rendering:geometricPrecision; image-rendering:optimizeQuality; fill-rule:evenodd; clip-rule:evenodd" xmlns:xlink="http://www.w3.org/1999/xlink">
<g><path style="opacity:0.986" fill="#553535" d="M 204.5,81.5 C 242.666,88.2068 280.666,95.8735 318.5,104.5C 319.442,104.392 320.275,104.059 321,103.5C 325.991,93.5871 333.824,90.0871 344.5,93C 396.293,119.73 447.959,146.73 499.5,174C 507.41,180.571 509.576,188.738 506,198.5C 468.412,269.342 431.078,340.342 394,411.5C 388.609,422.28 380.109,426.113 368.5,423C 346.324,411.078 323.991,399.412 301.5,388C 288.268,384.752 274.934,382.419 261.5,381C 259.016,383.744 256.016,385.744 252.5,387C 196.871,401.157 141.204,415.157 85.5,429C 76.7361,430.611 69.9028,427.778 65,420.5C 44.3573,340.596 24.024,260.596 4,180.5C 1.68808,169.964 5.18808,162.131 14.5,157C 37.1667,151.333 59.8333,145.667 82.5,140C 83.6768,134.728 83.6768,129.395 82.5,124C 82.8574,115.948 86.5241,109.948 93.5,106C 125.477,104.135 157.477,102.301 189.5,100.5C 190.507,90.8447 195.507,84.5113 204.5,81.5 Z"/></g>
<g><path style="opacity:1" fill="#e5cd9e" d="M 205.5,94.5 C 215.98,95.4689 226.313,97.3022 236.5,100C 225.179,100.833 213.846,101.333 202.5,101.5C 202.15,98.5466 203.15,96.2133 205.5,94.5 Z"/></g>
<g><path style="opacity:1" fill="#d9bb8b" d="M 335.5,104.5 C 342.216,105.852 348.549,108.352 354.5,112C 347.325,111.465 340.325,109.965 333.5,107.5C 334.193,106.482 334.859,105.482 335.5,104.5 Z"/></g>
<g><path style="opacity:1" fill="#eedbb5" d="M 190.5,115.5 C 192.167,114.833 193.833,114.167 195.5,113.5C 221.83,112.537 248.163,112.037 274.5,112C 275.667,113.167 276.833,114.333 278,115.5C 281.279,198.482 283.612,281.482 285,364.5C 284.097,365.701 282.931,366.535 281.5,367C 275.843,367.499 270.176,367.666 264.5,367.5C 263.171,362.184 261.838,356.851 260.5,351.5C 271.909,352.608 275.909,347.441 272.5,336C 270.123,268.177 267.956,200.344 266,132.5C 263.932,128.073 260.432,126.406 255.5,127.5C 238.521,128.732 221.521,129.399 204.5,129.5C 202.833,121.833 198.167,117.167 190.5,115.5 Z"/></g>
<g><path style="opacity:1" fill="#e9d1a1" d="M 289.5,111.5 C 319.171,117.601 348.838,123.768 378.5,130C 380.833,131.333 381.833,133.333 381.5,136C 364.888,216.616 347.721,297.116 330,377.5C 328.178,379.045 326.011,379.712 323.5,379.5C 313.861,377.606 304.194,375.772 294.5,374C 293.85,372.391 294.35,370.891 296,369.5C 297.108,365.914 297.608,362.247 297.5,358.5C 304.739,360.318 312.072,361.152 319.5,361C 320.701,360.097 321.535,358.931 322,357.5C 336.387,287.733 351.22,218.066 366.5,148.5C 366.255,145.832 364.921,143.998 362.5,143C 338.841,138.001 315.174,133.001 291.5,128C 289.58,122.803 288.913,117.303 289.5,111.5 Z"/></g>
<g><path style="opacity:1" fill="#8b7062" d="M 180.5,114.5 C 185.305,113.513 190.305,113.179 195.5,113.5C 193.833,114.167 192.167,114.833 190.5,115.5C 187.833,115.5 185.167,115.5 182.5,115.5C 182.158,114.662 181.492,114.328 180.5,114.5 Z"/></g>
<g><path style="opacity:1" fill="#eedbb5" d="M 180.5,114.5 C 181.492,114.328 182.158,114.662 182.5,115.5C 153.665,122.209 124.998,129.542 96.5,137.5C 95.3368,131.863 95.1701,126.196 96,120.5C 96.8333,119 98,117.833 99.5,117C 126.488,115.723 153.488,114.889 180.5,114.5 Z"/></g>
<g><path style="opacity:1" fill="#f5e5c9" d="M 184.5,126.5 C 188.273,125.822 191.106,127.156 193,130.5C 212.206,208.99 231.872,287.323 252,365.5C 253.507,371.324 251.341,374.824 245.5,376C 195.015,388.205 144.681,400.871 94.5,414C 88.895,415.489 83.2284,416.156 77.5,416C 55.2026,334.977 34.7026,253.477 16,171.5C 17.3189,169.513 19.1523,168.346 21.5,168C 76.1926,154.911 130.526,141.078 184.5,126.5 Z"/></g>
<g><path style="opacity:1" fill="#e5c793" d="M 393.5,132.5 C 425.982,149.909 458.649,167.075 491.5,184C 493.677,185.497 495.01,187.497 495.5,190C 457.744,263.01 419.578,335.843 381,408.5C 379.745,410.594 377.912,411.594 375.5,411.5C 361.115,405.14 347.115,397.974 333.5,390C 338.51,387.158 341.844,382.992 343.5,377.5C 351.833,382 360.167,386.5 368.5,391C 371.669,391.978 374.503,391.478 377,389.5C 410.717,326.064 443.884,262.397 476.5,198.5C 476.566,195.465 475.233,193.298 472.5,192C 445.833,178 419.167,164 392.5,150C 391.903,148.938 391.57,147.772 391.5,146.5C 392.985,141.954 393.652,137.287 393.5,132.5 Z"/></g>
<g><path style="opacity:1" fill="#636997" d="M 214.5,140.5 C 227.833,140.5 241.167,140.5 254.5,140.5C 255.944,182.162 257.278,223.829 258.5,265.5C 251.833,265.5 245.167,265.5 238.5,265.5C 228.19,224.26 218.19,182.927 208.5,141.5C 210.735,141.795 212.735,141.461 214.5,140.5 Z"/></g>
<g><path style="opacity:1" fill="#fcb11a" d="M 290.5,139.5 C 311.081,144.249 331.747,148.583 352.5,152.5C 344.661,192.525 336.494,232.525 328,272.5C 326.991,273.658 325.658,274.325 324,274.5C 314.407,272.893 304.907,270.893 295.5,268.5C 293.534,225.518 291.868,182.518 290.5,139.5 Z"/></g>
<g><path style="opacity:1" fill="#553635" d="M 174.5,145.5 C 177.249,145.274 179.916,145.607 182.5,146.5C 184.451,149.954 185.951,153.621 187,157.5C 204.241,224.73 220.575,292.064 236,359.5C 234.764,361.538 232.931,362.705 230.5,363C 184.333,374.375 138.333,386.041 92.5,398C 89.0437,399.123 86.2103,398.29 84,395.5C 66.9678,326.704 49.6345,258.037 32,189.5C 30.8266,185.695 31.9933,182.861 35.5,181C 82.1645,169.918 128.498,158.085 174.5,145.5 Z"/></g>
<g><path style="opacity:1" fill="#55b68a" d="M 173.5,158.5 C 174.558,159.6 175.392,160.934 176,162.5C 185.573,200.625 195.073,238.791 204.5,277C 202.896,280.147 200.229,281.813 196.5,282C 156.223,292.186 115.889,301.853 75.5,311C 64.9467,270.954 54.9467,230.787 45.5,190.5C 88.3769,180.114 131.044,169.447 173.5,158.5 Z"/></g>
<g><path style="opacity:1" fill="#f74567" d="M 388.5,161.5 C 413.493,174.328 438.16,187.662 462.5,201.5C 443.496,238.18 423.996,274.513 404,310.5C 389.612,303.39 375.445,295.89 361.5,288C 370.418,245.826 379.418,203.659 388.5,161.5 Z"/></g>
<g><path style="opacity:1" fill="#5a4f66" d="M 242.5,277.5 C 247.975,276.511 253.642,276.178 259.5,276.5C 259.5,281.833 259.5,287.167 259.5,292.5C 258.513,287.695 258.179,282.695 258.5,277.5C 253.167,277.5 247.833,277.5 242.5,277.5 Z"/></g>
<g><path style="opacity:1" fill="#5e6691" d="M 242.5,277.5 C 247.833,277.5 253.167,277.5 258.5,277.5C 258.179,282.695 258.513,287.695 259.5,292.5C 260.006,308.162 260.339,323.829 260.5,339.5C 259.5,339.5 258.5,339.5 257.5,339.5C 252.5,318.833 247.5,298.167 242.5,277.5 Z"/></g>
<g><path style="opacity:1" fill="#ec9125" d="M 295.5,281.5 C 305.244,282.782 314.911,284.449 324.5,286.5C 320.659,306.542 316.492,326.542 312,346.5C 311.326,347.578 310.326,348.245 309,348.5C 305.286,347.131 301.453,346.464 297.5,346.5C 296.767,324.836 296.1,303.169 295.5,281.5 Z"/></g>
<g><path style="opacity:1" fill="#508b6c" d="M 204.5,291.5 C 205.833,291.5 207.167,291.5 208.5,291.5C 213.269,311.744 218.269,331.91 223.5,352C 180.989,363.128 138.323,373.961 95.5,384.5C 94.5581,384.392 93.7247,384.059 93,383.5C 87.848,363.559 83.0147,343.559 78.5,323.5C 120.665,313.126 162.665,302.459 204.5,291.5 Z"/></g>
<g><path style="opacity:1" fill="#d43865" d="M 358.5,301.5 C 363.032,302.763 367.365,304.597 371.5,307C 380.862,311.676 389.862,316.843 398.5,322.5C 389.088,340.991 379.421,359.325 369.5,377.5C 363.167,374.333 356.833,371.167 350.5,368C 348.373,366.949 346.707,365.449 345.5,363.5C 349.84,342.82 354.173,322.153 358.5,301.5 Z"/></g>
</svg>
