<?xml version="1.0" encoding="iso-8859-1"?>
<!-- Generator: Adobe Illustrator 19.0.0, SVG Export Plug-In . SVG Version: 6.00 Build 0)  -->
<svg version="1.1" id="Capa_1" xmlns="http://www.w3.org/2000/svg" xmlns:xlink="http://www.w3.org/1999/xlink" x="0px" y="0px"
	 viewBox="0 0 512 512" style="enable-background:new 0 0 512 512;" xml:space="preserve">
<path style="fill:#DBD9DC;" d="M322.065,397.419h-41.29l-4.253,17.009c-2.354,9.417-10.815,16.023-20.522,16.023
	s-18.168-6.606-20.522-16.023l-4.253-17.009h-41.29l-8.258,66.065h148.645L322.065,397.419z"/>
<path style="fill:#EDEBED;" d="M363.355,474.839h-214.71c-4.565,0-8.258-3.698-8.258-8.258s3.694-8.258,8.258-8.258h214.71
	c4.565,0,8.258,3.698,8.258,8.258S367.919,474.839,363.355,474.839z"/>
<g>
	<path style="fill:#C9C6CA;" d="M189.935,397.419l-2.452,19.613h48.884c-0.334-0.848-0.664-1.7-0.89-2.604l-4.253-17.009H189.935z"
		/>
	<path style="fill:#C9C6CA;" d="M275.632,417.032h48.884l-2.452-19.613h-41.29l-4.253,17.009
		C276.296,415.332,275.966,416.184,275.632,417.032z"/>
</g>
<path style="fill:#EDEBED;" d="M487.226,400.516H24.774C11.092,400.516,0,389.424,0,375.742V61.935
	c0-13.682,11.092-24.774,24.774-24.774h462.452c13.682,0,24.774,11.092,24.774,24.774v313.806
	C512,389.424,500.908,400.516,487.226,400.516z"/>
<path style="fill:#E6646E;" d="M470.71,367.484H41.29c-4.561,0-8.258-3.697-8.258-8.258V78.452c0-4.561,3.697-8.258,8.258-8.258
	h429.42c4.561,0,8.258,3.697,8.258,8.258v280.774C478.968,363.787,475.27,367.484,470.71,367.484z"/>
<g>
	<circle style="fill:#5D5360;" cx="206.45" cy="301.42" r="16.516"/>
	<circle style="fill:#5D5360;" cx="322.06" cy="301.42" r="16.516"/>
</g>
<g>
	<path style="fill:#EDEBED;" d="M338.581,293.161H195.04c-5.766,0-11.016-2.927-14.048-7.831
		c-3.032-4.903-3.306-10.907-0.726-16.069l12.605-25.214c2.04-4.081,7-5.734,11.081-3.694s5.734,7,3.694,11.081l-12.605,25.21
		h143.54c4.565,0,8.258,3.698,8.258,8.258S343.145,293.161,338.581,293.161z"/>
	<polygon style="fill:#EDEBED;" points="346.839,185.806 315.949,185.806 318.935,152.831 302.484,151.339 299.362,185.806 
		272.516,185.806 272.516,152.774 256,152.774 256,185.806 230.18,185.806 223.887,147.645 207.597,150.331 213.447,185.806 
		181.677,185.806 181.677,202.323 216.17,202.323 223.427,246.331 239.718,243.645 232.904,202.323 256,202.323 256,243.613 
		272.516,243.613 272.516,202.323 297.866,202.323 294.911,234.952 311.363,236.444 314.453,202.323 346.839,202.323 	"/>
</g>
<path style="fill:#FFFFFF;" d="M210.153,258.605c-10.96,0-20.677-7.189-23.766-17.972l-28.339-99.185l-22.242-14.835
	c-3.798-2.528-4.823-7.657-2.29-11.452c2.524-3.794,7.637-4.831,11.452-2.29l22.25,14.831c3.081,2.056,5.371,5.077,6.516,8.56
	c0.024,0.004,0.04,0.004,0.056,0.004l181.677,8.258c2.411,0.109,4.645,1.262,6.129,3.161c1.484,1.895,2.073,4.347,1.597,6.71
	l-12.984,64.935c-2.815,14.069-14.282,24.649-28.532,26.327l-108.565,12.774C212.121,258.548,211.129,258.605,210.153,258.605z
	 M178.532,153.016l23.742,83.077c1.113,3.911,4.798,6.411,8.903,5.935l108.565-12.774c7.129-0.839,12.863-6.129,14.274-13.165
	l11.097-55.5L178.532,153.016z"/>
<path style="fill:#FFE17D;" d="M161.54,142.109c-1.573,0-3.161-0.448-4.573-1.387l-21.161-14.109
	c-3.798-2.528-4.823-7.657-2.29-11.452c2.524-3.794,7.637-4.831,11.452-2.29l21.161,14.109c3.798,2.528,4.823,7.657,2.29,11.452
	C166.831,140.819,164.21,142.109,161.54,142.109z"/>
<path style="fill:#DC4655;" d="M214.71,350.968c-91.216,0-165.161-73.945-165.161-165.161V70.194H41.29
	c-4.561,0-8.258,3.697-8.258,8.258v280.774c0,4.561,3.697,8.258,8.258,8.258h429.42c4.561,0,8.258-3.697,8.258-8.258v-8.258H214.71z
	"/>
<g>
</g>
<g>
</g>
<g>
</g>
<g>
</g>
<g>
</g>
<g>
</g>
<g>
</g>
<g>
</g>
<g>
</g>
<g>
</g>
<g>
</g>
<g>
</g>
<g>
</g>
<g>
</g>
<g>
</g>
</svg>
