<?xml version="1.0" encoding="iso-8859-1"?>
<!-- Generator: Adobe Illustrator 19.0.0, SVG Export Plug-In . SVG Version: 6.00 Build 0)  -->
<svg version="1.1" id="Layer_1" xmlns="http://www.w3.org/2000/svg" xmlns:xlink="http://www.w3.org/1999/xlink" x="0px" y="0px"
	 viewBox="0 0 512 512" style="enable-background:new 0 0 512 512;" xml:space="preserve">
<path style="fill:#A9A8AE;" d="M512,487.926l-22.531-22.533c5.948-9.98,9.255-21.304,9.498-33.06
	c0.367-17.756-6.241-34.342-18.606-46.702l-53.508-53.508c-12.041-12.042-28.087-18.624-45.318-18.624
	c-0.464,0-0.929,0.005-1.395,0.015c-11.759,0.242-23.086,3.547-33.067,9.495l-7.857-7.856c5.949-9.981,9.258-21.306,9.501-33.061
	c0.367-17.758-6.243-34.349-18.615-46.714l-53.509-53.508c-12.366-12.365-28.963-18.966-46.709-18.608
	c-11.756,0.243-23.08,3.551-33.059,9.499l-7.852-7.853c5.949-9.981,9.256-21.308,9.498-33.066
	c0.365-17.756-6.247-34.345-18.615-46.71l-53.498-53.502c-21.301-21.303-54.282-24.233-79.764-9.105L24.066,0.006L0,24.081
	l22.522,22.514c-15.13,25.48-12.205,58.457,9.09,79.766l53.496,53.501c12.041,12.043,28.087,18.628,45.322,18.626
	c0.464,0,0.933-0.005,1.399-0.015c11.763-0.243,23.09-3.551,33.073-9.499l7.852,7.853c-5.95,9.981-9.258,21.308-9.502,33.067
	c-0.368,17.756,6.241,34.347,18.606,46.711l53.509,53.51c12.042,12.042,28.087,18.624,45.317,18.623
	c0.463,0,0.929-0.005,1.395-0.015c11.763-0.242,23.09-3.551,33.068-9.5l7.853,7.851c-5.949,9.982-9.255,21.31-9.495,33.071
	c-0.363,17.757,6.248,34.346,18.611,46.703l53.501,53.51c12.416,12.408,28.795,18.582,45.346,18.582
	c11.854-0.001,23.796-3.169,34.431-9.484l22.531,22.533L512,487.926z M131.128,164.44c-8.375,0.218-16.198-2.897-21.947-8.647
	l-53.494-53.5c-7.928-7.933-10.363-19.411-7.449-29.993l7.023,7.021l24.067-24.075l-7.004-7.001
	c2.862-0.785,5.787-1.189,8.692-1.189c7.827,0,15.492,2.863,21.27,8.642l53.501,53.506c5.751,5.747,8.822,13.538,8.65,21.936
	c-0.057,2.743-0.455,5.442-1.171,8.053l-20.3-20.304l-24.073,24.069l20.304,20.306C136.58,163.983,133.876,164.384,131.128,164.44z
	 M281.38,314.692c-8.415,0.162-16.194-2.899-21.941-8.645l-53.509-53.511c-5.746-5.745-8.817-13.537-8.642-21.935
	c0.057-2.745,0.456-5.447,1.174-8.06l20.3,20.302l24.073-24.069l-20.304-20.306c2.612-0.717,5.313-1.117,8.055-1.173
	c0.225-0.005,0.449-0.008,0.673-0.008c8.139,0,15.668,3.058,21.262,8.652l53.509,53.508l0.003,0.003
	c5.75,5.747,8.821,13.538,8.648,21.936c-0.057,2.744-0.457,5.447-1.176,8.061l-20.31-20.307l-24.069,24.073l20.308,20.305
	C286.825,314.236,284.124,314.636,281.38,314.692z M409.688,456.289l-53.5-53.508c-5.747-5.745-8.818-13.536-8.647-21.936
	c0.057-2.745,0.455-5.447,1.172-8.06l20.31,20.307l24.069-24.073l-20.306-20.301c2.611-0.716,5.309-1.114,8.052-1.171
	c0.224-0.005,0.447-0.007,0.671-0.007c8.145,0,15.676,3.058,21.272,8.653l53.508,53.508l0.003,0.005
	c5.745,5.742,8.815,13.527,8.64,21.923c-0.057,2.743-0.456,5.441-1.172,8.052l-7.009-7.009l-24.071,24.071l6.998,6.999
	C429.096,466.651,417.62,464.213,409.688,456.289z"/>
<path style="fill:#808081;" d="M498.967,432.332c0.367-17.756-6.241-34.342-18.606-46.702l-53.508-53.508
	c-12.041-12.042-28.087-18.624-45.318-18.624c-0.464,0-0.929,0.005-1.395,0.015c-11.759,0.242-23.086,3.547-33.067,9.495
	l-7.857-7.856c5.949-9.981,9.258-21.306,9.501-33.061c0.367-17.758-6.243-34.349-18.615-46.714l-26.74-26.74l-24.071,24.071
	l26.74,26.74l0.003,0.003c5.75,5.747,8.821,13.538,8.648,21.936c-0.057,2.744-0.457,5.447-1.176,8.061l-20.31-20.307l-24.069,24.073
	l20.308,20.305c-2.612,0.717-5.313,1.117-8.057,1.173c-8.415,0.162-16.194-2.899-21.941-8.645l-26.742-26.743l-24.071,24.071
	l26.743,26.743c12.042,12.042,28.087,18.624,45.317,18.623c0.463,0,0.929-0.005,1.395-0.015c11.763-0.242,23.09-3.551,33.068-9.5
	l7.853,7.851c-5.949,9.982-9.255,21.31-9.495,33.071c-0.363,17.757,6.248,34.346,18.611,46.703l53.501,53.51
	c12.416,12.408,28.795,18.582,45.346,18.582c11.854-0.001,23.796-3.169,34.431-9.484l22.531,22.533l24.073-24.069l-22.531-22.533
	C495.416,455.413,498.724,444.088,498.967,432.332z M463.76,439.681l-7.009-7.009l-24.071,24.071l6.998,6.999
	c-10.582,2.911-22.059,0.473-29.991-7.452l-53.5-53.508c-5.747-5.745-8.818-13.536-8.647-21.936c0.057-2.745,0.455-5.447,1.172-8.06
	l20.31,20.307l24.069-24.073l-20.306-20.301c2.611-0.716,5.309-1.114,8.052-1.171c0.224-0.005,0.447-0.007,0.671-0.007
	c8.145,0,15.676,3.058,21.271,8.653l53.508,53.508l0.003,0.005c5.745,5.742,8.815,13.527,8.64,21.923
	C464.875,434.37,464.477,437.07,463.76,439.681z"/>
<g>
</g>
<g>
</g>
<g>
</g>
<g>
</g>
<g>
</g>
<g>
</g>
<g>
</g>
<g>
</g>
<g>
</g>
<g>
</g>
<g>
</g>
<g>
</g>
<g>
</g>
<g>
</g>
<g>
</g>
</svg>
