<?xml version="1.0"?>
<svg xmlns="http://www.w3.org/2000/svg" id="Capa_1" enable-background="new 0 0 510.104 510.104" height="512px" viewBox="0 0 510.104 510.104" width="512px" class=""><g><path d="m430.06 366.418-34.876-34.876c35.737-51.121 39.918-117.017 14.64-167.618l20.236-20.237c20.169 12.64 47.158 10.191 64.685-7.334 31.082-31.06 12.016-84.882-31.993-89-4.059-43.346-57.478-63.537-88.996-31.997-17.709 17.709-19.924 44.713-7.348 64.698l-19.172 19.172c-53.767-30.07-128.301-31.802-184.438-.071l-19.101-19.101c12.564-19.966 10.379-46.971-7.344-64.695-31.524-31.544-84.943-11.353-89 31.994-43.347 4.06-63.538 57.477-31.997 88.996 17.53 17.53 44.518 19.977 64.688 7.338l20.186 20.187c-24.478 48.687-22.031 115.14 14.691 167.667l-34.877 34.877c-20.168-12.64-47.158-10.193-64.685 7.334-31.543 31.523-11.359 84.944 31.994 89 4.114 43.97 57.906 63.109 88.995 31.997 17.99-17.989 19.702-45.066 7.348-64.698l9.35-9.35c7.581 8.203 18.422 13.352 30.446 13.352h143.119c12.024 0 22.865-5.149 30.446-13.352l9.36 9.36c-12.639 20.17-10.192 47.158 7.334 64.686 31.523 31.541 84.943 11.358 89-31.994 43.346-4.059 63.537-57.478 31.997-88.996-17.53-17.533-44.518-19.979-64.688-7.339zm-32.651-274.939c5.783-5.783 6.744-14.28-2.44-23.443-8.675-8.676-8.675-22.791.004-31.47 16.531-16.547 44.197.595 36.835 22.77-3.882 11.686 7.254 22.844 18.962 18.963 22.382-7.437 39.128 20.488 22.767 36.838-9.008 9.008-24.146 8.813-32.838-1.506-5.67-6.722-15.874-7.129-22.072-.935l-25.328 25.328c-6.341-7.968-13.247-15.016-20.947-21.487zm-305.93 21.217c-6.193-6.193-16.402-5.792-22.075.938-8.731 10.354-23.862 10.475-32.838 1.498-16.547-16.533.598-44.193 22.77-36.835 11.687 3.881 22.848-7.26 18.963-18.962-7.369-22.191 20.292-39.322 36.838-22.767 8.989 8.989 8.884 24.067-1.505 32.838-6.71 5.659-7.145 15.863-.935 22.072l25.086 25.086c-7.617 6.448-14.546 13.483-20.952 21.482zm50.547 276.6-29.33 29.33c-6.207 6.206-5.778 16.41.935 22.072 10.352 8.739 10.527 23.816 1.501 32.841-16.363 16.376-44.261-.403-36.834-22.77 3.888-11.708-7.282-22.842-18.963-18.962-22.195 7.361-39.324-20.293-22.766-36.839 8.989-8.989 24.119-8.833 32.834 1.502 5.657 6.711 15.865 7.152 22.075.938l42.285-42.285c9.213 13.609 8.263 25.33 8.263 34.173zm216.669-60.131c-22.36 24.28-20.616 49.861-20.616 63.421 0 6.323-5.144 11.467-11.467 11.467h-26.696v-29c0-8.284-6.716-15-15-15s-15 6.716-15 15v29h-29.727v-29c0-8.284-6.716-15-15-15s-15 6.716-15 15v29h-26.696c-6.323 0-11.467-5.144-11.467-11.467 0-12.369 2.17-38.604-20.764-63.581-24.026-26.169-37.191-60.159-37.071-95.71.266-78.536 65.518-128.236 142.733-127.227 80.537 1.046 138.991 54.757 138.991 127.714 0 36.546-14 70.169-37.22 95.383zm92.074 102.642c-11.704-3.888-22.843 7.277-18.962 18.962 7.368 22.192-20.293 39.324-36.839 22.767-9.019-9.019-8.847-24.117 1.506-32.838 6.71-5.66 7.144-15.863.935-22.072l-29.33-29.33c0-8.612-1.007-20.611 8.238-34.196l42.309 42.309c6.185 6.187 16.397 5.793 22.072-.935 8.728-10.361 23.869-10.475 32.842-1.502 16.545 16.534-.593 44.193-22.771 36.835z" data-original="#000000" class="active-path" data-old_color="#000000" fill="#FFFFFF"/><path d="m257.175 303.517h-4.245c-8.284 0-15 6.716-15 15s6.716 15 15 15h4.245c8.284 0 15-6.716 15-15s-6.716-15-15-15z" data-original="#000000" class="active-path" data-old_color="#000000" fill="#FFFFFF"/><path d="m194.47 193.335c-27.111 0-49.168 22.057-49.168 49.168 0 25.055 19.268 43.332 49.168 43.332 28.048 0 46.172-17.009 46.172-43.332 0-28.031-19.849-49.168-46.172-49.168zm0 62.5c-7.159 0-19.168-1.732-19.168-13.332 0-10.569 8.599-19.168 19.168-19.168 11.171 0 16.172 9.627 16.172 19.168 0 6.45-1.249 13.332-16.172 13.332z" data-original="#000000" class="active-path" data-old_color="#000000" fill="#FFFFFF"/><path d="m315.634 192.508c-26.322 0-46.172 21.138-46.172 49.168 0 26.323 18.124 43.332 46.172 43.332 13.055 0 24.559-3.517 33.267-10.171 32.098-24.523 12.845-82.329-33.267-82.329zm0 62.5c-14.922 0-16.172-6.882-16.172-13.332 0-9.541 5-19.168 16.172-19.168 10.569 0 19.168 8.599 19.168 19.168 0 11.599-12.009 13.332-19.168 13.332z" data-original="#000000" class="active-path" data-old_color="#000000" fill="#FFFFFF"/></g> </svg>
