<svg height="512pt" viewBox="0 0 512 512" width="512pt" xmlns="http://www.w3.org/2000/svg"><path d="m457 362c-8.820312 0-17.429688 2.148438-25.175781 6.191406l-288.015625-288.015625c4.042968-7.746093 6.191406-16.355469 6.191406-25.175781 0-30.328125-24.671875-55-55-55-25.722656 0-47.375 17.746094-53.359375 41.640625-23.894531 5.984375-41.640625 27.636719-41.640625 53.359375 0 30.328125 24.671875 55 55 55 8.820312 0 17.429688-2.148438 25.175781-6.191406l288.015625 288.015625c-4.042968 7.746093-6.191406 16.355469-6.191406 25.175781 0 30.328125 24.671875 55 55 55 25.722656 0 47.375-17.746094 53.359375-41.640625 23.894531-5.984375 41.640625-27.636719 41.640625-53.359375 0-30.328125-24.671875-55-55-55zm0 0" fill="#a1a1a1"/><path d="m0 95c0 30.328125 24.671875 55 55 55 8.820312 0 17.429688-2.148438 25.175781-6.191406l288.015625 288.015625c-4.042968 7.746093-6.191406 16.355469-6.191406 25.175781 0 30.328125 24.671875 55 55 55 25.722656 0 47.375-17.746094 53.359375-41.640625l-428.71875-428.71875c-23.894531 5.984375-41.640625 27.636719-41.640625 53.359375zm0 0" fill="#919191"/><path d="m55 362c8.820312 0 17.429688 2.148438 25.175781 6.191406l288.015625-288.015625c-4.042968-7.746093-6.191406-16.355469-6.191406-25.175781 0-30.328125 24.671875-55 55-55 25.722656 0 47.375 17.746094 53.359375 41.640625 23.894531 5.984375 41.640625 27.636719 41.640625 53.359375 0 30.328125-24.671875 55-55 55-8.820312 0-17.429688-2.148438-25.175781-6.191406l-288.015625 288.015625c4.042968 7.746093 6.191406 16.355469 6.191406 25.175781 0 30.328125-24.671875 55-55 55-25.722656 0-47.375-17.746094-53.359375-41.640625-23.894531-5.984375-41.640625-27.636719-41.640625-53.359375 0-30.328125 24.671875-55 55-55zm0 0" fill="#a1a1a1"/><path d="m512 95c0 30.328125-24.671875 55-55 55-8.820312 0-17.429688-2.148438-25.175781-6.191406l-288.015625 288.015625c4.042968 7.746093 6.191406 16.355469 6.191406 25.175781 0 30.328125-24.671875 55-55 55-25.722656 0-47.375-17.746094-53.359375-41.640625l428.71875-428.71875c23.894531 5.984375 41.640625 27.636719 41.640625 53.359375zm0 0" fill="#919191"/><path d="m336 431h-160c-8.285156 0-15-6.714844-15-15v-45.082031c-43.988281-30.949219-70-80.78125-70-134.917969 0-90.980469 74.019531-165 165-165s165 74.019531 165 165c0 54.136719-26.011719 103.96875-70 134.917969v45.082031c0 8.285156-6.714844 15-15 15zm0 0" fill="#e8e8e8"/><path d="m256 71v360h80c8.285156 0 15-6.714844 15-15v-45.082031c43.988281-30.949219 70-80.78125 70-134.917969 0-90.980469-74.019531-165-165-165zm0 0" fill="#d9d9d9"/><path d="m316 292c-24.8125 0-45-20.1875-45-45s20.1875-45 45-45 45 20.1875 45 45-20.1875 45-45 45zm0 0" fill="#3a3a3a"/><path d="m196 292c-24.8125 0-45-20.1875-45-45s20.1875-45 45-45 45 20.1875 45 45-20.1875 45-45 45zm0 0" fill="#4d4d4d"/><path d="m286 371c-8.285156 0-15 6.714844-15 15v45h30v-45c0-8.285156-6.714844-15-15-15zm0 0" fill="#3a3a3a"/><path d="m226 371c-8.285156 0-15 6.714844-15 15v45h30v-45c0-8.285156-6.714844-15-15-15zm0 0" fill="#4d4d4d"/></svg>