<svg height="512" viewBox="0 0 58 58" width="512" xmlns="http://www.w3.org/2000/svg"><g id="Page-1" fill="none" fill-rule="evenodd"><g id="055---message-error" fill-rule="nonzero"><path id="Shape" d="m51 17.91v-6.91c0-2.209139-1.790861-4-4-4h-8.55l-6.9-6c-1.4811489-1.21991279-3.6188511-1.21991279-5.1 0l-6.9 6h-8.55c-2.209139 0-4 1.790861-4 4v6.91l-7 6.09v30c0 2.209139 1.790861 4 4 4h50c2.209139 0 4-1.790861 4-4v-30z" fill="#f29c1f"/><path id="Shape" d="m58 24v30c0 2.209139-1.790861 4-4 4h-.83l-18.13-15 15.96-13.21z" fill="#f0c419"/><path id="Shape" d="m53.17 58h-48.34l18.13-15 3.49-2.89c1.4811489-1.2199128 3.6188511-1.2199128 5.1 0l3.49 2.89z" fill="#f3d55b"/><path id="Shape" d="m22.96 43-18.13 15h-.83c-2.209139 0-4-1.790861-4-4v-30l7 5.79z" fill="#f0c419"/><path id="Shape" d="m51 11v18.79l-15.96 13.21-3.49-2.89c-1.4811489-1.2199128-3.6188511-1.2199128-5.1 0l-3.49 2.89-15.96-13.21v-18.79c0-2.209139 1.790861-4 4-4h36c2.209139 0 4 1.790861 4 4z" fill="#f5efca"/><path id="Shape" d="m40.192 13.244c-.6612528-.7620243-1.6112947-1.2124603-2.6197876-1.2420995s-1.9833484.3642248-2.6882124 1.0860995l-5.884 6.112-5.884-6.108c-.704864-.7218747-1.6797195-1.1157387-2.6882124-1.0860995s-1.9585348.4800752-2.6197876 1.2420995c-.5950936.6931962-.8808615 1.59958-.7909651 2.5087423.0898964.9091622.5476384 1.7420291 1.2669651 2.3052577l6.676 5.328-6.031 6.262c-.3607168.3717622-.5540093.874684-.5351305 1.3923396.0188788.5176555.2482919 1.0051614.6351305 1.3496604.7449991.6641395 1.8595862.6966237 2.642.077l7.329-5.854 7.33 5.854c.7824138.6196237 1.8970009.5871395 2.642-.077.3868386-.344499.6162517-.8320049.6351305-1.3496604.0188788-.5176556-.1744137-1.0205774-.5351305-1.3923396l-6.032-6.262 6.676-5.332c.7193267-.5632286 1.1770687-1.3960955 1.2669651-2.3052577.0898964-.9091623-.1958715-1.8155461-.7909651-2.5087423z" fill="#e64c3c"/></g></g></svg>