<svg height="512pt" viewBox="0 -31 512 512" width="512pt" xmlns="http://www.w3.org/2000/svg"><path d="m512 120-140.285156 30-61.074219 135 70.179687 142.5 131.179688 22.5zm0 0" fill="#ff9100"/><path d="m0 450 152.789062-15.59375 48.570313-149.40625-61.074219-135-140.285156-30zm0 0" fill="#fdbf00"/><path d="m512 450h-512l256-210zm0 0" fill="#ffda2d"/><path d="m512 450h-256v-210zm0 0" fill="#fdbf00"/><path d="m512 120-201.398438 165-54.601562 45-54.601562-45-201.398438-165zm0 0" fill="#fff5f5"/><path d="m512 120-201.398438 165-54.601562 45v-210zm0 0" fill="#efe2dd"/><path d="m256 0c-57.898438 0-105 47.101562-105 105s47.101562 105 105 105 105-47.101562 105-105-47.101562-105-105-105zm0 0" fill="#61d7a8"/><path d="m361 105c0 57.898438-47.101562 105-105 105v-210c57.898438 0 105 47.101562 105 105zm0 0" fill="#00ab94"/><path d="m311.5 85.5-55.5 55.800781-15 15-40.5-40.800781 21-21 19.5 19.199219 15-15 34.5-34.199219zm0 0" fill="#fff5f5"/><path d="m311.5 85.5-55.5 55.800781v-42.601562l34.5-34.199219zm0 0" fill="#efe2dd"/></svg>