<?xml version="1.0" encoding="iso-8859-1"?>
<!-- Generator: Adobe Illustrator 21.0.0, SVG Export Plug-In . SVG Version: 6.00 Build 0)  -->
<svg version="1.1" id="Capa_1" xmlns="http://www.w3.org/2000/svg" xmlns:xlink="http://www.w3.org/1999/xlink" x="0px" y="0px"
	 viewBox="0 0 512 512" style="enable-background:new 0 0 512 512;" xml:space="preserve">
<g>
	<path style="fill:#CCCCCC;" d="M412.989,46.094v19.971L265.702,88.668L99.011,66.065V46.094C99.011,20.631,119.654,0,145.13,0
		h221.74C392.333,0,412.989,20.631,412.989,46.094z"/>
	<path style="fill:#CCCCCC;" d="M412.989,443.183v22.723c0,25.462-20.656,46.094-46.119,46.094h-12.834H145.13
		c-25.476,0-46.119-20.631-46.119-46.094v-22.723L256,421.505L412.989,443.183z"/>
</g>
<rect x="99.01" y="66.06" style="fill:#4D4D4D;" width="313.98" height="377.12"/>
<polygon style="fill:#3B3B3B;" points="412.989,443.183 146.796,443.183 374.058,67.744 374.058,66.065 412.989,66.065 "/>
<g>
	<polygon style="fill:#FFA638;" points="354.762,184.134 157.098,184.134 255.93,282.966 	"/>
	<polygon style="fill:#FFA638;" points="212.955,261.205 146.491,194.741 146.491,327.658 	"/>
	<polygon style="fill:#FFA638;" points="365.647,184.354 365.647,184.134 365.426,184.134 	"/>
	<path style="fill:#FFA638;" d="M354.852,338.354l-66.548-66.548l-27.071,27.071c-1.465,1.464-3.385,2.197-5.304,2.197
		c-1.919,0-3.839-0.732-5.304-2.197l-27.064-27.064l-66.553,66.542h197.844V338.354z"/>
	<polygon style="fill:#FFA638;" points="365.336,338.354 365.647,338.354 365.647,338.043 	"/>
	<polygon style="fill:#FFA638;" points="365.647,194.463 298.911,261.198 365.647,327.935 	"/>
	<polygon style="fill:#FFA638;" points="146.491,338.322 146.491,338.354 146.523,338.354 	"/>
</g>
<circle style="fill:#808080;" cx="256" cy="479.23" r="20.503"/>
<g>
</g>
<g>
</g>
<g>
</g>
<g>
</g>
<g>
</g>
<g>
</g>
<g>
</g>
<g>
</g>
<g>
</g>
<g>
</g>
<g>
</g>
<g>
</g>
<g>
</g>
<g>
</g>
<g>
</g>
</svg>
