<?xml version="1.0"?>
<svg xmlns="http://www.w3.org/2000/svg" xmlns:xlink="http://www.w3.org/1999/xlink" xmlns:svgjs="http://svgjs.com/svgjs" version="1.1" width="512" height="512" x="0" y="0" viewBox="0 0 58 58" style="enable-background:new 0 0 512 512" xml:space="preserve" class=""><g><g xmlns="http://www.w3.org/2000/svg" id="Page-1" fill="none" fill-rule="evenodd"><g id="027---Flash" fill-rule="nonzero"><circle id="Oval" cx="29" cy="29" fill="#000000" r="29" data-original="#2c3e50" style="" class=""/><circle id="Oval" cx="29" cy="29" fill="#8d32ca" r="25" data-original="#35495e" style="" class=""/><path id="Shape" d="m23.579 11.684-6.553 19.658c-.0507603.1524026-.0252078.3199128.0686826.45025.0938903.1303371.2446838.2076281.4053174.20775h8.627c.1589839.00009.3084494.0757827.4026036.2038877.0941542.1281049.1217736.2933516.0743964.4451123l-4.122 13.7c-.0693587.2237084.0258666.4655843.2291176.5819677.2032511.1163834.4600537.076082.6178824-.0969677l17.54-20c.131455-.1464352.164793-.3563592.0851721-.5363154-.0796209-.1799561-.2573924-.2964755-.4541721-.2976846h-7.955c-.1659494-.0000386-.3210669-.0824111-.4140418-.2198697s-.1116914-.3120906-.0499582-.4661303l5.177-12.943c.1230375-.3079694.0853903-.6569033-.1005061-.9315411-.1858963-.2746378-.4958566-.439249-.8274939-.4394589h-11.8c-.4313433-.0009662-.8146963.2747577-.951.684z" fill="#ffffff" data-original="#f0c419" style="" class=""/></g></g></g></svg>
