<?xml version="1.0" encoding="UTF-8"?>
<!DOCTYPE svg PUBLIC "-//W3C//DTD SVG 1.1//EN" "http://www.w3.org/Graphics/SVG/1.1/DTD/svg11.dtd">
<svg xmlns="http://www.w3.org/2000/svg" version="1.1" width="512px" height="512px" style="shape-rendering:geometricPrecision; text-rendering:geometricPrecision; image-rendering:optimizeQuality; fill-rule:evenodd; clip-rule:evenodd" xmlns:xlink="http://www.w3.org/1999/xlink">
<g><path style="opacity:0.996" fill="#aab2bd" d="M 264.5,23.5 C 200.556,32.2747 155.723,66.2747 130,125.5C 124.297,139.978 120.964,154.978 120,170.5C 119.5,260.166 119.333,349.833 119.5,439.5C 114.167,439.5 108.833,439.5 103.5,439.5C 92.6536,439.828 81.9869,439.494 71.5,438.5C 71.3333,347.499 71.5,256.499 72,165.5C 81.0606,102.834 114.561,59.0009 172.5,34C 183.202,29.9077 194.202,26.9077 205.5,25C 225.133,23.6052 244.8,23.1052 264.5,23.5 Z"/></g>
<g><path style="opacity:0.999" fill="#cbd0d8" d="M 264.5,23.5 C 329.376,20.1888 379.876,45.1888 416,98.5C 428.445,119.168 436.112,141.502 439,165.5C 439.5,256.499 439.667,347.499 439.5,438.5C 333.001,439.499 226.335,439.833 119.5,439.5C 119.333,349.833 119.5,260.166 120,170.5C 120.964,154.978 124.297,139.978 130,125.5C 155.723,66.2747 200.556,32.2747 264.5,23.5 Z"/></g>
<g><path style="opacity:1" fill="#656d78" d="M 180.5,183.5 C 190.839,183.334 201.172,183.5 211.5,184C 225.936,186.294 235.103,194.461 239,208.5C 240.891,224.383 235.057,236.383 221.5,244.5C 227.14,252.64 232.973,260.64 239,268.5C 239.747,278.048 235.58,281.215 226.5,278C 219.076,267.82 211.409,257.82 203.5,248C 199.514,247.501 195.514,247.334 191.5,247.5C 191.92,257.247 191.42,266.914 190,276.5C 185.667,280.5 181.333,280.5 177,276.5C 176.667,275.5 176.333,274.5 176,273.5C 175.333,245.167 175.333,216.833 176,188.5C 177.025,186.313 178.525,184.646 180.5,183.5 Z"/></g>
<g><path style="opacity:1" fill="#656d78" d="M 260.5,183.5 C 279.235,183.039 297.902,183.539 316.5,185C 320.5,189.333 320.5,193.667 316.5,198C 309.589,199.384 302.589,199.884 295.5,199.5C 295.5,220.833 295.5,242.167 295.5,263.5C 302.589,263.116 309.589,263.616 316.5,265C 319.769,268.453 320.269,272.286 318,276.5C 316.829,277.893 315.329,278.727 313.5,279C 295.833,279.667 278.167,279.667 260.5,279C 256.139,276.774 254.639,273.274 256,268.5C 256.833,266.333 258.333,264.833 260.5,264C 266.825,263.5 273.158,263.334 279.5,263.5C 279.5,242.167 279.5,220.833 279.5,199.5C 272.385,199.925 265.385,199.425 258.5,198C 254.128,192.408 254.794,187.575 260.5,183.5 Z"/></g>
<g><path style="opacity:1" fill="#656d78" d="M 340.5,183.5 C 350.839,183.334 361.172,183.5 371.5,184C 393.011,189.186 401.844,202.686 398,224.5C 394.833,235.667 387.667,242.833 376.5,246C 368.227,247.33 359.893,247.83 351.5,247.5C 351.92,257.247 351.42,266.914 350,276.5C 345.667,280.5 341.333,280.5 337,276.5C 336.667,275.5 336.333,274.5 336,273.5C 335.333,245.167 335.333,216.833 336,188.5C 337.025,186.313 338.525,184.646 340.5,183.5 Z"/></g>
<g><path style="opacity:1" fill="#cbd0d8" d="M 191.5,199.5 C 199.253,199.104 206.92,199.604 214.5,201C 223.079,206.001 225.579,213.167 222,222.5C 219.685,226.817 216.185,229.65 211.5,231C 204.842,231.5 198.175,231.666 191.5,231.5C 191.5,220.833 191.5,210.167 191.5,199.5 Z"/></g>
<g><path style="opacity:1" fill="#cbd0d8" d="M 351.5,199.5 C 359.253,199.104 366.92,199.604 374.5,201C 383.079,206.001 385.579,213.167 382,222.5C 379.685,226.817 376.185,229.65 371.5,231C 364.842,231.5 358.175,231.666 351.5,231.5C 351.5,220.833 351.5,210.167 351.5,199.5 Z"/></g>
<g><path style="opacity:1" fill="#aab2bd" d="M 164.5,319.5 C 240.834,319.333 317.167,319.5 393.5,320C 399.462,322.405 400.962,326.571 398,332.5C 396.829,333.893 395.329,334.727 393.5,335C 317.167,335.667 240.833,335.667 164.5,335C 157.889,329.798 157.889,324.631 164.5,319.5 Z"/></g>
<g><path style="opacity:1" fill="#aab2bd" d="M 164.5,343.5 C 240.834,343.333 317.167,343.5 393.5,344C 399.462,346.405 400.962,350.571 398,356.5C 396.829,357.893 395.329,358.727 393.5,359C 317.167,359.667 240.833,359.667 164.5,359C 159.465,355.987 158.298,351.82 161,346.5C 162.145,345.364 163.312,344.364 164.5,343.5 Z"/></g>
<g><path style="opacity:1" fill="#aab2bd" d="M 236.5,367.5 C 264.835,367.333 293.169,367.5 321.5,368C 327.462,370.405 328.962,374.571 326,380.5C 324.829,381.893 323.329,382.727 321.5,383C 293.167,383.667 264.833,383.667 236.5,383C 231.465,379.987 230.298,375.82 233,370.5C 234.145,369.364 235.312,368.364 236.5,367.5 Z"/></g>
<g><path style="opacity:1" fill="#545c66" d="M 71.5,438.5 C 81.9869,439.494 92.6536,439.828 103.5,439.5C 103.5,450.167 103.5,460.833 103.5,471.5C 87.5,471.5 71.5,471.5 55.5,471.5C 55.5,460.5 55.5,449.5 55.5,438.5C 60.8333,438.5 66.1667,438.5 71.5,438.5 Z"/></g>
<g><path style="opacity:1" fill="#656d78" d="M 439.5,438.5 C 444.833,438.5 450.167,438.5 455.5,438.5C 455.5,449.5 455.5,460.5 455.5,471.5C 338.167,471.5 220.833,471.5 103.5,471.5C 103.5,460.833 103.5,450.167 103.5,439.5C 108.833,439.5 114.167,439.5 119.5,439.5C 226.335,439.833 333.001,439.499 439.5,438.5 Z"/></g>
<g><path style="opacity:0.999" fill="#a0d467" d="M 55.5,471.5 C 71.5,471.5 87.5,471.5 103.5,471.5C 220.833,471.5 338.167,471.5 455.5,471.5C 472.837,471.333 490.17,471.5 507.5,472C 509.35,472.69 510.684,473.856 511.5,475.5C 511.5,478.167 511.5,480.833 511.5,483.5C 510.684,485.144 509.35,486.31 507.5,487C 339.5,487.667 171.5,487.667 3.5,487C 1.64977,486.31 0.316435,485.144 -0.5,483.5C -0.5,480.833 -0.5,478.167 -0.5,475.5C 0.316435,473.856 1.64977,472.69 3.5,472C 20.8301,471.5 38.1635,471.333 55.5,471.5 Z"/></g>
</svg>
