<?xml version="1.0" encoding="UTF-8"?>
<!DOCTYPE svg PUBLIC "-//W3C//DTD SVG 1.1//EN" "http://www.w3.org/Graphics/SVG/1.1/DTD/svg11.dtd">
<svg xmlns="http://www.w3.org/2000/svg" version="1.1" width="512px" height="512px" style="shape-rendering:geometricPrecision; text-rendering:geometricPrecision; image-rendering:optimizeQuality; fill-rule:evenodd; clip-rule:evenodd" xmlns:xlink="http://www.w3.org/1999/xlink">
<g><path style="opacity:1" fill="#dcb757" d="M 352.5,139.5 C 337.534,198.789 322.534,258.123 307.5,317.5C 278.05,308.811 248.717,300.811 219.5,293.5C 229.626,321.596 248.293,341.763 275.5,354C 282.448,356.976 289.448,359.476 296.5,361.5C 288.747,387.502 281.747,413.836 275.5,440.5C 272.833,440.167 270.167,439.833 267.5,439.5C 234.05,431.117 208.05,412.451 189.5,383.5C 186.345,377.861 183.179,372.194 180,366.5C 175.85,351.9 172.017,337.234 168.5,322.5C 167.5,322.5 166.5,322.5 165.5,322.5C 162.537,310.718 160.871,298.718 160.5,286.5C 158.16,249.112 160.994,212.112 169,175.5C 172.203,161.398 175.703,147.398 179.5,133.5C 185.539,114.086 192.706,95.0859 201,76.5C 202.886,72.5598 205.386,69.0598 208.5,66C 212.295,65.1628 215.961,65.4961 219.5,67C 231.349,76.093 243.016,85.4264 254.5,95C 284.497,115.495 317.163,130.328 352.5,139.5 Z M 245.5,189.5 C 276.185,192.683 294.185,209.517 299.5,240C 267.792,231.821 236.126,223.154 204.5,214C 214.888,200.147 228.554,191.981 245.5,189.5 Z"/></g>
<g><path style="opacity:0.995" fill="#e1574b" d="M 179.5,133.5 C 175.703,147.398 172.203,161.398 169,175.5C 160.994,212.112 158.16,249.112 160.5,286.5C 159.833,286.5 159.167,286.5 158.5,286.5C 146.794,243.984 135.46,201.317 124.5,158.5C 122.901,158.768 121.568,158.434 120.5,157.5C 141.306,152.233 160.973,144.233 179.5,133.5 Z"/></g>
<g><path style="opacity:0.995" fill="#efc75d" d="M 352.5,139.5 C 386.229,148.858 420.562,152.025 455.5,149C 470.221,147.156 484.887,144.989 499.5,142.5C 504.529,142.023 508.529,143.689 511.5,147.5C 511.5,154.167 511.5,160.833 511.5,167.5C 503.476,229.741 484.309,288.407 454,343.5C 434.409,378.76 407.575,407.26 373.5,429C 339.477,446.913 304.143,450.413 267.5,439.5C 270.167,439.833 272.833,440.167 275.5,440.5C 281.747,413.836 288.747,387.502 296.5,361.5C 326.261,368.704 353.594,363.538 378.5,346C 380.833,343.667 383.167,341.333 385.5,339C 359.569,331.518 333.569,324.351 307.5,317.5C 322.534,258.123 337.534,198.789 352.5,139.5 Z M 385.5,234.5 C 410.302,232.645 427.802,242.979 438,265.5C 440.228,271.586 442.062,277.753 443.5,284C 413.123,275.819 382.79,267.153 352.5,258C 360.925,246.387 371.925,238.553 385.5,234.5 Z"/></g>
<g><path style="opacity:0.997" fill="#d05046" d="M 120.5,157.5 C 121.568,158.434 122.901,158.768 124.5,158.5C 135.46,201.317 146.794,243.984 158.5,286.5C 144.986,291.853 133.152,299.853 123,310.5C 116.167,318.833 111.5,328.167 109,338.5C 127.679,332.663 146.512,327.33 165.5,322.5C 166.5,322.5 167.5,322.5 168.5,322.5C 172.017,337.234 175.85,351.9 180,366.5C 183.179,372.194 186.345,377.861 189.5,383.5C 153.408,395.762 120.075,390.595 89.5,368C 59.9144,342.352 38.0811,311.185 24,274.5C 12.0545,244.71 3.88787,214.044 -0.5,182.5C -0.5,176.5 -0.5,170.5 -0.5,164.5C 0.236209,162.771 1.56954,161.771 3.5,161.5C 12.2972,161.683 20.9638,162.85 29.5,165C 50.1667,167 70.8333,167 91.5,165C 96.7548,164.333 101.755,163.166 106.5,161.5C 111.079,160.186 115.746,158.852 120.5,157.5 Z M 119.5,217.5 C 120.376,217.369 121.043,217.702 121.5,218.5C 113.935,246.233 96.2682,256.4 68.5,249C 61.6953,246.2 56.0286,241.867 51.5,236C 74.3646,230.093 97.0312,223.927 119.5,217.5 Z"/></g>
<g><path style="opacity:0.903" fill="#e0564b" d="M 3.5,161.5 C 5.64125,160.837 7.97459,160.503 10.5,160.5C 42.4418,166.736 74.4418,167.07 106.5,161.5C 101.755,163.166 96.7548,164.333 91.5,165C 70.8333,167 50.1667,167 29.5,165C 20.9638,162.85 12.2972,161.683 3.5,161.5 Z"/></g>
</svg>
