<?xml version="1.0" encoding="UTF-8"?>
<!DOCTYPE svg PUBLIC "-//W3C//DTD SVG 1.1//EN" "http://www.w3.org/Graphics/SVG/1.1/DTD/svg11.dtd">
<svg xmlns="http://www.w3.org/2000/svg" version="1.1" width="512px" height="512px" style="shape-rendering:geometricPrecision; text-rendering:geometricPrecision; image-rendering:optimizeQuality; fill-rule:evenodd; clip-rule:evenodd" xmlns:xlink="http://www.w3.org/1999/xlink">
<g><path style="opacity:0.999" fill="#9be59c" d="M 248.5,31.5 C 248.5,52.5 248.5,73.5 248.5,94.5C 248.5,106.833 248.5,119.167 248.5,131.5C 248.167,131.5 247.833,131.5 247.5,131.5C 247.5,119.167 247.5,106.833 247.5,94.5C 211.498,94.6667 175.498,94.5 139.5,94C 121.897,89.8891 109.231,79.7224 101.5,63.5C 108.206,47.7892 119.872,37.6225 136.5,33C 173.799,31.538 211.132,31.038 248.5,31.5 Z"/></g>
<g><path style="opacity:0.998" fill="#9be69d" d="M 302.5,31.5 C 339.868,31.038 377.201,31.538 414.5,33C 431.092,37.4307 442.425,47.5973 448.5,63.5C 441.157,80.0392 428.49,90.2058 410.5,94C 374.502,94.5 338.502,94.6667 302.5,94.5C 302.5,73.5 302.5,52.5 302.5,31.5 Z"/></g>
<g><path style="opacity:1" fill="#fee077" d="M 248.5,31.5 C 266.5,31.5 284.5,31.5 302.5,31.5C 302.5,52.5 302.5,73.5 302.5,94.5C 284.5,94.5 266.5,94.5 248.5,94.5C 248.5,73.5 248.5,52.5 248.5,31.5 Z"/></g>
<g><path style="opacity:1" fill="#6fd7a3" d="M 101.5,63.5 C 109.231,79.7224 121.897,89.8891 139.5,94C 175.498,94.5 211.498,94.6667 247.5,94.5C 247.5,106.833 247.5,119.167 247.5,131.5C 237.833,131.5 228.167,131.5 218.5,131.5C 203.167,131.5 187.833,131.5 172.5,131.5C 160.12,131.87 147.786,131.37 135.5,130C 126.403,127.289 118.403,122.789 111.5,116.5C 105.496,108.822 101.329,100.156 99,90.5C 98.5014,86.8484 98.3347,83.1817 98.5,79.5C 98.2357,73.898 99.2357,68.5646 101.5,63.5 Z"/></g>
<g><path style="opacity:1" fill="#6fd7a3" d="M 448.5,63.5 C 457.383,92.3241 448.383,113.824 421.5,128C 417.58,129.313 413.58,130.313 409.5,131C 399.172,131.5 388.839,131.666 378.5,131.5C 363.167,131.5 347.833,131.5 332.5,131.5C 322.5,131.5 312.5,131.5 302.5,131.5C 302.5,119.167 302.5,106.833 302.5,94.5C 338.502,94.6667 374.502,94.5 410.5,94C 428.49,90.2058 441.157,80.0392 448.5,63.5 Z"/></g>
<g><path style="opacity:0.976" fill="#99e6fb" d="M 98.5,79.5 C 98.3347,83.1817 98.5014,86.8484 99,90.5C 101.329,100.156 105.496,108.822 111.5,116.5C 107.026,122.788 104.193,129.788 103,137.5C 102.5,149.495 102.333,161.495 102.5,173.5C 90.5,173.5 78.5,173.5 66.5,173.5C 66.3334,160.496 66.5001,147.496 67,134.5C 69.7863,111.576 80.2863,93.2431 98.5,79.5 Z"/></g>
<g><path style="opacity:1" fill="#fed15b" d="M 248.5,94.5 C 266.5,94.5 284.5,94.5 302.5,94.5C 302.5,106.833 302.5,119.167 302.5,131.5C 284.5,131.5 266.5,131.5 248.5,131.5C 248.5,119.167 248.5,106.833 248.5,94.5 Z"/></g>
<g><path style="opacity:0.973" fill="#d8ebfe" d="M 172.5,131.5 C 187.833,131.5 203.167,131.5 218.5,131.5C 218.5,145.5 218.5,159.5 218.5,173.5C 203.167,173.5 187.833,173.5 172.5,173.5C 172.5,159.5 172.5,145.5 172.5,131.5 Z"/></g>
<g><path style="opacity:0.973" fill="#d7ebfe" d="M 332.5,131.5 C 347.833,131.5 363.167,131.5 378.5,131.5C 378.5,145.5 378.5,159.5 378.5,173.5C 363.167,173.5 347.833,173.5 332.5,173.5C 332.5,159.5 332.5,145.5 332.5,131.5 Z"/></g>
<g><path style="opacity:0.997" fill="#fd646f" d="M 66.5,173.5 C 78.5,173.5 90.5,173.5 102.5,173.5C 125.833,173.5 149.167,173.5 172.5,173.5C 187.833,173.5 203.167,173.5 218.5,173.5C 256.5,173.5 294.5,173.5 332.5,173.5C 347.833,173.5 363.167,173.5 378.5,173.5C 391.5,173.5 404.5,173.5 417.5,173.5C 426.787,175.274 433.287,180.608 437,189.5C 438.142,203.935 438.642,218.435 438.5,233C 438.634,247.885 438.134,262.718 437,277.5C 433.819,286.518 427.652,292.185 418.5,294.5C 416.5,294.5 414.5,294.5 412.5,294.5C 365.167,294.5 317.833,294.5 270.5,294.5C 250.5,294.5 230.5,294.5 210.5,294.5C 199.147,294.168 187.814,294.501 176.5,295.5C 173.687,309.086 171.353,322.753 169.5,336.5C 161.765,381.576 153.598,426.576 145,471.5C 143.407,475.428 140.573,477.928 136.5,479C 97.8333,479.667 59.1667,479.667 20.5,479C 14.9296,477.597 11.5962,474.097 10.5,468.5C 20.7307,411.846 30.8974,355.18 41,298.5C 41.4999,281.17 41.6666,263.837 41.5,246.5C 42.8333,230.167 42.8333,213.833 41.5,197.5C 43.3558,182.642 51.6891,174.642 66.5,173.5 Z"/></g>
<g><path style="opacity:1" fill="#fd4755" d="M 417.5,173.5 C 427.839,173.334 438.172,173.5 448.5,174C 462.347,179.846 468.347,190.346 466.5,205.5C 465.167,225.5 465.167,245.5 466.5,265.5C 467.501,280.021 461.168,289.521 447.5,294C 437.839,294.5 428.172,294.666 418.5,294.5C 427.652,292.185 433.819,286.518 437,277.5C 438.134,262.718 438.634,247.885 438.5,233C 438.642,218.435 438.142,203.935 437,189.5C 433.287,180.608 426.787,175.274 417.5,173.5 Z"/></g>
<g><path style="opacity:0.979" fill="#554e56" d="M 41.5,197.5 C 42.8333,213.833 42.8333,230.167 41.5,246.5C 33.4931,246.666 25.4931,246.5 17.5,246C 8.94839,244.277 2.94839,239.444 -0.5,231.5C -0.5,225.167 -0.5,218.833 -0.5,212.5C 1.51442,206.35 5.51442,201.85 11.5,199C 21.4203,197.577 31.4203,197.077 41.5,197.5 Z"/></g>
<g><path style="opacity:1" fill="#fd4755" d="M 310.5,205.5 C 318.709,204.872 322.209,208.539 321,216.5C 312.667,229.833 304.333,243.167 296,256.5C 291.641,262.601 286.974,262.934 282,257.5C 280.699,255.635 280.365,253.635 281,251.5C 290.268,235.747 300.101,220.413 310.5,205.5 Z"/></g>
<g><path style="opacity:1" fill="#fd4755" d="M 355.5,205.5 C 363.709,204.872 367.209,208.539 366,216.5C 357.667,229.833 349.333,243.167 341,256.5C 336.641,262.601 331.974,262.934 327,257.5C 325.699,255.635 325.365,253.635 326,251.5C 335.268,235.747 345.101,220.413 355.5,205.5 Z"/></g>
<g><path style="opacity:1" fill="#fd4755" d="M 400.5,205.5 C 408.656,204.821 412.156,208.488 411,216.5C 402.667,229.833 394.333,243.167 386,256.5C 381.641,262.601 376.974,262.934 372,257.5C 371.333,254.833 371.333,252.167 372,249.5C 381.261,234.635 390.761,219.968 400.5,205.5 Z"/></g>
<g><path style="opacity:0.98" fill="#574d55" d="M 466.5,205.5 C 475.173,205.334 483.84,205.5 492.5,206C 501.441,207.776 507.441,212.942 510.5,221.5C 508.92,229.583 504.253,235.083 496.5,238C 486.557,239.365 476.557,239.865 466.5,239.5C 466.5,248.167 466.5,256.833 466.5,265.5C 465.167,245.5 465.167,225.5 466.5,205.5 Z"/></g>
<g><path style="opacity:1" fill="#9ae4fa" d="M 101.5,213.5 C 135.168,213.333 168.835,213.5 202.5,214C 213.314,218.121 217.48,225.954 215,237.5C 212.737,244.097 208.237,248.264 201.5,250C 169.167,250.667 136.833,250.667 104.5,250C 91.8995,245.299 87.3995,236.466 91,223.5C 93.7379,219.26 97.2379,215.926 101.5,213.5 Z"/></g>
<g><path style="opacity:1" fill="#433f43" d="M 510.5,221.5 C 510.833,221.5 511.167,221.5 511.5,221.5C 511.5,230.833 511.5,240.167 511.5,249.5C 507.727,257.77 501.394,262.937 492.5,265C 483.84,265.5 475.173,265.666 466.5,265.5C 466.5,256.833 466.5,248.167 466.5,239.5C 476.557,239.865 486.557,239.365 496.5,238C 504.253,235.083 508.92,229.583 510.5,221.5 Z"/></g>
<g><path style="opacity:0.992" fill="#ffe076" d="M 210.5,294.5 C 214.296,325.703 200.629,339.703 169.5,336.5C 171.353,322.753 173.687,309.086 176.5,295.5C 187.814,294.501 199.147,294.168 210.5,294.5 Z"/></g>
<g><path style="opacity:1" fill="#ffd15b" d="M 270.5,294.5 C 317.833,294.5 365.167,294.5 412.5,294.5C 412.5,301.5 412.5,308.5 412.5,315.5C 365.167,315.5 317.833,315.5 270.5,315.5C 270.5,308.5 270.5,301.5 270.5,294.5 Z"/></g>
<g><path style="opacity:1" fill="#9ae4fa" d="M 113.5,312.5 C 114.815,313.667 115.481,315.167 115.5,317C 108.388,356.896 100.388,396.562 91.5,436C 97.4908,436.499 103.491,436.666 109.5,436.5C 92.3382,437.662 75.0049,437.829 57.5,437C 55.6431,435.818 54.6431,434.151 54.5,432C 62.0785,392.774 69.9119,353.607 78,314.5C 78.5,314 79,313.5 79.5,313C 90.8284,312.5 102.162,312.333 113.5,312.5 Z"/></g>
<g><path style="opacity:1" fill="#64dafa" d="M 113.5,312.5 C 120.175,312.334 126.842,312.5 133.5,313C 134.894,313.956 135.561,315.289 135.5,317C 127.667,356.167 119.833,395.333 112,434.5C 111.292,435.381 110.458,436.047 109.5,436.5C 103.491,436.666 97.4908,436.499 91.5,436C 100.388,396.562 108.388,356.896 115.5,317C 115.481,315.167 114.815,313.667 113.5,312.5 Z"/></g>
<g><path style="opacity:0.985" fill="#ffe076" d="M 270.5,315.5 C 317.833,315.5 365.167,315.5 412.5,315.5C 411.717,326.58 406.051,333.747 395.5,337C 359.5,337.667 323.5,337.667 287.5,337C 276.961,333.785 271.295,326.619 270.5,315.5 Z"/></g>
</svg>
