<?xml version="1.0" encoding="UTF-8"?>
<!DOCTYPE svg PUBLIC "-//W3C//DTD SVG 1.1//EN" "http://www.w3.org/Graphics/SVG/1.1/DTD/svg11.dtd">
<svg xmlns="http://www.w3.org/2000/svg" version="1.1" width="512px" height="512px" style="shape-rendering:geometricPrecision; text-rendering:geometricPrecision; image-rendering:optimizeQuality; fill-rule:evenodd; clip-rule:evenodd" xmlns:xlink="http://www.w3.org/1999/xlink">
<g><path style="opacity:0.998" fill="#dc4c3c" d="M 249.5,-0.5 C 253.5,-0.5 257.5,-0.5 261.5,-0.5C 265.304,0.78177 268.471,3.1151 271,6.5C 281.108,23.0571 290.942,39.7238 300.5,56.5C 338.194,119.851 375.861,183.184 413.5,246.5C 385.367,213.204 351.367,187.704 311.5,170C 302.052,166.388 292.386,163.555 282.5,161.5C 265.564,157.996 248.564,157.663 231.5,160.5C 208.501,164.833 187.167,173.333 167.5,186C 142.279,202.708 119.279,222.208 98.5,244.5C 135.822,181.861 173.155,119.194 210.5,56.5C 220.058,39.7238 229.892,23.0571 240,6.5C 242.529,3.1151 245.696,0.78177 249.5,-0.5 Z"/></g>
<g><path style="opacity:1" fill="#e8921f" d="M 210.5,56.5 C 173.155,119.194 135.822,181.861 98.5,244.5C 96.3218,246.858 94.6551,249.525 93.5,252.5C 74.4177,284.333 55.0844,316 35.5,347.5C 32.585,339.84 30.585,331.84 29.5,323.5C 81.9998,237.173 134,150.506 185.5,63.5C 193.513,60.4104 201.846,58.0771 210.5,56.5 Z"/></g>
<g><path style="opacity:1" fill="#e8921f" d="M 300.5,56.5 C 309.213,57.8538 317.546,60.1871 325.5,63.5C 377,150.506 429,237.173 481.5,323.5C 480.415,331.84 478.415,339.84 475.5,347.5C 455.916,316 436.582,284.333 417.5,252.5C 416.559,250.228 415.226,248.228 413.5,246.5C 375.861,183.184 338.194,119.851 300.5,56.5 Z"/></g>
<g><path style="opacity:0.996" fill="#e7ba19" d="M 325.5,63.5 C 382.515,81.6793 426.015,116.679 456,168.5C 482.676,217.221 491.176,268.887 481.5,323.5C 429,237.173 377,150.506 325.5,63.5 Z"/></g>
<g><path style="opacity:0.996" fill="#e7ba19" d="M 185.5,63.5 C 134,150.506 81.9998,237.173 29.5,323.5C 15.9718,232.219 44.6385,157.386 115.5,99C 136.779,83.1936 160.112,71.3603 185.5,63.5 Z"/></g>
<g><path style="opacity:1" fill="#b73a2b" d="M 233.5,70.5 C 247.837,70.3334 262.171,70.5001 276.5,71C 281.224,73.4353 282.724,77.2686 281,82.5C 280.167,84.6667 278.667,86.1667 276.5,87C 262.5,87.6667 248.5,87.6667 234.5,87C 229.845,84.1034 228.345,79.9367 230,74.5C 231.376,73.2949 232.542,71.9616 233.5,70.5 Z"/></g>
<g><path style="opacity:1" fill="#b73a2b" d="M 216.5,114.5 C 242.502,114.333 268.502,114.5 294.5,115C 299.609,118.366 300.776,122.866 298,128.5C 297.097,129.701 295.931,130.535 294.5,131C 268.5,131.667 242.5,131.667 216.5,131C 211.391,127.634 210.224,123.134 213,117.5C 214.145,116.364 215.312,115.364 216.5,114.5 Z"/></g>
<g><path style="opacity:1" fill="#3c8ec9" d="M 282.5,161.5 C 325.898,177.258 349.231,208.258 352.5,254.5C 351.088,296.715 331.421,326.882 293.5,345C 289.285,346.234 285.285,347.734 281.5,349.5C 264.909,353.03 248.242,353.363 231.5,350.5C 178.069,331.344 154.236,293.344 160,236.5C 169.626,197.71 193.459,172.376 231.5,160.5C 248.564,157.663 265.564,157.996 282.5,161.5 Z"/></g>
<g><path style="opacity:1" fill="#e2e5e6" d="M 231.5,160.5 C 193.459,172.376 169.626,197.71 160,236.5C 154.236,293.344 178.069,331.344 231.5,350.5C 202.925,344.71 176.925,333.21 153.5,316C 132.089,299.924 112.589,281.757 95,261.5C 93.8512,258.607 93.3512,255.607 93.5,252.5C 94.6551,249.525 96.3218,246.858 98.5,244.5C 119.279,222.208 142.279,202.708 167.5,186C 187.167,173.333 208.501,164.833 231.5,160.5 Z"/></g>
<g><path style="opacity:1" fill="#e2e5e6" d="M 282.5,161.5 C 292.386,163.555 302.052,166.388 311.5,170C 351.367,187.704 385.367,213.204 413.5,246.5C 415.226,248.228 416.559,250.228 417.5,252.5C 417.664,255.187 417.497,257.854 417,260.5C 388.987,293.249 355.821,319.416 317.5,339C 305.843,343.747 293.843,347.247 281.5,349.5C 285.285,347.734 289.285,346.234 293.5,345C 331.421,326.882 351.088,296.715 352.5,254.5C 349.231,208.258 325.898,177.258 282.5,161.5 Z"/></g>
<g><path style="opacity:1" fill="#e1e5e7" d="M 241.5,204.5 C 249.709,218.568 247.709,231.068 235.5,242C 224.981,248.148 214.648,247.982 204.5,241.5C 191.283,229.276 190.116,215.943 201,201.5C 215.475,190.074 228.975,191.074 241.5,204.5 Z"/></g>
<g><path style="opacity:1" fill="#35495e" d="M 204.5,241.5 C 214.648,247.982 224.981,248.148 235.5,242C 247.709,231.068 249.709,218.568 241.5,204.5C 273.9,198.95 295.734,211.617 307,242.5C 311.606,270.454 301.439,290.954 276.5,304C 245.63,314.144 222.463,304.977 207,276.5C 202.291,265.034 201.458,253.368 204.5,241.5 Z"/></g>
<g><path style="opacity:0.997" fill="#dc4c3b" d="M 93.5,252.5 C 93.3512,255.607 93.8512,258.607 95,261.5C 112.589,281.757 132.089,299.924 153.5,316C 176.925,333.21 202.925,344.71 231.5,350.5C 248.242,353.363 264.909,353.03 281.5,349.5C 293.843,347.247 305.843,343.747 317.5,339C 355.821,319.416 388.987,293.249 417,260.5C 417.497,257.854 417.664,255.187 417.5,252.5C 436.582,284.333 455.916,316 475.5,347.5C 487.515,367.536 499.515,387.536 511.5,407.5C 511.5,411.5 511.5,415.5 511.5,419.5C 508.947,425.88 504.28,430.046 497.5,432C 474.836,432.5 452.169,432.667 429.5,432.5C 313.5,432.5 197.5,432.5 81.5,432.5C 58.8309,432.667 36.1642,432.5 13.5,432C 6.71998,430.046 2.05332,425.88 -0.5,419.5C -0.5,415.5 -0.5,411.5 -0.5,407.5C 11.4854,387.536 23.4854,367.536 35.5,347.5C 55.0844,316 74.4177,284.333 93.5,252.5 Z"/></g>
<g><path style="opacity:1" fill="#b73a2b" d="M 74.5,379.5 C 100.835,379.333 127.169,379.5 153.5,380C 160.33,385.71 159.997,391.043 152.5,396C 126.833,396.667 101.167,396.667 75.5,396C 70.9315,393.459 69.4315,389.625 71,384.5C 71.9973,382.677 73.1639,381.01 74.5,379.5 Z"/></g>
<g><path style="opacity:1" fill="#b73a2b" d="M 216.5,379.5 C 242.502,379.333 268.502,379.5 294.5,380C 299.069,382.541 300.569,386.375 299,391.5C 298.052,393.57 296.552,395.07 294.5,396C 268.5,396.667 242.5,396.667 216.5,396C 209.856,390.375 209.856,384.875 216.5,379.5 Z"/></g>
<g><path style="opacity:1" fill="#b73a2b" d="M 357.5,379.5 C 383.502,379.333 409.502,379.5 435.5,380C 440.609,383.366 441.776,387.866 439,393.5C 438.097,394.701 436.931,395.535 435.5,396C 409.5,396.667 383.5,396.667 357.5,396C 350.843,390.327 350.843,384.827 357.5,379.5 Z"/></g>
<g><path style="opacity:1" fill="#e9931e" d="M 81.5,432.5 C 197.5,432.5 313.5,432.5 429.5,432.5C 424.167,438.5 418.5,444.167 412.5,449.5C 307.833,449.5 203.167,449.5 98.5,449.5C 92.5,444.167 86.8333,438.5 81.5,432.5 Z"/></g>
<g><path style="opacity:0.996" fill="#e7ba19" d="M 98.5,449.5 C 203.167,449.5 307.833,449.5 412.5,449.5C 386.162,475.016 355.162,492.849 319.5,503C 305.561,506.818 291.561,509.652 277.5,511.5C 262.833,511.5 248.167,511.5 233.5,511.5C 184.872,505.908 141.872,487.408 104.5,456C 102.294,453.963 100.294,451.797 98.5,449.5 Z"/></g>
</svg>
