<?xml version="1.0" encoding="iso-8859-1"?>
<!-- Generator: Adobe Illustrator 19.0.0, SVG Export Plug-In . SVG Version: 6.00 Build 0)  -->
<svg version="1.1" id="Capa_1" xmlns="http://www.w3.org/2000/svg" xmlns:xlink="http://www.w3.org/1999/xlink" x="0px" y="0px"
	 viewBox="0 0 512.001 512.001" style="enable-background:new 0 0 512.001 512.001;" xml:space="preserve">
<path style="fill:#A4D968;" d="M409.356,195.964c-20.195-25.56-43.212-45.85-68.412-60.306
	C313.58,119.96,285.001,112.001,256,112.001s-57.58,7.959-84.944,23.656c-25.2,14.457-48.217,34.746-68.412,60.306
	C63.419,245.611,40,309.924,40,368.001c0,126.892,109.19,144,216,144s216-17.108,216-144
	C472,309.924,448.582,245.611,409.356,195.964z"/>
<path style="fill:#8DCF42;" d="M296,496.001c-106.81,0-216-17.108-216-144c0-58.077,23.418-122.39,62.645-172.038
	c20.195-25.56,43.212-45.85,68.412-60.306c1.392-0.799,2.79-1.564,4.188-2.322c-14.989,3.942-29.759,10.045-44.188,18.322
	c-25.2,14.457-48.217,34.746-68.412,60.306C63.419,245.611,40,309.924,40,368.001c0,126.892,109.19,144,216,144
	c56.401,0,113.46-4.778,154.761-27.965C376.039,493.615,335.856,496.001,296,496.001z"/>
<path style="fill:#FFFFFF;" d="M304,296.001c6.627,0,12-5.373,12-12v-12c0-26.467-21.533-48-48-48v-20c0-6.627-5.373-12-12-12
	s-12,5.373-12,12v20.341c-26.961,2.995-48,25.912-48,53.659c0,29.776,24.224,54,54,54h12c16.542,0,30,13.458,30,30s-13.458,30-30,30
	h-18c-13.234,0-24-10.766-24-24c0-6.627-5.373-12-12-12s-12,5.373-12,12c0,26.467,21.533,48,48,48v20c0,6.627,5.373,12,12,12
	s12-5.373,12-12V415.66c26.961-2.995,48-25.912,48-53.659c0-29.776-24.224-54-54-54h-12c-16.542,0-30-13.458-30-30s13.458-30,30-30
	h18c13.234,0,24,10.766,24,24v12C292,290.629,297.373,296.001,304,296.001z"/>
<path style="fill:#FD7959;" d="M426.323,111.427L268.022,88.173c-8.743-1.284-16.871,4.762-18.155,13.505
	s4.762,16.871,13.505,18.155l158.301,23.253c8.743,1.284,16.871-4.762,18.155-13.505
	C441.112,120.84,435.066,112.711,426.323,111.427z"/>
<path style="fill:#FD947A;" d="M426.323,87.834l-158.301,23.253c-8.743,1.284-16.871-4.762-18.155-13.505
	s4.762-16.871,13.505-18.155l158.301-23.253c8.743-1.284,16.871,4.762,18.155,13.505C441.112,78.421,435.066,86.549,426.323,87.834z
	"/>
<path style="fill:#A4D968;" d="M382.962,4.06c-1.42-2.508-4.079-4.059-6.962-4.059c-38.938,0-70.348,8.748-98.06,16.466
	c-47.145,13.13-84.383,23.502-137.234-14.936c-2.063-1.501-4.718-1.928-7.147-1.148c-2.429,0.778-4.341,2.668-5.148,5.088
	c-7.571,22.713,3.008,51.53,31.443,85.652c20.256,24.307,42.158,42.315,43.08,43.07c1.429,1.169,3.219,1.808,5.066,1.808h96
	c2.126,0,4.166-0.847,5.667-2.353c0.926-0.929,22.903-23.054,43.137-49.352C382.105,46.215,391.97,19.97,382.962,4.06z"/>
<path style="fill:#8DCF42;" d="M189.676,91.123c-25.81-30.972-36.906-57.572-33.074-79.204C151.45,8.94,146.163,5.5,140.706,1.532
	c-2.063-1.501-4.718-1.928-7.147-1.148c-2.429,0.778-4.341,2.668-5.148,5.088c-7.571,22.712,3.008,51.529,31.443,85.651
	c7.511,9.013,15.245,17.156,22.055,23.878h29.821C204.921,108.279,197.186,100.136,189.676,91.123z"/>
<path style="fill:#FD947A;" d="M336,96.001H176c-8.836,0-16,7.164-16,16s7.164,16,16,16h160c8.836,0,16-7.164,16-16
	S344.837,96.001,336,96.001z"/>
<g>
</g>
<g>
</g>
<g>
</g>
<g>
</g>
<g>
</g>
<g>
</g>
<g>
</g>
<g>
</g>
<g>
</g>
<g>
</g>
<g>
</g>
<g>
</g>
<g>
</g>
<g>
</g>
<g>
</g>
</svg>
