<?xml version="1.0" encoding="UTF-8"?>
<!DOCTYPE svg PUBLIC "-//W3C//DTD SVG 1.1//EN" "http://www.w3.org/Graphics/SVG/1.1/DTD/svg11.dtd">
<svg xmlns="http://www.w3.org/2000/svg" version="1.1" width="512px" height="512px" style="shape-rendering:geometricPrecision; text-rendering:geometricPrecision; image-rendering:optimizeQuality; fill-rule:evenodd; clip-rule:evenodd" xmlns:xlink="http://www.w3.org/1999/xlink">
<g><path style="opacity:1" fill="#eaeef0" d="M 481.5,110.5 C 485.065,115.594 485.398,120.928 482.5,126.5C 442.962,150.1 403.296,173.434 363.5,196.5C 355.142,199.05 346.809,199.05 338.5,196.5C 299.032,173.263 259.366,150.263 219.5,127.5C 215.577,121.803 215.577,116.137 219.5,110.5C 259.646,86.2553 300.312,62.7553 341.5,40C 352.278,37.7339 362.278,39.7339 371.5,46C 408.394,67.2743 445.061,88.7743 481.5,110.5 Z"/></g>
<g><path style="opacity:1" fill="#5c5f72" d="M 343.5,53.5 C 352.238,52.8815 360.572,54.3815 368.5,58C 373.669,61.8098 374.835,66.6431 372,72.5C 368.703,75.5667 364.869,77.7334 360.5,79C 354.167,79.6667 347.833,79.6667 341.5,79C 333.11,76.969 328.944,71.8023 329,63.5C 332.633,58.3576 337.466,55.0243 343.5,53.5 Z"/></g>
<g><path style="opacity:1" fill="#5c5f72" d="M 387.5,80.5 C 395.685,79.8975 403.685,80.7308 411.5,83C 421.767,89.2906 422.1,95.9573 412.5,103C 401.292,107.967 390.292,107.633 379.5,102C 372.021,96.6492 371.688,90.9825 378.5,85C 381.324,82.9212 384.324,81.4212 387.5,80.5 Z"/></g>
<g><path style="opacity:1" fill="#5c5f72" d="M 432.5,105.5 C 441.593,104.738 450.26,106.238 458.5,110C 463.669,113.81 464.835,118.643 462,124.5C 458.703,127.567 454.869,129.733 450.5,131C 444.167,131.667 437.833,131.667 431.5,131C 426.235,129.728 422.068,126.894 419,122.5C 417.348,117.154 418.848,112.987 423.5,110C 426.592,108.454 429.592,106.954 432.5,105.5 Z"/></g>
<g><path style="opacity:1" fill="#5c5f72" d="M 253.5,106.5 C 261.973,105.598 269.973,107.098 277.5,111C 284.979,116.351 285.312,122.017 278.5,128C 269.669,132.331 260.336,133.664 250.5,132C 242.11,129.969 237.944,124.802 238,116.5C 241.841,111.003 247.008,107.669 253.5,106.5 Z"/></g>
<g><path style="opacity:0.932" fill="#bdbdbd" d="M 219.5,110.5 C 215.577,116.137 215.577,121.803 219.5,127.5C 216.351,127.211 213.351,127.711 210.5,129C 208.266,131.063 206.266,133.229 204.5,135.5C 204.687,124.103 209.687,115.77 219.5,110.5 Z"/></g>
<g><path style="opacity:0.927" fill="#bdbdbd" d="M 481.5,110.5 C 491.313,115.77 496.313,124.103 496.5,135.5C 493.101,130.471 488.435,127.471 482.5,126.5C 485.398,120.928 485.065,115.594 481.5,110.5 Z"/></g>
<g><path style="opacity:1" fill="#dfe1e1" d="M 219.5,127.5 C 259.366,150.263 299.032,173.263 338.5,196.5C 341.498,199.667 344.331,203 347,206.5C 349.056,210.268 350.222,214.268 350.5,218.5C 350.5,261.833 350.5,305.167 350.5,348.5C 347.894,355.309 342.894,358.309 335.5,357.5C 325.833,352.669 316.5,347.336 307.5,341.5C 306.19,334.401 306.19,327.401 307.5,320.5C 310.434,329.601 316.101,336.434 324.5,341C 334.092,343.542 338.759,339.875 338.5,330C 337.328,317.851 331.662,308.517 321.5,302C 317.471,300.087 313.471,300.087 309.5,302C 308.695,303.113 308.028,304.279 307.5,305.5C 306.503,285.674 306.17,265.674 306.5,245.5C 305.92,236.506 302.253,229.006 295.5,223C 294.563,222.308 293.897,222.475 293.5,223.5C 291.704,222.207 290.037,220.707 288.5,219C 259.776,202.978 231.442,186.478 203.5,169.5C 204.495,158.346 204.828,147.012 204.5,135.5C 206.266,133.229 208.266,131.063 210.5,129C 213.351,127.711 216.351,127.211 219.5,127.5 Z"/></g>
<g><path style="opacity:1" fill="#d3d5d5" d="M 482.5,126.5 C 488.435,127.471 493.101,130.471 496.5,135.5C 496.667,180.168 496.5,224.835 496,269.5C 494.028,278.615 489.195,285.782 481.5,291C 442.942,313.443 404.275,335.61 365.5,357.5C 358.199,358.177 353.199,355.177 350.5,348.5C 350.5,305.167 350.5,261.833 350.5,218.5C 351.87,214.571 353.37,210.571 355,206.5C 357.669,203 360.502,199.667 363.5,196.5C 403.296,173.434 442.962,150.1 482.5,126.5 Z"/></g>
<g><path style="opacity:1" fill="#5d6073" d="M 299.5,132.5 C 308.905,131.851 317.571,134.018 325.5,139C 330.502,147.646 328.168,153.646 318.5,157C 308.172,160.861 298.172,160.195 288.5,155C 280.5,149 280.5,143 288.5,137C 292.157,135.178 295.824,133.678 299.5,132.5 Z"/></g>
<g><path style="opacity:1" fill="#5d6072" d="M 221.5,143.5 C 231.571,143.288 239.071,147.621 244,156.5C 248.94,163.62 250.273,171.286 248,179.5C 247.215,181.286 246.049,182.786 244.5,184C 235.072,185.203 227.905,181.703 223,173.5C 217.325,165.511 215.659,156.844 218,147.5C 219.376,146.295 220.542,144.962 221.5,143.5 Z"/></g>
<g><path style="opacity:1" fill="#5c5f72" d="M 471.5,143.5 C 479.804,142.471 484.138,146.138 484.5,154.5C 483.308,167.733 476.975,177.566 465.5,184C 456.318,186.155 451.984,182.488 452.5,173C 453.443,159.596 459.777,149.762 471.5,143.5 Z"/></g>
<g><path style="opacity:1" fill="#ebeff0" d="M 203.5,169.5 C 231.442,186.478 259.776,202.978 288.5,219C 290.037,220.707 291.704,222.207 293.5,223.5C 296.429,228.935 295.762,233.935 291.5,238.5C 252.328,260.918 213.328,283.584 174.5,306.5C 165.807,309.126 157.141,309.126 148.5,306.5C 109.501,283.331 70.1679,260.665 30.5,238.5C 25.3011,232.632 25.3011,226.799 30.5,221C 30.2716,220.601 29.9382,220.435 29.5,220.5C 69.2735,197.108 109.274,173.941 149.5,151C 156.833,149 164.167,149 171.5,151C 182.393,156.941 193.06,163.108 203.5,169.5 Z"/></g>
<g><path style="opacity:1" fill="#5c5f72" d="M 341.5,158.5 C 353.295,156.38 363.462,159.38 372,167.5C 373.858,173.581 372.025,178.081 366.5,181C 356.281,185.202 345.947,185.535 335.5,182C 326.148,176.83 325.148,170.496 332.5,163C 335.437,161.199 338.437,159.699 341.5,158.5 Z"/></g>
<g><path style="opacity:1" fill="#5d6073" d="M 155.5,163.5 C 163.6,162.887 171.267,164.387 178.5,168C 186.5,174 186.5,180 178.5,186C 167.137,191.894 155.803,191.894 144.5,186C 136.59,179.918 136.59,173.918 144.5,168C 148.157,166.178 151.824,164.678 155.5,163.5 Z"/></g>
<g><path style="opacity:1" fill="#bdbdbd" d="M 338.5,196.5 C 346.809,199.05 355.142,199.05 363.5,196.5C 360.502,199.667 357.669,203 355,206.5C 353.37,210.571 351.87,214.571 350.5,218.5C 350.222,214.268 349.056,210.268 347,206.5C 344.331,203 341.498,199.667 338.5,196.5 Z"/></g>
<g><path style="opacity:1" fill="#5c5f72" d="M 382.5,198.5 C 387.384,197.861 391.217,199.527 394,203.5C 396.028,220.279 389.528,232.446 374.5,240C 368.691,241.345 364.857,239.178 363,233.5C 362.221,217.72 368.721,206.053 382.5,198.5 Z"/></g>
<g><path style="opacity:1" fill="#5c5f72" d="M 151.5,216.5 C 161.013,215.354 170.013,216.854 178.5,221C 185.993,229.023 184.66,235.356 174.5,240C 163.806,243.972 153.473,243.305 143.5,238C 137.665,233.321 136.999,227.988 141.5,222C 144.767,219.87 148.1,218.037 151.5,216.5 Z"/></g>
<g><path style="opacity:1" fill="#5d6073" d="M 244.5,215.5 C 252.923,214.773 260.923,216.273 268.5,220C 276.869,227.18 276.202,233.513 266.5,239C 255.649,243.922 244.982,243.588 234.5,238C 226.244,231.206 226.577,224.873 235.5,219C 238.571,217.704 241.571,216.538 244.5,215.5 Z"/></g>
<g><path style="opacity:1" fill="#5d6073" d="M 63.5,216.5 C 71.9347,215.776 79.9347,217.276 87.5,221C 95.5,227 95.5,233 87.5,239C 76.1391,244.944 64.8058,244.944 53.5,239C 45.5644,232.819 45.5644,226.819 53.5,221C 56.8153,219.17 60.1486,217.67 63.5,216.5 Z"/></g>
<g><path style="opacity:0.919" fill="#bdbdbd" d="M 29.5,220.5 C 29.9382,220.435 30.2716,220.601 30.5,221C 25.3011,226.799 25.3011,232.632 30.5,238.5C 22.9061,236.963 17.5728,239.63 14.5,246.5C 14.8721,235.081 19.8721,226.414 29.5,220.5 Z"/></g>
<g><path style="opacity:1" fill="#bebebe" d="M 306.5,245.5 C 303.225,239.698 298.225,237.364 291.5,238.5C 295.762,233.935 296.429,228.935 293.5,223.5C 293.897,222.475 294.563,222.308 295.5,223C 302.253,229.006 305.92,236.506 306.5,245.5 Z"/></g>
<g><path style="opacity:1" fill="#dfe1e1" d="M 30.5,238.5 C 70.1679,260.665 109.501,283.331 148.5,306.5C 155.053,312.05 159.053,319.05 160.5,327.5C 160.5,371.167 160.5,414.833 160.5,458.5C 158.201,465.822 153.201,468.822 145.5,467.5C 104.895,444.862 64.5619,421.696 24.5,398C 19.6588,393.487 16.4921,387.987 15,381.5C 14.5,336.501 14.3333,291.501 14.5,246.5C 17.5728,239.63 22.9061,236.963 30.5,238.5 Z"/></g>
<g><path style="opacity:1" fill="#d3d5d5" d="M 291.5,238.5 C 298.225,237.364 303.225,239.698 306.5,245.5C 306.17,265.674 306.503,285.674 307.5,305.5C 306.217,310.469 306.217,315.469 307.5,320.5C 306.19,327.401 306.19,334.401 307.5,341.5C 306.669,354.66 306.169,367.994 306,381.5C 304.592,387.486 301.758,392.652 297.5,397C 257.44,421.028 217.106,444.528 176.5,467.5C 168.717,468.614 163.383,465.614 160.5,458.5C 160.5,414.833 160.5,371.167 160.5,327.5C 162.366,323.104 164.533,318.771 167,314.5C 169.028,311.308 171.528,308.641 174.5,306.5C 213.328,283.584 252.328,260.918 291.5,238.5 Z"/></g>
<g><path style="opacity:1" fill="#5d6072" d="M 476.5,242.5 C 485.046,241.545 489.38,245.379 489.5,254C 488.295,268.183 481.295,278.183 468.5,284C 462.004,284.986 458.171,282.152 457,275.5C 457.353,260.783 463.853,249.783 476.5,242.5 Z"/></g>
<g><path style="opacity:1" fill="#5d6073" d="M 32.5,253.5 C 42.192,253.598 49.3587,257.932 54,266.5C 58.5091,273.202 60.1758,280.535 59,288.5C 55.9637,294.931 51.1304,296.764 44.5,294C 31.5314,285.566 26.0314,273.733 28,258.5C 29.0591,256.341 30.5591,254.674 32.5,253.5 Z"/></g>
<g><path style="opacity:1" fill="#5c5f72" d="M 152.5,268.5 C 161.284,267.647 169.618,269.147 177.5,273C 184.979,278.351 185.312,284.017 178.5,290C 169.669,294.331 160.336,295.664 150.5,294C 142.11,291.969 137.944,286.802 138,278.5C 141.633,273.358 146.466,270.024 152.5,268.5 Z"/></g>
<g><path style="opacity:1" fill="#5c5f72" d="M 307.5,320.5 C 306.217,315.469 306.217,310.469 307.5,305.5C 308.028,304.279 308.695,303.113 309.5,302C 313.471,300.087 317.471,300.087 321.5,302C 331.662,308.517 337.328,317.851 338.5,330C 338.759,339.875 334.092,343.542 324.5,341C 316.101,336.434 310.434,329.601 307.5,320.5 Z"/></g>
<g><path style="opacity:1" fill="#5c5f72" d="M 381.5,300.5 C 385.839,299.846 389.673,300.846 393,303.5C 396.688,319.965 391.188,332.465 376.5,341C 370.268,343.006 365.768,341.172 363,335.5C 362.305,320.223 368.472,308.557 381.5,300.5 Z"/></g>
<g><path style="opacity:1" fill="#bdbdbd" d="M 148.5,306.5 C 157.141,309.126 165.807,309.126 174.5,306.5C 171.528,308.641 169.028,311.308 167,314.5C 164.533,318.771 162.366,323.104 160.5,327.5C 159.053,319.05 155.053,312.05 148.5,306.5 Z"/></g>
<g><path style="opacity:1" fill="#e64d3d" d="M 238.5,322.5 C 250.971,320.642 257.304,325.975 257.5,338.5C 256.611,356.787 248.611,370.954 233.5,381C 222.374,386.647 214.54,383.814 210,372.5C 209.421,349.982 218.921,333.315 238.5,322.5 Z"/></g>
<g><path style="opacity:1" fill="#5c5f72" d="M 76.5,332.5 C 81.0803,332.113 85.4136,332.947 89.5,335C 100.528,343.553 105.028,354.72 103,368.5C 100.103,373.155 95.9367,374.655 90.5,373C 77.3682,365.236 71.2015,353.736 72,338.5C 73.332,336.34 74.832,334.34 76.5,332.5 Z"/></g>
<g><path style="opacity:0.908" fill="#bdbdbd" d="M 350.5,348.5 C 353.199,355.177 358.199,358.177 365.5,357.5C 361.071,360.526 356.071,361.859 350.5,361.5C 344.969,361.761 339.969,360.428 335.5,357.5C 342.894,358.309 347.894,355.309 350.5,348.5 Z"/></g>
<g><path style="opacity:1" fill="#5c5f72" d="M 122.5,410.5 C 129.099,410.215 134.599,412.549 139,417.5C 144.785,423.903 147.952,431.403 148.5,440C 147.464,452.519 141.464,455.519 130.5,449C 119.357,439.897 115.19,428.397 118,414.5C 119.397,412.93 120.897,411.596 122.5,410.5 Z"/></g>
<g><path style="opacity:0.948" fill="#bdbdbd" d="M 160.5,458.5 C 163.383,465.614 168.717,468.614 176.5,467.5C 166.167,474.167 155.833,474.167 145.5,467.5C 153.201,468.822 158.201,465.822 160.5,458.5 Z"/></g>
</svg>
