<?xml version="1.0" encoding="UTF-8"?>
<!DOCTYPE svg PUBLIC "-//W3C//DTD SVG 1.1//EN" "http://www.w3.org/Graphics/SVG/1.1/DTD/svg11.dtd">
<svg xmlns="http://www.w3.org/2000/svg" version="1.1" width="220px" height="161px" style="shape-rendering:geometricPrecision; text-rendering:geometricPrecision; image-rendering:optimizeQuality; fill-rule:evenodd; clip-rule:evenodd" xmlns:xlink="http://www.w3.org/1999/xlink">
<g><path style="opacity:0.968" fill="#37444f" d="M 92.5,8.5 C 92.5569,9.60895 92.8902,10.609 93.5,11.5C 92.8333,13.1667 92.1667,14.8333 91.5,16.5C 91.5,18.5 91.5,20.5 91.5,22.5C 91.3889,27.6113 93.3889,31.6113 97.5,34.5C 100.507,38.3311 104.507,39.9978 109.5,39.5C 114.653,39.7496 118.986,38.0829 122.5,34.5C 126.362,31.4501 128.695,27.4501 129.5,22.5C 128.659,20.6208 128.325,18.6208 128.5,16.5C 127.833,14.8333 127.167,13.1667 126.5,11.5C 127.167,10.8333 127.833,10.1667 128.5,9.5C 132.514,9.66551 136.514,9.49885 140.5,9C 144.677,6.81639 148.843,4.64972 153,2.5C 163.434,6.53348 173.934,10.3668 184.5,14C 192.971,31.118 200.805,48.618 208,66.5C 212.586,79.7417 216.419,93.0751 219.5,106.5C 219.5,116.5 219.5,126.5 219.5,136.5C 216.975,146.196 211.141,153.196 202,157.5C 199.62,156.799 197.453,155.633 195.5,154C 183.5,143.667 171.5,133.333 159.5,123C 157.043,121.438 154.376,120.438 151.5,120C 122.118,119.032 92.785,119.366 63.5,121C 60.5674,122.271 57.9007,123.938 55.5,126C 44.8333,135.333 34.1667,144.667 23.5,154C 21.5471,155.633 19.3804,156.799 17,157.5C 7.85881,153.196 2.02547,146.196 -0.5,136.5C -0.5,126.5 -0.5,116.5 -0.5,106.5C 5.60241,78.5966 15.4357,51.93 29,26.5C 29.7133,21.7701 31.5466,17.6035 34.5,14C 45.0766,10.3635 55.5766,6.53014 66,2.5C 70.5919,4.54644 75.0919,6.7131 79.5,9C 83.9196,9.76842 88.2529,9.60175 92.5,8.5 Z"/></g>
<g><path style="opacity:0.579" fill="#f2be28" d="M 97.5,5.5 C 97.8769,7.25797 98.5435,8.92464 99.5,10.5C 98.624,11.2508 97.624,11.7508 96.5,12C 97.7649,13.3374 98.2649,14.8374 98,16.5C 96.483,14.7605 94.983,13.0938 93.5,11.5C 92.8902,10.609 92.5569,9.60895 92.5,8.5C 93.0431,8.44001 93.3764,8.10667 93.5,7.5C 90.6743,3.33159 92.0076,1.66492 97.5,2.5C 97.5,3.5 97.5,4.5 97.5,5.5 Z"/></g>
<g><path style="opacity:0.514" fill="#efbc29" d="M 128.5,9.5 C 127.833,10.1667 127.167,10.8333 126.5,11.5C 125.026,12.4363 124.026,13.7697 123.5,15.5C 123.167,15.5 122.833,15.5 122.5,15.5C 122.539,14.4168 122.873,13.4168 123.5,12.5C 122.675,11.6143 121.675,11.281 120.5,11.5C 121.167,9.5 121.833,7.5 122.5,5.5C 122.5,4.5 122.5,3.5 122.5,2.5C 127.992,1.66492 129.326,3.33159 126.5,7.5C 127.243,8.18185 127.909,8.84851 128.5,9.5 Z"/></g>
<g><path style="opacity:1" fill="#90f7ee" d="M 120.5,11.5 C 121.675,11.281 122.675,11.6143 123.5,12.5C 122.873,13.4168 122.539,14.4168 122.5,15.5C 121.542,15.9528 120.708,16.6195 120,17.5C 119.601,17.2716 119.435,16.9382 119.5,16.5C 120.301,14.9582 120.634,13.2915 120.5,11.5 Z"/></g>
<g><path style="opacity:1" fill="#c7cc93" d="M 122.5,15.5 C 122.833,15.5 123.167,15.5 123.5,15.5C 122.167,17.5 120.5,19.1667 118.5,20.5C 118.232,18.901 118.566,17.5676 119.5,16.5C 119.435,16.9382 119.601,17.2716 120,17.5C 120.708,16.6195 121.542,15.9528 122.5,15.5 Z"/></g>
<g><path style="opacity:1" fill="#eebf2e" d="M 91.5,16.5 C 94.9388,17.3939 96.4388,19.3939 96,22.5C 97.2547,23.2106 98.4214,24.044 99.5,25C 96.6756,24.8932 94.0089,24.0599 91.5,22.5C 91.5,20.5 91.5,18.5 91.5,16.5 Z"/></g>
<g><path style="opacity:1" fill="#78eae9" d="M 126.5,11.5 C 127.167,13.1667 127.833,14.8333 128.5,16.5C 125.061,17.3939 123.561,19.3939 124,22.5C 122.745,23.2106 121.579,24.044 120.5,25C 123.606,24.7942 126.606,23.9608 129.5,22.5C 128.695,27.4501 126.362,31.4501 122.5,34.5C 122.672,33.5084 122.338,32.8417 121.5,32.5C 123.085,30.8921 124.251,29.2254 125,27.5C 124.439,26.9781 123.772,26.6448 123,26.5C 121.357,27.3146 119.857,28.3146 118.5,29.5C 117.833,29.5 117.167,29.5 116.5,29.5C 116.873,26.4261 117.539,23.4261 118.5,20.5C 120.5,19.1667 122.167,17.5 123.5,15.5C 124.026,13.7697 125.026,12.4363 126.5,11.5 Z"/></g>
<g><path style="opacity:1" fill="#78e5eb" d="M 122.5,5.5 C 121.833,7.5 121.167,9.5 120.5,11.5C 119.872,9.33844 118.539,7.67178 116.5,6.5C 115.833,6.16667 115.167,5.83333 114.5,5.5C 111.5,2.83333 108.5,2.83333 105.5,5.5C 104.833,5.5 104.5,5.83333 104.5,6.5C 101.234,7.11384 99.9009,9.11384 100.5,12.5C 100.767,17.4165 101.767,22.0831 103.5,26.5C 103.715,28.1788 103.048,29.1788 101.5,29.5C 100.185,28.5244 98.8518,27.5244 97.5,26.5C 96.3279,26.9186 95.3279,27.5853 94.5,28.5C 96.188,29.5213 97.5213,30.8546 98.5,32.5C 97.6618,32.8417 97.3284,33.5084 97.5,34.5C 93.3889,31.6113 91.3889,27.6113 91.5,22.5C 94.0089,24.0599 96.6756,24.8932 99.5,25C 98.4214,24.044 97.2547,23.2106 96,22.5C 96.4388,19.3939 94.9388,17.3939 91.5,16.5C 92.1667,14.8333 92.8333,13.1667 93.5,11.5C 94.983,13.0938 96.483,14.7605 98,16.5C 98.2649,14.8374 97.7649,13.3374 96.5,12C 97.624,11.7508 98.624,11.2508 99.5,10.5C 98.5435,8.92464 97.8769,7.25797 97.5,5.5C 101.401,3.081 105.568,1.41434 110,0.5C 114.432,1.41434 118.599,3.081 122.5,5.5 Z"/></g>
<g><path style="opacity:1" fill="#dfb627" d="M 105.5,5.5 C 108.5,5.5 111.5,5.5 114.5,5.5C 115.167,5.83333 115.833,6.16667 116.5,6.5C 112.5,7.83333 108.5,7.83333 104.5,6.5C 104.5,5.83333 104.833,5.5 105.5,5.5 Z"/></g>
<g><path style="opacity:1" fill="#625868" d="M 114.5,5.5 C 111.5,5.5 108.5,5.5 105.5,5.5C 108.5,2.83333 111.5,2.83333 114.5,5.5 Z"/></g>
<g><path style="opacity:1" fill="#ebbf35" d="M 128.5,16.5 C 128.325,18.6208 128.659,20.6208 129.5,22.5C 126.606,23.9608 123.606,24.7942 120.5,25C 121.579,24.044 122.745,23.2106 124,22.5C 123.561,19.3939 125.061,17.3939 128.5,16.5 Z"/></g>
<g><path style="opacity:1" fill="#3e4669" d="M 104.5,6.5 C 108.5,7.83333 112.5,7.83333 116.5,6.5C 118.539,7.67178 119.872,9.33844 120.5,11.5C 120.634,13.2915 120.301,14.9582 119.5,16.5C 118.566,17.5676 118.232,18.901 118.5,20.5C 117.539,23.4261 116.873,26.4261 116.5,29.5C 115.207,37.6867 111.373,39.3534 105,34.5C 104.817,31.6353 104.317,28.9686 103.5,26.5C 101.767,22.0831 100.767,17.4165 100.5,12.5C 99.9009,9.11384 101.234,7.11384 104.5,6.5 Z"/></g>
<g><path style="opacity:1" fill="#e7cbb1" d="M 106.5,9.5 C 113.229,8.39767 116.896,11.231 117.5,18C 117.604,20.1454 116.937,21.9788 115.5,23.5C 111.833,20.8333 108.167,20.8333 104.5,23.5C 101.522,18.3428 102.189,13.6762 106.5,9.5 Z"/></g>
<g><path style="opacity:1" fill="#3a3666" d="M 104.5,15.5 C 105.978,15.238 107.311,15.5713 108.5,16.5C 107.833,16.8333 107.167,17.1667 106.5,17.5C 105.287,17.2528 104.62,16.5862 104.5,15.5 Z"/></g>
<g><path style="opacity:1" fill="#2d2960" d="M 112.5,15.5 C 113.675,15.281 114.675,15.6143 115.5,16.5C 113.948,17.7979 112.948,17.4646 112.5,15.5 Z"/></g>
<g><path style="opacity:1" fill="#f3bd26" d="M 101.5,29.5 C 100.833,30.8333 99.8333,31.8333 98.5,32.5C 97.5213,30.8546 96.188,29.5213 94.5,28.5C 95.3279,27.5853 96.3279,26.9186 97.5,26.5C 98.8518,27.5244 100.185,28.5244 101.5,29.5 Z"/></g>
<g><path style="opacity:1" fill="#f3bc24" d="M 121.5,32.5 C 120.167,31.8333 119.167,30.8333 118.5,29.5C 119.857,28.3146 121.357,27.3146 123,26.5C 123.772,26.6448 124.439,26.9781 125,27.5C 124.251,29.2254 123.085,30.8921 121.5,32.5 Z"/></g>
<g><path style="opacity:1" fill="#546a79" d="M 47.5,31.5 C 60.9655,30.9471 67.1322,37.2805 66,50.5C 62.3365,59.8505 55.5032,63.3505 45.5,61C 36.6428,55.4287 34.4761,47.9287 39,38.5C 41.4412,35.5464 44.2745,33.2131 47.5,31.5 Z"/></g>
<g><path style="opacity:1" fill="#ecc6ab" d="M 103.5,26.5 C 104.317,28.9686 104.817,31.6353 105,34.5C 111.373,39.3534 115.207,37.6867 116.5,29.5C 117.167,29.5 117.833,29.5 118.5,29.5C 119.167,30.8333 120.167,31.8333 121.5,32.5C 122.338,32.8417 122.672,33.5084 122.5,34.5C 118.986,38.0829 114.653,39.7496 109.5,39.5C 104.507,39.9978 100.507,38.3311 97.5,34.5C 97.3284,33.5084 97.6618,32.8417 98.5,32.5C 99.8333,31.8333 100.833,30.8333 101.5,29.5C 103.048,29.1788 103.715,28.1788 103.5,26.5 Z"/></g>
<g><path style="opacity:1" fill="#e5be23" d="M 161.5,24.5 C 167.766,23.1171 171.433,25.4504 172.5,31.5C 170.443,39.7791 165.943,41.4458 159,36.5C 156.511,31.7565 157.345,27.7565 161.5,24.5 Z"/></g>
<g><path style="opacity:1" fill="#c5d5dd" d="M 161.5,26.5 C 164.249,26.2739 166.916,26.6072 169.5,27.5C 171.653,32.8122 169.986,35.6455 164.5,36C 161.814,33.4537 160.814,30.287 161.5,26.5 Z"/></g>
<g><path style="opacity:1" fill="#dde1e5" d="M 50.5,39.5 C 53.564,40.6842 56.7306,41.6842 60,42.5C 58.4387,46.4607 57.6054,50.794 57.5,55.5C 53.5,55.5 49.5,55.5 45.5,55.5C 45.556,50.9579 45.056,46.6245 44,42.5C 46.5332,42.0504 48.6998,41.0504 50.5,39.5 Z"/></g>
<g><path style="opacity:1" fill="#7682bc" d="M 146.5,39.5 C 154.161,38.663 157.661,41.9964 157,49.5C 153.455,55.2087 149.121,55.8754 144,51.5C 141.511,46.7565 142.345,42.7565 146.5,39.5 Z"/></g>
<g><path style="opacity:1" fill="#bfaa7f" d="M 148.5,43.5 C 149.189,42.2264 150.023,42.2264 151,43.5C 151.667,45.8333 151.667,48.1667 151,50.5C 150.035,52.2603 148.868,52.5937 147.5,51.5C 149.505,50.6628 150.505,49.1628 150.5,47C 150.613,45.3009 149.947,44.1342 148.5,43.5 Z"/></g>
<g><path style="opacity:1" fill="#db5a49" d="M 176.5,39.5 C 184.161,38.663 187.661,41.9964 187,49.5C 182.383,56.1517 177.717,56.1517 173,49.5C 172.182,45.4695 173.349,42.1361 176.5,39.5 Z"/></g>
<g><path style="opacity:1" fill="#636783" d="M 178.5,43.5 C 180.5,43.8333 182.5,44.1667 184.5,44.5C 184.714,46.1439 184.38,47.6439 183.5,49C 181.167,49.6667 178.833,49.6667 176.5,49C 173.857,46.1104 174.523,44.2771 178.5,43.5 Z"/></g>
<g><path style="opacity:1" fill="#72af81" d="M 161.5,55.5 C 163.833,54.1667 166.167,54.1667 168.5,55.5C 167.127,55.3433 165.793,55.51 164.5,56C 166.671,57.1739 167.671,59.0072 167.5,61.5C 168.5,61.5 169.5,61.5 170.5,61.5C 170.5,62.5 170.5,63.5 170.5,64.5C 168.876,64.6399 167.71,63.9733 167,62.5C 164.88,65.0801 162.713,65.0801 160.5,62.5C 158.888,59.2471 159.888,57.0804 163.5,56C 162.906,55.5357 162.239,55.369 161.5,55.5 Z"/></g>
<g><path style="opacity:1" fill="#5c6571" d="M 73.5,51.5 C 75.1667,51.5 76.8333,51.5 78.5,51.5C 79.0352,54.2385 78.0352,56.0718 75.5,57C 76,57.1667 76.5,57.3333 77,57.5C 79.3008,56.1996 81.3008,54.533 83,52.5C 84.4782,53.9782 85.9782,55.4782 87.5,57C 88.5,57.6667 89.5,57.6667 90.5,57C 88.6969,56.3632 87.3636,55.1965 86.5,53.5C 87.8168,53.6869 89.1501,53.0202 90.5,51.5C 91.8079,54.7063 92.4746,58.0396 92.5,61.5C 85.8333,61.5 79.1667,61.5 72.5,61.5C 72.6159,58.1401 72.9492,54.8067 73.5,51.5 Z"/></g>
<g><path style="opacity:1" fill="#5b646f" d="M 90.5,68.5 C 85.5,68.5 80.5,68.5 75.5,68.5C 75.5,70.8333 75.5,73.1667 75.5,75.5C 71.1667,75.5 66.8333,75.5 62.5,75.5C 66.2984,74.5166 70.2984,74.1832 74.5,74.5C 74.5,72.5 74.5,70.5 74.5,68.5C 72.0733,68.477 69.74,67.977 67.5,67C 66.1485,64.875 66.8152,63.7083 69.5,63.5C 78.1667,66.1667 86.8333,66.1667 95.5,63.5C 97.7044,63.5269 98.5378,64.5269 98,66.5C 95.5092,67.2202 93.0092,67.8869 90.5,68.5 Z"/></g>
<g><path style="opacity:1" fill="#61ba71" d="M 161.5,55.5 C 162.239,55.369 162.906,55.5357 163.5,56C 159.888,57.0804 158.888,59.2471 160.5,62.5C 162.713,65.0801 164.88,65.0801 167,62.5C 167.71,63.9733 168.876,64.6399 170.5,64.5C 170.5,63.5 170.5,62.5 170.5,61.5C 169.5,61.5 168.5,61.5 167.5,61.5C 167.671,59.0072 166.671,57.1739 164.5,56C 165.793,55.51 167.127,55.3433 168.5,55.5C 173.722,59.7976 173.722,64.2976 168.5,69C 160.333,70.1667 156.833,66.6667 158,58.5C 159.039,57.2899 160.206,56.2899 161.5,55.5 Z"/></g>
<g><path style="opacity:1" fill="#9c9c9c" d="M 90.5,68.5 C 90.5,69.8333 90.5,71.1667 90.5,72.5C 88.076,72.1924 85.7427,72.5258 83.5,73.5C 87.8238,76.9414 92.8238,78.608 98.5,78.5C 99.404,77.791 99.7373,76.791 99.5,75.5C 101.467,75.2606 103.301,75.5939 105,76.5C 105.667,80.8333 105.667,85.1667 105,89.5C 100.263,90.4692 95.43,90.8025 90.5,90.5C 90.6658,95.1785 90.4992,99.8452 90,104.5C 87.0635,105.817 84.2301,105.817 81.5,104.5C 82.7358,100.909 82.0692,97.576 79.5,94.5C 80.6446,93.109 80.6446,91.7757 79.5,90.5C 78.5,91.8333 77.5,91.8333 76.5,90.5C 75.2888,89.7261 75.2888,88.8928 76.5,88C 74.9238,87.5604 73.5904,86.727 72.5,85.5C 70.8888,86.3202 70.2222,87.6536 70.5,89.5C 68.5165,89.3832 66.8498,90.0499 65.5,91.5C 64.8165,91.1373 64.1499,90.8039 63.5,90.5C 62.1779,90.67 61.0113,90.3366 60,89.5C 59.3333,85.1667 59.3333,80.8333 60,76.5C 60.6708,75.7476 61.5041,75.4142 62.5,75.5C 66.8333,75.5 71.1667,75.5 75.5,75.5C 75.5,73.1667 75.5,70.8333 75.5,68.5C 80.5,68.5 85.5,68.5 90.5,68.5 Z"/></g>
<g><path style="opacity:1" fill="#566b77" d="M 133.5,69.5 C 151.574,69.6605 157.074,77.9938 150,94.5C 138.981,102.624 130.314,100.624 124,88.5C 122.555,79.7979 125.722,73.4646 133.5,69.5 Z"/></g>
<g><path style="opacity:1" fill="#9d671e" d="M 90.5,72.5 C 92.8591,73.176 95.1924,74.0093 97.5,75C 98.3366,76.0113 98.67,77.1779 98.5,78.5C 92.8238,78.608 87.8238,76.9414 83.5,73.5C 85.7427,72.5258 88.076,72.1924 90.5,72.5 Z"/></g>
<g><path style="opacity:1" fill="#5ec2a4" d="M 133.5,79.5 C 136.898,79.1796 140.232,79.513 143.5,80.5C 140.792,82.4357 137.792,82.9357 134.5,82C 133.748,81.3292 133.414,80.4959 133.5,79.5 Z"/></g>
<g><path style="opacity:1" fill="#2d3837" d="M 133.5,84.5 C 134.833,87.1667 136.167,87.1667 137.5,84.5C 140.306,87.2995 142.806,86.9662 145,83.5C 148.376,85.759 148.21,87.759 144.5,89.5C 144.709,90.086 145.043,90.586 145.5,91C 143.833,91.8333 142.167,92.6667 140.5,93.5C 137.754,91.3771 134.921,89.3771 132,87.5C 131.333,86.1667 131.333,84.8333 132,83.5C 132.383,84.056 132.883,84.3893 133.5,84.5 Z"/></g>
<g><path style="opacity:1" fill="#d4d6d6" d="M 137.5,84.5 C 136.167,87.1667 134.833,87.1667 133.5,84.5C 134.833,83.1667 136.167,83.1667 137.5,84.5 Z"/></g>
<g><path style="opacity:1" fill="#e9434f" d="M 81.5,104.5 C 75.8456,109.073 69.8456,109.573 63.5,106C 62.2815,104.562 61.6148,102.895 61.5,101C 62.9729,97.6642 63.6395,94.1642 63.5,90.5C 64.1499,90.8039 64.8165,91.1373 65.5,91.5C 66.8498,90.0499 68.5165,89.3832 70.5,89.5C 70.2222,87.6536 70.8888,86.3202 72.5,85.5C 73.5904,86.727 74.9238,87.5604 76.5,88C 75.2888,88.8928 75.2888,89.7261 76.5,90.5C 77.5,91.8333 78.5,91.8333 79.5,90.5C 80.6446,91.7757 80.6446,93.109 79.5,94.5C 82.0692,97.576 82.7358,100.909 81.5,104.5 Z"/></g>
<g><path style="opacity:1" fill="#543838" d="M 65.5,97.5 C 66.3864,96.2241 67.3864,96.2241 68.5,97.5C 67.5754,98.5624 66.5754,98.5624 65.5,97.5 Z"/></g>
<g><path style="opacity:1" fill="#f0e287" d="M 188.5,100.5 C 190.6,100.477 192.433,101.144 194,102.5C 195.559,101.971 197.059,101.304 198.5,100.5C 200.111,101.32 200.778,102.654 200.5,104.5C 202.527,104.338 204.527,104.505 206.5,105C 207.113,107.147 207.779,109.314 208.5,111.5C 212.062,113.058 212.395,115.225 209.5,118C 210.029,119.559 210.696,121.059 211.5,122.5C 208.425,124.18 206.925,126.846 207,130.5C 203.278,130.783 200.445,132.45 198.5,135.5C 195.604,132.909 192.771,132.909 190,135.5C 188.699,134.902 187.865,133.902 187.5,132.5C 185.314,131.779 183.147,131.113 181,130.5C 180.505,128.527 180.338,126.527 180.5,124.5C 178.654,124.778 177.32,124.111 176.5,122.5C 179.167,119.5 179.167,116.5 176.5,113.5C 177.32,111.889 178.654,111.222 180.5,111.5C 179.167,105.5 181.5,103.167 187.5,104.5C 187.433,103.041 187.766,101.708 188.5,100.5 Z"/></g>
<g><path style="opacity:1" fill="#dce2e3" d="M 68.5,101.5 C 70.5,101.5 72.5,101.5 74.5,101.5C 74.2993,105.35 72.4659,106.35 69,104.5C 68.5172,103.552 68.3505,102.552 68.5,101.5 Z"/></g>
<g><path style="opacity:1" fill="#8e95aa" d="M 22.5,98.5 C 23.552,98.3505 24.552,98.5172 25.5,99C 18.5484,105.447 17.715,112.613 23,120.5C 30.0736,126.014 36.9069,125.681 43.5,119.5C 43.2305,125.474 40.2305,129.974 34.5,133C 16.8246,136.655 8.32459,129.489 9,111.5C 11.4763,104.853 15.9763,100.52 22.5,98.5 Z"/></g>
<g><path style="opacity:1" fill="#fbcc6f" d="M 192.5,106.5 C 202.525,106.731 206.691,112.064 205,122.5C 202.238,127.954 198.071,130.288 192.5,129.5C 192.938,129.565 193.272,129.399 193.5,129C 185.275,124.807 183.442,118.641 188,110.5C 189.579,108.959 191.413,107.792 193.5,107C 193.272,106.601 192.938,106.435 192.5,106.5 Z"/></g>
<g><path style="opacity:1" fill="#f28d43" d="M 192.5,106.5 C 192.938,106.435 193.272,106.601 193.5,107C 191.413,107.792 189.579,108.959 188,110.5C 183.442,118.641 185.275,124.807 193.5,129C 193.272,129.399 192.938,129.565 192.5,129.5C 185.958,128.283 182.624,124.283 182.5,117.5C 183.047,111.287 186.38,107.62 192.5,106.5 Z"/></g>
</svg>
