<?xml version="1.0" encoding="UTF-8"?>
<!DOCTYPE svg PUBLIC "-//W3C//DTD SVG 1.1//EN" "http://www.w3.org/Graphics/SVG/1.1/DTD/svg11.dtd">
<svg xmlns="http://www.w3.org/2000/svg" version="1.1" width="512px" height="512px" style="shape-rendering:geometricPrecision; text-rendering:geometricPrecision; image-rendering:optimizeQuality; fill-rule:evenodd; clip-rule:evenodd" xmlns:xlink="http://www.w3.org/1999/xlink">
<g><path style="opacity:0.997" fill="#dedee0" d="M -0.5,-0.5 C 12.8333,-0.5 26.1667,-0.5 39.5,-0.5C 39.5,9.5 39.5,19.5 39.5,29.5C 39.5,129.5 39.5,229.5 39.5,329.5C 39.5,390.167 39.5,450.833 39.5,511.5C 26.1667,511.5 12.8333,511.5 -0.5,511.5C -0.5,340.833 -0.5,170.167 -0.5,-0.5 Z"/></g>
<g><path style="opacity:0.998" fill="#76cc5b" d="M 39.5,29.5 C 111.167,29.5 182.833,29.5 254.5,29.5C 254.5,84.8333 254.5,140.167 254.5,195.5C 242.535,184.035 230.702,172.369 219,160.5C 211.789,167.376 204.956,174.543 198.5,182C 216.969,200.635 235.635,219.135 254.5,237.5C 254.5,237.833 254.5,238.167 254.5,238.5C 254.5,268.833 254.5,299.167 254.5,329.5C 182.833,329.5 111.167,329.5 39.5,329.5C 39.5,229.5 39.5,129.5 39.5,29.5 Z"/></g>
<g><path style="opacity:0.812" fill="#63aa4c" d="M 254.5,29.5 C 340.167,29.5 425.833,29.5 511.5,29.5C 511.5,29.8333 511.5,30.1667 511.5,30.5C 426.167,30.5 340.833,30.5 255.5,30.5C 255.5,85.8333 255.5,141.167 255.5,196.5C 255.167,196.5 254.833,196.5 254.5,196.5C 254.5,196.167 254.5,195.833 254.5,195.5C 254.5,140.167 254.5,84.8333 254.5,29.5 Z"/></g>
<g><path style="opacity:1" fill="#599944" d="M 511.5,30.5 C 511.5,130.167 511.5,229.833 511.5,329.5C 425.833,329.5 340.167,329.5 254.5,329.5C 254.5,299.167 254.5,268.833 254.5,238.5C 255.423,239.303 256.423,239.47 257.5,239C 289.512,206.321 321.512,173.654 353.5,141C 347.292,132.778 339.959,126.111 331.5,121C 307.195,146.305 282.528,171.305 257.5,196C 256.906,196.464 256.239,196.631 255.5,196.5C 255.5,141.167 255.5,85.8333 255.5,30.5C 340.833,30.5 426.167,30.5 511.5,30.5 Z"/></g>
<g><path style="opacity:1" fill="#f0f1f2" d="M 254.5,238.5 C 254.5,238.167 254.5,237.833 254.5,237.5C 254.5,223.833 254.5,210.167 254.5,196.5C 254.833,196.5 255.167,196.5 255.5,196.5C 256.239,196.631 256.906,196.464 257.5,196C 282.528,171.305 307.195,146.305 331.5,121C 339.959,126.111 347.292,132.778 353.5,141C 321.512,173.654 289.512,206.321 257.5,239C 256.423,239.47 255.423,239.303 254.5,238.5 Z"/></g>
<g><path style="opacity:1" fill="#fefefd" d="M 254.5,195.5 C 254.5,195.833 254.5,196.167 254.5,196.5C 254.5,210.167 254.5,223.833 254.5,237.5C 235.635,219.135 216.969,200.635 198.5,182C 204.956,174.543 211.789,167.376 219,160.5C 230.702,172.369 242.535,184.035 254.5,195.5 Z"/></g>
</svg>
