<?xml version="1.0" encoding="UTF-8"?>
<!DOCTYPE svg PUBLIC "-//W3C//DTD SVG 1.1//EN" "http://www.w3.org/Graphics/SVG/1.1/DTD/svg11.dtd">
<svg xmlns="http://www.w3.org/2000/svg" version="1.1" width="512px" height="512px" style="shape-rendering:geometricPrecision; text-rendering:geometricPrecision; image-rendering:optimizeQuality; fill-rule:evenodd; clip-rule:evenodd" xmlns:xlink="http://www.w3.org/1999/xlink">
<g><path style="opacity:0.989" fill="#fed1be" d="M 131.5,78.5 C 131.5,132.5 131.5,186.5 131.5,240.5C 118.237,239.851 105.571,236.684 93.5,231C 87.661,227.311 81.9943,223.478 76.5,219.5C 51.4119,193.804 44.5786,163.804 56,129.5C 70.2091,96.4831 95.3757,79.4831 131.5,78.5 Z"/></g>
<g><path style="opacity:0.992" fill="#fed1be" d="M 379.5,78.5 C 379.5,132.167 379.5,185.833 379.5,239.5C 382.5,239.5 385.5,239.5 388.5,239.5C 385.713,240.477 382.713,240.81 379.5,240.5C 364.528,239.923 350.528,235.923 337.5,228.5C 336.828,229.949 336.161,231.282 335.5,232.5C 338.198,199.235 325.865,173.235 298.5,154.5C 300.59,125.146 314.256,102.98 339.5,88C 352.01,81.3724 365.344,78.2057 379.5,78.5 Z"/></g>
<g><path style="opacity:1" fill="#feb89c" d="M 131.5,78.5 C 172.665,80.3354 199.165,101.002 211,140.5C 212.122,145.102 212.622,149.768 212.5,154.5C 186.653,172.191 173.986,196.857 174.5,228.5C 161.279,236.389 146.946,240.389 131.5,240.5C 131.5,186.5 131.5,132.5 131.5,78.5 Z"/></g>
<g><path style="opacity:1" fill="#feb89c" d="M 379.5,78.5 C 415.624,79.4831 440.791,96.4831 455,129.5C 466.421,163.804 459.588,193.804 434.5,219.5C 424.914,227.13 414.248,232.963 402.5,237C 397.916,238.363 393.249,239.197 388.5,239.5C 385.5,239.5 382.5,239.5 379.5,239.5C 379.5,185.833 379.5,132.167 379.5,78.5 Z"/></g>
<g><path style="opacity:0.997" fill="#fed1be" d="M 255.5,142.5 C 255.5,196.5 255.5,250.5 255.5,304.5C 245.128,304.716 235.128,302.882 225.5,299C 216.744,294.71 208.411,289.877 200.5,284.5C 197.237,280.06 193.737,275.727 190,271.5C 181.171,258.515 176.004,244.182 174.5,228.5C 173.986,196.857 186.653,172.191 212.5,154.5C 225.601,146.306 239.935,142.306 255.5,142.5 Z"/></g>
<g><path style="opacity:1" fill="#feb89c" d="M 255.5,142.5 C 271.065,142.306 285.399,146.306 298.5,154.5C 325.865,173.235 338.198,199.235 335.5,232.5C 334.125,246.792 329.292,259.792 321,271.5C 317.263,275.727 313.763,280.06 310.5,284.5C 297.55,294.552 282.883,301.052 266.5,304C 262.848,304.499 259.182,304.665 255.5,304.5C 255.5,250.5 255.5,196.5 255.5,142.5 Z"/></g>
<g><path style="opacity:0.989" fill="#27488f" d="M 76.5,219.5 C 81.9943,223.478 87.661,227.311 93.5,231C 105.571,236.684 118.237,239.851 131.5,240.5C 131.5,274.833 131.5,309.167 131.5,343.5C 127.276,351.843 124.276,360.51 122.5,369.5C 99.8309,369.667 77.1642,369.5 54.5,369C 24.5926,365.255 6.25931,348.755 -0.5,319.5C -0.5,312.833 -0.5,306.167 -0.5,299.5C 3.82639,284.187 11.3264,270.521 22,258.5C 37.1475,241.186 55.3142,228.186 76.5,219.5 Z"/></g>
<g><path style="opacity:1" fill="#49b8f6" d="M 434.5,219.5 C 464.269,231.764 487.436,251.764 504,279.5C 507.225,286.021 509.725,292.688 511.5,299.5C 511.5,306.167 511.5,312.833 511.5,319.5C 504.767,348.727 486.434,365.227 456.5,369C 433.836,369.5 411.169,369.667 388.5,369.5C 387.166,359.839 383.833,350.839 378.5,342.5C 379.498,308.671 379.832,274.671 379.5,240.5C 382.713,240.81 385.713,240.477 388.5,239.5C 393.249,239.197 397.916,238.363 402.5,237C 414.248,232.963 424.914,227.13 434.5,219.5 Z"/></g>
<g><path style="opacity:1" fill="#14254c" d="M 174.5,228.5 C 176.004,244.182 181.171,258.515 190,271.5C 193.737,275.727 197.237,280.06 200.5,284.5C 171.062,296.603 148.062,316.269 131.5,343.5C 131.5,309.167 131.5,274.833 131.5,240.5C 146.946,240.389 161.279,236.389 174.5,228.5 Z"/></g>
<g><path style="opacity:1" fill="#20cefa" d="M 379.5,240.5 C 379.832,274.671 379.498,308.671 378.5,342.5C 362.241,315.569 339.575,296.235 310.5,284.5C 313.763,280.06 317.263,275.727 321,271.5C 329.292,259.792 334.125,246.792 335.5,232.5C 336.161,231.282 336.828,229.949 337.5,228.5C 350.528,235.923 364.528,239.923 379.5,240.5 Z"/></g>
<g><path style="opacity:0.994" fill="#fd6916" d="M 200.5,284.5 C 208.411,289.877 216.744,294.71 225.5,299C 235.128,302.882 245.128,304.716 255.5,304.5C 255.5,347.5 255.5,390.5 255.5,433.5C 228.498,433.667 201.498,433.5 174.5,433C 140.509,425.506 123.176,404.34 122.5,369.5C 124.276,360.51 127.276,351.843 131.5,343.5C 148.062,316.269 171.062,296.603 200.5,284.5 Z"/></g>
<g><path style="opacity:1" fill="#fe432e" d="M 310.5,284.5 C 339.575,296.235 362.241,315.569 378.5,342.5C 383.833,350.839 387.166,359.839 388.5,369.5C 387.824,404.34 370.491,425.506 336.5,433C 309.502,433.5 282.502,433.667 255.5,433.5C 255.5,390.5 255.5,347.5 255.5,304.5C 259.182,304.665 262.848,304.499 266.5,304C 282.883,301.052 297.55,294.552 310.5,284.5 Z"/></g>
</svg>
