<?xml version="1.0"?>
<svg xmlns="http://www.w3.org/2000/svg" height="512px" viewBox="0 0 512 512.001" width="512px" class=""><g><path d="m192.304688 227.714844 35.355468-35.355469 91.921875 91.925781-35.355469 35.351563zm0 0" data-original="#000000" class="active-path" data-old_color="#000000" fill="#FFFFFF"/><path d="m196.261719 33.683594c-21.71875-21.71875-50.597657-33.683594-81.316407-33.683594-30.714843 0-59.59375 11.964844-81.316406 33.683594-44.835937 44.839844-44.835937 117.796875 0 162.632812l282 282c22.417969 22.421875 51.867188 33.628906 81.316406 33.628906 29.449219 0 58.898438-11.210937 81.316407-33.628906 44.839843-44.839844 44.839843-117.792968 0-162.632812zm-106.316407 108.816406c-8.28125 0-15-6.714844-15-15s6.71875-15 15-15c8.285157 0 15 6.714844 15 15s-6.714843 15-15 15zm37.5 37.5c-8.28125 0-15-6.714844-15-15s6.71875-15 15-15c8.285157 0 15 6.714844 15 15s-6.714843 15-15 15zm0-75c-8.28125 0-15-6.714844-15-15s6.71875-15 15-15c8.285157 0 15 6.714844 15 15s-6.714843 15-15 15zm22.5 22.5c0-8.285156 6.71875-15 15-15 8.285157 0 15 6.714844 15 15s-6.714843 15-15 15c-8.28125 0-15-6.714844-15-15zm144.890626 223.957031c-2.929688 2.929688-6.769532 4.394531-10.605469 4.394531-3.839844 0-7.679688-1.464843-10.605469-4.394531l-113.136719-113.136719c-2.816406-2.8125-4.394531-6.625-4.394531-10.605468 0-3.976563 1.578125-7.792969 4.394531-10.605469l56.566407-56.566406c5.859374-5.859375 15.355468-5.859375 21.214843 0l113.136719 113.136719c5.855469 5.855468 5.855469 15.351562 0 21.210937zm52.109374 48.042969c-8.285156 0-15-6.714844-15-15s6.714844-15 15-15c8.285157 0 15 6.714844 15 15s-6.714843 15-15 15zm37.5 37.5c-8.285156 0-15-6.714844-15-15s6.714844-15 15-15c8.285157 0 15 6.714844 15 15s-6.714843 15-15 15zm0-75c-8.285156 0-15-6.714844-15-15s6.714844-15 15-15c8.285157 0 15 6.714844 15 15s-6.714843 15-15 15zm37.5 37.5c-8.285156 0-15-6.714844-15-15s6.714844-15 15-15c8.285157 0 15 6.714844 15 15s-6.714843 15-15 15zm0 0" data-original="#000000" class="active-path" data-old_color="#000000" fill="#FFFFFF"/><path d="m33.628906 315.683594c-44.835937 44.839844-44.835937 117.796875 0 162.632812 21.71875 21.722656 50.597656 33.683594 81.316406 33.683594s59.597657-11.960938 81.316407-33.683594l38.46875-38.46875-162.632813-162.632812zm93.816406 91.316406c8.285157 0 15 6.714844 15 15s-6.714843 15-15 15c-8.28125 0-15-6.714844-15-15s6.71875-15 15-15zm-37.5-37.5c8.285157 0 15 6.714844 15 15s-6.714843 15-15 15c-8.28125 0-15-6.714844-15-15s6.71875-15 15-15zm0 0" data-original="#000000" class="active-path" data-old_color="#000000" fill="#FFFFFF"/><path d="m478.261719 196.316406c44.839843-44.839844 44.839843-117.792968 0-162.632812-44.835938-44.839844-117.796875-44.839844-162.632813 0l-38.472656 38.46875 162.636719 162.632812zm-93.816407-91.316406c-8.285156 0-15-6.714844-15-15s6.714844-15 15-15c8.285157 0 15 6.714844 15 15s-6.714843 15-15 15zm37.5 37.5c-8.285156 0-15-6.714844-15-15s6.714844-15 15-15c8.285157 0 15 6.714844 15 15s-6.714843 15-15 15zm0 0" data-original="#000000" class="active-path" data-old_color="#000000" fill="#FFFFFF"/></g> </svg>
