<svg id="Capa_1" enable-background="new 0 0 512.005 512.005" height="512" viewBox="0 0 512.005 512.005" width="512" xmlns="http://www.w3.org/2000/svg"><g><path d="m457.317 327.227c-43.57 62.96-110.79 119.28-194.41 162.87l-6.9 3.59-.04.02-6.93-3.61c-83.61-43.59-150.83-99.91-194.38-162.88-37.57-54.31-56.9-112.63-54.45-164.2 1.81-38.69 17.31-74.91 43.63-101.96 26.53-27.26 61.3-42.45 97.9-42.75l.13-.01c31.07 0 59.41 11.23 84.22 33.38 10.81 9.65 20.82 21.27 29.92 34.72 9.1-13.45 19.11-25.07 29.91-34.72 24.82-22.15 53.15-33.38 84.22-33.38l.13.01c36.6.3 71.37 15.49 97.9 42.75 26.33 27.05 41.82 63.27 43.63 101.98 2.45 51.56-16.89 109.87-54.48 164.19z" fill="#5cc1a3"/><path d="m457.317 327.227c-43.57 62.96-110.79 119.28-194.41 162.87l-6.9 3.59v-407.29c9.1-13.45 19.11-25.07 29.91-34.72 24.82-22.15 53.15-33.38 84.22-33.38l.13.01c36.6.3 71.37 15.49 97.9 42.75 26.33 27.05 41.82 63.27 43.63 101.98 2.45 51.56-16.89 109.87-54.48 164.19z" fill="#68d897"/></g></svg>