<?xml version="1.0" encoding="UTF-8"?>
<!DOCTYPE svg PUBLIC "-//W3C//DTD SVG 1.1//EN" "http://www.w3.org/Graphics/SVG/1.1/DTD/svg11.dtd">
<svg xmlns="http://www.w3.org/2000/svg" version="1.1" width="512px" height="512px" style="shape-rendering:geometricPrecision; text-rendering:geometricPrecision; image-rendering:optimizeQuality; fill-rule:evenodd; clip-rule:evenodd" xmlns:xlink="http://www.w3.org/1999/xlink">
<g><path style="opacity:1" fill="#fef164" d="M 468.5,106.5 C 462.584,123.236 456.251,139.903 449.5,156.5C 443.707,168.75 437.374,180.75 430.5,192.5C 419.998,201.499 409.332,210.332 398.5,219C 401.649,220.496 404.816,221.996 408,223.5C 410.408,227.142 411.075,231.142 410,235.5C 403.669,244.658 397.169,253.658 390.5,262.5C 386.479,267.196 382.812,272.196 379.5,277.5C 376.61,280.553 373.276,283.053 369.5,285C 353.765,291.077 338.098,297.243 322.5,303.5C 323.997,298.341 325.664,293.341 327.5,288.5C 335.725,284.287 343.725,279.621 351.5,274.5C 365.517,259.65 379.351,244.65 393,229.5C 393.667,227.5 393.667,225.5 393,223.5C 390.154,221.743 387.488,219.743 385,217.5C 384.365,215.365 384.699,213.365 386,211.5C 394.484,204.26 403.15,197.26 412,190.5C 429.977,157.905 443.644,123.572 453,87.5C 457.568,68.957 458.401,50.2903 455.5,31.5C 460.91,28.9543 466.577,28.1209 472.5,29C 473.701,29.9025 474.535,31.0692 475,32.5C 477.813,49.1638 477.48,65.8305 474,82.5C 472.163,90.5141 470.33,98.5141 468.5,106.5 Z"/></g>
<g><path style="opacity:0.998" fill="#fef591" d="M 455.5,31.5 C 458.401,50.2903 457.568,68.957 453,87.5C 443.644,123.572 429.977,157.905 412,190.5C 403.15,197.26 394.484,204.26 386,211.5C 384.699,213.365 384.365,215.365 385,217.5C 387.488,219.743 390.154,221.743 393,223.5C 393.667,225.5 393.667,227.5 393,229.5C 379.351,244.65 365.517,259.65 351.5,274.5C 343.725,279.621 335.725,284.287 327.5,288.5C 352.326,212.839 388.16,143.173 435,79.5C 436.833,70.6667 433.333,67.1667 424.5,69C 399.628,100.549 378.128,134.383 360,170.5C 339.779,210.69 322.612,252.023 308.5,294.5C 307.817,287.805 306.151,281.472 303.5,275.5C 302.565,271.031 301.232,266.697 299.5,262.5C 296.17,250.513 292.836,238.513 289.5,226.5C 293.223,216.055 297.223,205.721 301.5,195.5C 304.204,190.409 306.537,185.076 308.5,179.5C 310.597,175.47 312.597,171.303 314.5,167C 316.034,166.077 317.701,165.577 319.5,165.5C 322.366,166.759 325.366,167.759 328.5,168.5C 330.374,168.61 331.874,167.944 333,166.5C 335.255,155.223 337.255,143.89 339,132.5C 347.855,118.478 358.021,105.478 369.5,93.5C 392.832,65.5108 421.499,44.8441 455.5,31.5 Z"/></g>
<g><path style="opacity:1" fill="#fee047" d="M 327.5,288.5 C 325.664,293.341 323.997,298.341 322.5,303.5C 322.5,303.833 322.5,304.167 322.5,304.5C 320.261,309.216 318.595,314.216 317.5,319.5C 314.832,328.517 312.165,337.517 309.5,346.5C 308.671,349.815 307.838,353.148 307,356.5C 306.34,358.324 305.173,359.657 303.5,360.5C 301.283,361.369 298.95,361.702 296.5,361.5C 295.269,360.282 294.102,358.949 293,357.5C 292.421,353.797 292.588,350.131 293.5,346.5C 296.212,337.613 298.545,328.613 300.5,319.5C 302.341,314.643 304.008,309.643 305.5,304.5C 306.5,301.167 307.5,297.833 308.5,294.5C 322.612,252.023 339.779,210.69 360,170.5C 378.128,134.383 399.628,100.549 424.5,69C 433.333,67.1667 436.833,70.6667 435,79.5C 388.16,143.173 352.326,212.839 327.5,288.5 Z"/></g>
<g><path style="opacity:0.999" fill="#f6e4c0" d="M 61.5,93.5 C 116.501,93.3333 171.501,93.5 226.5,94C 232.27,95.3667 237.604,97.7 242.5,101C 246.682,105.349 251.015,109.515 255.5,113.5C 259.985,109.515 264.318,105.349 268.5,101C 273.396,97.7 278.73,95.3667 284.5,94C 312.831,93.5 341.165,93.3334 369.5,93.5C 358.021,105.478 347.855,118.478 339,132.5C 337.255,143.89 335.255,155.223 333,166.5C 331.874,167.944 330.374,168.61 328.5,168.5C 325.366,167.759 322.366,166.759 319.5,165.5C 317.701,165.577 316.034,166.077 314.5,167C 312.597,171.303 310.597,175.47 308.5,179.5C 301.159,179.334 293.826,179.5 286.5,180C 280.271,184.171 279.938,188.837 285.5,194C 290.708,195.397 296.041,195.897 301.5,195.5C 297.223,205.721 293.223,216.055 289.5,226.5C 292.836,238.513 296.17,250.513 299.5,262.5C 295.154,262.334 290.821,262.501 286.5,263C 279.846,268.049 279.846,273.049 286.5,278C 292.157,278.499 297.824,278.666 303.5,278.5C 303.5,277.5 303.5,276.5 303.5,275.5C 306.151,281.472 307.817,287.805 308.5,294.5C 307.5,297.833 306.5,301.167 305.5,304.5C 299.158,304.334 292.825,304.5 286.5,305C 280.271,309.171 279.938,313.837 285.5,319C 290.489,319.499 295.489,319.666 300.5,319.5C 298.545,328.613 296.212,337.613 293.5,346.5C 285.339,345.171 281.505,348.505 282,356.5C 282.833,358.667 284.333,360.167 286.5,361C 289.817,361.498 293.15,361.665 296.5,361.5C 298.95,361.702 301.283,361.369 303.5,360.5C 340.998,361.664 378.664,361.831 416.5,361C 421.143,358.928 422.643,355.428 421,350.5C 420.5,348.667 419.333,347.5 417.5,347C 381.502,346.5 345.502,346.333 309.5,346.5C 312.165,337.517 314.832,328.517 317.5,319.5C 350.835,319.667 384.168,319.5 417.5,319C 421.212,316.487 422.378,312.987 421,308.5C 419.786,306.951 418.286,305.785 416.5,305C 385.168,304.5 353.835,304.333 322.5,304.5C 322.5,304.167 322.5,303.833 322.5,303.5C 338.098,297.243 353.765,291.077 369.5,285C 373.276,283.053 376.61,280.553 379.5,277.5C 391.788,278.627 404.121,278.793 416.5,278C 421.224,275.565 422.724,271.731 421,266.5C 419.786,264.951 418.286,263.785 416.5,263C 407.84,262.5 399.173,262.334 390.5,262.5C 397.169,253.658 403.669,244.658 410,235.5C 411.075,231.142 410.408,227.142 408,223.5C 404.816,221.996 401.649,220.496 398.5,219C 409.332,210.332 419.998,201.499 430.5,192.5C 431.665,256.332 431.832,320.332 431,384.5C 429.833,388.333 427.333,390.833 423.5,392C 376.833,392.333 330.167,392.667 283.5,393C 271.47,396.179 262.137,403.012 255.5,413.5C 251.71,409.208 247.71,405.042 243.5,401C 238.585,397.876 233.252,395.876 227.5,395C 172.168,394.5 116.834,394.333 61.5,394.5C 61.5,294.167 61.5,193.833 61.5,93.5 Z"/></g>
<g><path style="opacity:0.999" fill="#fdba80" d="M 61.5,93.5 C 61.5,193.833 61.5,294.167 61.5,394.5C 61.3345,398.514 61.5012,402.514 62,406.5C 63.1667,407.667 64.3333,408.833 65.5,410C 116.833,410.333 168.167,410.667 219.5,411C 229.724,412.772 238.057,417.605 244.5,425.5C 178.832,425.333 113.166,425.5 47.5,426C 41.983,429.019 37.6496,433.185 34.5,438.5C 32.8639,437.251 31.6972,435.584 31,433.5C 30.3333,327.833 30.3333,222.167 31,116.5C 32.0386,115.756 32.5386,114.756 32.5,113.5C 41.6073,106.106 51.274,99.439 61.5,93.5 Z"/></g>
<g><path style="opacity:1" fill="#fca962" d="M 468.5,106.5 C 472.392,108.062 475.725,110.395 478.5,113.5C 478.461,114.756 478.961,115.756 480,116.5C 480.667,221.833 480.667,327.167 480,432.5C 479.27,436.896 476.77,439.73 472.5,441C 405.501,441.5 338.501,441.667 271.5,441.5C 266.684,440.674 261.684,440.174 256.5,440C 259.72,435.051 263.053,430.217 266.5,425.5C 329.834,425.667 393.168,425.5 456.5,425C 458.396,423.192 458.896,421.025 458,418.5C 454.631,414.963 451.131,411.629 447.5,408.5C 447.987,407.527 448.487,406.527 449,405.5C 449.5,322.501 449.667,239.501 449.5,156.5C 456.251,139.903 462.584,123.236 468.5,106.5 Z"/></g>
<g><path style="opacity:1" fill="#93dcfb" d="M 32.5,113.5 C 32.5386,114.756 32.0386,115.756 31,116.5C 30.3333,222.167 30.3333,327.833 31,433.5C 31.6972,435.584 32.8639,437.251 34.5,438.5C 35.6002,439.558 36.9336,440.392 38.5,441C 105.499,441.5 172.499,441.667 239.5,441.5C 239.5,446.5 239.5,451.5 239.5,456.5C 159.5,456.5 79.5,456.5 -0.5,456.5C -0.5,344.5 -0.5,232.5 -0.5,120.5C 1.61147,116.602 4.9448,114.435 9.5,114C 17.1594,113.5 24.8261,113.334 32.5,113.5 Z"/></g>
<g><path style="opacity:1" fill="#93dbfb" d="M 478.5,113.5 C 484.167,113.5 489.833,113.5 495.5,113.5C 495.5,225.167 495.5,336.833 495.5,448.5C 494.817,452.02 492.817,454.52 489.5,456C 416.834,456.5 344.167,456.667 271.5,456.5C 271.5,451.5 271.5,446.5 271.5,441.5C 338.501,441.667 405.501,441.5 472.5,441C 476.77,439.73 479.27,436.896 480,432.5C 480.667,327.167 480.667,221.833 480,116.5C 478.961,115.756 478.461,114.756 478.5,113.5 Z"/></g>
<g><path style="opacity:1" fill="#61cbfb" d="M 495.5,113.5 C 497.167,113.5 498.833,113.5 500.5,113.5C 499.432,114.434 498.099,114.768 496.5,114.5C 496.833,226.001 496.499,337.335 495.5,448.5C 495.5,336.833 495.5,225.167 495.5,113.5 Z"/></g>
<g><path style="opacity:1" fill="#40c1fa" d="M 500.5,113.5 C 505.35,114.085 509.016,116.419 511.5,120.5C 511.5,235.833 511.5,351.167 511.5,466.5C 510.023,468.807 508.023,470.64 505.5,472C 427.501,472.5 349.501,472.667 271.5,472.5C 270.095,481.54 264.762,485.206 255.5,483.5C 246.238,485.206 240.905,481.54 239.5,472.5C 161.499,472.667 83.4993,472.5 5.5,472C 2.97739,470.64 0.977392,468.807 -0.5,466.5C -0.5,463.167 -0.5,459.833 -0.5,456.5C 79.5,456.5 159.5,456.5 239.5,456.5C 239.5,451.5 239.5,446.5 239.5,441.5C 250.167,441.5 260.833,441.5 271.5,441.5C 271.5,446.5 271.5,451.5 271.5,456.5C 344.167,456.667 416.834,456.5 489.5,456C 492.817,454.52 494.817,452.02 495.5,448.5C 496.499,337.335 496.833,226.001 496.5,114.5C 498.099,114.768 499.432,114.434 500.5,113.5 Z"/></g>
<g><path style="opacity:1" fill="#626f76" d="M 115.5,137.5 C 144.502,137.333 173.502,137.5 202.5,138C 210.5,143 210.5,148 202.5,153C 173.5,153.667 144.5,153.667 115.5,153C 110.465,149.987 109.298,145.82 112,140.5C 113.518,139.837 114.685,138.837 115.5,137.5 Z"/></g>
<g><path style="opacity:1" fill="#f2d59e" d="M 449.5,156.5 C 449.667,239.501 449.5,322.501 449,405.5C 448.487,406.527 447.987,407.527 447.5,408.5C 446.527,408.987 445.527,409.487 444.5,410C 393.5,410.333 342.5,410.667 291.5,411C 281.276,412.772 272.943,417.605 266.5,425.5C 263.053,430.217 259.72,435.051 256.5,440C 261.684,440.174 266.684,440.674 271.5,441.5C 260.833,441.5 250.167,441.5 239.5,441.5C 244.316,440.674 249.316,440.174 254.5,440C 251.28,435.051 247.947,430.217 244.5,425.5C 238.057,417.605 229.724,412.772 219.5,411C 168.167,410.667 116.833,410.333 65.5,410C 64.3333,408.833 63.1667,407.667 62,406.5C 61.5012,402.514 61.3345,398.514 61.5,394.5C 116.834,394.333 172.168,394.5 227.5,395C 233.252,395.876 238.585,397.876 243.5,401C 247.71,405.042 251.71,409.208 255.5,413.5C 262.137,403.012 271.47,396.179 283.5,393C 330.167,392.667 376.833,392.333 423.5,392C 427.333,390.833 429.833,388.333 431,384.5C 431.832,320.332 431.665,256.332 430.5,192.5C 437.374,180.75 443.707,168.75 449.5,156.5 Z"/></g>
<g><path style="opacity:1" fill="#626e76" d="M 93.5,179.5 C 136.835,179.333 180.168,179.5 223.5,180C 229.292,182.09 230.792,185.924 228,191.5C 226.786,193.049 225.286,194.215 223.5,195C 180.5,195.667 137.5,195.667 94.5,195C 89.9315,192.459 88.4315,188.625 90,183.5C 91.3756,182.295 92.5423,180.962 93.5,179.5 Z"/></g>
<g><path style="opacity:1" fill="#636f76" d="M 308.5,179.5 C 306.537,185.076 304.204,190.409 301.5,195.5C 296.041,195.897 290.708,195.397 285.5,194C 279.938,188.837 280.271,184.171 286.5,180C 293.826,179.5 301.159,179.334 308.5,179.5 Z"/></g>
<g><path style="opacity:1" fill="#5f6c75" d="M 93.5,221.5 C 137.501,221.333 181.501,221.5 225.5,222C 230.986,227.081 230.653,231.748 224.5,236C 180.833,236.667 137.167,236.667 93.5,236C 90.6339,234.607 89.3006,232.274 89.5,229C 89.4302,225.634 90.7635,223.134 93.5,221.5 Z"/></g>
<g><path style="opacity:1" fill="#626e76" d="M 94.5,262.5 C 137.501,262.333 180.501,262.5 223.5,263C 229.453,265.525 230.953,269.691 228,275.5C 226.829,276.893 225.329,277.727 223.5,278C 180.5,278.667 137.5,278.667 94.5,278C 89.7762,275.565 88.2762,271.731 90,266.5C 91.3968,264.93 92.8968,263.596 94.5,262.5 Z"/></g>
<g><path style="opacity:1" fill="#647077" d="M 299.5,262.5 C 301.232,266.697 302.565,271.031 303.5,275.5C 303.5,276.5 303.5,277.5 303.5,278.5C 297.824,278.666 292.157,278.499 286.5,278C 279.846,273.049 279.846,268.049 286.5,263C 290.821,262.501 295.154,262.334 299.5,262.5 Z"/></g>
<g><path style="opacity:1" fill="#636f76" d="M 390.5,262.5 C 399.173,262.334 407.84,262.5 416.5,263C 418.286,263.785 419.786,264.951 421,266.5C 422.724,271.731 421.224,275.565 416.5,278C 404.121,278.793 391.788,278.627 379.5,277.5C 382.812,272.196 386.479,267.196 390.5,262.5 Z"/></g>
<g><path style="opacity:1" fill="#5f6c75" d="M 93.5,304.5 C 137.168,304.333 180.835,304.5 224.5,305C 230.729,309.171 231.062,313.837 225.5,319C 181.5,319.667 137.5,319.667 93.5,319C 89.7885,316.487 88.6218,312.987 90,308.5C 91.3756,307.295 92.5423,305.962 93.5,304.5 Z"/></g>
<g><path style="opacity:1" fill="#606d75" d="M 305.5,304.5 C 304.008,309.643 302.341,314.643 300.5,319.5C 295.489,319.666 290.489,319.499 285.5,319C 279.938,313.837 280.271,309.171 286.5,305C 292.825,304.5 299.158,304.334 305.5,304.5 Z"/></g>
<g><path style="opacity:1" fill="#5f6c74" d="M 322.5,304.5 C 353.835,304.333 385.168,304.5 416.5,305C 418.286,305.785 419.786,306.951 421,308.5C 422.378,312.987 421.212,316.487 417.5,319C 384.168,319.5 350.835,319.667 317.5,319.5C 318.595,314.216 320.261,309.216 322.5,304.5 Z"/></g>
<g><path style="opacity:1" fill="#5f6c75" d="M 93.5,346.5 C 137.501,346.333 181.501,346.5 225.5,347C 230.986,352.081 230.653,356.748 224.5,361C 180.833,361.667 137.167,361.667 93.5,361C 88.2353,356.076 88.2353,351.242 93.5,346.5 Z"/></g>
<g><path style="opacity:1" fill="#657075" d="M 293.5,346.5 C 292.588,350.131 292.421,353.797 293,357.5C 294.102,358.949 295.269,360.282 296.5,361.5C 293.15,361.665 289.817,361.498 286.5,361C 284.333,360.167 282.833,358.667 282,356.5C 281.505,348.505 285.339,345.171 293.5,346.5 Z"/></g>
<g><path style="opacity:1" fill="#5f6c74" d="M 309.5,346.5 C 345.502,346.333 381.502,346.5 417.5,347C 419.333,347.5 420.5,348.667 421,350.5C 422.643,355.428 421.143,358.928 416.5,361C 378.664,361.831 340.998,361.664 303.5,360.5C 305.173,359.657 306.34,358.324 307,356.5C 307.838,353.148 308.671,349.815 309.5,346.5 Z"/></g>
<g><path style="opacity:1" fill="#fdba80" d="M 447.5,408.5 C 451.131,411.629 454.631,414.963 458,418.5C 458.896,421.025 458.396,423.192 456.5,425C 393.168,425.5 329.834,425.667 266.5,425.5C 272.943,417.605 281.276,412.772 291.5,411C 342.5,410.667 393.5,410.333 444.5,410C 445.527,409.487 446.527,408.987 447.5,408.5 Z"/></g>
<g><path style="opacity:1" fill="#fca962" d="M 244.5,425.5 C 247.947,430.217 251.28,435.051 254.5,440C 249.316,440.174 244.316,440.674 239.5,441.5C 172.499,441.667 105.499,441.5 38.5,441C 36.9336,440.392 35.6002,439.558 34.5,438.5C 37.6496,433.185 41.983,429.019 47.5,426C 113.166,425.5 178.832,425.333 244.5,425.5 Z"/></g>
</svg>
