<?xml version="1.0" encoding="iso-8859-1"?>
<!-- Generator: Adobe Illustrator 21.0.0, SVG Export Plug-In . SVG Version: 6.00 Build 0)  -->
<svg version="1.1" id="Capa_1" xmlns="http://www.w3.org/2000/svg" xmlns:xlink="http://www.w3.org/1999/xlink" x="0px" y="0px"
	 viewBox="0 0 512 512" style="enable-background:new 0 0 512 512;" xml:space="preserve">
<linearGradient id="SVGID_1_" gradientUnits="userSpaceOnUse" x1="306.3994" y1="228.0142" x2="574.2793" y2="64.3042" gradientTransform="matrix(1.0039 0 0 -1.0039 0.1922 516.5609)">
	<stop  offset="0" style="stop-color:#FF4C54"/>
	<stop  offset="1" style="stop-color:#BE3F45"/>
</linearGradient>
<circle style="fill:url(#SVGID_1_);" cx="256" cy="256" r="175.736"/>
<linearGradient id="SVGID_2_" gradientUnits="userSpaceOnUse" x1="338.4486" y1="175.903" x2="75.1486" y2="439.203" gradientTransform="matrix(1.0039 0 0 -1.0039 0.1922 516.5609)">
	<stop  offset="0" style="stop-color:#FF4C54"/>
	<stop  offset="1" style="stop-color:#BE3F45"/>
</linearGradient>
<circle style="fill:url(#SVGID_2_);" cx="256" cy="256" r="125.059"/>
<linearGradient id="SVGID_3_" gradientUnits="userSpaceOnUse" x1="282.5594" y1="146.1237" x2="102.7994" y2="325.8837" gradientTransform="matrix(1.0039 0 0 -1.0039 0.1922 516.5609)">
	<stop  offset="0" style="stop-color:#BE3F45;stop-opacity:0"/>
	<stop  offset="1" style="stop-color:#BE3F45"/>
</linearGradient>
<path style="fill:url(#SVGID_3_);" d="M381.495,379.026c-12.194,12.438-26.231,23.082-41.667,31.468
	c-24.267,13.207-52.008,20.843-81.49,21.239L136.396,310.58c-1.65-0.973-2.472-2.289-2.472-3.94V204.276
	c0-1.752,0.79-3.069,2.39-3.939c1.6-0.881,3.535-1.317,5.804-1.317c2.269,0,4.193,0.436,5.794,1.317l40.867,40.857
	c0.01,0.01,0.02,0.02,0.03,0.03v-36.947c0-1.752,0.8-3.069,2.4-3.939c1.6-0.881,3.535-1.317,5.804-1.317
	c2.259,0,4.193,0.436,5.794,1.317l22.707,22.707L381.495,379.026z"/>
<linearGradient id="SVGID_4_" gradientUnits="userSpaceOnUse" x1="344.3388" y1="173.1732" x2="194.6488" y2="322.8633" gradientTransform="matrix(1.0039 0 0 -1.0039 0.1922 516.5609)">
	<stop  offset="0" style="stop-color:#BE3F45;stop-opacity:0"/>
	<stop  offset="1" style="stop-color:#BE3F45"/>
</linearGradient>
<path style="fill:url(#SVGID_4_);" d="M412.66,335.728c-5.804,11.383-12.812,22.039-20.843,31.822
	c-3.272,3.97-6.715,7.809-10.32,11.475c-12.194,12.438-26.231,23.082-41.667,31.468L233.96,304.625
	c-6.29-5.561-9.429-14.271-9.429-26.13v-44.989c0-3.808,0.324-7.303,0.983-10.463c1.367-6.674,4.183-11.9,8.447-15.668
	c6.29-5.571,14.695-8.356,25.208-8.356c10.513,0,18.94,2.785,25.28,8.356l48.018,48.068L412.66,335.728z"/>
<linearGradient id="SVGID_5_" gradientUnits="userSpaceOnUse" x1="414.128" y1="199.6723" x2="300.948" y2="312.8523" gradientTransform="matrix(1.0039 0 0 -1.0039 0.1922 516.5609)">
	<stop  offset="0" style="stop-color:#BE3F45;stop-opacity:0"/>
	<stop  offset="1" style="stop-color:#BE3F45"/>
</linearGradient>
<path style="fill:url(#SVGID_5_);" d="M431.742,256.263c-0.04,28.612-6.918,55.613-19.082,79.464
	c-5.804,11.383-12.812,22.039-20.843,31.822l-56.961-56.961c-1.6-0.983-2.39-2.289-2.39-3.939v-67.464
	c-0.081-0.183-0.142-0.374-0.203-0.557l-27.71-26.718c-0.983-1.509-1.469-3.312-1.469-5.398c0-1.975,0.466-3.718,1.387-5.226
	c0.932-1.509,2.269-2.269,4.021-2.269h64.172c1.752,0,3.089,0.729,4.021,2.188L431.742,256.263z"/>
<g>
	<path style="fill:#FFFFFF;" d="M133.921,306.641V204.278c0-1.752,0.797-3.066,2.397-3.943c1.597-0.874,3.53-1.314,5.799-1.314
		c2.266,0,4.199,0.44,5.799,1.314c1.597,0.877,2.397,2.192,2.397,3.943v42.677h38.502v-42.677c0-1.752,0.797-3.066,2.397-3.943
		c1.597-0.874,3.53-1.314,5.799-1.314c2.266,0,4.198,0.44,5.799,1.314c1.597,0.877,2.397,2.192,2.397,3.943v102.363
		c0,1.649-0.8,2.965-2.397,3.942c-1.6,0.981-3.532,1.47-5.799,1.47c-2.165,0-4.074-0.488-5.721-1.47
		c-1.65-0.979-2.474-2.293-2.474-3.942v-46.697h-38.502v46.697c0,1.649-0.8,2.965-2.397,3.942c-1.599,0.981-3.532,1.47-5.799,1.47
		c-2.165,0-4.074-0.488-5.721-1.47C134.744,309.604,133.921,308.29,133.921,306.641z"/>
	<path style="fill:#FFFFFF;" d="M224.53,278.498v-44.996c0-11.853,3.143-20.565,9.432-26.132c6.287-5.568,14.689-8.351,25.204-8.351
		c10.515,0,18.942,2.783,25.282,8.351c6.34,5.566,9.51,14.279,9.51,26.132v44.997c0,11.856-3.169,20.565-9.51,26.132
		c-6.34,5.568-14.767,8.351-25.282,8.351c-10.514,0-18.918-2.783-25.204-8.351C227.673,299.064,224.53,290.354,224.53,278.498z
		 M240.92,278.498c0,13.298,6.082,19.947,18.246,19.947c5.876,0,10.411-1.647,13.608-4.948c3.194-3.298,4.793-8.296,4.793-14.999
		v-44.996c0-6.7-1.599-11.699-4.793-14.999c-3.196-3.298-7.731-4.948-13.608-4.948c-12.165,0-18.246,6.649-18.246,19.947
		L240.92,278.498L240.92,278.498z"/>
	<path style="fill:#FFFFFF;" d="M303.082,206.519c0-1.978,0.465-3.724,1.392-5.232c0.928-1.51,2.267-2.266,4.021-2.266h64.17
		c1.752,0,3.093,0.729,4.021,2.187c0.929,1.459,1.392,3.176,1.392,5.155c0,2.19-0.491,4.038-1.47,5.548
		c-0.981,1.51-2.296,2.264-3.943,2.264h-23.813v92.477c0,1.647-0.826,2.96-2.474,3.935c-1.649,0.979-3.557,1.467-5.721,1.467
		c-2.269,0-4.201-0.488-5.799-1.467c-1.599-0.976-2.396-2.289-2.396-3.935v-92.477h-23.968c-1.65,0-2.965-0.754-3.943-2.264
		C303.57,210.4,303.082,208.602,303.082,206.519z"/>
</g>
<g>
	
		<linearGradient id="SVGID_6_" gradientUnits="userSpaceOnUse" x1="239.6756" y1="477.4315" x2="269.9416" y2="477.4315" gradientTransform="matrix(1.0039 0 0 -1.0039 0.1922 516.5609)">
		<stop  offset="0" style="stop-color:#FFF465"/>
		<stop  offset="1" style="stop-color:#FFE600"/>
	</linearGradient>
	<path style="fill:url(#SVGID_6_);" d="M256,0c-8.391,0-15.192,6.802-15.192,15.192v44.129c0,8.391,6.802,15.192,15.192,15.192
		c8.391,0,15.192-6.802,15.192-15.192V15.192C271.192,6.802,264.391,0,256,0z"/>
	
		<linearGradient id="SVGID_7_" gradientUnits="userSpaceOnUse" x1="239.6756" y1="41.6545" x2="269.9416" y2="41.6545" gradientTransform="matrix(1.0039 0 0 -1.0039 0.1922 516.5609)">
		<stop  offset="0" style="stop-color:#FFF465"/>
		<stop  offset="1" style="stop-color:#FFE600"/>
	</linearGradient>
	<path style="fill:url(#SVGID_7_);" d="M256,437.486c-8.391,0-15.192,6.802-15.192,15.192v44.129
		c0,8.391,6.802,15.192,15.192,15.192c8.391,0,15.192-6.802,15.192-15.192v-44.129C271.192,444.289,264.391,437.486,256,437.486z"/>
</g>
<linearGradient id="SVGID_8_" gradientUnits="userSpaceOnUse" x1="435.5856" y1="259.543" x2="509.8086" y2="259.543" gradientTransform="matrix(1.0039 0 0 -1.0039 0.1922 516.5609)">
	<stop  offset="0" style="stop-color:#FFF465"/>
	<stop  offset="1" style="stop-color:#FFE600"/>
</linearGradient>
<path style="fill:url(#SVGID_8_);" d="M496.808,240.808h-44.129c-8.391,0-15.192,6.802-15.192,15.192
	c0,8.391,6.802,15.192,15.192,15.192h44.129c8.391,0,15.192-6.802,15.192-15.192C512,247.609,505.198,240.808,496.808,240.808z"/>
<linearGradient id="SVGID_9_" gradientUnits="userSpaceOnUse" x1="-0.1914" y1="259.543" x2="74.0306" y2="259.543" gradientTransform="matrix(1.0039 0 0 -1.0039 0.1922 516.5609)">
	<stop  offset="0" style="stop-color:#FFF465"/>
	<stop  offset="1" style="stop-color:#FFE600"/>
</linearGradient>
<path style="fill:url(#SVGID_9_);" d="M74.513,256c0-8.391-6.802-15.192-15.192-15.192H15.192C6.802,240.808,0,247.609,0,256
	c0,8.391,6.802,15.192,15.192,15.192h44.129C67.712,271.192,74.513,264.391,74.513,256z"/>
<linearGradient id="SVGID_10_" gradientUnits="userSpaceOnUse" x1="337.5998" y1="448.2583" x2="389.8427" y2="448.2583" gradientTransform="matrix(1.0039 0 0 -1.0039 0.1922 516.5609)">
	<stop  offset="0" style="stop-color:#FFF465"/>
	<stop  offset="1" style="stop-color:#FFE600"/>
</linearGradient>
<path style="fill:url(#SVGID_10_);" d="M346.716,98.812c2.392,1.38,5.004,2.038,7.581,2.038c5.251,0,10.358-2.726,13.171-7.601
	l22.058-38.22c4.194-7.266,1.704-16.558-5.564-20.752c-7.269-4.195-16.559-1.705-20.752,5.564L341.153,78.06
	C336.958,85.327,339.45,94.619,346.716,98.812z"/>
<linearGradient id="SVGID_11_" gradientUnits="userSpaceOnUse" x1="119.7745" y1="70.8266" x2="172.0174" y2="70.8266" gradientTransform="matrix(1.0039 0 0 -1.0039 0.1922 516.5609)">
	<stop  offset="0" style="stop-color:#FFF465"/>
	<stop  offset="1" style="stop-color:#FFE600"/>
</linearGradient>
<path style="fill:url(#SVGID_11_);" d="M165.284,413.188c-7.268-4.194-16.559-1.705-20.752,5.564l-22.058,38.22
	c-4.194,7.266-1.704,16.558,5.564,20.752c2.392,1.38,5.004,2.038,7.581,2.038c5.251,0,10.358-2.726,13.171-7.601l22.058-38.22
	C175.042,426.673,172.55,417.381,165.284,413.188z"/>
<linearGradient id="SVGID_12_" gradientUnits="userSpaceOnUse" x1="409.3535" y1="150.6302" x2="477.6954" y2="150.6302" gradientTransform="matrix(1.0039 0 0 -1.0039 0.1922 516.5609)">
	<stop  offset="0" style="stop-color:#FFF465"/>
	<stop  offset="1" style="stop-color:#FFE600"/>
</linearGradient>
<path style="fill:url(#SVGID_12_);" d="M472.16,363.211l-38.22-22.058c-7.268-4.195-16.559-1.704-20.752,5.564
	c-4.194,7.266-1.704,16.558,5.564,20.752l38.22,22.058c2.392,1.38,5.004,2.038,7.581,2.038c5.251,0,10.358-2.726,13.171-7.601
	C481.919,376.697,479.427,367.405,472.16,363.211z"/>
<linearGradient id="SVGID_13_" gradientUnits="userSpaceOnUse" x1="31.9218" y1="368.4546" x2="100.2636" y2="368.4546" gradientTransform="matrix(1.0039 0 0 -1.0039 0.1922 516.5609)">
	<stop  offset="0" style="stop-color:#FFF465"/>
	<stop  offset="1" style="stop-color:#FFE600"/>
</linearGradient>
<path style="fill:url(#SVGID_13_);" d="M39.84,148.789l38.22,22.058c2.392,1.38,5.004,2.038,7.581,2.038
	c5.251,0,10.358-2.726,13.171-7.601c4.194-7.266,1.704-16.558-5.564-20.752l-38.22-22.058c-7.269-4.194-16.558-1.705-20.752,5.564
	C30.082,135.304,32.573,144.595,39.84,148.789z"/>
<linearGradient id="SVGID_14_" gradientUnits="userSpaceOnUse" x1="407.4774" y1="371.9947" x2="475.3968" y2="371.9947" gradientTransform="matrix(1.0039 0 0 -1.0039 0.1922 516.5609)">
	<stop  offset="0" style="stop-color:#FFF465"/>
	<stop  offset="1" style="stop-color:#FFE600"/>
</linearGradient>
<path style="fill:url(#SVGID_14_);" d="M424.476,169.689c2.668,0,5.374-0.703,7.826-2.182l37.798-22.775
	c7.187-4.33,9.502-13.666,5.172-20.852c-4.33-7.186-13.668-9.503-20.852-5.172l-37.798,22.775
	c-7.187,4.33-9.502,13.667-5.172,20.852C414.301,167.069,419.324,169.689,424.476,169.689z"/>
<linearGradient id="SVGID_15_" gradientUnits="userSpaceOnUse" x1="34.2204" y1="147.0925" x2="102.1398" y2="147.0925" gradientTransform="matrix(1.0039 0 0 -1.0039 0.1922 516.5609)">
	<stop  offset="0" style="stop-color:#FFF465"/>
	<stop  offset="1" style="stop-color:#FFE600"/>
</linearGradient>
<path style="fill:url(#SVGID_15_);" d="M79.698,344.493l-37.798,22.775c-7.187,4.33-9.502,13.666-5.172,20.852
	c2.852,4.733,7.875,7.354,13.027,7.354c2.668,0,5.374-0.704,7.826-2.182l37.798-22.775c7.187-4.33,9.502-13.667,5.172-20.852
	C96.221,342.48,86.882,340.158,79.698,344.493z"/>
<linearGradient id="SVGID_16_" gradientUnits="userSpaceOnUse" x1="340.7824" y1="72.9149" x2="393.7379" y2="72.9149" gradientTransform="matrix(1.0039 0 0 -1.0039 0.1922 516.5609)">
	<stop  offset="0" style="stop-color:#FFF465"/>
	<stop  offset="1" style="stop-color:#FFE600"/>
</linearGradient>
<path style="fill:url(#SVGID_16_);" d="M370.517,416.621c-4.33-7.186-13.668-9.504-20.852-5.172
	c-7.187,4.33-9.502,13.666-5.172,20.852l22.775,37.798c2.852,4.733,7.875,7.354,13.027,7.354c2.668,0,5.374-0.704,7.826-2.182
	c7.187-4.33,9.502-13.666,5.172-20.852L370.517,416.621z"/>
<linearGradient id="SVGID_17_" gradientUnits="userSpaceOnUse" x1="115.8794" y1="446.1724" x2="168.8348" y2="446.1724" gradientTransform="matrix(1.0039 0 0 -1.0039 0.1922 516.5609)">
	<stop  offset="0" style="stop-color:#FFF465"/>
	<stop  offset="1" style="stop-color:#FFE600"/>
</linearGradient>
<path style="fill:url(#SVGID_17_);" d="M154.51,102.732c2.668,0,5.374-0.704,7.826-2.182c7.187-4.33,9.502-13.666,5.172-20.852
	l-22.775-37.798c-4.33-7.186-13.667-9.506-20.852-5.172c-7.187,4.33-9.502,13.666-5.172,20.852l22.775,37.798
	C144.335,100.113,149.357,102.732,154.51,102.732z"/>
<g>
</g>
<g>
</g>
<g>
</g>
<g>
</g>
<g>
</g>
<g>
</g>
<g>
</g>
<g>
</g>
<g>
</g>
<g>
</g>
<g>
</g>
<g>
</g>
<g>
</g>
<g>
</g>
<g>
</g>
</svg>
