<?xml version="1.0" encoding="iso-8859-1"?>
<!-- Generator: Adobe Illustrator 19.0.0, SVG Export Plug-In . SVG Version: 6.00 Build 0)  -->
<svg version="1.1" id="Layer_1" xmlns="http://www.w3.org/2000/svg" xmlns:xlink="http://www.w3.org/1999/xlink" x="0px" y="0px"
	 viewBox="0 0 512 512" style="enable-background:new 0 0 512 512;" xml:space="preserve">
<g>
	<g>
		<polygon style="fill:#6C686F;" points="501.33,10.669 10.67,10.669 10.67,96.001 19.559,96.001 87.115,96.001 154.668,96.001 
			222.224,96.001 289.776,96.001 357.332,96.001 424.886,96.001 492.441,96.001 501.33,96.001 		"/>
		<polygon style="fill:#6C686F;" points="357.332,458.667 289.776,458.667 222.224,458.667 154.668,458.667 87.115,458.667 
			19.559,458.667 10.67,458.667 10.67,501.331 501.33,501.331 501.33,458.667 492.441,458.667 424.888,458.667 		"/>
	</g>
	<polygon style="fill:#F3DDB9;" points="357.332,357.331 424.886,357.331 424.886,277.331 424.886,197.333 357.332,197.333 
		289.776,197.333 289.776,277.331 289.776,357.331 	"/>
</g>
<g>
	<path style="fill:#000003;" d="M357.332,232.601c-11.764,0-21.335,9.569-21.335,21.331c0,7.877,4.301,14.753,10.667,18.449v39.011
		c0,5.892,4.776,10.669,10.669,10.669s10.669-4.776,10.669-10.669v-39.009c6.366-3.697,10.669-10.573,10.669-18.451
		C378.669,242.17,369.097,232.601,357.332,232.601z"/>
	<path style="fill:#000003;" d="M503.11,106.51c5.043-0.848,8.889-5.223,8.889-10.509V10.669C511.999,4.777,507.222,0,501.33,0
		H10.67C4.777,0,0.001,4.777,0.001,10.669v85.332c0,5.284,3.846,9.66,8.889,10.509v341.649c-5.043,0.848-8.889,5.223-8.889,10.509
		v42.664C0.001,507.223,4.777,512,10.67,512H501.33c5.891,0,10.669-4.777,10.669-10.669v-42.664c0-5.284-3.846-9.66-8.889-10.509
		V106.51z M435.557,447.999v-90.667c0-0.015-0.002-0.027-0.002-0.042v-69.29h46.218v159.998H435.557z M368.001,447.999v-79.998
		h46.218v79.998H368.001z M300.445,447.999v-79.998h46.219v79.998H300.445z M232.893,447.999V288h46.215v69.331v90.667h-46.215
		V447.999z M165.337,447.999V288h46.219v159.999H165.337z M97.784,447.999V288h46.215v159.999H97.784z M30.228,447.999V288h46.219
		v159.999H30.228z M76.446,106.67v159.993H30.228V106.67H76.446z M143.999,106.67v159.993H97.784V106.67H143.999z M211.555,106.67
		v159.993h-46.219V106.67H211.555z M279.107,106.67v90.662v69.329h-46.215V106.67H279.107z M346.663,106.67v79.994h-46.219V106.67
		H346.663z M414.217,106.67v79.994h-46.216V106.67H414.217z M300.445,346.662V208.002h113.773v138.662H300.445V346.662z
		 M481.772,266.662h-46.218v-69.329v-90.662h46.218L481.772,266.662L481.772,266.662z M21.338,21.337h469.323v63.995H21.338V21.337z
		 M490.662,490.663H21.338v-21.327h469.323V490.663z"/>
	<path style="fill:#000003;" d="M145.336,64.001c5.892,0,10.669-4.776,10.669-10.669c0-5.89-4.776-10.669-10.669-10.669H87.565
		c-5.891,0-10.669,4.778-10.669,10.669c0,5.892,4.777,10.669,10.669,10.669H145.336z"/>
	<path style="fill:#000003;" d="M56.922,42.668h-0.254c-5.892,0-10.669,4.778-10.669,10.669c0,5.892,4.776,10.669,10.669,10.669
		h0.254c5.892,0,10.669-4.776,10.669-10.669C67.59,47.447,62.815,42.668,56.922,42.668z"/>
</g>
<g>
</g>
<g>
</g>
<g>
</g>
<g>
</g>
<g>
</g>
<g>
</g>
<g>
</g>
<g>
</g>
<g>
</g>
<g>
</g>
<g>
</g>
<g>
</g>
<g>
</g>
<g>
</g>
<g>
</g>
</svg>
