<?xml version="1.0" encoding="UTF-8"?>
<!DOCTYPE svg PUBLIC "-//W3C//DTD SVG 1.1//EN" "http://www.w3.org/Graphics/SVG/1.1/DTD/svg11.dtd">
<svg xmlns="http://www.w3.org/2000/svg" version="1.1" width="512px" height="512px" style="shape-rendering:geometricPrecision; text-rendering:geometricPrecision; image-rendering:optimizeQuality; fill-rule:evenodd; clip-rule:evenodd" xmlns:xlink="http://www.w3.org/1999/xlink">
<g><path style="opacity:0.985" fill="#6699fe" d="M 324.5,-0.5 C 336.833,-0.5 349.167,-0.5 361.5,-0.5C 400.85,4.34273 434.516,20.6761 462.5,48.5C 455.137,55.8613 448.137,63.528 441.5,71.5C 440.833,70.8333 440.167,70.1667 439.5,69.5C 403.741,36.5529 361.741,24.3863 313.5,33C 256.02,48.1465 220.52,84.6465 207,142.5C 200.764,181.446 208.764,217.113 231,249.5C 235.616,255.095 240.45,260.429 245.5,265.5C 245.5,265.833 245.5,266.167 245.5,266.5C 237.888,272.775 230.554,279.442 223.5,286.5C 216.131,279.133 209.131,271.466 202.5,263.5C 166.045,203.979 164.211,143.312 197,81.5C 226.69,34.3962 269.19,7.06289 324.5,-0.5 Z"/></g>
<g><path style="opacity:1" fill="#e5fefe" d="M 439.5,69.5 C 429.59,80.9133 419.09,91.9133 408,102.5C 407.826,97.6486 407.326,92.9819 406.5,88.5C 365.5,88.5 324.5,88.5 283.5,88.5C 283.172,99.0135 283.506,109.347 284.5,119.5C 319.833,119.5 355.167,119.5 390.5,119.5C 381.036,129.465 371.369,139.298 361.5,149C 335.33,149.168 309.33,149.668 283.5,150.5C 283.5,160.833 283.5,171.167 283.5,181.5C 298.5,181.5 313.5,181.5 328.5,181.5C 318.833,191.5 309.167,201.5 299.5,211.5C 294.5,211.5 289.5,211.5 284.5,211.5C 283.673,216.651 283.173,221.984 283,227.5C 270.298,240.035 257.798,252.702 245.5,265.5C 240.45,260.429 235.616,255.095 231,249.5C 208.764,217.113 200.764,181.446 207,142.5C 220.52,84.6465 256.02,48.1465 313.5,33C 361.741,24.3863 403.741,36.5529 439.5,69.5 Z"/></g>
<g><path style="opacity:0.987" fill="#3355fe" d="M 462.5,48.5 C 490.322,76.4798 506.655,110.147 511.5,149.5C 511.5,161.833 511.5,174.167 511.5,186.5C 498.779,265.06 453.779,314.227 376.5,334C 330.039,342.474 287.039,333.974 247.5,308.5C 239.525,301.529 231.525,294.529 223.5,287.5C 223.5,287.167 223.5,286.833 223.5,286.5C 230.554,279.442 237.888,272.775 245.5,266.5C 288.336,305.424 337.336,315.591 392.5,297C 437.882,277.945 466.382,244.445 478,196.5C 486.759,148.506 474.592,106.839 441.5,71.5C 448.137,63.528 455.137,55.8613 462.5,48.5 Z"/></g>
<g><path style="opacity:1" fill="#d8f1fe" d="M 439.5,69.5 C 440.167,70.1667 440.833,70.8333 441.5,71.5C 474.592,106.839 486.759,148.506 478,196.5C 466.382,244.445 437.882,277.945 392.5,297C 337.336,315.591 288.336,305.424 245.5,266.5C 245.5,266.167 245.5,265.833 245.5,265.5C 257.798,252.702 270.298,240.035 283,227.5C 283.173,221.984 283.673,216.651 284.5,211.5C 284.5,221.833 284.5,232.167 284.5,242.5C 309.833,242.5 335.167,242.5 360.5,242.5C 360.5,232.167 360.5,221.833 360.5,211.5C 340.167,211.5 319.833,211.5 299.5,211.5C 309.167,201.5 318.833,191.5 328.5,181.5C 354.672,181.831 380.672,181.498 406.5,180.5C 406.5,170.5 406.5,160.5 406.5,150.5C 391.167,150.5 375.833,150.5 360.5,150.5C 335.167,150.5 309.833,150.5 284.5,150.5C 284.167,150.5 283.833,150.5 283.5,150.5C 309.33,149.668 335.33,149.168 361.5,149C 371.369,139.298 381.036,129.465 390.5,119.5C 395.833,119.5 401.167,119.5 406.5,119.5C 406.5,109.5 406.5,99.5 406.5,89.5C 406.5,89.1667 406.5,88.8333 406.5,88.5C 407.326,92.9819 407.826,97.6486 408,102.5C 419.09,91.9133 429.59,80.9133 439.5,69.5 Z"/></g>
<g><path style="opacity:1" fill="#92afb2" d="M 406.5,88.5 C 406.5,88.8333 406.5,89.1667 406.5,89.5C 365.833,89.5 325.167,89.5 284.5,89.5C 284.5,99.5 284.5,109.5 284.5,119.5C 283.506,109.347 283.172,99.0135 283.5,88.5C 324.5,88.5 365.5,88.5 406.5,88.5 Z"/></g>
<g><path style="opacity:1" fill="#4a696e" d="M 406.5,89.5 C 406.5,99.5 406.5,109.5 406.5,119.5C 401.167,119.5 395.833,119.5 390.5,119.5C 355.167,119.5 319.833,119.5 284.5,119.5C 284.5,109.5 284.5,99.5 284.5,89.5C 325.167,89.5 365.833,89.5 406.5,89.5 Z"/></g>
<g><path style="opacity:1" fill="#49686e" d="M 284.5,150.5 C 309.833,150.5 335.167,150.5 360.5,150.5C 350.833,160.5 341.167,170.5 331.5,180.5C 315.833,180.5 300.167,180.5 284.5,180.5C 284.5,170.5 284.5,160.5 284.5,150.5 Z"/></g>
<g><path style="opacity:1" fill="#374948" d="M 360.5,150.5 C 375.833,150.5 391.167,150.5 406.5,150.5C 406.5,160.5 406.5,170.5 406.5,180.5C 381.5,180.5 356.5,180.5 331.5,180.5C 341.167,170.5 350.833,160.5 360.5,150.5 Z"/></g>
<g><path style="opacity:1" fill="#889fa4" d="M 283.5,150.5 C 283.833,150.5 284.167,150.5 284.5,150.5C 284.5,160.5 284.5,170.5 284.5,180.5C 300.167,180.5 315.833,180.5 331.5,180.5C 356.5,180.5 381.5,180.5 406.5,180.5C 380.672,181.498 354.672,181.831 328.5,181.5C 313.5,181.5 298.5,181.5 283.5,181.5C 283.5,171.167 283.5,160.833 283.5,150.5 Z"/></g>
<g><path style="opacity:1" fill="#394a4a" d="M 284.5,211.5 C 289.5,211.5 294.5,211.5 299.5,211.5C 319.833,211.5 340.167,211.5 360.5,211.5C 360.5,221.833 360.5,232.167 360.5,242.5C 335.167,242.5 309.833,242.5 284.5,242.5C 284.5,232.167 284.5,221.833 284.5,211.5 Z"/></g>
<g><path style="opacity:0.995" fill="#4a696e" d="M 202.5,263.5 C 209.131,271.466 216.131,279.133 223.5,286.5C 223.5,286.833 223.5,287.167 223.5,287.5C 210.194,301.473 196.527,315.14 182.5,328.5C 174.444,321.445 167.11,313.779 160.5,305.5C 174.833,291.833 188.833,277.833 202.5,263.5 Z"/></g>
<g><path style="opacity:0.983" fill="#fedc99" d="M 160.5,305.5 C 167.11,313.779 174.444,321.445 182.5,328.5C 182.5,328.833 182.5,329.167 182.5,329.5C 174.888,335.775 167.554,342.442 160.5,349.5C 145.833,335.5 131.5,321.167 117.5,306.5C 124.464,299.035 131.631,291.702 139,284.5C 146.035,291.703 153.202,298.703 160.5,305.5 Z"/></g>
<g><path style="opacity:0.996" fill="#384949" d="M 223.5,287.5 C 231.525,294.529 239.525,301.529 247.5,308.5C 233.167,322.167 219.167,336.167 205.5,350.5C 197.554,343.891 189.887,336.891 182.5,329.5C 182.5,329.167 182.5,328.833 182.5,328.5C 196.527,315.14 210.194,301.473 223.5,287.5 Z"/></g>
<g><path style="opacity:0.997" fill="#98bafe" d="M 117.5,306.5 C 131.5,321.167 145.833,335.5 160.5,349.5C 160.5,349.833 160.5,350.167 160.5,350.5C 113.167,398.5 65.5,446.167 17.5,493.5C 12.4907,489.824 8.65734,485.157 6,479.5C 3.30408,473.57 1.13742,467.57 -0.5,461.5C -0.5,453.833 -0.5,446.167 -0.5,438.5C 1.99817,428.831 6.16484,419.831 12,411.5C 47.0346,376.299 82.2013,341.299 117.5,306.5 Z"/></g>
<g><path style="opacity:0.99" fill="#febb33" d="M 182.5,329.5 C 189.887,336.891 197.554,343.891 205.5,350.5C 212.297,357.798 219.297,364.965 226.5,372C 219.298,379.369 211.965,386.536 204.5,393.5C 189.833,379.167 175.167,364.833 160.5,350.5C 160.5,350.167 160.5,349.833 160.5,349.5C 167.554,342.442 174.888,335.775 182.5,329.5 Z"/></g>
<g><path style="opacity:0.991" fill="#6699fe" d="M 160.5,350.5 C 175.167,364.833 189.833,379.167 204.5,393.5C 169.701,428.799 134.701,463.965 99.5,499C 90.9285,505.124 81.5952,509.291 71.5,511.5C 64.1667,511.5 56.8333,511.5 49.5,511.5C 41.486,509.503 33.8193,506.336 26.5,502C 23,499.666 20,496.832 17.5,493.5C 65.5,446.167 113.167,398.5 160.5,350.5 Z"/></g>
</svg>
