<?xml version="1.0" encoding="UTF-8"?>
<!DOCTYPE svg PUBLIC "-//W3C//DTD SVG 1.1//EN" "http://www.w3.org/Graphics/SVG/1.1/DTD/svg11.dtd">
<svg xmlns="http://www.w3.org/2000/svg" version="1.1" width="512px" height="512px" style="shape-rendering:geometricPrecision; text-rendering:geometricPrecision; image-rendering:optimizeQuality; fill-rule:evenodd; clip-rule:evenodd" xmlns:xlink="http://www.w3.org/1999/xlink">
<g><path style="opacity:1" fill="#d7913d" d="M 267.5,18.5 C 264.715,36.0515 254.881,47.7181 238,53.5C 236.862,53.0109 235.695,52.6775 234.5,52.5C 228.644,39.5733 230.978,28.4067 241.5,19C 248.129,15.6904 255.129,14.6904 262.5,16C 264.491,16.3736 266.158,17.207 267.5,18.5 Z"/></g>
<g><path style="opacity:0.978" fill="#bc7e35" d="M 267.5,18.5 C 278.025,24.8724 281.858,34.2058 279,46.5C 276.348,54.3183 271.181,59.6516 263.5,62.5C 258.153,63.7752 252.82,63.7752 247.5,62.5C 242.021,60.6917 237.688,57.3583 234.5,52.5C 235.695,52.6775 236.862,53.0109 238,53.5C 254.881,47.7181 264.715,36.0515 267.5,18.5 Z"/></g>
<g><path style="opacity:0.968" fill="#8f6127" d="M 247.5,62.5 C 252.82,63.7752 258.153,63.7752 263.5,62.5C 266.633,73.366 269.3,84.366 271.5,95.5C 271.167,95.5 270.833,95.5 270.5,95.5C 260.167,95.5 249.833,95.5 239.5,95.5C 241.7,84.366 244.367,73.366 247.5,62.5 Z"/></g>
<g><path style="opacity:1" fill="#d7913d" d="M 239.5,95.5 C 249.833,95.5 260.167,95.5 270.5,95.5C 268.504,109.501 261.504,120.168 249.5,127.5C 246.167,127.5 242.833,127.5 239.5,127.5C 234.167,127.5 228.833,127.5 223.5,127.5C 223.5,116.833 223.5,106.167 223.5,95.5C 228.833,95.5 234.167,95.5 239.5,95.5 Z"/></g>
<g><path style="opacity:1" fill="#bc7f35" d="M 270.5,95.5 C 270.833,95.5 271.167,95.5 271.5,95.5C 276.833,95.5 282.167,95.5 287.5,95.5C 287.5,106.167 287.5,116.833 287.5,127.5C 282.167,127.5 276.833,127.5 271.5,127.5C 264.167,127.5 256.833,127.5 249.5,127.5C 261.504,120.168 268.504,109.501 270.5,95.5 Z"/></g>
<g><path style="opacity:0.996" fill="#f2c350" d="M 239.5,159.5 C 250.167,159.5 260.833,159.5 271.5,159.5C 328.199,159.975 384.866,159.475 441.5,158C 455.214,152.068 459.881,141.901 455.5,127.5C 463.247,130.028 470.913,132.861 478.5,136C 492.682,143.201 498.182,154.701 495,170.5C 492.167,181.333 485.333,188.167 474.5,191C 457.17,191.5 439.837,191.667 422.5,191.5C 417.833,191.5 413.167,191.5 408.5,191.5C 362.833,191.5 317.167,191.5 271.5,191.5C 260.833,191.5 250.167,191.5 239.5,191.5C 193.833,191.5 148.167,191.5 102.5,191.5C 97.8333,191.5 93.1667,191.5 88.5,191.5C 71.1635,191.667 53.8301,191.5 36.5,191C 22.9649,186.606 15.9649,177.273 15.5,163C 15.4494,150.387 21.1161,141.387 32.5,136C 40.0865,132.861 47.7532,130.028 55.5,127.5C 51.6093,137.662 53.6093,146.496 61.5,154C 63.8877,155.861 66.5544,157.194 69.5,158C 126.134,159.475 182.801,159.975 239.5,159.5 Z"/></g>
<g><path style="opacity:1" fill="#8e6127" d="M 239.5,127.5 C 242.833,127.5 246.167,127.5 249.5,127.5C 256.833,127.5 264.167,127.5 271.5,127.5C 271.5,138.167 271.5,148.833 271.5,159.5C 260.833,159.5 250.167,159.5 239.5,159.5C 239.5,148.833 239.5,138.167 239.5,127.5 Z"/></g>
<g><path style="opacity:1" fill="#f6d77f" d="M 88.5,191.5 C 93.1667,191.5 97.8333,191.5 102.5,191.5C 107.017,192.932 110.684,195.599 113.5,199.5C 108.474,217.193 97.1403,228.526 79.5,233.5C 75.5289,230.908 73.0289,227.241 72,222.5C 69.1465,207.533 74.6465,197.199 88.5,191.5 Z"/></g>
<g><path style="opacity:1" fill="#8f6128" d="M 239.5,191.5 C 250.167,191.5 260.833,191.5 271.5,191.5C 271.5,257.5 271.5,323.5 271.5,389.5C 271.167,389.5 270.833,389.5 270.5,389.5C 266.54,385.174 261.54,383.174 255.5,383.5C 249.304,383.341 243.97,385.341 239.5,389.5C 239.5,323.5 239.5,257.5 239.5,191.5 Z"/></g>
<g><path style="opacity:1" fill="#f6d77f" d="M 408.5,191.5 C 413.167,191.5 417.833,191.5 422.5,191.5C 427.017,192.932 430.684,195.599 433.5,199.5C 428.474,217.193 417.14,228.526 399.5,233.5C 395.529,230.908 393.029,227.241 392,222.5C 389.146,207.533 394.646,197.199 408.5,191.5 Z"/></g>
<g><path style="opacity:0.983" fill="#f2c352" d="M 113.5,199.5 C 116.324,201.8 118.157,204.8 119,208.5C 121.782,221.927 117.282,231.927 105.5,238.5C 98.8279,239.774 92.1613,239.774 85.5,238.5C 83.1307,237.31 81.1307,235.643 79.5,233.5C 97.1403,228.526 108.474,217.193 113.5,199.5 Z"/></g>
<g><path style="opacity:0.983" fill="#f2c352" d="M 433.5,199.5 C 436.324,201.8 438.157,204.8 439,208.5C 441.782,221.927 437.282,231.927 425.5,238.5C 418.828,239.774 412.161,239.774 405.5,238.5C 403.131,237.31 401.131,235.643 399.5,233.5C 417.14,228.526 428.474,217.193 433.5,199.5 Z"/></g>
<g><path style="opacity:0.967" fill="#e7e4dd" d="M 85.5,238.5 C 92.1613,239.774 98.8279,239.774 105.5,238.5C 128.233,281.632 151.233,324.632 174.5,367.5C 167.833,367.5 161.167,367.5 154.5,367.5C 135.112,331.061 115.446,294.728 95.5,258.5C 75.3776,294.411 56.0443,330.745 37.5,367.5C 30.8333,367.5 24.1667,367.5 17.5,367.5C 40.4215,324.658 63.0881,281.658 85.5,238.5 Z M 154.5,367.5 C 151.5,367.5 148.5,367.5 145.5,367.5C 109.5,367.5 73.5,367.5 37.5,367.5C 56.0443,330.745 75.3776,294.411 95.5,258.5C 115.446,294.728 135.112,331.061 154.5,367.5 Z"/></g>
<g><path style="opacity:0.967" fill="#e7e4dd" d="M 405.5,238.5 C 412.161,239.774 418.828,239.774 425.5,238.5C 448.233,281.632 471.233,324.632 494.5,367.5C 487.833,367.5 481.167,367.5 474.5,367.5C 455.112,331.061 435.446,294.728 415.5,258.5C 395.378,294.411 376.044,330.745 357.5,367.5C 350.833,367.5 344.167,367.5 337.5,367.5C 360.421,324.658 383.088,281.658 405.5,238.5 Z M 474.5,367.5 C 471.5,367.5 468.5,367.5 465.5,367.5C 429.5,367.5 393.5,367.5 357.5,367.5C 376.044,330.745 395.378,294.411 415.5,258.5C 435.446,294.728 455.112,331.061 474.5,367.5 Z"/></g>
<g><path style="opacity:1" fill="#e29753" d="M 17.5,367.5 C 24.1667,367.5 30.8333,367.5 37.5,367.5C 73.5,367.5 109.5,367.5 145.5,367.5C 133.644,389.024 116.644,405.024 94.5,415.5C 70.0153,416.383 48.0153,409.55 28.5,395C 21.4271,388.688 17.0937,380.855 15.5,371.5C 15.5854,369.667 16.2521,368.334 17.5,367.5 Z"/></g>
<g><path style="opacity:0.989" fill="#c16b3f" d="M 145.5,367.5 C 148.5,367.5 151.5,367.5 154.5,367.5C 161.167,367.5 167.833,367.5 174.5,367.5C 175.155,378.389 171.155,387.555 162.5,395C 142.353,409.874 119.686,416.708 94.5,415.5C 116.644,405.024 133.644,389.024 145.5,367.5 Z"/></g>
<g><path style="opacity:1" fill="#e29753" d="M 337.5,367.5 C 344.167,367.5 350.833,367.5 357.5,367.5C 393.5,367.5 429.5,367.5 465.5,367.5C 453.644,389.024 436.644,405.024 414.5,415.5C 390.015,416.383 368.015,409.55 348.5,395C 341.427,388.688 337.094,380.855 335.5,371.5C 335.585,369.667 336.252,368.334 337.5,367.5 Z"/></g>
<g><path style="opacity:0.989" fill="#c16b3f" d="M 465.5,367.5 C 468.5,367.5 471.5,367.5 474.5,367.5C 481.167,367.5 487.833,367.5 494.5,367.5C 495.155,378.389 491.155,387.555 482.5,395C 462.353,409.874 439.686,416.708 414.5,415.5C 436.644,405.024 453.644,389.024 465.5,367.5 Z"/></g>
<g><path style="opacity:1" fill="#d7913d" d="M 270.5,389.5 C 263.877,405.793 252.211,416.46 235.5,421.5C 233.837,419.507 232.67,417.174 232,414.5C 230.69,407.129 231.69,400.129 235,393.5C 236.371,391.959 237.871,390.625 239.5,389.5C 243.97,385.341 249.304,383.341 255.5,383.5C 261.54,383.174 266.54,385.174 270.5,389.5 Z"/></g>
<g><path style="opacity:0.985" fill="#bc7f35" d="M 270.5,389.5 C 270.833,389.5 271.167,389.5 271.5,389.5C 277.397,393.969 280.064,399.969 279.5,407.5C 280.064,415.031 277.397,421.031 271.5,425.5C 260.833,433.5 250.167,433.5 239.5,425.5C 237.833,424.5 236.5,423.167 235.5,421.5C 252.211,416.46 263.877,405.793 270.5,389.5 Z"/></g>
<g><path style="opacity:0.991" fill="#d7913d" d="M 239.5,425.5 C 250.167,433.5 260.833,433.5 271.5,425.5C 272.09,442.573 280.423,453.74 296.5,459C 317.522,462.559 338.522,466.226 359.5,470C 366.738,473.655 369.238,479.488 367,487.5C 365.833,491.333 363.333,493.833 359.5,495C 290.167,495.667 220.833,495.667 151.5,495C 144.262,491.345 141.762,485.512 144,477.5C 145.167,473.667 147.667,471.167 151.5,470C 172.478,466.226 193.478,462.559 214.5,459C 230.577,453.74 238.91,442.573 239.5,425.5 Z"/></g>
</svg>
