<?xml version="1.0" encoding="UTF-8"?>
<!DOCTYPE svg PUBLIC "-//W3C//DTD SVG 1.1//EN" "http://www.w3.org/Graphics/SVG/1.1/DTD/svg11.dtd">
<svg xmlns="http://www.w3.org/2000/svg" version="1.1" width="512px" height="512px" style="shape-rendering:geometricPrecision; text-rendering:geometricPrecision; image-rendering:optimizeQuality; fill-rule:evenodd; clip-rule:evenodd" xmlns:xlink="http://www.w3.org/1999/xlink">
<g><path style="opacity:0.976" fill="#030202" d="M 375.5,243.5 C 371.904,245.722 368.237,245.889 364.5,244C 350.959,230.125 337.126,216.625 323,203.5C 316.342,208.992 310.175,214.992 304.5,221.5C 292.521,232.812 280.854,244.479 269.5,256.5C 291.986,279.486 314.653,302.32 337.5,325C 342.472,323.362 347.472,321.362 352.5,319C 364.798,315.929 377.131,315.929 389.5,319C 397.68,322.095 406.013,324.595 414.5,326.5C 420.251,328.04 426.251,328.706 432.5,328.5C 437.609,328.614 442.609,328.114 447.5,327C 427.333,306.833 407.167,286.667 387,266.5C 385.026,262.732 385.193,259.066 387.5,255.5C 390.743,254.42 394.076,254.253 397.5,255C 435.368,293.035 473.368,330.868 511.5,368.5C 511.5,371.167 511.5,373.833 511.5,376.5C 503.002,385.087 492.668,390.587 480.5,393C 450.07,397.415 420.736,393.415 392.5,381C 372.356,372.436 354.023,361.103 337.5,347C 310.028,320.528 282.861,293.695 256,266.5C 251.86,260.713 251.527,254.713 255,248.5C 259.016,244.652 262.849,240.652 266.5,236.5C 263.5,232.833 260.167,229.5 256.5,226.5C 251.631,229.736 246.297,231.903 240.5,233C 229.103,234.273 217.77,235.939 206.5,238C 201.338,239.834 196.672,242.501 192.5,246C 187.833,250.667 183.167,255.333 178.5,260C 184.511,266.429 185.011,273.262 180,280.5C 155.861,303.638 132.028,327.138 108.5,351C 105.067,352.912 101.733,352.745 98.5,350.5C 95.7571,346.331 95.9237,342.331 99,338.5C 111.014,326.653 122.848,314.653 134.5,302.5C 128.079,294.283 120.746,286.949 112.5,280.5C 87.1877,254.521 61.521,228.854 35.5,203.5C 27.681,210.819 20.0143,218.319 12.5,226C 10.3885,226.845 8.3885,227.678 6.5,228.5C 3.67365,228.002 1.34032,226.669 -0.5,224.5C -0.5,221.833 -0.5,219.167 -0.5,216.5C 19.9114,196.589 40.2447,176.423 60.5,156C 63.7383,154.632 67.0717,154.299 70.5,155C 73.2784,156.529 75.945,157.862 78.5,159C 87,150.5 95.5,142 104,133.5C 99.6855,115.396 103.852,99.5627 116.5,86C 107.444,75.8207 104.278,63.9874 107,50.5C 112.557,31.2861 125.39,20.9527 145.5,19.5C 155.825,19.7696 164.658,23.4363 172,30.5C 179.759,24.1551 188.593,21.6551 198.5,23C 211.378,7.31926 226.711,4.31926 244.5,14C 249.947,18.3991 253.78,23.8991 256,30.5C 271.572,24.1425 284.572,27.4759 295,40.5C 300.374,50.4365 300.874,60.6031 296.5,71C 314.862,78.3919 321.862,91.7253 317.5,111C 335.079,120.403 339.912,134.237 332,152.5C 325.833,158.667 319.667,164.833 313.5,171C 334.333,191.833 355.167,212.667 376,233.5C 376.659,236.888 376.492,240.221 375.5,243.5 Z"/></g>
<g><path style="opacity:1" fill="#e99f63" d="M 222.5,23.5 C 235.543,23.3711 241.376,29.7044 240,42.5C 238.591,45.5818 236.758,48.4151 234.5,51C 233.5,51.6667 232.5,51.6667 231.5,51C 224.985,44.6522 218.652,38.1522 212.5,31.5C 215.588,28.3993 218.922,25.7326 222.5,23.5 Z"/></g>
<g><path style="opacity:1" fill="#665c66" d="M 144.5,57.5 C 141.319,55.1627 137.986,52.996 134.5,51C 131.382,49.2725 128.049,48.4392 124.5,48.5C 127.2,42.2886 131.867,38.1219 138.5,36C 146.414,34.3173 153.581,35.8173 160,40.5C 155.853,46.827 150.686,52.4936 144.5,57.5 Z"/></g>
<g><path style="opacity:1" fill="#fdbb85" d="M 252.5,107.5 C 251.208,104.263 249.374,101.263 247,98.5C 230.167,81.6667 213.333,64.8333 196.5,48C 192.375,44.7702 187.708,42.9369 182.5,42.5C 187.978,37.7369 193.978,37.2369 200.5,41C 218.333,58.8333 236.167,76.6667 254,94.5C 257.702,99.4555 257.202,103.789 252.5,107.5 Z"/></g>
<g><path style="opacity:1" fill="#fdd1a3" d="M 182.5,42.5 C 187.708,42.9369 192.375,44.7702 196.5,48C 213.333,64.8333 230.167,81.6667 247,98.5C 249.374,101.263 251.208,104.263 252.5,107.5C 250.221,109.263 247.555,110.263 244.5,110.5C 235.992,109.912 228.326,107.078 221.5,102C 215.5,96 209.5,90 203.5,84C 195.68,78.4829 187.68,78.1496 179.5,83C 172,90.5 164.5,98 157,105.5C 156.068,108.823 156.568,111.823 158.5,114.5C 155.177,116.152 153.51,118.819 153.5,122.5C 154.08,126.333 155.247,130 157,133.5C 157.167,136.5 157.333,139.5 157.5,142.5C 156.589,151.2 155.756,159.866 155,168.5C 159.189,173.721 163.023,173.721 166.5,168.5C 169.649,168.789 172.649,168.289 175.5,167C 176.733,164.686 178.067,162.519 179.5,160.5C 193.772,174.271 207.938,188.271 222,202.5C 222.667,203.833 222.667,205.167 222,206.5C 210.523,208.233 199.023,210.067 187.5,212C 182.508,214.161 177.841,216.828 173.5,220C 167.631,226.036 161.631,231.87 155.5,237.5C 133.035,215.535 110.701,193.368 88.5,171C 99,160.5 109.5,150 120,139.5C 121.79,135.075 121.456,130.741 119,126.5C 116.844,116.51 118.844,107.51 125,99.5C 144.035,80.2983 163.201,61.2983 182.5,42.5 Z"/></g>
<g><path style="opacity:1" fill="#f1a569" d="M 273.5,43.5 C 276.932,52.7084 275.432,61.0417 269,68.5C 265.902,72.1074 262.402,75.1074 258.5,77.5C 253.869,73.3701 249.369,69.0367 245,64.5C 244.333,63.5 244.333,62.5 245,61.5C 250.5,56 256,50.5 261.5,45C 265.444,42.6473 269.444,42.1473 273.5,43.5 Z"/></g>
<g><path style="opacity:1" fill="#e39655" d="M 273.5,43.5 C 283.255,46.897 286.421,53.5637 283,63.5C 277.532,69.9689 271.699,76.1356 265.5,82C 262.332,82.0317 259.999,80.5317 258.5,77.5C 262.402,75.1074 265.902,72.1074 269,68.5C 275.432,61.0417 276.932,52.7084 273.5,43.5 Z"/></g>
<g><path style="opacity:1" fill="#786b77" d="M 124.5,48.5 C 128.049,48.4392 131.382,49.2725 134.5,51C 137.986,52.996 141.319,55.1627 144.5,57.5C 139.188,63.479 133.521,69.1457 127.5,74.5C 122.119,68.5105 120.286,61.5105 122,53.5C 122.374,51.5087 123.207,49.842 124.5,48.5 Z"/></g>
<g><path style="opacity:1" fill="#f1a569" d="M 296.5,88.5 C 296.737,92.4102 295.904,96.0769 294,99.5C 281.167,112.333 268.333,125.167 255.5,138C 252.794,139.908 249.794,140.741 246.5,140.5C 243.008,136.359 242.008,131.692 243.5,126.5C 261.451,124.385 270.951,114.385 272,96.5C 275.581,92.2477 279.748,88.7477 284.5,86C 289.022,84.8899 293.022,85.7233 296.5,88.5 Z"/></g>
<g><path style="opacity:1" fill="#e79957" d="M 296.5,88.5 C 303.399,93.2846 305.233,99.618 302,107.5C 289.105,121.064 275.605,133.897 261.5,146C 255.432,146.961 250.432,145.128 246.5,140.5C 249.794,140.741 252.794,139.908 255.5,138C 268.333,125.167 281.167,112.333 294,99.5C 295.904,96.0769 296.737,92.4102 296.5,88.5 Z"/></g>
<g><path style="opacity:1" fill="#665c66" d="M 293.5,210.5 C 293.489,208.983 292.823,207.816 291.5,207C 254.662,172.328 217.995,137.494 181.5,102.5C 183.628,99.8697 185.961,97.3697 188.5,95C 190.635,94.3653 192.635,94.6986 194.5,96C 200.5,102 206.5,108 212.5,114C 217.297,117.483 222.464,120.316 228,122.5C 226.132,138.933 232.299,151.099 246.5,159C 250.014,160.562 253.681,161.395 257.5,161.5C 261.355,184.184 274.355,192.351 296.5,186C 298.609,184.859 300.442,183.359 302,181.5C 305.5,185 309,188.5 312.5,192C 306.298,198.369 299.965,204.536 293.5,210.5 Z"/></g>
<g><path style="opacity:1" fill="#786b77" d="M 181.5,102.5 C 217.995,137.494 254.662,172.328 291.5,207C 292.823,207.816 293.489,208.983 293.5,210.5C 288.826,216.355 283.493,221.188 277.5,225C 246.387,193.887 215.221,162.721 184,131.5C 182.093,123.609 178.926,116.275 174.5,109.5C 176.521,106.812 178.854,104.479 181.5,102.5 Z"/></g>
<g><path style="opacity:1" fill="#fbba84" d="M 158.5,114.5 C 167.6,123.648 170.767,134.648 168,147.5C 166.556,152.213 164.723,156.713 162.5,161C 162.944,164.059 164.277,166.559 166.5,168.5C 163.023,173.721 159.189,173.721 155,168.5C 155.756,159.866 156.589,151.2 157.5,142.5C 157.333,139.5 157.167,136.5 157,133.5C 155.247,130 154.08,126.333 153.5,122.5C 153.51,118.819 155.177,116.152 158.5,114.5 Z"/></g>
<g><path style="opacity:1" fill="#f4a86b" d="M 315.5,128.5 C 315.592,132.059 314.759,135.392 313,138.5C 301.934,150.068 290.434,161.068 278.5,171.5C 273.663,168.502 271.83,164.169 273,158.5C 283.5,148 294,137.5 304.5,127C 308.402,126.112 312.069,126.612 315.5,128.5 Z"/></g>
<g><path style="opacity:1" fill="#e59856" d="M 315.5,128.5 C 320.487,132.543 321.653,137.543 319,143.5C 309.5,153 300,162.5 290.5,172C 286.278,174.13 282.278,173.964 278.5,171.5C 290.434,161.068 301.934,150.068 313,138.5C 314.759,135.392 315.592,132.059 315.5,128.5 Z"/></g>
<g><path style="opacity:1" fill="#fcbb84" d="M 155.5,237.5 C 161.631,231.87 167.631,226.036 173.5,220C 177.841,216.828 182.508,214.161 187.5,212C 199.023,210.067 210.523,208.233 222,206.5C 222.667,205.167 222.667,203.833 222,202.5C 207.938,188.271 193.772,174.271 179.5,160.5C 180.179,157.293 181.346,154.293 183,151.5C 204.014,172.347 224.847,193.347 245.5,214.5C 243.075,216.145 240.408,217.311 237.5,218C 228.202,219.254 218.868,220.254 209.5,221C 199.803,222.85 191.136,226.85 183.5,233C 177.985,238.682 172.319,244.182 166.5,249.5C 162.392,245.734 158.726,241.734 155.5,237.5 Z"/></g>
<g><path style="opacity:1" fill="#e3dfe3" d="M 143.5,248.5 C 137.167,255.5 130.5,262.167 123.5,268.5C 98.1732,243.34 72.6732,218.34 47,193.5C 46.3333,192.833 46.3333,192.167 47,191.5C 53.6667,184.833 60.3333,178.167 67,171.5C 92.7016,197.035 118.202,222.701 143.5,248.5 Z"/></g>
<g><path style="opacity:1" fill="#d5ced4" d="M 375.5,243.5 C 379.194,247.86 383.194,251.86 387.5,255.5C 385.193,259.066 385.026,262.732 387,266.5C 407.167,286.667 427.333,306.833 447.5,327C 442.609,328.114 437.609,328.614 432.5,328.5C 426.251,328.706 420.251,328.04 414.5,326.5C 382.729,295.897 351.062,265.063 319.5,234C 314.607,229.599 309.607,225.432 304.5,221.5C 310.175,214.992 316.342,208.992 323,203.5C 337.126,216.625 350.959,230.125 364.5,244C 368.237,245.889 371.904,245.722 375.5,243.5 Z"/></g>
<g><path style="opacity:0.992" fill="#6ed6a2" d="M 112.5,280.5 C 77.7013,314.799 43.0346,349.299 8.5,384C 7.90558,384.464 7.23891,384.631 6.5,384.5C 6.5,332.5 6.5,280.5 6.5,228.5C 8.3885,227.678 10.3885,226.845 12.5,226C 20.0143,218.319 27.681,210.819 35.5,203.5C 61.521,228.854 87.1877,254.521 112.5,280.5 Z"/></g>
<g><path style="opacity:1" fill="#e4e0e4" d="M 304.5,221.5 C 309.607,225.432 314.607,229.599 319.5,234C 351.062,265.063 382.729,295.897 414.5,326.5C 406.013,324.595 397.68,322.095 389.5,319C 377.131,315.929 364.798,315.929 352.5,319C 347.472,321.362 342.472,323.362 337.5,325C 314.653,302.32 291.986,279.486 269.5,256.5C 280.854,244.479 292.521,232.812 304.5,221.5 Z"/></g>
<g><path style="opacity:1" fill="#d6cfd5" d="M 143.5,248.5 C 151.298,255.798 158.965,263.298 166.5,271C 159.667,277.833 152.833,284.667 146,291.5C 138.298,283.965 130.798,276.298 123.5,268.5C 130.5,262.167 137.167,255.5 143.5,248.5 Z"/></g>
<g><path style="opacity:1" fill="#3ec2a3" d="M 112.5,280.5 C 120.746,286.949 128.079,294.283 134.5,302.5C 122.848,314.653 111.014,326.653 99,338.5C 95.9237,342.331 95.7571,346.331 98.5,350.5C 94.8333,354.5 91.1667,358.5 87.5,362.5C 83.5726,360.233 79.5726,360.066 75.5,362C 52.632,385.035 29.632,407.868 6.5,430.5C 6.5,415.167 6.5,399.833 6.5,384.5C 7.23891,384.631 7.90558,384.464 8.5,384C 43.0346,349.299 77.7013,314.799 112.5,280.5 Z"/></g>
<g><path style="opacity:1" fill="#f74253" d="M 439.5,343.5 C 438.737,344.268 437.737,344.768 436.5,345C 447.702,356.369 459.035,367.535 470.5,378.5C 438.533,381.179 408.533,374.346 380.5,358C 370.056,352.029 360.223,345.196 351,337.5C 350.544,336.256 351.044,335.423 352.5,335C 361.231,331.74 370.231,330.74 379.5,332C 390.429,335.532 401.429,338.865 412.5,342C 421.463,343.165 430.463,343.665 439.5,343.5 Z"/></g>
<g><path style="opacity:1" fill="#f43049" d="M 470.5,378.5 C 459.035,367.535 447.702,356.369 436.5,345C 437.737,344.768 438.737,344.268 439.5,343.5C 446.644,342.754 453.644,341.587 460.5,340C 471.167,350.667 481.833,361.333 492.5,372C 485.589,375.726 478.255,377.893 470.5,378.5 Z"/></g>
<g><path style="opacity:0.955" fill="#000101" d="M 87.5,362.5 C 88.9869,365.913 88.8203,369.247 87,372.5C 61.8333,397.667 36.6667,422.833 11.5,448C 7.06189,449.727 3.06189,448.894 -0.5,445.5C -0.5,442.5 -0.5,439.5 -0.5,436.5C 1.83333,434.5 4.16667,432.5 6.5,430.5C 29.632,407.868 52.632,385.035 75.5,362C 79.5726,360.066 83.5726,360.233 87.5,362.5 Z"/></g>
<g><path style="opacity:0.953" fill="#010000" d="M 325.5,382.5 C 332.515,380.926 337.681,383.26 341,389.5C 349.061,401.232 356.728,413.232 364,425.5C 372.502,438.663 375.835,452.996 374,468.5C 369.282,487.218 357.449,498.385 338.5,502C 319.285,504.798 303.785,498.631 292,483.5C 283.68,467.714 283.347,451.714 291,435.5C 300.546,416.367 312.046,398.7 325.5,382.5 Z"/></g>
<g><path style="opacity:1" fill="#f23048" d="M 324.5,486.5 C 339.486,472.737 342.653,456.404 334,437.5C 330.329,429.487 326.163,421.82 321.5,414.5C 323.775,410.385 326.275,406.385 329,402.5C 329.667,401.167 330.333,401.167 331,402.5C 341.631,417.155 350.631,432.822 358,449.5C 361.563,475.43 350.396,487.763 324.5,486.5 Z"/></g>
<g><path style="opacity:1" fill="#f84354" d="M 321.5,414.5 C 326.163,421.82 330.329,429.487 334,437.5C 342.653,456.404 339.486,472.737 324.5,486.5C 309.007,483.669 301.007,474.335 300.5,458.5C 300.726,453.595 301.893,448.928 304,444.5C 309.103,433.945 314.936,423.945 321.5,414.5 Z"/></g>
</svg>
