<?xml version="1.0" encoding="UTF-8"?>
<!DOCTYPE svg PUBLIC "-//W3C//DTD SVG 1.1//EN" "http://www.w3.org/Graphics/SVG/1.1/DTD/svg11.dtd">
<svg xmlns="http://www.w3.org/2000/svg" version="1.1" width="512px" height="512px" style="shape-rendering:geometricPrecision; text-rendering:geometricPrecision; image-rendering:optimizeQuality; fill-rule:evenodd; clip-rule:evenodd" xmlns:xlink="http://www.w3.org/1999/xlink">
<g><path style="opacity:0.999" fill="#fecf6a" d="M 232.5,-0.5 C 244.167,-0.5 255.833,-0.5 267.5,-0.5C 335.671,6.66731 389.837,38.0006 430,93.5C 480.759,169.403 493.426,251.403 468,339.5C 446.846,409.979 403.346,461.479 337.5,494C 318.486,502.289 298.819,507.789 278.5,510.5C 278.5,510.833 278.5,511.167 278.5,511.5C 263.167,511.5 247.833,511.5 232.5,511.5C 142.856,500.612 75.3562,456.279 30,378.5C 13.3053,347.029 3.1386,313.696 -0.5,278.5C -0.5,263.167 -0.5,247.833 -0.5,232.5C 10.3875,142.857 54.7208,75.3573 132.5,30C 163.971,13.3053 197.304,3.1386 232.5,-0.5 Z"/></g>
<g><path style="opacity:0.979" fill="#ffb35c" d="M 267.5,-0.5 C 271.167,-0.5 274.833,-0.5 278.5,-0.5C 368.144,10.3879 435.644,54.7213 481,132.5C 497.695,163.971 507.861,197.304 511.5,232.5C 511.5,247.833 511.5,263.167 511.5,278.5C 501.695,362.756 461.362,427.923 390.5,474C 356.101,495.077 318.768,507.244 278.5,510.5C 298.819,507.789 318.486,502.289 337.5,494C 403.346,461.479 446.846,409.979 468,339.5C 493.426,251.403 480.759,169.403 430,93.5C 389.837,38.0006 335.671,6.66731 267.5,-0.5 Z"/></g>
<g><path style="opacity:1" fill="#fefefd" d="M 180.5,147.5 C 186.028,152.541 189.528,158.875 191,166.5C 193.094,173.566 193.594,180.566 192.5,187.5C 188.091,179.742 181.424,176.909 172.5,179C 168.281,181.552 165.114,185.052 163,189.5C 162.5,201.162 162.333,212.829 162.5,224.5C 152.167,224.5 141.833,224.5 131.5,224.5C 131.333,212.162 131.5,199.829 132,187.5C 137.847,161.474 154.014,148.141 180.5,147.5 Z"/></g>
<g><path style="opacity:1" fill="#fefefe" d="M 335.5,147.5 C 344.94,158.932 348.606,171.932 346.5,186.5C 341.913,179.8 335.58,177.3 327.5,179C 323,180.833 319.833,184 318,188.5C 317.5,198.828 317.334,209.161 317.5,219.5C 317.071,235.913 324.737,242.08 340.5,238C 343.303,236.549 345.303,234.382 346.5,231.5C 347.901,243.335 345.735,254.669 340,265.5C 338.941,267.659 337.441,269.326 335.5,270.5C 314.282,270.975 299.115,261.642 290,242.5C 289.178,240.212 288.511,237.878 288,235.5C 286.407,218.545 286.073,201.545 287,184.5C 294.069,160.267 310.235,147.934 335.5,147.5 Z"/></g>
<g><path style="opacity:1" fill="#e2f0f3" d="M 180.5,147.5 C 196.795,148.558 209.295,155.891 218,169.5C 220.59,174.272 222.59,179.272 224,184.5C 224.5,197.829 224.667,211.163 224.5,224.5C 214.167,224.5 203.833,224.5 193.5,224.5C 193.813,212.087 193.479,199.753 192.5,187.5C 193.594,180.566 193.094,173.566 191,166.5C 189.528,158.875 186.028,152.541 180.5,147.5 Z"/></g>
<g><path style="opacity:1" fill="#e3f0f2" d="M 335.5,147.5 C 357.331,149.828 371.497,161.495 378,182.5C 379.588,198.454 379.921,214.454 379,230.5C 373.853,254.152 359.353,267.485 335.5,270.5C 337.441,269.326 338.941,267.659 340,265.5C 345.735,254.669 347.901,243.335 346.5,231.5C 347.09,230.234 347.59,228.901 348,227.5C 348.827,214.993 348.66,202.66 347.5,190.5C 347.567,189.041 347.234,187.708 346.5,186.5C 348.606,171.932 344.94,158.932 335.5,147.5 Z"/></g>
<g><path style="opacity:1" fill="#646ea5" d="M 192.5,187.5 C 193.479,199.753 193.813,212.087 193.5,224.5C 183.167,224.5 172.833,224.5 162.5,224.5C 162.333,212.829 162.5,201.162 163,189.5C 165.114,185.052 168.281,181.552 172.5,179C 181.424,176.909 188.091,179.742 192.5,187.5 Z"/></g>
<g><path style="opacity:1" fill="#534cb2" d="M 346.5,186.5 C 347.234,187.708 347.567,189.041 347.5,190.5C 347.666,199.839 347.5,209.173 347,218.5C 341.218,209.228 333.384,207.062 323.5,212C 320.879,214.114 318.879,216.614 317.5,219.5C 317.334,209.161 317.5,198.828 318,188.5C 319.833,184 323,180.833 327.5,179C 335.58,177.3 341.913,179.8 346.5,186.5 Z"/></g>
<g><path style="opacity:1" fill="#646ea5" d="M 347.5,190.5 C 348.66,202.66 348.827,214.993 348,227.5C 347.59,228.901 347.09,230.234 346.5,231.5C 345.303,234.382 343.303,236.549 340.5,238C 324.737,242.08 317.071,235.913 317.5,219.5C 318.879,216.614 320.879,214.114 323.5,212C 333.384,207.062 341.218,209.228 347,218.5C 347.5,209.173 347.666,199.839 347.5,190.5 Z"/></g>
<g><path style="opacity:1" fill="#feb35c" d="M 131.5,224.5 C 141.833,224.5 152.167,224.5 162.5,224.5C 172.833,224.5 183.167,224.5 193.5,224.5C 203.833,224.5 214.167,224.5 224.5,224.5C 234.833,224.5 245.167,224.5 255.5,224.5C 255.5,245.167 255.5,265.833 255.5,286.5C 187.468,286.98 119.468,286.48 51.5,285C 33.1632,276.158 26.9966,261.991 33,242.5C 37.7697,233.731 44.9364,227.898 54.5,225C 80.1645,224.5 105.831,224.333 131.5,224.5 Z"/></g>
<g><path style="opacity:1" fill="#ff433b" d="M 246.5,308.5 C 264.584,306.583 280.084,311.916 293,324.5C 295.565,333.608 292.065,337.441 282.5,336C 269.597,323.938 254.93,321.272 238.5,328C 234.656,330.422 230.99,333.089 227.5,336C 218.433,336.938 215.266,333.105 218,324.5C 226.165,316.671 235.665,311.337 246.5,308.5 Z"/></g>
<g><path style="opacity:1" fill="#ff974f" d="M 268.5,354.5 C 259.833,355.833 251.167,355.833 242.5,354.5C 238.785,343.364 242.952,338.697 255,340.5C 258.5,340.667 262,340.833 265.5,341C 270.966,344.379 271.966,348.879 268.5,354.5 Z"/></g>
<g><path style="opacity:1" fill="#ffb25b" d="M 242.5,354.5 C 251.167,355.833 259.833,355.833 268.5,354.5C 273.894,368.067 269.561,376.067 255.5,378.5C 252.705,378.547 250.039,378.047 247.5,377C 240.279,370.744 238.612,363.244 242.5,354.5 Z"/></g>
</svg>
