<?xml version="1.0" encoding="iso-8859-1"?>
<!-- Generator: Adobe Illustrator 19.0.0, SVG Export Plug-In . SVG Version: 6.00 Build 0)  -->
<svg version="1.1" id="Layer_1" xmlns="http://www.w3.org/2000/svg" xmlns:xlink="http://www.w3.org/1999/xlink" x="0px" y="0px"
	 viewBox="0 0 512.02 512.02" style="enable-background:new 0 0 512.02 512.02;" xml:space="preserve">
<g transform="translate(0 -1)">
	<path style="fill:#007AAA;" d="M61.813,5.424c33.545,0,61.793,28.248,61.793,61.793c0,35.31-30.014,62.676-61.793,61.793
		C29.151,129.893,0.02,102.527,0.02,67.217C-0.863,32.789,27.386,5.424,61.813,5.424"/>
	<path style="fill:#007AAA;" d="M96.241,508.596H25.62c-9.71,0-17.655-7.945-17.655-17.655V181.976
		c0-9.71,7.062-17.655,16.772-17.655h71.503c9.71,0,17.655,7.945,17.655,17.655v309.848
		C113.896,500.651,105.951,508.596,96.241,508.596"/>
	<path style="fill:#007AAA;" d="M511.137,272.017c0-65.324-48.552-116.524-113.876-116.524h-18.538
		c-35.31,0-69.738,16.772-88.276,44.138c-6.179,6.179-8.828,8.828-8.828,8.828v-35.31c0-3.531-5.297-8.828-8.828-8.828h-88.276
		c-3.531,0-8.828,3.531-8.828,7.945v329.269c0,3.531,5.297,7.062,8.828,7.062h97.103c3.531,0,8.828-3.531,8.828-7.062V310.858
		c0-32.662,24.717-60.028,57.379-60.91c16.772,0,31.779,6.179,43.255,17.655c10.593,10.593,15.007,25.6,15.007,42.372v189.793
		c0,3.531,5.297,8.828,8.828,8.828h88.276c3.531,0,8.828-5.297,8.828-8.828V272.017H511.137z"/>
</g>
<g>
</g>
<g>
</g>
<g>
</g>
<g>
</g>
<g>
</g>
<g>
</g>
<g>
</g>
<g>
</g>
<g>
</g>
<g>
</g>
<g>
</g>
<g>
</g>
<g>
</g>
<g>
</g>
<g>
</g>
</svg>
