<svg id="Capa_1" enable-background="new 0 0 500.212 500.212" height="512" viewBox="0 0 500.212 500.212" width="512" xmlns="http://www.w3.org/2000/svg"><circle cx="250.106" cy="255.212" fill="#35528c" r="245"/><path d="m164.714 128.696c.115-47.367 38.744-85.81 86.111-85.695s85.81 38.744 85.695 86.111l-.194 80.208 43 .104.194-80.208c.172-71.078-57.514-129.044-128.592-129.215s-129.042 57.513-129.214 128.591l-.194 80.208 43 .104z" fill="#fec753"/><path d="m339.814 169.816h36.112v43h-36.112z" fill="#e0a336" transform="matrix(.002 -1 1 .002 165.69 548.722)"/><path d="m251.376 3.063c1.804-.396 1.544-3.056-.303-3.062h-.144c-71.179-.212-129.042 57.339-129.214 128.518l-.086 35.383-.105 43.347c-.002.857.691 1.554 1.548 1.556l26.858.065 13.038.032c.857.002 1.554-.691 1.556-1.548l.101-41.795c.002-.857-.691-1.554-1.548-1.556-7.201-.017-13.024-5.869-13.007-13.07l.054-22.271c.148-61.482 43.539-112.935 101.252-125.599z" fill="#e0a336"/><path d="m414.488 191.247-328.042-.793c-8.284-.02-15.016 6.679-15.036 14.964l-.324 134.08-.2 82.744c44.586 47.824 108.085 77.799 178.628 77.969 70.763.171 134.579-29.684 179.415-77.554l.169-69.962.354-146.412c.02-8.284-6.679-15.016-14.964-15.036z" fill="#ef3a50"/><path d="m414.488 191.247-328.042-.793c-8.284-.02-15.016 6.679-15.036 14.964l-.324 134.08-.2 82.744c44.586 47.824 108.085 77.799 178.628 77.969 70.763.171 134.579-29.684 179.415-77.554l.169-69.962.354-146.412c.02-8.284-6.679-15.016-14.964-15.036z" fill="#fe5d6d"/><path d="m143.85 205.593c.02-8.284 6.752-14.984 15.036-14.964l-72.44-.175c-8.284-.02-15.016 6.679-15.036 14.964l-.324 134.08-.2 82.744c20.491 21.979 44.984 40.173 72.312 53.451l.329-136.021z" fill="#d33c60"/><circle cx="383.209" cy="392.48" fill="#ff8395" r="24.183"/><circle cx="345.087" cy="430.419" fill="#ff8395" r="14.262"/><path d="m281.959 316.028c.046-19.004-15.982-34.295-35.275-33.004-16.388 1.097-29.636 14.419-30.659 30.812-.518 8.296 2.038 15.982 6.635 22.036 2.86 3.766 4.499 8.315 4.487 13.043l-.087 36.146c-.017 7.112 5.787 12.945 12.899 12.962l18.407.044c7.112.017 12.945-5.787 12.962-12.899l.09-37.215c.011-4.53 1.524-8.904 4.198-12.561 3.972-5.43 6.326-12.12 6.343-19.364z" fill="#1f3a60"/><path d="m243.06 385.062.087-36.146c.011-4.728-1.627-9.278-4.487-13.043-4.598-6.054-7.153-13.74-6.635-22.036.901-14.436 11.283-26.485 24.94-29.907-3.262-.813-6.715-1.144-10.281-.905-16.388 1.097-29.636 14.419-30.659 30.812-.518 8.296 2.038 15.982 6.635 22.036 2.86 3.766 4.499 8.315 4.487 13.043l-.087 36.146c-.017 7.112 5.787 12.945 12.899 12.962l18.407.044c.256.001.507-.023.759-.037l-3.167-.008c-7.11-.016-12.915-5.849-12.898-12.961z" fill="#35528c"/></svg>