<?xml version="1.0" encoding="UTF-8"?>
<!DOCTYPE svg PUBLIC "-//W3C//DTD SVG 1.1//EN" "http://www.w3.org/Graphics/SVG/1.1/DTD/svg11.dtd">
<svg xmlns="http://www.w3.org/2000/svg" version="1.1" width="512px" height="512px" style="shape-rendering:geometricPrecision; text-rendering:geometricPrecision; image-rendering:optimizeQuality; fill-rule:evenodd; clip-rule:evenodd" xmlns:xlink="http://www.w3.org/1999/xlink">
<g><path style="opacity:0.993" fill="#fe42c0" d="M 233.5,-0.5 C 248.5,-0.5 263.5,-0.5 278.5,-0.5C 366.197,10.2481 432.864,53.2481 478.5,128.5C 471.849,139.116 464.682,149.449 457,159.5C 451.369,167.298 444.869,174.298 437.5,180.5C 408.561,115.006 358.894,75.1731 288.5,61C 277.583,59.0602 266.583,58.2269 255.5,58.5C 194.189,59.409 143.689,83.0756 104,129.5C 91.7808,145.272 81.6141,162.272 73.5,180.5C 65.1626,172.327 57.3293,163.661 50,154.5C 43.912,145.929 38.0786,137.262 32.5,128.5C 78.2721,52.7796 145.272,9.77955 233.5,-0.5 Z"/></g>
<g><path style="opacity:1" fill="#fefdfe" d="M 255.5,58.5 C 255.5,59.8333 255.5,61.1667 255.5,62.5C 253.901,62.2322 252.568,62.5655 251.5,63.5C 246.013,64.8133 242.18,68.1466 240,73.5C 240.109,81.2211 240.942,88.8878 242.5,96.5C 225.695,97.7013 209.695,101.701 194.5,108.5C 154.77,125.897 126.436,154.564 109.5,194.5C 94.5269,234.303 94.8603,273.97 110.5,313.5C 127.254,353.921 155.921,382.254 196.5,398.5C 215.121,407.067 234.787,411.067 255.5,410.5C 255.5,423.167 255.5,435.833 255.5,448.5C 237.773,448.777 220.439,446.443 203.5,441.5C 128.885,417.716 82.3846,367.716 64,291.5C 56.9907,253.598 60.1573,216.598 73.5,180.5C 81.6141,162.272 91.7808,145.272 104,129.5C 143.689,83.0756 194.189,59.409 255.5,58.5 Z"/></g>
<g><path style="opacity:1" fill="#dfeff6" d="M 255.5,58.5 C 266.583,58.2269 277.583,59.0602 288.5,61C 358.894,75.1731 408.561,115.006 437.5,180.5C 462.944,254.599 451.111,321.932 402,382.5C 376.167,411.171 344.667,430.837 307.5,441.5C 290.495,445.959 273.161,448.293 255.5,448.5C 255.5,435.833 255.5,423.167 255.5,410.5C 277.163,410.412 297.83,406.079 317.5,397.5C 356.978,380.689 384.645,352.355 400.5,312.5C 412.546,283.579 415.713,253.579 410,222.5C 408.062,212.071 404.895,202.071 400.5,192.5C 383.11,152.777 354.444,124.444 314.5,107.5C 299.713,101.637 284.379,97.9701 268.5,96.5C 270.058,88.8878 270.891,81.2211 271,73.5C 268.043,66.7674 262.876,63.1008 255.5,62.5C 255.5,61.1667 255.5,59.8333 255.5,58.5 Z"/></g>
<g><path style="opacity:1" fill="#23118a" d="M 251.5,63.5 C 252.833,63.5 254.167,63.5 255.5,63.5C 255.721,66.2788 255.388,68.9455 254.5,71.5C 248.627,73.3535 247.127,77.0201 250,82.5C 251.113,83.305 252.279,83.9717 253.5,84.5C 254.813,96.2758 255.48,108.276 255.5,120.5C 255.5,132.338 255.167,144.005 254.5,155.5C 251.246,135.561 247.246,115.894 242.5,96.5C 240.942,88.8878 240.109,81.2211 240,73.5C 242.18,68.1466 246.013,64.8133 251.5,63.5 Z"/></g>
<g><path style="opacity:1" fill="#1c0965" d="M 251.5,63.5 C 252.568,62.5655 253.901,62.2322 255.5,62.5C 262.876,63.1008 268.043,66.7674 271,73.5C 270.891,81.2211 270.058,88.8878 268.5,96.5C 263.91,116.612 259.744,136.945 256,157.5C 255.617,156.944 255.117,156.611 254.5,156.5C 254.5,156.167 254.5,155.833 254.5,155.5C 255.167,144.005 255.5,132.338 255.5,120.5C 255.48,108.276 254.813,96.2758 253.5,84.5C 258.713,85.2383 261.713,83.0716 262.5,78C 261.465,73.7962 258.798,71.6295 254.5,71.5C 255.388,68.9455 255.721,66.2788 255.5,63.5C 254.167,63.5 252.833,63.5 251.5,63.5 Z"/></g>
<g><path style="opacity:1" fill="#e2ebf4" d="M 254.5,71.5 C 258.798,71.6295 261.465,73.7962 262.5,78C 261.713,83.0716 258.713,85.2383 253.5,84.5C 252.279,83.9717 251.113,83.305 250,82.5C 247.127,77.0201 248.627,73.3535 254.5,71.5 Z"/></g>
<g><path style="opacity:1" fill="#fdbe06" d="M 268.5,96.5 C 284.379,97.9701 299.713,101.637 314.5,107.5C 298.893,147.32 282.893,186.986 266.5,226.5C 262.985,225.081 259.319,224.414 255.5,224.5C 255.812,201.788 255.479,179.121 254.5,156.5C 255.117,156.611 255.617,156.944 256,157.5C 259.744,136.945 263.91,116.612 268.5,96.5 Z"/></g>
<g><path style="opacity:1" fill="#fee60b" d="M 242.5,96.5 C 247.246,115.894 251.246,135.561 254.5,155.5C 254.5,155.833 254.5,156.167 254.5,156.5C 255.479,179.121 255.812,201.788 255.5,224.5C 252.43,224.368 249.43,224.701 246.5,225.5C 243.566,224.711 241.732,222.711 241,219.5C 225.59,182.43 210.09,145.43 194.5,108.5C 209.695,101.701 225.695,97.7013 242.5,96.5 Z"/></g>
<g><path style="opacity:1" fill="#57c127" d="M 314.5,107.5 C 354.444,124.444 383.11,152.777 400.5,192.5C 361.166,208.834 321.833,225.167 282.5,241.5C 278.806,234.808 273.473,229.808 266.5,226.5C 282.893,186.986 298.893,147.32 314.5,107.5 Z"/></g>
<g><path style="opacity:1" fill="#febf05" d="M 194.5,108.5 C 210.09,145.43 225.59,182.43 241,219.5C 241.732,222.711 243.566,224.711 246.5,225.5C 238.419,228.889 232.419,234.556 228.5,242.5C 189.129,225.711 149.462,209.711 109.5,194.5C 126.436,154.564 154.77,125.897 194.5,108.5 Z"/></g>
<g><path style="opacity:1" fill="#e102ad" d="M 32.5,128.5 C 38.0786,137.262 43.912,145.929 50,154.5C 57.3293,163.661 65.1626,172.327 73.5,180.5C 60.1573,216.598 56.9907,253.598 64,291.5C 82.3846,367.716 128.885,417.716 203.5,441.5C 201.164,450.85 198.831,460.183 196.5,469.5C 193.055,480.27 190.055,491.27 187.5,502.5C 108.554,479.727 52.3873,430.727 19,355.5C 8.86416,330.622 2.36416,304.955 -0.5,278.5C -0.5,263.167 -0.5,247.833 -0.5,232.5C 3.24393,195.599 14.2439,160.932 32.5,128.5 Z"/></g>
<g><path style="opacity:1" fill="#e102ad" d="M 478.5,128.5 C 496.756,160.931 507.756,195.597 511.5,232.5C 511.5,247.833 511.5,263.167 511.5,278.5C 501.693,362.758 461.36,427.925 390.5,474C 369.573,486.796 347.24,496.296 323.5,502.5C 320.945,491.27 317.945,480.27 314.5,469.5C 312.167,460.167 309.833,450.833 307.5,441.5C 344.667,430.837 376.167,411.171 402,382.5C 451.111,321.932 462.944,254.599 437.5,180.5C 444.869,174.298 451.369,167.298 457,159.5C 464.682,149.449 471.849,139.116 478.5,128.5 Z"/></g>
<g><path style="opacity:1" fill="#abe134" d="M 400.5,192.5 C 404.895,202.071 408.062,212.071 410,222.5C 415.713,253.579 412.546,283.579 400.5,312.5C 361.171,296.503 321.838,280.503 282.5,264.5C 285.024,256.808 285.024,249.141 282.5,241.5C 321.833,225.167 361.166,208.834 400.5,192.5 Z"/></g>
<g><path style="opacity:1" fill="#fe3500" d="M 109.5,194.5 C 149.462,209.711 189.129,225.711 228.5,242.5C 225.891,249.819 225.891,257.153 228.5,264.5C 189.162,280.835 149.828,297.168 110.5,313.5C 94.8603,273.97 94.5269,234.303 109.5,194.5 Z"/></g>
<g><path style="opacity:1" fill="#1d0763" d="M 255.5,224.5 C 255.5,229.833 255.5,235.167 255.5,240.5C 243.937,242.903 240.437,249.57 245,260.5C 247.029,263.596 249.862,265.262 253.5,265.5C 255.37,270.532 256.037,275.865 255.5,281.5C 253.833,281.5 252.167,281.5 250.5,281.5C 248.5,281.167 246.5,280.833 244.5,280.5C 237.5,276.833 232.167,271.5 228.5,264.5C 225.891,257.153 225.891,249.819 228.5,242.5C 232.419,234.556 238.419,228.889 246.5,225.5C 249.43,224.701 252.43,224.368 255.5,224.5 Z"/></g>
<g><path style="opacity:1" fill="#0d023e" d="M 255.5,224.5 C 259.319,224.414 262.985,225.081 266.5,226.5C 273.473,229.808 278.806,234.808 282.5,241.5C 285.024,249.141 285.024,256.808 282.5,264.5C 279.194,271.139 274.194,276.139 267.5,279.5C 263.658,281.002 259.658,281.668 255.5,281.5C 256.037,275.865 255.37,270.532 253.5,265.5C 262.072,265.925 267.072,261.925 268.5,253.5C 267.808,245.474 263.475,241.141 255.5,240.5C 255.5,235.167 255.5,229.833 255.5,224.5 Z"/></g>
<g><path style="opacity:1" fill="#e3ecf3" d="M 255.5,240.5 C 263.475,241.141 267.808,245.474 268.5,253.5C 267.072,261.925 262.072,265.925 253.5,265.5C 249.862,265.262 247.029,263.596 245,260.5C 240.437,249.57 243.937,242.903 255.5,240.5 Z"/></g>
<g><path style="opacity:1" fill="#f10338" d="M 228.5,264.5 C 232.167,271.5 237.5,276.833 244.5,280.5C 227.943,319.613 211.943,358.946 196.5,398.5C 155.921,382.254 127.254,353.921 110.5,313.5C 149.828,297.168 189.162,280.835 228.5,264.5 Z"/></g>
<g><path style="opacity:1" fill="#0d30e8" d="M 282.5,264.5 C 321.838,280.503 361.171,296.503 400.5,312.5C 384.645,352.355 356.978,380.689 317.5,397.5C 314.691,393.959 312.524,389.959 311,385.5C 296.205,350.249 281.705,314.915 267.5,279.5C 274.194,276.139 279.194,271.139 282.5,264.5 Z"/></g>
<g><path style="opacity:1" fill="#0cacfe" d="M 244.5,280.5 C 246.5,280.833 248.5,281.167 250.5,281.5C 251.919,282.451 253.585,282.784 255.5,282.5C 255.5,325.167 255.5,367.833 255.5,410.5C 234.787,411.067 215.121,407.067 196.5,398.5C 211.943,358.946 227.943,319.613 244.5,280.5 Z"/></g>
<g><path style="opacity:1" fill="#0270fe" d="M 267.5,279.5 C 281.705,314.915 296.205,350.249 311,385.5C 312.524,389.959 314.691,393.959 317.5,397.5C 297.83,406.079 277.163,410.412 255.5,410.5C 255.5,367.833 255.5,325.167 255.5,282.5C 253.585,282.784 251.919,282.451 250.5,281.5C 252.167,281.5 253.833,281.5 255.5,281.5C 259.658,281.668 263.658,281.002 267.5,279.5 Z"/></g>
<g><path style="opacity:1" fill="#0c003d" d="M 203.5,441.5 C 220.439,446.443 237.773,448.777 255.5,448.5C 255.5,458.833 255.5,469.167 255.5,479.5C 235.518,479.602 215.852,477.269 196.5,472.5C 196.5,471.5 196.5,470.5 196.5,469.5C 198.831,460.183 201.164,450.85 203.5,441.5 Z"/></g>
<g><path style="opacity:1" fill="#070224" d="M 307.5,441.5 C 309.833,450.833 312.167,460.167 314.5,469.5C 314.5,470.5 314.5,471.5 314.5,472.5C 295.14,477.337 275.473,479.671 255.5,479.5C 255.5,469.167 255.5,458.833 255.5,448.5C 273.161,448.293 290.495,445.959 307.5,441.5 Z"/></g>
<g><path style="opacity:0.994" fill="#210e89" d="M 196.5,469.5 C 196.5,470.5 196.5,471.5 196.5,472.5C 215.852,477.269 235.518,479.602 255.5,479.5C 255.5,490.167 255.5,500.833 255.5,511.5C 248.167,511.5 240.833,511.5 233.5,511.5C 217.926,509.793 202.593,506.793 187.5,502.5C 190.055,491.27 193.055,480.27 196.5,469.5 Z"/></g>
<g><path style="opacity:0.994" fill="#1a0563" d="M 314.5,469.5 C 317.945,480.27 320.945,491.27 323.5,502.5C 308.407,506.793 293.074,509.793 277.5,511.5C 270.167,511.5 262.833,511.5 255.5,511.5C 255.5,500.833 255.5,490.167 255.5,479.5C 275.473,479.671 295.14,477.337 314.5,472.5C 314.5,471.5 314.5,470.5 314.5,469.5 Z"/></g>
</svg>
