<?xml version="1.0" encoding="UTF-8"?>
<!DOCTYPE svg PUBLIC "-//W3C//DTD SVG 1.1//EN" "http://www.w3.org/Graphics/SVG/1.1/DTD/svg11.dtd">
<svg xmlns="http://www.w3.org/2000/svg" version="1.1" width="512px" height="512px" style="shape-rendering:geometricPrecision; text-rendering:geometricPrecision; image-rendering:optimizeQuality; fill-rule:evenodd; clip-rule:evenodd" xmlns:xlink="http://www.w3.org/1999/xlink">
<g><path style="opacity:0.997" fill="#facdb7" d="M 205.5,0.5 C 287.879,-3.89237 352.045,27.7743 398,95.5C 419.073,129.448 430.073,166.448 431,206.5C 450.667,236.167 470.333,265.833 490,295.5C 490.499,300.489 490.666,305.489 490.5,310.5C 467.167,310.5 443.833,310.5 420.5,310.5C 420.5,343.833 420.5,377.167 420.5,410.5C 397.167,410.5 373.833,410.5 350.5,410.5C 350.5,443.833 350.5,477.167 350.5,510.5C 273.833,510.5 197.167,510.5 120.5,510.5C 120.667,470.832 120.5,431.165 120,391.5C 64.7376,355.697 32.0709,305.03 22,239.5C 13.8831,166.839 35.7164,105.005 87.5,54C 121.241,23.9648 160.575,6.13145 205.5,0.5 Z"/></g>
<g><path style="opacity:1" fill="#404a7f" d="M 209.5,60.5 C 270.832,57.4133 317.998,81.4133 351,132.5C 379.924,188.221 376.591,241.888 341,293.5C 300.781,341.166 249.948,358.666 188.5,346C 129.84,327.339 94.3397,287.839 82,227.5C 75.6233,163.762 99.1233,114.595 152.5,80C 170.45,70.0044 189.45,63.5044 209.5,60.5 Z"/></g>
<g><path style="opacity:1" fill="#597ffe" d="M 295.5,269.5 C 290.609,246.348 277.943,229.015 257.5,217.5C 273.262,198.357 274.428,178.357 261,157.5C 246.233,141.146 228.4,136.646 207.5,144C 181.795,158.78 174.629,179.946 186,207.5C 188.52,211.224 191.02,214.891 193.5,218.5C 172.867,229.38 160.201,246.38 155.5,269.5C 131.917,242.004 125.084,210.671 135,175.5C 153.424,130.695 186.924,109.195 235.5,111C 280.253,118.088 308.086,143.588 319,187.5C 323.784,218.627 315.951,245.96 295.5,269.5 Z"/></g>
<g><path style="opacity:1" fill="#facdb8" d="M 257.5,217.5 C 236.458,234.411 215.124,234.744 193.5,218.5C 191.02,214.891 188.52,211.224 186,207.5C 174.629,179.946 181.795,158.78 207.5,144C 228.4,136.646 246.233,141.146 261,157.5C 274.428,178.357 273.262,198.357 257.5,217.5 Z"/></g>
<g><path style="opacity:1" fill="#2fe4a7" d="M 257.5,217.5 C 277.943,229.015 290.609,246.348 295.5,269.5C 269.868,295.834 238.868,305.334 202.5,298C 183.947,293.066 168.28,283.566 155.5,269.5C 160.201,246.38 172.867,229.38 193.5,218.5C 215.124,234.744 236.458,234.411 257.5,217.5 Z"/></g>
</svg>
