<?xml version="1.0" encoding="iso-8859-1"?>
<!-- Generator: Adobe Illustrator 19.0.0, SVG Export Plug-In . SVG Version: 6.00 Build 0)  -->
<svg version="1.1" id="Capa_1" xmlns="http://www.w3.org/2000/svg" xmlns:xlink="http://www.w3.org/1999/xlink" x="0px" y="0px"
	 viewBox="0 0 512 512" style="enable-background:new 0 0 512 512;" xml:space="preserve">
<path style="fill:#455A64;" d="M400,0H112C94.368,0,80,14.368,80,32v448c0,17.664,14.368,32,32,32h288c17.664,0,32-14.336,32-32V32
	C432,14.368,417.664,0,400,0z"/>
<rect x="112" y="64" style="fill:#FAFAFA;" width="288" height="352"/>
<path style="fill:#2196F3;" d="M224,224h-64c-8.832,0-16-7.168-16-16v-64c0-8.832,7.168-16,16-16h64c8.832,0,16,7.168,16,16v64
	C240,216.832,232.832,224,224,224z"/>
<path style="fill:#4CAF50;" d="M224,352h-64c-8.832,0-16-7.168-16-16v-64c0-8.832,7.168-16,16-16h64c8.832,0,16,7.168,16,16v64
	C240,344.832,232.832,352,224,352z"/>
<path style="fill:#FFC107;" d="M352,224h-64c-8.832,0-16-7.168-16-16v-64c0-8.832,7.168-16,16-16h64c8.832,0,16,7.168,16,16v64
	C368,216.832,360.832,224,352,224z"/>
<g>
</g>
<g>
</g>
<g>
</g>
<g>
</g>
<g>
</g>
<g>
</g>
<g>
</g>
<g>
</g>
<g>
</g>
<g>
</g>
<g>
</g>
<g>
</g>
<g>
</g>
<g>
</g>
<g>
</g>
</svg>
