<?xml version="1.0" encoding="iso-8859-1"?>
<!-- Generator: Adobe Illustrator 19.0.0, SVG Export Plug-In . SVG Version: 6.00 Build 0)  -->
<svg version="1.1" id="Layer_1" xmlns="http://www.w3.org/2000/svg" xmlns:xlink="http://www.w3.org/1999/xlink" x="0px" y="0px"
	 viewBox="0 0 291.728 291.728" style="enable-background:new 0 0 291.728 291.728;" xml:space="preserve">
<g>
	<path style="fill:#3DB39E;" d="M291.728,145.86l-39.489,28.52l19.949,44.439l-48.469,4.896l-4.896,48.479l-44.439-19.959
		l-28.52,39.489l-28.52-39.489l-44.439,19.959l-4.896-48.479l-48.469-4.896l19.949-44.439L0,145.86l39.489-28.511L19.53,72.909
		l48.479-4.896l4.905-48.479l44.43,19.959l28.52-39.489l28.52,39.489l44.439-19.959l4.887,48.479l48.479,4.896l-19.949,44.43
		C252.24,117.34,291.728,145.86,291.728,145.86z"/>
	<path style="fill:#FFFFFF;" d="M108.035,127.615c-2.836,0-4.942,1.76-4.942,4.914v23.834h-0.137L82.05,129.694
		c-0.857-1.14-2.899-2.088-4.158-2.088c-2.836,0-4.942,1.76-4.942,4.914v35.823c0,3.155,2.106,4.914,4.942,4.914
		c2.845,0,4.951-1.76,4.951-4.914v-23.514h0.137l20.907,26.35c0.921,1.14,2.89,2.088,4.149,2.088c2.845,0,4.951-1.76,4.951-4.914
		V132.53C112.986,129.384,110.88,127.615,108.035,127.615z M147.241,164.186h-12.209v-9.583h10.823c3.173,0,4.814-2.206,4.814-4.349
		c0-2.216-1.586-4.358-4.814-4.358h-10.823v-9.209h11.607c3.1,0,4.686-2.206,4.686-4.349c0-2.206-1.514-4.367-4.686-4.367h-16.357
		c-3.492,0-5.133,2.334-5.133,5.498v34.684c0,2.836,2.17,4.723,5.079,4.723h17.014c3.1,0,4.677-2.197,4.677-4.349
		C151.918,166.329,150.405,164.186,147.241,164.186z M214,127.615c-3.164,0-4.686,1.76-5.27,4.541l-5.607,26.797h-0.137
		l-8.571-27.617c-0.72-2.27-2.699-3.72-5.133-3.72s-4.422,1.45-5.142,3.72l-8.571,27.617h-0.128l-5.607-26.797
		c-0.593-2.781-2.106-4.541-5.279-4.541c-2.89,0-4.677,2.143-4.677,4.167l0.255,2.134l8.379,34.428
		c0.656,2.644,2.836,4.914,6.528,4.914c3.228,0,5.735-2.024,6.528-4.604l7.65-24.335h0.137l7.65,24.335
		c0.793,2.58,3.301,4.604,6.528,4.604c3.693,0,5.881-2.27,6.537-4.914l8.37-34.428l0.264-2.134
		C218.678,129.758,216.9,127.615,214,127.615z"/>
</g>
<g>
</g>
<g>
</g>
<g>
</g>
<g>
</g>
<g>
</g>
<g>
</g>
<g>
</g>
<g>
</g>
<g>
</g>
<g>
</g>
<g>
</g>
<g>
</g>
<g>
</g>
<g>
</g>
<g>
</g>
</svg>
