<svg height="512pt" viewBox="-24 0 512 512.032" width="512pt" xmlns="http://www.w3.org/2000/svg"><path d="m8.015625 7.976562h448v496.078126h-448zm0 0" fill="#434a54"/><path d="m399.9375 440.054688v56c0 4.402343-3.601562 8-8 8h-47.921875v-127.519532c31.511719 3.992188 55.921875 30.878906 55.921875 63.519532zm0 0" fill="#e6e9ed"/><path d="m120.015625 376.527344v127.519531h-48.078125c-4.410156 0-8-3.597656-8-8v-56c0-32.710937 24.476562-59.589844 56.078125-63.519531zm0 0" fill="#e6e9ed"/><path d="m335.9375 376.054688c2.71875 0 5.4375.160156 8.078125.480468v127.519532h-32v-128zm0 0" fill="#ed5565"/><path d="m344.015625 376.527344v8.199218c19.046875 11.089844 31.894531 31.664063 31.894531 55.320313v56c0 4.402344-3.597656 8-8 8h24.027344c4.398438 0 8-3.597656 8-8v-56c0-32.632813-24.410156-59.519531-55.921875-63.519531zm0 0" fill="#ccd1d9"/><path d="m344.015625 384.734375v-8.199219c-2.640625-.320312-5.359375-.480468-8.078125-.480468h-23.921875v.007812c2.6875 0 5.367187.152344 7.976563.472656 8.679687 1.097656 16.785156 3.984375 24.023437 8.199219zm0 0" fill="#da4453"/><path d="m152.015625 376.054688v128h-32v-127.519532c2.550781-.320312 5.28125-.480468 7.921875-.480468zm0 0" fill="#ed5565"/><path d="m175.9375 376.054688 24.078125 15.921874 32-8v120.078126h-80v-128zm0 0" fill="#e6e9ed"/><path d="m312.015625 376.054688v128h-80v-120.078126l32 8 23.921875-15.921874zm0 0" fill="#e6e9ed"/><path d="m287.9375 330.207031v45.839844l-23.921875 15.929687-32-8v-39.921874c20.160156 0 39.039063-5.359376 55.441406-14.71875zm0 0" fill="#f5f7fa"/><path d="m232.015625 344.054688v39.921874l-32 8-24.078125-15.921874v-45.839844l.476562-.871094c16.402344 9.359375 35.363282 14.71875 55.523438 14.71875h.078125zm0 0" fill="#f5f7fa"/><path d="m232.015625 200.054688h-.078125c-42.5625 0-81.523438-2.71875-111.921875-7.277344v42.167968c.960937 40.398438 23.441406 75.511719 56.398437 94.398438 16.402344 9.359375 35.363282 14.71875 55.523438 14.71875h.078125c20.160156 0 39.039063-5.359375 55.441406-14.71875 33.757813-19.28125 56.488281-55.679688 56.488281-97.28125h.070313v-39.277344c-30.398437 4.472656-69.449219 7.269532-112 7.269532zm0 0" fill="#eac6bb"/><path d="m319.992188 195.769531v36.285157h-.082032c0 41.601562-22.726562 78-56.484375 97.28125-13.105469 7.480468-27.816406 12.34375-43.472656 14.023437 3.933594.425781 7.925781.695313 11.976563.695313h.085937c20.160156 0 39.039063-5.359376 55.441406-14.71875 33.757813-19.28125 56.488281-55.679688 56.488281-97.28125h.070313v-39.277344c-7.496094 1.101562-15.542969 2.101562-24.023437 2.992187zm0 0" fill="#d3b1a9"/><path d="m319.847656 24.054688c-55.910156 0-55.910156 23.921874-87.832031 24h-.078125c-32 0-32-24-88-24l-18.640625 112h213.269531zm0 0" fill="#656d78"/><path d="m319.847656 24.054688c-9.375 0-17.070312.714843-23.71875 1.832031l18.414063 110.167969h24.023437zm0 0" fill="#434a54"/><path d="m343.855469 143.335938c-30.398438-4.558594-69.359375-7.28125-111.917969-7.28125h-.082031c-42.550781 0-81.597657 2.800781-112 7.28125-39.039063 5.921874-63.917969 14.800781-63.917969 24.71875 0 9.921874 24.949219 18.800781 64.078125 24.722656 30.398437 4.558594 69.359375 7.277344 111.921875 7.277344h.078125c42.550781 0 81.601563-2.796876 112-7.277344 39.039063-5.921875 63.921875-14.800782 63.921875-24.722656 0-9.917969-24.953125-18.796876-64.082031-24.71875zm0 0" fill="#656d78"/><path d="m339.695312 142.695312-1.128906-6.640624h-213.269531l-1.121094 6.640624-4.160156 24.878907v.480469h223.921875zm0 0" fill="#ed5565"/><path d="m339.695312 142.695312-1.128906-6.640624h-24.023437l1.128906 6.640624 4.238281 25.359376h24.027344zm0 0" fill="#da4453"/><g fill="#aab2bd"><path d="m456.015625 512.03125c-4.421875 0-8-3.574219-8-8v-496.03125c0-4.425781 3.578125-8 8-8 4.425781 0 8 3.574219 8 8v496.03125c0 4.425781-3.574219 8-8 8zm0 0"/><path d="m344.015625 512.03125c-4.421875 0-8-3.574219-8-8v-496.03125c0-4.425781 3.578125-8 8-8 4.425781 0 8 3.574219 8 8v496.03125c0 4.425781-3.574219 8-8 8zm0 0"/><path d="m232.015625 512.03125c-4.421875 0-8-3.574219-8-8v-496.03125c0-4.425781 3.578125-8 8-8 4.425781 0 8 3.574219 8 8v496.03125c0 4.425781-3.574219 8-8 8zm0 0"/><path d="m120.015625 512.03125c-4.421875 0-8-3.574219-8-8v-496.03125c0-4.425781 3.578125-8 8-8 4.425781 0 8 3.574219 8 8v496.03125c0 4.425781-3.574219 8-8 8zm0 0"/><path d="m8.015625 512.03125c-4.421875 0-8-3.574219-8-8v-496.03125c0-4.425781 3.578125-8 8-8 4.425781 0 8 3.574219 8 8v496.03125c0 4.425781-3.574219 8-8 8zm0 0"/></g></svg>