<?xml version="1.0" encoding="iso-8859-1"?>
<!-- Generator: Adobe Illustrator 19.0.0, SVG Export Plug-In . SVG Version: 6.00 Build 0)  -->
<svg version="1.1" id="Capa_1" xmlns="http://www.w3.org/2000/svg" xmlns:xlink="http://www.w3.org/1999/xlink" x="0px" y="0px"
	 viewBox="0 0 512 512" style="enable-background:new 0 0 512 512;" xml:space="preserve">
<path style="fill:#539acb;" d="M484.267,78.933H27.733l-25.6,398.933C1.067,496,16,512,34.133,512h443.733
	c18.133,0,33.067-16,32-34.133L484.267,78.933z"/>
<polygon style="fill:#F2F2F2;" points="484.267,78.933 27.733,78.933 101.333,36.267 57.6,0 454.4,0 410.667,36.267 "/>
<polygon style="fill:#CDD6E0;" points="410.667,36.267 411.733,78.933 484.267,78.933 "/>
<polygon style="fill:#539acb;" points="454.4,0 457.6,64 410.667,36.267 "/>
<polygon style="fill:#CDD6E0;" points="101.333,36.267 100.267,78.933 27.733,78.933 "/>
<polygon style="fill:#539acb;" points="57.6,0 54.4,64 101.333,36.267 "/>
<path style="fill:#FFFFFF;" d="M256,363.733c-69.333,0-123.733-96-123.733-219.733c0-4.267,4.267-8.533,8.533-8.533
	c4.267,0,8.533,4.267,8.533,8.533c0,112,48,202.667,106.667,202.667S362.667,256,362.667,144c0-4.267,4.267-8.533,8.533-8.533
	s8.533,4.267,8.533,8.533C379.733,267.733,325.333,363.733,256,363.733z"/>
<g>
</g>
<g>
</g>
<g>
</g>
<g>
</g>
<g>
</g>
<g>
</g>
<g>
</g>
<g>
</g>
<g>
</g>
<g>
</g>
<g>
</g>
<g>
</g>
<g>
</g>
<g>
</g>
<g>
</g>
</svg>
