<?xml version="1.0"?>
<svg xmlns="http://www.w3.org/2000/svg" height="512px" viewBox="-1 0 512 512" width="512px" class=""><g><path d="m285.648438 438.800781c4.132812-.097656 7.660156-3.015625 8.53125-7.058593.292968-1.480469.703124-2.914063 1.078124-4.367188.222657-.871094.394532-1.765625.652344-2.617188.179688-.628906.429688-1.222656.621094-1.828124 4.886719-15.304688 14.15625-28.839844 26.660156-38.929688h-54.117187c-1.207031 5.59375-2.046875 11.144531-2.695313 16.6875-.128906 1.105469-.25 2.210938-.347656 3.316406-.539062 5.488282-.914062 10.972656-.914062 16.566406 0 3.320313.21875 6.519532.527343 9.664063.285157 2.652344.695313 5.292969 1.21875 7.929687.042969.226563.070313.464844.117188.691407h18.285156c.164063 0 .265625-.054688.382813-.054688zm0 0" data-original="#000000" class="active-path" data-old_color="#000000" fill="#FFFFFF"/><path d="m293.578125 52.113281c.273437-2.011719.546875-3.929687 1.003906-5.851562.183594-1.097657.550781-2.191407.824219-3.289063.457031-1.738281.914062-3.476562 1.554688-5.210937.339843-1.089844.738281-2.15625 1.1875-3.203125.640624-1.644532 1.28125-3.289063 2.011718-4.84375.457032-1.007813 1.003906-2.101563 1.460938-3.109375.824218-1.554688 1.738281-3.109375 2.5625-4.570313.640625-1.007812 1.1875-1.921875 1.738281-2.835937 1.003906-1.554688 2.191406-3.109375 3.289063-4.570313.550781-.824218 1.097656-1.554687 1.738281-2.378906 1.488281-1.851562 3.074219-3.621094 4.753906-5.300781.367187-.367188.640625-.730469.914063-1.007813 1.992187-2.007812 4.097656-3.902344 6.308593-5.667968l.273438-.273438h-259.199219c-35.347656 0-64 28.652344-64 64s28.652344 64 64 64h259.199219c-19.355469-15.609375-30.613281-39.132812-30.628907-64 0-3.027344.183594-6.046875.550782-9.050781.089844-.914063.273437-1.921875.457031-2.835938zm-229.578125-15.542969c-12.519531-.003906-23.460938 8.453126-26.605469 20.574219-1.007812 4.023438-4.625 6.851563-8.777343 6.855469-2.832032.003906-5.503907-1.300781-7.238282-3.539062-1.734375-2.234376-2.339844-5.148438-1.628906-7.890626 5.207031-20.179687 23.410156-34.28125 44.25-34.285156 5.050781 0 9.144531 4.09375 9.144531 9.144532 0 5.046874-4.09375 9.140624-9.144531 9.140624zm64 0h-27.429688c-5.046874 0-9.140624-4.09375-9.140624-9.140624 0-5.050782 4.09375-9.144532 9.140624-9.144532h27.429688c5.050781 0 9.144531 4.09375 9.144531 9.144532 0 5.046874-4.09375 9.140624-9.144531 9.140624zm0 0" data-original="#000000" class="active-path" data-old_color="#000000" fill="#FFFFFF"/><path d="m433.628906 470.417969c6.636719-13.886719 10.3125-35.65625-9.859375-60.652344-11.589843-15.519531-29.558593-24.984375-48.914062-25.765625-2.082031 0-4.074219.347656-6.113281.539062-1.738282.175782-3.511719.183594-5.214844.492188-1.277344.230469-2.464844.6875-3.710938 1-19.773437 4.8125-36.09375 18.722656-43.976562 37.484375-.164063.394531-.410156.730469-.566406 1.125-.675782 1.746094-1.070313 3.65625-1.601563 5.484375-.527344 1.828125-1.207031 3.546875-1.582031 5.429688-2.546875 12.191406-13.085938 21.070312-25.535156 21.507812-.410157 0-.792969.109375-1.207032.109375h-12.46875c7.816406 16.613281 20.507813 30.453125 36.386719 39.667969l.203125.121094c3.925781 2.320312 8 4.378906 12.195312 6.160156.566407.238281 1.144532.429687 1.710938.648437 3.316406 1.355469 6.746094 2.507813 10.238281 3.539063 1.1875.347656 2.367188.722656 3.566407 1.035156 3.914062 1.011719 7.882812 1.8125 11.886718 2.394531 1.113282.164063 2.230469.273438 3.34375.410157 4.414063.539062 8.855469.824218 13.304688.851562 28.53125-.421875 54.566406-16.359375 67.914062-41.582031zm0 0" data-original="#000000" class="active-path" data-old_color="#000000" fill="#FFFFFF"/><path d="m100.570312 512h198.125c-25.011718-14.472656-42.792968-38.792969-49.003906-67.015625-.367187-1.648437-.730468-3.292969-1.003906-4.9375-.367188-2.011719-.734375-4.117187-1.007812-6.21875-.546876-4.398437-.820313-8.824219-.824219-13.257813 0-4.9375.277343-9.78125.640625-14.71875.09375-1.644531.273437-3.382812.457031-5.027343.367187-3.109375.734375-6.308594 1.28125-9.417969.273437-2.011719.546875-4.113281.914063-6.21875.824218-4.113281 1.738281-8.320312 2.835937-12.617188 1.554687-6.03125 3.289063-12.066406 5.484375-18.101562-4.9375 4.753906-8.960938 9.050781-12.070312 12.527344-.089844.089844-.089844.179687-.179688.179687-1.28125 1.464844-2.46875 2.835938-3.476562 4.023438-.066407.136719-.160157.261719-.273438.367187-.914062 1.097656-1.738281 2.101563-2.378906 3.015625l-.457032.457031c-.546874.824219-1.09375 1.464844-1.460937 2.011719-.183594.183594-.273437.367188-.367187.457031-.296876.410157-.570313.839844-.820313 1.28125l-.277344.273438c-.089843.183594-.179687.273438-.179687.367188 0 .089843-.183594.183593-.183594.183593-.09375.171875-.21875.328125-.367188.457031-.160156.257813-.34375.503907-.546874.730469-.3125.355469-.648438.691407-1.007813 1.003907-.089844.09375-.273437.183593-.363281.273437-.191406.183594-.40625.339844-.640625.460937-.460938.296876-.949219.542969-1.464844.730469-.089844 0-.089844.089844-.183594.089844-.089843 0-.179687.09375-.273437.09375-.089844 0-.273438.089844-.457032.179687-.683593.1875-1.390624.28125-2.101562.277344-.089844 0-.273438.089844-.367188.089844h-.089843c-.183594 0-.183594-.089844-.367188-.089844-.875.023438-1.746093-.128906-2.558593-.457031-.09375 0-.09375-.09375-.183594-.09375h-.089844c-1.039062-.355469-1.976562-.953125-2.742188-1.738281-.261718-.195313-.480468-.445313-.640624-.730469-.558594-.5625-1.023438-1.210937-1.371094-1.917969-.191406-.351562-.347656-.71875-.457032-1.097656l-.277343-.824219c-.179688-.183593-.179688-.457031-.273438-.730469-.089843-.273437.09375-.367187 0-.457031.09375-.910156.121094-1.828125.09375-2.742187 4.203125-40.425782 17.859375-79.292969 39.859375-113.464844 36.558594-58.882812 92.589844-103.105469 158.355469-124.980469 13.253906-21.234375 20.519531-45.652343 21.027344-70.675781 0-35.347656-28.652344-64-64-64-35.34375 0-64 28.652344-64 64s28.65625 64 64 64c5.050781 0 9.144531 4.09375 9.144531 9.144531-.03125 3.03125-1.53125 5.859375-4.023438 7.585938-1.507812 1.03125-3.292968 1.574219-5.121093 1.554687h-280.59375c-9.070313 21.835938-20.050781 42.824219-32.820313 62.71875-5.394531 9.054688-10.972656 18.289063-16.367187 27.980469-26.429688 44.351563-41.707031 94.457031-44.527344 146.011719-.363281 6.214844-.546875 12.707031-.546875 19.289062 0 56.410156 48.914062 109.714844 100.570312 109.714844zm-36.296874-267.335938c.554687-2.21875 1.925781-4.144531 3.839843-5.394531l17.738281-11.886719c8.910157-5.949218 20.527344-5.949218 29.441407 0l8.136719 5.394532c2.742187 1.921875 6.398437 1.921875 9.140624 0l8.136719-5.394532c8.914063-5.949218 20.53125-5.949218 29.441407 0l8.136718 5.394532c2.746094 1.921875 6.398438 1.921875 9.144532 0l8.136718-5.394532c8.910156-5.949218 20.527344-5.949218 29.4375 0l17.738282 11.886719c3.789062 2.460938 5.160156 7.355469 3.199218 11.425781-.175781.417969-.390625.8125-.636718 1.191407-1.683594 2.554687-4.53125 4.097656-7.589844 4.113281-1.796875.019531-3.558594-.523438-5.027344-1.554688l-17.832031-11.792968c-2.742188-1.921875-6.394531-1.921875-9.140625 0l-8.136719 5.394531c-8.914063 5.949219-20.527344 5.949219-29.441406 0l-8.136719-5.394531c-2.746094-1.921875-6.398438-1.921875-9.144531 0l-8.136719 5.394531c-8.910156 5.949219-20.527344 5.949219-29.4375 0l-8.136719-5.394531c-2.746093-1.921875-6.398437-1.921875-9.144531 0l-17.828125 11.792968c-2.007813 1.347657-4.472656 1.835938-6.84375 1.355469s-4.449219-1.890625-5.773437-3.914062c-1.398438-2.132813-1.863282-4.742188-1.28125-7.222657zm-23.585938 58.605469 17.734375-11.886719c8.914063-5.949218 20.527344-5.949218 29.441406 0l8.136719 5.394532c2.746094 1.921875 6.398438 1.921875 9.144531 0l8.136719-5.394532c8.910156-5.949218 20.527344-5.949218 29.4375 0l8.136719 5.394532c2.746093 1.921875 6.398437 1.921875 9.144531 0l8.136719-5.394532c8.914062-5.949218 20.527343-5.949218 29.441406 0l17.734375 11.886719c3.328125 2.234375 4.8125 6.378907 3.660156 10.21875-1.15625 3.839844-4.675781 6.480469-8.6875 6.511719-1.796875.019531-3.554687-.523438-5.027344-1.554688l-17.828124-11.792968c-2.746094-1.921875-6.398438-1.921875-9.144532 0l-8.136718 5.394531c-8.910157 5.949219-20.527344 5.949219-29.441407 0l-8.136719-5.394531c-2.742187-1.921875-6.398437-1.921875-9.140624 0l-8.136719 5.394531c-8.914063 5.949219-20.53125 5.949219-29.441407 0l-8.136718-5.394531c-2.746094-1.921875-6.398438-1.921875-9.144532 0l-17.828124 11.792968c-2.703126 2.175782-6.402344 2.636719-9.554688 1.1875-3.152344-1.449218-5.210938-4.558593-5.320312-8.027343-.105469-3.46875 1.761718-6.695313 4.820312-8.335938zm-18.289062 73.140625 17.738281-11.882812c8.914062-5.949219 20.527343-5.949219 29.441406 0l8.136719 5.394531c2.746094 1.917969 6.398437 1.917969 9.140625 0l8.140625-5.394531c8.910156-5.949219 20.527344-5.949219 29.4375 0l8.136718 5.394531c2.746094 1.917969 6.398438 1.917969 9.144532 0l8.136718-5.394531c8.910157-5.949219 20.527344-5.949219 29.441407 0l17.734375 11.882812c.640625.414063 1.222656.90625 1.738281 1.464844 2.417969 2.679688 3.035156 6.53125 1.570313 9.828125-1.460938 3.300781-4.726563 5.429687-8.335938 5.441406-1.796875.019531-3.554688-.523437-5.027344-1.554687l-17.828125-11.796875c-2.746093-1.917969-6.398437-1.917969-9.144531 0l-8.136719 5.394531c-8.914062 5.949219-20.527343 5.949219-29.441406 0l-8.136719-5.394531c-2.746094-1.917969-6.398437-1.917969-9.140625 0l-8.140625 5.394531c-8.910156 5.949219-20.527344 5.949219-29.4375 0l-8.136718-5.394531c-2.746094-1.917969-6.398438-1.917969-9.144532 0l-17.828125 11.796875c-2.007812 1.351562-4.472656 1.84375-6.84375 1.359375-2.371093-.480469-4.453125-1.894531-5.773437-3.921875-.992188-1.488282-1.53125-3.238282-1.554688-5.027344.015625-3.058594 1.558594-5.90625 4.113282-7.589844zm0 0" data-original="#000000" class="active-path" data-old_color="#000000" fill="#FFFFFF"/><path d="m244.113281 326.035156c33.007813-50.652344 104.6875-132.023437 247.132813-187.703125-153.601563 12.707031-220.617188 122.238281-247.132813 187.703125zm0 0" data-original="#000000" class="active-path" data-old_color="#000000" fill="#FFFFFF"/><path d="m509.898438 150.949219c-158.8125 58.695312-229.945313 149.484375-257.738282 196.664062 34.414063-31.9375 72.539063-59.625 113.554688-82.46875 53.765625-30.246093 102.425781-68.785156 144.183594-114.195312zm0 0" data-original="#000000" class="active-path" data-old_color="#000000" fill="#FFFFFF"/></g> </svg>
