<?xml version="1.0" encoding="UTF-8"?>
<!DOCTYPE svg PUBLIC "-//W3C//DTD SVG 1.1//EN" "http://www.w3.org/Graphics/SVG/1.1/DTD/svg11.dtd">
<svg xmlns="http://www.w3.org/2000/svg" version="1.1" width="512px" height="512px" style="shape-rendering:geometricPrecision; text-rendering:geometricPrecision; image-rendering:optimizeQuality; fill-rule:evenodd; clip-rule:evenodd" xmlns:xlink="http://www.w3.org/1999/xlink">
<g><path style="opacity:0.981" fill="#ff9239" d="M 149.5,109.5 C 144.903,110.722 140.57,112.388 136.5,114.5C 133.405,112.825 130.072,111.158 126.5,109.5C 125.818,110.243 125.151,110.909 124.5,111.5C 120.945,107.413 118.112,102.746 116,97.5C 113.104,80.2436 120.27,70.5769 137.5,68.5C 152.994,70.8307 160.161,79.8307 159,95.5C 157.565,101.377 154.399,106.044 149.5,109.5 Z"/></g>
<g><path style="opacity:0.978" fill="#ff9239" d="M 385.5,108.5 C 381.845,110.829 377.845,112.163 373.5,112.5C 368.321,112.908 363.655,111.575 359.5,108.5C 350.644,101.414 348.144,92.4137 352,81.5C 358.477,70.3495 367.977,66.5162 380.5,70C 394.814,77.615 398.314,88.7817 391,103.5C 389.296,105.373 387.463,107.04 385.5,108.5 Z"/></g>
<g><path style="opacity:0.96" fill="#f94e4d" d="M 136.5,114.5 C 135.944,118.961 134.777,123.294 133,127.5C 130.119,133.262 127.286,138.929 124.5,144.5C 108.251,163.749 88.584,178.416 65.5,188.5C 65.5,187.833 65.5,187.167 65.5,186.5C 67.795,183.703 70.295,181.036 73,178.5C 75.1214,174.593 76.9547,170.593 78.5,166.5C 97.221,155.612 111.721,140.612 122,121.5C 123.15,118.232 123.984,114.899 124.5,111.5C 125.151,110.909 125.818,110.243 126.5,109.5C 130.072,111.158 133.405,112.825 136.5,114.5 Z"/></g>
<g><path style="opacity:0.986" fill="#ffd570" d="M 149.5,109.5 C 149.5,156.167 149.5,202.833 149.5,249.5C 141.167,249.5 132.833,249.5 124.5,249.5C 124.5,214.5 124.5,179.5 124.5,144.5C 127.286,138.929 130.119,133.262 133,127.5C 134.777,123.294 135.944,118.961 136.5,114.5C 140.57,112.388 144.903,110.722 149.5,109.5 Z"/></g>
<g><path style="opacity:0.968" fill="#fed570" d="M 359.5,108.5 C 363.655,111.575 368.321,112.908 373.5,112.5C 373.808,116.595 374.641,120.595 376,124.5C 378.666,131.165 381.833,137.499 385.5,143.5C 385.5,178.833 385.5,214.167 385.5,249.5C 376.833,249.5 368.167,249.5 359.5,249.5C 359.5,202.5 359.5,155.5 359.5,108.5 Z"/></g>
<g><path style="opacity:0.962" fill="#f94e4d" d="M 385.5,108.5 C 386.837,118.844 390.671,128.177 397,136.5C 406.675,148.73 418.175,158.73 431.5,166.5C 433.831,174.501 438.164,181.168 444.5,186.5C 444.672,187.492 444.338,188.158 443.5,188.5C 420.686,178.023 401.352,163.023 385.5,143.5C 381.833,137.499 378.666,131.165 376,124.5C 374.641,120.595 373.808,116.595 373.5,112.5C 377.845,112.163 381.845,110.829 385.5,108.5 Z"/></g>
<g><path style="opacity:0.987" fill="#ff9239" d="M 78.5,166.5 C 76.9547,170.593 75.1214,174.593 73,178.5C 70.295,181.036 67.795,183.703 65.5,186.5C 53.8725,193.093 42.2058,193.093 30.5,186.5C 16.1819,174.025 13.6819,159.359 23,142.5C 31.7373,131.851 42.904,128.018 56.5,131C 73.0698,136.952 80.4031,148.785 78.5,166.5 Z"/></g>
<g><path style="opacity:0.987" fill="#fe9239" d="M 479.5,186.5 C 473.778,188.96 467.778,190.626 461.5,191.5C 455.393,191.224 449.726,189.558 444.5,186.5C 438.164,181.168 433.831,174.501 431.5,166.5C 430.683,140.488 443.35,128.655 469.5,131C 483.988,135.459 491.654,145.293 492.5,160.5C 492.331,171.392 487.998,180.059 479.5,186.5 Z"/></g>
<g><path style="opacity:0.98" fill="#ffd571" d="M 30.5,186.5 C 42.2058,193.093 53.8725,193.093 65.5,186.5C 65.5,187.167 65.5,187.833 65.5,188.5C 65.5,253.167 65.5,317.833 65.5,382.5C 53.8333,382.5 42.1667,382.5 30.5,382.5C 30.5,317.167 30.5,251.833 30.5,186.5 Z"/></g>
<g><path style="opacity:0.978" fill="#ffd671" d="M 444.5,186.5 C 449.726,189.558 455.393,191.224 461.5,191.5C 467.778,190.626 473.778,188.96 479.5,186.5C 479.5,251.833 479.5,317.167 479.5,382.5C 467.5,382.5 455.5,382.5 443.5,382.5C 443.5,317.833 443.5,253.167 443.5,188.5C 444.338,188.158 444.672,187.492 444.5,186.5 Z"/></g>
<g><path style="opacity:0.991" fill="#f95352" d="M 205.5,228.5 C 238.507,228.167 271.507,228.5 304.5,229.5C 338.123,299.745 371.457,370.078 404.5,440.5C 304.833,440.5 205.167,440.5 105.5,440.5C 138.284,369.598 171.617,298.931 205.5,228.5 Z"/></g>
<g><path style="opacity:0.981" fill="#ff9238" d="M 124.5,249.5 C 132.833,249.5 141.167,249.5 149.5,249.5C 161.986,249.661 167.319,255.994 165.5,268.5C 146.5,268.5 127.5,268.5 108.5,268.5C 107.387,256.62 112.721,250.286 124.5,249.5 Z"/></g>
<g><path style="opacity:0.984" fill="#ff9239" d="M 359.5,249.5 C 368.167,249.5 376.833,249.5 385.5,249.5C 397.258,250.267 402.592,256.601 401.5,268.5C 382.167,268.5 362.833,268.5 343.5,268.5C 342.419,256.591 347.752,250.258 359.5,249.5 Z"/></g>
<g><path style="opacity:0.986" fill="#ff9238" d="M 30.5,382.5 C 42.1667,382.5 53.8333,382.5 65.5,382.5C 80.0645,384.912 87.7311,393.579 88.5,408.5C 61.8333,408.5 35.1667,408.5 8.5,408.5C 8.98589,394.016 16.3192,385.349 30.5,382.5 Z"/></g>
<g><path style="opacity:0.987" fill="#ff9238" d="M 443.5,382.5 C 455.5,382.5 467.5,382.5 479.5,382.5C 493.657,385.328 500.99,393.995 501.5,408.5C 474.833,408.5 448.167,408.5 421.5,408.5C 421.999,394.004 429.332,385.338 443.5,382.5 Z"/></g>
</svg>
