<?xml version="1.0"?>
<svg xmlns="http://www.w3.org/2000/svg" id="Capa_1" enable-background="new 0 0 512 512" height="512px" viewBox="0 0 512 512" width="512px" class=""><g><path d="m256 90c52.264 0 105-13.914 105-45s-52.736-45-105-45-105 13.914-105 45 52.736 45 105 45zm0-60c41.459 0 66.596 9.455 73.639 15-7.043 5.545-32.179 15-73.639 15s-66.596-9.455-73.639-15c7.043-5.545 32.18-15 73.639-15z" data-original="#000000" class="active-path" data-old_color="#000000" fill="#FFFFFF"/><path d="m45.608 314.888c9.875 59.251 5.09 120.584-13.838 177.368-1.524 4.574-.757 9.603 2.062 13.514 2.819 3.912 7.346 6.23 12.168 6.23 41.873 0 78.094-24.641 94.94-60.181 34.453-2.253 62.616-27.864 68.784-61.117 18.585-3.509 34.913-14.022 46.277-29.333 11.362 15.307 27.689 25.823 46.277 29.333 6.167 33.253 34.331 58.864 68.783 61.117 16.845 35.54 53.066 60.181 94.939 60.181 4.822 0 9.349-2.318 12.168-6.229 2.819-3.912 3.586-8.94 2.062-13.514-18.928-56.784-23.713-118.117-13.833-177.399 12.051-76.251 14.603-81.478 14.603-99.85 0-36.255-14.118-70.34-39.754-95.975l-9.155-9.156c-12.819-12.818-29.861-19.877-47.988-19.877-29.257 0-55.13 18.648-64.382 46.404-8.692 26.076-33 43.596-60.481 43.596-.103 0-6.893 0-6.475 0-27.487 0-51.794-17.52-60.486-43.596-9.252-27.756-35.125-46.404-64.382-46.404-35.573 0-52.082 25.266-57.143 29.032-25.636 25.636-39.754 59.721-39.754 95.976 0 18.455 2.813 25.25 14.608 99.88zm302.573-168.997c5.162-15.486 19.598-25.891 35.922-25.891 10.114 0 19.623 3.939 26.774 11.09l9.156 9.155c19.969 19.97 30.967 46.522 30.967 74.763 0 14.684-2.17 19.428-14.2 94.948-9.37 56.22-6.529 114.181 8.143 169.035-31.138-9.122-53.943-37.943-53.943-71.991v-91c0-8.284-6.716-15-15-15s-15 6.716-15 15v91c0 4.292.265 8.522.768 12.68-17.857-5.97-30.768-22.84-30.768-42.68v-92c0-8.284-6.716-15-15-15s-15 6.716-15 15v74.258c-17.28-6.476-30-23.67-30-43.258v-106.743c35.458-4.453 65.656-28.79 77.181-63.366zm-256.213-5.645c5.832-4.574 14.8-20.246 35.93-20.246 16.324 0 30.759 10.405 35.921 25.891 11.525 34.575 41.72 58.921 77.181 63.375v106.734c0 19.588-12.72 36.782-30 43.258v-74.258c0-8.284-6.716-15-15-15s-15 6.716-15 15v92c0 19.84-12.911 36.71-30.768 42.68.503-4.158.768-8.389.768-12.68v-91c0-8.284-6.716-15-15-15s-15 6.716-15 15v91c0 34.048-22.805 62.869-53.943 71.992 14.672-54.854 17.513-112.811 8.147-169.004-12.328-77.399-14.204-80.372-14.204-94.98 0-28.241 10.998-54.793 30.968-74.762z" data-original="#000000" class="active-path" data-old_color="#000000" fill="#FFFFFF"/></g> </svg>
