<svg id="Capa_1" enable-background="new 0 0 512 512" height="512" viewBox="0 0 512 512" width="512" xmlns="http://www.w3.org/2000/svg"><path d="m466.3 314.801c11.999-73.5 14.7-81.101 14.7-99.701 0-66.599-45.601-100.499-48.9-105.3-12.9-12.6-30-19.8-47.999-19.8-29.401 0-55.201 18.6-64.501 46.5-8.699 26.1-32.999 43.5-60.3 43.5h-6.6c-.601 0-.901 0-.901 0-26.999-.3-50.7-17.701-59.399-43.5-9.3-27.9-35.099-46.5-64.501-46.5-17.999 0-35.099 7.2-47.999 19.799-3.9 5.7-48.9 37.5-48.9 105.3 0 18.6 2.701 26.201 14.7 99.701 9.6 58.799 4.801 121-13.799 177.4-1.802 4.499-.901 9.598 1.8 13.499 2.999 3.9 7.5 6.301 12.299 6.301 42.001 0 77.999-25.901 94.799-61.601 34.501-2.1 62.701-27.599 68.701-60.899 19.2-3.3 35.4-14.101 46.5-29.101 11.1 15 27.299 25.801 46.5 29.101 6 33.3 34.2 58.799 68.701 60.899 16.8 35.7 52.798 61.601 94.799 61.601 4.799 0 9.3-2.401 12.299-6.301 2.701-3.9 3.602-9 1.8-13.499-18.6-56.399-23.399-118.601-13.799-177.399z" fill="#f2f2f2"/><path d="m480.099 492.201c1.802 4.499.901 9.598-1.8 13.499-2.999 3.9-7.5 6.301-12.299 6.301-42.001 0-77.999-25.901-94.799-61.601-34.501-2.101-62.701-27.6-68.701-60.9-19.2-3.3-35.4-14.101-46.5-29.101v-180.399h3.3c27.301 0 51.601-17.401 60.3-43.5 9.3-27.9 35.099-46.5 64.501-46.5 17.999 0 35.099 7.2 47.999 19.799 3.3 4.801 48.9 38.701 48.9 105.3 0 18.6-2.701 26.201-14.7 99.701-9.6 58.799-4.801 121.001 13.799 177.401z" fill="#e7e7f2"/><path d="m331.396 46.802h.293zm-75.396-46.802c-52.2 0-105 13.801-105 45s52.8 45 105 45 105-13.801 105-45-52.8-45-105-45zm0 60c-41.4 0-66.599-9.3-73.5-15 6.901-5.7 32.1-15 73.5-15s66.599 9.3 73.5 15c-6.901 5.7-32.1 15-73.5 15z" fill="#ffda2d"/><path d="m361 45c0 31.199-52.8 45-105 45v-30c41.4 0 66.599-9.3 73.5-15-6.901-5.7-32.1-15-73.5-15v-30c52.2 0 105 13.801 105 45z" fill="#fdbf00"/></svg>