<?xml version="1.0" encoding="iso-8859-1"?>
<!-- Generator: Adobe Illustrator 16.0.0, SVG Export Plug-In . SVG Version: 6.00 Build 0)  -->
<!DOCTYPE svg PUBLIC "-//W3C//DTD SVG 1.1//EN" "http://www.w3.org/Graphics/SVG/1.1/DTD/svg11.dtd">
<svg version="1.1" id="Capa_1" xmlns="http://www.w3.org/2000/svg" xmlns:xlink="http://www.w3.org/1999/xlink" x="0px" y="0px"
	 width="82.546px" height="82.546px" viewBox="0 0 82.546 82.546" style="enable-background:new 0 0 82.546 82.546;"
	 xml:space="preserve">
<g>
	<g>
		<path d="M52.181,40.701c-0.1-0.488-0.289-0.879-0.531-1.191c-0.582,0.75-1.359,1.469-2.098,2.068
			c-0.969,0.787-1.857,1.4-2.785,2.244c-0.043,0.037-0.088,0.057-0.133,0.078c0.07,0.66,0.102,1.295,0.039,1.682
			c-0.027,0.166-0.426,1.191-0.185,0.707c-0.032,0.066-0.047,0.104-0.053,0.131c-0.019,0.01-0.033,0.016-0.062,0.033
			c-0.016,0.012-0.022,0.014-0.037,0.021c-0.309-0.004-0.881-0.056-0.821-0.027c-1.066-0.205-1.63-0.51-2.578-1.051
			c-3.85-2.195-7.354-6.62-7.098-11.174c0.246-4.367,5.469-7.059,8.656-4.457c5.215,4.258-1.021,6.734-5.508,9.842
			c0.393,1.581,4.668,4.852,4.668,4.852c1.078-0.471,1.381-0.684,2.373-1.305c0.012-0.012,0.016-0.027,0.029-0.039
			c0,0,3.664-2.615,4.619-4.355c0.469-0.854,0.75-1.246,1.029-1.945c1.442-3.611,0.383-7.303-1.938-10.244
			c-5.397-6.84-15.646-3.863-18.869,3.422c-3.291,7.437,1.582,15.072,7.418,19.525c2.275,1.736,5.483,3.299,8.426,2.92
			c3.718-0.479,5.521-3.221,5.916-6.76C52.843,44.037,52.505,42.3,52.181,40.701z"/>
		<path d="M43.216,21.183c0.414,0.014,0.756,0.061,1.059,0.137V0h-6v21.66C39.944,21.269,41.438,21.123,43.216,21.183z"/>
		<path d="M38.274,82.546h6v-29c-2.529-0.724-6-3-6-3V82.546z"/>
	</g>
</g>
<g>
</g>
<g>
</g>
<g>
</g>
<g>
</g>
<g>
</g>
<g>
</g>
<g>
</g>
<g>
</g>
<g>
</g>
<g>
</g>
<g>
</g>
<g>
</g>
<g>
</g>
<g>
</g>
<g>
</g>
</svg>
