<?xml version="1.0" encoding="UTF-8"?>
<!DOCTYPE svg PUBLIC "-//W3C//DTD SVG 1.1//EN" "http://www.w3.org/Graphics/SVG/1.1/DTD/svg11.dtd">
<svg xmlns="http://www.w3.org/2000/svg" version="1.1" width="512px" height="512px" style="shape-rendering:geometricPrecision; text-rendering:geometricPrecision; image-rendering:optimizeQuality; fill-rule:evenodd; clip-rule:evenodd" xmlns:xlink="http://www.w3.org/1999/xlink">
<g><path style="opacity:0.987" fill="#d0dbf7" d="M 393.5,380.5 C 385.979,377.695 378.312,375.028 370.5,372.5C 406.298,321.614 426.131,264.948 430,202.5C 430.667,174.167 430.667,145.833 430,117.5C 427.592,115.044 424.759,113.211 421.5,112C 366.265,88.5348 310.932,65.3682 255.5,42.5C 217.489,58.1735 179.489,73.8401 141.5,89.5C 141.795,87.2646 141.461,85.2646 140.5,83.5C 140.299,77.491 139.966,71.491 139.5,65.5C 177.867,48.6552 216.534,32.3219 255.5,16.5C 321.811,43.4351 387.645,71.4351 453,100.5C 453.667,137.833 453.667,175.167 453,212.5C 448.693,274.268 428.86,330.268 393.5,380.5 Z"/></g>
<g><path style="opacity:1" fill="#e5ebfe" d="M 370.5,372.5 C 324.118,357.663 283.451,333.663 248.5,300.5C 279.132,269.368 309.965,238.368 341,207.5C 343,204.5 343,201.5 341,198.5C 334.802,191.968 328.302,185.801 321.5,180C 320.167,179.333 318.833,179.333 317.5,180C 290.695,205.805 264.195,231.972 238,258.5C 227.833,248.333 217.667,238.167 207.5,228C 205.305,226.627 202.971,226.294 200.5,227C 197.899,230.112 194.899,232.612 191.5,234.5C 164.098,189.963 147.431,141.63 141.5,89.5C 179.489,73.8401 217.489,58.1735 255.5,42.5C 310.932,65.3682 366.265,88.5348 421.5,112C 424.759,113.211 427.592,115.044 430,117.5C 430.667,145.833 430.667,174.167 430,202.5C 426.131,264.948 406.298,321.614 370.5,372.5 Z"/></g>
<g><path style="opacity:1" fill="#8fa6ce" d="M 139.5,65.5 C 139.966,71.491 140.299,77.491 140.5,83.5C 140.808,85.924 140.474,88.2573 139.5,90.5C 121.874,98.0974 104.208,105.597 86.5,113C 83.9427,113.685 82.1094,115.185 81,117.5C 80.3333,146.167 80.3333,174.833 81,203.5C 89.0365,309.789 136.87,392.623 224.5,452C 234.236,458.536 244.569,464.036 255.5,468.5C 301.802,446.164 340.135,414.164 370.5,372.5C 378.312,375.028 385.979,377.695 393.5,380.5C 358.68,431.983 312.68,469.983 255.5,494.5C 208.036,473.546 167.536,443.212 134,403.5C 88.9162,347.958 63.5829,284.291 58,212.5C 57.3333,175.167 57.3333,137.833 58,100.5C 84.8522,88.1587 112.019,76.492 139.5,65.5 Z"/></g>
<g><path style="opacity:1" fill="#b7c6e2" d="M 140.5,83.5 C 141.461,85.2646 141.795,87.2646 141.5,89.5C 147.431,141.63 164.098,189.963 191.5,234.5C 191.5,234.833 191.5,235.167 191.5,235.5C 187.169,238.998 183.336,242.998 180,247.5C 179.365,249.635 179.699,251.635 181,253.5C 198.833,271.333 216.667,289.167 234.5,307C 240.453,308.239 244.787,306.072 247.5,300.5C 247.833,300.5 248.167,300.5 248.5,300.5C 283.451,333.663 324.118,357.663 370.5,372.5C 340.135,414.164 301.802,446.164 255.5,468.5C 244.569,464.036 234.236,458.536 224.5,452C 136.87,392.623 89.0365,309.789 81,203.5C 80.3333,174.833 80.3333,146.167 81,117.5C 82.1094,115.185 83.9427,113.685 86.5,113C 104.208,105.597 121.874,98.0974 139.5,90.5C 140.474,88.2573 140.808,85.924 140.5,83.5 Z"/></g>
<g><path style="opacity:1" fill="#4595fe" d="M 248.5,300.5 C 248.167,300.5 247.833,300.5 247.5,300.5C 238.199,292.032 229.366,283.032 221,273.5C 210.866,260.891 201.033,248.224 191.5,235.5C 191.5,235.167 191.5,234.833 191.5,234.5C 194.899,232.612 197.899,230.112 200.5,227C 202.971,226.294 205.305,226.627 207.5,228C 217.667,238.167 227.833,248.333 238,258.5C 264.195,231.972 290.695,205.805 317.5,180C 318.833,179.333 320.167,179.333 321.5,180C 328.302,185.801 334.802,191.968 341,198.5C 343,201.5 343,204.5 341,207.5C 309.965,238.368 279.132,269.368 248.5,300.5 Z"/></g>
<g><path style="opacity:1" fill="#2b66ed" d="M 191.5,235.5 C 201.033,248.224 210.866,260.891 221,273.5C 229.366,283.032 238.199,292.032 247.5,300.5C 244.787,306.072 240.453,308.239 234.5,307C 216.667,289.167 198.833,271.333 181,253.5C 179.699,251.635 179.365,249.635 180,247.5C 183.336,242.998 187.169,238.998 191.5,235.5 Z"/></g>
</svg>
