<?xml version="1.0" encoding="UTF-8"?>
<!DOCTYPE svg PUBLIC "-//W3C//DTD SVG 1.1//EN" "http://www.w3.org/Graphics/SVG/1.1/DTD/svg11.dtd">
<svg xmlns="http://www.w3.org/2000/svg" version="1.1" width="512px" height="512px" style="shape-rendering:geometricPrecision; text-rendering:geometricPrecision; image-rendering:optimizeQuality; fill-rule:evenodd; clip-rule:evenodd" xmlns:xlink="http://www.w3.org/1999/xlink">
<g><path style="opacity:0.979" fill="#95a5a5" d="M 132.5,78.5 C 114.5,78.5 96.5,78.5 78.5,78.5C 78.3335,68.8276 78.5002,59.1609 79,49.5C 79.6853,46.9427 81.1853,45.1094 83.5,44C 98.1667,43.3333 112.833,43.3333 127.5,44C 129.726,45.2273 131.226,47.0607 132,49.5C 132.5,59.1609 132.666,68.8276 132.5,78.5 Z"/></g>
<g><path style="opacity:0.997" fill="#bcc2c6" d="M 476.5,96.5 C 475.503,113.992 475.17,131.659 475.5,149.5C 321.5,149.5 167.5,149.5 13.5,149.5C 21.7856,128.929 30.619,108.595 40,88.5C 44.1511,83.6834 49.3178,80.5167 55.5,79C 63.1594,78.5003 70.8261,78.3336 78.5,78.5C 96.5,78.5 114.5,78.5 132.5,78.5C 152.833,78.5 173.167,78.5 193.5,78.5C 193.094,86.9174 193.594,95.2508 195,103.5C 197.468,108.989 201.635,112.489 207.5,114C 243,114.167 278.5,114.333 314,114.5C 350.879,114.654 387.712,114.154 424.5,113C 429,111.167 432.167,108 434,103.5C 436.082,95.2585 437.582,86.9251 438.5,78.5C 439.384,72.449 442.884,69.449 449,69.5C 465.314,71.3146 474.481,80.3146 476.5,96.5 Z"/></g>
<g><path style="opacity:0.986" fill="#7f8c8d" d="M 193.5,78.5 C 275.167,78.5 356.833,78.5 438.5,78.5C 437.582,86.9251 436.082,95.2585 434,103.5C 432.167,108 429,111.167 424.5,113C 387.712,114.154 350.879,114.654 314,114.5C 278.5,114.333 243,114.167 207.5,114C 201.635,112.489 197.468,108.989 195,103.5C 193.594,95.2508 193.094,86.9174 193.5,78.5 Z"/></g>
<g><path style="opacity:0.995" fill="#464e5c" d="M 476.5,96.5 C 486.506,96.3335 496.506,96.5002 506.5,97C 508.323,97.9973 509.99,99.1639 511.5,100.5C 511.5,115.5 511.5,130.5 511.5,145.5C 509.444,148.049 506.778,149.549 503.5,150C 494.506,150.5 485.506,150.666 476.5,150.5C 476.5,132.5 476.5,114.5 476.5,96.5 Z"/></g>
<g><path style="opacity:0.996" fill="#94a4a4" d="M 476.5,96.5 C 476.5,114.5 476.5,132.5 476.5,150.5C 476.666,160.839 476.5,171.172 476,181.5C 474.231,186.935 470.731,190.768 465.5,193C 419.547,194.48 373.547,194.98 327.5,194.5C 314.931,193.179 302.265,193.179 289.5,194.5C 272.5,194.5 255.5,194.5 238.5,194.5C 223.5,193.167 208.5,193.167 193.5,194.5C 185.271,193.403 179.105,196.403 175,203.5C 169.335,226.493 163.835,249.493 158.5,272.5C 156.695,278.72 155.362,285.054 154.5,291.5C 147.338,322.815 140.172,354.148 133,385.5C 132.667,396.5 132.333,407.5 132,418.5C 129.58,427.419 123.747,432.086 114.5,432.5C 81.8333,432.5 49.1667,432.5 16.5,432.5C 8.4842,431.672 2.81754,427.672 -0.5,420.5C -0.5,403.833 -0.5,387.167 -0.5,370.5C 15.2676,327.602 31.1009,284.602 47,241.5C 49.2159,215.097 38.0492,196.93 13.5,187C 8.58866,183.011 5.922,177.844 5.5,171.5C 7.61678,163.94 10.2834,156.606 13.5,149.5C 167.5,149.5 321.5,149.5 475.5,149.5C 475.17,131.659 475.503,113.992 476.5,96.5 Z"/></g>
<g><path style="opacity:0.975" fill="#464f5d" d="M 238.5,194.5 C 238.667,212.836 238.5,231.17 238,249.5C 236.295,253.553 233.295,255.553 229,255.5C 217.903,253.442 209.57,247.442 204,237.5C 196.907,224.053 193.407,209.719 193.5,194.5C 208.5,193.167 223.5,193.167 238.5,194.5 Z"/></g>
<g><path style="opacity:0.945" fill="#7e8c8d" d="M 327.5,194.5 C 315.509,194.333 307.009,199.666 302,210.5C 300.955,228.472 299.955,246.472 299,264.5C 294.407,279.76 284.241,288.593 268.5,291C 230.501,291.5 192.501,291.667 154.5,291.5C 155.362,285.054 156.695,278.72 158.5,272.5C 195.168,272.667 231.835,272.5 268.5,272C 274.667,269.833 278.833,265.667 281,259.5C 281.333,244.167 281.667,228.833 282,213.5C 283.041,206.537 285.541,200.203 289.5,194.5C 302.265,193.179 314.931,193.179 327.5,194.5 Z"/></g>
<g><path style="opacity:1" fill="#7f8c8d" d="M 99.5,229.5 C 113.081,227.427 121.081,233.093 123.5,246.5C 119.2,263.818 109.2,268.318 93.5,260C 84.0602,247.578 86.0602,237.411 99.5,229.5 Z"/></g>
<g><path style="opacity:1" fill="#7f8c8d" d="M 56.5,361.5 C 74.591,361.363 81.4244,370.029 77,387.5C 70.3203,396.613 61.8203,398.779 51.5,394C 42.8057,386.739 41.3057,378.239 47,368.5C 49.8249,365.524 52.9915,363.191 56.5,361.5 Z"/></g>
<g><path style="opacity:0.988" fill="#464e5c" d="M 16.5,432.5 C 49.1667,432.5 81.8333,432.5 114.5,432.5C 114.666,440.174 114.5,447.841 114,455.5C 112.167,461.333 108.333,465.167 102.5,467C 78.1667,467.667 53.8333,467.667 29.5,467C 22.9299,464.762 18.7633,460.262 17,453.5C 16.5004,446.508 16.3337,439.508 16.5,432.5 Z"/></g>
</svg>
