<?xml version="1.0" encoding="UTF-8"?>
<!DOCTYPE svg PUBLIC "-//W3C//DTD SVG 1.1//EN" "http://www.w3.org/Graphics/SVG/1.1/DTD/svg11.dtd">
<svg xmlns="http://www.w3.org/2000/svg" version="1.1" width="512px" height="512px" style="shape-rendering:geometricPrecision; text-rendering:geometricPrecision; image-rendering:optimizeQuality; fill-rule:evenodd; clip-rule:evenodd" xmlns:xlink="http://www.w3.org/1999/xlink">
<g><path style="opacity:0.992" fill="#fc7f86" d="M 271.5,20.5 C 274.529,22.372 276.695,25.0386 278,28.5C 278.667,62.8333 278.667,97.1667 278,131.5C 274.101,149.558 263.601,161.891 246.5,168.5C 228.384,163.55 217.217,151.883 213,133.5C 212.828,126.987 212.328,120.653 211.5,114.5C 211.333,85.8314 211.5,57.1647 212,28.5C 212.504,24.9798 214.337,22.4798 217.5,21C 235.497,20.5001 253.497,20.3334 271.5,20.5 Z"/></g>
<g><path style="opacity:0.978" fill="#fd646f" d="M 271.5,20.5 C 278.841,20.3337 286.174,20.5003 293.5,21C 296.187,22.8749 298.021,25.3749 299,28.5C 299.5,57.1647 299.667,85.8314 299.5,114.5C 301.056,132.33 295.389,147.497 282.5,160C 271.707,167.859 259.707,170.693 246.5,168.5C 263.601,161.891 274.101,149.558 278,131.5C 278.667,97.1667 278.667,62.8333 278,28.5C 276.695,25.0386 274.529,22.372 271.5,20.5 Z"/></g>
<g><path style="opacity:1" fill="#695e68" d="M 249.5,50.5 C 258.614,48.5848 265.447,51.5848 270,59.5C 271.995,74.5041 265.495,81.3374 250.5,80C 241.823,75.8097 238.657,68.9764 241,59.5C 243.362,55.9734 246.196,52.9734 249.5,50.5 Z"/></g>
<g><path style="opacity:0.998" fill="#eeecee" d="M 211.5,114.5 C 211.052,125.605 211.886,136.605 214,147.5C 224.676,176.757 245.51,189.591 276.5,186C 300.07,179.741 314.237,164.574 319,140.5C 319.5,131.84 319.666,123.173 319.5,114.5C 365.167,114.5 410.833,114.5 456.5,114.5C 468.336,116.351 476.169,123.018 480,134.5C 480.667,246.5 480.667,358.5 480,470.5C 476.649,480.35 470.149,487.017 460.5,490.5C 312.833,490.667 165.166,490.5 17.5,490C 8.98151,486.647 2.98151,480.814 -0.5,472.5C -0.5,359.5 -0.5,246.5 -0.5,133.5C 2.83861,123.336 9.83861,117.169 20.5,115C 84.1658,114.5 147.832,114.333 211.5,114.5 Z"/></g>
<g><path style="opacity:0.995" fill="#d7cfd5" d="M 211.5,114.5 C 212.328,120.653 212.828,126.987 213,133.5C 217.217,151.883 228.384,163.55 246.5,168.5C 259.707,170.693 271.707,167.859 282.5,160C 295.389,147.497 301.056,132.33 299.5,114.5C 306.167,114.5 312.833,114.5 319.5,114.5C 319.666,123.173 319.5,131.84 319,140.5C 314.237,164.574 300.07,179.741 276.5,186C 245.51,189.591 224.676,176.757 214,147.5C 211.886,136.605 211.052,125.605 211.5,114.5 Z"/></g>
<g><path style="opacity:0.997" fill="#d7d0d6" d="M 456.5,114.5 C 469.228,114.08 481.894,114.58 494.5,116C 503.111,119.109 508.778,124.943 511.5,133.5C 511.5,246.5 511.5,359.5 511.5,472.5C 507.925,481.238 501.592,487.072 492.5,490C 481.839,490.5 471.172,490.667 460.5,490.5C 470.149,487.017 476.649,480.35 480,470.5C 480.667,358.5 480.667,246.5 480,134.5C 476.169,123.018 468.336,116.351 456.5,114.5 Z"/></g>
<g><path style="opacity:1" fill="#b6aeb7" d="M 297.5,199.5 C 355.168,199.333 412.834,199.5 470.5,200C 475.689,202.913 476.856,207.08 474,212.5C 473.097,213.701 471.931,214.535 470.5,215C 413.167,215.667 355.833,215.667 298.5,215C 290.884,210.351 290.55,205.184 297.5,199.5 Z"/></g>
<g><path style="opacity:1" fill="#aed5f8" d="M 43.5,207.5 C 43.5,287.833 43.5,368.167 43.5,448.5C 54.1667,448.5 64.8333,448.5 75.5,448.5C 75.5,448.833 75.5,449.167 75.5,449.5C 64.5,449.5 53.5,449.5 42.5,449.5C 42.1674,368.665 42.5007,287.998 43.5,207.5 Z"/></g>
<g><path style="opacity:1" fill="#8ac8fd" d="M 43.5,207.5 C 114.5,207.5 185.5,207.5 256.5,207.5C 256.5,287.833 256.5,368.167 256.5,448.5C 245.833,448.5 235.167,448.5 224.5,448.5C 224.667,428.164 224.5,407.831 224,387.5C 221.261,378.427 215.427,372.26 206.5,369C 194.838,368.5 183.171,368.333 171.5,368.5C 171.5,363.5 171.5,358.5 171.5,353.5C 188.498,342.159 195.831,326.159 193.5,305.5C 194.955,284.568 186.622,269.068 168.5,259C 142.576,249.753 123.076,257.253 110,281.5C 105.717,297.058 105.383,312.724 109,328.5C 111.986,339.132 118.319,347.132 128,352.5C 128.499,357.823 128.666,363.156 128.5,368.5C 116.829,368.333 105.162,368.5 93.5,369C 84.5725,372.26 78.7392,378.427 76,387.5C 75.5,407.831 75.3334,428.164 75.5,448.5C 64.8333,448.5 54.1667,448.5 43.5,448.5C 43.5,368.167 43.5,287.833 43.5,207.5 Z"/></g>
<g><path style="opacity:1" fill="#a0d0fa" d="M 256.5,207.5 C 257.499,287.998 257.833,368.665 257.5,449.5C 246.5,449.5 235.5,449.5 224.5,449.5C 224.5,449.167 224.5,448.833 224.5,448.5C 235.167,448.5 245.833,448.5 256.5,448.5C 256.5,368.167 256.5,287.833 256.5,207.5 Z"/></g>
<g><path style="opacity:1" fill="#fdd1a4" d="M 171.5,353.5 C 161.714,358.224 151.38,359.724 140.5,358C 136.737,357.08 133.237,355.58 130,353.5C 129.826,358.684 129.326,363.684 128.5,368.5C 128.666,363.156 128.499,357.823 128,352.5C 118.319,347.132 111.986,339.132 109,328.5C 105.383,312.724 105.717,297.058 110,281.5C 123.076,257.253 142.576,249.753 168.5,259C 186.622,269.068 194.955,284.568 193.5,305.5C 195.831,326.159 188.498,342.159 171.5,353.5 Z"/></g>
<g><path style="opacity:1" fill="#b6afb7" d="M 297.5,257.5 C 355.168,257.333 412.834,257.5 470.5,258C 475.689,260.913 476.856,265.08 474,270.5C 472.581,271.46 471.081,272.293 469.5,273C 412.5,273.667 355.5,273.667 298.5,273C 290.97,268.215 290.637,263.048 297.5,257.5 Z"/></g>
<g><path style="opacity:1" fill="#b5adb6" d="M 297.5,315.5 C 355.168,315.333 412.834,315.5 470.5,316C 475.689,318.913 476.856,323.08 474,328.5C 473.25,329.126 472.416,329.626 471.5,330C 413.167,330.667 354.833,330.667 296.5,330C 291.003,324.683 291.336,319.85 297.5,315.5 Z"/></g>
<g><path style="opacity:1" fill="#febc86" d="M 171.5,353.5 C 171.5,358.5 171.5,363.5 171.5,368.5C 173.502,389.328 164.169,399.161 143.5,398C 131.224,392.072 126.224,382.239 128.5,368.5C 129.326,363.684 129.826,358.684 130,353.5C 133.237,355.58 136.737,357.08 140.5,358C 151.38,359.724 161.714,358.224 171.5,353.5 Z"/></g>
<g><path style="opacity:1" fill="#70d7a3" d="M 416.5,359.5 C 442.356,358.487 459.189,370.154 467,394.5C 470.304,421.078 459.47,438.911 434.5,448C 407.858,452.097 389.692,441.597 380,416.5C 375.544,386.727 387.71,367.727 416.5,359.5 Z"/></g>
<g><path style="opacity:1" fill="#685e68" d="M 128.5,368.5 C 126.224,382.239 131.224,392.072 143.5,398C 164.169,399.161 173.502,389.328 171.5,368.5C 183.171,368.333 194.838,368.5 206.5,369C 215.427,372.26 221.261,378.427 224,387.5C 224.5,407.831 224.667,428.164 224.5,448.5C 224.5,448.833 224.5,449.167 224.5,449.5C 174.833,449.5 125.167,449.5 75.5,449.5C 75.5,449.167 75.5,448.833 75.5,448.5C 75.3334,428.164 75.5,407.831 76,387.5C 78.7392,378.427 84.5725,372.26 93.5,369C 105.162,368.5 116.829,368.333 128.5,368.5 Z"/></g>
<g><path style="opacity:1" fill="#ebecec" d="M 432.5,384.5 C 440.696,384.529 443.863,388.529 442,396.5C 433.167,405.333 424.333,414.167 415.5,423C 407.265,425.444 403.431,422.277 404,413.5C 413.033,403.301 422.533,393.635 432.5,384.5 Z"/></g>
</svg>
