<?xml version="1.0"?>
<svg xmlns="http://www.w3.org/2000/svg" height="512px" viewBox="0 0 480 480" width="512px" class=""><g><path d="m240 0c-132.546875 0-240 107.453125-240 240s107.453125 240 240 240 240-107.453125 240-240c-.164062-132.480469-107.519531-239.835938-240-240zm-192 240c.003906-73.265625 41.703125-140.144531 107.492188-172.390625 65.789062-32.25 144.191406-24.246094 202.109374 20.628906l-49.203124 48.960938c-1.4375-3.121094-3.117188-6.960938-4-9.121094 2.015624-5.773437 2.808593-11.902344 2.320312-18-2.640625-9.757813-48.078125-32.078125-99.039062-30.078125-51.359376 2-82.558594 19.839844-98.160157 56.160156-21.199219 49.28125 12.71875 98.160156 28.320313 116.960938 10.101562 10.707031 15.265625 25.152344 14.238281 39.839844l-64.316406 64.078124c-25.757813-33.582031-39.730469-74.714843-39.761719-117.039062zm245.839844-96.160156c.800781 1.761718 1.601562 3.601562 2.480468 5.441406l-129.039062 128.558594c-2.4375-12.988282-8.351562-25.070313-17.121094-34.960938-17.039062-20.480468-42.960937-60.71875-25.921875-100.398437 13.042969-30.402344 38.960938-44.71875 84.082031-46.480469 28.828126-1.378906 57.453126 5.445312 82.558594 19.679688-.542968 3.050781-1.265625 6.070312-2.160156 9.039062-1.757812 3.839844-.957031 5.601562 5.121094 19.121094zm-53.839844 288.160156c-42.324219-.03125-83.457031-14.003906-117.039062-39.761719l22.320312-22.398437-1.042969 4.238281c-1.054687 4.285156 1.558594 8.617187 5.839844 9.683594 4.285156 1.054687 8.617187-1.558594 9.683594-5.839844l7.519531-30.242187 145.917969-146.480469 4.320312 3.121093c4.082031 2.878907 8.160157 5.839844 11.679688 8.480469-5.992188 1.414063-12.050781 2.507813-18.160157 3.277344-3.890624.46875-6.871093 3.6875-7.039062 7.601563-.191406 6.886718 1.007812 13.746093 3.519531 20.160156-5.199219.960937-13.519531 2.320312-26.800781 4-1.496094.046875-2.964844.398437-4.320312 1.039062-2.269532 1.113282-3.851563 3.265625-4.238282 5.761719-.457031 2.480469.285156 5.03125 2 6.878906 8.730469 9.339844 18.984375 17.128907 30.320313 23.039063-5.121094 7.363281-2.242188 17.121094-.082031 24.402344.402343 1.359374.882812 3.039062 1.28125 4.558593-6.039063.269531-12.09375-.027343-18.078126-.878906-2.640624-.242187-5.121093-.480469-7.121093-.640625-3.15625-.171875-6.199219 1.199219-8.160157 3.679688-9.679687 12-.800781 75.761718 0 78.398437.914063 3.492187 4.070313 5.925781 7.679688 5.921875.707031.011719 1.410156-.097656 2.078125-.320312 2.054687-.523438 3.808594-1.859376 4.863281-3.695313 1.054688-1.839844 1.320313-4.027344.738282-6.0625-3.191407-20.34375-4.289063-40.957031-3.28125-61.523437.503906.09375 1.011718.148437 1.523437.160156 9.789063 2.113281 19.960937 1.644531 29.519531-1.359375 9.679688-4.558594 6.398438-15.519531 4.320313-22.71875-1.289063-3.460938-1.992188-7.109375-2.082031-10.800781l8-8c2.375-2.417969 2.984374-6.0625 1.519531-9.121094-1.429688-3.089844-4.699219-4.902344-8.078125-4.480469-7.898438-1.25-15.21875-4.910156-20.960938-10.476563 26.398438-3.839843 28.238282-5.921874 29.679688-10.960937.820312-3.25-.261719-6.6875-2.800782-8.878906-2.6875-3.019531-4.289062-6.847657-4.558593-10.882813 27.359375-4.238281 29.199219-10.640625 30.160156-13.839844 1.085937-4.136718-.46875-8.515624-3.921875-11.039062-4.480469-3.601562-12.238281-9.199219-19.839844-14.640625-.710937-.578125-1.460937-1.113281-2.238281-1.597656l67.121094-67.363281c44.875 57.917968 52.878906 136.320312 20.628906 202.109374-32.246094 65.789063-99.125 107.488282-172.390625 107.492188zm0 0" data-original="#000000" class="active-path" data-old_color="#000000" fill="#FFFFFF"/><path d="m401.601562 239.839844-40 8c-.53125.089844-1.066406.144531-1.601562.160156-4.109375.003906-7.554688-3.105469-7.96875-7.195312-.410156-4.089844 2.339844-7.828126 6.367188-8.644532l40-8c4.332031-.882812 8.558593 1.910156 9.441406 6.238282.882812 4.332031-1.910156 8.558593-6.238282 9.441406zm0 0" data-original="#000000" class="active-path" data-old_color="#000000" fill="#FFFFFF"/><path d="m408 272c0 4.417969-3.582031 8-8 8h-40c-4.417969 0-8-3.582031-8-8s3.582031-8 8-8h40c4.417969 0 8 3.582031 8 8zm0 0" data-original="#000000" class="active-path" data-old_color="#000000" fill="#FFFFFF"/><path d="m399.121094 323.601562c-1.328125 2.714844-4.097656 4.425782-7.121094 4.398438-1.253906.011719-2.492188-.289062-3.601562-.878906l-32-16c-2.765626-1.152344-4.65625-3.757813-4.898438-6.746094-.238281-2.988281 1.214844-5.863281 3.761719-7.441406 2.550781-1.578125 5.769531-1.601563 8.339843-.054688l32 16c1.894532.949219 3.332032 2.613282 3.992188 4.628906.660156 2.011719.492188 4.207032-.472656 6.09375zm0 0" data-original="#000000" class="active-path" data-old_color="#000000" fill="#FFFFFF"/></g> </svg>
