<?xml version="1.0" encoding="iso-8859-1"?>
<!-- Generator: Adobe Illustrator 19.0.0, SVG Export Plug-In . SVG Version: 6.00 Build 0)  -->
<svg version="1.1" id="Layer_1" xmlns="http://www.w3.org/2000/svg" xmlns:xlink="http://www.w3.org/1999/xlink" x="0px" y="0px"
	 viewBox="0 0 512 512" style="enable-background:new 0 0 512 512;" xml:space="preserve">
<path style="fill:#E0E0E2;" d="M251.092,0.049C121.207,2.651,16.552,109.664,16.696,239.574
	c0.083,75.073,34.866,141.875,89.043,185.668v70.063c0,9.22,7.475,16.696,16.696,16.696h33.391c9.22,0,16.696-7.475,16.696-16.696
	v-32.919c0-8.99,6.909-16.726,15.889-17.149c9.588-0.451,17.503,7.188,17.503,16.677v33.391c0,9.22,7.475,16.696,16.696,16.696l0,0
	c9.22,0,16.696-7.475,16.696-16.696v-32.919c0-8.99,6.909-16.726,15.889-17.149c9.588-0.451,17.503,7.188,17.503,16.677v33.391
	c0,9.22,7.475,16.696,16.696,16.696l0,0c9.22,0,16.696-7.475,16.696-16.696v-32.919c0-8.99,6.909-16.726,15.889-17.149
	c9.588-0.451,17.503,7.188,17.503,16.677v33.391c0,9.22,7.475,16.696,16.696,16.696h33.391c9.22,0,16.696-7.475,16.696-16.696
	v-70.062c54.242-43.845,89.043-110.756,89.043-185.938C495.305,105.508,385.502-2.643,251.092,0.049z"/>
<path style="fill:#C6C5CA;" d="M272.696,461.913v33.391c0,9.22,7.475,16.696,16.696,16.696l0,0c9.22,0,16.696-7.475,16.696-16.696
	v-32.919c0-8.99,6.909-16.726,15.889-17.149c9.588-0.451,17.503,7.188,17.503,16.677v33.391c0,9.22,7.475,16.696,16.696,16.696
	h33.391c9.22,0,16.696-7.475,16.696-16.696v-70.062c54.242-43.845,89.043-110.756,89.043-185.938C495.305,107.14,388.165,0,256,0
	v445.217C265.221,445.218,272.696,452.693,272.696,461.913z"/>
<g>
	<circle style="fill:#5D5D5D;" cx="150.261" cy="256" r="66.783"/>
	<path style="fill:#5D5D5D;" d="M301.195,384.674c-3.261,3.261-7.533,4.892-11.804,4.892c-4.272,0-8.544-1.631-11.805-4.892
		L256,363.087l-21.587,21.587c-6.521,6.521-17.087,6.521-23.609,0c-6.521-6.521-6.521-17.087,0-23.609l33.391-33.391
		c6.521-6.521,17.087-6.521,23.609,0l33.391,33.391C307.718,367.587,307.718,378.152,301.195,384.674z"/>
	<circle style="fill:#5D5D5D;" cx="361.739" cy="256" r="66.783"/>
</g>
<g>
</g>
<g>
</g>
<g>
</g>
<g>
</g>
<g>
</g>
<g>
</g>
<g>
</g>
<g>
</g>
<g>
</g>
<g>
</g>
<g>
</g>
<g>
</g>
<g>
</g>
<g>
</g>
<g>
</g>
</svg>
