<?xml version="1.0" encoding="UTF-8"?>
<!DOCTYPE svg PUBLIC "-//W3C//DTD SVG 1.1//EN" "http://www.w3.org/Graphics/SVG/1.1/DTD/svg11.dtd">
<svg xmlns="http://www.w3.org/2000/svg" version="1.1" width="512px" height="512px" style="shape-rendering:geometricPrecision; text-rendering:geometricPrecision; image-rendering:optimizeQuality; fill-rule:evenodd; clip-rule:evenodd" xmlns:xlink="http://www.w3.org/1999/xlink">
<g><path style="opacity:1" fill="#e80054" d="M 232.5,-0.5 C 240.5,-0.5 248.5,-0.5 256.5,-0.5C 234.595,15.1604 229.762,35.1604 242,59.5C 245.054,63.3786 248.221,67.0453 251.5,70.5C 214.344,71.3307 180.677,82.3307 150.5,103.5C 130.565,116.268 114.065,132.602 101,152.5C 100.53,153.577 100.697,154.577 101.5,155.5C 100.504,155.414 99.6708,155.748 99,156.5C 67.5102,208.428 61.8435,263.095 82,320.5C 109.448,386.94 158.614,426.44 229.5,439C 237.131,440.069 244.798,440.569 252.5,440.5C 234.03,457.025 230.53,476.358 242,498.5C 245.736,503.738 250.236,508.071 255.5,511.5C 247.833,511.5 240.167,511.5 232.5,511.5C 142.856,500.612 75.3562,456.279 30,378.5C 13.3053,347.029 3.1386,313.696 -0.5,278.5C -0.5,263.167 -0.5,247.833 -0.5,232.5C 10.3875,142.857 54.7208,75.3573 132.5,30C 163.971,13.3053 197.304,3.1386 232.5,-0.5 Z"/></g>
<g><path style="opacity:0.99" fill="#fe4154" d="M 256.5,-0.5 C 263.833,-0.5 271.167,-0.5 278.5,-0.5C 368.144,10.3879 435.644,54.7213 481,132.5C 497.695,163.971 507.861,197.304 511.5,232.5C 511.5,247.833 511.5,263.167 511.5,278.5C 500.612,368.144 456.279,435.644 378.5,481C 347.029,497.695 313.696,507.861 278.5,511.5C 270.833,511.5 263.167,511.5 255.5,511.5C 250.236,508.071 245.736,503.738 242,498.5C 230.53,476.358 234.03,457.025 252.5,440.5C 290.168,441.382 324.501,431.382 355.5,410.5C 357.308,410.509 358.975,410.009 360.5,409C 379.442,395.893 395.109,379.726 407.5,360.5C 437.946,315.764 447.446,266.764 436,213.5C 419.507,150.34 381.007,106.506 320.5,82C 298.256,73.626 275.256,69.7927 251.5,70.5C 248.221,67.0453 245.054,63.3786 242,59.5C 229.762,35.1604 234.595,15.1604 256.5,-0.5 Z"/></g>
<g><path style="opacity:0.994" fill="#c90756" d="M 150.5,103.5 C 186.5,140.167 222.833,176.5 259.5,212.5C 267.5,221.167 275.833,229.5 284.5,237.5C 292.167,245.833 300.167,253.833 308.5,261.5C 341.167,294.833 374.167,327.833 407.5,360.5C 395.109,379.726 379.442,395.893 360.5,409C 358.975,410.009 357.308,410.509 355.5,410.5C 339.5,393.833 323.167,377.5 306.5,361.5C 292.088,345.585 277.088,330.085 261.5,315C 260.906,314.536 260.239,314.369 259.5,314.5C 236.833,291.167 213.833,268.167 190.5,245.5C 196.493,236.857 201.993,227.857 207,218.5C 209.349,203.692 203.182,194.859 188.5,192C 171.17,191.5 153.837,191.333 136.5,191.5C 124.833,179.5 113.167,167.5 101.5,155.5C 100.697,154.577 100.53,153.577 101,152.5C 114.065,132.602 130.565,116.268 150.5,103.5 Z"/></g>
<g><path style="opacity:0.998" fill="#ffc839" d="M 306.5,219.5 C 294.662,220.005 287.329,226.005 284.5,237.5C 275.833,229.5 267.5,221.167 259.5,212.5C 271.613,194.547 283.946,176.714 296.5,159C 284.833,158.667 273.167,158.333 261.5,158C 250.099,153.377 245.266,144.877 247,132.5C 249.607,124.225 255.107,119.059 263.5,117C 289.167,116.333 314.833,116.333 340.5,117C 355.991,122.486 360.824,132.986 355,148.5C 338.612,172.047 322.446,195.714 306.5,219.5 Z"/></g>
<g><path style="opacity:0.999" fill="#fec739" d="M 136.5,191.5 C 153.837,191.333 171.17,191.5 188.5,192C 203.182,194.859 209.349,203.692 207,218.5C 201.993,227.857 196.493,236.857 190.5,245.5C 181.266,258.288 172.266,271.288 163.5,284.5C 147.094,286.087 140.26,295.087 143,311.5C 146.182,319.187 151.682,324.187 159.5,326.5C 144.775,326.932 130.108,326.432 115.5,325C 101.941,317.345 98.774,306.511 106,292.5C 119.5,273 133,253.5 146.5,234C 137.167,233.667 127.833,233.333 118.5,233C 103.805,225.395 100.305,214.228 108,199.5C 116.102,192.263 125.602,189.597 136.5,191.5 Z"/></g>
<g><path style="opacity:0.98" fill="#ffdd3f" d="M 306.5,219.5 C 320.24,219.054 333.907,219.554 347.5,221C 360.316,227.776 363.816,237.943 358,251.5C 355.778,255.388 352.612,258.221 348.5,260C 335.227,261.425 321.894,261.925 308.5,261.5C 300.167,253.833 292.167,245.833 284.5,237.5C 287.329,226.005 294.662,220.005 306.5,219.5 Z"/></g>
<g><path style="opacity:0.981" fill="#ffdc3f" d="M 163.5,284.5 C 174.172,284.333 184.839,284.5 195.5,285C 207.75,289.66 212.583,298.493 210,311.5C 207.925,317.91 203.758,322.41 197.5,325C 184.894,326.42 172.228,326.92 159.5,326.5C 151.682,324.187 146.182,319.187 143,311.5C 140.26,295.087 147.094,286.087 163.5,284.5 Z"/></g>
<g><path style="opacity:0.998" fill="#ffc839" d="M 259.5,314.5 C 260.239,314.369 260.906,314.536 261.5,315C 277.088,330.085 292.088,345.585 306.5,361.5C 303.112,364.597 300.445,368.264 298.5,372.5C 279.77,375.728 273.27,386.395 279,404.5C 282.191,409.163 286.358,412.497 291.5,414.5C 277.829,414.667 264.163,414.5 250.5,414C 238.037,408.234 233.87,398.734 238,385.5C 244.109,375.726 250.609,366.226 257.5,357C 242.894,354.068 236.394,345.235 238,330.5C 241.324,320.01 248.49,314.677 259.5,314.5 Z"/></g>
<g><path style="opacity:0.98" fill="#ffdc3f" d="M 298.5,372.5 C 314.744,374.246 321.911,383.246 320,399.5C 317.928,406.573 313.428,411.406 306.5,414C 301.511,414.499 296.511,414.666 291.5,414.5C 286.358,412.497 282.191,409.163 279,404.5C 273.27,386.395 279.77,375.728 298.5,372.5 Z"/></g>
</svg>
