<?xml version="1.0" encoding="iso-8859-1"?>
<!-- Generator: Adobe Illustrator 19.0.0, SVG Export Plug-In . SVG Version: 6.00 Build 0)  -->
<svg version="1.1" id="Capa_1" xmlns="http://www.w3.org/2000/svg" xmlns:xlink="http://www.w3.org/1999/xlink" x="0px" y="0px"
	 viewBox="0 0 512 512" style="enable-background:new 0 0 512 512;" xml:space="preserve">
<polygon style="fill:#2D2F61;" points="474.857,243.174 460.453,204.151 443.702,158.777 408.913,123.579 276.9,158.777 
	103.084,123.579 68.296,158.777 51.545,204.151 37.141,243.174 255.999,256 "/>
<polyline style="fill:#393B85;" points="443.701,158.78 474.857,74.383 272.947,36.124 37.141,74.383 68.297,158.78 "/>
<path style="fill:#FFC745;" d="M425.868,243.178H86.13c8.683-28.724,24.451-54.376,45.265-74.919
	c32.026-31.608,76.037-51.116,124.604-51.116s92.578,19.508,124.604,51.116C401.417,188.802,417.185,214.454,425.868,243.178z"/>
<path style="fill:#FFE563;" d="M380.603,168.259c-32.026,31.619-76.037,51.127-124.604,51.127s-92.578-19.508-124.604-51.127
	c32.026-31.608,76.037-51.116,124.604-51.116S348.577,136.651,380.603,168.259z"/>
<g>
	<rect x="37.141" y="243.179" style="fill:#605D9C;" width="437.718" height="268.821"/>
	<path style="fill:#605D9C;" d="M37.141,74.383l9.222-36.889C51.872,15.458,71.671,0,94.385,0h323.229
		c22.714,0,42.513,15.458,48.022,37.494l9.222,36.889H37.141z"/>
</g>
<path style="fill:#FFE563;" d="M308.826,74.381c-6.023-23.545-27.393-40.954-52.827-40.954s-46.804,17.409-52.827,40.954"/>
<polyline style="fill:#393B85;" points="347.207,283.656 435.721,283.656 435.721,471.53 76.277,471.53 76.277,283.656 
	164.791,283.656 "/>
<g>
	<path style="fill:#FFE563;" d="M474.853,420.163v91.836h-96.601c0-50.782,41.169-91.951,91.951-91.951
		C471.76,420.048,473.317,420.09,474.853,420.163z"/>
	<path style="fill:#FFE563;" d="M37.141,420.163v91.836h96.601c0-50.782-41.169-91.951-91.951-91.951
		C40.234,420.048,38.677,420.09,37.141,420.163z"/>
</g>
<path style="fill:#FFC745;" d="M298.913,190.446c-4.329,0-7.837-3.509-7.837-7.837c0-11.059-8.998-20.057-20.057-20.057
	c-11.059,0-20.057,8.998-20.057,20.057c0,4.328-3.509,7.837-7.837,7.837c-4.328,0-7.837-3.509-7.837-7.837
	c0-19.702,16.029-35.73,35.73-35.73s35.73,16.029,35.73,35.73C306.75,186.937,303.241,190.446,298.913,190.446z"/>
<path style="fill:#FFE563;" d="M255.999,381.807L255.999,381.807c-30.119,0-54.535-24.416-54.535-54.535v-84.095h109.071v84.095
	C310.534,357.391,286.118,381.807,255.999,381.807z"/>
<g>
	<path style="fill:#FFC745;" d="M347.548,212.618c-4.329,0-7.837-3.509-7.837-7.837c0-11.059-8.997-20.057-20.056-20.057
		c-11.059,0-20.057,8.998-20.057,20.057c0,4.328-3.508,7.837-7.837,7.837c-4.329,0-7.837-3.509-7.837-7.837
		c0-19.702,16.029-35.73,35.73-35.73c19.701,0,35.729,16.029,35.729,35.73C355.384,209.109,351.876,212.618,347.548,212.618z"/>
	<path style="fill:#FFC745;" d="M217.238,212.618c-4.328,0-7.837-3.509-7.837-7.837c0-11.059-8.998-20.057-20.057-20.057
		c-11.059,0-20.057,8.998-20.057,20.057c0,4.328-3.509,7.837-7.837,7.837c-4.328,0-7.837-3.509-7.837-7.837
		c0-19.702,16.029-35.73,35.73-35.73s35.73,16.029,35.73,35.73C225.075,209.109,221.566,212.618,217.238,212.618z"/>
</g>
<circle style="fill:#393B85;" cx="255.999" cy="324.556" r="19.343"/>
<g>
</g>
<g>
</g>
<g>
</g>
<g>
</g>
<g>
</g>
<g>
</g>
<g>
</g>
<g>
</g>
<g>
</g>
<g>
</g>
<g>
</g>
<g>
</g>
<g>
</g>
<g>
</g>
<g>
</g>
</svg>
