<?xml version="1.0" encoding="UTF-8"?>
<!DOCTYPE svg PUBLIC "-//W3C//DTD SVG 1.1//EN" "http://www.w3.org/Graphics/SVG/1.1/DTD/svg11.dtd">
<svg xmlns="http://www.w3.org/2000/svg" version="1.1" width="512px" height="512px" style="shape-rendering:geometricPrecision; text-rendering:geometricPrecision; image-rendering:optimizeQuality; fill-rule:evenodd; clip-rule:evenodd" xmlns:xlink="http://www.w3.org/1999/xlink">
<g><path style="opacity:0.999" fill="#f8e9af" d="M 58.5,-0.5 C 182.833,-0.5 307.167,-0.5 431.5,-0.5C 399.484,6.34758 379.317,25.6809 371,57.5C 370.5,76.4971 370.333,95.4971 370.5,114.5C 370.5,208.5 370.5,302.5 370.5,396.5C 370.333,414.17 370.5,431.836 371,449.5C 377.559,483.558 397.726,504.225 431.5,511.5C 307.167,511.5 182.833,511.5 58.5,511.5C 26.9489,504.282 7.28226,484.949 -0.5,453.5C -0.5,321.5 -0.5,189.5 -0.5,57.5C 7.30878,26.024 26.9755,6.69063 58.5,-0.5 Z"/></g>
<g><path style="opacity:0.995" fill="#e4c05c" d="M 431.5,-0.5 C 438.5,-0.5 445.5,-0.5 452.5,-0.5C 484.051,6.71755 503.718,26.0509 511.5,57.5C 511.5,74.8333 511.5,92.1667 511.5,109.5C 510.354,111.475 508.687,112.975 506.5,114C 461.168,114.5 415.835,114.667 370.5,114.5C 370.333,95.4971 370.5,76.4971 371,57.5C 379.317,25.6809 399.484,6.34758 431.5,-0.5 Z"/></g>
<g><path style="opacity:1" fill="#b19147" d="M 66.5,61.5 C 70.5164,60.8999 74.0164,61.8999 77,64.5C 81.7973,77.0585 86.2973,89.7252 90.5,102.5C 93.6225,98.4216 96.6225,94.2549 99.5,90C 103.5,88 107.5,88 111.5,90C 114.333,94.1667 117.167,98.3333 120,102.5C 124.333,90.1667 128.667,77.8333 133,65.5C 138.764,59.8977 144.097,60.231 149,66.5C 149.667,68.5 149.667,70.5 149,72.5C 143,90.5 137,108.5 131,126.5C 127.634,131.609 123.134,132.776 117.5,130C 113.61,124.374 109.61,118.874 105.5,113.5C 101.39,118.874 97.3897,124.374 93.5,130C 88.2712,132.621 83.7712,131.788 80,127.5C 74,109.5 68,91.5 62,73.5C 60.4742,68.2389 61.9742,64.2389 66.5,61.5 Z"/></g>
<g><path style="opacity:1" fill="#b19046" d="M 172.5,61.5 C 177.635,60.4262 181.468,62.0928 184,66.5C 184.667,86.5 184.667,106.5 184,126.5C 180.634,131.609 176.134,132.776 170.5,130C 169.299,129.097 168.465,127.931 168,126.5C 167.333,106.5 167.333,86.5 168,66.5C 169.025,64.313 170.525,62.6464 172.5,61.5 Z"/></g>
<g><path style="opacity:1" fill="#b29147" d="M 207.5,61.5 C 213.204,60.4361 217.371,62.4361 220,67.5C 220.5,83.1631 220.667,98.8298 220.5,114.5C 227.508,114.334 234.508,114.5 241.5,115C 246.069,117.541 247.569,121.375 246,126.5C 245.167,128.667 243.667,130.167 241.5,131C 232.5,131.667 223.5,131.667 214.5,131C 208.471,128.309 204.638,123.809 203,117.5C 202.333,100.5 202.333,83.5 203,66.5C 204.707,64.9625 206.207,63.2959 207.5,61.5 Z"/></g>
<g><path style="opacity:1" fill="#b19046" d="M 281.5,67.5 C 281.5,83.1667 281.5,98.8333 281.5,114.5C 287.833,114.5 294.167,114.5 300.5,114.5C 306.446,115.928 308.946,119.595 308,125.5C 307.315,128.057 305.815,129.891 303.5,131C 294.167,131.667 284.833,131.667 275.5,131C 271,129.167 267.833,126 266,121.5C 264.373,103.232 264.04,84.8991 265,66.5C 268.411,61.3883 272.911,60.2217 278.5,63C 279.883,64.2708 280.883,65.7708 281.5,67.5 Z"/></g>
<g><path style="opacity:1" fill="#d9c281" d="M 281.5,67.5 C 282.496,82.6576 282.83,97.9909 282.5,113.5C 288.69,113.177 294.69,113.51 300.5,114.5C 294.167,114.5 287.833,114.5 281.5,114.5C 281.5,98.8333 281.5,83.1667 281.5,67.5 Z"/></g>
<g><path style="opacity:1" fill="#e4c05c" d="M 39.5,167.5 C 136.167,167.333 232.834,167.5 329.5,168C 334.609,171.366 335.776,175.866 333,181.5C 332.097,182.701 330.931,183.535 329.5,184C 232.833,184.667 136.167,184.667 39.5,184C 32.8987,178.504 32.8987,173.004 39.5,167.5 Z"/></g>
<g><path style="opacity:1" fill="#e4c15e" d="M 40.5,202.5 C 54.1707,202.333 67.8374,202.5 81.5,203C 86.9035,205.083 88.7368,208.916 87,214.5C 85.8333,217 84,218.833 81.5,220C 68.1667,220.667 54.8333,220.667 41.5,220C 32.6508,214.605 32.3175,208.771 40.5,202.5 Z"/></g>
<g><path style="opacity:1" fill="#e4c05d" d="M 111.5,202.5 C 183.834,202.333 256.167,202.5 328.5,203C 334.095,205.354 335.928,209.521 334,215.5C 332.457,217.378 330.624,218.878 328.5,220C 256.167,220.667 183.833,220.667 111.5,220C 103.637,214.049 103.637,208.216 111.5,202.5 Z"/></g>
<g><path style="opacity:1" fill="#e4c05d" d="M 41.5,237.5 C 137.167,237.333 232.834,237.5 328.5,238C 334.612,241.293 336.112,246.127 333,252.5C 331.581,253.46 330.081,254.293 328.5,255C 232.5,255.667 136.5,255.667 40.5,255C 32.4484,248.74 32.7817,242.906 41.5,237.5 Z"/></g>
<g><path style="opacity:1" fill="#e4c05c" d="M 39.5,273.5 C 95.1677,273.333 150.834,273.5 206.5,274C 213.077,279.253 213.077,284.586 206.5,290C 150.833,290.667 95.1667,290.667 39.5,290C 32.8987,284.504 32.8987,279.004 39.5,273.5 Z"/></g>
<g><path style="opacity:1" fill="#e4c05c" d="M 233.5,273.5 C 265.502,273.333 297.502,273.5 329.5,274C 334.738,277.274 335.904,281.774 333,287.5C 332.097,288.701 330.931,289.535 329.5,290C 297.833,290.667 266.167,290.667 234.5,290C 229.845,287.103 228.345,282.937 230,277.5C 231.376,276.295 232.542,274.962 233.5,273.5 Z"/></g>
<g><path style="opacity:1" fill="#e4c05d" d="M 40.5,308.5 C 136.501,308.333 232.501,308.5 328.5,309C 332.819,310.123 334.819,312.956 334.5,317.5C 334.314,321.533 332.314,324.366 328.5,326C 232.833,326.667 137.167,326.667 41.5,326C 32.6508,320.605 32.3175,314.771 40.5,308.5 Z"/></g>
<g><path style="opacity:1" fill="#e4c05e" d="M 40.5,343.5 C 54.1707,343.333 67.8374,343.5 81.5,344C 87.0891,346.451 88.9224,350.617 87,356.5C 85.4571,358.378 83.6238,359.878 81.5,361C 67.8333,361.667 54.1667,361.667 40.5,361C 32.542,355.086 32.542,349.252 40.5,343.5 Z"/></g>
<g><path style="opacity:1" fill="#e64d3c" d="M 270.5,352.5 C 273.794,352.259 276.794,353.092 279.5,355C 283.833,358.667 288.167,362.333 292.5,366C 300.594,366.862 308.594,368.196 316.5,370C 318.562,372.068 319.728,374.568 320,377.5C 320.333,382.833 320.667,388.167 321,393.5C 324.62,398.789 328.62,403.789 333,408.5C 335,412.5 335,416.5 333,420.5C 328.62,425.211 324.62,430.211 321,435.5C 320.667,440.5 320.333,445.5 320,450.5C 319.167,456.667 315.667,460.167 309.5,461C 304.5,461.333 299.5,461.667 294.5,462C 289.211,465.62 284.211,469.62 279.5,474C 274.569,477.481 269.903,477.148 265.5,473C 257.709,462.61 247.375,458.61 234.5,461C 231.898,460.117 229.731,458.617 228,456.5C 229.781,442.163 225.114,430.496 214,421.5C 211.755,418.119 211.088,414.452 212,410.5C 216.333,404.833 220.667,399.167 225,393.5C 225.912,386.454 226.912,379.454 228,372.5C 229.637,370.19 231.804,368.69 234.5,368C 240.914,367.871 247.247,367.204 253.5,366C 259.354,361.636 265.021,357.136 270.5,352.5 Z"/></g>
<g><path style="opacity:1" fill="#605447" d="M 110.5,370.5 C 115.126,369.7 118.96,371.034 122,374.5C 122.946,386.074 122.446,397.574 120.5,409C 125.127,416.841 132.127,421.507 141.5,423C 149.806,424.511 157.14,422.511 163.5,417C 166.022,412.966 169.022,409.299 172.5,406C 182.22,404.721 186.053,408.887 184,418.5C 173.194,436.313 157.361,443.48 136.5,440C 129.005,437.919 122.005,434.752 115.5,430.5C 105.578,448.64 91.2448,453.474 72.5,445C 60.065,433.675 58.2317,420.841 67,406.5C 72.4109,400.257 79.2443,396.924 87.5,396.5C 93.2528,397.118 98.9194,398.118 104.5,399.5C 104.933,391.5 105.433,383.5 106,375.5C 107.366,373.638 108.866,371.972 110.5,370.5 Z"/></g>
<g><path style="opacity:0.995" fill="#e4c05c" d="M 370.5,396.5 C 415.835,396.333 461.168,396.5 506.5,397C 508.687,398.025 510.354,399.525 511.5,401.5C 511.5,418.5 511.5,435.5 511.5,452.5C 504.167,484.5 484.5,504.167 452.5,511.5C 445.5,511.5 438.5,511.5 431.5,511.5C 397.726,504.225 377.559,483.558 371,449.5C 370.5,431.836 370.333,414.17 370.5,396.5 Z"/></g>
<g><path style="opacity:1" fill="#efc219" d="M 268.5,396.5 C 286.013,396.839 292.846,405.506 289,422.5C 283.64,430.625 276.14,433.458 266.5,431C 254.946,424.373 252.446,415.206 259,403.5C 261.79,400.535 264.957,398.202 268.5,396.5 Z"/></g>
<g><path style="opacity:1" fill="#f5e6ad" d="M 84.5,414.5 C 102.803,413.6 105.136,419.1 91.5,431C 82.3333,432.5 78.5,428.667 80,419.5C 81.025,417.313 82.525,415.646 84.5,414.5 Z"/></g>
<g><path style="opacity:1" fill="#b29248" d="M 57.5,467.5 C 100.835,467.333 144.168,467.5 187.5,468C 193.543,470.884 195.043,475.384 192,481.5C 190.421,483.041 188.587,484.208 186.5,485C 144.167,485.667 101.833,485.667 59.5,485C 53.7503,482.777 51.5836,478.61 53,472.5C 54.7073,470.963 56.2073,469.296 57.5,467.5 Z"/></g>
</svg>
